<?xml version="1.0" standalone="no"?>
<!DOCTYPE svg PUBLIC "-//W3C//DTD SVG 1.1//EN" "http://www.w3.org/Graphics/SVG/1.1/DTD/svg11.dtd">
<svg xmlns="http://www.w3.org/2000/svg">
<metadata>Copyright (C) 2017 by Dave Gandy</metadata>
<defs>
<font id="fa5brands" horiz-adv-x="1000" >
<font-face font-family="Font Awesome 5 Free" font-weight="400" font-stretch="normal" units-per-em="1000" ascent="850" descent="-150" />
<missing-glyph horiz-adv-x="1000" />
<glyph glyph-name="500px" unicode="&#xf26e;" d="M202 178c-13 27-14 35 14 45 50 15 16-18 85-96v183c3 98 86 180 191 180s191-85 191-189c0-124-119-221-251-182-21 8-4 62 16 56 104 0 175 19 175 125 0 119-150 175-228 87-46-51-35-82-35-307a258 258 0 0 1 389 221 256 256 0 0 1-258 257c-70 0-135-27-183-75 0-1-31-32-41-47l-1-1c-7-9-12-18-39-12-14 3-28 11-28 23v365c0 10 7 20 20 20h471c17 0 17-22 17-29 0-8 0-29-17-29H255V513a318 318 0 0 0 552-213c0-348-478-430-605-122z m123 509c8 37 284 99 466-75 16-14-19-44-28-44-13 0-165 171-409 79-20-8-30 32-29 40zM768 40c15 16 53-25 40-40A438 438 0 0 0 63 237c-3 21 56 30 56 7A381 381 0 0 1 768 40zM417 251c0 7 5 9 40 44l-36 36c-11 11 15 34 25 34 6 0 5-2 42-38l35 35c12 11 44-18 31-31l-35-36 33-34c16-15-10-35-20-35-7 0-6 0-44 38-38-38-36-38-43-38-5 0-11 3-17 9-2 2-11 8-11 16z" horiz-adv-x="875" />
<glyph glyph-name="accessible-icon" unicode="&#xf368;" d="M828 350L803 43c-7-79-125-68-119 10l20 239-80-4a303 303 0 0 0-52-342l-77 76a195 195 0 0 1-276 276l-76 77c42 40 97 69 159 79l147 167-84 48-100-90c-59-52-138 37-80 89l133 119c19 17 47 20 70 7 0 0 272-158 272-159 32-19 41-70 12-102L558 403l207 11c36 2 66-28 63-64zM701 651a99 99 0 1 0 0 199 99 99 0 0 0 0-199zM351-42c40 0 78 13 109 34l78-77a304 304 0 0 0-426 426l77-78c-87-128 4-305 162-305z" horiz-adv-x="875" />
<glyph glyph-name="accusoft" unicode="&#xf369;" d="M629 358c-3-3-175-161-176-163l-181-66c-9-4-15-7-14-17 1-3 2-44 2-54-1-1 0 0-1-2 0 0-222-71-223-71C8-25-9-31 5-12c2 4 458 453 475 471 26 26 49 29 49 29l100-128v-2z m313-235c-11 14-454 581-469 599-27 34 0 33 38 33 19 0 207 1 227 1 47 0 56-1 75-25 4-5 401-480 405-485 11-13 30-37 14-45-5-3-224-94-230-96-20-8-34-13-60 18z m298-3c12-3 14-8 3-16-3-3-241-149-245-152-30-17-75-3-105 4-14 2-596 133-602 134-5 2-8 2-9 7 0 8 12 11 22 15s284 103 293 107c10 4 23 5 29 6 9 0 117-17 127-19L865 62c19-22 40-43 71-29 5 3 230 101 230 101 26-5 70-13 74-14z" horiz-adv-x="1250" />
<glyph glyph-name="adn" unicode="&#xf170;" d="M484 523l127-193H358z m485-173a485 485 0 1 0-969 0 485 485 0 0 0 969 0zM774 189L484 624 195 189h59l66 101h329l66-101h59z" horiz-adv-x="968.8" />
<glyph glyph-name="adversal" unicode="&#xf36a;" d="M942 788c48 0 58-11 58-59V-29c0-48-11-58-58-58H56C11-87 0-77 0-31v762c0 45 11 57 56 57h886zM348 420c19-14 25-34 22-54-3-37-147-22-222-60-53-27-83-81-77-139C84 41 246 12 358 83c9 6 16 9 23 2 4-5 4-8 8-12 14-19 74-28 91-15 6 6 9 12 5 21-27 60-13 123-18 174 0 135 12 218-68 251-82 34-164 32-244-10-32-17-105-103-49-125 10-5 25-8 44-11 16-2 26-6 34 16 24 63 111 85 164 46zM908-14c0 28-19 19-32 19-258 1-517 1-775 0-13 0-33 10-33-17-1-31 20-21 34-21h772c13 0 34-10 34 19z m8 665c0 1 0 1 0 1 0 20-7 30-26 28-7-1-13 0-19 0-51 0-51 0-51-51V490c-155 89-243-13-266-59-32-65-43-130-31-196C555 55 701 11 805 69c9 5 13 15 25-2 16-25 46-11 70-11 15 0 16 16 16 27v568zM815 198c-38-93-142-85-176-11-29 65-30 134 1 199 32 66 117 69 159 9 41-56 30-165 16-197z m-576-69c-14 2-64 6-65 54-1 27 15 45 38 50 48 12 97 20 144 29 18 4 15-9 15-19 3-64-51-115-132-114z" horiz-adv-x="1000" />
<glyph glyph-name="affiliatetheme" unicode="&#xf36b;" d="M312 386C212 248 84 170 27 212c-57 43-22 189 79 327 100 139 228 217 284 174 57-42 22-188-78-327z m686 112c1-16 2-32 2-49 0-296-238-536-531-536-162 0-307 73-404 189a514 514 0 0 1 320 260c16-64 47-114 96-144 142-86 373 39 517 280z" horiz-adv-x="1000" />
<glyph glyph-name="algolia" unicode="&#xf36c;" d="M448 493a174 174 0 1 0 0-348 174 174 0 0 0 0 348z m122-110c3 1 4 4 2 7-23 42-68 70-119 72-3 1-5-2-5-5V327c0-3 4-6 7-4z m190 404c63 1 115-51 115-114V28c0-64-52-115-115-115H115C52-87 0-36 0 28v645c0 63 52 115 115 115h645zM364 623h1v-31c0-3 3-6 6-5a272 272 0 0 0 152 1c3-1 6 2 6 5v30c0 21-17 38-38 38h-89c-21 0-38-17-38-38z m-165-72a38 38 0 0 1 0-54l16-15c2-2 5-2 7 1a274 274 0 0 0 64 63c2 2 2 6 0 8l-15 15a38 38 0 0 1-54 0zM448 72a247 247 0 1 1 0 494 247 247 0 0 1 0-494z" horiz-adv-x="875" />
<glyph glyph-name="amazon-pay" unicode="&#xf42c;" d="M27 215c5 8 11 9 19 5 21-11 41-23 61-33a1171 1171 0 0 1 979-33c5 3 11 4 17 3 14-4 18-18 8-27A746 746 0 0 0 898 22a928 928 0 0 0-255-45h-41c-2 0-4 1-5 1-7 0-14 0-21 1a817 817 0 0 0-256 51A867 867 0 0 0 36 200c-4 3-6 7-9 11v4z m309 508c5 0 11 0 16 0 7-1 13-2 19-3 42-9 69-34 86-72 14-31 17-64 16-98-1-30-7-59-20-86-18-36-46-60-86-68a137 137 0 0 0-123 34V289c0-2 0-4 0-6-1-6-5-10-10-10-14 0-28 0-41 0-6 0-10 4-10 10 0 2 0 4 0 6v408c0 14 2 16 16 16h22c9 0 14-4 15-13 1-5 2-10 3-16 0-1 0-1 0-2 5 3 10 7 14 10 22 16 47 26 75 30z m-93-82c1-27 0-55 0-82 0-28 1-55 0-83 0-3 2-5 4-6 22-15 45-26 73-27 39-2 70 14 83 55 6 20 8 40 8 60 0 22-2 44-10 65a71 71 0 0 1-65 50c-33 3-63-7-89-25-2-2-4-4-4-6 0-1 0-1 0-1z m402 82c8 0 16 0 23 0 7-1 14-1 21-2 16-3 30-6 43-14 23-14 33-34 37-60 1-7 2-15 2-23 0-1 0-1 0-2V415s0 0 0-1 0-3 0-4c0-5-5-10-10-10-10 0-21 0-32 0-5 1-9 5-10 11-1 7-2 14-4 21-1 0-2-1-3-2-23-19-49-32-78-36-26-4-51-2-74 11a80 80 0 0 0-42 61c-3 21-2 41 7 60 12 25 33 40 58 49 21 7 43 9 65 8 21-2 42-5 62-10 1 0 2 0 3 0 0 1 0 2 0 3 0 16 0 32 0 48-1 12-3 23-11 32-8 11-20 15-33 17-24 3-48 1-72-3-16-3-31-7-46-11-9-3-13 0-13 9 0 7 0 13 0 20s3 12 10 15c12 4 23 8 35 11 18 5 37 7 57 8 1 0 3 1 5 1z m69-250c-1 10 0 19 0 28s0 19 0 28c0 3-1 5-4 5-17 2-33 5-49 7-5 0-9 0-14 0-12 0-24-1-35-5-15-5-27-14-32-30a64 64 0 0 1 1-38c3-12 12-22 24-26 10-4 21-5 33-3 27 2 51 13 73 29 1 1 3 3 3 5z m507-252v-34c-1-7-2-14-4-21-9-40-23-77-48-109-8-9-16-18-25-26-3-2-6-4-9-5-6-1-9 2-8 8 0 2 1 4 1 6 12 29 23 58 31 88 5 15 8 30 7 45 0 11-5 18-15 21-9 2-18 4-28 5-22 2-44 0-67-2-15-1-30-3-45-5-1 0-3 0-4 0 0 0 0 0-1 0-2 0-6 1-7 4 0 1 0 2 0 3s1 3 1 5a202 202 0 0 0 85 37 286 286 0 0 0 118-4c9-3 16-6 18-16zM963 461c1-1 1-2 2-4 5 15 10 29 15 43l68 195c1 3 2 6 3 8 2 6 7 11 14 11 0 0 1 0 1 0 13 0 26 0 39 0 5 0 8-4 7-9 0-4-2-7-3-11-46-117-92-234-138-351-5-12-11-24-18-36a82 82 0 0 0-77-41c-11 0-22 1-33 4-11 1-14 6-14 17-1 6-1 13 0 19 0 7 3 10 10 10 5-1 9-2 14-2 3-1 6-1 10-1 7 0 14 1 20 3 15 4 24 13 30 26 7 14 12 29 18 43 4 9 3 15 0 23a84654 84654 0 0 0-119 297c-1 4 1 8 6 8 15 1 30 0 45 0 6 0 10-4 12-9 4-11 9-22 13-33 25-70 50-140 75-210z" horiz-adv-x="1250" />
<glyph glyph-name="amazon" unicode="&#xf270;" d="M502 532c0 77 11 135-69 135 0 0-74 0-106-96l-143 13c0 96 91 203 263 203 171 1 219-111 219-160V339c0-53 63-103 63-103L618 127c-19 18-76 71-88 91-89-138-359-129-359 85 0 199 236 226 331 229z m0-169v79c-65-2-164-21-164-113 0-99 164-123 164 34zM768 43C753 24 631-87 427-87S67 52 19 110c-13 15 2 22 11 16 143-87 367-230 727-59 15 7 26-4 11-24z m78-4c-13-31-31-52-42-60-10-9-18-6-12 7s37 91 24 107c-12 17-72 9-93 7s-26-4-28 0c-4 11 43 31 74 34 30 4 80 2 89-11 8-10 0-53-12-84z" horiz-adv-x="875" />
<glyph glyph-name="amilia" unicode="&#xf36d;" d="M469 788c262 0 375-109 375-266V-57c0-6-2-16-10-18s-112-2-130-2-111 2-117 4c-8 2-12 12-12 18v50c-77-42-206-82-299-82C62-87 32 80 32 116S22 302 91 334c62 26 306 71 476 93v76c0 87-2 142-115 142-109 0-234-49-297-93-12-8-32-8-40 12-10 24-18 67-20 77-4 20 4 32 14 38a624 624 0 0 0 360 108z m98-680v208c-87-8-186-39-234-65-42-20-36-80-36-104 1-21 12-87 116-87 59 0 112 22 154 48z" horiz-adv-x="875" />
<glyph glyph-name="android" unicode="&#xf17b;" d="M821 260a47 47 0 1 0 0 94 47 47 0 0 0 0-94z m-517 0a47 47 0 1 0 0 94 47 47 0 0 0 0-94z m534 282l94 163c2 3 3 6 3 11a20 20 0 0 1-37 8l-95-164a586 586 0 0 1-481 0l-95 164c-3 7-10 11-18 11a19 19 0 0 1-16-30l94-162A553 553 0 0 1 0 100h1125a553 553 0 0 1-287 443z" horiz-adv-x="1125" />
<glyph glyph-name="angellist" unicode="&#xf209;" d="M678 429c94-23 107-98 107-183 0-223-143-396-374-396C223-150 90-1 90 140c0 73 28 121 100 140-6 16-16 41-16 58 0 46 49 103 95 103 13 0 26-4 39-8-25 68-91 247-91 316 0 56 28 101 89 101 78 0 167-281 186-337 24 61 102 319 189 319 55 0 86-44 86-96 0-59-66-243-89-307z m-69 210l-65-183 66-12c17 46 92 252 92 289 0 14-4 32-21 32-31 0-64-102-72-126zM278 756c0-57 67-235 89-291 15 9 38 5 69 3l-68 196c-62 181-90 115-90 92z m-5-383c-15 0-39-26-39-41 0-40 109-191 150-191 11 0 20 13 20 23 0 25-73 209-131 209zM633 10c108 120 96 309 61 341-47 41-207 57-270 57-34 0-34-13-34-26 0-85 181-77 235-77 22 0 31-20 33-42-14-14-34-23-53-30-19-6-37-14-53-25-43-32-85-85-85-140 0-35 20-65 20-99 0 0-4-12-4-14-63 4-79 68-81 120-7-1-16-1-23-1 10-34-23-82-74-82-74 0-172 112-114 170 56-70 68-100 100-100 8 0 23 6 23 16 0 25-84 143-106 143-33 0-74-49-41-134A262 262 0 0 1 419-85c85 0 158 32 214 95zM441 256c6-16 13-33 18-49 12 14 25 26 40 37-20 4-39 6-58 12z" horiz-adv-x="875" />
<glyph glyph-name="angrycreative" unicode="&#xf36e;" d="M1250 385l-6-55-68-5-3-35 67 4-6-55-68-4-4-39 67 4-6-51-126-8 25 221-93-225-62-4-47 230 60 4 26-155 62 161zM834 124l25 235 55 4-25-235zM316 92l-38 70-6-73-55-3 5 57c-22-35-63-67-111-70C47 69-6 114 1 187c5 57 52 122 131 127 74 5 93-45 101-56l5 60 76 5c39 3 76-7 83-46l5 52 127 8-6-55-71-4-3-35 71 4-5-54-71-5-4-39 71 5-4-41 107 229 47 3 62-216 18 168-44-3 6 54 146 10-5-55-48-3-19-179-113-8-8 31-77-5-16-32z m-86 137l-52-3c-13 24-28 32-51 31-37-3-65-34-68-65-2-32 15-64 56-61 25 1 42 17 57 37l53 3z m109 15c3 25-14 27-50 24l-6-55c28 2 54 4 56 31z m42-138l11 117c-10-26-29-41-54-52z m264 88l-15 74-31-77zM313 340l-9 34-77-5-16-36-62-4 111 238 47 3 60-199 19 204 53 4 74-124 13 130 55 4-8-81c15 26 45 87 125 93 79 5 102-57 104-59l6 62 77 5c25 2 54 0 71-19l-9 24 63 4 25-84 45 89 61 4-85-153-10-87-55-3 9 86-31 84c2-43-17-78-62-97l49-75-71-5-37 72-8-75-56-4 7 62c-13-18-39-69-117-74-51-4-89 20-108 76l-8-79-48-3-74 124-12-129z m540 160c20 1 34 4 42 8 9 5 14 13 15 24 1 10-1 17-7 20-7 4-20 6-44 4z m-213-68c11-11 25-17 42-15 9 0 17 3 26 8 10 6 20 15 29 28l-67-5 5 47 123 8 3 24-61-4c-8 7-16 12-22 15-8 4-16 6-24 5-15-1-30-7-43-18a67 67 0 0 1-25-48c-2-18 3-33 14-45z m-393-16l46 3-16 74z" horiz-adv-x="1250" />
<glyph glyph-name="angular" unicode="&#xf420;" d="M363 326l74 179 75-179H363z m74 462l406-146-62-538L437-87 93 104 31 642z m254-668L437 691 183 120h95l51 128h216l52-128h94z" horiz-adv-x="875" />
<glyph glyph-name="app-store-ios" unicode="&#xf370;" d="M781 788c52 0 94-42 94-94V6c0-51-42-93-94-93H94C42-87 0-45 0 6v688c0 52 42 94 94 94h687zM248 99l38 65c-20 24-46 32-78 22l-28-48a39 39 0 1 1 68-39z m271 105c17 32-5 78-44 78H354l167 291a39 39 0 1 1-67 39l-18-30-17 30a39 39 0 0 1-53 14 39 39 0 0 1-15-53l40-69-127-222H164c-21 0-39-17-39-39s18-39 39-39h355z m192 0a39 39 0 1 1 0 78H609c-51 89-89 155-115 200-23-20-46-76-14-133 33-55 81-139 145-250a39 39 0 0 1 68 39l-39 66h57z" horiz-adv-x="875" />
<glyph glyph-name="app-store" unicode="&#xf36f;" d="M500 614l18 30a40 40 0 1 0 69-39L416 309h124c40 0 62-47 45-80H222a40 40 0 1 0 0 80h102l130 225-41 71a40 40 0 1 0 69 40zM346 188l-38-66a40 40 0 1 0-69 39l28 50c32 10 58 2 79-23z m330 121h104c22 0 40-18 40-40s-18-40-40-40h-58l39-68a40 40 0 1 0-69-39c-66 113-115 198-148 255s-9 115 15 135c26-45 65-113 117-203zM500 834a484 484 0 1 0 0-968 484 484 0 0 0 0 968z m422-484a422 422 0 1 1-844 0 422 422 0 0 1 844 0z" horiz-adv-x="1000" />
<glyph glyph-name="apper" unicode="&#xf371;" d="M82 383c44 0 57-5 66-28h1v44c0 22-9 30-35 30-22 0-28-5-29-25H9c1 27 3 38 12 48 14 17 37 23 90 23 64 0 92-10 105-37 4-8 8-30 8-46V243h-75l3 37h-2c-11-30-27-40-70-40-59 0-80 20-80 73 0 49 24 70 82 70z m34-94c25 0 33 6 33 26 0 18-9 23-39 23-25 0-35-6-35-24 0-20 8-25 41-25z m152 185h74l-2-40h1c18 34 31 41 73 41 28 0 49-6 62-18 19-17 25-40 25-94 0-58-6-84-24-103-13-14-32-20-65-20-39 0-57 11-66 42h-1V144h-77v330z m158-118c0 54-7 63-41 63-33 0-40-9-40-56 0-54 7-65 41-65 32 0 40 11 40 58z m113 118h75l-3-40h1c18 34 31 41 73 41 28 0 49-6 62-18 19-17 25-40 25-94 0-58-6-84-24-103-13-14-32-20-65-20-40 0-57 11-66 42h-1V144h-78v330h1z m158-118c0 54-7 63-41 63-33 0-40-9-40-56 0-54 7-65 41-65 32 0 40 11 40 58z m105 7c0 50 6 74 24 90 17 16 43 22 88 22 84 0 109-25 109-109v-22H876c-1-4-1-7-1-9 0-33 9-43 39-43 27 0 35 6 35 27h73v-4c0-19-4-37-13-48-14-19-38-27-86-27-54 0-82 7-99 24s-22 42-22 99z m149 23c-1 4-1 6-1 7 0 24-6 29-38 29-28 0-33-6-35-30l-1-6h75z m109 88h74l-3-38h1c13 29 28 39 58 39 21 0 37-6 46-18 10-14 13-28 13-67 0-2 0-9 1-18h-69c1 4 1 7 1 8 0 30-4 38-20 38-13 0-21-6-26-18-2-6-2-9-2-24V243h-75v231h1z" horiz-adv-x="1250" />
<glyph glyph-name="apple-pay" unicode="&#xf415;" d="M228 540c-14-17-38-31-61-29-3 24 8 49 22 64 15 18 40 31 61 31 2-24-7-48-22-66z m22-33c13-1 51-5 75-41-2-2-45-27-44-79 0-63 54-83 55-84 0-1-9-29-28-58-18-26-35-51-64-51-27 0-36 16-68 16-31 0-41-16-67-16-28-1-48 26-66 52-35 51-62 144-26 207 18 32 51 52 86 52 27 1 51-17 68-17 16 0 45 21 79 19z m196 70l143 1c73 0 125-51 125-125s-52-126-127-126h-82V197h-59v381z m59-49V377h68c51 0 81 27 81 75s-30 76-81 76h-68z m317-334c-55 0-93 33-94 82 0 49 37 77 106 81l74 5v21c0 31-20 48-57 48-29 0-51-16-55-39h-54c2 49 48 85 111 85 68 0 112-36 112-91V197h-55v46h-1a98 98 0 0 0-87-49z m16 45c40 0 70 26 70 61v22l-66-5c-37-2-56-16-56-40 0-23 20-38 52-38z m200-146c-5 0-19 1-23 2v45c4 0 13 0 18 0 26 0 40 11 49 39l6 17-100 277h62l69-225h1l70 225h60l-104-291c-23-67-50-89-108-89z" horiz-adv-x="1250" />
<glyph glyph-name="apple" unicode="&#xf179;" d="M623 325c0-3-7-119 120-179C719 74 638-86 543-87c-55 0-87 35-150 35-64 0-98-34-148-35C151-90 61 86 36 157 17 212 8 265 8 316c0 173 116 258 225 260 52 0 120-38 149-38 28 0 103 45 173 40 73-6 128-35 165-87-65-40-98-94-97-166zM512 646c-38-45-85-71-136-67-4 54 16 102 50 140 31 37 86 66 133 69 1-21 6-79-47-142z" horiz-adv-x="750" />
<glyph glyph-name="asymmetrik" unicode="&#xf372;" d="M1011 246c-27-28-60-54-96-78l144-215H860L771 93c-35-14-71-26-107-37l64-103H463l45 72c-46-5-91-7-134-5l-43-67H132l68 101C112 89 65 147 66 216c1 50 27 106 82 162 75 78 188 142 315 181-43-16-82-36-121-60-61-31-115-70-155-113C75 267 96 148 224 90l372 558 294-442c26 18 49 38 69 60 191 203 105 406-193 452-134 21-287 11-433-29-117-19-231-62-333-113 231 130 543 199 794 161 215-33 333-136 331-264-1-71-38-149-114-227zM644 89c36 10 72 23 105 37L596 367 397 56c43-2 89 1 135 8l64 104z" horiz-adv-x="1125" />
<glyph glyph-name="audible" unicode="&#xf373;" d="M1250 460V354L625-36 0 354v105L625 69zM870 319a390 390 0 0 1-567 71c-5-4-10-9-15-13a405 405 0 0 0 674-1z m-430-37a226 226 0 0 0 370-1l-89-55c-41 57-102 93-169 93-41 0-79-13-112-37zM202 535c-22-17-47-43-66-63a587 587 0 0 0 979 0l-96-60-1 2a563 563 0 0 1-816 121z m913-63z" horiz-adv-x="1250" />
<glyph glyph-name="autoprefixer" unicode="&#xf41c;" d="M622 819l320-938H791L742 40H508l-49-159H307z m-79-668h163l-79 255h-3z m707-92L940 40l-38 111 329-31z m-902 92L310 41 0 59l20 61z" horiz-adv-x="1250" />
<glyph glyph-name="avianex" unicode="&#xf374;" d="M885 788c76 0 127-61 113-137L887 49C873-27 800-87 724-87H115C39-87-11-27 2 49l111 602c14 76 87 136 163 136l609 1zM771 109l13 16-186 233-9 14c39 28 66 48 69 50 16 13 13 41-5 61-18 21-45 28-60 16 0 0-28-27-66-64l-9 9-202 220-17-10-37-56 134-195 41-58c-24-24-46-47-64-68l-114 61-31-30 103-94 79-119 35 24-43 126c24 15 53 33 81 53L709 83z" horiz-adv-x="1000" />
<glyph glyph-name="aviato" unicode="&#xf421;" d="M209 296l-37 82H71l-38-82H0l122 257 121-257h-34z m-87 192l-39-83h77z m220-200L220 545h34l88-188 88 188h33z m157 8v248l30 1V296h-30z m408 226V296h-33v226h-81v22h195v-22h-81z m343-99a126 126 0 0 0-38-92 131 131 0 0 0-91-38 128 128 0 0 0-130 130 126 126 0 0 0 38 91c12 12 25 17 41 23a128 128 0 0 0 101 1c16-7 30-12 41-24a133 133 0 0 0 38-91z m-30 0a102 102 0 0 1-29 71 100 100 0 0 1-109 21 96 96 0 0 1-53-53c-5-12-7-25-7-39a102 102 0 0 1 28-72 102 102 0 0 1 71-29 102 102 0 0 1 70 29 103 103 0 0 1 29 72z m-185-189c11-2 20-12 21-24 0-14-11-25-25-25s-24 11-24 25c0 12 9 22 21 24v11l-157-18v-10c11-2 19-12 19-24 0-13-11-20-24-20s-24 7-24 20c0 12 8 22 19 24v9l-55-6v-46h11v-27h-11v13h-10v-13h-12v27h12v45l-75-8a65 65 0 0 0-37-27v-13h10v-24h-8v10h-10v-10h-8v24h10v13s-21 4-37 27l-75 8v-45h12v-27h-12v13h-10v-13h-11v27h11v46l-55 7v-10c11-2 19-12 19-24 0-13-11-20-24-20s-24 7-24 20c0 12 8 22 19 24v10l-157 18v-11a24 24 0 1 0-7 0v12l-174 20 475-27a105 105 0 0 0-4 27l-127 16 127-4c0 1 0 2 0 2 6 34 50 47 50 47l2 51h-46l-37-82-34 1 122 256 121-256h-33l-37 81h-47l3-51s44-13 49-46c0-1 1-2 1-3l126 4-126-16a119 119 0 0 0-4-26l474 26-173-20v-12zM642 405h35l4 79 3-79h35l-38 83z" horiz-adv-x="1250" />
<glyph glyph-name="aws" unicode="&#xf375;" d="M352 454c-1-45 21-64 22-77-1-5-4-10-8-12l-25-17c-4-3-7-4-11-4-1 0-16-4-40 50-29-35-72-58-120-58-1 0-2 0-3 0-32-1-118 18-113 110-3 75 66 121 138 117 14 0 42 0 92-12v31c5 51-29 91-87 85-5 0-38 1-90-19-14-7-16-6-21-6-14 0-9 42-6 47 10 13 70 36 129 36a148 148 0 0 0 109-34 137 137 0 0 0 34-102z m-168-64c63 1 90 39 96 60 5 19 4 32 4 53-19 5-46 10-77 10-30 2-84-11-82-63-2-33 22-62 59-60z m333-45c-15-1-22 10-24 20l-98 322c-2 6-3 11-3 17 0 0-1 1-1 1 0 5 4 8 8 9 1 0-4 0 44 0 17 2 22-12 24-20l70-275 65 275c1 6 5 21 25 20h33c4 0 22 1 25-20l65-279 72 279c1 4 5 22 25 20h38c2 0 12 1 11-17-1-4 6 21-103-332-3-10-10-21-25-20h-37c-21-2-24 19-24 21l-65 268-64-268c0-2-4-23-25-21h-36z m535-11c-12 0-67 1-112 24a25 25 0 0 0-16 24v21c0 16 12 13 18 11 19-8 32-14 56-19 71-15 103 5 111 9 25 15 27 50 10 68-21 17-30 18-104 41-9 3-85 27-85 102-2 56 48 110 135 110 25 0 91-8 109-31 3-4 4-9 4-14v-19c0-9-4-13-10-13-15 1-42 22-96 21-13 0-78-2-75-49-1-37 52-51 58-52 71-22 95-25 123-58 34-44 16-95 9-109-37-73-134-67-136-67z m78-205A896 896 0 0 0 625-25c-2 0-4 0-6 0C383-25 168 64 5 210c-12 12-1 28 14 19C201 125 412 65 636 65c1 0 2 0 2 0 167 0 327 35 472 96 23 10 43-15 20-32z m57 65c-17 23-116 11-160 6-13-2-15 10-3 18 78 55 207 39 221 21 15-19-4-147-77-209-11-9-22-4-17 8 17 42 54 134 36 156z" horiz-adv-x="1250" />
<glyph glyph-name="bandcamp" unicode="&#xf2d5;" d="M500 834a484 484 0 1 0 0-968 484 484 0 0 0 0 968z m94-636l166 304H406L241 198h353z" horiz-adv-x="1000" />
<glyph glyph-name="behance-square" unicode="&#xf1b5;" d="M364 278c0-38-27-50-61-50h-88v103h90c36 0 59-15 59-53z m-15 161c0-32-21-45-50-45h-84v87h78c30 0 56-8 56-42z m259-46c37 0 56-22 59-58H546c2 36 26 58 62 58z m267 301V6c0-51-42-93-94-93H94C42-87 0-45 0 6v688c0 52 42 94 94 94h687c52 0 94-42 94-94zM531 489h152v37H531v-37z m-84-216c0 47-23 88-69 101 34 16 51 35 51 72 0 75-55 93-119 93H133V164h182c68 1 132 33 132 109z m295 29c0 80-47 147-132 147-83 0-139-62-139-143 0-85 54-143 139-143 65 0 107 29 127 92h-66c-7-24-36-36-59-36-43 0-66 26-66 69h196c0 5 0 10 0 14z" horiz-adv-x="875" />
<glyph glyph-name="behance" unicode="&#xf1b4;" d="M453 387c85-24 127-89 127-175C580 71 461 11 336 11H0v692h326c119 0 222-34 222-172 0-70-33-115-95-144zM152 585V423h154c55 0 93 24 93 83 0 63-49 79-104 79H152z m163-457c62 0 112 22 112 92 0 71-42 99-109 99H152V128h163z m700 470H734v68h281v-68z m110-344c0-9-1-18-1-26H762c0-80 43-127 123-127 42 0 96 22 109 65h122C1078 51 1001-2 881-2 723-2 625 105 625 261c0 150 103 265 256 265 157 0 244-124 244-272z m-362 61h224c-6 66-41 107-110 107-66 0-110-41-115-107z" horiz-adv-x="1125" />
<glyph glyph-name="bimobject" unicode="&#xf378;" d="M813 788c34 0 62-29 62-63V-25c0-34-28-62-62-62H63C28-87 0-59 0-25v750c0 34 28 63 63 63h750zM688 285h-1v68c0 97-22 161-202 161h-34c-59 0-127-16-136-76h-3v146H187V131h125v68h2c16-47 52-76 138-76h33c180 0 202 65 202 162z m-125 56v-45c0-42-7-65-75-65h-89c-56 0-86 12-86 69v37c0 58 30 70 86 70h89c68 0 75-23 75-66z" horiz-adv-x="875" />
<glyph glyph-name="bitbucket" unicode="&#xf171;" d="M43 788l912-1c2 0 4 0 6 0a31 31 0 0 0 25-36L854-63c-3-15-16-26-31-26H186c-21 0-38 15-41 35L12 751c0 2 0 4 0 6 0 17 14 31 31 31z m559-582l49 287H344l55-287h203z" horiz-adv-x="1000" />
<glyph glyph-name="bitcoin" unicode="&#xf379;" d="M984 350a484 484 0 1 0-968 0 484 484 0 0 0 968 0z m-276 69c9 65-40 99-107 122l22 88-53 13-21-85c-14 3-29 6-43 10l21 85-53 14-22-88c-11 3-22 6-33 8v1l-74 18-14-57s40-9 39-10c21-5 25-19 25-30l-25-100c1 0 3-1 5-2-1 1-3 1-5 2l-35-140c-3-6-9-16-24-12 0-1-39 9-39 9l-26-60 69-18c13-3 25-6 38-9l-22-89 53-13 21 87c14-3 29-7 43-11l-22-87 53-13 22 88c91-17 159-10 188 72 23 66-1 104-49 129 35 8 61 31 68 78zM586 249c-16-66-127-31-163-22l29 117c36-9 151-26 134-95z m17 171c-15-60-108-30-138-22l27 106c30-7 126-21 111-84z" horiz-adv-x="1000" />
<glyph glyph-name="bity" unicode="&#xf37a;" d="M153 719a484 484 0 0 0 670-8c28-27-12-72-43-42a423 423 0 0 1-584 7c-32-30-72 16-43 43zM346-99A484 484 0 0 0 15 483c10 41 68 25 59-14A424 424 0 0 1 362-39c41-13 22-70-16-59z m289 4c-37-12-58 44-17 58a425 425 0 0 1 280 495c-9 42 50 54 59 15 55-242-83-489-321-568zM514 59a29 29 0 1 0-58 0v141c0 15 13 28 29 28s29-12 29-28z m138 526c0 42 64 38 64 0V445c0-135-119-178-231-176-111-2-230 41-230 176v140c0 38 63 42 63 0-2-173-13-258 167-259 177 1 172 81 167 259z" horiz-adv-x="968.8" />
<glyph glyph-name="black-tie" unicode="&#xf27e;" d="M0 788h875V-87H0v875z m618-636L492 512l126 169H257l126-169-126-360L438-21z" horiz-adv-x="875" />
<glyph glyph-name="blackberry" unicode="&#xf37b;" d="M324 622c0-46-32-96-141-96H46l41 173h132c82 0 105-45 105-77z m247 77c82 0 105-45 105-77 0-46-32-96-137-96H402l36 173h133zM173 444c83 0 106-46 106-78 0-50-32-96-142-96H0l41 174h132z m352 0c82 0 105-46 105-78 0-50-32-96-137-96H356l37 174h132z m370 105c82 0 105-46 105-78 0-50-32-96-137-96H726l37 174h132z m-55-270c83 0 105-45 105-77 0-50-27-96-137-96H671l37 173h132zM470 174c83 0 105-45 105-77 0-46-27-96-137-96H301l37 173h132z" horiz-adv-x="1000" />
<glyph glyph-name="blogger-b" unicode="&#xf37d;" d="M872 415c4-17 5-262-5-296-14-50-35-87-68-122-47-47-97-73-160-81-37-5-393-4-422 1C130-67 43 4 13 101 1 141-1 170 0 368c1 158 2 186 6 203 23 91 84 163 169 196 46 19 76 21 211 20 87-1 112-2 124-6 48-14 90-40 128-79 53-54 80-114 80-178 0-34 5-46 25-58 13-7 17-8 56-10 24-1 45-3 49-5 11-6 21-20 24-36zM243 539c-24-24-12-70 21-79 6-2 47-3 99-3 84 1 89 1 98 7 17 10 24 23 24 42 0 21-8 33-26 43-12 6-15 6-101 6-95 0-100 0-115-16z m375-390c28 16 33 55 9 77-16 15-15 15-190 15-170 0-177 0-190-13a55 55 0 0 1-16-44c2-15 15-32 29-38 7-3 44-5 177-3l152 1z" horiz-adv-x="875" />
<glyph glyph-name="blogger" unicode="&#xf37c;" d="M317 467c10 10 12 10 71 10 53 0 55 0 63-4 11-6 16-14 16-27 0-11-5-19-15-26-5-3-8-3-60-4-32 0-58 1-62 2-20 5-28 34-13 49z m120-184c108 0 108 0 118-10 15-13 12-37-6-47l-18-3-93-1c-83-1-106 0-110 2-9 4-17 14-18 24-2 8 3 21 10 27 8 7 12 8 117 8zM873 29c-6-56-44-99-99-113-14-3-19-3-338-3-308 0-324 0-336 3-16 5-30 11-44 20-10 7-27 23-33 32C16-21 7-2 4 11 0 24 0 29 0 349c0 319 0 326 4 340 12 48 50 85 100 96 14 3 648 4 664 0 41-8 74-33 93-71 15-30 13 3 14-352 0-227 0-322-2-333zM707 390c-2 10-9 19-15 23-2 1-16 2-31 3-24 1-27 2-34 6-12 7-16 15-16 36 0 40-17 77-49 110-24 24-50 40-80 49-7 2-23 3-76 4-84 1-103-1-131-12-53-21-91-66-105-122-2-11-3-28-3-126-1-122 0-141 7-165 19-60 73-104 127-114 18-3 238-4 261-1 39 5 70 21 99 51 21 21 34 44 42 75 7 21 6 173 4 183z" horiz-adv-x="875" />
<glyph glyph-name="bluetooth-b" unicode="&#xf294;" d="M384 342l191-202-290-290-5 387L111 69l-61 61 211 212L50 554l61 61 169-168v403l285-306z m80 201l-99 99 1-196z m-98-304l-1-196 99 98z" horiz-adv-x="625" />
<glyph glyph-name="bluetooth" unicode="&#xf293;" d="M572 516l-84-84-1 168zM487 86l1 168 83-83z m326 257c0-401-141-493-362-493S63-58 63 343c0 402 162 507 384 507 221 0 366-105 366-507z m-310 0l155 173-244 263V433L270 577l-53-52 181-182-181-182 52-52 144 144 5-332 249 249z" horiz-adv-x="875" />
<glyph glyph-name="btc" unicode="&#xf15a;" d="M606 376c90-21 146-75 135-195C727 31 621-9 462-17v-133h-95v130c-24 0-49 0-75 1v-131h-95v133s-17 0-190 0L26 96c68-1 99-7 104 32v424c-9 48-48 43-123 42v101c115-1 156-1 190 0v155h95V698c25 1 51 1 75 1v151h95V695c122-11 214-48 225-160 8-82-27-131-81-159zM294 587V398c54 0 221-12 221 94 0 112-167 95-221 95z m0-491c64 0 260-14 260 104 0 121-196 104-260 104V96z" horiz-adv-x="750" />
<glyph glyph-name="buromobelexperte" unicode="&#xf37f;" d="M0 788h250V538H0v250z m234-235v219H16V553h218z m79 235h250V538H313v250z m234-235v219H328V553h219z m78 235h250V538H625v250z m234-235v219H641V553h218zM0 475h250V225H0v250z m234-234v218H16V241h218z m79 234h250V225H313v250z m234-234v218H328V241h219z m78 234h250V225H625v250z m234-234v218H641V241h218zM0 163h250V-87H0v250zM234-72v219H16V-72h218z m79 235h250V-87H313v250zM547-72v219H328V-72h219z m78 235h250V-87H625v250z" horiz-adv-x="875" />
<glyph glyph-name="buysellads" unicode="&#xf20d;" d="M438 556l83-314H354z m437 138V6c0-51-42-93-94-93H94C42-87 0-45 0 6v688c0 52 42 94 94 94h687c52 0 94-42 94-94zM748 58L563 642H312L127 58h178l218 179 47-179h177z" horiz-adv-x="875" />
<glyph glyph-name="cc-amazon-pay" unicode="&#xf42d;" d="M244 456c0 23 0 46 0 69v69c0 2 0 4 2 5 23 16 47 24 75 22 24-2 44-14 55-43 6-17 8-35 8-54 0-17-2-34-7-50-11-35-36-48-70-47-22 1-42 10-61 23-2 2-3 3-2 6z m302-29c-10 4-17 11-20 22s-3 21 0 32c4 13 13 21 26 25 14 5 27 5 41 4s27-4 41-6c3 0 3-1 3-4 0-8 0-15 0-23s0-16 0-23c0-3 0-4-2-5-19-14-39-22-61-25-10-1-19 0-28 3z m579 267V6c0-52-42-94-94-94H94C42-88 0-46 0 6v688c0 51 42 93 94 93h937c52 0 94-42 94-93z m-405-47c1-3 2-7 3-10 32-79 64-159 97-238 2-7 3-13 0-19-5-12-10-25-15-37-5-11-13-18-25-22-8-2-17-2-25-2-4 1-8 2-13 2s-8-2-8-8c0-5 0-11 0-16 0-9 3-13 12-15 9-1 19-3 28-3 28-1 50 11 65 35 5 10 10 20 15 30a94406 94406 0 0 1 118 303c1 5-2 7-6 7-11 0-22 0-33 0-6 0-10-2-12-8-1-2-2-5-3-7l-57-163c-4-12-8-24-13-37 0 2-1 3-1 4-21 59-42 117-63 176-4 9-7 18-11 27-1 5-5 8-10 8-13 0-25 0-38 0-4 0-6-3-5-7zM473 448c4-23 15-41 36-52 19-11 40-12 62-9a133 133 0 0 1 68 32c1-6 2-12 3-18 1-5 4-8 9-9 9 0 18 0 27 0 4 1 7 3 7 8 1 2 1 3 1 4v174c0 7-1 14-2 21-3 21-12 39-31 50-11 6-23 9-35 11-6 1-12 2-18 2h-19c-2 0-4 0-5 0-16-1-32-3-48-7-10-3-19-6-29-10-6-2-9-6-9-12 1-6 0-11 0-17 1-8 4-10 12-8 12 4 25 7 38 10 20 3 41 5 61 2 10-1 20-5 27-14 6-7 8-17 9-26 0-14 0-28 0-41 1-1 0-1 0-2-1 0-1 0-2 0-17 4-35 7-52 8-19 1-37 0-55-6-21-8-38-20-48-41-8-16-9-33-7-50zM193 641V299c0-2 0-4 0-5 0-5 3-8 8-8 12-1 23-1 35 0 4 0 7 3 8 8 0 1 0 3 0 5v118c1-1 2-2 3-3 30-24 63-32 100-25 34 7 57 27 72 57 11 23 16 47 17 72 1 28-2 56-13 82a96 96 0 0 1-72 60c-5 1-11 2-16 2h-14c-2 0-4 0-7-1-23-2-43-11-62-25-4-2-7-5-11-8-1 1-1 1-1 2-1 5-1 9-2 14-1 7-5 10-13 11h-19c-11 0-13-2-13-14z m771-453c-5 1-10 0-15-2a991 991 0 0 0-820 27c-17 9-34 18-51 28-7 4-12 3-16-5v-3c3-3 5-6 8-9A723 723 0 0 1 522 38c6 0 11 0 17 0 2 0 3-1 4-1h35c1 0 3 1 4 1a728 728 0 0 1 389 127c8 8 4 20-7 23z m98 54c-1 8-7 11-14 14a241 241 0 0 1-98 3c-24-4-46-12-66-26-3-1-5-3-6-6-1-1-2-4-1-6 0-3 3-3 6-3 1 0 2 0 3 0l38 4c19 2 38 3 57 2 8-1 15-3 23-5s12-8 12-17c1-13-2-25-5-38-7-25-17-49-26-73-1-2-2-4-2-5-1-5 2-8 7-7 3 0 6 2 8 4a222 222 0 0 1 61 113c1 6 2 12 3 18 0 9 0 18 0 28z" horiz-adv-x="1125" />
<glyph glyph-name="cc-amex" unicode="&#xf1f3;" d="M635 522c0-15-8-30-23-36 19-7 22-18 22-36v-27h-33c0 29 7 49-29 49l-35 1v-50h-32v136l76-1c26 0 54-4 54-36z m-57-22c11 0 21 3 21 16 0 12-11 14-21 14h-41v-30h41z m-33-175c30 0 54-10 54-44 0-54-59-46-96-46v-45h-63l-40 45-41-45H231v135h130l40-44 41 44h103zM342 219l37 39-35 39h-81v-24h71v-28h-71v-26h79z m129-17v109l-50-54z m73 61c12 0 21 6 21 18s-9 16-20 16h-42v-34h42z m-61 267h-76v-24h74v-28h-74v-27h76v-28H374v136h109v-29z m642-179z m-380-62c0-15-8-30-23-36 18-7 21-19 21-36v-27h-33l1 22c0 23-8 27-29 27h-35v-49h-32v135h77c25 0 53-4 53-36z m-57-22c11 0 21 2 21 16 0 12-11 14-21 14h-40v-30h40zM350 423h-32v106l-47-106h-29l-47 106V423h-66l-12 30H49l-12-30H2l58 136h48l55-129v129h53l42-92 39 92h53V423zM61 481h44l-22 54z m932-310c68 0 107-4 132 12V6c0-52-42-94-94-94H94C42-88 0-46 0 6v398h52c8 20 4 10 13 30h37c8-20 4-10 13-30h103v22c4-9 2-5 10-22h57c5 11 5 11 10 22v-22h265v49c13 0 16 0 19 0 0 0 0-22 0-49h130v18c15-12 34-18 58-18h53c8 20 4 11 12 30h37c13-29 1-1 13-30h103v43c23-38 15-25 26-43h81v180h-78v-36c-24 40-12 20-22 36h-84v-40c-12 28-9 21-17 40h-64s-4 0-4 1h-54c-25 0-45-7-60-19v19h-78v-11c-21 12-40 10-126 11 0 0-22 0-22 0H281c-4-12-13-32-24-59-6 12-22 47-27 59h-90v-42c-15 34-9 22-18 42H45c-7-16-27-63-45-106v215c0 51 42 93 93 93l938 1c52 0 94-42 94-94V351c-74 1-86 2-106-10v10c-89 0-105 3-127-10v10H739v-10c-22 13-42 10-148 10v-11c-12 7-28 11-47 11H431c-7-7-25-27-31-33-25 27-21 22-30 33H207V171h160c7 7 26 27 32 34 25-28 20-23 30-34h95c0 29 1 16 1 45 22-1 47 0 67 12 0-27-1-34-1-57h78c0 36 0 14 0 49 12 0 15 0 18 0 1-2 0 0 0-49 299 0 285-2 306 9v-9z m71 126c-9 0-18-2-18-13 0-24 56 1 77-26v-51c-9-13-27-17-44-17h-62v29h62c8 0 17 2 17 12 0 29-84-11-84 54 0 27 22 40 47 40h64v-28h-59z m-111-78c8 0 17 2 17 13 0 29-83-11-83 53 0 28 21 41 46 41h65v-29h-60c-8 0-18-2-18-12 0-30 84 13 84-52 0-32-22-43-51-43h-63v29h63z m-83 78h-75v-24h74v-28h-74v-26l75-1v-28H762l1 135h107v-28zM762 509s3 1 14 1c2 0 4 0 6 0l-14-33c-5 0-7 1-7 1 0 1-2 4-2 16 0 10 2 14 2 15z m39 20z m-31 30h31v-30c-34 1-65 8-65-38 0-23 6-39 32-39h14l46 106h49l54-128v128h50l56-94v94h33V423h-46l-61 102V423h-65l-13 30h-67l-13-30h-37c-45 0-65 23-65 67 0 45 21 69 67 69z m82-24l-23-54h45z m-197 24h33V423h-33v136z" horiz-adv-x="1125" />
<glyph glyph-name="cc-apple-pay" unicode="&#xf416;" d="M590 423c0-33-20-53-56-53l-48 1v105h48c36 0 56-19 56-53z m93-122c0 17 14 26 40 28l45 3v-15c0-25-21-43-49-43-22 0-36 11-36 27z m442 395V8c0-52-42-93-94-93H94C42-85 0-44 0 8v688c0 52 42 94 94 94h937c52 0 94-42 94-94zM250 465c16-1 32 8 43 20 10 13 17 30 15 46a64 64 0 0 1-58-66z m118-146c0 1-38 15-39 59 0 37 30 54 32 55a67 67 0 0 1-53 29c-24 1-44-14-56-14-11 0-29 13-47 13-25-1-48-14-60-37-25-44-6-109 18-145 12-18 27-37 46-36 18 0 26 11 47 11 23 0 29-11 48-11 20 0 32 18 44 35 14 21 20 40 20 41z m264 105c0 52-36 87-87 87H445V245h41v91h57c53 0 89 36 89 88z m176-47c0 39-31 64-78 64-44 0-76-26-77-60h37c3 17 18 27 39 27 25 0 39-11 39-33v-15l-51-3c-48-3-74-23-74-57 0-35 26-57 65-57 26 0 50 13 61 34h1v-32h38v132z m200 61h-42l-49-157h-1l-48 157h-44l70-194-3-12c-7-19-17-27-35-27-4 0-10 0-12 0v-32c2 0 12-1 15-1 41 0 60 16 76 62z" horiz-adv-x="1125" />
<glyph glyph-name="cc-diners-club" unicode="&#xf24c;" d="M468 694a343 343 0 1 0 1-686 343 343 0 0 0-1 686z m-78-546v406a218 218 0 0 1 0-406z m156-1a218 218 0 0 1 0 407V147z m485 641c52 0 94-42 94-94V6c0-51-42-93-94-93H94C42-87 0-45 0 6v688c0 52 42 94 94 94h937zM644-25c205 0 392 167 392 372 0 223-187 378-392 378H468A370 370 0 0 1 89 347C89 142 260-25 468-25h176z" horiz-adv-x="1125" />
<glyph glyph-name="cc-discover" unicode="&#xf1f2;" d="M1016 467c0-16-10-25-31-25h-9v49h10c20 0 30-9 30-24z m15 321c52 0 94-42 94-94V6c0-51-42-93-94-93H94C42-87 0-45 0 6v688c0 52 42 94 94 94h937z m-86-272V356h31v64h5l43-64h38l-50 67c23 5 36 21 36 46 0 55-59 47-103 47z m-109 0V356h88v27h-57v43h55v27h-55v36h57v27h-88z m-134 0h-34l68-164h17l69 164h-34l-44-108z m-109 6a87 87 0 1 1-1-174 87 87 0 0 1 1 174z m-97-12a85 85 0 0 1-123-74c0-64 65-103 123-75v37c-37-37-91-11-91 38 0 46 52 76 91 37v37zM306 381c-14 0-27 7-34 21l-20-20c35-51 111-35 111 22 0 26-11 37-46 50-19 7-24 12-24 20 0 17 28 28 48 5l17 21c-38 34-98 18-98-27 0-23 11-34 40-45 50-18 29-47 6-47z m-198-25c61 0 86 44 86 80 0 47-35 80-86 80H62V356h46z m132 0v160h-31V356h31zM1062 4v283C997 247 620 44 250-25h783c16 0 29 13 29 29zM145 476c11-10 17-25 17-40 0-16-6-31-17-41-10-8-23-12-43-12h-8v106h8c20 0 33-4 43-13z" horiz-adv-x="1125" />
<glyph glyph-name="cc-jcb" unicode="&#xf24b;" d="M843 373v63c80 0 75-1 75-1 14-2 26-14 26-31s-12-28-26-31c-2 0-6 0-75 0z m83-40c15-3 27-16 27-33s-12-30-27-33c-5-1-6-1-83-1v68c77 0 78 1 83-1z m199 361V6c0-51-42-93-94-93H94C42-87 0-45 0 6v688c0 52 42 94 94 94h937c52 0 94-42 94-94zM356 474H244c0-131 21-214-70-214-38 0-76 11-112 29v-55c59-16 133-16 133-16 192 0 161 93 161 256z m348-8c-124 31-322 29-322-116 0-151 211-144 322-116v56c-93-49-210-43-210 60s117 109 210 61v55z m359-176c0 37-33 60-75 63v2c38 5 59 30 59 59 1 37-30 58-72 60 0 0 13 1-235 1V226h240c47-1 83 25 83 64z" horiz-adv-x="1125" />
<glyph glyph-name="cc-mastercard" unicode="&#xf1f1;" d="M943 49c0-14-9-23-22-23s-22 10-22 23 9 23 22 23 22-11 22-23zM336 72c13 0 21-11 21-23 0-14-8-23-21-23-14 0-22 10-22 23s8 23 22 23z m230 0c10 0 17-6 18-17h-37c2 10 8 17 19 17z m210 0c14 0 22-11 22-23 0-14-8-23-22-23-13 0-21 10-21 23s8 23 21 23z m207-51c0-1 1-1 1-3 0 0-1-1-1-2-1 0-1-1-1-1-1-1-1-1-2-1-1-1-1-1-2-1s-1 0-2 1c-1 0-1 0-2 1-1 0-1 1-1 1-1 1-1 2-1 2 0 1 0 2 1 3 0 1 1 1 1 2 1 0 1 0 2 1 1 0 1 0 2 0s1 0 2 0c1-1 1-1 2-1 1-1 0-1 1-2z m-4-3c1 0 1 0 1 0 1 1 1 1 1 2s0 1-1 2c0 0-1 0-2 0h-3v-7h2v3l2-3h2z m146 674V4c0-51-42-93-94-93H94C42-89 0-47 0 4v688c0 52 42 94 94 94h937c52 0 94-42 94-94zM125 419a271 271 0 0 1 420-225 291 291 0 0 0 0 450 271 271 0 0 1-420-225z m438-212a270 270 0 0 1 0 424 270 270 0 0 1 0-424zM285 58c0 17-12 28-29 28-9 0-19-2-25-12-5 8-13 12-24 12-7 0-15-2-21-10v8h-16V13h16c0 37-5 59 18 59 20 0 16-20 16-59h15c0 35-4 59 18 59 20 0 16-20 16-59h16v45z m87 26h-15v-8c-5 6-13 10-23 10-20 0-36-16-36-37 0-22 16-38 36-38 10 0 18 4 23 11v-9h15v71z m79-50c0 30-44 16-44 30 0 11 23 9 36 2l6 13c-18 12-59 12-59-16s45-16 45-29-26-12-41-2l-6-12c22-15 63-12 63 14z m69-18l-4 14c-7-5-24-9-24 8v32h26v14h-26v22h-16V84h-15l1-14h14V38c0-35 34-29 44-22z m27 26h53c0 32-14 45-34 45s-35-16-35-38c0-40 44-47 66-28l-8 12c-15-13-38-11-42 9z m115 42c-9 4-23 4-30-8v8h-16V13h16v40c0 23 19 20 25 17z m21-35c0 22 22 29 40 16l8 13c-23 18-64 8-64-30s43-46 64-29l-8 13c-18-13-40-5-40 17z m130 35h-16v-8c-16 21-58 9-58-27 0-38 43-49 58-27v-9h16v71z m66 0c-5 3-22 6-30-8v8h-15V13h15v40c0 22 18 20 25 17z m78 30h-15V76c-16 21-58 10-58-27 0-38 44-48 58-27v-9h15v101z m15 146v-9h2v9h4v2h-9v-2h3z m13-242c0 1 0 3 0 4-1 0-1 1-2 2-1 0-2 1-2 1-1 0-2 1-3 1s-2-1-3-1-2-1-2-1c-1-1-2-2-2-2 0-1 0-3 0-4 0 0 0-1 0-2s1-2 2-2c0-1 1-1 2-2s2-1 3-1 2 0 3 1c0 1 1 1 2 2s1 1 2 2c0 1 0 2 0 2z m6 244h-2l-3-7-4 7h-2v-11h1v8l3-6h2l3 6v-8h2v11z m9 157a271 271 0 0 1-420 225 291 291 0 0 0 0-450 270 270 0 0 1 420 225z" horiz-adv-x="1125" />
<glyph glyph-name="cc-paypal" unicode="&#xf1f4;" d="M364 346c0-24-19-42-43-42-18 0-31 10-31 29 0 24 18 43 42 43 18 0 32-11 32-30z m-207 94c22 0 39-3 34-29-4-25-20-27-42-27l-16-1 9 52c0 3 3 5 6 5h9z m555 0c17 0 35-1 35-21 0-30-17-35-43-35l-15-1 8 52c0 3 3 5 6 5h9z m413 254V6c0-51-42-93-94-93H94C42-87 0-45 0 6v688c0 52 42 94 94 94h937c52 0 94-42 94-94zM251 429c0 41-32 55-68 55h-78c-5 0-10-4-10-9L63 275c-1-3 2-7 6-7h37c5 0 10 5 11 11l8 52c2 14 26 9 36 9 55 0 90 33 90 89z m164-17h-37c-8 0-8-11-8-16-12 17-28 20-47 20-47 0-84-42-84-89 0-38 24-62 62-62 18 0 39 9 52 23-1-3-2-9-2-12 0-5 2-8 6-8h34c5 0 9 5 10 11l20 126c1 3-2 7-6 7z m79-191l125 181c1 1 1 2 1 3 0 3-3 7-7 7h-37c-4 0-7-2-9-5l-52-76-21 73c-2 4-6 8-11 8h-36c-4 0-7-4-7-7 0-2 38-111 42-121-6-8-40-56-40-62 0-3 3-6 6-6h37c4 0 7 2 9 5z m311 208c0 41-31 55-68 55h-77c-5 0-10-4-11-9l-31-199c-1-4 2-8 6-8h40c4 0 7 3 8 6l9 57c1 14 25 9 35 9 55 0 89 33 89 89z m165-17h-37c-8 0-8-11-9-16-11 17-27 20-46 20-48 0-84-42-84-89 0-38 23-62 62-62 18 0 40 9 51 23 0-3-2-9-2-12 0-5 2-8 7-8h33c6 0 10 5 11 11l20 126c1 3-2 7-6 7z m92 65c1 4-2 7-6 7h-36c-3 0-6-2-6-5l-32-203v-1c0-4 3-7 6-7h33c5 0 9 5 10 11l31 198zM888 376c18 0 32-11 31-30 0-24-19-42-42-42-18 0-32 10-32 29 0 24 19 43 43 43z" horiz-adv-x="1125" />
<glyph glyph-name="cc-stripe" unicode="&#xf1f5;" d="M962 419c17 0 35-13 35-45h-72c0 32 19 45 37 45z m-230-5c26 0 43-29 43-65 0-37-17-65-43-65-16 0-26 6-32 13l-1 103c7 8 17 14 33 14z m299 374c52 0 94-42 94-94V6c0-51-42-93-94-93H94C42-87 0-45 0 6v688c0 52 42 94 94 94h937zM239 301c0 83-106 68-106 99 0 11 9 15 23 15 21 0 48-6 69-18v66c-23 9-46 12-69 12-56 0-93-29-93-78 0-77 105-65 105-98 0-13-11-17-27-17-23 0-52 10-76 22v-66c26-11 52-16 76-16 58 1 98 29 98 79z m134 111v59h-52v60l-68-15-1-222c0-41 31-71 72-71 23 0 40 4 49 9v56c-9-3-53-16-53 25v98l53 1z m145-5v64h-1c-9 3-41 9-57-21l-5 21h-60V228h70v164c16 22 44 18 53 15z m86-179v243h-70V228h70z m0 279v56l-70-15v-56z m144-284c50 0 95 40 95 128 0 80-45 124-94 124-27 0-45-13-54-21l-4 17h-61V147l69 15v78c10-7 25-17 49-17z m314 100c0 4 1 18 1 25 0 71-35 127-101 127s-106-56-106-126c0-84 47-126 115-126 33 0 58 7 77 18v55c-19-9-41-15-68-15s-51 10-54 42h136z" horiz-adv-x="1125" />
<glyph glyph-name="cc-visa" unicode="&#xf1f0;" d="M918 398s15-72 18-88h-65c7 18 31 85 31 85s7 18 11 29z m207 296V6c0-51-42-93-94-93H94C42-87 0-45 0 6v688c0 52 42 94 94 94h937c52 0 94-42 94-94zM298 203l123 303h-83l-77-207-8 42-27 140c-5 19-19 25-36 25H64l-2-6c31-8 59-19 83-33l70-264h83z m184 0l49 303h-78l-49-303h78z m274 99c0 35-21 61-66 83-28 13-45 23-45 37 1 13 15 26 45 26 26 1 45-5 59-11l7-4 11 66c-16 6-40 13-71 13-77 0-132-42-132-101-1-43 39-67 69-82s40-24 40-38c0-20-24-29-47-29-31 0-48 5-73 16l-11 5-11-68c19-9 53-16 88-17 82 0 136 41 137 104z m275-99l-63 303h-61c-18 0-33-5-41-25L750 203h82s14 37 16 45h101c3-11 10-45 10-45h72z" horiz-adv-x="1125" />
<glyph glyph-name="centercode" unicode="&#xf380;" d="M643 325a125 125 0 1 0-249 27 125 125 0 0 0 249-27zM475-134a484 484 0 1 0 49 967 484 484 0 0 0-49-967z m352 352c54 230-314 402-464 457C251 565 228 307 297 3c135-31 331 51 530 215z" horiz-adv-x="1000" />
<glyph glyph-name="chrome" unicode="&#xf268;" d="M257 425L108 655a484 484 0 0 0 809-87l-401 21c-114 7-222-57-259-164z m64-75a163 163 0 1 0 326 0 163 163 0 0 0-326 0z m615 174a484 484 0 0 0-479-658l219 337c63 96 61 221-13 307zM261 257a256 256 0 0 1 273-142L409-128A483 483 0 0 0 79 615z" horiz-adv-x="968.8" />
<glyph glyph-name="cloudscale" unicode="&#xf383;" d="M621 549c12 13 31-6 19-18L493 357a55 55 0 1 0-49 49l49 40a181 181 0 0 1-303-142c-2 12-2 25-2 38 0 139 112 258 252 258 62 0 119-28 163-66zM458 331c11 11 11 29 0 40a28 28 0 0 1-40 0 28 28 0 0 1 0-40c11-10 29-10 40 0z m-21 457a438 438 0 1 0-1-877 438 438 0 0 0 2 877z m0-750a313 313 0 1 1 0 625 313 313 0 0 1 1-625z" horiz-adv-x="875" />
<glyph glyph-name="cloudsmith" unicode="&#xf384;" d="M649 30a164 164 0 1 0-328 0 164 164 0 0 0 328 0zM485 506c-90 0-156-65-156-156s-73-156-164-156S1 259 1 350s73 172 164 172 148 58 148 148 82 164 172 164 157-73 157-164-66-164-157-164z" horiz-adv-x="648.4" />
<glyph glyph-name="cloudversify" unicode="&#xf385;" d="M290 256h-95c-13 0-23 11-23 23v79c0 15 13 23 21 23h91v-13c0-21 18-32 38-32h40c21 0 38 17 38 38v40c0 20-7 38-30 38 36 29 73 42 88 47 30 110 82 180 194 214 108 32 300 6 364-166a254 254 0 0 0 180-303A254 254 0 0 0 940 50C843-51 675-46 575 39c-153-8-269 84-285 217z m444-15c17-106 117-128 180-116a199 199 0 0 1 137 290l-20 38c2-44-25-118-93-150 128 132 4 276-132 294-98 13-163-25-224-85 94-9 172-53 199-146-59 96-201 110-261 79a194 194 0 0 1-111-183c7-93 77-132 112-156-9 42-8 139 57 182C507 170 633 5 842 71c-65 28-129 79-108 170zM250 444h-78c-17 0-31 14-31 31v78c0 17 14 31 31 31h78c17 0 32-14 32-31v-78c0-17-15-31-32-31zM20 522c-11 0-20 9-20 20v54c0 11 9 20 20 20h54c11 0 20-9 20-20v-54c0-11-9-20-20-20H20z m308 49v42c0 10 8 18 18 18h42c10 0 18-8 18-18v-42c0-10-8-18-18-18h-42c-10 0-18 8-18 18zM109 390v-49c0-12-10-22-22-22H38c-12 0-22 10-22 22v49c0 12 10 23 22 23h49c12 0 22-11 22-23z" horiz-adv-x="1203.1" />
<glyph glyph-name="codepen" unicode="&#xf1cb;" d="M981 538c12-8 19-22 19-36V198c0-14-7-28-19-36L524-143a43 43 0 0 0-48 0L19 162c-12 8-19 22-19 36v304c0 14 7 28 19 36l457 305c16 9 32 9 48 0zM543 727V526l186-124 150 100z m-86 0L121 502l150-100 186 124v201zM86 422V278l108 72zM457-27v201L271 298 121 198z m43 276l152 101-152 102-152-102z m43-276l337 225-151 100-186-124V-27z m371 305v144l-108-72z" horiz-adv-x="1000" />
<glyph glyph-name="codiepie" unicode="&#xf284;" d="M825 454c60 0 66-104 0-104h-21v-86h-52v190h73z m97-293a473 473 0 0 0-438-295 484 484 0 1 0 0 968c191 0 338-105 427-270L547 352z m-75-24l-118 60A276 276 0 0 0 490 57a291 291 0 1 0 0 583c94 0 174-46 228-124l116 67a411 411 0 0 1-350 196 429 429 0 0 1 0-858c154 0 287 83 363 216z" horiz-adv-x="921.9" />
<glyph glyph-name="connectdevelop" unicode="&#xf20e;" d="M1075 379c13-2 23-14 23-28 0-15-10-27-24-30L967 135c1-3 2-6 2-9 0-15-10-27-24-29L844-79c1-3 2-6 2-9 0-16-14-30-30-30-9 0-16 4-22 10H585a30 30 0 0 0-45 0H331c-5-7-13-11-22-11-16 0-30 13-30 30 0 4 1 7 2 10L180 98a29 29 0 0 0-22 38L50 321c-13 3-23 15-23 29 0 15 10 27 24 30l105 180c0 1-1 2-1 3 0 12 7 22 18 27l109 190c-1 2-2 6-2 9a30 30 0 0 0 53 19h207c5 7 13 11 23 11s17-4 22-11h208a30 30 0 0 0 53-19c0-3-1-6-2-10l108-187c16 0 29-13 29-29 0-5-1-10-4-14zM300-30v148h-85z m0 163v99l-88-92c1-2 2-5 3-7h85z m0 122v182l-98 101c-5-3-10-4-15-5L85 357c1-2 1-4 1-7 0-2 0-5-1-7l109-189c2 0 5-2 8-3z m0 200v141l-86-31s1-2 1-2c0-6-2-11-5-15z m0 158v116l-85-147z m638-77l-1 1-191-198 124-132 69 327zM570 156l-22-23h44z m-1 22l155 161-162 171-155-165z m11-11l33-34h242l12 55-132 140z m222 596L573 521l162-171 191 198c-3 4-5 9-5 15v1L808 761c-2 0-4 1-6 2z m-18 4l-9 1-324-118 111-117z m-241 1H340l99-105 290 104-147 1c-5-6-12-9-19-9s-15 3-20 9z m-227-11V618l107 39-100 105c-2 0-4-1-5-1z m0-155V439l80-82 155 164-117 124z m0-181V272l71 75z m0-172V133h210l33 35-161 168z m13-316h3l179 185H316V-57l2-4c4-1 8-3 11-6z m254 0h203L608 118h-75L354-67h188c5 4 13 8 21 8s15-4 20-8z m234 23l34 162H628L802-62c2 1 4 2 7 3z m25 43l68 119h-42z m68 134c1 3 2 5 3 6l-33 36-9-42h39z m130 210c-1 3-1 5-1 8s1 5 1 8l-89 155-68-320 41-43c2 1 5 2 7 3z" horiz-adv-x="1125" />
<glyph glyph-name="contao" unicode="&#xf26d;" d="M89 254C117 123 140 2 222-88H66C30-88 0-58 0-21v742c0 37 30 67 66 67h113c-27-25-51-54-72-86-89-136-53-286-18-448z m845 534c36 0 66-30 66-67V-21c0-37-30-67-66-67H832c75 75 118 180 112 320l-268-58c-4-63-26-125-112-143-49-10-89 1-114 23-31 26-56 61-97 256-42 196-33 238-16 274 14 30 46 57 94 68 88 18 133-29 162-86l267 57c-26 68-61 123-103 165h177z" horiz-adv-x="1000" />
<glyph glyph-name="cpanel" unicode="&#xf388;" d="M411 420c13-57-29-128-101-128h-63l13 47c3 12 14 21 28 21h20c24 0 40 23 36 44-5 18-20 29-36 29h-39l-50-187c-4-12-15-21-28-21h-48l68 254c3 13 14 21 28 21h72c47 0 89-32 100-80z m-306-55c-49 0-48-73 0-73h22c8 0 15-7 13-16l-14-51h-24c-66 0-116 61-99 127 15 53 56 81 100 81h78l-12-46c-3-13-14-22-28-22h-36z m483 68c37 0 66-34 56-72l-27-101c-6-21-24-35-46-35l-112 1c-84 0-75 124 1 124h95l-7-25c-4-13-15-22-28-22h-42c-10 0-10-15 0-15h68c9 0 10 8 11 10l17 62c0 2 3 11-4 11H457c-19 0-32 17-27 36l6 26h153z m649 67c8 0 15-7 12-16l-51-192a90 90 0 0 0-88-67l69 260c3 9 11 15 21 15h36z m-462-67c67 0 116-64 98-128l-17-65c-2-9-11-15-20-15h-37c-9 0-15 8-13 16l21 78c6 23-11 46-35 46h-39l-34-125c-2-9-11-15-20-15h-37c-8 0-15 7-12 16l51 191h94v1z m192-146h143l-11-41c-4-12-14-21-28-21H941c-39 0-65 37-55 72l21 78c9 34 40 58 75 58h93c37 0 65-35 55-72l-6-24c-6-21-25-34-46-34H974l7 25c3 12 14 21 28 21h42c4 0 6 2 7 6l2 5c1 6-3 10-8 10h-64c-8 0-14-4-15-11l-16-59c-2-6 3-13 10-13z" horiz-adv-x="1250" />
<glyph glyph-name="creative-commons-by" unicode="&#xf4e7;" d="M615 470V272h-55V37H409v235h-55v198a31 31 0 0 0 31 32h199a31 31 0 0 0 31-32zM417 595c0 45 22 68 67 68s68-23 68-68-23-68-68-68-67 23-67 68z m67 239c277 0 485-215 485-484 0-287-232-484-485-484a486 486 0 0 0 0 968z m1-87A399 399 0 0 1 87 350C87 136 265-46 485-46c202 0 396 158 396 396 0 222-176 397-396 397z" horiz-adv-x="968.8" />
<glyph glyph-name="creative-commons-nc-eu" unicode="&#xf4e9;" d="M484 834c275 0 485-213 485-484 0-287-231-484-485-484A486 486 0 0 0 0 350c0 256 202 484 484 484z m1-880c239 0 346 200 349 204L584 269H407c18-77 77-98 132-98 37 0 75 12 92 21l20-90c-28-16-75-31-127-31-112 0-221 67-243 198h-53v57h44c1 32 1 26 1 39h-45v57h9l-128 57A400 400 0 0 1 485-46z m-33 372l-1 1 2-1h-1z m151 39l266-119c8 33 12 67 12 104 0 221-175 397-396 397-26 0-207 6-334-183l160-70a246 246 0 0 0 214 122c50-1 93-12 122-25l-23-92c-21 9-54 19-90 19a123 123 0 0 1-117-71l56-25h137v-57h-7z" horiz-adv-x="968.8" />
<glyph glyph-name="creative-commons-nc-jp" unicode="&#xf4ea;" d="M484 834c275 0 485-213 485-484 0-287-231-484-485-484A486 486 0 0 0 0 350c0 256 202 484 484 484z m1-880c231 0 339 188 342 192l-158 71v-70H544V38H423v109H298v76h125v36l-11 23H298v75h55L105 468A400 400 0 0 1 485-46z m171 268l-107 48-5-11v-37h112z m13 101l197-88c10 36 15 74 15 115 0 221-176 397-396 397a393 393 0 0 1-339-191l160-72-54 100h129l77-168 45-19 85 187h128L593 357h76v-34z" horiz-adv-x="968.8" />
<glyph glyph-name="creative-commons-nc" unicode="&#xf4e8;" d="M484 834c273 0 485-210 485-484 0-287-232-484-485-484A487 487 0 0 0 0 350c0 260 204 484 484 484zM109 481A399 399 0 0 1 485-45c239 0 346 199 349 203l-183 81c-15-72-80-103-133-108V57h-56v74c-54 1-103 20-147 58l66 68c62-58 169-62 169 4 0 12-4 22-13 29-27 12-3 1-428 191z m376 267c-75 0-219-17-333-182l185-83c20 61 79 84 125 87v74h56v-74c44-3 85-18 121-45l-63-65c-83 58-163 16-137-22 105-47 86-38 182-81l248-111c8 34 12 69 12 104 0 111-38 205-115 281a379 379 0 0 1-281 117z" horiz-adv-x="968.8" />
<glyph glyph-name="creative-commons-nd" unicode="&#xf4eb;" d="M484 834c277 0 485-215 485-484 0-287-232-484-485-484a486 486 0 0 0 0 968z m1-87A399 399 0 0 1 87 350C87 136 265-46 485-46c202 0 396 158 396 396 0 222-176 397-396 397z m184-282v-83H317v83h352z m0-156v-83H317v83h352z" horiz-adv-x="968.8" />
<glyph glyph-name="creative-commons-pd-alt" unicode="&#xf4ed;" d="M484 834c277 0 485-215 485-484 0-287-232-484-485-484a486 486 0 0 0 0 968z m1-880c202 0 396 158 396 396 0 222-176 397-396 397A399 399 0 0 1 87 350C87 136 265-46 485-46z m134 533c41 0 136-10 136-134s-95-134-136-134H515v268h104z m1-212c47 0 68 30 68 78 0 82-61 78-69 78l-38-1V275h39zM398 487c66 0 99-31 99-91 0-18-6-91-112-91h-53v-86h-67v268h133z m-10-132c55 0 59 81-1 81h-56v-81h57z" horiz-adv-x="968.8" />
<glyph glyph-name="creative-commons-pd" unicode="&#xf4ec;" d="M484 834a484 484 0 1 0 0-968 484 484 0 0 0 0 968z m0-878c149 0 279 83 346 205-3 1 24-11-426 189 0-62 31-140 105-140 37 0 60 20 71 32l71-85c-51-45-111-58-155-58-91 0-236 54-236 248 0 22 3 44 7 64l-154 69A394 394 0 0 1 484-44z m380 293s0 0 1 0a394 394 0 0 1-709 317l146-66c38 61 104 101 196 101 40 0 100-8 153-54l-79-81c-39 39-109 45-146-21z" horiz-adv-x="968.8" />
<glyph glyph-name="creative-commons-remix" unicode="&#xf4ee;" d="M484 834c277 0 485-215 485-484 0-287-232-484-485-484a486 486 0 0 0 0 968z m1-87A399 399 0 0 1 87 350C87 136 265-46 485-46c202 0 396 158 396 396 0 222-176 397-396 397z m316-406l10-4V200c-14-7-124-53-132-56-13 4-222 92-268 110l-125-52-124 54v124l116 49c-2 1-1-10-1 137l131 58 297-123V381zM664 182v86h-1v3l-223 91v-88l223-92v1z m14 113l78 32-72 30-76-32z m102-75v84l-86-36v-85z" horiz-adv-x="968.8" />
<glyph glyph-name="creative-commons-sa" unicode="&#xf4ef;" d="M484 834c277 0 485-215 485-484 0-287-232-484-485-484a486 486 0 0 0 0 968z m1-87A399 399 0 0 1 87 350C87 136 265-46 485-46c202 0 396 158 396 396 0 222-176 397-396 397zM269 418c25 164 157 187 213 187 195 0 249-161 249-262 0-124-80-259-252-259-76 0-194 39-214 189h122c3-59 39-88 107-88 45 0 113 35 113 162 0 161-96 157-111 157-64 0-101-29-109-86h36l-96-96-96 96h38z" horiz-adv-x="968.8" />
<glyph glyph-name="creative-commons-sampling-plus" unicode="&#xf4f1;" d="M484 834c277 0 485-215 485-484 0-287-232-484-485-484a486 486 0 0 0 0 968z m1-87A399 399 0 0 1 87 350C87 136 265-46 485-46c202 0 396 158 396 396 0 222-176 397-396 397z m209-401h114v-45h-98l-36-85c-9-21-40-17-43 6l-5 44-14-162c-2-28-43-28-45 0l-9 126-9-115c-2-28-44-27-46 0l-8 141-10-158c-2-28-44-28-45 0l-10 143-9-137c-1-28-43-28-45 0l-11 153-8-85c-2-27-41-28-45-2l-21 143c-3-8-11-13-20-13H171v46h86l25 54c10 20 40 16 43-7l4-23 15 175c2 28 43 28 45 0l8-112 11 157c2 28 43 28 45 0l8-130 10 164c2 28 44 28 46 0l11-184 7 87c2 28 43 28 45 0l10-134 9 100c2 27 42 28 45 1l21-181 8 18c4 9 12 15 21 15z m-152-11c8 0 14 7 14 15s-6 15-14 15h-43v42a15 15 0 1 1-29 0v-42h-43c-8 0-15-7-15-15s7-15 15-15h43v-42c0-9 6-15 14-15 9 0 15 7 15 15v42h43z" horiz-adv-x="968.8" />
<glyph glyph-name="creative-commons-sampling" unicode="&#xf4f0;" d="M484 834c277 0 485-215 485-484 0-287-232-484-485-484a486 486 0 0 0 0 968z m1-87A399 399 0 0 1 87 350C87 136 265-46 485-46c202 0 396 158 396 396 0 222-176 397-396 397z m7-104c6 1 23-2 23-22l13-210 9 116c0 12 9 21 21 21 11 0 21-9 21-21 0-5-1 11 11-159l11 125c1 6 6 19 20 19 7 0 19-5 21-18l22-188 10 25c4 8 11 13 20 13h114v-42H708l-35-87c-8-19-38-17-41 7l-8 62-14-181c-1-6-6-18-20-18-6 0-19 4-21 18 0 4 1-11-12 152l-11-141c-2-9-9-18-20-18-6 0-19 4-21 18 0 4 1-13-11 171l-12-185c0-12-7-24-20-24-10 0-21 8-21 23l-11 172c-12-181-11-164-11-168-2-9-9-18-20-18-6 0-19 4-21 18 0 1-1 2-1 5l-12 173-9-111c-2-12-14-18-21-18-12 0-19 8-21 18l-22 149c-3-8-6-17-21-17H170v42h88l27 54c8 20 35 15 38-5l7-40 16 192c0 11 9 20 21 20 1 0 20 1 20-24l10-135 13 181c0 20 18 21 20 21 1 0 20-2 20-21l11-157 12 191c0 2-1 20 19 22z" horiz-adv-x="968.8" />
<glyph glyph-name="creative-commons-share" unicode="&#xf4f2;" d="M484 834c277 0 485-215 485-484 0-287-232-484-485-484a486 486 0 0 0 0 968z m1-87A399 399 0 0 1 87 350C87 136 265-46 485-46c202 0 396 158 396 396 0 222-176 397-396 397z m197-258c16 0 27-12 27-27V105c0-15-12-26-27-26H419c-15 0-27 11-27 26v106H286c-15 0-26 12-26 27v356c0 16 13 25 24 27h266c15 0 27-12 27-27V488l105 1zM312 264h80v198c0 14 11 24 23 26h109v79H312V264z m344 172H445V132h211v304z" horiz-adv-x="968.8" />
<glyph glyph-name="creative-commons" unicode="&#xf25e;" d="M480 430l-65-33c-18 38-49 39-53 39-44 0-65-29-65-86 0-46 18-86 65-86 28 0 48 14 59 42l60-31c-12-22-50-76-127-76-44 0-145 20-145 151 0 114 84 150 142 150 60 0 103-23 129-70z m280 0l-64-33c-19 38-51 39-55 39-43 0-65-29-65-86 0-46 18-86 65-86 28 0 48 14 60 42l60-31c-4-7-42-76-127-76-44 0-144 20-144 151 0 114 84 150 142 150 60 0 102-23 128-70zM484 834c277 0 485-215 485-484a486 486 0 1 0-485 484z m1-880c202 0 396 158 396 396 0 222-176 397-396 397A399 399 0 0 1 87 350C87 135 265-46 485-46z" horiz-adv-x="968.8" />
<glyph glyph-name="css3-alt" unicode="&#xf38b;" d="M0 788h750L682 15 375-87 68 15z m612-157H139l11-92h240l-13-5-219-92 7-90h1l324-1-7-120-107-30-102 26-7 74h-95l12-144 193-57 192 56 25 286H376l1 1 225 96z" horiz-adv-x="750" />
<glyph glyph-name="css3" unicode="&#xf13c;" d="M938 788L813 69 376-87 0 69l38 185h160l-15-79 227-87 262 87 37 189H58l31 160h652l20 103H110l32 160 796 1z" horiz-adv-x="1000" />
<glyph glyph-name="cuttlefish" unicode="&#xf38c;" d="M672 253c27-99 81-182 170-230A483 483 0 0 0 0 350a484 484 0 0 0 842 327 355 355 0 0 1-170-230 223 223 0 0 1-188 106c-110 0-203-93-203-203s93-203 203-203c76 0 154 45 188 106z" horiz-adv-x="859.4" />
<glyph glyph-name="d-and-d" unicode="&#xf38d;" d="M161 657c-1 33 4 66 25 94 1-14 2-28 8-42 12 53 39 96 83 128-4-12-7-23-6-35 17 15 37 35 87 44 28 6 58 4 82-2 75-18 119-67 136-141 10-45 1-88-16-129-10-25-24-48-41-69-4 4-7 7-11 11-84 80-52 49-73 73-2 2-2 4 0 7 16 26 23 55 19 86-2 19-8 37-22 51a72 72 0 0 1-104-1 93 93 0 0 1-22-85c1-3 1-5 0-8-6-27-9-54-4-81 0-1 0-2 0-3s0-1-1-2c-42 21-70 55-84 102-16-35-22-70-13-106-30 30-42 67-43 108z m917-241c1-1 3-2 4-3v-1c-30 7-59 4-87-2-18-4-36-9-52-18-6-3-12-6-16-9-11 5-22 11-34 13-48 11-89-2-122-39-38-43-67-93-91-145l-2-5c-1-1-1-1-1-1-24 16-42 39-71 50 1 1 1 2 2 2 40 55 87 103 146 138a261 261 0 0 0 111 38c-8 0-17 1-25 0-42-4-79-19-115-40-27-15-51-34-71-58-1-1-2-2-2-3-1 1-1 1-2 2 21 60 60 107 113 143 0-1 1-1 1-1-2-3-5-6-7-10-3-6-7-13-10-19-3-9 3-17 24-1 35 27 57 51 95 57 2 1 3 1 4 1h5c-2-1-3-2-5-3-22-15-23-14-29-23-5-8 0-16 9-14 5 1 10 3 15 5a178 178 0 0 0 135-1c29-13 56-30 78-53zM619 73c2-2 3-4 1-8-49-98-119-174-226-193a254 254 0 0 0-245 87c-4 5-7 10-11 16-2-15 0-29 3-42-1-1-1-1-1-1-7 6-13 12-19 20C97-18 83 17 74 54c-23 94-1 154 15 197-17-9-31-20-46-31 23 64 62 117 110 165 4-4 6-9 6-15-1-1-12-76-11-87 37 37 79 65 126 86-14-22-21-46-23-73 26 24 54 39 91 27-17-18-60-59-76-125-10-43-7-85 16-123 22-35 55-54 97-54 24 0 46 10 66 23 37 24 65 56 86 93 4 6 3 4 4 6 39-32 7-5 84-70z m335 91c40-13 70-37 86-76 18-45 4-96-34-129-32-27-70-37-111-34-1 0-3 0-4 0 30-21 62-30 99-21-4-5-7-9-11-13-24-21-53-33-84-39-77-14-147 25-166 112-1 4-1 8-2 12-21-16-32-66-1-102-3 1-5 1-7 2-42 16-67 55-65 100 1 45 9 80-26 109-32 27-64 54-97 81a87 87 0 0 0-33 49c-2 9-2 18-3 27-1 12-7 22-16 29-8 8-18 15-27 22a48 48 0 0 0-14 59c6-26 19-37 44-40 9-1 18-2 26-3 16-2 25-12 28-28 2-6 3-13 4-20 4-11 9-15 21-16 9-1 18-1 27-2 15-1 28-7 39-17 38-32 76-63 114-94 12-9 24-16 39-17 32-1 56 30 48 62 0 2-1 3 0 6 5-4 9-8 14-12 27-27 35-77 17-109-4-8-11-14-16-21 1-1 3-1 6-2 27-2 53 2 76 18 31 21 35 61 10 89-9 11-17 16-37 24 13 2 38 0 57-6zM194 500c-10 18-26 30-43 41 27 1 52 0 77-7a97 97 0 0 0-9 76c10-24 26-40 46-53 38-25 69-38 91-59 6-6 12-13 19-21-2 4-3 8-5 12-10 21-25 36-44 49-3 2-5 5-7 8-6 25-5 49-1 74 2 11 6 21 9 32 1 4 4 9 8 13 1-14 0-50 38-90 21-22 44-43 66-64 18-17 36-33 50-52 2-4 4-7 7-10-9 26-27 47-47 66-19 19-38 36-57 54-6 6-9 13-10 21-2 20 0 40 9 59 1 2 2 4 3 7 1-9 1-16 3-23 9-45 40-71 96-124 20-18 38-38 50-62 10-18 15-37 11-58 0-1 1-3 3-4 12-5 19-13 19-27 15 5 24 15 32 28 8-40-18-98-54-115 1 9 10 46-32 54-13 3-25 3-45 4 10 18 21 41 1 44-48 9-103-4-112-9 16-1 31-2 45-6-3-13-7-25-11-37-4-13 4-29 18-19 3 2 5 4 7 5-6-35-6-31-6-35 1-20 19-16 31-15-5-23-58-53-89-50 14 9 25 20 31 35-12-2-25-3-37-5l-1 2c9 7 16 15 20 26 17 41-7 74-49 78-17 1-34-2-50-11 12 30 33 52 63 67-29 9-17 5-48 12 29 19 59 26 91 29-10 6-94 7-137-41 16-3 30-5 45-8-46-14-86-39-121-70 2 10 5 19 6 28s2 18 0 27c-3 18-17 29-38 32-16 2-31 0-46-3-2 0-3 0-5 0 30 29 70 43 103 66 12 8 14 16 6 29z m251-53c6-31 24-49 46-47-9 22-23 38-46 47z" horiz-adv-x="1125" />
<glyph glyph-name="dashcube" unicode="&#xf210;" d="M638 647l199 203 1-834c0-99-79-166-179-166H216C116-150 37-83 37 16v448c0 98 79 183 179 183h422zM301 37v-1h437L638 139v241c0 34-28 63-63 63H301c-35 0-64-29-64-63V101c0-35 29-65 64-65z" horiz-adv-x="875" />
<glyph glyph-name="delicious" unicode="&#xf1a5;" d="M872 717c2-7 3-15 3-23V6c0-52-42-94-94-94H94a95 95 0 0 0-63 25c-2 2-5 4-7 6A94 94 0 0 0 0 6v688c0 52 42 94 94 93h687a95 95 0 0 0 53-15c2-2 4-4 6-5a94 94 0 0 0 29-41c1-3 2-6 3-9zM813 6v344H438v375H94c-17 0-31-14-31-31V350h375V-25h343c17 0 31 14 31 31z" horiz-adv-x="875" />
<glyph glyph-name="deploydog" unicode="&#xf38e;" d="M747 584h101V116H747v41c-39-49-104-47-145-29-51 23-86 75-86 140 0 59 29 113 84 139 40 17 103 20 146-26l1 203zM620 268c0-35 27-65 65-65 39 0 65 32 65 64a65 65 0 0 1-130 1zM368 584h101V116H368v41c-38-49-103-47-144-29-51 23-86 75-86 140 0 59 28 113 84 139 40 17 103 20 146-26v203zM242 268c0-35 26-65 65-65 38 0 65 32 65 64a65 65 0 0 1-130 1z m633 395H125c-34 0-62-29-62-63V100c0-34 28-62 62-62h750c34 0 63 28 63 62v500c0 34-29 63-63 63z m0 62c69 0 125-56 125-125V100c0-69-56-125-125-125H125C56-25 0 31 0 100v500c0 69 56 125 125 125h750z" horiz-adv-x="1000" />
<glyph glyph-name="deskpro" unicode="&#xf38f;" d="M402-150l61 75c24 0 50 3 71 13 76 36 75 121 75 125 0 9-2 8-56 73h154c0-98-14-134-20-148-18-47-86-123-186-136-17-2-64-2-99-2z m392 328l-233-1 34 62 343-1c-30-34-69-60-144-60z m-86 437V286H565l-64-108h-13c-102 0-113 110-114 115-2 26-41 22-39-4 3-31 17-78 52-111H209C159 178-7 230 0 400v417c0 31 19 32 29 33h161c9 0 98 4 98-86 0-26 40-26 40 0 0 36-11 64-31 86h164c213 0 247-156 247-235zM450 505l125-57c26 89-83 140-125 57z" horiz-adv-x="937.5" />
<glyph glyph-name="deviantart" unicode="&#xf1bd;" d="M625 668L433 318l15-18h177V50H311l-27-18-85-164c-1 0-17-17-18-18H0V32l182 351-14 18H0v249h305l26 18 85 164c1 0 17 17 18 18h191V668z" horiz-adv-x="625" />
<glyph glyph-name="digg" unicode="&#xf1a6;" d="M160 514v149h99V173H0v341h160z m0-261v180H99V253h61z m580 261h260V38H740v79h160v56H740v341z m160-261v180h-60V253h60z m-460-80v341h260V38H440v79h160v56H440z m100 260V253h60v180h-60zM299 663h101V563H299v99z m0-149h101V173H299v341z" horiz-adv-x="1000" />
<glyph glyph-name="digital-ocean" unicode="&#xf391;" d="M170-91V53h144V-91H170zM50 173h120V53H50v120z m910 332a486 486 0 0 0-460-639V53h1a298 298 0 0 1 108 574 298 298 0 0 1-406-277H16a486 486 0 0 0 944 155zM501 53H314v187h187V53z" horiz-adv-x="1000" />
<glyph glyph-name="discord" unicode="&#xf392;" d="M581 375c0-30-23-55-51-55s-51 25-51 55 22 56 51 56c28 0 51-25 51-56z m-234 56c29 0 52-25 51-56 0-30-22-55-51-55-28 0-51 25-51 55s23 56 51 56z m528 316v-897C749-39 789-75 643 61l27-93H103C46-32 0 14 0 71v676c0 57 46 103 103 103h670c56 0 102-46 102-103zM733 273c0 161-72 292-72 292-72 54-141 52-141 52l-7-8c85-26 125-63 125-63a425 425 0 0 1-374 14c-18-8-29-14-29-14s41 39 131 65l-5 6s-68 2-140-52c0 0-72-131-72-292 0 0 42-72 152-76 0 0 19 23 34 42-64 19-88 59-88 59 7-6 20-12 21-13a365 365 0 0 1 369 12s-25-41-90-59c15-19 33-41 33-41 110 4 153 76 153 76z" horiz-adv-x="875" />
<glyph glyph-name="discourse" unicode="&#xf393;" d="M441 788a438 438 0 0 0 0-875L0-88s0 438 0 446c0 237 202 430 441 430z m-4-688a250 250 0 1 1-219 131L173 84l158 40c32-16 69-24 106-24z" horiz-adv-x="875" />
<glyph glyph-name="dochub" unicode="&#xf394;" d="M777 538H500v274z m-183-63h187V229c0-253-137-379-412-379H0V850h369c24 0 47-2 68-6V680c-19 3-41 4-65 4H187V26h185c150 0 222 65 222 195v254z" horiz-adv-x="812.5" />
<glyph glyph-name="docker" unicode="&#xf395;" d="M683 389H554v116h129V389z m0 399V669H554v118l129 1z m153-283V389H707v116h129zM531 646V528H402v118h129z m152 0V528H554v118h129z m541-196l26-17c-4-8-14-29-17-34-46-88-136-89-178-88C949 54 721-88 414-88 272-88 163-44 91 42A410 410 0 0 0 5 358h849c44-1 77 12 94 21-38 59-28 149 8 203l18 27 27-18c48-37 74-78 80-124 50 9 115 2 143-17z m-998 55V389H97v116h129z m152 0V389H249v116h129z m153 0V389H402v116h129zM378 646V528H249v118h129z" horiz-adv-x="1250" />
<glyph glyph-name="draft2digital" unicode="&#xf396;" d="M938 73L656-87V38H0c36 37 165 171 315 341 63 73 152 163 136 249-11 56-83 99-163 66-17-7-48-34-51-49a112 112 0 1 0-129-92c2 16 10 53 35 94 30 46 89 107 204 131 203 43 316-71 324-80 57-59 94-177 25-300-58-104-158-223-218-291h178v126z m-215 52V19l92 53zM262 535a44 44 0 1 1-87 0 44 44 0 0 1 87 0zM161 107h224c34 37 178 197 251 325 71 128-12 222-12 222-27 29-72 70-160 75 13-11 33-33 47-70 23-59 13-136-55-220-104-128-245-279-295-332z" horiz-adv-x="937.5" />
<glyph glyph-name="dribbble-square" unicode="&#xf397;" d="M176 404c18 83 73 152 148 187 7-9 55-76 99-154a994 994 0 0 0-247-33z m439 145c-5-7-45-60-140-96-44 80-93 146-100 156 85 21 174-2 240-60zM274 139c28 57 103 131 211 167 37-97 53-179 57-202-86-37-189-27-268 35z m193 211a414 414 0 0 1-228-179c-42 48-68 110-68 179 0 2 0 5 0 8 11-1 141-2 274 38 7-15 15-30 22-46z m68-31c83 13 157-9 166-12-12-74-54-138-114-179-3 17-17 95-52 191z m-40 94c99 41 144 98 149 105 37-45 60-103 61-166-9 2-98 20-186 9-8 17-14 33-24 52z m380 281V6c0-51-42-93-94-93H94C42-87 0-45 0 6v688c0 52 42 94 94 94h687c52 0 94-42 94-94zM750 350a313 313 0 1 1-626-1 313 313 0 0 1 626 1z" horiz-adv-x="875" />
<glyph glyph-name="dribbble" unicode="&#xf17d;" d="M500 834a485 485 0 1 0-1-969 485 485 0 0 0 1 969z m320-223c-9-12-78-101-231-163 15-30 25-54 37-81 137 17 274-11 288-14-1 98-36 188-94 258z m-46 48a413 413 0 0 1-371 93c11-16 87-118 154-243a468 468 0 0 1 217 150z m-450 65A415 415 0 0 1 95 434c18 0 189-1 383 50-69 122-143 225-154 240zM86 349c0-106 41-203 107-276a641 641 0 0 0 352 278c-10 23-21 47-33 70-207-62-407-59-425-59-1-4-1-8-1-13zM246 23a413 413 0 0 1 416-54c-7 36-31 162-89 313A583 583 0 0 1 246 23zM731 6c93 63 159 163 177 278-14 4-128 38-257 17 54-148 76-269 80-295z" horiz-adv-x="1000" />
<glyph glyph-name="dropbox" unicode="&#xf16b;" d="M516 623L259 458l257-164-257-165L0 295l258 165L0 623l258 164zM257 77l258 165L773 77 515-87z m259 218l258 165-258 163 257 165 258-165-258-165 258-164-258-165z" horiz-adv-x="1031.3" />
<glyph glyph-name="drupal" unicode="&#xf1a9;" d="M624 626c26-16 189-131 189-350S640-87 441-87A375 375 0 0 0 63 283c0 213 166 327 196 343 37 20 63 30 105 63 20 16 38 40 43 97 29-36 65-77 91-95 41-27 83-38 126-65z m5-636c8 8 4 26-8 17-17-13-54-28-107-28-67 0-100 26-100 26-12 0-22-14-13-23 52-48 189-31 228 8zM522 93c-12-6-55-33-43-49 4-7 10-3 23 9 15 11 24 22 53 22 49 0 35-39 51-31 20 9-4 41-12 46-15 10-54 10-71 3z m181-34c77-6 126 207 31 207-39 0-118-81-160-82-48-1-115 96-212 95-129-1-177-153-101-205 112-76 255 83 315 82 38-2 97-95 127-97z" horiz-adv-x="875" />
<glyph glyph-name="dyalog" unicode="&#xf399;" d="M0 788h334c146 0 269-47 357-136 78-80 121-187 121-302 1-217-164-437-478-437H0V38h334c239 0 354 164 354 312 0 156-132 313-354 313H125V555H0v233z" horiz-adv-x="812.5" />
<glyph glyph-name="earlybirds" unicode="&#xf39a;" d="M612 757c2 26 41 28 71 17 2 0 51-19 37-29-54 14-110-36-108 12z m-393-13c-15 12 39 32 41 32 33 12 76 9 79-18 1-53-60 2-120-14z m405-206c17 0 31-15 31-32s-14-31-31-31a31 31 0 0 0 0 63z m-312 0c17 0 31-15 31-32s-14-31-31-31-31 14-31 31 14 31 31 31z m622-319c-19-47-79-22-125 2A289 289 0 0 0 563-21c0-2-4 0 46-2 66-3 125 6 191 15a59 59 0 0 0-20 75c3 1 29-4 43-23 16 25 55 29 59 27 3-2 12-41-14-68 9 2 16 3 19 4 5 2 35-22 6-26-28-4-44-10-92-21-89-21-167-23-230-25l2-22c8-36-45-48-54-13 2-35-52-42-55 2l-1-10c-1-36-55-35-55 1-15-26-55-13-52 17l3 24c-72-2-117-6-121-6-41 0-41 62 0 62 5 0 54-3 123-6C242 15 159 92 137 215c-49-25-112-52-133-1-21 49 42 83 130 143 2 13 3 26 6 39-29 38-23 70-32 118-33-5-45 17-46 45 1 14 4 29 5 30 2 3 19 4 24 5 12 62 99 65 178 67 38 43 88 81 158 95-30 37-7 77-5 78 4 2 42-8 52-45 10 17 35 22 38 21 2-1 12-29-10-51 79-7 141-48 188-99 70-3 140-11 150-66 6-1 23-2 25-5 1-1 4-16 5-30-1-27-13-50-46-45-6-34-5-65-17-94 5-22 8-46 9-71 73-49 138-83 118-130zM405 538c2 86-74 82-153 78-43-1-76-3-89-27-23-41 11-181 45-197 19-10 143-16 169 14 16 18 29 96 28 132z m102-114c-9 24-12 59-30 64-4 1-18 1-22 0-19-6-21-43-33-73 30 0 38-19 46-19 9 0 13 22 39 28z m265 165c-13 24-49 26-91 27-79 4-153 8-151-78-1-36 10-114 26-133 25-29 149-23 168-14 31 15 72 155 48 198z" horiz-adv-x="937.5" />
<glyph glyph-name="ebay" unicode="&#xf4f4;" d="M1184 480h66L1056 99h-70l56 106-120 227c6-13 9-29 9-47V257c0-18 1-36 2-52h-58c-2 13-2 26-2 39-32-38-69-50-121-50-77 1-119 41-119 88 0 7 1 12 2 18-17-63-71-106-143-106-46 0-89 16-115 49 0-13-1-26-2-38h-62c1 20 2 44 2 64v331h63V443c31 37 73 47 115 47 69 0 147-47 147-149 0-10-1-21-3-31 14 47 67 65 150 67 27 1 57 1 81 1v6c0 46-29 65-80 65-37 0-65-16-68-43h-66c7 67 78 84 140 84 53 0 101-13 123-50l-21 40h73l108-215zM476 237c58 0 98 42 98 105s-40 105-98 105-98-42-98-105 40-105 98-105z m392 92v7c-23 0-51 0-77-1-56-2-92-12-92-50 0-24 20-50 69-50 65 0 100 36 100 94z m-804-3c7-114 155-112 178-42h65c-13-67-84-90-146-90C50 194 0 256 0 339c0 91 51 151 162 151 89 0 153-46 153-147v-17H64z m185 42c-4 107-171 111-184 0h184z" horiz-adv-x="1250" />
<glyph glyph-name="edge" unicode="&#xf282;" d="M941 587c13-25 44-81 43-166a232 232 0 0 0-229-232c-1 0-103-5-158 33-11 8-18 18-18 28 1 12 10 17 13 21 19 25 29 55 29 75 0 64-21 116-64 163-2 2-84 98-239 98-123 0-241-64-292-155a485 485 0 0 0 474 382c188 0 361-90 441-247zM416-79c2-1 56-40 131-53A485 485 0 0 0 17 376c8 66 53 116 91 145 58 45 135 70 210 70 14 0 86-2 152-36a258 258 0 0 0 120-124c-8 9-78 86-193-2-53-38-92-92-112-154-27-79-25-173 39-266 24-36 55-65 92-88z m489 192a15 15 0 0 0 5-21C817-55 660-121 592-121c-45 0-94 14-141 39-64 34-96 75-109 93a273 273 0 0 0-26 296c19 37 45 70 76 98-8-16-13-34-13-53 0-158 156-281 335-281 0 0 1 0 1 0a385 385 0 0 1 182 44c3 0 6-1 8-2z" horiz-adv-x="1000" />
<glyph glyph-name="elementor" unicode="&#xf430;" d="M831 788c24 0 44-20 44-44V-44c0-24-19-43-44-43H44C19-87 0-68 0-44v788c0 24 19 44 44 44h787zM321 156v388h-78V156h78z m311 0v77H399v-77h233z m0 155v78H399v-78h233z m0 156v78H399v-78h233z" horiz-adv-x="875" />
<glyph glyph-name="ello" unicode="&#xf5f1;" d="M484 834a484 484 0 1 0 0-968 484 484 0 0 0 0 968z m281-557c5 15-5 31-19 34-15 5-31-5-34-19a236 236 0 0 0-455 0c-4 14-20 22-34 19-15-3-23-19-20-34a290 290 0 0 1 562 0z" horiz-adv-x="968.8" />
<glyph glyph-name="ember" unicode="&#xf423;" d="M1250 353c2-21-11-28-11-28s-51-38-91-27c-40 12-42 84-42 84h-4l-40-111s-17-55-41-45-23 36-23 36-38-41-108-36c-60 5-80 52-80 52s-41-28-154-50c-51-6-87 25-87 25-5-5-36-20-36-20s-43-20-60 10c-17 31-6 125-6 125h-3s-25-52-38-98-30-41-30-41-29-3-36 22 11 117 11 117l-3-1s-1 3-24-46c-40-95-49-98-72-94-22 5-23 33-23 33l-31-17s-76-32-115-3a99 99 0 0 0-39 58s-33 4-54 12c-22 9 0 36 0 36s7 10 19 0 37-6 37-6c2 17 5 39 15 62 22 48 54 64 81 65 27 0 46-7 62-30 36-89-97-135-97-135s-3-24 33-23c36 0 91 40 91 40 3 30 24 124 30 138 5 14 27 11 27 11s18 4 21-14c3-19-13-93-13-93l3-3c1 7 40 71 40 71s22 38 55 37-1-105-1-105l2-3 3 5c4 11 54 87 54 87s19 22 36 17c17-6 19-14 19-28s-13-102-13-102-9-57 10-56 40 21 40 21 14 112 24 205 53 155 53 155 13 20 46 33c22 8 46 3 57-45 19-80-45-172-72-205 12 11 31 23 53 10 79-50 15-158 15-158 23 7 64 35 64 35s1 12 1 15c14 80 63 109 72 116s92 39 96-47-104-115-104-115 10-25 49-18c40 6 85 44 85 44 1 35 24 119 29 131 5 13 34 13 37 6 4-13 0-73 0-73l3 1c12 34 36 61 36 61s19 19 35 14c16-4 10-59 10-59s-8-60 19-63c26-3 57 21 57 21s19 8 21-13zM121 342s12-3 39 15c26 19 32 48 17 62-14 13-55-14-56-77z m533 242s-31-106-32-138c0 0 87 141 78 188s-46-50-46-50z m44-270c25 65-7 89-7 89s-46 25-65-40c-19-64-12-87-12-87s60-27 84 38z m165 28s31-2 52 28 3 50 3 50-17 22-39-18c-21-39-16-60-16-60z" horiz-adv-x="1250" />
<glyph glyph-name="empire" unicode="&#xf1d1;" d="M562 744c-21 4-43 7-66 7v36c153-5 286-86 361-208l-31-18c-12 19-25 37-39 53l-36-31c-50 58-120 99-199 115zM104 220c8-21 17-41 27-60l-31-18a437 437 0 0 0 0 416l31-18c-10-19-20-39-27-60l45-15a348 348 0 0 1 0-230zM416 2l-9-46c21-4 43-7 66-7v-36C320-82 187 0 111 121l32 19c11-19 24-37 39-54l35 31C268 59 337 18 416 2zM182 614c-14-16-27-34-39-53l-31 18a437 437 0 0 0 361 208v-36c-23 0-45-3-66-7l9-46c-79-15-148-57-199-114zM787 86c14 17 28 35 39 54l31-19A439 439 0 0 0 496-87v36c22 0 44 3 65 7l-9 46c79 16 149 57 199 115z m182 264a484 484 0 1 0-969 0 484 484 0 0 0 969 0z m-24 0a461 461 0 1 1-922-1 461 461 0 0 1 922 1z m-76 208a436 436 0 0 0 0-416l-31 18c10 20 19 39 26 61l-44 15a349 349 0 0 1 0 229l45 15c-8 21-17 42-27 60zM511 211l26-130a267 267 0 0 0-106 0l26 130c-31 7-59 23-79 46l-100-87c-23 26-42 57-53 91l125 43a142 142 0 0 0 0 92l-126 43c12 34 31 65 54 91l100-87c20 23 48 40 79 46l-26 130a242 242 0 0 0 106 0l-26-130c32-6 60-23 80-46l100 87c23-26 41-57 53-91l-126-43a145 145 0 0 0 0-92l126-43c-12-34-30-65-53-92l-100 88c-20-23-48-39-80-46z" horiz-adv-x="968.8" />
<glyph glyph-name="envira" unicode="&#xf299;" d="M0 788c933 0 716-620 717-716L875-87h-51L687 52c-76-9-243-68-419 72S102 431 0 788z m156-90c-97 46-11-18-11-18 89-61 129-144 177-234 61-118 154-273 281-328s67-24 12 17-133 170-178 254c-62 117-119 232-281 309z" horiz-adv-x="875" />
<glyph glyph-name="erlang" unicode="&#xf39d;" d="M170 746A581 581 0 0 1 42 369C42 199 99 57 196-45H0v791h170z m466-19c90-1 155-66 157-163H461c8 97 85 162 175 163z m450 18h1l-1 1z m1 0h163V-46h-158c42 45 79 98 113 158l-188 94C951 99 854 0 720-1 526 0 449 166 450 381h727c1 24 1 35 0 47 5 127-29 234-90 317z" horiz-adv-x="1250" />
<glyph glyph-name="ethereum" unicode="&#xf42e;" d="M609 341L313 159 16 341l297 509zM313 101l296 181-296-432L16 282z" horiz-adv-x="625" />
<glyph glyph-name="etsy" unicode="&#xf2d7;" d="M750 170c-3-21-27-215-30-258-230 9-430 10-720 0v50c89 18 118 16 119 69 4 141 7 477 0 629-2 56-24 52-119 70v50c144-4 500-17 709 7-7-74-15-247-15-247h-46c-21 84-36 177-107 177H275c-20 0-21-7-21-19V378c113-1 173 5 173 5 58 2 54 17 79 128h51c-9-198-8-121-4-313h-50c-18 78-18 119-77 120 0 0-42 4-172 4V50c0-51 28-75 86-75h175c124 0 130 49 193 195h43z" horiz-adv-x="750" />
<glyph glyph-name="expeditedssl" unicode="&#xf23e;" d="M484 765a415 415 0 1 0 0-830 415 415 0 0 0 0 830zM294 506v-52c0-10 7-18 17-18h35c9 0 17 8 17 18v52c0 160 242 160 242 0v-52c0-10 8-18 18-18h34c10 0 18 8 18 18v52a190 190 0 0 1-381 0z m467-398v277c0 19-16 34-34 34H242c-19 0-34-15-34-34V108c0-19 15-35 34-35h485c18 0 34 16 34 35zM277 376V116c0-4-4-8-9-8h-17c-5 0-9 4-9 8v260c0 5 4 9 9 9h17c5 0 9-4 9-9z m276-95c0-25-14-48-34-59v-62c0-10-8-18-17-18h-35c-10 0-17 8-17 18v62a69 69 0 0 0 34 128c38 0 69-31 69-69z m-69 553a484 484 0 1 0 1-968 484 484 0 0 0-1 968z m0-934a450 450 0 1 1-1 901 450 450 0 0 1 1-901z" horiz-adv-x="968.8" />
<glyph glyph-name="facebook-f" unicode="&#xf39e;" d="M545 288H399v-438H204v438H45v181h159v137c0 157 93 244 236 244 69 0 140-12 140-12V684h-79c-77 0-102-49-102-98V468l174 1z" horiz-adv-x="625" />
<glyph glyph-name="facebook-messenger" unicode="&#xf39f;" d="M501 834c274 0 483-200 483-469 0-342-324-534-623-452-18 5-19 1-123-44a39 39 0 0 0-54 34c-3 91 0 99-16 114A459 459 0 0 0 16 365c0 270 212 469 485 469z m292-361c13 21-13 46-34 30L606 387a30 30 0 0 0-35 0l-114 85a73 73 0 0 1-105-19L210 227c-14-22 13-46 33-31l153 117a30 30 0 0 0 35 0l114-85a73 73 0 0 1 105 19z" horiz-adv-x="1000" />
<glyph glyph-name="facebook-square" unicode="&#xf082;" d="M781 788c52 0 94-42 94-94V6c0-51-42-93-94-93H513v297h113l21 140H513v91c0 38 19 76 79 76h61v119s-55 9-108 9c-111 0-183-67-183-188V350H239V210h123V-87H94C42-87 0-45 0 6v688c0 52 42 94 94 94h687z" horiz-adv-x="875" />
<glyph glyph-name="facebook" unicode="&#xf09a;" d="M984 350c0-242-177-442-408-478v338h113l21 140H576v91c0 38 19 76 79 76h61v119s-56 9-109 9c-110 0-183-67-183-188V350H301V210h123v-338a485 485 0 1 0 560 478z" horiz-adv-x="1000" />
<glyph glyph-name="firefox" unicode="&#xf269;" d="M983 378c1-8 1-17 1-26a485 485 0 0 0-963-82c0 6-1 12-2 19-9 83 1 170 32 243 21 51 63 106 97 123-32-62-47-123-51-164 22 73 64 134 123 177 100 73 234 77 288 30-100-34-208-172-184-333 4-27 12-53 23-77-18 49-20 118 10 163 34 50 82 60 107 55-10 2-32-41-36-48-7-18-12-38-12-58 0-1 0-2 0-3 1-45 20-86 50-115 93-91 243-55 311 48 46 72 52 193-8 289-15 23-32 45-52 64a408 408 0 0 1-352 103c-1 0-1 0-2 0-3-1-7-1-10-2-1 0-2 0-2-1l-12-2c-28-7-68-21-96-39-1 0-1 0-1 0l1 1a355 355 0 0 0 167 80c28 7 58 10 88 10h21c25 0 50-3 74-7 2-1 4-1 6-1 3-1 7-2 11-3a494 494 0 0 0 195-94 482 482 0 0 0 82-85c1-2 3-4 5-7 0-1 1-1 2-2l3-5c1-1 2-2 2-3 1-2 2-3 3-5 1-1 2-2 3-3l2-5c1-1 2-2 3-3 1-2 2-3 2-4 1-2 2-3 3-4 0-1 1-3 2-4s2-2 2-4c1-1 2-2 3-4 0-1 1-3 2-4s1-3 2-4 2-3 3-4c0-1 1-3 2-4 0-1 1-3 2-4 0-1 1-2 1-3 1-2 2-4 3-6l1-1c3-7 6-15 9-22 0 0 1-1 1-1 0-2 1-4 2-7 1 0 1-1 1-1 1-2 2-5 3-7 0-1 0-1 0-2 1-2 2-4 3-6v-3a69 69 0 0 0 3-8c1-3 2-5 3-7 0-1 0-1 0-2 1-2 1-5 2-7 0 0 0-1 1-1l2-8s0 0 0-1c7-25 12-53 14-80l1-9v-1c0-3 0-6 0-9z" horiz-adv-x="1000" />
<glyph glyph-name="first-order-alt" unicode="&#xf50a;" d="M484 834a484 484 0 1 0 0-968 484 484 0 0 0 0 968z m0-953a469 469 0 1 1 0 938 469 469 0 0 1 0-938z m0 898a429 429 0 1 0 0-858 429 429 0 0 0 0 858z m0-842a413 413 0 1 1 0 826 413 413 0 0 1 0-826z m364 318c-9-33-22-66-39-95l-145 70 120-107c-21-28-45-52-73-73L604 170l70-145c-29-17-61-30-94-39l-54 153 10-162a378 378 0 0 0-103 0l9 161-53-152c-34 9-66 22-95 39l70 146L257 50c-28 21-52 45-73 73l121 107-145-70c-18 29-31 62-40 95l152 53-160-9a375 375 0 0 0 0 103l161-10-153 53c9 34 23 66 40 95l145-70-120 107c21 28 45 52 73 73l106-120-69 145c29 17 61 30 95 39l52-151-9 160a378 378 0 0 0 103 0l-10-161 53 152c34-9 66-22 95-39l-70-145 107 120c28-21 52-45 73-73L664 470l145 70c17-29 30-61 39-95l-152-53 161 10a383 383 0 0 0 0-103l-161 9z" horiz-adv-x="968.8" />
<glyph glyph-name="first-order" unicode="&#xf2b0;" d="M25 402c0 1 1 1 1 1s0 0 0-1h-1z m413 259c14 0 28-1 42-3l-8-132 44 125c28-7 54-18 78-33l-58-119 88 99c23-17 43-37 60-60l-99-89 119 58c15-24 25-50 33-78l-125-44 132 8a277 277 0 0 0 0-85l-132 7 125-43c-7-29-18-55-32-79l-120 58 99-88c-16-23-37-43-59-61l-88 100 57-120c-24-15-50-25-78-33l-44 127 8-134a270 270 0 0 0-85 0l8 133-44-126c-28 7-54 18-78 33l58 120-88-100c-23 17-43 38-60 61l99 88-119-58c-14 24-25 50-33 78l125 44-132-7a368 368 0 0 0 0 85l133-8-126 44c8 28 19 54 33 78l119-58-99 89c18 23 38 43 60 60l88-99-57 120c24 14 50 25 78 32l43-125-7 132c13 2 28 3 41 3z m428-61V100L438-150 9 100v500l429 250z m-33-20L438 809 42 580V121l396-230 395 230v459zM438 777l366-213V136L438-78 71 136v428z m0-99a327 327 0 0 1-326-328 327 327 0 1 1 652 0c0 181-147 328-326 328z" horiz-adv-x="875" />
<glyph glyph-name="firstdraft" unicode="&#xf3a1;" d="M750 475H625V225H375V-25H0v50h325v250h250v250h175v-50z m-50-75h50V100H500v-250H125v50h325v250h250v250z m50-375v-50H625v-125h-50V25h175zM0 850h750V600H500V350H250V100H0v750z" horiz-adv-x="750" />
<glyph glyph-name="flickr" unicode="&#xf16e;" d="M781 788c52 0 94-42 94-94V6c0-51-42-93-94-93H94C42-87 0-45 0 6v688c0 52 42 94 94 94h687zM282 227a124 124 0 1 1 1 248 124 124 0 0 1-1-248z m311 0a124 124 0 1 1 0 248 124 124 0 0 1 0-248z" horiz-adv-x="875" />
<glyph glyph-name="flipboard" unicode="&#xf44d;" d="M0 788h875V-87H0v875z m700-350v175H175V88h175v175h175v175h175z" horiz-adv-x="875" />
<glyph glyph-name="fly" unicode="&#xf417;" d="M386 15c26-23 66-66 65-100 0-1 0-3 0-4-3-39-37-61-76-61-49 0-78 33-76 70 2 32 40 72 63 93 5 4 6 5 11 7 7 0 8-1 13-5z m262 704c47-79 55-144 41-220-30-137-202-325-305-421-3-4-2-3-6-5l-7 1c-3 1-9 7-12 10C244 197 69 380 55 540c-3 140 57 222 162 276 19 8 72 34 158 34 43 0 100-9 150-30 48-22 91-51 123-101zM365 163v636c-113-11-142-174-135-267 8-114 80-269 135-369z m277 335c31 108-21 264-195 299 75-50 97-167 94-256-4-115-77-274-131-375 81 82 200 221 232 332z" horiz-adv-x="750" />
<glyph glyph-name="font-awesome-alt" unicode="&#xf35c;" d="M663 516c10 0 18-6 15-14V239c0-8-6-11-14-15-31-14-66-27-102-27-51 0-74 32-135 32a340 340 0 0 1-134-35v-87c0-3 0-5-2-9v-2c-4-15-18-27-36-27-21 0-38 17-38 38v415a64 64 0 0 0-25 50 63 63 0 1 0 126 0c1-21-9-39-24-50v-35c2 1 6 2 9 3 35 14 77 27 117 27 43 0 77-12 115-27 9-4 17-5 25-5 44 0 91 31 103 31z m114 272c54 0 98-45 98-98V11c0-54-44-98-98-98H98C44-87 0-43 0 11v679c0 53 44 98 98 98h679z m28-777v679c0 15-13 28-28 28v-1H98c-15 0-28-12-28-28V12c0-15 13-28 28-28h679c15 0 28 13 28 28z" horiz-adv-x="875" />
<glyph glyph-name="font-awesome-flag" unicode="&#xf425;" d="M868 148c0-14-12-20-26-26-56-24-116-46-180-46-90 0-132 56-240 56-78 0-160-28-226-58-4-2-8-2-12-4V-82c0-42-32-68-66-68-38 0-68 30-68 68v732c-26 20-44 52-44 88a112 112 0 1 0 224 0c0-36-16-68-44-88v-62c8 3 115 56 224 56 127 0 191-54 248-54 76 0 160 54 180 54 16 0 30-12 30-26V148z" horiz-adv-x="875" />
<glyph glyph-name="font-awesome" unicode="&#xf2b4;" d="M777 788c54 0 98-45 98-98V11c0-54-44-98-98-98H98C44-87 0-43 0 11v679c0 53 44 98 98 98h679z m-89-556l1 274c0 9-9 16-18 16-12 0-61-32-105-32-9 0-18 1-26 5-39 15-74 26-119 26a322 322 0 0 1-130-32v36a65 65 0 1 1-80 0V98a39 39 0 0 1 77-12v3c1 2 1 6 1 9v89c2 1 5 1 7 2 39 17 86 34 132 34 63 0 87-33 140-33 37 0 72 13 105 27 8 4 15 7 15 15z" horiz-adv-x="875" />
<glyph glyph-name="fonticons-fi" unicode="&#xf3a2;" d="M223 413h181l-30-100H225V4c0-15-5-18 9-19l116-11v-67H0v68l57 6c14 1 18 6 18 21v304c0 6-8 6-16 6l-59 1v100h75v56c0 133 71 187 207 187 91 0 174-22 174-141l-136-17c0 50-12 62-44 62-49 0-51-26-51-73v-63c0-6-9-11-2-11zM750-93H475v67l55 7c14 1 20 5 20 19v290c0 10-8 17-18 21l-65 17 18 79h215V0c0-15-7-17 8-19l42-7v-67z m-59 678l25-89-20-20-83 45-84-45-20 20 25 89-59 71 9 19h75l41 75h25l41-75h75l9-25z" horiz-adv-x="750" />
<glyph glyph-name="fonticons" unicode="&#xf280;" d="M0 788h875V-87H0v875z m365-276c23 0 33-8 32-45l99 12c0 87-60 103-126 103-100 0-151-39-151-136v-41h-55v-73h43c6 0 12 0 12-5V110c0-11-3-15-13-16l-42-4V40h255v49l-85 8c-10 1-6 3-6 14v221h109l22 73H327c-6 0 1 4 1 8v46c0 34 1 53 37 53zM510 40h201v49l-31 5c-11 2-6 3-6 14v297H518l-13-58 47-12c7-3 13-8 13-16V108c0-11-5-13-15-14l-40-5V40z m158 499l43 47-7 19h-54l-30 55h-18l-31-55h-54l-7-19 43-47-18-65 15-14 61 32 61-32 14 14z" horiz-adv-x="875" />
<glyph glyph-name="fort-awesome-alt" unicode="&#xf3a3;" d="M406 386c4 0 8-3 8-7V278c0-4-4-7-8-7h-43c-4 0-7 3-7 7v101c0 4 3 7 7 7h43z m231 0c4 0 7-3 7-7V278c0-4-3-7-7-7h-43c-4 0-7 3-7 7v101c0 4 3 7 7 7h43z m258 245c56-80 89-176 89-281 0-4 0-8 0-12 0-1 0-2 0-4s0-5 0-7-1-3-1-5 0-5 0-1c0-2 0-3 0-5-1-2-1-5-1-7 0-1 0-3 0-4-1-3-1-5-1-7s-1-3-1-5c0-3-1-5-1-8 0-1 0-2 0-3l-2-11c0-2 0-3-1-4 0-2-1-5-1-8-1-1-1-3-1-4-1-2-1-5-2-7 0-1 0-3-1-5 0-2-1-3-1-5-1-2-1-4-1-6-1-2-1-3-2-5 0-2-1-4-2-6 0-1-1-3-1-5-1-2-1-4-2-5a171 171 0 0 1-5-15c0-2-1-4-2-6s-1-4-2-6c-1-1-1-3-2-4l-2-6c-1-2-1-3-2-5-1-1-1-3-2-5l-2-4c-1-2-2-4-3-6 0-2-1-3-2-4-1-2-2-4-3-6 0-1-1-2-1-4-1-2-2-4-3-6-1 0-1-1-1-1-4-8-9-16-13-24-1-1-1-1-2-2-1-2-2-5-4-7 0-1-1-1-1-2-2-3-3-4-4-7-1-1-1-1-2-2-1-3-3-4-4-7-1 0-1-1-2-2-1-2-3-4-4-6 0-1-1-1-1-2a472 472 0 0 0-313-200c-2 0-3 0-5-1-2 0-4 0-6-1-2 0-3 0-5 0-2-1-4-1-6-1s-4 0-6-1c-2 0-4 0-6 0s-4-1-6-1c-1 0-3 0-5 0s-4 0-7-1c-1 0-3 0-4 0-3 0-5 0-8 0-1 0-3 0-4 0-4 0-8 0-12 0s-8 0-12 0c-1 0-2 0-4 0s-5 0-7 0-4 0-5 0c-2 1-5 1-7 1s-3 0-5 0-4 1-6 1-4 0-6 0a129 129 0 0 1-11 2c-2 0-4 0-6 0s-4 1-6 1c-2 1-3 1-5 1A485 485 0 0 0 108 66c-1 1-1 1-1 2-2 2-4 4-5 6 0 1-1 2-1 3-2 2-3 4-5 6 0 1-1 2-1 2-2 3-3 5-4 7-1 1-1 2-2 2-1 3-3 5-4 7 0 1-1 1-1 2-5 8-9 16-14 24 0 0 0 1 0 1-1 2-2 4-3 7-1 1-2 2-2 3-1 2-2 4-3 6-1 1-1 2-2 4s-1 4-2 6l-2 4c-1 2-2 4-3 6 0 1-1 3-1 4l-3 6c0 1-1 3-2 4 0 2-1 4-2 6 0 2-1 4-2 6-1 3-2 6-3 9-1 2-1 4-2 6 0 1-1 3-1 5-1 2-2 4-2 5 0 2-1 4-1 6-1 2-1 3-2 5 0 2-1 4-1 6-1 2-1 4-2 6 0 1-1 3-1 5s-1 4-1 6c-1 1-1 3-1 5-1 2-1 5-2 7 0 2 0 3 0 4l-2 11c0 1-1 2-1 4s-1 5-1 7 0 3 0 5c-1 2-1 4-1 7 0 1 0 3 0 4-1 3-1 5-1 7s0 3 0 5c-1 2-1 5-1 7s0 3 0 5 0 5 0 7 0 3-1 4c0 4 0 8 0 12a481 481 0 0 0 195 388c3 2 6 5 9 7a479 479 0 0 0 560 0 482 482 0 0 0 101-96c5-6 9-12 14-18z m-20-507v140c0 4-3 7-7 7h-44c-4 0-7-3-7-7v-51h-57v282c0 4-4 7-8 7h-43c-4 0-7-3-7-7v-51h-58v50c0 5-3 8-7 8h-43c-4 0-8-3-8-7v-51h-57v50c0 10-13 8-19 8v60c13 3 27 5 41 5 17 0 33-7 50-7 7 0 43 2 43 13v95c0 4-3 7-7 7-8 0-24-7-38-7-15 0-33 7-51 7-13 0-25-2-38-5v8c9 4 15 13 15 22 0 33-50 33-50 0 0-9 6-18 15-22V502c-6 0-19 2-19-7v-51h-58v51c0 4-3 7-7 7h-43c-4 0-7-3-7-7v-51h-58v51c0 4-3 7-7 7h-43c-4 0-8-3-8-7V213h-57v51c0 4-4 7-8 7h-43c-4 0-7-3-7-7V124A444 444 0 0 1 413-79V69c0 115 173 115 173 0l1-148a434 434 0 0 1 288 203z" horiz-adv-x="1000" />
<glyph glyph-name="fort-awesome" unicode="&#xf286;" d="M956 288c5 0 9-4 8-9v-429H607V38c0 141-214 141-214 0v-188H36v429c0 5 4 9 9 9h53c5 0 9-4 9-9v-63h72v349c0 5 3 8 9 8h53c5 0 9-4 9-9v-62h71v63c0 5 4 8 9 8h53c5 0 9-4 9-9v-62h72v63c0 11 15 8 23 8v219c-11 5-18 16-18 27 0 41 61 41 61 0 0-11-7-22-18-27l1-10c15 3 30 6 46 6 23 0 44-9 63-9 18 0 37 9 47 9 5 0 9-4 9-9V661c0-13-45-15-54-15-20 0-40 8-61 8-17 0-34-2-50-6v-75c7 0 22 3 22-9v-62h72v62c0 5 4 9 9 9h53c6 0 9-4 9-9v-62h72v62c0 5 4 9 9 9h53c6 0 9-4 9-9V216h72v63c0 5 4 9 9 9h53z m-563 9v125c0 5-4 9-9 9h-54c-5 0-9-4-9-9V297c0-6 4-9 9-9h54c5 0 9 3 9 9z m286 0v125c0 5-4 9-9 9h-54c-5 0-9-4-9-9V297c0-6 4-9 9-9h54c5 0 9 3 9 9z" horiz-adv-x="1000" />
<glyph glyph-name="forumbee" unicode="&#xf211;" d="M11 245a436 436 0 0 0 521 526A898 898 0 0 1 11 245z m768 370A899 899 0 0 1 169-2c-34 26-64 60-89 96a895 895 0 0 0 605 609c36-24 67-54 94-88z m31-494c25-69 47-143 65-214-71 18-141 40-209 65-50-31-107-52-165-61a912 912 0 0 0 366 372c-8-57-28-113-57-162z m58 284A903 903 0 0 1 378-90c-38 5-75 15-110 30a900 900 0 0 0 569 576c15-35 25-73 31-111z" horiz-adv-x="875" />
<glyph glyph-name="foursquare" unicode="&#xf180;" d="M631 844c78 0 99-44 83-127l-95-475c-8-28-18-77-87-77H369c-6 0-7 0-13-6 0 0-4-5-256-297-20-23-52-19-64-14S0-133 0-93v847c0 35 24 90 98 90h533z m-32-144c4 19-10 34-26 34H145c-19 0-32-17-32-32V40a17297 17297 0 0 1 178 211c18 21 25 25 52 25h143c20 0 32 16 33 26 2 10 19 97 23 115 3 17-13 35-29 35H336c-23 0-40 17-40 41v25c0 23 17 40 40 40h208c14 0 31 13 33 25z" horiz-adv-x="718.8" />
<glyph glyph-name="free-code-camp" unicode="&#xf2c5;" d="M190 662A399 399 0 0 1 63 361c1-132 45-239 132-322 18-16 26-29 26-40 0-6-4-11-8-16s-10-7-16-8c-20 0-48 24-85 70C41 133 8 229 7 361s39 221 120 314c29 33 54 50 70 50 6 0 12-2 17-6 3-3 7-9 7-14 0-9-11-22-31-43zM468 30c1-1 2-1 2-1z m183-1s0-1 0 0z m6 308c32-8 47 47 59 59 165-215-54-360-65-367 8 6 87 97 42 149-2 2-131-39-107 105 17 95-15 139-15 139-35-73-63-106-85-141C375 99 455 38 468 29c-21 13-212 139-67 343 154 215 123 311 123 311 232-184 101-337 133-346z m341 338c81-93 122-182 120-314s-34-229-105-316c-37-46-65-70-85-70-6 0-12 3-16 7-4 6-8 11-8 17 0 11 8 24 26 40 87 83 131 189 132 322 0 120-42 220-127 301-20 21-31 34-31 43 0 5 4 11 7 14 5 4 11 6 17 6 16 0 41-17 70-50z" horiz-adv-x="1125" />
<glyph glyph-name="freebsd" unicode="&#xf3a4;" d="M593 662c22 22 226 151 272 104 46-46-82-250-104-272-21-21-77-2-123 45-47 46-67 101-45 123z m-378 55c-62-38-113-91-150-154-40 71-86 174-54 207 32 32 133-13 204-53z m579-207c7 11 14 23 22 37a421 421 0 1 0-173 167c-14-8-27-16-38-23-51 9-65-32-29-95 42-84 173-177 213-137 11 11 12 29 5 51z" horiz-adv-x="875" />
<glyph glyph-name="fulcrum" unicode="&#xf50b;" d="M187 529l-69-85-69 85 69 85z m95 321V438l-81-88 81-88v-412l-40 387-100 113 100 113z m155-321l69 85 69-85-69-85z m-94-91v412l40-387 99-113-99-113-40-387v412l80 88z" horiz-adv-x="625" />
<glyph glyph-name="galactic-republic" unicode="&#xf50c;" d="M484-134a485 485 0 1 0 1 969 485 485 0 0 0-1-969z m0 936a453 453 0 1 1 1-905 453 453 0 0 1-1 905z m54-42c74-10 141-39 197-82l-33-34c-47 35-103 58-164 67v48z m-108-1v-48c-60-9-116-32-163-67l-34 34c56 43 124 72 197 81z m24-98h61V499c19-3 37-11 54-22l114 115 43-43-115-115c11-16 19-34 23-54h162v-60H634c-4-20-12-38-23-54l115-115-43-42-114 114c-17-11-35-18-54-22V39h-61v162c-19 4-38 11-54 22L286 109l-43 42 114 115c-10 16-18 34-22 54H173v60h162c4 20 12 38 22 54L243 549l43 43 114-115c16 11 34 19 54 23v161z m358-60c43-56 72-123 82-197h-48c-9 60-33 117-68 164z m-655 0l34-34c-35-47-59-102-68-163H75c9 74 38 141 82 197zM75 296h48c9-60 33-116 67-163l-34-34c-43 56-72 123-81 197z m771 0h48c-10-74-39-141-82-197l-34 34c35 47 59 102 68 163zM267 56c47-35 103-58 163-67v-48c-73 9-141 38-197 81z m434 0h1l33-34c-56-43-123-72-197-81v48c61 8 116 32 163 67z" horiz-adv-x="968.8" />
<glyph glyph-name="galactic-senate" unicode="&#xf50d;" d="M488 785h24v-51c27-41 47-212 48-421-23 31-38 65-38 94l1 33c0 11-2 21-5 31-1 4-2 8-5 11-2 4-7 8-13 8s-11-4-13-8c-2-3-4-7-5-11-3-10-5-20-4-31v-33c0-29-15-63-38-94 1 209 21 380 48 421v51z m-51-289c-4-44-6-91-7-141-46-22-80-65-91-116-15-4-44-8-79-8-14 7-32 11-51 12 4 29 12 57 23 82 30-15 60-16 69-1s-7 41-36 59c17 23 37 44 60 61 19-30 46-48 61-39 16 10 14 42-3 73 17 8 35 14 54 18z m126 0c19-4 37-10 54-18-17-31-19-63-3-73 15-9 42 9 61 39 23-17 43-38 60-61-29-18-45-44-36-60 9-14 39-13 69 2 12-26 19-53 23-82-19-1-37-5-51-12-35 0-64 4-79 8-11 51-45 94-91 116-1 50-4 97-7 141z m-63-17c6 0 11-17 12-39v-33c0-81 96-185 183-185 101 0 239 3 305-57v-5c-18-34-40-65-65-94-24 41-101 80-211 81-89-2-154-40-177-80a171 171 0 0 0-94 0c-23 40-88 78-177 80-110-1-187-40-211-81-25 29-47 60-65 94v5c66 60 204 57 305 57 87 0 183 104 183 185v33c1 22 6 39 12 39z m0-188a79 79 0 1 1 0-159 79 79 0 0 1 0 159z m0-15a64 64 0 1 0 0-129 64 64 0 0 0 0 129z m0-12a52 52 0 1 1 0-105 52 52 0 0 1 0 105zM276 133c36 0 69-8 95-18 24-32 57-59 97-65a164 164 0 0 1 64 0s0 0 1 0c39 6 72 33 96 65 26 10 59 18 95 18 20 0 42 0 60-3-1-8-3-36-14-58-18 5-36 8-54 8-81-2-140-67-153-146v-9a350 350 0 0 0-126 0v9C424 13 365 78 284 80c-18 0-36-3-54-8-11 22-13 50-14 58 18 3 40 3 60 3z" horiz-adv-x="1000" />
<glyph glyph-name="get-pocket" unicode="&#xf265;" d="M796 725c44 0 79-35 79-79V382c0-244-195-438-437-438A436 436 0 0 0 0 382v264c0 43 36 79 79 79h717zM480 201c218 210 224 205 224 240 0 33-27 60-60 60s-29-4-206-174C264 494 266 501 232 501c-33 0-59-27-59-60 0-35 2-28 224-240 21-22 59-23 83 0z" horiz-adv-x="875" />
<glyph glyph-name="gg-circle" unicode="&#xf261;" d="M502 834a484 484 0 1 0 0-968 484 484 0 0 0 0 968z m-97-732l147 147-151 151-48-48 104-103-52-52-151 151 151 151 22-22 47 47-69 69-245-245z m194 5l245 245-245 245-147-146 151-151 48 48-104 103 52 52 150-151-150-151-22 22-47-48z" horiz-adv-x="1000" />
<glyph glyph-name="gg" unicode="&#xf260;" d="M350 400l200-200L350 0 0 350l350 350 88-87-50-50-38 37-250-250 250-250 101 101-151 149z m300 300l350-350L650 0l-87 88 50 50 37-38 250 250-250 250-101-101 151-149-50-50-200 200z" horiz-adv-x="1000" />
<glyph glyph-name="git-square" unicode="&#xf1d2;" d="M197 197c94-6 115-4 115-23 0-39-128-39-128-3 0 10 6 18 13 26z m54 228c60 0 62-87-1-87-65 0-62 87 1 87z m624 269V6c0-51-42-93-94-93H94C42-87 0-45 0 6v688c0 52 42 94 94 94h687c52 0 94-42 94-94zM432 558c0-28 16-44 44-44 29 0 46 16 46 44 0 29-17 44-46 44-28 0-44-15-44-44z m-43-89h-97c-49 13-159 10-159-91 0-37 18-63 43-75-31-28-46-41-46-60 1-13 6-25 22-32-17-17-27-29-27-51 0-39 34-62 124-62 86 0 137 32 137 89 0 72-56 69-186 77l17 27c33-10 145-13 145 82 0 23-10 39-19 51l46 3z m165-214l-26 3c-7 1-8 2-8 10v206H418l-6-40c31-11 33-10 33-20V268c0-11 0-9-33-13v-40h142z m196-20l-13 44c-80-31-74 24-74 32v119h74v49h-70c-6 0-4-5-4 76h-47c-6-54-23-76-67-81v-44c40 0 39 1 39-5V295c0-56 22-80 81-80 28 0 60 9 81 20z" horiz-adv-x="875" />
<glyph glyph-name="git" unicode="&#xf1d3;" d="M422 541v-68l-72-5c14-19 29-44 29-81 0-152-179-147-232-132l-26-42c208-13 296-9 296-123 0-92-80-143-218-143C55-53 0-17 0 46c0 36 16 55 44 81a53 53 0 0 0-35 52c0 30 23 52 72 96-39 20-68 61-68 120 0 161 177 166 255 146h154zM299 68c0 31-33 27-185 38-10-13-20-27-20-43 0-57 205-57 205 5zM199 331c102 0 99 139 3 139-101 0-106-139-3-139z m261-196v62c52 8 53 4 53 22v233c0 17-4 15-53 32l8 64h165V219c0-13 1-14 12-16l41-6v-62H460z m102 477c-45 0-71 26-71 71 0 46 26 70 71 70 46 0 72-24 72-70 0-45-26-71-72-71z m438-446c-34-17-84-32-130-32-94 0-130 38-130 128v208c0 10 2 8-62 8v70c70 8 98 43 107 130h75c0-129-2-121 7-121h111v-79H860V288c0-14-9-101 118-53z" horiz-adv-x="1000" />
<glyph glyph-name="github-alt" unicode="&#xf113;" d="M364 208c0-41-22-108-72-108-51 0-72 67-72 108s21 108 72 108c50 0 72-67 72-108z m574 99c0-63-7-129-35-186C829-28 626-25 480-25c-148 0-364-5-441 146C11 178 0 244 0 307c0 82 27 159 81 222-10 30-15 63-15 95 0 42 10 63 28 101 89 0 146-18 213-70a748 748 0 0 0 330 1c67 52 123 69 211 69 19-38 28-59 28-101 0-32-5-64-15-94 54-64 76-141 76-223z m-126-99c0 86-52 161-144 161-37 0-72-6-109-11a573 573 0 0 0-176 0c-37 5-73 11-110 11-91 0-143-75-143-161C130 37 287 10 424 10h94c137 0 294 26 294 198zM651 316c50 0 71-67 71-108s-21-108-71-108c-51 0-72 67-72 108s21 108 72 108z" horiz-adv-x="937.5" />
<glyph glyph-name="github-square" unicode="&#xf092;" d="M781 788c52 0 94-42 94-94V6c0-51-42-93-94-93H94C42-87 0-45 0 6v688c0 52 42 94 94 94h687zM542 38a321 321 0 0 1 216 309c0 180-146 316-325 316S117 527 117 347c0-143 90-266 219-309 16-3 22 7 22 16 0 8 0 52 0 79 0 0-91-19-110 39 0 0-14 37-35 47 0 0-30 20 2 20 0 0 32-3 49-34 29-50 76-35 95-27 3 21 11 35 21 44-73 8-146 18-146 143 0 35 10 53 31 76-4 8-15 43 3 88 27 8 89-35 89-35a305 305 0 0 0 163 0s62 43 89 35c18-45 7-80 3-88 21-23 34-41 34-76 0-125-76-135-149-143 12-10 22-30 22-60 0-44 0-98 0-108 0-9 6-19 23-16zM350 157c-4 0-7 1-8 4 0 3 2 5 6 6 4 0 7-1 8-4 0-2-2-5-6-6z m-19 2c0 3-3 5-7 5s-7-2-7-5 3-5 8-4c3 0 6 2 6 4z m-26 2c-1-2-5-3-8-2-4 1-7 4-6 6 1 3 5 4 8 3 4-1 7-4 6-7z m-24 11c1 1 0 5-2 8-3 3-7 3-9 1-1-2-1-5 2-8s7-3 9-1z m-18 18c2 1 2 5 0 8s-5 4-7 2c-3-1-3-4 0-7 2-3 5-4 7-3z m-13 19c2 1 2 4-1 6-2 2-5 3-6 2-2-2-2-5 0-7s5-3 7-1z m-13 14c1 2 0 4-3 5-2 1-5 1-5-1-1-1 0-4 3-5 2-1 4-1 5 1z" horiz-adv-x="875" />
<glyph glyph-name="github" unicode="&#xf09b;" d="M324 74c0-4-4-7-10-7-7-1-11 2-11 7 0 4 4 7 10 7s11-3 11-7z m-61 9c2 3 7 5 12 4 6-2 10-6 9-10s-7-6-12-4c-6 1-10 6-9 10z m87 3c5 0 11-2 11-6 1-4-3-7-9-9-6-1-11 1-11 5-1 5 3 9 9 10z m128 748c271 0 491-205 491-476 0-217-133-402-328-467-25-5-34 11-34 24 0 16 1 97 1 163 0 46-15 75-33 91 109 12 224 27 224 215 0 54-19 81-51 115 5 13 22 65-5 133-41 13-134-53-134-53a461 461 0 0 1-246 0s-94 66-135 53c-26-67-10-120-5-133-31-34-46-61-46-115 0-188 110-203 220-215-14-13-27-35-32-66-28-13-99-35-142 41-27 46-75 50-75 50-48 0-4-30-4-30 33-15 55-72 55-72 28-87 165-58 165-58 0-41 1-108 1-120s-9-28-34-23A490 490 0 0 0 0 358c0 271 207 476 478 476zM190 161c2 2 7 1 10-2 3-4 4-8 1-10-2-3-7-2-10 2-3 3-4 8-1 10z m-21 16c1 1 4 2 8 1 4-2 6-5 5-8-2-2-6-3-9-1-4 2-6 5-4 8z m63-70c3 3 8 3 13-2 4-4 5-10 2-12-2-3-8-3-12 2-5 4-6 9-3 12z m-22 29c3 2 8 0 11-4 3-5 3-10 0-12s-8 0-11 4c-3 5-3 10 0 12z" horiz-adv-x="968.8" />
<glyph glyph-name="gitkraken" unicode="&#xf3a6;" d="M1105 619a562 562 0 0 0-504-760v285c-16-1-32-1-46 0v-285A563 563 0 0 0 51 619c5 12 19 18 30 13s17-17 13-28A517 517 0 0 1 510-92v242c-15 3-30 7-45 12V-41a476 476 0 0 0-117 879c11 6 25 2 31-10 5-11 1-23-9-29a431 431 0 0 1 50-779v180a69 69 0 0 0-14 125c-16 156-87 115-87 164v29c0 74 171 316 252 322 5 0 10 0 15 0 80-6 252-248 252-322v-29c0-49-71-8-87-164 20-12 34-34 34-59 0-31-21-57-49-66V20a431 431 0 0 1 50 779c-10 5-14 19-9 29 6 12 20 16 31 10A476 476 0 0 0 691-41v203c-15-5-30-9-45-12V-92a518 518 0 0 1 417 696c-5 11 1 23 12 28 12 5 25-1 30-13zM715 312a46 46 0 1 1 0-93 46 46 0 0 1 0 93z m-273-93a46 46 0 1 1 0 93 46 46 0 0 1 0-93z" horiz-adv-x="1156.3" />
<glyph glyph-name="gitlab" unicode="&#xf296;" d="M206 801s110-341 110-341H58l111 341c6 18 30 18 36 0zM2 288l56 172 442-574L16 245a39 39 0 0 0-14 43z m314 172h368L500-114z m682-172c5-15 0-33-14-43L500-114l442 574zM831 801l111-341H684l111 341c6 18 30 18 36 0z" horiz-adv-x="1000" />
<glyph glyph-name="gitter" unicode="&#xf426;" d="M130 220H31v630h99V220z m196 481v-851h-98v851h98z m197 0v-851h-99v851h99z m196 1V219h-99v483h99z" horiz-adv-x="750" />
<glyph glyph-name="glide-g" unicode="&#xf2a6;" d="M795 438c15-6 80-109 80-124 0-6-7-12-13-12-56 10-80 17-115 17-71 0-120-21-183-53-17-8-9-14-39-132C491 2 381-150 230-150 127-150 63-80 63 22c0 55 36 154 102 155 23 0 114-31 115-54-1-5-89-43-89-120 0-75 144-67 177 185 0 10 2 8-21 8-171 0-271 95-271 267 0 165 114 387 339 387 137 0 212-57 212-196 0-95-33-182-46-275l1-1c62 34 111 67 183 67 8 0 23-5 30-8zM453 602c5 27 11 55 11 83 0 30-3 56-39 56-16 0-31-5-44-13-86-47-121-169-121-260 0-62 21-143 96-143 17 0 38-5 42 15 18 87 37 175 55 262z" horiz-adv-x="875" />
<glyph glyph-name="glide" unicode="&#xf2a5;" d="M494 560c0-17-3-35-7-52-11-54-22-109-34-163-2-12-16-10-26-10-47 0-60 51-60 89 0 57 22 133 75 162 9 5 18 9 28 9 22 0 24-16 24-35z m381 134V6c0-52-42-94-94-94H94C42-88 0-46 0 6v688c0 51 42 93 94 93h687c52 0 94-42 94-93zM750 328c0 10-41 74-50 78-4 1-14 4-19 4-45 0-75-20-113-42l-1 1c8 58 28 112 28 171 0 87-46 122-131 122-141 0-211-138-211-241 0-107 62-166 168-166 15 0 14 1 14-4C414 94 324 89 324 135c0 48 55 72 56 75-1 15-58 33-72 33-41 0-64-64-64-99 0-63 40-106 104-106 94 0 163 97 184 179 19 73 14 77 24 82 39 20 70 33 114 33 22 0 37-5 72-10 4-1 8 3 8 6z" horiz-adv-x="875" />
<glyph glyph-name="gofore" unicode="&#xf3a7;" d="M633 225c106 0 128-98 132-151A426 426 0 0 0 431-88 434 434 0 0 0 0 351c0 241 191 438 431 438 115 0 223-46 305-129L614 536c-49 49-114 77-183 77a261 261 0 0 1-258-263c0-145 116-262 258-262 66 0 128 24 176 70v67h26z m-24 220c93 0 172-68 172-196v-59c-30 52-83 81-148 81H402v174h207z" horiz-adv-x="781.3" />
<glyph glyph-name="goodreads-g" unicode="&#xf3a9;" d="M83 62h6c25 0 50 0 74 0 3 0 6 1 7-4 14-68 59-107 123-125 53-15 106-15 159-3 66 14 109 55 133 118 15 42 21 85 21 129 0 12 1 92 0 104h-2c-1-3-3-5-5-8a238 238 0 0 0-206-135C192 130 63 249 57 482c-1 46 4 91 17 136a302 302 0 0 0 300 232c120 1 199-76 227-137 1-2 3-5 5-4v120h86c0-547 1-648 1-648-1-154-53-281-202-317-135-33-310-10-382 111C93 2 86 31 83 62z m286 717c-103 1-212-80-225-262-8-115 29-238 140-290 54-25 145-29 212 17 93 65 122 190 107 301-19 139-94 234-234 234z" horiz-adv-x="750" />
<glyph glyph-name="goodreads" unicode="&#xf3a8;" d="M586 477c10-73-9-155-70-197-44-30-103-28-139-11-72 34-96 114-91 190 8 119 80 171 147 171 92 0 140-63 153-153z m289 201V22c0-61-49-110-109-110H109C49-88 0-39 0 22v656c0 61 49 110 109 110h657c60 0 109-49 109-110zM645 238s-1 67-1 425h-56v-79c-2-1-3 1-3 2-19 41-71 91-149 90-101-1-170-61-196-152-9-29-12-59-11-89 3-152 88-230 219-225 57 2 107 33 135 88 1 2 2 4 3 6 1 0 1 0 2 0 0-8 0-60 0-68-1-29-4-57-14-85-15-41-44-67-87-77-35-7-70-7-104 3-42 11-71 37-80 81-1 3-3 3-5 3h-52c1-21 6-40 16-57 48-79 162-95 251-73 97 24 131 107 131 207z" horiz-adv-x="875" />
<glyph glyph-name="google-drive" unicode="&#xf3aa;" d="M662 235L343 788h314l320-553H662z m-268-46h606L843-87H236z m-93 529l162-276L157-87 0 188z" horiz-adv-x="1000" />
<glyph glyph-name="google-play" unicode="&#xf3ab;" d="M635 392L204 825l549-315zM92 850l501-500L92-150a76 76 0 0 0-43 69v862c0 32 17 56 43 69z m830-441c38-28 38-90 3-118l-118-67-128 126 128 126zM204-125l431 433 118-118z" horiz-adv-x="1000" />
<glyph glyph-name="google-plus-g" unicode="&#xf0d5;" d="M754 404c4-19 6-38 6-63 0-214-144-366-360-366a375 375 0 1 0 251 652l-102-98c-27 27-76 58-149 58-128 0-232-106-232-237s104-237 232-237c148 0 204 107 213 162H400v129h354z m362-13h109V282h-109V173h-109v109H898v109h109v109h109V391z" horiz-adv-x="1250" />
<glyph glyph-name="google-plus-square" unicode="&#xf0d4;" d="M781 788c52 0 94-42 94-94V6c0-51-42-93-94-93H94C42-87 0-45 0 6v688c0 52 42 94 94 94h687zM320 155c113 0 188 79 188 190 0 13-1 23-3 33H320v-67h111c-4-29-33-85-111-85-66 0-120 56-120 124s54 123 121 123c38 0 63-16 77-30l53 51a195 195 0 1 1-131-339z m430 160v57h-57v56h-57v-56h-56v-57h56v-57h57v57h57z" horiz-adv-x="875" />
<glyph glyph-name="google-plus" unicode="&#xf2b3;" d="M500 834a485 485 0 1 0 0-969 485 485 0 0 0 0 969zM362 108c139 0 232 98 232 236 0 1 0 1 0 1 0 14-1 27-4 40H362v-83h137c-10-67-73-104-137-104a152 152 0 1 0 0 305c35 0 71-12 96-38l66 64a242 242 0 1 1-162-421z m450 207h68v70h-69l1 69h-70v-69h-69v-70h69v-69h70v69z" horiz-adv-x="1000" />
<glyph glyph-name="google-wallet" unicode="&#xf1ee;" d="M306 602c74-118 126-221 165-317-16-66-37-130-61-192a969 969 0 0 1-110 290c13 71 5 144 6 219z m-92-143c9 0 19-5 25-12A995 995 0 0 0 400 69H198c-39 136-97 260-179 366-8 10 0 24 12 24h183z m93 172h212C665 430 775 182 799-87H577c-16 260-136 507-270 718z m492 134a1534 1534 0 0 0 11-812c-21 181-83 361-177 529-8 99-26 195-52 285-2 11 5 20 16 20l172 1c14 0 26-10 30-23z" horiz-adv-x="875" />
<glyph glyph-name="google" unicode="&#xf1a0;" d="M953 339c0-277-189-473-469-473a484 484 0 1 0 325 842L677 581c-172 166-493 41-493-231 0-169 135-306 300-306 192 0 264 138 275 209H484v166h462c4-24 7-48 7-80z" horiz-adv-x="953.1" />
<glyph glyph-name="gratipay" unicode="&#xf184;" d="M484 834a485 485 0 1 0 0-969 485 485 0 0 0 0 969z m224-442c17 24 38 99-27 141-54 35-106 8-133-23a84 84 0 0 0-120 0c-27 31-79 58-134 23-64-42-44-118-27-141L488 94z" horiz-adv-x="968.8" />
<glyph glyph-name="grav" unicode="&#xf2d6;" d="M588 436c9-9 9-23 0-32l-19-19c-8-9-23-9-32 0l-21 21c-8 9-8 23 0 32l19 19c9 9 23 9 33 0z m-59 38c-5-5-14-5-20 0-6 6-6 15 0 21s15 6 20 0c6-5 6-15 0-21z m-51-10c6 6 15 6 21 0 5-5 5-14 0-20-6-6-15-6-21 0-5 5-5 15 0 20z m142 26c-39 28-66 84-23 133 42 49 79 34 116-1 24-23 58-49 34-95s-88-65-127-37z m93 87c-17 20-45-13-30-31 14-18 63-5 30 31z m271-227a484 484 0 1 0-968 0 484 484 0 0 0 968 0z m-129-83c5 31-39 32-49 50-27 47-54 72-107 59 23 16 46 12 46 12 1 13 0 26-18 49 8 24 1 44 1 44a111 111 0 1 1-146 157c-46-79 2-139 43-159-28 2-67 23-78 67-13 50 5 97 17 119 0 0-9 12-16 18 0 0-27 0-48-11 23 30 49 29 49 29 0 12-1 29-7 42-10 21-46 25-61-6 0 1 0 1 0 1-9-23-2-109 33-170a465 465 0 0 1-135-137c-55-21-151-100-138-156 1-6 3-11 6-15-5-4-11-9-16-16-23-27-10-69 34-48 31 14 58 40 71 60 0 0-10 10-31 8 54 13 67 19 90 18 15-7 15 67 15 67 0 29-4 61-21 81 24-24 57-64 54-118-1-36-29-45-29-45-18-32-85-129-60-207 0 0-19 29-20 43-34-38-90-102-48-126 52-29 213 173 247 278 67 41 108 93 125 127 43-85 186-184 197-115z" horiz-adv-x="1000" />
<glyph glyph-name="gripfire" unicode="&#xf3ac;" d="M220 261c0-52 32-92 63-135 44-59 87-112 87-169-1-29-9-58-35-91 1 10 10 24 10 44 0 29-26 77-153 169-67 56-130 114-130 211 0 224 288 345 288 525 0 6-1 13-1 19 10-4 76-84 76-176 0-157-205-253-205-397z m401 76c3-16 4-32 4-48 0-101-57-190-131-267-2-2-5-4-7-4-7 0-69 81-69 103 0 0 82 109 82 190 0 21-6 42-18 65-3-63-109-171-114-171s-35 43-35 82c0 10 2 21 7 31 4 10 110 140 110 228 0 12-2 23-6 33l-8 14c32-13 161-125 185-256z" horiz-adv-x="750" />
<glyph glyph-name="grunt" unicode="&#xf3ad;" d="M120 480c1 10 5 20 13 24h1c-9 3-18 6-27 8 83 20 144-41 163-62 32-38 69-18 69-18 0-21-20-37-41-38 2-30-28-63-28-63s11 29 6 49c-2 6-4 12-6 17-38-34-94-3-107 12-19 20-24 46-25 66-4-7-7-17-8-32 0 0-12 18-10 37z m55 4c-6-18-7-54 14-69 31-24 63-10 74-3-15 22-50 50-88 72z m278-90c-22 1-42 17-42 38 0 0 37-20 70 17 18 22 79 82 162 62-9-1-18-4-27-8h1c8-3 12-13 13-23 3-19-10-37-10-37-1 15-4 25-8 32-1-20-6-46-25-66-13-15-69-46-107-12-2-5-4-11-6-17-5-20 6-49 6-49s-30 33-27 63z m122 90c-38-22-73-50-88-72 11-7 43-21 74 3 21 15 20 51 14 69zM313 33c8 0 13-2 17-6s3-10 1-13c-2-5-10-23-25-39-5-5-13-9-21-9-9 0-17 4-24 9-4 4-19 18-26 36-3 7-2 12 1 16 3 3 8 6 19 6h57z m369 197s57-44 41-138c-10-58-45-90-92-107-17-37-57-89-131-97-28-23-67-38-124-38h-1c-57 0-96 15-124 38-74 8-114 60-131 97C73 2 38 34 28 92c-17 94 40 138 40 138 5-35 26-66 48-85 6 44 7 108 7 121 0 29-18 48-23 51s-11 6-17 9c-35 19-78 43-78 86 0 31 18 45 30 54 1 1 3 2 4 3 4 4 7 6 8 9 9 19 7 67 4 73-2 2-33 41-23 77 3 14 13 26 27 33 10 5 23 8 38 9 0 4 1 8 2 11 1 6 2 11 2 16-1 9-2 18-5 22-16 26-56 35-56 35l-24 4 16 19s33 34 90 34c15 0 31-3 47-7 47-15 83-59 96-77 4 2 8 3 12 4-2 51 40 92 55 94 1-9-1-43 14-54 4 28 19 59 76 80-12-33-1-60 4-73 39 36 66 30 66 30s-26-45-18-76c6-1 13-3 19-5 12 17 49 62 96 77 16 5 32 8 47 8 57 0 91-34 91-35l16-18-24-5c-1 0-41-8-57-34a60 60 0 0 1-3-38c1-4 2-8 2-12 15 0 28-3 38-8 14-8 24-19 28-34 9-35-22-75-23-76-4-7-6-54 3-74 1-2 4-5 8-8 2-1 3-2 5-4 12-9 30-22 30-54 0-43-44-66-79-85-6-3-11-6-16-9-6-3-24-22-24-51 0-14 1-78 7-122 23 19 43 50 48 85z m-85 546c-35-11-62-45-74-62a259 259 0 0 0 24-12c5 11 16 27 40 44a97 97 0 0 0 74 16c6 4 13 7 19 10a128 128 0 0 1-83 4z m41-35c-14-1-27-5-38-14a93 93 0 0 1-27-44c10-8 17-16 21-22 7 2 14 4 22 6 7 8 8 20 9 33 1 12 2 24 9 35 1 2 3 4 4 6zM89 762c5 0 11 1 18 1 20 0 40-6 56-17 24-17 35-33 40-44a294 294 0 0 0 24 12c-12 17-39 51-74 62-11 4-23 6-35 6-21 0-38-6-48-10 6-3 13-6 19-10z m87-79c-2 10-10 32-26 44-11 9-24 13-38 14 2-2 3-4 4-7 7-10 8-22 9-34 1-13 2-25 8-33 9-2 16-4 23-6 4 7 11 14 20 22z m-62-341c17-9 35-32 37-66 1-29-2-98-7-149 24-9 52-12 78-13 3 8 7 17 10 26 2 3 39 99 52 121-11-76-34-144-46-175 7 1 14 2 23 2h228c9 0 16-1 23-2-12 31-35 99-46 175a1407 1407 0 0 0 63-147c25 1 53 4 77 13-5 51-8 120-7 149 3 34 21 57 38 66 5 3 10 6 16 9 29 16 59 32 59 60 0 22-8 28-17 36h-1c-2 1-3 3-5 4 2-14 4-26 6-29 0 0-24 29-31 86-3 23 2 67 10 84 0-9 0-19 1-28 0 2 1 3 2 4 7 8 23 35 19 52-2 7-7 12-14 16-7 3-17 5-29 5-24 0-51-7-64-11-49-16-109-61-126-74 0 0 0-1 0-1l-11-7 7 11c0 1 37 61 103 91-4 5-14 16-42 29-42 21-91 31-145 31s-103-10-145-31c-28-13-38-24-42-29 66-30 103-90 104-91l6-11-11 7s0 1 0 1c-17 13-77 58-126 74-13 4-40 11-64 11-12 0-22-2-29-5-7-4-12-9-13-16-5-17 12-44 18-52 1-1 2-2 3-4 0 9 1 19 0 28 8-17 13-61 10-84-7-57-31-86-31-86 2 3 4 15 6 29-2-1-3-3-5-4h-1c-9-7-17-14-17-36 0-28 30-44 59-60 5-3 11-5 16-9zM68 60C91 21 137 2 182 2c-9 26-6 47 8 62l2 3c4 5 9 11 14 20-53 2-124 21-145 88-10-10-17-76 7-115z m89-85c13-19 33-38 61-50-10 14-18 30-24 45-13 1-25 3-37 5z m218-98c118 0 153 90 166 126 7 21 6 36-2 45-5 7-18 15-48 15H259c-29 0-42-8-48-15-8-9-9-24-2-45 13-37 48-126 166-126z m157 48c29 12 48 31 61 50-12-2-24-4-37-5-6-15-14-31-24-45zM682 60c24 39 17 105 8 115-22-67-93-86-146-89 5-8 10-14 14-19 1-1 2-2 3-3 14-15 16-36 8-62 44 1 90 19 113 58zM375 483c-25 1-53 35-53 35 19-12 36-16 53-16s34 4 53 16c0 0-28-34-53-35zM495 33c11 0 16-3 19-6 3-4 4-9 1-15-6-18-22-32-26-36-6-5-15-8-23-8-9 0-17 3-22 9-14 15-23 32-25 38-1 2-3 8 2 13 3 3 9 5 17 5h57z" horiz-adv-x="750" />
<glyph glyph-name="gulp" unicode="&#xf3ae;" d="M410 86l-28-48-9-157c0-17-55-31-123-31s-123 14-123 31L115 37 86 86c81-34 246-32 324 0zM27 581c60-33 386-33 446 0l-29-267c-9-8-23-20-33-27-3-3-11-10-15-10-3 0-4 1-4 4 0 2 6 9 9 12 10 12 27 32 27 46s-21 28-50 1c-3-3-6-6-9-9 1 2 2 10 2 12 0 5-2 8-8 8-2 0-3-2-5-3-5-7-8-15-10-23-1-3-3-7-4-10 0-1-1-1-1-1-8-8-35-34-46-34-4 0-3 7-2 12 2 6 14 34 17 43 9 22 16 39 26 63 8 17 8 16 9 20s1 10-2 12c-2 1-4 2-6 2-5 0-10-2-12-9-50-126-49-124-52-133-4-3-8-7-13-9-6-3-13-4-13 2 0 8 3 16 5 23 4 12 10 22 14 33 1 5 2 9-1 13-2 2-4 3-7 3-5 0-8-5-10-10-1-3-2-6-3-9-3-8-7-17-11-24-6-10-13-20-22-26-4-4-9-5-13-5-7 0-5 11-3 17 4 16 11 26 18 41 3 5 4 11-1 14-1 1-2 1-3 2-6 1-11-3-15-9-6-13-10-23-13-32-7-17-14-36-9-46 2-8 8-10 16-10 19 0 35 13 44 29-8-39 16-34 39-16 0-1 0-2 1-2 2-13 17-13 28-8 7 3 16 8 28 20 0 1 2 3-2-4-14-32-26-55-29-67 0-2 0-4 0-6 0-3 0-6 2-7 3-2 8-2 12 0 4 1 6 5 8 8 2 5 0 2 10 28s6 15 18 43c3 8 8 18 16 30 5 7 11 14 17 19 11 9 23 10 23 5s-6-13-9-16c-10-13-28-32-28-42 0-19 23-16 34-11 14 6 27 19 38 29l-21-185c-4-10-76-33-172-33S79 95 75 105L60 260c5-3 9-4 16-4 14 0 31 13 42 23 4 4 8 8 12 13-2-6-14-43-14-50 0-2-1-9 1-12 1-1 3-2 5-2 6 0 11 9 13 14 0 0 3 13 15 51 12 41 19 48 19 68 0 11-14 13-19 0l-10-31c-5-8-16-22-25-31-7-7-21-20-31-20-4 0-7 3-9 7-5 11-2 28 1 39 5 19 13 38 23 55 9 15 20 31 34 41 13 9 25 8 33-6 3-5 7-14 13-14 5 0 11 5 9 18-1 5-10 17-20 23-12 7-24 7-36 2-38-16-67-69-79-108z m449 17c0-42-452-42-452 0 0 17 101 31 226 31 17 0 35-1 51-1l25 95 120 126c2 3 11 0 19-7s13-15 10-18L363 706l-19-80c78-5 132-16 132-28z m-136-9c0 1-2 2-5 4v-2c0-2-10-5-22-5s-22 3-22 5c0 0 0 0 1 1v1c-3-1-6-3-6-4 0-5 12-8 27-8s27 3 27 8z" horiz-adv-x="500" />
</font>
</defs>
</svg>
