<svg height="1000" width="875" xmlns="http://www.w3.org/2000/svg"><path d="M201.8 672.5c-12.7 -27.8 -13.5 -35.8 14.4 -45.2 50 -15.6 15.6 18 84.4 96.1h.6V540C303.5 442 387.1 360 492 360c105.3 0 190.8 84.9 190.8 189 0 123.9 -118.7 221.1 -251 182.3 -20.5 -8.3 -4.1 -62 16.6 -55.9C552 675.4 623 655.7 623 549.6c0 -119.1 -150.5 -175 -228.3 -87.1 -45.9 51.6 -34.3 82.2 -34.3 307.8 99 60.6 231 43 313.2 -39.2 48.5 -48.5 75.2 -113.3 75.2 -181.7 0 -68.7 -26.9 -133.2 -75.8 -182.2C624.6 318.7 560.2 292 490.8 292s-134.4 26.9 -182.6 75.2c-.6 .6 -31.2 32.2 -41.4 46.7l-1 1.1c-6.4 9.2 -12.3 17.8 -39.2 12 -13.5 -3.4 -28 -11.4 -28 -23.1V39.1c0 -9.8 7.7 -20.5 20.5 -20.5h471.3c16.2 0 16.2 22.6 16.2 29.4 0 7.7 0 29.5 -16.2 29.5H254.5v259.6h.6C458.6 122.7 807.4 266.8 807.4 549.8c0 347.9 -478.1 430.3 -605.6 122.7zM325.4 163.1c-1 8.2 9 47.8 28.5 40.2 243.8 -92.8 396.1 78.9 409 78.9 9.4 0 44.5 -29.9 27.9 -44.5C608.8 63.9 332.8 126.4 325.4 163.1zM767.6 810C552.7 1024.6 183.6 928.7 119.1 606.4c0 -23.8 -59.3 -14.4 -56.4 6.5 46.9 338.7 480.5 501.7 745.3 236.9C821.5 834.6 783.4 794.3 767.6 810zM417.2 598.8c0 7.8 8.4 14.3 10.7 16.6 5.9 5.9 11.9 8.6 16.6 8.6 7.5 0 5.1 .4 43.6 -38.1 38.3 37.7 37.3 38.1 43.5 38.1 10.6 0 36.2 -20.3 20.9 -35.5l-33.7 -33.8 35.5 -35.6c12.3 -13.2 -19.7 -42.5 -31.6 -30.6l-35 34.9c-36.3 -36.7 -35.9 -38 -42 -38 -9.8 0 -35.2 22.8 -24.2 33.7l35.5 35.6c-35.3 34.9 -39.8 37.5 -39.8 44.1z"/></svg>