<svg height="1000" width="875" xmlns="http://www.w3.org/2000/svg"><path d="M827.9 499.6l-25.2 307.2c-6.4 79.5 -124.8 68.6 -118.3 -9.5L703.9 558l-80.3 4.5c19.8 40.4 30.9 85.7 30.9 133.8 0 80.5 -31.5 153.7 -82.6 208l-76.8 -76.8C608.2 703.1 520.7 501 350.6 501c-50.6 0 -96.7 19.3 -131.3 50.8L142.6 475c42.9 -40.4 97.8 -68.6 159 -78.5l147 -167.4 -83.2 -48.4 -100.8 89.8c-58.5 52.4 -137.8 -36.1 -79.1 -88.7L318.4 63.3c19.1 -17.2 47 -19.9 69.3 -7 0 0 272.1 158 272.5 158.3 31.6 19.8 40.4 70.4 11.9 102.8L558 447.3l207.2 -11.6c36.2 -2.1 65.7 28.2 62.7 63.9zM701.2 198.8c54.9 0 99.4 -44.5 99.4 -99.4C800.6 44.5 756.1 0 701.2 0c-54.9 0 -99.4 44.5 -99.4 99.4 0 54.9 44.5 99.4 99.4 99.4zM350.8 891.6C193.4 891.6 102 714.6 189.3 586.7l-77.6 -77.5C71.1 560.5 46.9 625.6 46.9 696.1c0 255.3 294.3 393.4 491 239.3l-77.5 -77.6c-31.3 21.3 -69 33.8 -109.6 33.8z"/></svg>