<svg height="1000" width="1250" xmlns="http://www.w3.org/2000/svg"><path d="M941.8 726.8C930.7 713.3 488.3 146.5 473.2 127.9c-26.7 -33.6 0 -32.8 37.5 -33 19 -.2 207.7 -1.1 227.6 -1.1 47.1 -.2 56 1.1 75 25 4.1 5.2 400.6 480 404.7 484.9 10.7 13.1 29.7 37.3 14 45.7 -4.7 2.6 -223.8 93.2 -230 95.5 -19.8 7.8 -34.2 13.3 -60.2 -18.1m224 -11S941.2 814.3 936.3 816.6c-31.2 14.3 -52.5 -6.2 -71.7 -28.5L753.1 643.6C742.6 641.8 635.2 624.8 625.6 625.4c-6.1 .4 -18.8 1.6 -28.1 5.7 -9.6 4.1 -283.6 103.1 -293.4 106.8 -10 3.9 -22.3 7 -21.7 14.8 .4 4.9 3.9 5.1 9 6.9 5.3 1.5 587.7 132 601.6 134.9 30.4 6.5 75.2 20.5 104.7 3.4 4.1 -2.4 241.8 -149.3 245.7 -152 10.5 -7.8 8.4 -13.3 -3.4 -16 -4.5 -.6 -48 -9.2 -74.2 -14.1M529.1 361.7s-23.4 3.1 -48.8 29.5C462.7 409.4 7.4 858.2 4.9 861.7 -8.8 881.2 8 875 35.5 865c1.6 0 223.7 -71.4 223.7 -71.4 1 -1.2 -.2 -.2 1.2 -1.2 -.8 -10 -1.6 -51.2 -2 -54.1 -1.2 -10.2 4.3 -13.5 13.7 -17.4l180.8 -66c1.2 -1.6 172.9 -159.6 176.2 -162.7v-2l-100 -128.5"/></svg>