
  <svg height="1000" width="750.0" xmlns="http://www.w3.org/2000/svg">
    <path d="m698.1 914.5c4.3 27.9 8.1 56 12.9 85.3-718.3 0-300.5 1.2-658.4 0-7.8 0-11.9-1.4-10.3-11.1 4.1-25.2 6.8-50.6 9.8-75.8 0.9-9.4 4.4-13.3 14.8-13.3 230.7 2 224.4 0.6 237.1-4.7 18.4-7.8 29.1-25.2 29.1-45.1-0.2-83.8-0.6-167.8-0.4-251.6 0-7.4-2.3-11.5-9-13.2-30.6-7.7-61.1-15.1-92.9-22.9-10.4 24-20.4 47.7-30.7 71.7 3.5 6.4 55.5 5.7 68.9 5.7v53.9h-223.2c2-16.8 3.3-32.9 6.2-48.7 0.6-2.7 7.1-6 10.8-6.2 16.4-0.8 33-0.6 49.6-0.2 7.8 0 11.5-2.2 14.8-10.2 32.5-79.5 26.4-60.9 131.5-314.4 61.5-148.7 64.4-148.5 63.7-170.7-1.4-36.4-49.6-43.6-73.7-43.2-58.6 0.8-75-1-198.8-1-14.1-86.9-8.2-62.7-12.5-88.4-1.4-8.3 2-10.4 9-10.4l662.3 0.4c-1.6 10.5-3.1 21.1-4.7 31.4-2.5 19-5.5 37.9-7.8 57.1-0.6 5.6-2.4 8.4-8.4 8.4-40.2 0.2-80.5 0.2-120.7 0.9-36.5 0.8-73.4 0.6-109.8 3.9-26.1 2.4-45.5 24.7-36.9 52 16.8 52.9 54.1 135 71.3 174.2 128.3 301.2 119.9 306.7 164.1 309.8 12.8 1 26.1 0.2 39.8 0.2 2.5 18.3 5.1 35.1 7.8 53.7h-226.5v-52.7c20.3 0 39.8-0.2 59.3 0.2 6.9 0 9.8-1.4 6.7-8.6-8.6-20.2-17-40.3-25.8-60.4-3.1-7.2-8-9.4-16.4-6.8-24.2 7-48.5 13.1-72.9 18.9-8.4 2.2-11.7 5.5-11.5 14.7 1.6 112.3 1.8 249 2 252.1 0.7 24.6 17 41.8 41 45.1 1.7 0.4 25.2 5.5 220.1 5.1 16.2 0 16.4-0.2 18.7 14.9z m-341.6-401.8c5.7 2 11.7 3.1 18 3.1s12.4-1.1 18-3.1c25.4-8.2 51.3-15.2 76.9-22.9 2.7-1.2 5.2-2.5 7.7-4.1-13.1-33.9-25.6-66.8-38.5-99.4-17.4-44.3-34.6-117.7-52.8-161.7-2.9-1.6-3.7 4.7-18.3 0-33.4 85.9-66.6 171.5-100.2 258 3.6 2.2 7.4 4.1 11.3 5.7 26 8.4 52 16.2 77.9 24.4z" />
  </svg>
