
  <svg height="1000" width="1000.0" xmlns="http://www.w3.org/2000/svg">
    <path d="m941.6 62.5c47.9 0 58.4 10.9 58.4 59v758c0 47.8-10.7 58-58.4 58h-885.5c-44.8 0-56.1-10.9-56.1-56.4v-762.2c0-44.9 11.3-56.4 56.1-56.4h885.5z m-593.2 367.8c18.4 14 24.3 33.4 22.1 53.3-3.5 37.3-148 22.3-222.6 60.3-53.2 27.2-83.4 81.5-77.4 138.7 13.1 126.4 175 155.7 287.1 84.6 9-6.3 16.2-9.6 23.3-2 4.1 5.1 3.9 7.8 7.6 12.1 14.2 18.8 74.6 27.6 91 14.5 6-5.5 9-12.3 5.3-20.9-26.6-59.6-12.9-123-18.2-173.4 0-135.4 12.5-218.2-67.4-251-81.8-34-164.4-32.4-244.7 9.4-31.8 17.5-104.9 103.3-48.6 125.5 10.3 4.5 25 7.9 43.9 10.8 16 2.3 25.8 5.5 34.2-16.2 23.6-62.7 110.7-85.2 164.4-45.7z m560 433.6c0-28-19.1-19.4-32.4-19.4-258.4-0.8-516.6-0.8-775 0-12.9 0-32.6-9.3-33.4 17.8-0.8 30.3 20.3 20.9 34.7 20.9h771.3c13.1 0 34.8 10.2 34.8-19.3z m7.4-665.1c0-0.4 0-0.6 0.2-0.9 0-19.4-6.8-29.5-26.5-28-6.1 0.8-12.9 0-19 0-51 0-50.8 0-50.8 51.2v138.7c-154.7-89.1-242.7 12.9-265.8 59.5-32 64.3-42.6 130.1-30.7 195.3 31.9 180.3 177.8 224.5 282.1 166.5 9-5.5 12.9-14.7 24.2 2.3 16.8 24.8 46.3 10.2 70.5 10.9 14.5 0 15.8-16 15.8-27.1v-568.4z m-100.6 453.7c-38.1 93-142.3 84.6-175.7 10.2-29.5-65-30.3-133.2 0.7-198.2 31.9-66.6 116.6-69.8 159.2-9.4 40.2 56.2 29.1 165.2 15.8 197.4z m-575.7 69c-14.7-2.6-64.5-6.5-65.9-54.3-0.7-27.2 15.3-44.9 38.7-50.4 47.7-11.5 96.3-19.3 144-28.7 17.3-3.9 14.4 8.6 15.2 18.5 2.7 64.5-51 115.7-132 114.9z" />
  </svg>
