<svg height="1000" width="1000" xmlns="http://www.w3.org/2000/svg"><path d="M941.6 62.5H56.1C11.3 62.5 0 74 0 118.9v762.2c0 45.5 11.3 56.4 56.1 56.4h885.5c47.7 0 58.4 -10.2 58.4 -58v-758c0 -48.1 -10.5 -59 -58.4 -59zM348.4 430.3C294.7 390.8 207.6 413.3 184 476c-8.4 21.7 -18.2 18.5 -34.2 16.2 -18.9 -2.9 -33.6 -6.3 -43.9 -10.8 -56.3 -22.2 16.8 -108 48.6 -125.5 80.3 -41.8 162.9 -43.4 244.7 -9.4 79.9 32.8 67.4 115.6 67.4 251 5.3 50.4 -8.4 113.8 18.2 173.4 3.7 8.6 .7 15.4 -5.3 20.9 -16.4 13.1 -76.8 4.3 -91 -14.5 -3.7 -4.3 -3.5 -7 -7.6 -12.1 -7.1 -7.6 -14.3 -4.3 -23.3 2C245.5 838.3 83.6 809 70.5 682.6c-6 -57.2 24.2 -111.5 77.4 -138.7 74.6 -38 219.1 -23 222.6 -60.3 2.2 -19.9 -3.7 -39.3 -22.1 -53.3zm560 433.6c0 29.5 -21.7 19.3 -34.8 19.3H102.3c-14.4 0 -35.5 9.4 -34.7 -20.9 .8 -27.1 20.5 -17.8 33.4 -17.8 258.4 -.7 516.6 -.7 775 0 13.3 0 32.4 -8.6 32.4 19.4zm7.4 -665.1v568.4c0 11.1 -1.3 27.1 -15.8 27.1 -24.2 -.7 -53.7 13.9 -70.5 -10.9 -11.3 -17 -15.2 -7.8 -24.2 -2.3C701 839.1 555.1 794.9 523.2 614.6c-11.9 -65.2 -1.3 -131 30.7 -195.3C577 372.7 665 270.7 819.7 359.8V221.1c0 -51.2 -.2 -51.2 50.8 -51.2 6.1 0 12.9 .8 19 0 19.7 -1.5 26.5 8.6 26.5 28 -.2 .3 -.2 .5 -.2 .9zM815.2 652.5c-38.1 93 -142.3 84.6 -175.7 10.2 -29.5 -65 -30.3 -133.2 .7 -198.2 31.9 -66.6 116.6 -69.8 159.2 -9.4 40.2 56.2 29.1 165.2 15.8 197.4zm-575.7 69C224.8 718.9 175 715 173.6 667.2c-.7 -27.2 15.3 -44.9 38.7 -50.4 47.7 -11.5 96.3 -19.3 144 -28.7 17.3 -3.9 14.4 8.6 15.2 18.5 2.7 64.5 -51 115.7 -132 114.9z"/></svg>