
  <svg height="1000" width="875.0" xmlns="http://www.w3.org/2000/svg">
    <path d="m437.5 728.8h0.1c48.3-60.9 77.3-115.1 87.9-162.5 44.1-171.9-219.9-171.9-175.9 0 9.6 46.4 38.6 100.6 87.9 162.5z m269.8 143c69.6-30 98-104.7 72.3-169.2-49.8-120.4-154-329.1-224.3-467-33.1-66.3-54.7-116.9-117.9-116.9-66.1 0-85.2 53.3-116 112.1-8.1 20.2-196.8 395.3-226.3 471.8-34.8 97.7 41.6 192.4 139.3 177.9 48-4.4 102.7-36.9 166.3-107.3-57-72.5-92.8-137.3-106.3-194.3-23.2-105.5 35.8-196.3 143.1-196.3 126.9 0 239.7 136.6 36.8 390.6 69.6 77.3 150.9 134.3 233 98.6z m91.8-265.9c0 1.3 32.9 69.7 32.9 77.3 49.3 135.4-52.2 254.4-175 254.3-21.7 0-104.9 2.7-219.5-121.9-101.1 110.1-177.1 121.9-219.5 121.9-122.8 0-224.3-118.9-175-254.3 1.7-5.1 21.8-63.9 229.1-478.5 38.7-80.3 76.5-142.2 165.4-142.2 96 0 109.9 7.7 361.6 543.4z" />
  </svg>
