<svg height="1000" width="875" xmlns="http://www.w3.org/2000/svg"><path d="M447.9 356.6c-96.3 0 -174.3 78 -174.3 174.3 0 96.2 78 174.2 174.3 174.2s174.2 -78 174.2 -174.2c0 -96.3 -78.2 -174.3 -174.2 -174.3zm122.4 110.6l-115 59.8c-3.5 1.7 -7.4 -.8 -7.4 -4.5V392.6c0 -3 2.5 -5.3 5.2 -5.1 51.2 2 95.5 30.7 119.4 72.5 1.3 2.5 .4 5.8 -2.2 7.2zM760 62.5H115C51.6 62.5 0 114.1 0 177.5v644.8c0 63.6 51.6 115.2 115 115.2h644.8c63.6 0 115 -51.6 115 -115v-645C875 114.1 823.4 62.5 760 62.5zM364.3 227.9c0 -21.1 17 -38.1 38 -38.1h88.5c21.1 0 38.1 17 38.1 38.1V258c0 3.5 -3.3 5.9 -6.4 4.9 -24.1 -6.6 -49.1 -10 -74.5 -10 -26.3 0 -52.1 3.5 -76.9 10.8 -3.3 .9 -6.6 -1.6 -6.6 -4.9v-30.9zm-164.9 72.3l18 -18c14.8 -14.8 38.9 -14.8 53.7 0l15 15.1c2.2 2.1 2 5.8 -.6 7.8 -12.1 8.8 -23.6 18.3 -34.3 29.1 -10.6 10.5 -20.3 22 -28.9 34 -2 2.5 -5.7 2.9 -7.8 .6l-15.1 -15.1c-14.8 -14.6 -14.8 -38.7 0 -53.5zm248.5 478.1C311.1 778.3 200.6 667.6 200.6 531.1S311.3 283.8 447.9 283.8c136.7 0 247.2 110.5 247.2 247.3 0 136.3 -110.7 247.2 -247.2 247.2z"/></svg>