
  <svg height="1000" width="875.0" xmlns="http://www.w3.org/2000/svg">
    <path d="m447.9 356.6c96 0 174.2 78 174.2 174.3s-78 174.2-174.2 174.2-174.3-78-174.3-174.2 78-174.3 174.3-174.3z m122.4 110.6c2.6-1.4 3.5-4.7 2.2-7.2-23.9-41.8-68.2-70.5-119.4-72.5-2.7-0.2-5.2 2.1-5.2 5.1v129.9c0 3.7 3.9 6.2 7.4 4.5z m189.7-404.7c63.4 0 115 51.6 114.8 115v645c0 63.4-51.4 115-115 115h-644.8c-63.4 0-115-51.6-115-115.2v-644.8c0-63.4 51.6-115 115-115h645z m-395.7 165.4h0.2v30.9c0 3.3 3.3 5.8 6.6 4.9 24.8-7.3 50.6-10.8 76.9-10.8 25.4 0 50.4 3.4 74.5 10 3.1 1 6.4-1.4 6.4-4.9v-30.1c0-21.1-17-38.1-38.1-38.1h-88.5c-21 0-38 17-38 38.1z m-164.9 72.3c-14.8 14.8-14.8 38.9 0 53.5l15.1 15c2.1 2.4 5.8 2 7.8-0.5 8.6-11.9 18.3-23.5 28.9-34 10.7-10.8 22.2-20.3 34.3-29.1 2.6-2 2.8-5.7 0.6-7.8l-15-15.1c-14.8-14.8-38.9-14.8-53.7 0z m248.5 478.1c136.5 0 247.2-110.9 247.2-247.2 0-136.8-110.5-247.3-247.2-247.3-136.6 0-247.3 110.7-247.3 247.3 0 136.5 110.5 247.2 247.3 247.2z" />
  </svg>
