
  <svg height="1000" width="875.0" xmlns="http://www.w3.org/2000/svg">
    <path d="m737.8 62.5c75.5 0 136.9 61.7 136.6 137.2v457.9c-95-32.7-194.8-70.4-290.3-103.1 45.2-86.5 74.9-177.5 74.9-177.5h-173.4v-61h213.8v-37.2h-213.8v-98.4h-99.4v98.4h-213.8v37.2h213.8v61h-179.9v32.6h348.1s-19.4 59.1-51.7 117.8c-93.3-28.7-179.2-48.7-248.3-48.7-165.3 0-202.1 83-194.4 159.2 6.5 60.7 51.7 149.1 189.6 149.1 125.9 0 227.6-72.3 290.2-158.2 119.2 54.9 245.4 122.7 335.2 172.8-1 75.2-62 135.9-137.2 135.9h-600.6c-75.9 0-137.2-61.3-137.2-137.2v-600.6c0-75.9 61.3-137.2 137.2-137.2h600.6z m-645.5 568.3c-1.9-34.3 21.4-98.8 153.1-98.8 48.7 0 126.6 24.8 213.7 61.3-49.4 64.9-128.5 142.4-230.2 142.4-116.5 0-134.6-65.5-136.6-104.9z" />
  </svg>
