<svg height="1000" width="1193.8" xmlns="http://www.w3.org/2000/svg"><path d="M0 635.2c4.5 -8.2 10.2 -9.6 18.9 -4.9 20.4 10.9 40.3 22.2 61 32.6 79.5 39.8 162.5 69.5 248.8 90.4 40.8 9.8 81.8 17.6 123.4 23.1 61.6 8.2 123.5 11.7 185.6 10.1 34 -.8 68 -3.5 101.8 -7.4C849.6 766 956.1 738.5 1058.4 695.5c5.7 -2.3 11.5 -3.9 17.8 -2.3 13.1 3.5 17.6 17.5 8 27.1 -5.5 5.5 -12.3 10 -18.8 14.5C1005.5 776 940 805.9 870.9 828.3c-48 15.4 -96.9 27 -146.7 34.4 -34.4 5.1 -69.1 8.6 -103.9 9.4 -1.5 0 -3.3 .4 -4.9 .6h-41.2c-1.5 -.2 -3.3 -.6 -4.9 -.6 -7 -.4 -14 -.6 -20.9 -.8 -33 -1.4 -65.8 -5.1 -98.4 -10.4C396.5 852.1 344.1 838.7 293 820.1 187.3 781.8 92.6 725.2 8.6 650.2 5.1 647.1 2.7 642.8 0 639.1v-3.9zM308.6 127c-2.7 .3 -5.7 .7 -8.4 1.1 -27.3 3.3 -52 13.5 -74.2 29.5 -4.7 3.3 -9 6.9 -13.9 10.6 -.4 -1 -.8 -2 -.8 -2.8 -.8 -5.2 -1.5 -10.7 -2.5 -16 -1.4 -9 -5.9 -12.9 -14.9 -12.9h-22.4c-13.5 0 -16 2.6 -16 16v408.8c0 2 0 3.9 .2 5.9 .4 5.8 3.9 9.6 9.5 9.8 13.7 .1 27.6 .1 41.2 0 5.7 0 9.2 -4 9.8 -9.8 .2 -2 .2 -3.9 .2 -5.9V419.9c2.2 1.8 3.3 2.8 4.3 3.7 35 29.1 75.2 38.7 119.1 30.1 39.9 -7.8 67.6 -32.2 85.6 -68.2 13.7 -27.1 19.3 -56 20.1 -86.1 1 -33.4 -2.3 -66.2 -15.8 -97.3 -16.6 -38.2 -44.2 -63.4 -85.8 -72 -6.2 -1.4 -12.6 -2 -19.1 -3 -5.5 -.1 -10.7 -.1 -16.2 -.1zM216 208.8c0 -2.9 .8 -4.7 3.3 -6.5 26.8 -18.5 56.3 -28.3 89.1 -25.7 29.1 2.1 52.9 16.4 65.4 50.5 7.6 20.9 9.6 42.6 9.6 64.5 0 20.3 -1.6 40.2 -7.8 59.8C362.3 393 331.8 408.8 292.4 407 265 405.9 241.2 395.3 219.3 379.9c-2.3 -1.8 -3.3 -3.3 -3.3 -6.5 .2 -27.5 0 -54.8 0 -82.4 0 -27.3 .2 -54.7 0 -82.2zM617.8 127c-2 .1 -3.9 .5 -5.7 .7 -19.1 1 -37.9 3.4 -56.4 8 -11.9 3.2 -23.5 7.5 -35 11.4 -7 2.3 -10.5 7.4 -10.3 15 .1 6.5 -.2 12.9 0 19.3 .1 9.4 4.1 12 13.2 9.6 15.3 -3.9 30.5 -8.2 45.9 -11.1 24.1 -4.5 48.3 -6.5 72.7 -2.8 12.7 2 24.6 5.7 32.8 16.5 7.2 9.3 10 20.5 10.4 32 .5 16.2 .3 32.4 .5 48.6 0 .8 -.2 1.8 -.4 2.8 -.9 -.2 -1.7 0 -2.5 -.2 -20.5 -4.9 -41.2 -8.4 -62.5 -9.6 -22.1 -1.2 -43.9 .2 -65 7.6 -25.2 8.8 -45.5 24 -57.5 48.6 -9.1 19.2 -10.5 39.5 -7.6 60 3.9 27.3 17.6 48.4 41.8 61.9 23.3 12.9 48.5 14.5 74.1 10.6 29.4 -4.5 55.6 -17 78.7 -36 .7 -.8 1.7 -1.3 3.1 -2.1 1.2 7.4 2.1 14.4 3.5 21.5 1.2 6 4.9 9.9 10.5 10.1 10.6 .2 21.3 .2 31.9 0 5.3 -.2 8.8 -3.7 9.4 -9.2 .2 -1.7 .2 -3.7 .2 -5.4V227.7c0 -8.4 -.4 -16.8 -1.8 -25.2 -3.7 -25.2 -14.5 -45.9 -37.1 -59.3 -13.1 -7.8 -27.6 -11.8 -42.6 -13.9 -7 -1 -14.1 -1.6 -21.1 -2.5 -7.6 .2 -15.4 .2 -23.2 .2zm68.3 249.4c0 2.5 -.7 4.3 -2.9 5.8 -21.9 15.8 -45.9 26.4 -73 29.1 -11.2 1.2 -22.3 .8 -32.9 -3.5C565 402.9 557 394.3 553.1 381.8s-3.9 -25.4 -.2 -37.9c4.9 -16.2 16.4 -25.3 32.1 -30.4 15.8 -5.1 32.2 -5.9 48.4 -4.3 16.4 1.3 32.4 4.5 48.8 6.6 3.2 .4 4.1 2 4.1 5.1 -.2 9.4 0 18.6 0 27.9 -.2 9.2 -.4 18.4 -.2 27.6zm507.7 252.7c-2 -9.8 -9.4 -13.5 -17.8 -16.2 -13.3 -4.5 -27.2 -6.5 -41 -7.6 -25.6 -2.2 -51.2 -1 -76.6 3.7 -27.9 5.3 -54.5 14.2 -78.1 30.5 -2.8 1.9 -5.5 4.1 -7.3 6.8 -1.3 2.1 -1.7 5.5 -.9 7.8 .8 2.9 4.1 3.7 7 3.5 1.4 0 2.9 0 4.3 -.2 15.2 -1.5 30.3 -3.3 45.5 -4.9 22.3 -2.1 44.7 -3.5 67 -1.7 9.4 .6 18.9 2.7 28.1 5.3 10 2.7 14.5 10.1 14.9 20.3 .7 15.6 -2.8 30.6 -6.9 45.5 -8 30.1 -19.5 59.2 -30.8 88.1 -.8 1.9 -1.6 3.9 -2 5.8 -1 5.7 2.4 9.4 8 8 3.3 -.8 7.1 -2.5 9.4 -4.9 8.6 -8.4 17.4 -16.8 24.8 -26.1 25 -32.1 39.7 -69 48.2 -108.6 1.6 -7.1 2.8 -14.3 4.2 -21.3v-33.8zM935.7 388.5C910.5 318.8 885.4 248.8 860.2 179.1 856.3 168 852 157 847.9 146.1c-2.2 -5.7 -6.3 -9.4 -12.5 -9.4 -14.9 -.2 -29.7 -.4 -44.8 -.2 -4.9 0 -7.2 3.9 -6.2 8.8 1 4.1 2.1 8 3.7 11.9 38.3 94.8 76.7 189.7 115.4 284.2 3.3 8 4.1 14.9 .4 23.1 -6.4 14.2 -11.5 29.3 -18.2 43.5 -5.8 12.7 -15.6 22.3 -29.6 26 -10 2.7 -20 3.1 -30.1 2.1 -4.9 -.4 -9.8 -1.5 -14.7 -1.9 -6.6 -.4 -9.9 2.5 -10.1 9.4 -.2 6.4 -.2 12.8 0 19.3 .2 10.7 3.9 15.6 14.4 17.4 11 1.9 22.1 3.7 33 3.9 33.4 .8 60 -12.7 77.2 -41.8 6.8 -11.5 13.1 -23.6 18 -36C990 389.6 1035.7 272.7 1081.6 155.7c1.4 -3.6 2.6 -7.1 3.2 -10.8 .7 -5.4 -1.8 -8.6 -7.3 -8.6 -12.9 -.2 -25.9 0 -38.8 0 -7.3 0 -12.3 3.2 -15.1 10.2 -.9 2.7 -2.1 5.3 -3.1 8 -22.6 65 -45.3 130.1 -68 195.3 -4.8 14.1 -9.9 28.3 -15 43.4 -.8 -2.2 -1.2 -3.4 -1.8 -4.7z"/></svg>