<svg height="1000" width="875" xmlns="http://www.w3.org/2000/svg"><path d="M502.3 317.8c-95.1 3.5 -331 30.2 -331 229.5 0 213.8 270.1 222.6 358.4 84.3 12.7 20 69.1 73.3 88.5 91.4L729.1 613.7S666 564.3 666 510.5V223.2C666 173.8 618.2 62.5 446.7 62.5c-171.9 0 -263.1 107.4 -263.1 203.7l143.5 13.3C359 182.8 433 182.8 433 182.8c79.5 -.2 69.3 58.2 69.3 135zm0 169.5c0 156.3 -164.4 132.8 -164.4 33.6 0 -92.2 98.6 -110.7 164.4 -112.9v79.3zM768 806.6C752.9 826.2 631.3 937.5 427.1 937.5S66.8 797.9 18.9 740.2c-13.2 -15 2 -22 10.8 -16.2 143.2 86.9 366.8 230.1 727.5 59.2 14.7 -7.2 26 3.9 10.8 23.4zm77.7 4.3c-12.7 30.9 -31.2 52.4 -41.4 60.6 -10.7 8.8 -18.6 5.3 -12.7 -7.4s37.7 -90.9 24.8 -107.5c-12.7 -16.2 -72.3 -8.4 -93.7 -6.2 -21.1 1.9 -25.4 3.9 -27.4 -.6 -4.5 -11.1 42.4 -30.3 73.3 -34.2 30.6 -3.5 80 -1.5 89.8 11.2 7.2 9.9 0 52.9 -12.7 84.1z"/></svg>