
  <svg height="1000" width="1250.0" xmlns="http://www.w3.org/2000/svg">
    <path d="m27.3 635.4c4.5-8.3 10.2-9.6 19-4.9 20.3 10.9 40.2 22.2 60.9 32.6 77.8 38.8 162.3 69.7 248.9 90.4 40.1 9.7 81.7 17.5 123.4 23.1 51.7 6.9 104.5 10.5 158.2 10.5 9.7 0 17.7-0.1 27.3-0.4 34-0.8 68-3.5 101.8-7.4 111.1-12.9 219.5-41.9 318.9-83.6 5.7-2.3 11.6-3.9 17.8-2.3 13.1 3.5 17.6 17.5 8 27.1-5.8 5.4-12 10.2-18.7 14.5-60 41.2-125.4 71.1-194.6 93.5-47 15.2-96.7 26.9-146.6 34.4-34.2 5.2-68.6 8.4-103.9 9.4-1.7 0.1-3.3 0.3-4.9 0.6h-41.2c-1.6-0.3-3.3-0.5-4.9-0.6-7.1-0.4-14.1-0.6-20.9-0.8-33.5-1.5-66.2-5-98.5-10.4-53.7-8.7-107-22.7-157-40.8-105.8-38.2-202.2-96.2-284.4-169.9-3.5-3.1-5.8-7.4-8.6-11.1v-3.9z m308.6-508.3c5.5 0 10.8 0 16.2 0.2 6.5 1 12.9 1.6 19.2 3 41.6 8.6 69.1 33.8 85.7 72 13.5 31.1 16.8 63.9 15.9 97.3-0.8 30.1-6.5 59-20.2 86.1-17.9 36-45.7 60.4-85.5 68.2-44 8.6-84.2-1-119.2-30.1-0.9-0.9-2.1-1.9-4.3-3.7v141.4c0 2 0 3.9-0.1 5.9-0.6 5.8-4.1 9.7-9.8 9.7-13.7 0.2-27.6 0.2-41.2 0-5.7-0.1-9.2-3.9-9.6-9.7-0.2-2-0.2-3.9-0.2-5.9v-408.8c0-13.4 2.6-16 16-16h22.5c9 0 13.5 3.9 14.8 12.9 1 5.3 1.8 10.8 2.6 16 0.1 1 0.3 1.9 0.8 2.8 4.8-3.8 9.1-7.3 13.8-10.6 21.2-15.6 46.8-26.1 74.2-29.5z m-92.5 81.9c0.2 27.5 0 54.7 0 82.2 0 27.6 0.2 54.9 0 82.4-0.1 0.2-0.1 0.4-0.1 0.5 0 2.5 1.4 4.8 3.4 6 21.9 15.4 45.7 26 73 27.1 39.5 1.8 69.9-14 83.2-55.6 6.3-19.6 7.8-39.5 7.8-59.8 0-21.9-1.9-43.6-9.5-64.5-12.5-34.1-36.4-48.4-65.5-50.5-32.8-2.6-62.3 7.2-89 25.7-2 1.2-3.4 3.4-3.4 5.9 0 0.2 0 0.4 0.1 0.6z m401.7-81.9c7.8 0 15.6 0 23.3-0.1 7 0.9 14 1.5 21.1 2.5 15 2.1 29.4 6 42.5 13.9 22.7 13.4 33.4 34.1 37.1 59.3 1.2 7.7 1.8 15.4 1.8 23.4 0 0.6 0 1.2 0 1.8v207.1c0 0.3 0 0.5 0 0.8 0 1.6-0.1 3.1-0.2 4.6-0.1 5.1-4.3 9.2-9.4 9.2-10.5 0.2-21.3 0.2-31.8 0-5.7-0.2-9.4-4.1-10.6-10.1-1.3-7.1-2.3-14.1-3.5-21.5-1.1 0.5-2.2 1.3-3.1 2.1-23 19-49.2 31.5-78.7 36-25.6 3.9-50.8 2.3-74-10.6-24.2-13.5-37.9-34.6-41.8-61.9-3-20.5-1.6-40.8 7.6-60 11.9-24.6 32.2-39.8 57.4-48.6 21.1-7.4 43-8.8 65.1-7.6 21.3 1.3 42.3 4.6 62.5 9.6 0.7 0.1 1.5 0 2.5 0.1 0.2-0.8 0.3-1.8 0.4-2.7-0.2-16.2 0-32.4-0.6-48.6-0.4-11.5-3.1-22.7-10.4-32-8.2-10.8-20.1-14.5-32.8-16.5-24.4-3.7-48.6-1.7-72.6 2.8-15.5 2.9-30.7 7.2-45.9 11.1-9.2 2.4-13.1-0.2-13.3-9.6-0.2-6.4 0.2-12.8 0-19.3-0.2-7.6 3.3-12.7 10.3-15 11.6-3.9 23.1-8.2 35-11.4 18.2-4.4 37.1-7.2 56.5-8 1.7-0.2 3.7-0.6 5.6-0.8z m68.4 249.5c-0.2-9.2 0.2-18.2 0.2-27.6s-0.2-18.5 0-27.9c0-3.1-1-4.7-4.1-5.1-16.4-2.1-32.5-5.3-48.9-6.6-4.5-0.6-9.1-0.8-13.8-0.8-12 0-23.6 1.8-34.6 5.1-15.6 5.1-27.1 14.2-32 30.4-1.8 5.9-2.8 12.2-2.8 18.7 0 6.7 1.1 13.2 3 19.2 3.4 12.1 12.5 21.7 24.2 26 10.5 4.3 21.7 4.7 32.8 3.5 27.1-2.7 51.2-13.3 73-29.1 1.8-1.1 3-3.1 3-5.4 0-0.2 0-0.3 0-0.4z m507.6 252.7v33.8c-1.4 7-2.5 14.2-4.1 21.3-8.6 39.6-23.2 76.5-48.2 108.6-7.8 9.3-16 17.9-24.9 26.1-2.6 2.4-5.8 4.1-9.3 4.9-5.7 1.4-9-2.3-8-8 0.4-2 1.1-4 1.9-5.8 11.3-29 22.9-58.1 30.9-88.1 4.1-14.9 7.6-29.9 6.8-45.5-0.4-10.2-4.9-17.6-14.8-20.4-9-2.6-18.5-4.4-28.2-5.2-22.2-1.8-44.7-0.4-67 1.7-15.2 1.6-30.2 3.4-45.5 4.9-1.1 0.2-2.3 0.2-3.5 0.2-0.3 0-0.5 0-0.8 0-2.9 0.2-6.2-0.6-7-3.5-0.2-0.9-0.4-1.8-0.4-2.8 0-1.8 0.5-3.5 1.4-5 2-2.7 4.4-5 7.2-6.9 23.6-16.2 50.2-25.1 78.1-30.4 17-3.1 34-4.8 51.9-4.8 8.3 0 16.5 0.4 24.7 1.1 14.2 0.9 28 3.5 41 7.6 8.4 2.7 15.8 6.4 17.8 16.2z m-258-240.6c0.6 1.3 1 2.5 1.7 4.7 5.1-15.1 10.2-29.3 15.1-43.4l68-195.3c0.9-2.7 2.1-5.3 3.1-8 1.9-5.9 7.4-10.2 14-10.2 0.3 0 0.7 0 1 0 12.9 0 26-0.2 38.9 0 5.5 0 8 3.1 7.2 8.6-0.6 3.7-1.7 7.4-3.1 10.8-45.6 117-91.6 233.9-137.9 350.7-5.1 12.5-11.1 24.6-18 36-17.2 29.1-43.7 42.6-77.1 41.8-11.3-0.5-22.3-1.8-33-3.9-10.6-1.8-14.3-6.7-14.5-17.4-0.2-6.4-0.2-12.8 0-19.3 0.2-6.9 3.5-9.8 10.2-9.4 4.9 0.4 9.7 1.5 14.6 1.9 3.1 0.4 6.1 0.5 9.3 0.5 7.2 0 14.1-0.9 20.8-2.6 14.1-3.7 23.8-13.3 29.7-26 6.6-14.3 11.7-29.3 18.2-43.5 3.7-8.3 2.9-15.1-0.4-23.1-38.7-94.7-77.2-189.5-115.5-284.2-1.5-3.8-2.7-7.8-3.7-11.9-1-4.9 1.4-8.8 6.3-8.8 15-0.2 29.9 0 44.7 0.2 6.2 0 10.3 3.7 12.5 9.4 4.1 10.9 8.4 21.9 12.3 33 25.2 69.9 50.4 139.6 75.6 209.4z" />
  </svg>
