<svg height="1000" width="875" xmlns="http://www.w3.org/2000/svg"><path d="M468.9 62.5c-120.9 0 -256.8 33 -359.7 108.2 -10 6.1 -17.8 18 -14.1 37.9 2.2 10 10 53.5 19.9 77.3 8 20 27.8 20 39.7 12 63.5 -43.6 188.5 -93.2 297.4 -93.2 113.1 0 115.1 55.5 115.1 142.8v75.2c-170.7 22 -414.5 67.5 -476 93.3C21.9 547.9 31.8 698.6 31.8 734.4s29.7 203.1 244 203.1c93.3 0 222.1 -40.4 299.4 -82.2v49.6c0 5.8 4.1 16 11.9 17.8 6.1 1.9 99 3.9 117 3.9s122.1 .5 129.9 -1.4c8 -2 9.9 -11.9 9.9 -17.8V328.1C843.8 171.3 730.9 62.5 468.9 62.5zm-171.6 640c0 -23.8 -5.9 -83.4 35.7 -103.3 47.5 -25.8 146.7 -57.4 234 -65.4v208.4c-41.8 25.8 -95.1 47.6 -154.5 47.6 -103.1 0 -115 -65.4 -115.2 -87.3"/></svg>