
  <svg height="1000" width="875.0" xmlns="http://www.w3.org/2000/svg">
    <path d="m468.9 62.5c262 0 374.9 108.8 375 265.6v579.3c0 5.9-1.9 15.8-9.9 17.8-7.8 1.9-111.9 1.4-129.9 1.4s-110.9-2-117-3.9c-7.8-1.8-11.9-12-11.9-17.8v-49.6c-77.3 41.8-206.1 82.2-299.4 82.2-214.3 0-244-167.4-244-203.1s-9.9-186.5 59.4-218.4c61.5-25.8 305.3-71.3 476-93.3v-75.2c0-87.3-2-142.8-115.1-142.8-108.9 0-233.9 49.6-297.4 93.2-11.9 8-31.7 8-39.7-12-9.9-23.8-17.7-67.3-19.9-77.3-3.7-19.9 4.1-31.8 14.1-37.9 102.9-75.2 238.8-108.2 359.7-108.2z m98.1 679.7v-208.4c-87.3 8-186.5 39.6-234 65.4-41.6 19.9-35.7 79.5-35.7 103.3 0.2 21.9 12.1 87.3 115.2 87.3 59.4 0 112.7-21.8 154.5-47.6z" />
  </svg>
