
  <svg height="1000" width="1125.0" xmlns="http://www.w3.org/2000/svg">
    <path d="m821.4 589.7c-25.9 0-46.9-21-46.9-46.9s21-46.8 46.9-46.8 46.9 21 46.9 46.8-21 46.9-46.9 46.9z m-517.8 0c-25.9 0-46.9-21-46.9-46.9s21-46.8 46.9-46.8 46.9 21 46.9 46.8-21 46.9-46.9 46.9z m534.6-282.2l93.6-162.1c2.1-3.1 3.3-6.8 3.3-10.9 0-10.7-8.7-19.5-19.5-19.5-7.7 0-14.3 4.4-17.5 10.9v0l-94.8 164.2c-73.4-32.9-154.7-51.2-240.3-51.2-85.6 0-167.9 18.3-241.3 51.2l-94.8-164.2c-3.2-6.5-9.8-10.9-17.5-10.9-10.8 0-19.5 8.7-19.5 19.5 0 4 1.2 7.8 3.3 10.9v0l93.6 162.1c-160.8 87.5-270.7 250.2-286.8 442.5h1125c-16.1-192.3-126.1-355-286.8-442.5z" />
  </svg>
