<svg height="1000" width="875" xmlns="http://www.w3.org/2000/svg"><path d="M175 399.4v226.2c0 30.1 -23.6 54.1 -53.7 54.1 -29.9 0 -58.8 -24.2 -58.8 -54.1V399.4c0 -29.5 28.9 -53.7 58.8 -53.7 29.5 0 53.7 24.2 53.7 53.7zm21.1 306.7c0 32 25.8 57.8 57.8 57.8h38.9l.6 119.3c0 72.1 107.8 71.5 107.8 0V763.9h72.6v119.3c0 71.7 108.4 71.9 108.4 0V763.9h39.5c31.6 0 57.4 -25.8 57.4 -57.8V355.7h-483v350.4zM680.5 336.7H193.9c0 -83.6 50 -156.2 124.3 -194.1l-37.3 -69c-5.5 -9.5 8.4 -15.6 13 -7.4l37.9 69.5c68.2 -30.2 146.5 -28.7 211.6 0l37.7 -69.3c4.8 -8.4 18.5 -2.1 13 7.4l-37.3 68.8c73.7 37.9 123.7 110.5 123.7 194.1zM347.1 228.3c0 -11.1 -9 -20.5 -20.5 -20.5 -11.2 0 -20 9.4 -20 20.5s9 20.5 20 20.5c11.5 0 20.5 -9.3 20.5 -20.5zm221.5 0c0 -11.1 -9 -20.5 -20 -20.5 -11.5 0 -20.5 9.4 -20.5 20.5s9 20.5 20.5 20.5c11 0 20 -9.3 20 -20.5zm185.1 117.4c-29.5 0 -53.7 23.6 -53.7 53.7v226.2c0 30.1 24.2 54.1 53.7 54.1 30.1 0 58.8 -24.2 58.8 -54.1V399.4c0 -30.1 -28.9 -53.7 -58.8 -53.7z"/></svg>