
  <svg height="1000" width="875.0" xmlns="http://www.w3.org/2000/svg">
    <path d="m677.9 420.7c93.8 22.9 107.3 98.8 107.3 183 0 223.3-143.4 396.3-373.9 396.3-187.9 0-321.5-149.2-321.3-290.2 0-72.5 27.8-120.5 99.8-140.1-6-16.2-15.6-40.6-15.6-58 0-45.9 48.7-102.7 94.4-102.7 13.4 0 26.7 3.9 39 8.4-24.2-68.8-91-247.5-91-316.4 0-56.3 28.5-101 89.3-101 78.1 0 166.8 281.2 185.7 336.9 24.4-61.3 102.5-318.5 189.7-318.5 54.6 0 85.3 43.5 85.3 95.5 0 58.9-65.8 243.1-88.7 306.8z m-69.1-209.8l-64.7 183 66.4 11.8c16.6-45.7 92-251.8 92-289.1 0-13.9-4.5-31.2-21.3-31.2-31.2 0-64.6 101.5-72.4 125.5z m-330.9-116.6c0 56.9 67.6 234.4 88.9 290.7 15-8.6 38.7-5.3 69.1-2.8l-67.5-195.9c-62.1-181.2-90.5-115.2-90.5-92z m-4.5 382.3c-15 0-39.6 26.1-39.8 41.2 0 40.6 109.4 190.8 150.2 190.8 11.1 0 20.7-12.3 20.7-22.3 0-25-73.8-209.7-131.1-209.7z m360 363.8c108-120.1 95.9-309.7 60.5-341.2-46.8-41.2-207-56.8-270.1-56.8-33.8 0-34 12.5-34 25.6 0 85.3 181.5 77.5 235.6 77.5 21.9 0 30.9 19.3 33 41.2-14.5 14.5-34.6 22.9-53.5 30.1-18.4 6.6-37.3 13.9-52.9 25.6-43 31.2-85.4 84.7-85.4 140 0 34.6 20.7 64.3 20.7 98.3 0 0.6-3.9 12.7-3.9 14.4-63.7-4.5-79.3-67.6-81.4-120.5-6.7 1.8-15.7 1.2-22.9 1.2 10 34.7-23.2 82-74.2 82-73.8 0-171.9-111.7-113.9-169.7 56.1 70.1 68.4 100.4 99.8 100.4 7.8 0 22.9-6.7 22.9-16.2 0-25-83.8-142.8-106.1-142.8-32.8 0-73.6 48.6-40.2 133.4 44.1 108.8 135.7 172.5 251.7 172.5 84.8 0 157.5-32.5 214.3-95z m-192.6-246.1c6.3 16.2 12.9 32.5 18.4 49.1 12.3-13.9 25.2-26.8 39.6-37.3-19.5-4-39-5.7-58-11.8z" />
  </svg>
