<svg height="1000" width="875" xmlns="http://www.w3.org/2000/svg"><path d="M677.9 420.7C700.8 357 766.6 172.9 766.6 113.9c0 -52 -30.7 -95.5 -85.3 -95.5C594.1 18.4 516 275.6 491.6 336.9 472.7 281.3 384 0 305.9 0c-60.8 0 -89.3 44.7 -89.3 101 0 68.9 66.8 247.6 91 316.4C295.3 412.9 282 409 268.6 409c-45.7 0 -94.4 56.8 -94.4 102.7 0 17.4 9.6 41.8 15.6 58C117.8 589.3 90 637.3 90 709.8c-.2 141 133.4 290.2 321.3 290.2 230.5 0 373.9 -173 373.9 -396.3 0 -84.2 -13.5 -160.1 -107.3 -183zM608.8 210.9c7.8 -24 41.2 -125.5 72.5 -125.5 16.7 0 21.2 17.3 21.2 31.2 0 37.3 -75.4 243.4 -92 289.1l-66.4 -11.8 64.7 -183zM277.9 94.3c0 -23.2 28.4 -89.2 90.5 92l67.5 195.9c-30.4 -2.5 -54.1 -5.8 -69.1 2.8C345.5 328.7 277.9 151.2 277.9 94.3zm-4.5 382.3c57.3 0 131.1 184.7 131.1 209.7 0 10 -9.6 22.3 -20.7 22.3C343 708.6 233.6 558.4 233.6 517.8c.2 -15.1 24.8 -41.2 39.8 -41.2zm360 363.8c-56.8 62.5 -129.5 95 -214.3 95 -116 0 -207.6 -63.7 -251.7 -172.5C134 678.1 174.8 629.5 207.6 629.5c22.3 0 106.1 117.8 106.1 142.8 0 9.5 -15.1 16.2 -22.9 16.2 -31.4 0 -43.7 -30.3 -99.8 -100.4 -58 58 40.1 169.7 113.9 169.7 51 0 84.2 -47.3 74.2 -82 7.2 0 16.2 .6 22.9 -1.2 2.1 52.9 17.7 116 81.4 120.5 0 -1.7 3.9 -13.8 3.9 -14.4 0 -34 -20.7 -63.7 -20.7 -98.3 0 -55.3 42.4 -108.8 85.4 -140 15.6 -11.7 34.5 -19 52.9 -25.6 18.9 -7.2 39 -15.6 53.5 -30.1 -2.1 -21.9 -11.1 -41.2 -33 -41.2 -54.1 0 -235.6 7.8 -235.6 -77.5 0 -13.1 .2 -25.6 34 -25.6 63.1 0 223.3 15.6 270.1 56.8 35.4 31.5 47.5 221.1 -60.5 341.2zM440.8 594.3c19 6.1 38.5 7.8 58 11.8 -14.4 10.5 -27.3 23.4 -39.6 37.3 -5.5 -16.6 -12.1 -32.9 -18.4 -49.1z"/></svg>