
  <svg height="1000" width="1250.0" xmlns="http://www.w3.org/2000/svg">
    <path d="m1250 465.2l-6.3 55.1-67.3 4.5-3.9 35.4 67.3-4.5-6.2 55-67.2 4.3-4.5 39.3 67.2-4.3-5.9 51-126.3 8 24.8-221.1-92.4 225.4-62.3 3.9-46.5-230.1 59.2-3.9 26.6 155.1 61.9-161z m-416.4 260.4l25-234.4 55.5-3.7-25.2 234.6z m-517.2 32.4l-37.9-70.3-6.8 73-55.1 3.4 5.3-56.9c-21.5 35.2-62.5 67-111.2 69.9-64 4-116.6-40.8-110.1-113.6 5.1-57.2 52.1-122.7 131.8-127.8 73.7-4.6 93 45.4 100.2 56.3l5.5-60.2 76-4.8c39.2-2.6 75.5 7.2 83 46.2l5-51.9 126.6-8.2-5.3 54.5-71.1 4.7-3.3 34.9 71.1-4.5-5.3 54.5-71 4.5-3.8 38.9 70.9-4.5-4.1 40.6 107.5-228.9 46.4-3.1 62.7 216 17.4-167.2-43.5 2.8 5.6-54.5 146.5-9.6-5.8 54.7-47.5 3.1-19 179.5-113.2 7.2-8.4-30.4-77 4.8-15.6 31.9z m-86.5-137.1l-51.6 3.3c-13.1-24.2-28.1-32.4-51.3-30.8-37.2 2.3-65.1 34.1-67.6 65-2.8 31.2 14.2 63.5 56 60.9 25-1.5 41.6-16.8 56.5-36.9l52.7-3.3z m109.6-15c2.3-25.2-14.9-26.6-51-24.3l-5.3 55.7c27.7-1.8 53.7-4.1 56.3-31.4z m41.2 138.2l11.3-117.1c-9.8 26.3-28.7 41.2-54.5 51.9z m264.4-87.8l-15.4-73.9-30.9 76.8z m-332.2-145.8l-8.4-34.1-77.4 5-15.8 35.6-62.3 4.1 111.4-238.1 46.6-3.1 60 199.2 19.3-204.5 52.8-3.5 73.8 124.2 12.7-130.1 55.6-3.7-7.8 80.5c14.5-26.4 44.8-87.3 124.3-92.8 79.1-5.4 102.3 57.2 104.3 59.2l6.4-62.5 76.8-5.3c24.8-1.7 54.3 0.6 70.9 19l-8.6-23.3 62.9-4.3 25.1 84.4 45-89.3 60.5-4.2-85.1 153.1-9.4 86.5-55.5 3.7 9.4-86.5-30.9-84c2 43.6-17.9 78.3-62.5 96.9l49.2 75.8-71 4.6-37.5-71.8-7.9 74.8-55.4 3.7 6.4-61.5c-13.1 18.1-38.5 69.1-116.4 74.2-51.2 3.3-89-20.1-108.2-76.6l-7.8 78.7-48.8 3.2-73.5-123.7-12.3 129.3z m540.2-160.3c19.9-1.4 34.2-4.1 42.2-8.4 8.8-4.7 13.7-12.5 14.9-23.6 1.1-10.4-1.2-17.2-6.7-20.3-7-4.1-20.7-5.5-44.7-4z m-213.1 67.8c11 11.5 24.8 16.6 41.6 15.4 9.2-0.6 17.8-3.5 26-8 10.8-5.9 20.7-15.6 29.5-27.9l-66.8 4.5 4.7-46.7 123.2-8.4 2.4-23.5-61 4.1c-8-7.2-15.2-12.9-21.6-15.8-7.8-3.3-15.9-5.5-23.9-4.9-15.6 1-29.8 7.1-42.9 18-15.1 12.5-23.5 28.3-25.2 47.7-2.2 18.7 2.7 33.8 14 45.5z m-393.1 16l46.5-3.1-16.3-73.5z" />
  </svg>
