
  <svg height="1000" width="1000.0" xmlns="http://www.w3.org/2000/svg">
    <path d="m499.8 236.1l17.8-30.6c10.9-19.2 35.3-25.6 54.5-14.7 19.1 11 25.6 35.4 14.6 54.5l-170.9 295.9h123.7c40 0 62.5 47.1 45.1 79.7h-362.3c-22.1 0-39.9-17.8-39.9-39.8s17.8-39.9 39.9-39.9h101.5l130.1-225.4-40.6-70.5c-11-19.1-4.5-43.3 14.6-54.5 19.2-10.9 43.4-4.5 54.5 14.7z m-153.7 425.8l-38.3 66.4c-10.9 19.2-35.3 25.6-54.5 14.7-19.1-11-25.6-35.4-14.6-54.5l28.5-49.2c32-10 58.2-2.4 78.9 22.6z m329.9-120.5h103.7c22.1 0 39.8 17.8 39.8 39.8 0 22.1-17.7 39.9-39.8 39.9h-57.6l38.8 67.4c11 19.1 4.5 43.3-14.6 54.5-19.2 10.9-43.4 4.5-54.5-14.7-65.4-113.5-114.7-198.4-147.3-255.1-33.4-57.6-9.5-115.4 14.1-134.9 26.2 44.9 65.2 112.7 117.4 203.1z m-176-525.8c267.6 0 484.4 216.8 484.4 484.4s-216.8 484.4-484.4 484.4-484.4-216.8-484.4-484.4 216.8-484.4 484.4-484.4z m421.9 484.4c0-234.2-190.1-421.9-421.9-421.9-234.2 0-421.9 190.1-421.9 421.9 0 234.2 190.1 421.9 421.9 421.9 234.2 0 421.9-190.1 421.9-421.9z" />
  </svg>
