<svg height="1000" width="875" xmlns="http://www.w3.org/2000/svg"><path d="M781.3 62.5H93.8C42 62.5 0 104.5 0 156.3v687.5c0 51.7 42 93.7 93.8 93.7h687.5c51.7 0 93.7 -42 93.7 -93.7V156.3c0 -51.8 -42 -93.8 -93.7 -93.8zM248 751c-10.7 18.7 -34.7 25 -53.3 14.2 -18.7 -10.7 -25 -34.7 -14.2 -53.3l27.9 -48.2c31.4 -9.6 57.2 -2.2 77.3 22.2L248 751zM519.3 645.7H164.1c-21.5 0 -39.1 -17.6 -39.1 -39.1s17.6 -39 39.1 -39h99.6L391.4 346.5l-40 -69.2c-10.8 -18.7 -4.3 -42.5 14.2 -53.3 18.8 -10.7 42.6 -4.3 53.3 14.3l17.4 30.1 17.4 -30.1c10.8 -18.8 34.8 -25 53.3 -14.3 18.8 10.8 25 34.8 14.3 53.3L353.7 567.6H475c39.5 0 61.5 46.3 44.3 78.1zm191.6 0h-56.6l38.3 66.2c10.7 18.8 4.3 42.6 -14.3 53.3C659.6 776 635.7 769.5 625 751 560.7 639.8 512.7 556.3 480.5 500.8c-32.6 -56.7 -9.4 -113.3 13.8 -132.4 25.6 44.3 63.9 110.7 115.1 199.2h101.5c21.5 0 39.1 17.6 39.1 39 0 21.7 -17.6 39.1 -39.1 39.1z"/></svg>