<svg height="1000" width="1000" xmlns="http://www.w3.org/2000/svg"><path d="M499.8 236.1l17.8 -30.6c10.9 -19.2 35.3 -25.6 54.5 -14.7 19.1 11 25.6 35.4 14.6 54.5L415.8 541.2h123.7c40 0 62.5 47.1 45.1 79.7H222.3c-22.1 0 -39.9 -17.8 -39.9 -39.8 0 -22.1 17.8 -39.9 39.9 -39.9h101.5L453.9 315.8l-40.6 -70.5c-11 -19.1 -4.5 -43.3 14.6 -54.5 19.2 -10.9 43.4 -4.5 54.5 14.7l17.4 30.6zM346.1 661.9l-38.3 66.4c-10.9 19.2 -35.3 25.6 -54.5 14.7 -19.1 -11 -25.6 -35.4 -14.6 -54.5l28.5 -49.2c32 -10 58.2 -2.4 78.9 22.6zM676 541.4h103.7c22.1 0 39.8 17.8 39.8 39.9 0 22 -17.7 39.8 -39.8 39.8h-57.6l38.8 67.4c11 19.1 4.5 43.3 -14.6 54.5 -19.2 10.9 -43.4 4.5 -54.5 -14.7C626.4 614.8 577.1 529.9 544.5 473.2 511.1 415.6 535 357.8 558.6 338.3 584.8 383.2 623.8 451 676 541.4zM500 15.6C232.4 15.6 15.6 232.4 15.6 500S232.4 984.4 500 984.4 984.4 767.6 984.4 500 767.6 15.6 500 15.6zM921.9 500c0 231.8 -187.7 421.9 -421.9 421.9C268.2 921.9 78.1 734.2 78.1 500 78.1 268.2 265.8 78.1 500 78.1c231.8 0 421.9 187.7 421.9 421.9z"/></svg>