
  <svg height="1000" width="875.0" xmlns="http://www.w3.org/2000/svg">
    <path d="m781.3 62.5c51.7 0 93.7 42 93.7 93.8v687.5c0 51.7-42 93.7-93.7 93.7h-687.5c-51.8 0-93.8-42-93.8-93.7v-687.5c0-51.8 42-93.8 93.8-93.8h687.5z m-533.3 688.5l37.7-65.1c-20.1-24.4-45.9-31.8-77.3-22.2l-27.9 48.2c-10.8 18.6-4.5 42.6 14.2 53.3 18.6 10.8 42.6 4.5 53.3-14.2z m271.3-105.3c17.2-31.8-4.8-78.1-44.3-78.1h-121.3l167.6-290.3c10.7-18.5 4.5-42.5-14.3-53.3-18.5-10.7-42.5-4.5-53.3 14.3l-17.4 30.1-17.4-30.1c-10.7-18.6-34.5-25-53.3-14.3-18.5 10.8-25 34.6-14.2 53.3l40 69.2-127.7 221.1h-99.6c-21.5 0-39.1 17.6-39.1 39s17.6 39.1 39.1 39.1h355.2z m191.6 0c21.5 0 39.1-17.4 39.1-39.1 0-21.4-17.6-39-39.1-39h-101.5c-51.2-88.5-89.5-154.9-115.1-199.2-23.2 19.1-46.4 75.7-13.8 132.4 32.2 55.5 80.2 139 144.5 250.2 10.7 18.5 34.6 25 53.3 14.2 18.6-10.7 25-34.5 14.3-53.3l-38.3-66.2h56.6z" />
  </svg>
