
  <svg height="1000" width="1250.0" xmlns="http://www.w3.org/2000/svg">
    <path d="m82.2 467c43.4 0 56.7 5.5 65.5 28.5h1.5v-44.7c0-22.1-9.4-30.1-34.9-30.1-22.1 0-28.2 4.9-29.5 25h-75.4c0.6-27.1 2.9-37.3 11.3-47.7 14.3-17.1 36.9-23 90-23 64.5 0 92 9.8 105.3 36.9 3.9 8.4 7.8 30.5 7.8 46.3v149h-74.8l2.6-37.3h-2c-10.3 30.5-26.6 39.9-69.3 39.9-59.2 0-80.3-19.8-80.3-72.9 0-49.2 24-69.9 82.2-69.9z m33.4 93.9c25.6 0 33-5.8 33-26.1 0-17.8-8.4-22.7-38.2-22.7-25.6 0-35 5.9-35 23.6-0.2 20.4 7.2 25.2 40.2 25.2z m152-185.3h74.8l-2.9 40.2h1.5c17.8-33.4 31.1-40.8 73.3-40.8 28.1 0 48.2 5.9 61.5 17.8 19.1 16.8 25 39.8 25 93.9 0 58.6-5.9 84.2-23.7 103.3-13.2 14.3-32 19.8-64.8 19.8-39.8 0-57-10.8-66-41.4h-1.6v137.3h-77.1v-330.1z m158 118.5c0-53.7-6.5-63.4-40.4-63.4-33.1 0-40.5 9.7-40.5 56 0 54.7 6.9 65.4 41.4 65.4 32.1 0 39.5-10.9 39.5-58z m113.1-118.5h74.8l-3 40.2h1.6c17.8-33.4 31.1-40.8 73.3-40.8 28.1 0 48.2 5.9 61.5 17.8 19.1 16.8 25 39.8 25 93.9 0 58.6-5.9 84.2-23.7 103.3-13.2 14.3-32 19.8-65 19.8-39.8 0-57-10.8-66-41.4h-1.6v137.3h-77.1v-330.1h0.2z m158 118.5c0-53.7-6.5-63.4-40.5-63.4-33 0-40.4 9.7-40.4 56 0 54.7 6.9 65.4 41.4 65.4 32.1 0 39.5-10.9 39.5-58z m105.1-7.4c0-49.6 6.4-73.8 24-89.4 17.2-15.9 43.3-22.1 88.1-22.1 83.6 0 108.8 25 108.8 108.8v21.7h-147.1c-0.6 3.9-0.6 7.8-0.6 9.3 0 33 8.8 42.8 39.3 42.8 27.1 0 34.9-5.8 34.9-27.1h73.3v4.5c0 19.1-4.9 36.9-13.3 48.2-14.3 19.1-38.3 26.6-86.5 26.6-53.8 0-81.3-6.5-98.9-24.1-16.6-16.6-22-41.6-22-99.2z m149.2-22.6c-0.6-3.6-0.6-6.5-0.6-7.5 0-24-6.5-28.5-38.3-28.5-28.1 0-33.4 5.9-35.3 29.5l-0.6 6.5h74.8z m108.6-88.5h74.8l-3.5 38.9h1.3c13.3-29.1 28.2-39.5 58-39.5 21.1 0 37.3 6.4 45.7 18.2 10.4 14.2 13.3 28.1 13.3 66.4 0 2.9 0 9.7 0.4 18.1h-68.4c0.6-3.5 0.6-6.4 0.6-7.8 0-30.1-3.9-37.9-20.1-37.9-12.3 0-21.1 6.5-25.6 18.2-1.9 5.9-1.9 8.4-1.9 24v132.8h-74.8v-231.4h0.2z" />
  </svg>
