<svg height="1000" width="1250" xmlns="http://www.w3.org/2000/svg"><path d="M228.3 309.6c-14.6 17.4 -38.1 31 -61.5 29.1 -2.9 -23.5 8.6 -48.5 22.1 -63.7 14.6 -17.8 40.2 -30.5 61.1 -31.4 2.3 24.2 -7.2 48.2 -21.7 66m21.3 33.6c-34 -2 -63.1 19.3 -79.1 19.3 -16.4 0 -41 -18.4 -68 -17.8 -34.9 .6 -67.3 20.3 -85.1 51.8 -36.7 63.1 -9.6 156.2 26 207.6 17.3 25.4 38 53.3 65.4 52.3 26 -.9 36.1 -16.8 67.4 -16.8 31.4 0 40.6 16.8 67.9 16.5 28.4 -.6 46.1 -25.4 63.5 -50.8 19.7 -28.9 27.9 -56.9 28.3 -58.4 -.5 -.6 -54.6 -21.3 -55.2 -83.8 -.6 -52.4 42.7 -77.2 44.7 -78.7C301 348 262.9 344.1 249.6 343.2m196.1 -70.7v380.6h59.2V523h81.8c74.8 0 127.2 -51.3 127.2 -125.5s-51.6 -125 -125.2 -125h-143zm59.2 49.8H573c51.4 0 80.7 27.3 80.7 75.4s-29.3 75.7 -80.8 75.7h-68V322.3zm316.8 333.8c37.1 0 71.5 -18.8 87.1 -48.7h1.2v45.7h54.6V463.7c0 -54.9 -43.9 -90.5 -111.5 -90.5 -62.7 0 -109.2 36 -110.9 85.2h53.3c4.5 -23.4 26.2 -38.9 55.9 -38.9 36.1 0 56.4 16.8 56.4 47.9v21.1L834 493c-68.6 4.1 -105.7 32.2 -105.7 81 .2 49.2 38.5 82.1 93.4 82.1zm16 -45.2c-31.4 0 -51.6 -15.2 -51.6 -38.2 0 -24.1 19.4 -37.9 56.3 -40.1l65.6 -4.1V550c0 35.5 -30.3 60.9 -70.3 60.9zm200.2 145.7c57.6 0 84.8 -22 108.4 -88.6L1250 377h-60.2l-69.5 224.8h-1.2L1049.6 377h-61.7l100 277.1 -5.5 16.8c-9 28.5 -23.6 39.6 -49.8 39.6 -4.7 0 -13.7 -.5 -17.4 -.9v45.7c3.6 .8 18.2 1.3 22.7 1.3z"/></svg>