<svg height="1000" width="735.4" xmlns="http://www.w3.org/2000/svg"><path d="M614.6 524.8c-.3 -71.7 32.1 -125.8 97.7 -165.6C675.6 306.6 620.1 277.7 546.9 272.1 477.5 266.6 401.8 312.5 374 312.5 344.7 312.5 277.5 274 224.8 274 115.8 275.8 0 360.9 0 534.2c0 51.2 9.4 104.1 28.1 158.6 25 71.7 115.3 247.4 209.4 244.5 49.2 -1.2 84 -35 148 -35 62.2 0 94.4 35 149.3 35 94.9 -1.4 176.5 -161.1 200.4 -233C607.8 644.3 614.6 528.5 614.6 524.8zM504.1 204.1C557.4 140.8 552.5 83.2 551 62.5c-47.1 2.7 -101.6 32 -132.6 68.2 -34.2 38.6 -54.3 86.5 -50 140.4 50.9 3.9 97.4 -22.3 135.7 -67z"/></svg>