<svg height="1000" width="1125" xmlns="http://www.w3.org/2000/svg"><path d="M1010.7 603.9c75.8 -78.1 113.5 -156.2 114.3 -226.8C1126.6 249.2 1009 146.3 794.1 113.5 542.8 75 230.7 143.8 0 274.4 101.6 222.7 216 180.3 333.4 160.7c145.5 -40 298.8 -49.6 432.2 -28.9 297.9 46.5 384.4 249.1 193 452.6 -19.9 21.1 -43 41.2 -68.4 59.7L595.5 202 224 759.6C95.9 702.1 74.6 583.4 186.7 464.3 227.3 420.9 281.1 382.4 342 350.8c39.1 -23.8 77.5 -44.2 121.1 -60C335.9 330.5 223.4 394.1 147.5 472.3 93.4 528.1 66.6 583.8 66 634.2c-1 68.5 45.7 127.1 133.6 162.1l-67.4 101h198.5l42.9 -67.2c43.4 1.9 88.5 0 134 -5.3l-44.5 72.5h264.6L664.1 793.6c36.3 -10.4 72 -22.5 106.4 -36.6l89.7 140.3h198.4L915.2 681.6c36.2 -23.6 68.4 -49.8 95.5 -77.7zM644.3 761.1l-48.8 -79.3 -63.9 104.1c-45.7 6.9 -91.2 10 -135.1 8.6l199 -311.1 153.7 240.2c-33.6 14.5 -68.9 27.2 -104.9 37.5z"/></svg>