
  <svg height="1000" width="1125.0" xmlns="http://www.w3.org/2000/svg">
    <path d="m1010.7 603.9c-27.1 27.9-59.3 54.1-95.5 77.7l143.4 215.7h-198.4l-89.7-140.3c-34.4 14.1-70.1 26.2-106.4 36.6l63.6 103.7h-264.6l44.5-72.5c-45.5 5.3-90.6 7.2-134 5.3l-42.9 67.2h-198.5l67.4-101c-87.9-35-134.6-93.6-133.6-162.1 0.6-50.4 27.4-106.1 81.5-161.9 75.9-78.2 188.4-141.8 315.6-181.5-43.6 15.8-82 36.2-121.1 60-60.9 31.6-114.7 70.1-155.3 113.5-112.1 119.1-90.8 237.8 37.3 295.3l371.5-557.6 294.7 442.1c25.4-18.5 48.5-38.6 68.4-59.7 191.4-203.5 104.9-406.1-193-452.6-133.4-20.7-286.7-11.1-432.2 28.9-117.4 19.6-231.8 62-333.4 113.7 230.7-130.7 542.8-199.4 794.1-160.9 214.9 32.8 332.5 135.7 330.9 263.6-0.8 70.6-38.5 148.7-114.3 226.8z m-366.4 157.2c36-10.3 71.3-23 104.9-37.5l-153.7-240.2-199 311.1c43.9 1.4 89.4-1.7 135.1-8.6l63.9-104.1z" />
  </svg>
