
  <svg height="1000" width="1250.0" xmlns="http://www.w3.org/2000/svg">
    <path d="m1250 390.4v105.5l-625 390.6-625-390.4v-105.5l625 390.7z m-379.9 140.7c-138.3-184.4-391.6-216.3-566.8-70.9-5.1 4.3-10.1 8.5-15 13h-0.6c72.5-108.7 196.5-180.4 337.1-180.4s264.7 71.8 337.3 180.8z m-429.9 36.7c41.1-57.8 108.4-95.7 184.4-95.7 76.6 0 144.3 38.3 185.2 96.7l-88.7 55.4c-41.4-57-101.6-93-168.8-93-40.8 0-79.1 13.3-112.1 36.6z m-237.9-253.2c-22.4 17.8-47.4 43.2-66.8 63.7 105.3-160.3 287.2-264.8 489.3-264.8 204.9 0 385.2 105.4 489.7 265l-95.4 59.4-1.3-2c-194-270.5-558-325-815.5-121.3z m912.2 63.9z" />
  </svg>
