<svg height="1000" width="1250" xmlns="http://www.w3.org/2000/svg"><path d="M1250 390.4v105.5L625 886.5 0 496.1V390.6l625 390.7 625 -390.9zM870.1 531.1l92 -57.5C889.5 364.6 765.4 292.8 624.8 292.8c-140.6 0 -264.6 71.7 -337.1 180.4h.6c4.9 -4.4 9.9 -8.7 15 -13C478.5 314.8 731.8 346.7 870.1 531.1zm-429.9 36.7c33 -23.3 71.3 -36.5 112.1 -36.5 67.2 0 127.4 35.9 168.8 92.9l88.7 -55.4C768.9 510.4 701.2 472.1 624.6 472.1c-76 0 -143.3 37.9 -184.4 95.7zM202.3 314.6C459.8 110.9 823.8 165.4 1017.8 435.9l1.3 2 95.4 -59.4C1010 218.9 829.7 113.5 624.8 113.5c-202.1 0 -384 104.5 -489.3 264.8 19.4 -20.5 44.4 -45.9 66.8 -63.7zm912.2 63.9z"/></svg>