<svg height="1000" width="1250" xmlns="http://www.w3.org/2000/svg"><path d="M209.4 553.7l-37.1 -81.6H70.5l-37.1 81.6H0L121.5 297.1 243 553.7h-33.6zM121.5 362.1l-38.3 83h76.6l-38.3 -83zm220.1 200L220.1 305.5h33.4L341.6 493l88.1 -187.5h33.2L341.6 562.1zM499 553.7V305.5h30.3v248.2H499zM907.4 327.9v225.8h-33.8V327.9h-80.4v-22.4h194.5v22.4h-80.3zm342.6 99.4c0 18 -3.3 34.8 -10 50.4 -6.6 15.7 -16 29.5 -27.7 41.2 -11.7 11.8 -25.6 21.1 -41.2 27.8 -15.6 6.6 -32.4 9.9 -50.4 9.9s-34.8 -3.3 -50.4 -9.9c-15.6 -6.7 -29.5 -16 -41.2 -27.8 -11.7 -11.7 -21.1 -25.3 -27.7 -41.2 -6.7 -15.6 -10 -32.4 -10 -50.4s3.3 -34.7 10 -50.3c6.6 -15.7 16 -29.5 27.7 -41.3 11.7 -11.7 25.4 -16.4 41.2 -23.2 15.6 -6.6 32.4 -10 50.4 -10s34.8 3.4 50.4 10c15.6 6.6 29.5 11.3 41.2 23.2 11.7 11.8 20.9 25.6 27.7 41.3 6.7 15.6 10 32.4 10 50.3zm-30.3 0c0 -14.2 -2.5 -27.3 -7.6 -39.6S1200 364.8 1191 355.9c-9 -9 -19.5 -16.1 -31.6 -21.3 -12.1 -5.3 -25 -7.8 -38.7 -7.8s-26.6 2.5 -38.7 7.8c-12.1 5.2 -22.6 12.3 -31.6 21.3 -9 8.9 -16 19.5 -21.1 31.8 -5.1 12.3 -7.6 25.6 -7.6 39.6 0 14.3 2.5 27.4 7.6 39.7 5.1 12.3 12.1 22.8 21.1 31.8 9 9 19.5 16 31.6 21.3 12.1 5.3 25 7.8 38.7 7.8s26.6 -2.5 38.7 -7.8c12.1 -5.3 22.6 -12.3 31.6 -21.3s16 -19.5 21.1 -31.8c5.1 -12.3 7.6 -25.6 7.6 -39.7zm-185.1 188.9v-12.3l173.6 -19.5 -474.4 26.1c1.2 -4.2 2.1 -8.9 2.7 -14 .6 -3.9 1 -8.2 1.2 -12.7L864.3 568l-126.8 3.7c0 -.8 -.2 -1.4 -.2 -2.2 -5.5 -33.6 -49.8 -46.3 -49.8 -46.3l-2.1 -51.3h46.4l37.1 81.6h33.4L680.9 296.9 559.4 553.5h33.4l37.1 -81.6H676l-2.2 51.5s-44.3 12.7 -49.8 46.3c-.2 .6 -.2 1.4 -.2 2.2l-126.7 -3.7L623.6 584c.2 4.5 .6 8.6 1.2 12.7 .6 5.1 1.6 9.7 2.7 14L153.1 584.4l173.7 19.5v12.3c-11.6 1.8 -20.5 11.7 -20.5 23.8 0 13.3 10.9 24.3 24.2 24.3 13.3 0 24.2 -11 24.2 -24.3 0 -12.1 -9 -22 -20.5 -23.8v-11.3L491 622.5V633c-11.1 2.2 -19.3 12.1 -19.3 23.6 0 13.3 10.9 20 24.2 20 13.3 0 24.2 -6.7 24.2 -20 0 -11.7 -8.4 -21.4 -19.3 -23.6v-9.6l55.5 6.3V676h-11.6v27.1h11.6v-12.9h9.7v12.9h11.5v-26.9H566v-45.3l74.8 8.4c15.8 22.2 37.1 26.5 37.1 26.5l-.2 13.1 -9.9 .4 -.2 23.6h8l.2 -9.7h10.1l.2 9.7h8l-.2 -23.6 -9.9 -.4 -.2 -13.1s21.3 -4.1 37.1 -26.5l74.8 -8.4v45.3h-11.5v26.9h11.5v-12.9h9.8v12.9H817v-26.9h-11.5v-46.3l55.4 -6.3v9.6c-11.1 2.2 -19.3 12.1 -19.3 23.6 0 13.3 10.9 20 24.2 20 13.3 0 24.2 -6.7 24.2 -20 0 -11.7 -8.4 -21.4 -19.3 -23.6v-10.5l156.8 -17.6v11.3c-11.5 1.8 -20.5 11.7 -20.5 23.8 0 13.3 11 24.3 24.2 24.3 13.3 0 24.3 -11 24.3 -24.3 -.4 -12.3 -9.2 -22.2 -20.9 -24zM642.4 445.1l38.3 -83 38.2 83H684l-3.3 -78.7 -3.4 78.7h-34.9z"/></svg>