<svg height="1000" width="1000" xmlns="http://www.w3.org/2000/svg"><path d="M885 62.5H275.6c-76 0 -148.8 60.9 -162.7 136.1L2.3 801.4C-11.5 876.6 38.9 937.5 115 937.5h609.4c76 0 148.8 -60.9 162.7 -136.1L997.9 198.8C1011.5 123.4 961.1 62.5 885 62.5zM771.3 740.8l-62.5 26.4L483.4 552.3c-28.7 19.6 -57 38.1 -81.4 53l43.1 125.4 -34.9 24.8L330.9 636.3 228.5 542.4l30.7 -30.1L372.5 573c18.1 -20.5 40.6 -44.1 64 -68.1l-40 -57.8 -134.4 -195 36.7 -56.4 17.4 -9.4 201.4 219.6 9.5 8.7c37.9 -36.7 66.1 -63.2 66.1 -63.2 15 -12.7 42 -5.7 59.9 15.4 17.6 20.5 20.7 48.2 5.3 61.1 -3.5 2.6 -30.3 22.3 -68.9 50l8.7 14.3 185.4 233.2 -12.3 15.4z"/></svg>