
  <svg height="1000" width="1000.0" xmlns="http://www.w3.org/2000/svg">
    <path d="m885 62.5c76.1 0 126.5 60.9 112.9 136.3l-110.8 602.6c-13.9 75.2-86.7 136.1-162.7 136.1h-609.4c-76.1 0-126.5-60.9-112.7-136.1l110.6-602.8c13.9-75.2 86.7-136.1 162.7-136.1h609.4z m-113.7 678.3l12.3-15.4-185.4-233.2-8.7-14.3c38.6-27.7 65.4-47.4 68.9-50 15.4-12.9 12.3-40.6-5.3-61.1-17.9-21.1-44.9-28.1-59.9-15.4 0 0-28.2 26.5-66.1 63.2l-9.5-8.7-201.4-219.6-17.4 9.4-36.7 56.4 134.4 195 40 57.8c-23.4 24-45.9 47.6-64 68.1l-113.3-60.7-30.7 30.1 102.4 93.9 79.3 119.2 34.9-24.8-43.1-125.4c24.4-14.9 52.7-33.4 81.4-53l225.4 214.9z" />
  </svg>
