
  <svg height="1000" width="1250.0" xmlns="http://www.w3.org/2000/svg">
    <path d="m352.4 396.5c-1.4 44.2 20.7 63.8 21.2 76.3-0.5 5.2-3.6 9.7-8 12.2l-25 17.5c-3.1 2.2-6.9 3.6-11 3.8-0.8-0.1-16 3.5-40-50.1-28.1 35.2-71.4 57.7-119.9 57.7-0.8 0-1.5-0.1-2.4-0.1-31.8 1.7-117.9-18.1-113.5-109.8-3.1-74.8 66.5-121.2 138.5-117.3 13.9 0 42.2 0.7 91.8 12.2v-30.5c5.3-51.6-28.7-91.7-87.5-85.7-4.7 0-37.9-1-89.6 19.7-14.3 6.6-16.2 5.5-20.9 5.5-14.5 0-8.6-41.9-5.8-47.2 10.2-12.5 70.1-35.9 128.8-35.5 4.4-0.4 8.9-0.6 13.4-0.6 36.2 0 69.4 12.9 95.4 34.3 21.7 24.3 34.9 56.3 34.9 91.4 0 3.7-0.1 7.3-0.4 10.9z m-168.8 63.3c63.3-1 90.1-39 96.2-59.5 4.8-19.7 4-32.1 4-53.6-18.8-4.5-46-9.4-77.2-9.5-29.6-2.2-83.7 11-81.5 63-2.5 32.8 21.7 61.4 58.5 59.6z m333.8 45c-15.3 1.4-22.5-9.5-24.8-20.3l-97.2-321.6c-1.9-5.4-3.2-11-3.8-16.7 0-0.5-0.1-0.9-0.1-1.4 0-4.5 3.3-8.2 7.7-8.9 0.4 0-4.2 0 43.4 0 17.2-1.7 22.8 11.8 24.5 20.3l69.8 275 64.8-275c1-6.3 5.7-21.6 25-20h33.5c4.2-0.4 21.7-1 24.7 20.2l65.3 278.6 72-278.6c1-4.2 5.3-22.2 24.8-20.2h38.5c1.7-0.3 12-1.6 10.3 16.7-0.9 3.7 6.6-20.8-103.1 331.9-2.2 10.7-9.4 21.6-24.7 20.2h-36.5c-21.4 2.3-24.5-18.8-24.8-21l-64.8-267.8-64 267.6c-0.3 2.1-3.4 23.2-24.8 21h-35.7v0z m534.1 11c-11.4 0-66.2-0.6-112-24-9-3.8-15.3-12.7-15.3-23.1 0 0 0.1-0.1 0.1-0.2v-21c0-16.5 12.1-13.5 17.2-11.5 19.6 7.9 32.2 14 56.3 18.8 71.6 14.7 103-4.5 110.8-8.8 25.6-15.2 27.7-50.1 10.2-68.2-20.5-17.2-30.2-17.9-103.8-41.1-9-2.5-85.3-26.5-85.5-102.2-1.2-55.2 48.9-109.8 135.8-109.3 24.7 0 90.7 8.1 108.5 30.5 2.7 4.1 4 8.9 3.8 13.8v19.7c0 8.7-3.2 13-9.5 13-15.1-1.7-41.8-21.8-96-21-13.5-0.7-78 1.8-75.1 48.8-0.8 37 52 50.9 58 52.5 71.2 21.4 95.1 25 123.3 57.8 33.5 43.4 15.5 94.3 8.5 108.3-37.2 73.2-133.6 67.2-135.3 67.2z m78.6 204.8c-136.8 101-335.4 154.8-504.9 154.8-2.1 0-4.1 0-6.2 0-235.7 0-451-89.3-613.5-235.8-12.7-11.5-1.5-27.3 14-18.5 181.9 104 392.5 163.5 616.8 163.5 0.3 0 1.9 0.8 2.1 0.8 166.9-0.9 327-35.7 471.9-96.8 23-9.8 42.5 15.2 19.8 32z m57-65c-17.5-22.5-115.8-10.5-159.8-5.3-13.3 1.5-15.5-10-3.5-18.5 78.3-55 206.8-39.2 221.6-20.7 14.7 18.5-4.1 147.2-77.3 208.8-11.3 9.5-22 4.5-17-8 16.5-41.5 53.5-133.8 36-156.3z" />
  </svg>
