
  <svg height="1000" width="1000.0" xmlns="http://www.w3.org/2000/svg">
    <path d="m876.2 440.7c118.6 70.8 140.6 144.1 111.9 183-9.2 13.4-49.1 70.7-289 61.7-42.6 59.4-88.4 104.1-131.8 135.3 55.7 105.1 106.1 166.1 122.2 179.3 0 0-6.8-0.3-16.8-6.6-6.4-3.8-12.1-8.4-17.1-13.8-30.5-31.6-69.4-81.9-108.8-144.8-85.8 54.9-158.4 56.8-172.7 18.5-9.5-21.2 3-51.8 17.7-76.9-61.2 34.2-120.5 52.5-169.4 41.3-13.2-3-34.4-10.7-45.3-35.6-8.8-18.7-11.7-47.4-0.3-92.1 17.8-69 73.4-160.8 92.4-190.8 7.4 16.8-40.5-78.5-50.7-182.1-174.2 0-216 17.3-217.9 18.1 3-4.8 15.3-14.2 34.7-19 42.9-10.7 106.7-19.3 181.6-22-4.7-101.7 30-165.5 70.3-158.7h0.4c22.1 2.5 41.5 26.5 55.6 50.6 1.3-68.7 15.3-128 48.9-164.2 9.2-10 26.5-24.5 53.5-21.5h0.1c20.5 1.7 46.8 13.5 79.7 45.9 50 48.9 100.7 140.6 118.2 173.7 72.7 7.2 134.3 24.5 183.1 46.4 63.2-100.7 90.8-174.8 94.1-195.4 1.3 2.5 5.8 16.5-0.8 39.6-12.2 42.2-36.3 101-71 166.6 89.4 46.3 127.6 107.4 103.2 139.3-6.5 9.7-23.5 24.5-76 24.2z m-152.1 207.4c137.6-8.5 155.6-40.2 153.4-65.4-3.7-41.5-41.4-80.6-95.8-114.9 1.7 48-11.1 106.7-57.6 180.3z m-300.5 109.1c-37.2 59.5 18 77.3 97.3 34.6-13.7-23.6-27.2-48.6-40.2-74.6-18.9 14.4-38 27.8-57.1 40z m420-334.7c70.8 2.4 57.4-54.4-18.9-101.4-14.1 24.5-28.9 48.5-44.4 72 21.9 9.2 43.2 19 63.3 29.4z m-298.3 354.8c55.4-35.5 117.5-93.9 165.5-166.8 36.1-54.6 51.1-109.4 49.7-155.4-59.8-33.9-174.6-83.5-326.7-111.8 0.7-36.1 4.1-38.8 4.3-39.7 25.8 3.2 51.6 7.2 76.9 11.8 76.9 14.4 153.3 35.6 225.3 62-30.5-64.8-80.9-92.2-81.1-92.2 3.1-0.4 54.9 11.7 95.4 85.3 16.5-21.8 31.7-43 45.6-63.4-58.5-30.2-140.2-54.7-227.2-60-65.3-3.8-120.4 10.6-159.4 34.8 0.4 68.9 14.9 193.3 66.4 338.8-32.9 17.8-34.7 15.3-36.5 16.1-39.6-93.9-69.6-195.3-87.2-298.5-41.2 59.3-39.4 116.2-39.4 116.3-1.8-2.4-17.2-53.6 26.3-125.4-26.5-3.4-51.8-5.8-75.9-7.6 3.1 65.8 22.6 148.7 61.7 226.7 29 58 68.6 98.2 108.8 120.1 59.4-35 158.3-108.7 259.3-226.4 29.2 17.6 31.5 22.8 32.2 23.4-15.4 20.6-31.6 40.8-48.7 60.8-51 59.6-105.8 113.7-166.1 164 73.3 6.7 122.1-23.8 122.1-23.9-1.6 3.3-39.1 42.4-123.6 39.9 10.8 25.2 21.5 49 32.3 71.1z m53.5-560.5c-3.1-4.8-77.3-114.9-110.3-106.7-33-2.1-70.7 44.9-74.7 147.1 41.3-25.9 98-43.6 185-40.4z m-255.2 6.1c-7.4-13.1-16.9-24.4-28.2-26.6h-0.1c-48.5-2.7-48.4 103.2-48.2 96.9 26.6 0 54.4 0.8 82.8 2.5-3.2-24.8-5.4-49.2-6.3-72.8z m-54.8 316.4c-60.1 120.1-38.8 149.6-38.4 150 14.4 30.3 74.5 39.5 165.8-8.8-42.8-22.9-86.8-63.7-127.4-141.2z m410.3 146.1z" />
  </svg>
