
  <svg height="1000" width="875.0" xmlns="http://www.w3.org/2000/svg">
    <path d="m364.3 572.3c0 37.7-27.4 49.6-61 49.6h-88.1v-103.3h89.9c36.3 0.1 59.2 15.2 59.2 53.7z m-15.1-160.8c0 31.9-20.9 44.7-50.4 44.7h-83.4v-87.5h77.4c29.7 0 56.4 8.3 56.4 42.8z m258.4 45.3c37.5 0 56.3 21.9 59.6 58h-121.5c2.3-35.7 26.2-58 61.9-58z m267.4-300.5v687.5c0 51.7-42 93.7-93.7 93.7h-687.5c-51.8 0-93.8-42-93.8-93.7v-687.5c0-51.8 42-93.8 93.8-93.8h687.5c51.7 0 93.7 42 93.7 93.8z m-344.3 205h151.9v-36.9h-151.9v36.9z m-84 215.5c0-47.1-22.3-87.7-68.4-100.8 33.6-16 51.2-34.6 51.2-72.3 0-74.6-55.7-92.8-119.9-92.8h-176.8v375h181.8c68.2-0.4 132.1-33 132.1-109.1z m295.5-28.9c0-80.3-47.1-147.3-132-147.3-82.9 0-138.9 62.1-138.9 143.7 0 84.6 53.3 142.6 138.9 142.6 64.8 0 106.8-29.1 127.1-91.4h-65.8c-7.2 23.2-36.3 35.4-59 35.4-43.7 0-66.6-25.6-66.6-69h195.7c0.2-4.5 0.6-9.4 0.6-14z" />
  </svg>
