<svg height="1000" width="1125" xmlns="http://www.w3.org/2000/svg"><path d="M453.1 463.3c62.1 -29.7 94.6 -74.6 94.6 -144.5C547.7 180.9 444.9 147.3 326.4 147.3H0v692.2h335.5c125.8 0 244 -60.4 244 -201 0 -86.9 -41.2 -151.2 -126.4 -175.2zm-301 -197.9h142.8c54.9 0 104.3 15.5 104.3 79.1 0 58.8 -38.5 82.5 -92.8 82.5H152.1V265.4zm162.7 456.5H152.1V531.3H318c67 0 109.3 27.9 109.3 98.8 0 69.9 -50.5 91.8 -112.5 91.8zM1015 251.8H734.4v-68.2H1015v68.2zm110 344.3c0 -148.2 -86.7 -271.9 -243.9 -271.9 -152.8 0 -256.5 114.9 -256.5 265.3 0 156 98.3 263 256.5 263 119.7 0 197.2 -53.9 234.5 -168.5H994.1c-13 42.8 -67 65.4 -108.7 65.4 -80.7 0 -123.1 -47.3 -123.1 -127.5h361.5c.6 -8.2 1.2 -17 1.2 -25.8zM762.5 535.2C767 469.3 810.7 428.1 876.8 428.1c69.1 0 103.9 40.7 109.7 107.1h-224z"/></svg>