<svg height="1000" width="875" xmlns="http://www.w3.org/2000/svg"><path d="M812.5 62.5h-750C28.1 62.5 0 90.6 0 125v750c0 34.4 28.1 62.5 62.5 62.5h750c34.4 0 62.5 -28.1 62.5 -62.5V125C875 90.6 846.9 62.5 812.5 62.5zm-125 502.7c0 96.5 -22.3 161.4 -202.7 161.4h-33c-86.2 0 -121.9 -29.1 -137.5 -75.8h-1.8v68h-125V265.6h125v145.9h2.1c9 -59.5 77.6 -75.8 136.2 -75.8h33.8c180.4 0 202.7 64.7 202.7 161.2v68.3zm-125 -56.4v44.7c0 42.4 -6.6 66 -75 66H399c-56.4 0 -86.1 -12.7 -86.1 -69.7v-37.1c0 -57.2 29.7 -69.7 86.1 -69.7h88.5c68.4 -.4 75 23.4 75 65.8z"/></svg>