
  <svg height="1000" width="1000.0" xmlns="http://www.w3.org/2000/svg">
    <path d="m984.4 500c0 267.5-216.9 484.4-484.4 484.4s-484.4-216.9-484.4-484.4 216.9-484.4 484.4-484.4 484.4 216.9 484.4 484.4z m-276.7-69c9.7-64.5-39.4-99.1-106.5-122.2l21.7-87.3-53.1-13.3-21.2 85c-14-3.4-28.3-6.7-42.6-10l21.4-85.5-53.2-13.3-21.7 87.3c-11.6-2.6-23-5.3-34-8l0.1-0.3-73.3-18.3-14.2 56.8s39.5 9 38.6 9.6c21.6 5.4 25.5 19.6 24.8 30.9l-24.8 99.5c1.5 0.3 3.4 0.9 5.5 1.7-1.7-0.4-3.6-0.9-5.6-1.4l-34.7 139.4c-2.7 6.5-9.4 16.3-24.4 12.6 0.5 0.8-38.6-9.6-38.6-9.6l-26.4 60.8 69.1 17.2c12.9 3.3 25.5 6.6 37.9 9.8l-22 88.3 53.1 13.3 21.8-87.4c14 3.8 28.3 7.5 42.4 11l-21.7 86.9 53.1 13.3 22-88.2c90.6 17.2 158.8 10.3 187.5-71.7 23.1-66-1.2-104.1-48.9-128.9 34.8-8 60.9-30.8 67.9-78z m-121.4 170.3c-16.5 66-127.6 30.3-163.6 21.3l29.2-116.9c36 8.9 151.5 26.7 134.4 95.6z m16.4-171.3c-15 60.1-107.5 29.6-137.5 22.1l26.5-106.1c30 7.5 126.6 21.4 111 84z" />
  </svg>
