<svg height="1000" width="968.8" xmlns="http://www.w3.org/2000/svg"><path d="M153.1 131.2C339.5 -43 633.8 -46.9 823.2 138.7c28 27.5 -12.5 72.4 -43.7 42C613.9 19.7 358 23.8 195.7 174.4c-31.8 29.5 -71.3 -16.2 -42.6 -43.2zm193.2 817.6c37.7 11.2 57.2 -46.1 15.4 -58.6C142.6 824 18.4 597.9 73.6 380.5 83.4 342.2 25 325.6 14.6 366.6 -48 615.4 94.9 874 346.3 948.8zm289.2 -3.9c238.1 -78.5 376.8 -326 321.1 -568.3 -8.7 -38.5 -68.1 -27 -58.6 15.4 47.3 210.3 -72.4 425.6 -279.6 494.9 -41.4 13.7 -20.4 70.3 17.1 58zM512.7 790.6l.4 -140.2c0 -16 -12.9 -28.9 -28.9 -28.9 -16 0 -28.9 13.1 -28.9 28.9l-.4 140.2c0 16 12.9 28.9 28.9 28.9s28.9 -12.9 28.9 -28.9zM651.4 265.2c4.1 177.6 9.1 257.7 -167 258.8C303.7 522.7 314.6 437.5 317.4 265.2c0 -42.5 -63.5 -38.2 -63.5 0v139.9c0 135.3 118.6 177.5 230.5 176 111.9 1.5 230.4 -40.7 230.4 -176V265.2c0 -38.2 -63.4 -42.5 -63.4 0z"/></svg>