
  <svg height="1000" width="968.8" xmlns="http://www.w3.org/2000/svg">
    <path d="m153.1 131.2c186.4-174.2 480.7-178.1 670.1 7.5 28 27.5-12.5 72.4-43.7 42-165.6-161-421.5-156.9-583.8-6.3-31.8 29.5-71.3-16.2-42.6-43.1z m193.2 817.6c-251.4-74.8-394.3-333.4-331.7-582.2 10.4-41 68.8-24.4 59 13.9-55.2 217.4 69 443.5 288.1 509.7 41.8 12.5 22.3 69.8-15.4 58.6z m289.2-3.9c-37.5 12.3-58.5-44.3-17.1-58 207.2-69.3 326.9-284.6 279.6-494.9-9.5-42.4 49.9-53.9 58.6-15.4 55.7 242.3-83 489.8-321.1 568.3z m-122.8-154.3c0 16-12.9 28.9-28.9 28.9s-28.9-12.9-28.9-28.9l0.4-140.2c0-15.8 12.9-28.9 28.9-28.9 16 0 28.9 12.9 28.9 28.9z m138.7-525.4c0-42.5 63.4-38.2 63.4 0v139.9c0 135.3-118.5 177.5-230.4 176-111.9 1.5-230.5-40.7-230.5-176v-139.9c0-38.2 63.5-42.5 63.5 0-2.8 172.3-13.7 257.5 167 258.8 176.1-1.1 171.1-81.2 167-258.8z" />
  </svg>
