<svg height="1000" width="1000" xmlns="http://www.w3.org/2000/svg"><path d="M324.2 228.3c0 45.7 -32 95.9 -141.6 95.9H45.7l41 -173.4h132.4c82.3 0 105.1 45.5 105.1 77.5zm246.5 -77.5H438.3l-36.5 173.4h136.9c105.1 0 136.9 -50.2 136.9 -95.9 .2 -32 -22.7 -77.5 -104.9 -77.5zM173.4 406.4H41L0 579.9h136.9c109.6 0 141.6 -45.7 141.6 -95.9 0 -31.9 -22.8 -77.6 -105.1 -77.6zm351.8 0H392.8l-36.5 173.5h136.9c105 0 136.9 -45.7 136.9 -95.9 0 -31.9 -22.9 -77.6 -104.9 -77.6zm369.7 -105H762.5L726 474.8h136.9c105.1 0 136.9 -45.7 136.9 -95.9 .2 -31.8 -22.7 -77.5 -104.9 -77.5zm-54.7 269.3H707.8l-36.5 173.4h136.9c109.6 0 136.9 -45.7 136.9 -95.9 0 -31.8 -22.6 -77.5 -104.9 -77.5zM470.3 675.8H337.9l-36.5 173.4h136.9c109.6 0 136.9 -50.2 136.9 -95.9 .2 -31.8 -22.7 -77.5 -104.9 -77.5z"/></svg>