<svg height="1000" width="875" xmlns="http://www.w3.org/2000/svg"><path d="M872.3 435C868.8 419.3 859 404.9 847.9 398.8c-3.6 -1.9 -25.4 -4.3 -48.9 -5.2 -39.2 -1.8 -43.5 -2.6 -56 -9.8 -19.8 -11.5 -25 -24 -25.2 -57.6 -.2 -64.5 -27 -124.4 -79.9 -178.3C600.2 109.4 558 83.4 510 68.7 498.4 65.2 472.7 64.1 386.3 63.1 250.8 61.5 220.7 64.3 174.6 82.6 89.6 116.2 28.7 187.7 6.4 279.1c-4.1 17.2 -5 44.7 -6 202.9C-.8 680.3 .6 709.4 12.9 748.6c30.5 96.9 117 168.6 203.9 184.2 28.9 5.3 385.3 6.5 421.9 1.6 63.4 -8.6 113.3 -34.2 159.9 -81.9 33.8 -34.5 54.9 -71.8 68.8 -121.2 9.6 -34.4 8.8 -279 4.9 -296.3zM243.2 310.7c15.2 -15.4 19.5 -16 114.8 -16 85.8 0 88.7 .2 101.2 6.7 18.1 9.1 26.2 22 26.2 42.7 0 18.6 -7.5 31.7 -24.1 42.2 -9 5.7 -14.2 6.1 -98.2 6.5 -51.8 .4 -93.2 -.8 -99.2 -2.4 -32.5 -9.1 -44.6 -55.6 -20.7 -79.7zM617.8 701l-29.1 4.7 -151.4 1.7c-133 1.6 -170.5 -.8 -177.5 -3.9 -13.9 -6 -27 -22.8 -29.1 -37.9 -2.2 -14.2 5 -33.8 16 -43.7 13.8 -12.5 19.9 -12.9 190 -13.1 175 -.2 174 -.2 190.6 15.2 23.7 22.1 18.6 61 -9.5 77z"/></svg>