
  <svg height="1000" width="875.0" xmlns="http://www.w3.org/2000/svg">
    <path d="m872.3 435c3.9 17.3 4.7 261.9-4.9 296.3-13.9 49.4-35 86.7-68.8 121.2-46.6 47.7-96.5 73.3-159.9 81.9-36.6 4.9-393 3.7-421.9-1.6-86.9-15.6-173.4-87.3-203.9-184.2-12.3-39.2-13.7-68.3-12.5-266.6 1-158.2 1.9-185.7 6-202.9 22.3-91.4 83.3-162.9 168.2-196.5 46.1-18.3 76.2-21.1 211.7-19.5 86.4 1 112.1 2.1 123.7 5.6 48 14.7 90.2 40.7 127.9 79.2 52.9 53.9 79.7 113.8 79.9 178.3 0.2 33.6 5.4 46.1 25.2 57.6 12.5 7.2 16.8 8 56 9.8 23.5 0.9 45.3 3.3 48.9 5.2 11.1 6.1 20.9 20.5 24.4 36.2z m-629.1-124.3c-23.9 24.1-11.8 70.6 20.7 79.7 6 1.6 47.4 2.8 99.2 2.4 84-0.4 89.2-0.8 98.2-6.5 16.6-10.5 24.1-23.6 24.1-42.2 0-20.7-8.1-33.6-26.2-42.7-12.5-6.5-15.4-6.7-101.2-6.7-95.3 0-99.6 0.6-114.8 16z m374.6 390.3c28.1-16 33.2-54.9 9.5-77-16.6-15.4-15.6-15.4-190.6-15.2-170.1 0.2-176.2 0.6-190 13.1-11 9.9-18.2 29.5-16 43.7 2.1 15.1 15.2 31.9 29.1 37.9 7 3.1 44.5 5.5 177.5 3.9l151.4-1.7z" />
  </svg>
