
  <svg height="1000" width="875.0" xmlns="http://www.w3.org/2000/svg">
    <path d="m317.2 382.8c9.4-9.6 12.1-9.9 71.1-9.9 53.1 0 54.9 0.1 62.7 4.1 11.3 5.6 16.2 13.6 16.2 26.5 0 11.5-4.7 19.5-14.9 26.2-5.4 3.5-8.7 3.7-60.7 4.1-32 0.2-57.6-0.4-61.5-1.6-20.1-5.6-27.6-34.5-12.9-49.4z m119.9 184.6c108.2 0 107.6 0 118 9.2 14.4 13.6 11.5 37.7-6.1 47.6l-17.9 2.9-93.6 1.2c-82.4 1-105.7-0.4-110-2.3-8.6-3.7-16.6-14.3-17.9-23.5-1.2-8.8 3.1-21.1 9.9-27.1 8.6-7.6 12.3-8 117.6-8z m436.3 254.1c-6.8 55.5-44.9 98.4-99.8 112.3-14 3.5-18.9 3.7-337.7 3.5-308.2 0-324-0.2-335.9-3.5-16.4-4.3-30.5-10.8-43.6-19.5-10.9-7.5-27.1-23.1-33.2-32.1-7.4-10.9-16-29.9-19.5-42.9-3.5-13.1-3.7-18.4-3.7-338.7 0-318.6 0-325.4 3.5-339.3 12.3-48.2 50.6-85.1 100-96.1 14.3-3.1 648.6-3.7 664.1-0.6 41.4 8.4 74 33.4 92.9 71.1 15.1 29.9 13.7-2.9 14.3 352.8 0.4 226.2 0 321.3-1.4 333z m-166.8-361.7c-2.1-9.8-8.2-18.8-15-22.5-2.1-1.2-15.6-2.5-30.3-3.3-24.2-1.2-26.9-1.6-34.7-6.1-12.1-7-15.5-14.8-15.7-35.7 0-39.9-16.6-77-49.4-110.4-23.4-23.8-49.4-40-79.3-49-7-2.1-23-2.9-76.5-3.5-83.8-1-102.6 0.8-131.1 12.1-52.7 20.9-90.4 65.2-104.3 121.9-2.5 10.5-3.1 27.7-3.7 125.6-0.8 122.6 0 140.8 7.8 165 19 60 72.5 104.3 126.2 114.1 18 3.3 238.7 4.1 261.1 0.9 39.3-5.2 70.1-21 99-50.5 20.9-21.3 34-44.6 42.6-75.2 6.3-21.3 5.7-172.7 3.3-183.4z" />
  </svg>
