
  <svg height="1000" width="875.0" xmlns="http://www.w3.org/2000/svg">
    <path d="m570.9 609.2c0 82.9-77.6 81-85.8 81h-158v-159.6h158c83.1 0 85.8 62.3 85.8 78.6z m-98-142.8h-145.8v-141h145.8c68.3 0 75.1 39.8 75.1 70.1 0 72.9-73.7 70.9-75.1 70.9z m402.1-258.1v583.4c-0.2 80.3-65.5 145.6-145.8 145.8h-583.4c-80.3-0.2-145.6-65.5-145.8-145.8v-583.4c0.2-80.3 65.5-145.6 145.8-145.8h583.4c80.3 0.2 145.6 65.5 145.8 145.8z m-214.7 412.5c0-42.1-13-113.8-95.8-131.5v-1.4c44.7-19.2 72.9-55.2 72.9-108.7 0-13.7 3.9-126.5-151.6-126.5h-248v510.4c250.4 0 273.2 3.2 319.5-11.2 27.8-8.6 103-35.1 103-131.1z" />
  </svg>
