<svg height="1000" width="750" xmlns="http://www.w3.org/2000/svg"><path d="M605.9 473.9C660 446.2 694.5 397 686.5 315.1 676 203.1 584 165.6 462.2 155.1V0h-94.8v150.8c-24.6 0 -49.9 .6 -75.1 1.2V0h-94.8v155.1c-34.8 1 -75.4 .5 -190.1 0V256c74.8 -1.3 114 -6.1 123 41.9v424.6c-5.7 38.1 -36.1 32.6 -104 31.4l-19 112.7c172.8 0 190.1 .6 190.1 .6V1000h94.8V869c25.9 .6 51.1 .6 75.1 .6V1000h94.8V867.2C621 858.6 727.1 818.6 741.3 669 752.3 549 695.7 495.4 605.9 473.9zM294.2 262.8c53.5 0 220.9 -16.6 220.9 94.8 0 106.5 -167.4 94.1 -220.9 94.1V262.8zm0 491.7v-208c64 0 260 -17.8 260 104 0 117.6 -196 104 -260 104z"/></svg>