
  <svg height="1000" width="750.0" xmlns="http://www.w3.org/2000/svg">
    <path d="m605.9 473.9c89.8 21.5 146.4 75.1 135.4 195.1-14.2 149.6-120.3 189.6-279.1 198.2v132.8h-94.8v-130.4c-24 0-49.2 0-75.1-0.6v131h-94.8v-132.8s-17.3-0.6-190.1-0.6l19-112.7c67.9 1.2 98.3 6.7 104-31.4v-424.6c-9-48-48.2-43.2-123-41.9v-100.9c114.7 0.5 155.3 1 190.1 0v-155.1h94.8v152c25.2-0.6 50.5-1.2 75.1-1.2v-150.8h94.8v155.1c121.8 10.5 213.8 48 224.3 160 8 81.9-26.5 131.1-80.6 158.8z m-311.7-211.1v188.9c53.5 0 220.9 12.4 220.9-94.1 0-111.4-167.4-94.8-220.9-94.8z m0 491.7c64 0 260 13.6 260-104 0-121.8-196-104-260-104v208z" />
  </svg>
