
  <svg height="1000" width="875.0" xmlns="http://www.w3.org/2000/svg">
    <path d="m835.6 743.5l-383.8 191.1c-4.4 1.8-9.2 2.9-14.3 2.9s-9.9-1.1-14.3-2.9l-383.8-191.1c-7.8-3.9-7.8-10.3 0-14.2l91.9-45.7c4.4-1.9 9.2-2.9 14.3-2.9 5.1 0 10 1 14.4 2.9l263.2 130.9c4.4 1.8 9.2 2.9 14.3 2.9s9.9-1.1 14.3-2.9l263.2-130.9c4.4-1.9 9.3-2.9 14.3-2.9s10 1 14.4 2.9l91.9 45.8c7.9 3.8 7.9 10.2 0 14.1z m0-266.7c7.9 4 7.9 10.4 0 14.3l-383.8 191c-4.4 1.9-9.2 3-14.3 3-5.1 0-9.9-1.1-14.3-3l-383.8-191c-7.8-3.9-7.8-10.4 0-14.3l91.9-45.7c4.4-1.9 9.3-3 14.4-3 5 0 9.9 1.1 14.3 3l263.2 131c4.4 1.9 9.3 2.9 14.3 2.9 5.1 0 9.9-1 14.3-2.9l263.2-131c4.4-1.9 9.3-3 14.4-3s9.9 1.1 14.3 3z m-796.2-222.1c-7.9-3.6-7.9-9.5 0-13.1l383.8-176.4c4.4-1.7 9.3-2.7 14.3-2.7 5.1 0 9.9 1 14.3 2.7l383.8 176.4c7.8 3.6 7.8 9.5 0 13.1l-383.8 176.4c-4.4 1.7-9.3 2.7-14.3 2.7s-9.9-1-14.3-2.7z" />
  </svg>
