
  <svg height="1000" width="875.0" xmlns="http://www.w3.org/2000/svg">
    <path d="m0 62.5h250v250h-250v-250z m234.4 234.4v-218.8h-218.8v218.8h218.8z m78.1-234.4h250v250h-250v-250z m234.4 234.4v-218.8h-218.8v218.8h218.8z m78.1-234.4h250v250h-250v-250z m234.4 234.4v-218.8h-218.8v218.8h218.8z m-859.4 78.1h250v250h-250v-250z m234.4 234.4v-218.8h-218.8v218.8h218.8z m78.1-234.4h250v250h-250v-250z m234.4 234.4v-218.8h-218.8v218.8h218.8z m78.1-234.4h250v250h-250v-250z m234.4 234.4v-218.8h-218.8v218.8h218.8z m-859.4 78.1h250v250h-250v-250z m234.4 234.4v-218.8h-218.8v218.8h218.8z m78.1-234.4h250v250h-250v-250z m234.4 234.4v-218.8h-218.8v218.8h218.8z m78.1-234.4h250v250h-250v-250z" />
  </svg>
