<svg height="1000" width="875" xmlns="http://www.w3.org/2000/svg"><path d="M0 62.5v250h250v-250H0zm234.4 234.4H15.6V78.1h218.8v218.8zM312.5 62.5v250h250v-250h-250zm234.4 234.4H328.1V78.1h218.8v218.8zM625 62.5v250h250v-250H625zm234.4 234.4H640.6V78.1h218.8v218.8zM0 375v250h250V375H0zm234.4 234.4H15.6V390.6h218.8v218.8zM312.5 375v250h250V375h-250zm234.4 234.4H328.1V390.6h218.8v218.8zM625 375v250h250V375H625zm234.4 234.4H640.6V390.6h218.8v218.8zM0 687.5v250h250v-250H0zm234.4 234.4H15.6V703.1h218.8v218.8zm78.1 -234.4v250h250v-250h-250zm234.4 234.4H328.1V703.1h218.8v218.8zM625 687.5v250h250v-250H625z"/></svg>