
  <svg height="1000" width="1125.0" xmlns="http://www.w3.org/2000/svg">
    <path d="m562.5 62.5c302.2 0 547.3 195.9 547.3 437.5s-245.1 437.5-547.3 437.5-547.3-195.9-547.3-437.5 245.1-437.5 547.3-437.5z m-166.8 697.6c120.2-1.1 194.3-47.5 229.9-120.1-69.9-12.6-122.9-72.9-122.9-145.4 0-81.6 67.1-147.8 149.8-147.8 0 0 0 0 0 0 11.5 0 22.8 1.3 33.6 3.8 1.2-4.3 2.2-8.9 2.9-13.4 13.6-86.3-29-142.3-152.3-142.3h-260.6l-150.9 567.9z m303.5-355.6l-18.4 71.8-29.3-71.8h-61.2l-52.1 176.4h73.9l15.3-69.6 21.9 69.6h69.1l43.3-176.4h-62.5z m284.9 355.6l41.4-164.1h-202.9l103.6-401.1h-180.6l-41.7 160.8c57.4 20.7 98.4 75 98.4 138.8 0 81.6-67.1 147.7-149.8 147.7 0 0 0.1 0.1 0.1 0.1-7.6 0-15.1-0.6-22.5-1.7l-30.9 119.5h384.9z m-570.6-233.9c31.5 0 58 14.6 47.1 58.2-11.4 45.8-42.6 52-74.1 52h-48.2l26.9-110.2h48.3z m41.6-194.2c35.3 0 62.9-2.5 53.8 34.3-7.4 30.3-41.4 58.9-76.5 58.9h-41.8l22.8-93.2h41.7z" />
  </svg>
