<svg height="1000" width="1125" xmlns="http://www.w3.org/2000/svg"><path d="M1125 498.8c-74 -.4 -86.3 -1.7 -106.4 9.8v-9.8c-88.5 0 -104.5 -3.3 -126.8 10.2v-10.2H739.1v10c-22.3 -12.7 -41.8 -10 -147.9 -10v11c-12.3 -7.3 -28.3 -11 -47.4 -11H430.5c-6.9 7.5 -24.4 26.8 -30.7 33.6C375 504.9 379.3 509.8 369.5 498.8H207.2v180.3h160.2c6.4 -6.8 25.2 -27.1 31.4 -34 24.8 27.9 20.1 22.9 30.1 34h95.5c0 -28.7 .2 -16.2 .2 -44.9 22.5 .4 47.5 -.4 67 -12.1 0 27.1 -.2 33.4 -.2 57h77.4c0 -36.1 .1 -14.5 .1 -49.4 12.2 0 15.1 0 18.4 .2 .2 2.5 0 0 0 49.2 298.4 0 285 2.2 306.1 -8.8v8.8c67.9 0 107 4.3 131.8 -11.9v176.6c0 51.7 -42 93.7 -93.8 93.7H93.8C42 937.5 0 895.5 0 843.8V445.9h52c8.2 -19.7 4.3 -10.4 12.5 -29.9H102c8.2 19.5 4.3 10.2 12.5 29.9h103.3v-22.3c4.3 9.8 2.1 4.9 9.9 22.3h57.7c4.6 -10.7 5 -11.3 9.9 -22.3v22.3H560v-49c12.5 0 15.6 -.2 19.1 .4 0 0 -.4 21.3 .2 48.4h129.9v-17.4c14.4 11.5 34 17.4 58 17.4h52.3c8.2 -19.7 4.3 -10.3 12.5 -29.9h37.1c12.7 29.3 .4 1 12.9 29.9h103.2v-42.8c23 38.5 15.2 25.2 25.7 42.8h81.3V266h-77.9v36C990.4 262.5 1002 281.6 992.4 266h-84.6v40.3c-12.1 -28.6 -9 -21.1 -17.2 -40.3h-63.3c-.7 0 -4.4 .4 -4.4 -.6h-54c-25 0 -45.1 6.3 -59.9 18.2v-18.2h-77.9v10.4C610 263.9 590.6 265.8 505.3 265.4c-.2 0 -22.7 -.2 -22.7 0H281.4c-4.8 11.9 -13.2 32.1 -24.6 58.6 -5.4 -11.7 -21.4 -46.5 -27.1 -58.6h-89.9v41.2c-14.4 -33.9 -9.1 -21.4 -17.5 -41.2H44.7C38.1 280.9 18 327.9 -.4 370.7V156.3c0 -51.8 42 -93.8 93.8 -93.8h937.5c51.7 0 93.7 42 93.7 93.8v342.5zM760.5 341.4c-.5 .4 -2.7 4.3 -2.7 14.8 0 11.8 1.8 15.1 2.2 15.5 .4 .2 2.1 1 6.6 1l14.3 -33.1c-2.2 0 -4.1 -.1 -6.1 -.1 -10.9 0 -13.7 1.3 -14.3 1.9zm-38.8 255.7c17.9 6.4 21.5 18.5 21.5 35.9l-.2 27h-32.5l.2 -22.5c0 -23 -7.4 -27 -28.9 -27h-34.3l-.2 49.5h-32.5l.2 -135.4h77c25.4 0 52.9 4.5 52.9 36.5 -.2 14.9 -8.2 29.9 -23.2 36zM709.4 567c0 -12.5 -11 -14.5 -20.9 -14.5h-41V583h40.4c10.9 0 21.5 -2.5 21.5 -16zm354.9 -13.9h58.7v-28.5h-64.2c-25 0 -46.5 12.9 -46.5 40.4 0 64.5 83.4 25 83.4 53.6 0 9.9 -8.4 12.5 -16.4 12.5h-62.5l-.2 28.9h62.5c16.4 0 34.4 -3.6 43.9 -17.4v-50.4c-20.5 -27 -76.7 -2.6 -76.7 -26.4 0 -11.3 9 -12.7 18 -12.7zm-193.8 -.6v-27.9H762.7l-.2 135.4h107.8l.2 -28 -75.4 -.6v-26.9h74V577h-73.8v-24.5h75.2zm82.4 78.4H890l-.2 28.9h62.9c28.9 0 51.2 -11 51.2 -43 0 -64.8 -83.8 -21.9 -83.8 -51.4 0 -10.9 9.6 -12.5 18 -12.5h59.4v-28.5h-64.9c-25 0 -45.9 12.9 -45.9 40.4 0 64.5 83.4 24.5 83.4 53.6 -.2 10.5 -9.2 12.5 -17.2 12.5zm-152.5 -310c-34 -.6 -64.9 -8 -64.9 38.5 0 23 5.5 38.8 31.5 38.8h14.4l45.9 -106.4h48.5l54.5 127.7V291.8h49.4l56.8 93.9v-93.9h33v134.8h-46.1L962.5 325.2v101.4h-65.8l-12.9 -29.9h-67l-12.5 29.9h-37.5c-44.5 0 -64.5 -23.1 -64.5 -66.4 0 -45.6 20.6 -69 66.5 -69h31.4v29.7zm27.9 47.9h44.6l-21.9 -54 -22.7 54zM686.5 291.4h-33v135.4h33V291.4zm-74.4 72.9c18.6 6.4 21.5 17.9 21.5 35.9v26.4h-32.4c-.6 -28.9 7 -49.1 -28.9 -49.1h-35.2v49.1h-32V291.2l76.3 .6c26 0 53.6 3.9 53.6 35.9 .2 15.7 -8.4 30.7 -22.9 36.6zM599 334.4c0 -12.5 -10.9 -14.5 -20.9 -14.5h-41v29.9h40.4c11.2 0 21.5 -2.5 21.5 -15.4zM482.8 319.9v-28.5H374.4v135.4h108.4v-28h-76v-26.9h73.9v-27.6h-73.9v-24.4h76zM317.6 426.8V320.9l-46.9 105.9h-28.5L195.3 320.9v105.9h-66l-12.5 -29.9H49.4l-12.5 29.9H2L60 291.4h47.8l54.9 128.3V291.4h52.9l42.4 91.8 38.5 -91.8h53.9v135.4h-32.8zm-212.3 -58l-22.5 -54 -21.9 54h44.4zm494.1 200.1c0 54.5 -59.4 45.6 -96.3 45.6l-.2 45.5H440l-39.8 -45 -41.6 45H230.9l.2 -135.4h129.8l40.1 44.5 41 -44.5h102.9c30.5 0 54.5 10.6 54.5 44.3zM379.3 592l-35 -39.5h-81.4V577h70.9v27.5h-70.9v26.9h79.3L379.3 592zm91.4 -52.9l-49.4 53.5 49.4 54.9V539.1zm94.3 29.8c0 -11.9 -8.9 -16.4 -19.9 -16.4h-42v34.4h41.4c11.6 0 20.5 -5.5 20.5 -18z"/></svg>