
  <svg height="1000" width="1125.0" xmlns="http://www.w3.org/2000/svg">
    <path d="m468.2 156.1c189.8 0 343.3 153.5 343.3 343.3 0 189.3-153.5 343.4-343.3 343.4-189.3 0-343.4-154.1-343.4-343.4 0-189.8 154.1-343.3 343.4-343.3z m-78 546v-406c-81.4 31.6-139.4 110.7-139.4 203.3 0 92.6 58 171.7 139.4 202.8z m155.9 0.6c81.4-31.6 139.4-110.7 139.4-203.3 0-92.6-58-171.7-139.4-203.3v406.6z m485.2-640.2c51.7 0 93.7 42 93.7 93.8v687.5c0 51.7-42 93.7-93.7 93.7h-937.5c-51.8 0-93.8-42-93.8-93.7v-687.5c0-51.8 42-93.8 93.8-93.8h937.5z m-387.4 812.5c205.1 0 392-167 392-371.5 0-223.8-186.9-378.5-392-378.5h-176.3c-207.4 0-378.5 154.7-378.5 378.5 0 204.5 171.1 371.5 378.5 371.5h176.3z" />
  </svg>
