
  <svg height="1000" width="1125.0" xmlns="http://www.w3.org/2000/svg">
    <path d="m1016.4 383c0 16.4-10.7 25-30.9 25h-9.1v-48.6h9.5c19.8 0 30.5 8.2 30.5 23.6z m14.9-320.5c51.7 0 93.7 42 93.7 93.8v687.5c0 51.7-42 93.7-93.7 93.7h-937.5c-51.8 0-93.8-42-93.8-93.7v-687.5c0-51.8 42-93.8 93.8-93.8h937.5z m-86.2 271.3v160.1h31.3v-64h4.3l43.3 64h38.3l-50.4-67.1c23.6-4.9 36.5-20.7 36.5-45.4 0-55.6-59.1-47.6-103.3-47.6z m-109.2 0.2v160.1h88.5v-26.9h-57.2v-43.4h55.3v-26.9h-55.3v-35.6h57.2v-27.3h-88.5z m-134.1 0h-34.2l68.3 164.4h16.8l69.4-164.4h-34.2l-43.4 107.8z m-109.2-5.9c-48.1 0-87.1 38.9-87.1 87.1 0 48.1 38.8 87.1 87.1 87.1 48 0 87.1-38.8 87.1-87.1 0-48-38.9-87.1-87.1-87.1z m-96.3 11.9c-59-29.3-123.6 13.3-123.6 74.3 0 63.4 65.6 102.5 123.6 74.6v-37.1c-37.7 37.7-91.4 11.3-91.4-37.5 0-46.3 52.1-76.4 91.4-37.2v-37.1z m-189.9 129.5c-14.8 0-26.9-7.2-34.1-21.1l-20.2 19.4c34.8 50.9 110.6 35.5 110.6-22.1 0-25.6-10.6-37.1-46.1-50-18.7-6.6-24-11.5-24-20.1 0-17 28.3-27.6 48.6-4.9l16.4-21.1c-37.3-33.4-97.1-17.4-97.1 27.9 0 22.1 10.2 33.6 39.5 44.4 50.2 17.7 28.7 47.6 6.4 47.6z m-198.2 24.6c60.4 0 86.1-43.7 86.1-79.8 0-47.1-35.1-80.3-86.1-80.3h-45.7v160.1h45.7z m131.8 0v-160.1h-31.2v160.1h31.2z m822.5 351.6v-283.2c-65 40.6-442.2 243-812.5 312.5h783.2c16 0 29.3-13.3 29.3-29.3z m-917.8-471.5c11.2 9.8 17.4 24.6 17.4 40.1 0 15.4-6.2 30.2-17.4 40.4-9.5 8.6-22.6 12.5-42.7 12.5h-8.3v-105.9h8.3c20.1 0 32.6 3.3 42.7 12.9z" />
  </svg>
