<svg height="1000" width="1125" xmlns="http://www.w3.org/2000/svg"><path d="M468.2 156.1c-189.3 0 -343.4 153.5 -343.4 343.3 0 189.3 154.1 343.4 343.4 343.4 189.8 0 343.3 -154.1 343.3 -343.4C811.5 309.6 658 156.1 468.2 156.1zm-78 546C308.8 671.1 250.8 592 250.8 499.4s58 -171.7 139.4 -203.3v406zm155.9 .6V296.1c81.4 31.6 139.4 110.7 139.4 203.3s-58 171.7 -139.4 203.3zM1031.3 62.5H93.8C42 62.5 0 104.5 0 156.3v687.5c0 51.7 42 93.7 93.8 93.7h937.5c51.7 0 93.7 -42 93.7 -93.7V156.3c0 -51.8 -42 -93.8 -93.7 -93.8zM643.9 875H467.6C260.2 875 89.1 708 89.1 503.5 89.1 279.7 260.2 125 467.6 125h176.3c205.1 0 392 154.7 392 378.5C1035.9 708 849 875 643.9 875z"/></svg>