<svg height="1000" width="1125" xmlns="http://www.w3.org/2000/svg"><path d="M775.2 501c0 37.3 -17.2 65.2 -42.8 65.2 -16.2 0 -26 -5.8 -32.8 -13.1L699.2 450c7.2 -8 17.2 -13.7 33.2 -13.7 25.2 -.2 42.8 28.3 42.8 64.7zM1125 156.3v687.5c0 51.7 -42 93.7 -93.7 93.7H93.8C42 937.5 0 895.5 0 843.8V156.3C0 104.5 42 62.5 93.8 62.5h937.5c51.7 0 93.7 42 93.7 93.8zM238.7 549c0 -82.6 -106.1 -67.7 -106.1 -99 0 -10.7 9 -15 23.7 -15 21 0 47.8 6.4 68.9 17.7v-65.2c-23.1 -9.2 -45.9 -12.7 -68.9 -12.7 -56.3 0 -93.8 29.3 -93.8 78.5 0 76.8 105.5 64.3 105.5 97.5 0 12.9 -11.2 17 -26.6 17 -23 0 -52.5 -9.6 -76 -22.1v66.2c25.8 11.1 52 15.8 75.8 15.8C199 627.3 238.7 599 238.7 549zM373.2 379.3h-52.7v-60.2l-67.8 14.5 -.4 222.5c0 41 30.9 71.2 72.1 71.2 22.7 0 39.5 -4.1 48.6 -9.1v-56.5c-8.7 3.5 -52.7 16.2 -52.7 -24.6v-98.6H373v-59.2zm144.2 0c-9.2 -3.3 -41.6 -9.4 -57.8 20.5l-4.3 -20.5h-60v243.2h69.3V457.6c16.5 -21.5 44.2 -17.4 53 -14.4v-63.9zm86.3 0H534v243.2h69.7V379.3zm0 -92.4L534 301.8v56.4l69.7 -14.8v-56.5zm239.7 212.5c0 -80.6 -45.9 -124.6 -94.6 -124.6 -27.1 0 -44.7 12.9 -54.3 21.7L691 379.3h-61.1v323.8l69.3 -14.6 .2 -78.5c10 7.2 24.8 17.5 49 17.5 49.6 -.2 95 -40 95 -128.1zm219.1 2.4c0 -71.1 -34.4 -127.2 -100.2 -127.2 -66 0 -106 56.1 -106 126.8 0 83.6 47.2 125.9 114.8 125.9 33.2 0 58 -7.6 76.9 -17.9v-55.9c-18.9 9.6 -40.6 15.4 -68.1 15.4 -27 0 -50.8 -9.5 -53.9 -41.9h135.7c.2 -4 .8 -18.4 .8 -25.2zM961.7 431.3c-17.4 0 -36.5 13 -36.5 44.3h71.7c0 -31.3 -18.2 -44.3 -35.2 -44.3z"/></svg>