
  <svg height="1000" width="1125.0" xmlns="http://www.w3.org/2000/svg">
    <path d="m918.2 451.8c0 0 14.8 72.6 18.1 87.8h-65.2c6.4-17.3 31.2-84.9 31.2-84.9-0.3 0.6 6.5-17.8 10.4-29.1z m206.8-295.5v687.5c0 51.7-42 93.7-93.7 93.7h-937.5c-51.8 0-93.8-42-93.8-93.7v-687.5c0-51.8 42-93.8 93.8-93.8h937.5c51.7 0 93.7 42 93.7 93.8z m-827.1 490.6l123.4-303.1h-83l-76.8 207-8.4-42-27.3-139.5c-4.5-19.3-18.4-24.8-35.6-25.6h-126.3l-1.4 6.1c30.9 7.8 58.4 19.1 82.4 33.4l69.9 263.7h83.1z m184.3 0.4l49.2-303.5h-78.5l-49 303.5h78.3z m273.3-99.3c0.4-34.5-20.7-60.9-65.9-82.6-27.5-13.8-44.3-23.2-44.3-37.5 0.4-12.9 14.3-26.1 45.1-26.1 25.6-0.6 44.4 5.4 58.4 11.5l7.1 3.3 10.7-65.6c-15.4-6.1-40-12.9-70.3-12.9-77.5 0-132 41.4-132.4 100.4-0.6 43.5 39 67.8 68.7 82.4 30.3 14.8 40.6 24.6 40.6 37.7-0.3 20.3-24.6 29.7-47 29.7-31.3 0-48.1-4.9-73.7-16.2l-10.3-4.9-10.9 68.2c18.3 8.4 52.3 15.8 87.5 16.2 82.4 0.2 136.1-40.7 136.7-103.6z m275.8 99.3l-63.3-303.5h-60.8c-18.7 0-33 5.4-41 25.1l-116.6 278.4h82.4s13.5-37.5 16.4-45.5h100.8c2.4 10.7 9.4 45.5 9.4 45.5h72.6z" />
  </svg>
