
  <svg height="1000" width="875.0" xmlns="http://www.w3.org/2000/svg">
    <path d="m565.6 190.4l61.7 61.9-149 149.5v-211.4h87.3z m-317.2 61.9l61.8-61.9h87.3v211.4z m81.1-81.2l108.4-108.6 108.4 108.6h-87.3v249.8l-21.1 21.1-21.1-21.1v-249.8h-87.3z m51.2 328.3l-21.1 21.1h-251.2v87.5l-108.4-108.6 108.4-108.6v87.5h251.2z m154.8-40.4l149.1-149.4 61.7 61.9v87.5h-210.8z m338.5 40.4l-108.4 108.6v-87.5h-249.4l-21.1-21.1 21.1-21.1h249.4v-87.5z m-746.3-155.3v-153.7h155.1l-61.7 61.9 176.4 176.8v29.9h-29.9l-176.4-176.8z m618.6-153.7v153.7l-61.7-61.9-176.4 176.8h-29.9v-29.9l176.4-176.8-61.7-61.9h153.3z m-348.8 618v0.2h-87.3l-61.8-61.9 149.1-149.4v211.1z m-269.8-349.4v-87.5l63.5-61.9 149 149.4h-212.5z m618.6 195.7v153.7h-153.3l61.7-61.9-176.4-176.8v-29.9h29.9l176.4 176.8z m0-114.9v87.5l-61.7 62-149.1-149.5h210.8z m-119 206.7l-61.7 61.7h-87.3v-211.1z m-436.1-57.2l-63.5-62v-87.5h212.5z m355.1 138.4l-108.4 108.6-108.4-108.6h87.3v-249.8l21.1-21.1 21.1 21.1v249.8h87.3z m-325.2-81.2l61.7 61.9h-155.1v-153.7l63.5 61.9 176.4-176.8h29.9v29.9z" />
  </svg>
