<svg height="1000" width="968.8" xmlns="http://www.w3.org/2000/svg"><path d="M256.8 424.8L107.6 195.5C200.6 79.9 340 16.2 482.6 15.6c82.6 -.6 167 20.5 243.8 64.9 84.7 49.2 149.2 119.9 190.2 201.1l-401 -21.1C402.1 253.9 294.1 317.8 256.8 424.8zm64.3 75.2c0 90.2 73 163.3 163.3 163.3S647.7 590.2 647.7 500 574.6 336.7 484.4 336.7 321.1 409.6 321.1 500zm615 -174.2l-272.8 14c74 86.6 75.2 211.4 12.9 307.1l-219 336.7c90.8 4.9 184.4 -15 269.2 -64.3 209.7 -121.1 294.7 -375 209.7 -593.5zM261.1 593L78.9 234.6C29.1 310.7 0 402.1 0 500c0 242.2 177.3 442.8 409.2 478.3L533.6 734.6C421.1 755.7 312.5 693.9 261.1 593z"/></svg>