
  <svg height="1000" width="968.8" xmlns="http://www.w3.org/2000/svg">
    <path d="m256.8 424.8l-149.2-229.3c93-115.6 232.4-179.3 375-179.9 82.6-0.6 167 20.5 243.8 64.9 84.7 49.2 149.2 119.9 190.2 201.1l-401-21.1c-113.5-6.6-221.5 57.3-258.8 164.3z m64.3 75.2c0-90.4 73-163.3 163.3-163.3s163.3 73.1 163.3 163.3-73.1 163.3-163.3 163.3-163.3-73.1-163.3-163.3z m615-174.2c85 218.5 0 472.4-209.7 593.5-84.8 49.3-178.4 69.2-269.2 64.3l219-336.7c62.3-95.7 61.1-220.5-12.9-307.1z m-675 267.2c51.4 100.9 160 162.7 272.5 141.6l-124.4 243.7c-231.9-35.5-409.2-236.1-409.2-478.3 0-97.8 29.1-189.3 78.9-265.4z" />
  </svg>
