
  <svg height="1000" width="1203.1" xmlns="http://www.w3.org/2000/svg">
    <path d="m290.2 593.8v0.1h-95.5c-12.5 0-22.8-10.5-22.8-23v-78.9c0-14.9 13.6-23.2 21.1-23.2h91.4v12.8c0 20.9 17.2 32.7 38.1 32.7h39.4c21.1 0 38.1-17.2 38.1-38.1v-39.9c0-20.7-6.8-38.1-29.7-38.1 36.1-29.6 72.7-41.8 87.9-47 29.3-110.4 82-180.5 193.9-214.3 107.7-32.2 299.9-6 364.3 166 144.3 44.2 208.8 180.9 179.9 303-25.4 107.2-121.7 196.4-256.8 194.3-96.9 100.4-264.1 95.5-364.1 10.9-153.5 8.2-269.1-83.6-285.2-217.3z m444.2 15.6c17 105.6 116.6 127.9 179.3 115.6 76.3-15 137.7-73.2 155.6-149.4 11.4-47.7 4.7-97.7-18.3-140.6l-20.5-38.3c2.3 43.9-24.4 118.3-92.8 150.2 127.9-132.3 4.1-275.8-132.2-294-97.3-12.9-162.7 25.4-223.1 85.4 93.8 9.2 171.3 52.3 198.9 146.1-58.8-96.3-201.2-110.6-261-79.7-69.3 35.5-117.2 105.5-111.3 183.4 7 92.6 77.1 131.6 112.1 155.8-8.8-42.3-7.8-139.2 57-181.4-70.9 117.2 54.9 282.4 264.3 216.4-65.6-28.1-128.9-79.1-108-169.5z m-484.4-203.1h-77.7c-17.4 0-31.7-14.3-31.7-31.7v-77.3c0-17.4 14.3-31.7 31.7-31.7h77.7c17.4 0 31.6 14.3 31.6 31.7v77.3c0 17.4-14.2 31.7-31.6 31.7z m-230.3-78.2c-10.9 0-19.7-8.8-19.7-19.7v-54.3c0-10.9 8.8-19.7 19.7-19.7h54.1c10.8 0 19.8 8.8 19.8 19.7v54.3c0 10.9-8.8 19.7-19.8 19.7h-54.1z m308.4-49.4v-41.8c0-9.9 8.2-18.2 18.2-18.2h41.8c9.9 0 18.1 8.3 18.1 18.2v41.8c0 10-8.2 18.2-18.1 18.2h-41.8c-10 0-18.2-8.2-18.2-18.2z m-218.7 181.3v48.8c0 12.3-10 22.5-22.3 22.5h-49.2c-12.3 0-22.3-10.2-22.3-22.5v-48.8c0-12.3 10-22.5 22.3-22.5h49c12.5 0 22.5 10.2 22.5 22.5z" />
  </svg>
