<svg height="1000" width="875" xmlns="http://www.w3.org/2000/svg"><path d="M621.3 300.8l-18.4 14.8C559 277.9 502.3 250 440.2 250 300.4 250 187.5 368.8 187.5 508.4c0 12.9 .8 25.6 2.7 37.9C186.3 436.9 271.9 356.1 371.1 356.1c47.3 0 90.2 18.3 122.3 48.2l-49.3 39.8c-16.2 -1.7 -32.8 3.6 -45.1 15.9 -21.7 21.4 -21.7 56.4 0 78.1 21.7 21.5 56.5 21.5 78.1 0C489.5 525.8 494.7 509 493 493L639.8 319.5c12.3 -12.7 -6.4 -31 -18.5 -18.7zM457.6 518.6c-10.9 10.7 -28.5 10.7 -39.4 0 -11 -11 -11 -28.6 0 -39.5s28.5 -10.9 39.4 0 11 28.7 0 39.5zM437.5 62.5C196.3 62.5 0 258.8 0 500s196.3 437.5 437.5 437.5S875 741.2 875 500 678.7 62.5 437.5 62.5zm0 750C265.2 812.5 125 672.3 125 500S265.2 187.5 437.5 187.5 750 327.7 750 500 609.8 812.5 437.5 812.5z"/></svg>