<svg height="1000" width="1203.1" xmlns="http://www.w3.org/2000/svg"><path d="M290.2 593.8c16.1 133.7 131.7 225.5 285.2 217.3 100 84.6 267.2 89.5 364.1 -10.9 135.1 2.1 231.4 -87.1 256.8 -194.3 28.9 -122.1 -35.6 -258.8 -179.9 -303C952 130.9 759.8 104.7 652.1 136.9 540.2 170.7 487.5 240.8 458.2 351.2c-15.2 5.2 -51.8 17.4 -87.9 47 22.9 0 29.7 17.4 29.7 38.1v39.9c0 20.9 -17 38.1 -38.1 38.1h-39.4c-20.9 0 -38.1 -11.8 -38.1 -32.7v-12.8H193c-7.5 0 -21.1 8.3 -21.1 23.2v78.9c0 12.5 10.3 23 22.8 23h95.5zm444.2 15.6c-20.9 90.4 42.4 141.4 108 169.5C633 844.9 507.2 679.7 578.1 562.5c-64.8 42.2 -65.8 139.1 -57 181.4C486.1 719.7 416 680.7 409 588.1c-5.9 -77.9 42 -147.9 111.3 -183.4 59.8 -30.9 202.2 -16.6 261 79.7C753.7 390.6 676.2 347.5 582.4 338.3c60.4 -60 125.8 -98.3 223.1 -85.4 136.3 18.2 260.1 161.7 132.2 294 68.4 -31.9 95.1 -106.3 92.8 -150.2L1051 435c23 42.9 29.7 92.9 18.3 140.6C1051.4 651.8 990 710 913.7 725 851 737.3 751.4 715 734.4 609.4zM250 406.3h-77.7c-17.4 0 -31.7 -14.3 -31.7 -31.7v-77.3c0 -17.4 14.3 -31.7 31.7 -31.7H250c17.4 0 31.6 14.3 31.6 31.7v77.3c0 17.4 -14.2 31.7 -31.6 31.7zM19.7 328.1C8.8 328.1 0 319.3 0 308.4v-54.3c0 -10.9 8.8 -19.7 19.7 -19.7h54.1c10.8 0 19.8 8.8 19.8 19.7v54.3c0 10.9 -8.8 19.7 -19.8 19.7H19.7zm308.4 -49.4v-41.8c0 -9.9 8.2 -18.1 18.2 -18.1h41.8c9.9 0 18.2 8.2 18.2 18.1v41.8c0 10 -8.3 18.2 -18.2 18.2h-41.8c-10 0 -18.2 -8.2 -18.2 -18.2zM109.4 460v48.8c0 12.3 -10 22.5 -22.3 22.5H37.9c-12.3 0 -22.3 -10.2 -22.3 -22.5V460c0 -12.3 10 -22.5 22.3 -22.5h49c12.5 0 22.5 10.2 22.5 22.5z"/></svg>