
  <svg height="1000" width="875.0" xmlns="http://www.w3.org/2000/svg">
    <path d="m621.3 300.8c12.1-12.3 30.8 6 18.5 18.7l-146.8 173.5c1.7 16-3.5 32.8-15.9 45.1-21.6 21.5-56.4 21.5-78.1 0-21.7-21.7-21.7-56.7 0-78.1 12.3-12.3 28.9-17.6 45.1-15.9l49.3-39.8c-32.1-29.9-75-48.2-122.3-48.2-99.2 0-184.8 80.8-180.9 190.2-1.9-12.3-2.7-25-2.7-37.9 0-139.7 112.9-258.4 252.7-258.4 62.1 0 118.8 27.9 162.7 65.6z m-163.7 217.8c11-10.8 11-28.6 0-39.5-10.9-10.9-28.5-10.9-39.4 0-11 10.9-11 28.5 0 39.5 10.9 10.7 28.5 10.7 39.4 0z m-20.1-456.1c241.2 0 437.5 196.3 437.5 437.5s-196.3 437.5-437.5 437.5-437.5-196.3-437.5-437.5 196.3-437.5 437.5-437.5z m0 750c172.3 0 312.5-140.2 312.5-312.5s-140.2-312.5-312.5-312.5-312.5 140.2-312.5 312.5 140.2 312.5 312.5 312.5z" />
  </svg>
