
  <svg height="1000" width="1000.0" xmlns="http://www.w3.org/2000/svg">
    <path d="m981 311.9c11.7 7.8 19 21.8 19 35.7v304.7c0 14-7.3 27.9-19 35.7l-457 304.8c-15.7 9.7-32.4 9.6-48 0l-457-304.8c-11.7-7.8-19-21.7-19-35.7v-304.7c0-13.9 7.3-27.9 19-35.7l457-304.7c15.7-9.7 32.4-9.6 48 0z m-438-188.6v200.3l186.4 124.5 150.1-100.5z m-86 0l-336.5 224.3 150.1 100.5 186.4-124.5v-200.3z m-371.1 304.7v144l107.7-72z m371.1 448.7v-200.4l-186.4-124.4-150.1 100.4z m43-275.2l151.8-101.5-151.8-101.6-151.8 101.6z m43 275.2l336.5-224.4-150.1-100.4-186.4 124.4v200.4z m371.1-304.7v-144l-107.7 72z" />
  </svg>
