<svg height="1000" width="1000" xmlns="http://www.w3.org/2000/svg"><path d="M981 311.9L524 7.2c-15.6 -9.6 -32.3 -9.7 -48 0L19 311.9C7.3 319.7 0 333.7 0 347.6v304.7c0 14 7.3 27.9 19 35.7l457 304.8c15.6 9.6 32.3 9.7 48 0L981 688c11.7 -7.8 19 -21.7 19 -35.7V347.6c0 -13.9 -7.3 -27.9 -19 -35.7zM543 123.3l336.5 224.3L729.4 448.1 543 323.6V123.3zm-86 0v200.3L270.6 448.1 120.5 347.6 457 123.3zM85.9 428l107.7 72L85.9 572V428zM457 876.7L120.5 652.3 270.6 551.9 457 676.3v200.4zm43 -275.2L348.2 500 500 398.4 651.8 500 500 601.5zm43 275.2V676.3L729.4 551.9l150.1 100.4L543 876.7zM914.1 572L806.4 500l107.7 -72v144z"/></svg>