
  <svg height="1000" width="921.9" xmlns="http://www.w3.org/2000/svg">
    <path d="m825.2 396.3c60 0 65.4 103.7-0.6 103.7h-21.1v86.5h-51.9v-190.2h73.6z m96.7 292.4c-82.3 179.5-237.5 295.7-437.5 295.7-267.6 0-484.4-216.8-484.4-484.4s216.8-484.4 484.4-484.4c190.2 0 337.5 104.9 426.1 270.3l-363.2 212.5z m-75.2 24.4l-117.8-60c-52.9 86.5-137.5 139.5-239.1 139.5-161.1 0-291.4-130.3-291.4-290.8 0-161.2 130.3-291.4 291.4-291.4 94.6 0 173.7 45.9 228.4 123.8l116.2-67.6c-79.5-122.3-204.5-195.3-350-195.3-236.7 0-428.7 192-428.7 428.7s192 428.7 428.7 428.7c153.5 0 286.1-82.2 362.3-215.6z" />
  </svg>
