
  <svg height="1000" width="1000.0" xmlns="http://www.w3.org/2000/svg">
    <path d="m4.5 805.1c82.6-130.7 244.5-455.5 728.7-219.9 77.5 37.3 163.5 77.9 206.8 98.2 15.7 7.2 22.9 25.8 15.9 41.6l-98.5 222.9c-0.2 0.1-0.2 0.5-0.4 0.7-7.6 15.9-26.5 22.7-42.4 15.1-391.4-186-417.5-217.8-548.6 1.3 0 0-0.2 0.2-0.2 0.4-9.2 15.1-28.7 19.6-43.7 10.4l-206.9-127.4c-14.8-9.1-19.5-28.5-10.7-43.3z m991-609.6c-83.2 131.8-244.9 454.9-729.3 220.5-77.5-37.5-163.7-78.1-207-98.4-15.6-7.2-22.9-25.8-15.8-41.6l98.6-222.9c0.2-0.2 0.2-0.6 0.4-0.8 7.6-15.8 26.5-22.6 42.4-15 389.6 185 416.6 218.2 548-1.8 0.4-0.7 0.8-1.3 1.2-1.9 9.8-14.7 29.5-18.4 44.1-8.6l206.7 127.1c14.8 9.2 19.5 28.6 10.7 43.4z" />
  </svg>
