<svg height="1000" width="1125" xmlns="http://www.w3.org/2000/svg"><path d="M1075.2 470.7L977.4 301.2c2.1 -4.2 3.6 -8.9 3.6 -14.1 0 -15.7 -13.1 -28.8 -28.7 -29.3L844 70.5c1 -3.2 2.1 -6.3 2.1 -9.4 0 -16.8 -13.7 -29.9 -29.9 -29.9 -9.4 0 -17.2 4.2 -23 11H585C579.8 35.4 571.9 31.3 562.5 31.3S545.2 35.4 540 42.2H332.8c-5.7 -6.8 -13.6 -10.9 -23 -10.9 -16.2 0 -29.8 13 -29.8 29.8 0 3.1 1 6.8 2.1 9.4L172.7 260.4C162.3 265.1 155 275 155 287.1c0 1 .5 2.1 .5 3.1l-104.1 180c-14.2 2.6 -24.6 14.6 -24.6 29.3 0 14.1 9.9 26.1 23.5 29.3L158.1 715c-1 3.2 -1.6 5.8 -1.6 9.4 0 14.2 10 26.2 23.6 28.8L281 928.5c-1 3.1 -2.1 6.8 -2.1 10.4 0 16.8 13.7 29.9 29.9 29.9 9.4 0 17.2 -4.2 22.5 -10.5H540c5.2 6.3 13.6 10.5 22.5 10.5s17.3 -4.2 22.5 -10.5h209.3c5.2 5.7 13 9.4 21.4 9.4 16.7 0 29.8 -13.6 29.8 -29.8 0 -3.2 -.5 -5.8 -1.5 -8.4L944.9 753.2c13.6 -2.6 23.6 -14.6 23.6 -28.8 0 -3.1 -.5 -6.2 -1.6 -9.4l107.3 -186.2c13.6 -2.6 24 -14.7 24 -29.3 0 -14.1 -9.9 -26.2 -23 -28.8zM299.9 880.3l-85.3 -148h85.3v148zm0 -163.7h-85.3c-.5 -2.1 -1.6 -4.2 -2.6 -6.3l87.9 -92.6v98.9zm0 -121.9l-98.4 104.1c-2.6 -1 -5.2 -2.6 -7.8 -3.1L84.9 507.3c1 -2.6 1 -5.2 1 -7.8s0 -4.7 -.5 -6.8L186.9 316.9c5.2 -.5 10.4 -2.1 15.1 -5.2l97.9 101.5v181.5zm0 -199.9l-89.5 -92.6c2.6 -4.1 4.2 -9.4 4.2 -15.1 0 -.5 -.5 -1.6 -.5 -2.1l85.8 -30.9v140.7zm0 -157.4l-85.3 30.8 85.3 -147.5v116.7zm637.7 76.4l1.6 2.6 -69.1 326.4L745.6 511.5 937.1 313.2l.5 .6zM569.8 693.6l22.5 23h-44.4l21.9 -23zm-.5 -22L406.6 504.7 562 339.9 724.2 511 569.3 671.6zm10.5 11.5L734.6 522.5l131.9 139.2 -11.6 54.9H612.7l-32.9 -33.5zM801.6 86.7c2.1 1.1 4.2 2.1 6.8 2.6l113 196.7v1.1c0 5.7 1.6 11 4.2 15.1L735.1 500 573 328.9 801.6 86.7zm-17.8 -4.2L562 317.4 450.5 199.7 775.4 82.5h8.4zm-241.2 0c5.2 5.3 12.1 8.4 19.9 8.4s14.6 -3.1 19.9 -8.4h146.5L439 187.2 339.6 82.5h203zm-227 11l2.1 -4.2a66.1 -66.1 0 0 1 5.2 -1.5l99.9 105.1 -107.2 38.7V93.5zm0 154.9l118.7 -42.9L551 328.9 395.6 493.2l-80 -82.1V248.4zm0 181l71.1 73.7L315.6 578V429.4zm0 171.6l82.1 -86.9 161.7 168 -33.5 34.5H315.6V601zm13.6 316.5c-3.2 -3.2 -6.8 -5.2 -11.5 -6.8l-2.1 -3.2V732.3h195.1L331.8 917.5h-2.6zm253.7 0c-5.2 -4.7 -12.6 -8.4 -20.4 -8.4s-15.2 3.7 -20.4 8.4H353.8L532.7 732.3h74.8l178.9 185.2H582.9zm234.4 -23l-8.4 14.6c-2.6 .5 -4.7 1.6 -6.8 2.6L627.9 732.3h223.4l-34 162.2zM842.4 851l25.1 -118.7h42.9l-68 118.7zm68 -134.4h-39.8l8.9 -41.3 33.5 35.5c-1 1.6 -2.1 3.7 -2.6 5.8zm129.2 -209.8L931.3 695.7c-2.6 1 -5.2 2.1 -7.8 3.6l-40.3 -42.9 67.5 -320.1 89.4 154.8c-.5 2.6 -1.5 5.2 -1.5 8.4 0 2.6 .5 4.7 1 7.3z"/></svg>