
  <svg height="1000" width="1125.0" xmlns="http://www.w3.org/2000/svg">
    <path d="m1075.2 470.7c13.1 2.6 23 14.7 23 28.8 0 14.6-10.4 26.7-24 29.3l-107.3 186.2c1.1 3.2 1.6 6.3 1.6 9.4 0 14.2-10 26.2-23.6 28.8l-100.9 176.3c1 2.6 1.5 5.2 1.5 8.4 0 16.2-13.1 29.8-29.8 29.8-8.4 0-16.2-3.7-21.4-9.4h-209.3c-5.2 6.3-13.6 10.4-22.5 10.4s-17.3-4.1-22.5-10.4h-208.7c-5.3 6.3-13.1 10.5-22.5 10.5-16.2 0-29.9-13.1-29.9-29.9 0-3.6 1.1-7.3 2.1-10.4l-100.9-175.3c-13.6-2.6-23.6-14.6-23.6-28.8 0-3.6 0.5-6.2 1.6-9.4l-107.8-186.2c-13.6-3.2-23.5-15.2-23.5-29.3 0-14.7 10.4-26.7 24.6-29.3l104.1-180c0-1-0.5-2.1-0.5-3.1 0-12.1 7.3-22 17.7-26.7l109.4-189.9c-1.1-2.6-2.1-6.3-2.1-9.4 0-16.8 13.6-29.8 29.8-29.8 9.4 0 17.3 4.1 23 10.9h207.2c5.2-6.8 13.1-10.9 22.5-10.9s17.3 4.1 22.5 10.9h208.2c5.8-6.8 13.6-11 23-11 16.2 0 29.8 13.1 29.8 29.9 0 3.1-1 6.2-2 9.4l108.3 187.3c15.6 0.5 28.7 13.6 28.7 29.3 0 5.2-1.5 9.9-3.6 14.1z m-775.3 409.6v-148h-85.3z m0-163.7v-98.9l-87.9 92.6c1 2.1 2.1 4.2 2.6 6.3h85.3z m0-121.9l0-181.5-97.9-101.5c-4.7 3.1-9.9 4.7-15.1 5.2l-101.5 175.8c0.5 2.1 0.5 4.2 0.5 6.8 0 2.6 0 5.2-1 7.8l108.8 188.4c2.6 0.5 5.2 2.1 7.8 3.1z m0-199.9v-140.7l-85.8 30.9c0 0.5 0.5 1.6 0.5 2.1 0 5.7-1.6 11-4.2 15.1z m0-157.4v-116.7l-85.3 147.5z m637.7 76.4l-0.5-0.6-191.5 198.3 124.5 131.3 69.1-326.4z m-367.8 379.8l-21.9 23h44.4z m-0.5-22l154.9-160.6-162.2-171.1-155.4 164.8z m10.5 11.5l32.9 33.5h242.2l11.6-54.9-131.9-139.2z m221.8-596.4l-228.6 242.2 162.1 171.1 190.5-197.8c-2.6-4.1-4.2-9.4-4.2-15.1v-1.1l-113-196.7c-2.6-0.5-4.7-1.5-6.8-2.6z m-17.8-4.2h-8.4l-324.9 117.2 111.5 117.7z m-241.2 0h-203l99.4 104.7 289.9-104.7h-146.5c-5.3 5.2-12.1 8.4-19.9 8.4s-14.7-3.2-19.9-8.4z m-227 11v138.1l107.2-38.7-99.9-105.1c-1.7 0.5-3.5 1.1-5.2 1.5z m0 154.9v162.7l80 82.1 155.4-164.3-116.7-123.4z m0 181v148.6l71.1-74.9z m0 171.6v115.6h210.3l33.5-34.5-161.7-168z m13.6 316.5h2.6l178.9-185.2h-195.1v175.2l2.1 3.2c4.7 1.6 8.3 3.6 11.5 6.8z m253.7 0h203.5l-178.9-185.2h-74.8l-178.9 185.2h188.3c5.2-4.7 12.6-8.4 20.4-8.4s15.2 3.7 20.4 8.4z m234.4-23l34-162.2h-223.4l174.2 179.4c2.1-1 4.2-2.1 6.8-2.6z m25.1-43.5l68-118.7h-42.9z m68-134.4c0.5-2.1 1.6-4.2 2.6-5.8l-33.5-35.5-8.9 41.3h39.8z m129.2-209.8c-0.5-2.6-1-4.7-1-7.3 0-3.2 1-5.8 1.5-8.4l-89.4-154.8-67.5 320.1 40.3 42.9c2.6-1.5 5.2-2.6 7.8-3.6z" />
  </svg>
