<svg height="1000" width="1000" xmlns="http://www.w3.org/2000/svg"><path d="M88.7 595.7c28.1 131.1 51.5 252 133.2 341.8H66.4C29.9 937.5 0 907.8 0 871.1V128.9C0 92.4 29.7 62.5 66.4 62.5h112.7c-27 24.6 -51 53.1 -72.1 85.2C18.4 284.4 54.3 434.4 88.7 595.7zM933.6 62.5H757.4c41.8 41.8 76.6 96.7 103 164.3L592.6 284C563.5 227.3 518.8 179.9 431.3 198.2c-48.1 10.4 -80.1 37.7 -94.4 67.6 -17.2 36.5 -25.8 77.8 16 274 41.2 195.7 65.9 229.9 96.7 256.3 25.2 21.7 65.2 33.2 113.9 22.8C650.4 800.6 672.3 739.5 675.6 676l268.3 -57.8c6.3 139.6 -36.5 244.5 -112.1 319.5h101.8c36.5 0 66.4 -29.7 66.4 -66.4V128.9c0 -36.7 -29.7 -66.4 -66.4 -66.4z"/></svg>