
  <svg height="1000" width="1000.0" xmlns="http://www.w3.org/2000/svg">
    <path d="m88.7 595.7c28.1 131.1 51.5 252 133.2 341.8h-155.5c-36.5 0-66.4-29.7-66.4-66.4v-742.2c0-36.5 29.7-66.4 66.4-66.4h112.7c-27 24.6-51 53.1-72.1 85.2-88.6 136.7-52.7 286.7-18.3 448z m844.9-533.2c36.7 0 66.4 29.7 66.4 66.4v742.4c0 36.7-29.9 66.4-66.4 66.4h-101.8c75.6-75 118.4-179.9 112.1-319.5l-268.3 57.8c-3.3 63.5-25.2 124.6-112.1 142.9-48.7 10.4-88.7-1.1-113.9-22.8-30.8-26.4-55.5-60.6-96.7-256.3-41.8-196.2-33.2-237.5-16-274 14.3-29.9 46.3-57.2 94.4-67.6 87.5-18.3 132.2 29.1 161.3 85.8l267.8-57.2c-26.4-67.6-61.2-122.5-103-164.3h176.2z" />
  </svg>
