
  <svg height="1000" width="1000.0" xmlns="http://www.w3.org/2000/svg">
    <path d="m926.4 645.3h49.2c-50.4 214.4-217.6 339.1-468.1 339.1-302 0.6-484.1-181.4-484.1-484.8 0-302 181.7-484 484.1-484 250.7 0 418 124.1 469.1 339.1h-49.4c-48.5-186.7-195.1-290.6-419.3-290.6-277 0-435.9 158.9-435.9 435.9 0 269.4 149.7 425.8 412.3 435.5v-96c0-94.1-51.9-145.3-145.6-145.3-121.4 0-194.2-72.9-194.2-194.2 0-119.9 71.4-192 190.2-193.5 60.1-126.2 281.7-135.4 346.2 0 118.8 1.5 190.2 73.6 190.2 193.5 0 121.1-72.7 193.8-193.8 193.8-93.7 0-145.2 51.5-145.2 145.3v96c210.2-7.4 348.1-110.4 394.3-289.8z m-229.1-289.2c7.4 41.2 22 203.5-140.2 235.9 23.9 34.6 64.4 53.3 120.2 53.3 93.7 0 145.4-51.6 145.4-145.3 0-87.2-44.6-137.1-125.4-143.9z m-159.6 190.2c142.2-19.3 114.3-169.8 109.9-189.5-141.8 19.5-114.7 169.3-109.9 189.5z m-29.9-288.5l-0.3 0.5c-55.3 0-96.1 18.9-120.3 53.4 55.4 10.7 96.4 40.3 120.3 84.9 23.9-44.6 64.9-74.2 120.3-84.9-24.3-35-64.1-53.9-120-53.9z m-139.7 99.1h0.5c-5.4 19.6-31.6 170.2 109.9 189.4 4.7-19.9 32.5-168.8-110.4-189.4z m-29.8 288.4l0.6 0c55.3 0 95.7-18.9 119.4-53.3-142.6-27.8-153.1-163.2-139.9-235.9-80.8 7.2-125.4 57.3-125.4 143.9 0 93.8 51.5 145.3 145.3 145.3z m103.9 24.2h0.5c28.3 14.9 50 37.8 65.6 66.1 14.7-28.2 37.5-51.2 65.6-66.1-28.3-15.6-50.9-37.2-66.1-65.5-14.8 28-37.6 50.7-65.6 65.5z" />
  </svg>
