
  <svg height="1000" width="968.8" xmlns="http://www.w3.org/2000/svg">
    <path d="m483.6 15.6c276.9 0 485.2 215.1 485.2 484.4 0 287.3-231.5 484.4-485.2 484.4-261.7 0-483.6-213.9-483.6-484.4 0-259.6 204.5-484.4 483.6-484.4z m1.6 87.3c-230.9 0-397.9 191.2-397.9 397.1 0 214.5 178.1 396.1 397.9 396.1 201.5 0 396.1-158.4 396.1-396.1 0.1-222.3-176.2-397.1-396.1-397.1z m-216.3 328.7c25.4-163.8 157.3-186.9 212.7-186.9 195 0 249.1 161.2 249.1 262.1 0 124.3-80.1 259.6-251.8 259.6-76 0-193.5-39.1-213.7-189.4h122.1c2.9 58.7 38.3 88.2 106.5 88.2 45.5 0 113.2-35.5 113.2-161.7 0-161.1-95.9-157.4-110.7-157.4-64.7 0-101 28.5-109 85.5h35.6l-96.1 96.1-95.7-96.1h37.8z" />
  </svg>
