
  <svg height="1000" width="968.8" xmlns="http://www.w3.org/2000/svg">
    <path d="m480.1 419.7l-64.8 33.7c-18.5-38.2-49.3-38.9-53.7-38.9-43.2 0-64.9 28.5-64.9 85.6 0 46.1 18 85.6 64.9 85.6 28.3 0 48.2-13.8 59.7-41.5l59.7 30.3c-12.1 22.5-50.2 76.1-127.2 76.1-44.1 0-144.4-20.1-144.4-150.5 0-114.6 84-150.5 141.8-150.5 60 0 103 23.4 128.9 70.1z m279.4 0l-64 33.7c-18.5-38.6-50.2-38.9-54.5-38.9-43.2 0-64.9 28.5-64.9 85.6 0 46 18.1 85.6 64.9 85.6 28.2 0 48.2-13.8 59.7-41.5l60.5 30.3c-4.1 7.3-41.8 76.1-127.1 76.1-44.3 0-144.5-19.3-144.5-150.5 0-114.6 84-150.5 141.9-150.5 60 0 102.7 23.4 128 70.1z m-276-404c277 0 485.3 215.1 485.3 484.4 0 287.4-231.5 484.4-485.3 484.4-261.6 0-483.5-213.9-483.5-484.4 0-259.6 204.6-484.4 483.5-484.4z m1.7 880.5c201.5 0 396.2-158.4 396.2-396.1 0-222.3-176.4-397-396.1-397-231.1 0-397.9 191.1-397.9 397 0 214.4 178 396.1 397.8 396.1z" />
  </svg>
