
  <svg height="1000" width="968.8" xmlns="http://www.w3.org/2000/svg">
    <path d="m483.6 15.6c276.9 0 485.2 215.1 485.2 484.4 0 287.3-231.5 484.4-485.2 484.4-261.7 0-483.6-213.9-483.6-484.4 0-259.6 204.5-484.4 483.6-484.4z m1.6 87.3c-230.9 0-397.9 191.2-397.9 397.1 0 214.5 178.1 396.1 397.9 396.1 201.5 0 396.1-158.4 396.1-396.1 0.1-222.3-176.2-397.1-396.1-397.1z m-0.8 118.2c159.9 0 200.2 151 200.2 278.9s-40.3 278.9-200.2 278.9-200.2-151-200.2-278.9 40.2-278.9 200.2-278.9z m0 105.3c-82.3 0-86.2 117.4-86.2 173.6 0 18.2 0.4 42.4 3.8 67.2l106.4-195.7c11.1-19.2 5.5-32.8-6.1-42.8-5.4-1.4-11.5-2.3-17.9-2.3z m79.7 90.2l-119 205.5c-24.4 36.5 12.9 51.5 39.3 51.5 82.2 0 86.1-117.2 86.1-173.6 0-22.1-0.8-53.3-6.4-83.4z" />
  </svg>
