
  <svg height="1000" width="968.8" xmlns="http://www.w3.org/2000/svg">
    <path d="m483.6 15.6c276.9 0 485.2 215.1 485.2 484.4 0 287.3-231.5 484.4-485.2 484.4-261.7 0-483.6-213.9-483.6-484.4 0-259.6 204.5-484.4 483.6-484.4z m1.6 87.3c-230.9 0-397.9 191.2-397.9 397.1 0 214.5 178.1 396.1 397.9 396.1 201.5 0 396.1-158.4 396.1-396.1 0.1-222.3-176.2-397.1-396.1-397.1z m315.8 405.7l9.5 4.3v136.7c-14 7-123.8 53.7-131.4 56.3-12.7-3.6-222.1-91.4-268.2-109.8l-125.4 51.9-123.6-53.7v-124.6l115.8-48.4c-1.3-1.4-0.7 9.8-0.7-137.5l131.4-58 296.7 122.8v120.3z m-137.5 159.2v-85.6h-0.8v-3.5l-222.3-90.8v88.3l222.3 91.6v-0.8z m14.6-112.5l78-32.1-71.9-30.2-76.2 32z m102.2 74.4v-84l-86.5 36.3v84.8z" />
  </svg>
