
  <svg height="1000" width="968.8" xmlns="http://www.w3.org/2000/svg">
    <path d="m483.8 15.6c275 0 485 213.3 485 484.4 0 287.5-230.7 484.4-485 484.4-265.4 0-483.8-218-483.8-484.4 0-256.2 202.3-484.4 483.8-484.4z m1.2 880.3c230.6 0 339.2-187.7 342.1-192l-158.2-70.5v69.7h-125.3v109.4h-120.6v-109.4h-124.6v-75.6h124.6v-36.5l-11.1-23h-113.5v-75.4h54.5l-248-110.4c-11.7 37.3-17.6 76.6-17.6 117.8 0 215.2 178.9 395.9 397.7 395.9z m171.1-268.2l-106.9-47.4-5.6 10.9v36.5h112.5z m12.7-100.4l197.2 88.1c10.2-35.9 15.4-74.2 15.4-115.2 0-221.5-176.1-397.3-396.4-397.3-178 0-285 105.5-339.3 191.6l160 71.3-53.4-99.6h128.6l77.3 167.4 44.9 19.9 84.8-187.5h128.5l-123 226.6h75.4v34.7z" />
  </svg>
