<svg height="1000" width="968.8" xmlns="http://www.w3.org/2000/svg"><path d="M480.1 419.7l-64.8 33.7C396.8 415.2 366 414.5 361.6 414.5c-43.2 0 -64.9 28.5 -64.9 85.6 0 46.1 18 85.6 64.9 85.6 28.3 0 48.2 -13.8 59.7 -41.5l59.7 30.3c-12.1 22.5 -50.2 76.1 -127.2 76.1 -44.1 0 -144.4 -20.1 -144.4 -150.5 0 -114.6 84 -150.5 141.9 -150.5 60 0 102.9 23.4 128.8 70.1zm279.4 0l-64 33.7C677 414.8 645.3 414.5 641 414.5c-43.2 0 -64.9 28.5 -64.9 85.6 0 46 18.1 85.6 64.9 85.6 28.2 0 48.2 -13.8 59.7 -41.5l60.5 30.3c-4.1 7.3 -41.8 76.1 -127.1 76.1 -44.3 0 -144.5 -19.3 -144.5 -150.5 0 -114.6 84 -150.5 141.9 -150.5 60 0 102.7 23.4 128 70.1zm-276 -404C204.6 15.7 0 240.4 0 500.1c0 270.5 221.9 484.4 483.5 484.4 253.8 0 485.3 -197 485.3 -484.4C968.8 230.8 760.5 15.7 483.5 15.7zm1.7 880.5C265.4 896.2 87.4 714.5 87.4 500.1c0 -205.9 166.8 -397 397.9 -397 219.7 0 396.1 174.7 396.1 397 0 237.7 -194.7 396.1 -396.2 396.1z"/></svg>