
  <svg height="1000" width="968.8" xmlns="http://www.w3.org/2000/svg">
    <path d="m483.6 15.6c276.9 0 485.2 215.1 485.2 484.4 0 287.3-231.5 484.4-485.2 484.4-261.7 0-483.6-213.9-483.6-484.4 0-259.6 204.5-484.4 483.6-484.4z m1.6 87.3c-230.9 0-397.9 191.2-397.9 397.1 0 214.5 178.1 396.1 397.9 396.1 201.5 0 396.1-158.4 396.1-396.1 0.1-222.3-176.2-397.1-396.1-397.1z m197.2 258.6c15.3 0 26.8 11.9 26.8 26.8v356.4c0 15.1-11.9 26.8-26.8 26.8h-263.8c-15.1 0-26.8-11.7-26.8-26.8v-105.4h-105.5c-15.2 0-26.7-11.8-26.7-26.8v-356.4c0-16.1 12.9-24.8 24.2-26.8h266.4c15 0 26.8 11.7 26.8 26.8v105.4h105.4z m-370.1 225h79.5v-198c0-14.5 11.3-24.6 23.4-26.8h109v-78.7h-211.9v303.5z m344.1-172h-211.9v303.5h211.9v-303.5z" />
  </svg>
