
  <svg height="1000" width="968.8" xmlns="http://www.w3.org/2000/svg">
    <path d="m484.4 15.6c267.6 0 484.4 217 484.4 484.4 0 267.6-216.8 484.4-484.4 484.4s-484.4-216.8-484.4-484.4c0-267.4 216.8-484.4 484.4-484.4z m0 878c148.6 0 278.1-82.9 345.1-204.7-2.7-0.6 24.4 11.3-425.6-189.1 0.4 62.5 31.5 140.4 105.3 140.4 36.5 0 60.1-20.3 70.9-32.6l70.5 85.8c-50.6 44.5-110.4 57.6-155.1 57.6-90.8 0-235.1-54.5-235.1-247.9 0-22.2 2.3-43.7 6.4-64.2l-153.9-68.6c-89.1 253.7 99.6 523.3 371.5 523.3z m379.3-293c0.4 0.4 0.6 0.6 1.1 0.8 8.6-32.5 13.3-66.4 13.3-101.6 0-217-176.5-393.5-393.5-393.5-137.5 0-258.6 70.8-329.1 178.1l146.3 65.2c38.6-60.7 104.1-100.8 196.6-100.8 39.3 0 99.6 8.2 152.6 53.7l-78.9 81.3c-38.7-38.5-109.2-44.9-145.9 21.5z" />
  </svg>
