<svg height="1000" width="968.8" xmlns="http://www.w3.org/2000/svg"><path d="M483.6 15.6c276.9 0 485.2 215.1 485.2 484.4 0 287.3 -231.5 484.4 -485.2 484.4C221.9 984.4 0 770.5 0 500 0 240.4 204.5 15.6 483.6 15.6zm1.6 87.3C254.3 102.9 87.3 294.1 87.3 500c0 214.5 178.1 396.1 397.9 396.1 201.5 0 396.1 -158.4 396.1 -396.1C881.4 277.7 705.1 102.9 485.2 102.9zm208.9 401.6c-9.1 0 -17.5 5.5 -20.9 14.1l-7.8 18.5L643.9 355.9c-3.3 -27.2 -42.9 -26.2 -45.1 .7L590.4 457 580.3 322.7c-2.2 -28 -43.2 -27.8 -45.3 0l-6.9 87.7L516.6 226.2c-1.8 -28.3 -43.6 -28.2 -45.3 0l-10 163.4 -8.4 -129.4c-1.7 -28.2 -43.3 -28.2 -45.3 0l-10.3 156.6 -8 -111.3c-2.2 -28 -43 -28 -45.4 -.4l-15 175.4 -3.5 -23.9c-3.3 -22.2 -33.4 -26.5 -43 -6.4l-25.8 54.1h-85.7v45.3h100.2c8.6 0 16.4 -4.9 20.3 -12.5l20.9 142.8c3.9 26.4 42.8 25.4 45.1 -1.4l7.4 -85.1L376 746.3c2.1 28.1 43.5 27.7 45.3 -.2l9 -137.5 9.3 143.2c1.8 28.1 43.6 28.1 45.4 -.2l9.5 -157.3 8.8 140.3c1.8 27.9 43.2 28.3 45.3 .4l9 -114.5 9.6 125.8c2.1 27.9 43 27.7 45.1 .2l13.3 -162.1 5.3 43.5c2.7 23.1 34.5 27.6 43.5 6.1l35.2 -84.8h98.6v-45.3l-114.1 .6zm-152.3 10.1H499v42.8c0 8 -6.4 14.7 -14.6 14.7 -8 0 -14.7 -6.5 -14.7 -14.7v-42.8H427c-8.1 0 -14.7 -6.4 -14.7 -14.6 0 -8 6.6 -14.6 14.7 -14.6h42.7v-42.8c0 -8 6.7 -14.7 14.7 -14.7s14.6 6.5 14.6 14.7v42.8h42.8c8 0 14.6 6.4 14.6 14.6 0 8 -6.6 14.6 -14.6 14.6z"/></svg>