
  <svg height="1000" width="968.8" xmlns="http://www.w3.org/2000/svg">
    <path d="m483.6 15.6c276.9 0 485.2 215.1 485.2 484.4 0 287.3-231.5 484.4-485.2 484.4-261.7 0-483.6-213.9-483.6-484.4 0-259.6 204.5-484.4 483.6-484.4z m1.6 880.5c201.5 0 396.1-158.4 396.1-396.1 0.1-222.3-176.2-397.1-396.1-397.1-230.9 0-397.9 191.2-397.9 397.1 0 214.5 178.1 396.1 397.9 396.1z m133.4-532.8c41.8 0 136.7 10.1 136.7 134 0 124-94.9 134-136.7 134h-104v-268h104z m1.5 211.9c46.9 0 67.4-29.9 67.4-77.9 0-82.1-60.9-78-68.4-78l-37.9 0.2v155.7h38.9z m-222.2-211.9c65.8 0 98.6 30.3 98.6 90.8 0 17.6-5.9 90.8-111.5 90.8h-52.8v86.5h-67.6v-268.1h133.3z m-9.6 131.4c54.5 0 58.6-81.2-1.8-81.2h-55.3v81.2h57.1z" />
  </svg>
