<svg height="1000" width="968.8" xmlns="http://www.w3.org/2000/svg"><path d="M483.8 15.6C202.3 15.6 0 243.8 0 500c0 266.4 218.4 484.4 483.8 484.4 254.3 0 485 -196.9 485 -484.4 0 -271.1 -210 -484.4 -485 -484.4zm1.2 880.3C266.2 895.9 87.3 715.2 87.3 500c0 -41.2 5.9 -80.5 17.6 -117.8l248 110.4h-54.5V568h113.5l11.1 23v36.5H298.4v75.6H423v109.4h120.6V703.1h125.3v-69.7l158.2 70.5c-2.9 4.3 -111.5 192 -342.1 192zM656.1 627.7H543.6v-36.5l5.6 -10.9 106.9 47.4zm12.7 -100.4v-34.7h-75.4L716.4 266H587.9l-84.8 187.5 -44.9 -19.9L380.9 266.2H252.3l53.4 99.6 -160 -71.3C200 208.4 307 102.9 485 102.9c220.3 0 396.4 175.8 396.4 397.3 0 41 -5.2 79.3 -15.4 115.2L668.8 527.3z"/></svg>