<svg height="1000" width="968.8" xmlns="http://www.w3.org/2000/svg"><path d="M483.8 15.6C202.3 15.6 0 243.8 0 500c0 266.2 218.2 484.4 483.8 484.4 254.3 0 485 -197.1 485 -484.4C968.8 228.5 758.6 15.6 483.8 15.6zm1.2 880.3C266.2 895.9 87.3 715.2 87.3 500c0 -45.3 7.2 -88.3 21.3 -128.9l128.3 56.8h-9.2v57.6h45.5c0 12.2 -.7 6.3 -.7 38.1h-44.6v57.7h52.8C302.9 712.1 411.9 779.1 524 779.1c52 0 98.9 -15.4 126.6 -30.9l-19.5 -90c-17 9 -55.1 21.1 -92.4 21.1 -55.1 0 -113.5 -21.3 -131.5 -98h176.4l250.6 110.9C831.3 696.3 724.4 895.9 485 895.9zM452.3 523.6l-.9 -.7 1.7 .7h-.8zm150.8 -38.1h7.3v-57.6H473l-55.8 -24.6c4.9 -10.7 10.5 -20.5 17.2 -27.9 25.2 -30.9 60.7 -43.8 99.8 -43.8 35.7 0 68.9 10.6 90 19.6l22.7 -92.4C617.6 245.9 574.6 234.6 525.2 234.6c-76.2 0 -141 30.8 -187.3 82.6 -10.4 11.9 -19.1 25.2 -27.2 39.2L151.4 285.9c126.1 -189 308 -182.8 333.4 -182.8 220.7 0 396.5 176.2 396.5 397.3 0 36.5 -4.2 70.9 -12.4 103.3L603.1 485.5z"/></svg>