
  <svg height="1000" width="968.8" xmlns="http://www.w3.org/2000/svg">
    <path d="m483.6 15.6c276.9 0 485.2 215.1 485.2 484.4 0 287.3-231.5 484.4-485.2 484.4-261.7 0-483.6-213.9-483.6-484.4 0-259.6 204.5-484.4 483.6-484.4z m1.6 87.3c-230.9 0-397.9 191.2-397.9 397.1 0 214.5 178.1 396.1 397.9 396.1 201.5 0 396.1-158.4 396.1-396.1 0.1-222.3-176.2-397.1-396.1-397.1z m7 103.9c5.5-0.6 22.4 2 22.4 22.5l12.9 209.4 9.6-115.9c0-11.7 9.2-20.7 20.7-20.7 11.5 0 20.7 9.2 20.7 20.7 0 4.9-1-11.1 11.1 159.2l11.4-125.4c0.6-5.6 5.6-18.1 19.9-18.1 7.4 0 19.3 4.5 20.7 17.4l22.5 188.4 10.3-25c3.5-8.6 10.2-12.9 19.9-12.9h113.3v41.6h-99.4l-35.5 86.6c-7.7 19.3-38.1 17.7-40.7-6.1l-7.8-62.3-14.6 180.9c-0.6 5.8-5.9 18.1-20 18.1-5.8 0-19.1-4.1-20.7-18.1 0-3.7 1.2 11.3-12.1-152.2l-10.3 141c-2.2 9.4-9.4 18.2-20.7 18.2-5.7 0-19.2-3.9-20.7-18.2 0-3.7 1 13.1-11.4-171.3l-11.3 185.2c0 12.3-7 24.2-20.7 24.2-10.1 0-20.7-8-20.7-23.4l-11.3-171.3c-11.3 180.7-10.4 164.1-10.4 167.8-2.1 9.3-9.3 18.1-20.7 18.1-5.8 0-19.1-4.1-20.7-18.1 0-1.4-0.8-2.2-0.8-5.1l-12.1-173.1-9.5 110.8c-1.4 12.7-13.1 18.1-20.7 18.1-11.4 0-18.8-8-20.7-17.3l-21.7-149.3c-3.9 7.9-6.9 16.5-21.7 16.5h-100.4v-41.6h87.5l26.8-54.5c8.6-19.4 35.5-14.1 38.8 5.2l6.1 39.9 16.4-191.2c0-11.8 9.4-20.7 20.7-20.7 1 0 20.7-0.4 20.7 24.2l9.6 134.9 12.9-180.8c0-19.7 18.5-20.7 19.9-20.7 1.2 0 20.7 1.3 20.7 20.7l10.3 157.4 12.2-191.2c0.1-2.2-1.2-20.1 19.3-22.5z" />
  </svg>
