<svg height="1000" width="968.8" xmlns="http://www.w3.org/2000/svg"><path d="M484.4 15.6C216.8 15.6 0 232.6 0 500c0 267.6 216.8 484.4 484.4 484.4S968.8 767.6 968.8 500C968.8 232.6 752 15.6 484.4 15.6zm0 878C212.5 893.6 23.8 624 112.9 370.3l153.9 68.6c-4.1 20.5 -6.4 42 -6.4 64.2 0 193.4 144.3 247.9 235.1 247.9 44.7 0 104.5 -13.1 155.1 -57.6l-70.5 -85.8c-10.8 12.3 -34.4 32.6 -70.9 32.6 -73.8 0 -104.9 -77.9 -105.3 -140.4 450 200.4 422.9 188.5 425.6 189.1C762.5 810.7 633 893.6 484.4 893.6zm379.3 -293L426.2 405.3c36.7 -66.4 107.2 -60 145.9 -21.5L651 302.5C598 257 537.7 248.8 498.4 248.8c-92.5 0 -158 40.1 -196.6 100.8L155.5 284.4C226 177.1 347.1 106.2 484.6 106.2c217 0 393.5 176.6 393.5 393.6 0 35.2 -4.7 69.1 -13.3 101.6 -.5 -.2 -.7 -.4 -1.1 -.8z"/></svg>