
  <svg height="1000" width="968.8" xmlns="http://www.w3.org/2000/svg">
    <path d="m483.8 15.6c274.8 0 485 212.9 485 484.4 0 287.3-230.7 484.4-485 484.4-265.6 0-483.8-218.2-483.8-484.4 0-256.2 202.3-484.4 483.8-484.4z m1.2 880.3c239.4 0 346.3-199.6 349.2-203.7l-250.6-111h-176.4c18 76.8 76.4 98.1 131.5 98.1 37.3 0 75.4-12.1 92.4-21.1l19.5 90c-27.7 15.5-74.6 30.9-126.6 30.9-112.1 0-221.1-67-243.3-197.9h-52.8v-57.6h44.6c0-31.8 0.7-25.9 0.7-38.1h-45.5v-57.6h9.2l-128.3-56.8c-14.1 40.6-21.3 83.6-21.3 128.9 0 215.2 178.9 395.9 397.7 395.9z m-32.7-372.3l-0.9-0.7 1.7 0.7h-0.8z m150.8-38.1l265.8 118.2c8.2-32.4 12.4-66.8 12.4-103.3 0-221.1-175.8-397.3-396.5-397.3-25.4 0-207.3-6.2-333.4 182.8l159.3 70.5c8.1-14 16.8-27.3 27.2-39.2 46.3-51.8 111.1-82.6 187.3-82.6 49.4 0 92.4 11.3 121.7 24.2l-22.7 92.4c-21.1-9-54.3-19.6-90-19.6-39.1 0-74.6 12.9-99.8 43.8-6.7 7.4-12.3 17.2-17.2 27.9l55.8 24.6h137.4v57.6h-7.3z" />
  </svg>
