
  <svg height="1000" width="875.0" xmlns="http://www.w3.org/2000/svg">
    <path d="m441.1 0c0.5 0.3 422.9 243.2 424 243.6 5.9 2.3 7.2 6.8 7.2 12.8-0.1 163-0.1 326 0 489 0.1 0.3 0.1 0.6 0.1 0.9 0 4.6-2.7 8.6-6.7 10.4-41.7 23.4-405.9 231-427.6 243.3h-5.8c-155-89.2-426.3-245-426.6-245.2-2.2-1-3.7-3.2-3.7-5.8 0-0.2 0-0.3 0-0.5 0-1.7 0-441.3 0-494.3-0.1-0.3-0.1-0.5-0.1-0.8 0-3.9 2.4-7.3 5.8-8.9 45.4-25.5 408.7-232.8 429.9-244.5h3.5z m-20.4 39.9l-0.4-0.3c-126.5 72-252.9 144-379.3 216 0 0.2 0.2 0.5 0.3 0.7l60.2 22.7c-15 11.7-16.2 11.7-20.8 10-0.2 0-47.2-18.1-52.3-19.5v450.1c1.7-2.8 125.1-216.6 125.3-216.8 3.1-5.5 5.8-3.8 17.8-3 2.7 0.2 2.9 0.4 1.5 2.8-80.5 139.3-71.1 123-131.8 228.4-1.6 2.7-1.2 2.2 2.4 2.2h364.3c2.8 0 3.3-0.5 3.3-3.2v-17.4c0-2.6 4.6-1.5-35.9-1.9-14.5-0.2-27.6-6.3-41.7-24.8-14.4-18.9-28.6-38-42.7-57.1-4.5-6-6.7-4.6-32.7-4.6-3.5 0-3.5 0-3.5 3.5 0.6 51.2 0.3 49.4 2 63.8 1 8.6 4.2 8.2 18.9 9.4 6.1 0.5 7.6 8 1 9.6-3 0.8-61.7 1-65.7-0.2-2-0.5-3.5-2.3-3.5-4.5 0-2.4 1.8-4.4 4-4.7 6.5-1.5 12.1 1.6 13.1-8.7 2.5-26.7 2.2-17.6 2.1-155.1 0-21.1-0.7-24.6-10.5-26.5-2.3-0.4-6.9-0.3-9.1-1-5.7-2-3.9-9.5 3.4-9.5 65.8 0 90-2.1 109.5 9.5 15.1 9 23.5 22.4 24.5 39.8 1.7 28.5-12.8 43.7-29.3 63.7-0.7 0.5-1 1.3-1 2.2s0.3 1.6 1 2.1c5 6.4 9.7 13 15 19.2 53.8 64.9 47.1 59.7 80.6 64.6 1.8 0.2 2-0.8 2-2.3v-21.4c0-2 0.6-2.8 2.8-2.5 6.9 1.1 14.1 1.6 21.3 1.6 8.5 0 16.6-0.7 24.7-2.2 2.1-0.3 2.9 0.4 2.9 2.6 0 0.2 1.7 52.1 1.7 52.4-0.1 2.9 1.3 3.1 3.7 3.1h364.7c-53.1-91.8-106-183.5-158.7-275 4.4-1.3-0.8 0 13-2.7 4-0.8 4.1-0.8 6.1 2.8 14.3 24.7 151 261.7 151.1 261.8v-450.1c-3.3 1-201.7 75.7-206.5 77.5-2.1 0.9-3.1 0.4-3.8-1.7-1.2-3.7-2.6-7.3-4-11-0.7-1.5-0.2-2.2 1.2-2.7 0.2 0 186.6-70 201.2-75.7-127.8-73.4-255-146.5-382.8-219.9l169.6 293.7-0.6 0.7c-18.7-1.8-20.4-3.2-23-7.7-2-3.3-143.6-249.5-160.2-277.7-17.8 28.7-163.2 285.6-166.7 285.8-5.8 0.3-11.5 0.1-18.1 0.1 56.3-97.3 112.4-194.3 168.3-291z m101.4 253.7c3.7-0.2 7.3-0.8 10.9-1.6 3.3-0.6 4.9 0.4 5 3.7 0 0.2 0.2 37.3-1.6 40-1.9 2.7-3.7 2.4-5.1-0.4-9.8-18.9 12.1-18.9-76.4-23.4-1.4 0-2 0.4-2 1.8 0 0.2 7.3 238.3 7.3 238.5 0 1.7 1 2.3 2.4 2.9 5.8 2.3 11.5 5 17 7.9 14.2 8.5 22.2 21.2 24.2 37.7 2.8 23.1-5.4 69.9-62.9 72.6-5.4 0.2-55.2 2.1-66.7-45.4-9.1-37.6 16.1-63.9 38.8-71.1 2.3-0.4 4-2.4 4-4.7 0-0.2 0-0.4 0-0.5 0.2-11 5.8-209.2 7.2-237 0.1-2.1-1.2-2.3-2.6-2.3-63.2 1-71.8-0.6-78.6 16.7-4.7 12-8.1 2.5-7.7 0.4 2.1-11.7 4.2-23.4 6.5-35.1 0.7-4.2 2.8-5.1 6.7-3.7 10.9 4.1 13.1 3.3 72.7 3.8 3.4 0 3.5-0.2 3.6-3.6 1.3-53.7 1.1-44.2 1.9-57.7 0-0.3 0.1-0.5 0.1-0.7 0-2.2-1.4-4-3.3-4.8-10.9-5.7-17.1-14.8-17.3-27.1-0.7-28.9 34.6-42.3 53.4-22.5 13.4 14.1 11.4 36.9-4.8 47.2-2.6 1.4-4.4 4.2-4.4 7.4 0 0.4 0.1 0.7 0.1 1.1 0 1.1-0.2-8.5 2 58.6 0 1.8 0.8 2.2 2.4 2.2 0.2 0 44.9-0.2 67.3-0.7z m-388.8-16.8c38.8-8.8 63.9-1.1 102.6 3.3 5.4 0.6 7.3 2.3 7 7.8-0.4 9.7-2.2 43.6-2.4 45.2-0.1 2.1-1.4 3.8-3.2 4.6-7.9 3.3-7-8.7-7.8-14.3-6.1-43.8-144.3-63.8-145.7 49.6-0.7 46.7 33.2 104.8 105.6 99.4 53.2-3.9 37.1-39.4 48.5-40 0.2 0 0.5 0 0.7 0 2.9 0 5.3 2.4 5.3 5.3 0 0.4 0 0.9-0.1 1.3-3.6 21.2-6.7 37-6.8 37.4-3 17.9-169.3 43.1-182.3-82.2-5.3-50.4 20.4-104.2 78.6-117.4z m156.3 171.2h-38.1c-0.1 0-0.2 0-0.4 0-2.2 0-4.1-1.5-4.8-3.5 4.7-7.3 11.5 1.8 11.5-12-0.2-50.3 0.4-74.2 0.4-78.3 0-6.7-1-9.1-6.5-9.7-13.6-1.4-6-6.5-2.1-6.6 23.1-0.2 44.2-0.3 58.7 1.4 17.1 2.1 32.6 24.7 15.5 44.2-4 4.4-7.9 8.7-12 13.2 1.8 2.2 13.4 17.2 33.7 38.4 5.2 5.4 12 6.9 19.3 6.1h0c2.4 0 4.3-1.8 4.4-4.1 0.5-6.7 0.5 9.2 0.8-79.3 0-11-0.6-12.8-6.3-13.3-7.7-0.7-7.8-4.4-1.3-6.6l37.3-0.2c0.6 0 8.7 1.1 1.9 6.6 0 0.1-0.3 0-0.4 0-7.1 0.5-7.7 2-7.9 9-0.5 85.8 0.2 78.6 0.8 83.7 0.3 1.6 0.6 4.3 10 4.2 4.9 0 7.5 6.5 0 6.6-20.2 0.2-40.5 0-60.8 0.1-20.8 0-26.3-12.1-47.2-40.6-3.2-4.3-16.3-4.6-16.1-0.8 1.8 32.2 0 34.8 7.9 34.6 9.2-0.2 9.2 6.9 1.6 6.9h0.1z m537.1-19.8c-2.4 13.9 0.3 20.2-10.3 20.2-120.3-0.9-93.4-0.5-99.1-0.6-2.4-0.3-4.8-0.8-7.1-1.5-4.9-1.1 2.9-2.4-0.7-10.9-2.8-6.6-5.5-13.2-8.1-19.9-0.4-1.6-1.9-2.8-3.6-2.8-0.1 0-0.2 0-0.3 0-4.3-0.2-8.7-0.3-13.1-0.3-5.3 0-10.1 0.1-15.4 0.4-1.3 0.2-2.4 1-3.1 2.1-3.1 7.1-6 14.2-8.8 21.5-2.5 6.3 15.3 2.6 23.8 4.2 5.8 1.1 8.8 7.3 1.3 7.3h-51.5c-5.7 0-6.1-6.2-1.5-6.3 0.2 0 0.4 0 0.6 0 4.8 0 9-2.7 11-6.8 2.9-5.8 5.5-11.7 8-17.7 35.5-82.3 33.3-78.5 36-81.3 0.6-0.9 1.7-1.5 2.9-1.5s2.3 0.6 2.9 1.5c5.8 6.5 36 87.3 46.2 101.4 3.9 5.3 11.2 3.9 12.4 3.9 7.1 0.3 7.8-2.2 8.1-8.4 0.1-3.6 0.1 2.3 0.1-80.5 0-8.7-4.6-7.3-10.8-8.3-0.5 0-5-1.3-0.2-6 0.4-0.4-1.7-0.5 42.4-0.3 4.5 0 10.4 5.4-2.4 6.7 0 0-0.1 0-0.2 0-2.8 0-5 2.3-5 5 0 0.2 0 0.4 0 0.5-0.1 3.2-0.3 76 0.6 80.5 0.6 2.8 3 4.8 5.9 4.8 0.1 0 0.3 0 0.4 0 25.9 0.8 29.1 0.8 31.3-6.7 3.2-11.3 8-4.9 7.2-0.3z m-204.5 125.7c-8.3 0-8.7-6.6-1.2-6.7 70.1-0.3 54.9 0.8 72.6-1.2 3.3-0.4 4.7 0.4 4.4 3.7-0.5 6.6-1.2 13.2-1.9 19.8-0.5 4.2-6.3 5.1-6.7-0.3-0.7-10.4-4.2-8.7-30.5-9.9-3.1-0.2-3.2 0-3.2 3v31.5c0 3.2 0 3.1 3.2 2.8 6-0.5 20.1 0.7 30.6-2.9 0.9-0.4 6.4-3.5 6 3.4 0 0.4-1.5 20.2-2.3 22.2-1 2.6-3.7 3-5.1 0.7-2.2-3.9 0-10-7.2-10.4-30.1-1.7-25.2-5-25.2 11.7 0 24-1.5 31.5 7.6 31.8 32.5 0.9 28.1 0 32.1-11.2 1.6-4.6 6.8-3.5 6.2 1.1-0.9 6.3-1.7 12.6-2.4 18.9 0 0.7-0.3 4.6-9.1 4.6-72.6-0.1-67.5-0.3-68.8-0.6-5.3-1-4.3-5.8 0.4-6.7 2.2-0.4 7.9 1 8.2-5 4.7-109.8-0.2-100.3-7.7-100.3z m-0.8-213.9c4.8 1.2 6.1 3.4 5.7 9.1-0.6 10.3-0.6 17.5-1 18.9-1.3 4.3-6.2 4.1-6.6-0.5-0.7-9.4-5.9-15.3-14.8-17.9-51.3-15.1-64 30.2-53 59 11.5 30.1 43 31.1 56.4 26.9 11.5-3.6 11.4-12.7 13.4-14.8 2.4-2.5 4.4-3.6 6.1 2.2 0 0.2 1.2 23.2-11.7 24.9-3.1 0.4-37.8 7.2-63.8-6.6-41-21.9-32.7-69.3-13.4-88.6 27.3-27.4 77.9-13.8 82.6-12.6h0.1z m-55.4 207.2c6.4 0 7.2 5.8 0.3 6.7-5.1 0.6-9.7-0.9-9.7 10.6 0 3.9-0.4 56.8 0.7 81 0.3 4.4 2.3 6.8 6.8 7.1 42.9 2.4 29.2-3.2 36.7-12.4 3.5-4.4 5.4 1.7 5.4 2.1 0.6 26.6-7.9 24.2-10.2 24.2l-74.5-0.3c-3.8-0.5-4-5.9-0.8-6.6 3.9-1 9.6 0.8 10-5.5 1.9-31 1.1-87.2 0.6-93.4-0.5-7.3-5.4-6.4-11-7.2-4.9-0.8-3.9-6.3 0.6-6.3 2.9 0 35.1-0.1 45.1 0z m-61.8-112.9c0.2 8 5.6 6.7 11.8 7 5.1 0.2 4.9 6.6-0.2 6.7-12.6 0-26.7 0-42.2-0.1-7.5 0-6.6-6.6 0-6.6 8.8 0 6.3 3.1 6.7-89 0-9.9-6.4-6.9-9.2-8.2-5.1-2.4-2.7-6.1 0.8-6.2 2.5 0 39.4-0.8 41.3 0.4 1.9 1.2 3.7 3.2-0.8 5.6-2 1-7.6-0.5-8.1 4.8 0 0.4-1.6 3.2-0.2 85.6h0.1z m-72 535.7c0.9 0.6 2 0.9 3.1 0.9 1.2 0 2.3-0.3 3.2-0.9 33.2-19.2 355.5-202.3 385.6-219.8-0.3-0.8 22-0.3-354.5-0.5-2.4 0-3.1 0.7-3 3 0 0.2 2.4 87 2.4 98.4-0.2 5.3-1.1 10.3-2.7 15.1-1.1 3.6 0.8-1-26.4 62.9-1.4 3.4-1.9 4.4-3.9-0.1-8.1-20.2-16.1-40.5-24.5-60.6-2.5-5.7-4-12-4-18.6 0-0.8 0-1.6 0.1-2.4 0.3-4.8 1.5-31.5 2.9-93.8 0-3.8 0-3.9-3.9-3.9h-357.4c5 3.2 348.3 200.3 382.8 220.2z m-177.6-368.7c0 4.7 0.7 5.5 5.4 5.9 22.5 2.3 41 7.3 50.1-14.3 11.7-28.3 5.2-67.2-24.4-75.9-3.9-1.1-31.2-5.4-31.1 3 0.1 15.7 0 22.6 0 81.3z m206.6-29.4c0 4.2 2 75.6 2.1 76.4 0.6 19.5-50 11.3-49.3-5 0.2-3.9 2.7-73.1 2.2-77-27.6 14.5-28.2 78.5 12.5 95.3 4.3 1.8 9 2.9 13.9 2.9 12.6 0 23.7-6.7 29.9-16.7 9.6-15.2 13.3-57.6-10.6-76.2-0.3 0.1-0.5 0.2-0.7 0.2v0.1z m-24-386.7c-19.2 0-19 28.8-0.2 29 18.9 0.3 19.8-29 0.2-29.1v0.1z m-156.6 202.8c0 3.5 0.8 4.7 4.3 5 26.6 2.7 24.4-21.5 23.7-26.1-3.3-21.9-28.1-19.9-28-15.2 0.1 8.8-0.1 26.7 0 36.3z m414.7 12.5l-11.9-30.9c-4.2 10.7-8.1 20.6-12.2 30.9h24.1z" />
  </svg>
