<svg height="1000" width="1125" xmlns="http://www.w3.org/2000/svg"><path d="M161.1 193.2C160 159.6 165 127.1 185.9 99c.6 14.5 2.4 28.3 8.2 42.2C205.7 87.5 232.6 44.9 276.8 13.3c-3.8 11.5 -6.9 23 -5.9 34.6 17 -14.5 36.7 -34.8 86.7 -44.4 28.7 -5.5 58 -3.9 82.2 2C515 23.6 559 72.5 576 146.7c10.3 45.1 1.3 87.9 -16.2 129.7 -10.2 24.2 -23.5 47.6 -40.5 68.5 -3.9 -3.7 -7.6 -7.4 -11.3 -10.9 -83.6 -79.7 -52.3 -49.2 -73 -73.1 -2.2 -2.3 -2 -4.3 -.2 -7 16.2 -26.4 23 -55.1 19.5 -85.9 -2.2 -19.2 -8.4 -36.9 -22.1 -51.2C403.9 86.9 355.7 87.5 327.7 118c-22.2 24.4 -27.5 53.5 -21.3 85.1 .4 2.6 .8 5.3 0 7.6 -6.6 26.8 -8.9 53.9 -4.8 81.3 .2 1 .2 2.1 .2 3.1 0 .6 -.2 1 -.4 2.2C258.8 275.8 231.1 242 217 195.3c-16.2 34.8 -21.7 69.3 -12.9 105.7 -30.5 -29.7 -41.6 -67 -43 -107.8zm917.2 240.6c-22.6 -22.7 -48.8 -39.9 -78.3 -52C975 371.7 949.2 366.4 922.1 368c-19.6 1.1 -38.3 6 -56.7 12.5 -4.9 1.7 -9.9 3.1 -15 4.3 -9.6 2.3 -14.3 -6.1 -9.2 -13.3 6.3 -9 6.7 -8.2 29.3 -23.5 1.2 -.7 2.4 -1.5 4.3 -2.9h-4.9c-1.1 0 -2.3 .4 -3.7 .6 -37.7 6.4 -59.9 30.3 -95.5 57.8 -20.3 15.8 -26.9 7.4 -23.4 -1 2.7 -6.8 6.4 -13 9.9 -19.5 2 -3.5 4.5 -6.6 6.9 -10 -.4 -.3 -1 -.5 -1.4 -.9C710 407.8 671.5 454.9 650 515.2c.6 .6 1.4 1.2 2 1.8 .5 -1.2 .9 -2.4 1.7 -3.3C674 490 698.2 471.1 725.2 455.5c35.5 -20.7 73.2 -35.8 114.6 -39.5 8.4 -.8 17 -.2 25.6 -.2 -3.5 1.4 -6.8 1.8 -10.3 2.2 -36.2 4.7 -69.4 17.5 -100.6 36.1 -59 35 -106.5 82.4 -146.7 137.5 -.6 .8 -.8 1.8 -1.4 2.5 28.4 10.4 46.9 33.8 70.6 50 .3 -.2 .5 -.3 .7 -.7l2.4 -5.3c23.8 -52.6 52.7 -102.2 91.2 -145.5 32.6 -36.7 74.2 -49.4 122.1 -39.1 11.5 2.6 22.2 8.6 33.6 13.3 4.4 -2.7 9.9 -6.3 15.6 -9.2 16.4 -8.4 34 -13.7 52.1 -17.6 28.7 -6 57.6 -9.5 86.9 -2.5v-1c-.9 -.8 -2.3 -1.5 -3.3 -2.7zM618.6 776.6C541.6 712.1 574 738.5 535.2 707c-1.6 1.8 0 -.4 -3.8 5.9 -21.8 37.3 -49.8 68.9 -85.9 93 -20.1 13.2 -42 23 -66.6 23 -42.2 0 -74.6 -18.5 -96.5 -54.3 -23.4 -38.1 -26 -79.5 -16 -122.3 15.2 -66 58.8 -107.8 75.4 -125.5 -36.5 -12.2 -64.5 3.3 -90.6 27.1 1.5 -27.1 8.4 -51.2 23 -72.8 -47.4 20.7 -89.6 48.8 -126.5 85.7 -.6 -11.3 10.5 -85.4 10.9 -87.3 .6 -5.3 -1.2 -10.4 -5.9 -14.5C105.5 513.3 65.8 566.2 43.2 630.3 57.6 618.7 72.3 608 89.3 598.6 73 642.2 51 701.8 74 796.1c9 37.1 23.3 71.9 47.1 102.1 5.7 7.3 12.3 13.5 18.5 20.2 .4 -.4 .8 -.6 1.2 -1 -2.7 -13.7 -4.3 -27.6 -2.9 -42.8 4.3 6.3 7.6 11.7 11.5 16.8 24.6 31.3 56.1 53.5 92.2 69.5 48.8 22.1 99.8 26 152.2 16.8C501 958.8 570.9 882.8 620.3 784.8c2 -3.5 1.2 -5.7 -1.7 -8.2zm335.9 -90.7c-18.6 -6 -43.4 -8.2 -56.1 -5.6 19.4 7.8 27.6 12.9 36.8 23.4 24.6 28.1 20.3 67.8 -10.6 89.1 -22.8 15.8 -48.6 20.5 -76 17.7 -2.3 -.1 -4.5 -.7 -5.8 -1.1 5.4 -7.3 11.7 -13.7 15.8 -21.1 18.4 -32.8 10.5 -82.2 -17 -109.6 -4.1 -4.1 -9 -7.6 -13.7 -11.5 -.6 2.5 -.2 4.1 .2 5.5 8.2 32.4 -15.8 63.2 -48.4 62.1 -14.9 -.6 -27.2 -7.5 -38.3 -16.6C703.3 686.7 665 655.5 627.1 623.8c-11.5 -9.5 -24.4 -15.8 -39.2 -17 -9 -.7 -18.2 -1.1 -27.2 -1.7 -11.5 -.8 -17.1 -5.5 -20.3 -16.4 -1.7 -6.7 -2.9 -13.3 -4.3 -19.9C533.2 552.9 524 543.4 508.2 541c-8.6 -1.4 -17.4 -1.9 -26 -2.9 -25.4 -2.7 -38.6 -14.5 -44.1 -39.7 -9.8 21.5 -3.1 43.8 14.2 58.4 8.8 7.5 18.2 14.3 27 21.9 9 7.4 14.5 17 15.4 28.9 .8 9.2 1.6 18.6 3.5 27.6 4.3 20.7 17.4 35.9 33.2 49 32.3 26.7 64.5 53.3 96.7 80.3 35 29.3 27.2 64 25.4 109.3 -1.7 44.8 23.8 83.8 65.4 100 2 .8 4 1.2 7.1 2.2 -30.7 -35.6 -19.7 -86.2 1.3 -102.2 .6 4.3 .8 8.4 1.8 12.5 18.4 86.2 88.7 125.4 166 111.2 31.3 -5.7 59.8 -17.4 83.8 -38.7 3.9 -3.5 7.2 -8 11.5 -12.7 -37.7 9 -69.9 .2 -99.4 -20.7 1.4 -.6 2.6 -.6 3.7 -.6 41.6 3.5 79.3 -6.6 111.4 -34 38 -32.4 51.9 -83.8 33.9 -128.9 -16.2 -39.2 -46.1 -63.1 -85.5 -76zM194.1 350.2c-10.3 -18 -25.7 -30.5 -43.1 -41.6 26.7 -1 51.9 .4 77.3 7.2C214.6 292 211.7 267.6 218.6 240.2c10.3 23.3 26.7 39.3 46 52.4 38.5 25.8 69.8 38.3 91.3 59 6.6 6.4 12.3 13.8 18.7 21.3 -1.6 -4.2 -2.7 -8.1 -4.3 -11.8 -9.8 -20.7 -25.4 -36.3 -44.1 -48.8 -3.5 -2.3 -5.5 -4.9 -6.7 -8.8 -6.4 -24.4 -5.8 -49 -1.3 -73.4 1.9 -10.8 5.4 -21.3 8.8 -31.9 1.5 -4.6 4.4 -8.9 7.8 -12.8 1.1 13.4 0 49.8 38.2 89.8 21.1 22.1 43.8 42.8 66.3 63.9 17.5 16.6 35.7 32.6 49.8 52.3 2.1 3.1 4.3 6.5 7.4 9.2 -9.8 -25.4 -27.7 -47.1 -47.3 -66 -18.7 -18.2 -37.9 -36 -57 -53.5 -6.5 -5.9 -9 -13.1 -10 -21.3 -2.3 -20.3 0 -40.3 8.4 -59 1 -2 2.2 -3.9 3.7 -6.5 1 8.2 1.2 15.5 2.8 22.7 9.3 45.1 39.8 70.9 96.3 124 19.5 18.4 37.7 37.5 50 61.7 9.3 18.2 14.2 37.1 11.1 57.8 -.2 1.2 1 3.4 2.1 4 12.2 5 19.6 13.4 19 27.9 15 -5.1 24.4 -15.6 32 -28.3 8.2 39.4 -17.8 98.2 -53.1 114.6 .8 -8.8 9.8 -45.7 -32.2 -54.1 -13.3 -2.5 -25 -2.5 -44.8 -4.1 9.2 -17.6 20.4 -40.2 1 -43.7 -48.6 -9 -103.1 3.7 -112.9 8.9 16 .8 31.9 2 45.9 6.5 -3.9 12.7 -7.8 24.8 -11.3 36.9 -3.7 12.7 4.1 28.5 18.2 18.8 2.3 -1.8 4.5 -3.8 6.4 -5.3 -6 34.9 -5.7 31 -5.5 35.7 .6 19.9 18.6 15.3 30.7 14.3 -4.9 23 -57.6 53.3 -88.7 50.4 13.7 -9.2 24.8 -20.1 31.1 -35 -12.7 1.6 -25.2 3.1 -37.5 4.7l-.6 -1.8c9.2 -6.6 15.6 -15.2 19.9 -25.5 17 -41.3 -7 -74.3 -48.8 -78 -17.8 -1.5 -34.8 1.6 -50.6 10.8 12.1 -30.5 33.6 -52 63.7 -67.4 -29.7 -8.4 -17.4 -5.3 -48.1 -12.3 28.5 -18.2 59 -25.8 90.9 -28.5 -10.2 -6.3 -94 -7.1 -137.2 40.8 15.5 2.7 30.3 5.5 45.4 8.2 -46.5 13.7 -86 38.5 -121.9 69.5 2.1 -9.4 5.3 -18.5 6.4 -27.9 1.2 -8.8 1.6 -18 .2 -26.6 -2.9 -18.3 -17.4 -29.5 -38.5 -31.8 -15.4 -1.8 -30.4 .2 -45.5 2.5 -1.7 .2 -3.3 .6 -5.6 0 30.8 -28.9 70.3 -42.4 103.7 -65.4 11.7 -8.8 13.3 -16 5.8 -29.1zm250.8 52.3c6.5 31.3 24.6 49.8 46.5 47.5 -9 -22.1 -23.6 -38.1 -46.5 -47.5z"/></svg>