
  <svg height="1000" width="875.0" xmlns="http://www.w3.org/2000/svg">
    <path d="m583.8 521.5c14 7.8 25.4 19.2 33.2 33.2 7.5 13.3 11.9 28.9 11.9 45.3 0 0.2 0 0.3 0 0.5-0.1 26.7-8.9 49-26.7 67s-39.9 26.9-66.6 26.9c-26.2 0-48-8.8-65.3-26.3s-25.9-40-25.9-67.6c0-26.2 8.8-47.9 26.6-65.2s39.5-25.9 65.3-25.9c0.4-0.1 0.9 0 1.3 0 16.8 0 32.6 4.4 46.2 12.1z m-583.8-459h875v875h-875v-875z m731.9 729l-0.1-516.3-109 23.6v152.2c-15.2-15.3-31.5-26.4-48.8-33.2-17.3-6.5-36.2-10.2-55.8-10.2-0.7 0-1.5 0-2.3 0-34.5 0-65.6 8.6-93.2 25.6-27.4 17-49.6 41-64.3 69.9-15.3 29.5-23 62.2-23 98.1 0 36.7 7.6 69.9 22.7 99.4 14.5 29 36.7 53 64.3 69.8 27.8 17.1 59.6 25.6 95.5 25.6 52.1 0 88.4-17 108.9-51.1h1.3v46.6h103.8z" />
  </svg>
