
  <svg height="1000" width="875.0" xmlns="http://www.w3.org/2000/svg">
    <path d="m872.1 132.8c1.9 7.4 2.9 15.4 3.1 23.5v687.6c0 51.8-42 93.8-93.8 93.8h-687.5c-8 0-16-1-23.4-2.9-15-3.9-28.5-11.4-39.6-21.5-2.4-2.2-4.5-4.3-6.5-6.5-10.1-11.1-17.6-24.6-21.5-39.6-1.9-7.4-2.9-15.4-2.9-23.4v-687.5c0-51.8 42-93.8 93.8-93.6h687.5c8 0 16 1 23.4 2.9 3.7 0.8 7.2 2 10.5 3.3 3.7 1.4 7.3 3 10.8 4.9 2.7 1.4 5.2 3 7.8 4.7 2.1 1.6 4.3 3.1 6.4 4.9 4.9 3.9 9.4 8.4 13.5 13.3 3.3 4.1 6.5 8.8 9.2 13.5 2.5 4.4 4.7 8.9 6.4 13.8 1 3 2 5.9 2.8 8.8z m-59.6 711v-343.8h-375v-375h-343.7c-17.2 0-31.3 14.1-31.3 31.3v343.7h375v375h343.8c17.1 0 31.2-14.1 31.2-31.2z" />
  </svg>
