<svg height="1000" width="875" xmlns="http://www.w3.org/2000/svg"><path d="M872.1 132.8c-.8 -2.9 -1.8 -5.8 -2.8 -8.8 -1.7 -4.9 -3.9 -9.4 -6.4 -13.8 -2.7 -4.7 -5.9 -9.4 -9.2 -13.5 -4.1 -4.9 -8.6 -9.4 -13.5 -13.3 -2.1 -1.8 -4.3 -3.3 -6.4 -4.9 -2.5 -1.7 -5.1 -3.3 -7.8 -4.7 -3.5 -1.9 -7.1 -3.5 -10.8 -4.9 -3.3 -1.3 -6.8 -2.5 -10.5 -3.3 -7.4 -1.9 -15.4 -2.9 -23.4 -2.9H93.8C42 62.5 0 104.5 0 156.3v687.5c0 8 1 16 2.9 23.4 3.9 15 11.4 28.5 21.5 39.6 2 2.2 4.1 4.3 6.5 6.5 11.1 10.1 24.6 17.6 39.6 21.5 7.4 1.9 15.4 2.9 23.4 2.9h687.5c51.8 0 93.8 -42 93.8 -93.8V156.3c-.2 -8.1 -1.2 -16.1 -3.1 -23.5zm-59.6 711c0 17.1 -14.1 31.2 -31.2 31.2H437.5V500h-375V156.3C62.5 139.1 76.6 125 93.8 125h343.7v375h375v343.8z"/></svg>