
  <svg height="1000" width="1000.0" xmlns="http://www.w3.org/2000/svg">
    <path d="m746.5 265.6h101v468h-101v-40.4c-38.7 48.4-103.1 47-144.2 28.7-51.1-22.9-86.5-74.4-86.5-140.3 0-58.2 28.9-113 84.6-138.2 39.4-17.8 102.9-20.7 146.1 25.2v-203z m-126.4 316c0 35.6 26.6 65.5 64.9 65.5 38.6 0 64.8-32.1 64.8-64.3 0-33.4-26.8-64.8-64.8-64.8-38.3 0-64.9 32-64.9 63.6z m-251.9-316h100.9v468h-100.9v-40.4c-38.7 48.4-103.2 47-144.2 28.7-51.1-22.9-86.5-74.4-86.5-140.3 0-58.2 28.9-113 84.6-138.2 39.4-17.8 102.9-20.7 146.1 25.2v-203z m-126.4 316c0 35.6 26.6 65.5 64.8 65.5 38.7 0 64.9-32.1 64.9-64.3 0-33.4-26.8-64.8-64.9-64.8-38.4 0-64.8 32-64.8 63.6z m633.2-394.1h-750c-34.4 0-62.5 28.3-62.5 62.5v500c0 34.4 28.3 62.5 62.5 62.5h750c34.4 0 62.5-28.3 62.5-62.5v-500c0-34.4-28.3-62.5-62.5-62.5z m0-62.5c68.8 0 125 56.2 125 125v500c0 68.8-56.2 125-125 125h-750c-68.8 0-125-56.2-125-125v-500c0-68.8 56.2-125 125-125h750z" />
  </svg>
