
  <svg height="1000" width="937.5" xmlns="http://www.w3.org/2000/svg">
    <path d="m402.1 1000l60.8-75c24-0.4 50-2.7 71.3-12.9 76-36.3 75-120.9 74.8-124.6-0.2-9.8-1.6-8.6-56.5-73h154.5c-0.4 97.8-14.2 133.7-19.9 147.8-18.4 46.3-85.7 122.7-185.9 135.6-17 2.1-64.1 2.3-99.1 2.1z m391.5-327.5l-232.9 0.2 34-61.2 342.8 0.6c-29.7 33.8-68.6 60.4-143.9 60.4z m-85.2-437.3v328.7h-143.6l-63.8 108.4h-12.7c-102.2 0-113.5-110.4-113.9-115.1-2.3-25.8-41.6-22.6-39.2 3.5 2.7 30.9 17.1 78.2 51.5 111.6h-177.7c-49.8 0-216.4-52.4-209-222.7v-416.6c0-31.2 18.9-32.4 29.3-32.8h160.2c0.3 0 0.5 0.2 0.9 0.2 8.4-0.8 97.9-4.1 97.9 85.3 0 26 39.4 26.2 39.4 0 0-35.5-10.7-64-30.8-85.3h164.4c212.3-0.8 247.1 155.1 247.1 234.8z m-258.8 109.3l125 57.3c26-88.9-82.4-140.1-125-57.3z" />
  </svg>
