<svg height="1000" width="1250" xmlns="http://www.w3.org/2000/svg"><path d="M683.4 461.5H554.3v-116h129.1v116zm0 -399H554.3v118.6h129.1V62.5zm152.7 282.8H707v116h129.1v-116zM530.9 204.5H401.8v117.4h129.1V204.5zm152.5 0H554.3v117.4h129.1V204.5zM1224 399.8c-28.1 -18.9 -92.9 -25.8 -142.7 -16.4C1074.8 336.5 1048.6 295.7 1001 259l-27.4 -18.2 -18.1 27.4c-36 54.3 -45.7 143.7 -7.3 202.7 -16.9 9.2 -50.3 21.7 -94.5 20.9H4.7C-12.3 591 16 719.9 90.6 808.4c72.5 85.7 181.1 129.3 323.1 129.3 307.4 0 534.9 -141.6 641.4 -398.8 41.8 .7 132 .2 178.3 -88.3 2.9 -4.9 12.9 -25.8 16.6 -33.4l-26 -17.4zM225.8 345.3H96.9v116H226v-116zm152.5 0H249.2v116h129.1v-116zm152.6 0H401.8v116h129.1v-116zM378.3 204.5H249.2v117.4h129.1V204.5z"/></svg>