
  <svg height="1000" width="1250.0" xmlns="http://www.w3.org/2000/svg">
    <path d="m683.4 461.5h-129.1v-116h129.1v116z m0-399v118.6h-129.1v-118.6h129.1z m152.7 282.8v116h-129.1v-116h129.1z m-305.2-140.8v117.4h-129.1v-117.4h129.1z m152.5 0v117.4h-129.1v-117.4h129.1z m540.6 195.3l26 17.4c-3.7 7.6-13.7 28.5-16.6 33.4-46.3 88.5-136.5 89-178.3 88.3-106.5 257.2-334 398.8-641.4 398.8-142 0-250.6-43.6-323.1-129.3-74.6-88.5-102.9-217.4-85.9-316.6h849c44.2 0.8 77.6-11.7 94.5-20.9-38.4-59-28.7-148.4 7.3-202.7l18.1-27.4 27.4 18.2c47.6 36.7 73.8 77.5 80.3 124.4 49.8-9.4 114.6-2.5 142.7 16.4z m-998.2-54.5h0.2v116h-129.1v-116h128.9z m152.5 0v116h-129.1v-116h129.1z m152.6 0v116h-129.1v-116h129.1z m-152.6-140.8v117.4h-129.1v-117.4h129.1z" />
  </svg>
