
  <svg height="1000" width="937.5" xmlns="http://www.w3.org/2000/svg">
    <path d="m937.5 777.5l-281.2 160v-125.4l-656.3 0.2c35.7-37.3 165-171.5 314.6-341.4 63.7-72.7 152.4-162.7 136.2-249.2-10.4-55.3-82.4-99.2-162.7-65.5-16.8 7.1-47.9 34-51.4 48.3 55.3 9.2 93.8 58 93.8 110.9 0 61.9-50 112.1-111.9 112.1-72.9 0-121.5-66.6-110.8-131 2.4-15.4 10-52.4 35.6-93.2 29.1-46.7 88.2-107.2 203.7-131.4 202.7-42.4 315.6 71.5 324.2 80.4 56.4 58.4 93.7 177.2 25 299.5-58.6 104.3-158.2 223.2-218.4 291.6h178.4v-126.4z m-215-52.9v106.3l92-53.2z m-460.4-409.4c0-24-19.5-43.7-43.7-43.7-24.3 0-43.8 19.5-43.8 43.7 0 24.3 19.5 43.8 43.8 43.8 24.2 0 43.7-19.5 43.7-43.8z m-101 428h223.5c34.3-37.5 178.7-196.9 250.9-325.6 71.5-127.2-11.3-221.3-11.3-221.3-27.7-29.1-72.1-70.7-160.5-74.8 13.3 10.7 33 33 47.4 69.7 23.3 59.2 13.1 135.9-55.4 220.1-103.7 127.4-244.6 278.3-294.6 331.9z" />
  </svg>
