<svg height="1000" width="937.5" xmlns="http://www.w3.org/2000/svg"><path d="M722.5 830.9V724.6l92 53.1 -92 53.2zM160.9 743.4C210.7 690 351.8 538.9 455.7 411.3c68.5 -84.2 78.7 -160.9 55.4 -220.1 -14.4 -36.7 -34.1 -59 -47.4 -69.7 88.4 4.1 132.8 45.7 160.5 74.8 0 0 82.8 94.1 11.3 221.3C563.3 546.3 418.9 705.7 384.6 743.2H160.9zM262.1 315.2c0 24.3 -19.5 43.8 -43.7 43.8a43.66 43.66 0 0 1 -43.8 -43.8c0 -24.2 19.5 -43.7 43.8 -43.7 24.2 0 43.7 19.7 43.7 43.7M656.3 617v126.4H477.9C538.1 675 637.7 556.1 696.3 451.8 765 329.5 727.7 210.7 671.3 152.3 662.7 143.4 549.8 29.5 347.1 71.9 231.6 96.1 172.5 156.6 143.4 203.3c-25.6 40.8 -33.2 77.8 -35.6 93.2 -10.7 64.4 37.9 131 110.8 131 61.9 0 111.9 -50.2 111.9 -112.1 0 -52.9 -38.5 -101.7 -93.8 -110.9 3.5 -14.3 34.6 -41.2 51.4 -48.3 80.3 -33.7 152.3 10.2 162.7 65.5C467 308.2 378.3 398.2 314.6 470.9 165 640.8 35.7 775 0 812.3l656.3 -.2v125.4l281.2 -160L656.3 617z"/></svg>