<svg height="1000" width="875" xmlns="http://www.w3.org/2000/svg"><path d="M176.2 445.7c17.4 -82.8 73 -151.8 147.8 -186.9 7.1 9.6 54.7 75.8 99 154.3 -125 33.2 -234.9 32.8 -246.8 32.6zM614.5 300.8C548.8 242.6 459.6 220.5 375 241c7.4 10 55.9 76 99.6 156.3 94.9 -35.8 135 -89.7 139.9 -96.5zM273.6 710.9c79.1 61.8 182.3 71.7 268.2 35.2C537.9 722.7 522.3 641 484.8 543.8 377.1 580.5 301.6 653.9 273.6 710.9zm193 -211.3C460 484.4 452.5 469.3 444.9 454.3c-133.2 39.8 -262.5 38.3 -274.2 37.9 0 2.7 -.2 5.5 -.2 8.2 0 68.5 26 131 68.6 178.5 43.3 -74 131 -152.1 227.5 -179.3zm68.2 31.8c34.9 95.9 49 174.1 51.7 190.3C646.5 681.3 689.1 617 701 542.8c-9 -3 -82.6 -24.8 -166.2 -11.4zm-39.7 -94.5c9.4 19.2 16.2 34.8 23.5 52.4 88.8 -11.2 177.1 6.6 185.9 8.6C703.9 434.8 681.4 377 644.1 331.6c-5.6 7.7 -50.3 64.9 -149 105.3zM875 156.3v687.5c0 51.7 -42 93.7 -93.7 93.7H93.8C42 937.5 0 895.5 0 843.8V156.3C0 104.5 42 62.5 93.8 62.5h687.5c51.7 0 93.7 42 93.7 93.8zM750 500C750 327.7 609.8 187.5 437.5 187.5S125 327.7 125 500s140.2 312.5 312.5 312.5S750 672.3 750 500z"/></svg>