
  <svg height="1000" width="875.0" xmlns="http://www.w3.org/2000/svg">
    <path d="m176.2 445.7c17.4-82.8 73-151.8 147.8-186.9 7.1 9.6 54.7 75.8 99 154.3-125 33.2-234.9 32.8-246.8 32.6z m438.3-144.9c-4.9 6.8-45 60.7-139.9 96.5-43.7-80.3-92.2-146.3-99.6-156.3 84.6-20.5 173.8 1.6 239.5 59.8z m-340.9 410.1c28-57 103.5-130.4 211.2-167.1 37.5 97.2 53.1 178.9 57 202.3-85.9 36.5-189.1 26.6-268.2-35.2z m193-211.3c-96.5 27.2-184.2 105.3-227.5 179.3-42.6-47.5-68.6-110-68.6-178.5 0-2.7 0.2-5.5 0.2-8.2 11.7 0.4 141 1.9 274.2-37.9 7.6 15 15.1 30.1 21.7 45.3z m68.2 31.8c83.6-13.4 157.2 8.4 166.2 11.4-11.9 74.2-54.5 138.5-114.5 178.9-2.7-16.2-16.8-94.4-51.7-190.3z m-39.7-94.5c98.7-40.4 143.4-97.6 149-105.3 37.3 45.4 59.8 103.2 60.4 166.3-8.8-2-97.1-19.8-185.9-8.6-7.3-17.6-14.1-33.2-23.5-52.4z m379.9-280.6v687.5c0 51.7-42 93.7-93.7 93.7h-687.5c-51.8 0-93.8-42-93.8-93.7v-687.5c0-51.8 42-93.8 93.8-93.8h687.5c51.7 0 93.7 42 93.7 93.8z m-125 343.7c0-172.3-140.2-312.5-312.5-312.5s-312.5 140.2-312.5 312.5 140.2 312.5 312.5 312.5 312.5-140.2 312.5-312.5z" />
  </svg>
