<svg height="1000" width="1000" xmlns="http://www.w3.org/2000/svg"><path d="M500 15.6C232.9 15.6 15.6 232.9 15.6 500S232.9 984.4 500 984.4 984.4 767.1 984.4 500 767.1 15.6 500 15.6zM820.3 239c57.6 70.4 92.5 160.1 93.4 257.7C900 493.8 763.3 466.1 625.6 483.4 614.4 456 603.8 431.9 589.2 402.1 742.2 339.7 811.5 250.8 820.3 239zm-46 -47.8c-7.5 10.6 -69.8 94.3 -216.9 149.4C489.6 216 414.5 113.7 403 98.4c131.3 -31.6 269.5 2.5 371.3 92.8zm-450.2 -65c10.9 15 84.8 117.4 153.4 239.3C284 416.9 113.5 416.1 95 415.9 121.8 287.5 208.4 180.8 324.1 126.2zM86.3 500.6c0 -4.2 .1 -8.4 .2 -12.6 18.1 .4 218.6 2.9 425.2 -58.9 11.8 23.2 23.1 46.7 33.5 70.2 -149.6 42.2 -285.5 163.2 -352.6 278C126.6 703.9 86.3 606.9 86.3 500.6zM246 827C289.3 738.7 406.6 624.6 573.4 567.7c58 151 82.1 277.5 88.2 313.8C528.6 938.1 368.6 922.6 246 827zm485.2 16.6c-4.3 -25.2 -26.3 -146.3 -80.4 -295 129.6 -20.7 243.5 13.2 257.7 17.7C890.1 681.4 824 780.8 731.2 843.6z"/></svg>