
  <svg height="1000" width="1000.0" xmlns="http://www.w3.org/2000/svg">
    <path d="m500 15.6c267.1 0 484.4 217.3 484.4 484.4s-217.3 484.4-484.4 484.4-484.4-217.3-484.4-484.4 217.3-484.4 484.4-484.4z m320.3 223.4c-8.8 11.8-78.1 100.7-231.1 163.1 14.6 29.8 25.2 53.9 36.4 81.3 137.7-17.3 274.4 10.4 288.1 13.3-0.9-97.6-35.8-187.3-93.4-257.7z m-46-47.8c-101.8-90.3-240-124.4-371.3-92.8 11.5 15.3 86.6 117.6 154.4 242.2 147.1-55.1 209.4-138.8 216.9-149.4z m-450.2-65c-115.7 54.6-202.3 161.3-229.1 289.7 18.5 0.2 189 1 382.5-50.4-68.6-121.9-142.5-224.3-153.4-239.3z m-237.8 374.4c0 106.3 40.3 203.3 106.3 276.7 67.1-114.8 203-235.8 352.6-278-10.4-23.5-21.7-47-33.5-70.2-206.6 61.8-407.1 59.3-425.2 58.9-0.1 4.2-0.2 8.4-0.2 12.6z m159.7 326.4c122.6 95.6 282.6 111.1 415.6 54.5-6.1-36.3-30.2-162.8-88.2-313.8-166.8 56.9-284.1 171-327.4 259.3z m485.2 16.6c92.8-62.8 158.9-162.2 177.3-277.3-14.2-4.5-128.1-38.4-257.7-17.7 54.1 148.7 76.1 269.8 80.4 295z" />
  </svg>
