<svg height="1000" width="875" xmlns="http://www.w3.org/2000/svg"><path d="M624 224C580.7 196.7 539.1 185.9 497.7 158.6 472.3 141.4 436.5 100 406.8 64.3c-5.2 57.2 -22.4 80.4 -42.9 96.6 -41.6 33.2 -68 43.4 -104.5 63.1C228.5 240.2 62.5 354.5 62.5 567.4c0 213.3 179.3 370.1 378.5 370.1 198.6 0 371.5 -144.5 371.5 -363.3C812.5 354.9 650.4 240.2 624 224zm4.9 636c-39.3 39.2 -176 56 -227.9 8.2 -9.4 -9.4 .6 -23.5 12.7 -23.5 0 0 33.2 26 100.6 26 52.7 0 89.8 -15 106.4 -27.3 11.9 -9 16.4 8.4 8.2 16.6zM522.5 757.2c17 -7 56.6 -7.4 71.8 2.6 8 5.4 31.5 36.7 12.1 46.3 -16.4 8.2 -2.3 -30.7 -51.7 -30.7 -28.7 0 -38.1 10.1 -52.2 21.5 -13.6 11.7 -19.1 15.6 -23.8 9.2C467 790 509.8 762.5 522.5 757.2zM703.1 791c-29.7 -1.9 -88.8 -95.3 -126.9 -96.7C515.8 692.6 372.9 852 261.1 776.4c-75.7 -52 -28.5 -204.7 101.2 -205.5 96.7 -1 163.7 95.7 211.9 94.7C615.8 665 694.9 584 734 584c95.1 0 45.5 213.5 -30.9 207z"/></svg>