
  <svg height="1000" width="937.5" xmlns="http://www.w3.org/2000/svg">
    <path d="m611.7 92.8c2.4-25.4 41.6-27.4 71.5-17 1.8 0.6 51.2 18.9 37.1 29.7-54.5-14.5-110.1 35.5-108.6-12.7z m-392.6 13.4c-15.2-12.1 38.9-32 40.9-32.6 32.8-11.1 75.9-9 78.5 18.8 1.7 52.9-59.4-2-119.4 13.8z m404.7 206.3c17.2 0 31.3 14.1 31.3 31.3s-14.1 31.2-31.3 31.2c-17.2 0-31.2-14.1-31.2-31.2s14-31.3 31.2-31.3z m-311.9 0c17.2 0 31.3 14.1 31.3 31.3s-14.1 31.2-31.3 31.2-31.2-14.1-31.2-31.2 14-31.3 31.2-31.3z m622.1 318.8c-19.4 46.8-79.5 21.4-124.8-2.4-26.4 135-113.5 217.6-246.7 242.6 0.6 1.7-3.9-0.2 46.9 1.9 65.6 2.8 124.6-6 190.2-15.6-38.7-26.9-22.3-72.4-19.1-74.4 2.7-1.8 28.7 3.3 42.2 22.5 16.8-24.5 55.4-28.9 58.9-26.6 3.2 2.1 12.9 40.8-13.4 67.6 9.1-1.8 16-3.2 19.1-4.1 5.1-1.6 34.6 22 6.1 25.9-28 4.5-44.2 10-92 21.1-89.7 20.9-167.8 23.1-229.9 25l1.9 22.7c7.5 35.3-45.7 47.5-53.9 12.1 1.6 35-52.9 42.6-55.4-1.9l-1 10.3c-1.4 35.9-55.5 35-55.3-1.2-14.6 26.4-54.9 13.3-51.5-16.6l2.3-24.2c-71.7 1.8-116.6 6.1-120.7 6.1-40.8 0-40.8-61.7 0-61.7 4.7 0 54.1 2.5 123.4 5.4-119.3-30.3-202.5-107.4-224.4-230.8-48.8 25-112.3 52.3-133.2 1.5-20.5-49.6 42-83.2 130.5-143.3 1.3-12.9 3.1-26 5.3-38.7-28.2-38.3-22.7-70.9-31.5-118-32.8 4.7-45.3-17.8-46.1-45.1 0.6-14.3 4.1-29.1 4.7-30.1 2.2-3.5 19.7-3.9 24.8-5.1 11.7-61.9 98.8-64.8 177.5-67.3 38.5-42.6 88.3-81.1 158.1-94.4-29.9-37.9-6.7-77.9-4.7-78.9 3.3-1.5 41.4 8.4 51.3 45.3 10.2-17.1 35.8-22.2 38.3-20.9 2.2 1.2 12.5 29.3-9.6 50.6 78.8 6.9 141.1 48.3 187.5 99 70.6 3 140.3 11.6 150.6 66.5 5.3 1.1 22.7 1.5 24.8 5 0.6 1 4.1 15.9 4.7 30.1-1 27.2-13.3 49.6-46.1 45.1-6.2 33.8-5.2 64.3-17 93.2 4.7 22.8 7.8 46.5 9.4 71.1 72.3 49.6 137.3 83 117.8 130.6z m-528.9-319c1.7-85.9-74-82.4-153.5-78.7-42.4 1.9-76 3.7-88.9 27.1-22.3 40.9 11.5 181.5 45.3 197.7 19.1 9.2 143.4 15.4 168.6-13.9 16-18.3 29.3-96.5 28.5-132.2z m101.5 113.9c-8.4-24.2-11.7-58.8-29.8-63.9-4-1-17.6-1-21.5 0-19.6 5.5-21.1 43.2-33.2 72.7 30 0 37.7 18.9 46.3 18.9 8.4 0 12.3-22.1 38.2-27.7z m265.1-165.5c-12.9-23.6-48.5-25.2-90.8-27.1-78.6-3.7-152.8-7.4-151 78.7-1 35.7 9.7 113.9 25.8 132.4 25.4 29.1 149.6 23.1 168.5 13.9 30.9-14.8 71.3-154.1 47.5-197.9z" />
  </svg>
