
  <svg height="1000" width="1000.0" xmlns="http://www.w3.org/2000/svg">
    <path d="m941.3 262.7c12.6 24.9 43.8 81.3 42.9 166.1-0.2 85.4-46.3 159.9-115.2 200.1-33.4 19.9-72.8 31.5-114.4 31.6-0.3 0-102.9 5-157.3-32.8-11.4-8-17.8-17.5-17.8-27.4 0-12 9.4-17.5 12.4-21.5 19.2-24.9 29.5-55 29.5-75.3 0-63.9-21.4-115.8-64.4-162.3-2.3-2.4-84-98-238.8-98-123.5 0-241.1 63.8-291.9 154.6 47-218.7 241.4-382.2 473.5-382.2 188.2 0 361.3 90.2 441.4 247.1z m-525.7 666.3c2.5 1.2 56.6 40.3 131.1 53.2-15.4 1.5-30.3 2.6-46.1 2.6-194.1 0-361.6-114.3-438.9-279.2-50.3-108.3-47-206.9-44.9-231 8.1-66.9 52.9-116.6 91.5-146.1 57.9-44.3 134.4-69.7 210-69.7 13.8 0 85.8 1.8 151.6 36.3 63.6 33.4 92.5 73.4 110.5 104.5 3.6 6.3 6.8 13 9.6 19.8-8.3-9.1-78.3-86.3-193.5 2-52.1 37.7-91.4 91.5-111.3 154.1-27.6 78.9-25.1 173 39.3 265.7 23.9 35.5 54.7 65.2 91.1 87.8z m489.7-192c4.2 2.7 7 7.4 7 12.8 0 3-0.9 5.8-2.4 8.1-92.9 147.4-249.7 212.7-318.3 212.7-44.4 0-94-13.6-140.1-38.3-64.4-34.5-96.6-75.7-109.4-93.1-90.4-124.1-55.1-238.9-26-296.2 19-37.4 44.6-70.2 75.7-97.7-7.9 15.7-12.5 33.5-12.7 52.3 0 158 155.9 281.2 335 281.2 0.2 0 0.6-0.1 0.8-0.1 47.5 0 93-8.6 135-24.3 13.7-5.2 27.1-11.2 39.9-17.9 2.2-1.2 4.7-1.9 7.4-1.9 2.9 0 5.7 0.9 8.1 2.4z" />
  </svg>
