
  <svg height="1000" width="1000.0" xmlns="http://www.w3.org/2000/svg">
    <path d="m50.2 445.6l0.7-0.9c0 0.3 0 0.6-0.1 0.9h-0.6z m899.6 30.3v101.7h-613.5c2.8 251 373.9 242.3 531.8 132v204c-92.5 55.7-306.2 103.8-469 41.6-137.9-53-234.2-196.4-235.8-335.9-2.2-180.1 89.2-299.7 235.8-367.8-30.8 38.9-54.6 81.1-67.1 154.1h343.5c20-205.1-194.2-205.1-194.2-205.1-201.7 7.1-347.5 124.4-430.4 244.2 28.4-223.6 181.5-429.6 454.7-429.1 166.1 0 307.9 77.9 387.9 221.3 41.1 74.1 56.3 153.1 56.3 239z" />
  </svg>
