<svg height="1000" width="875" xmlns="http://www.w3.org/2000/svg"><path d="M690.2 62.5H185C83.2 62.5 0 145.7 0 247.3v505.2c0 101.8 83.2 185 185 185h505.2c101.8 0 185 -83.2 185 -184.8V247.3C875.2 145.7 792 62.5 690.2 62.5zm-97.6 618C538.1 774.6 417 807.2 322.7 753.1 277.9 830.9 215.4 769.9 240 727.3l30.7 -53.1c11.5 -20.1 37.5 -27.1 57.6 -15.4 36.3 21.1 -.2 -.2 36.2 20.9 53.9 31 123.8 12.3 155 -41.6C550.6 584.2 531.8 514.3 477.9 483c-34.7 -19.9 -1.1 -.8 -36.3 -20.7 -48 -27.7 -6.6 -101.4 42.2 -73.2 36.3 21.1 -.2 -.2 36.1 20.9 94.6 54.6 127.2 176.3 72.7 270.5zm42.6 -407.8C602 330.3 603.3 328.9 598 334.2c-12.6 12.7 -31.8 17 -51.7 7 -36.3 -21.1 .2 .2 -36.1 -20.9C456.3 289.3 386.3 308 355.1 361.9S342.8 485.7 396.7 517c0 0 36.1 20.7 36.3 20.7 48.1 27.7 6.6 101.4 -42.2 73.2 -36.3 -21.1 .2 .2 -36.1 -20.9C260.5 535.7 227.9 414.1 282.2 319.7 336.7 225.6 457.8 193 552.1 247.1l9.4 -16.4c28 -48.7 101.6 -6.5 73.7 42z"/></svg>