
  <svg height="1000" width="1250.0" xmlns="http://www.w3.org/2000/svg">
    <path d="m1249.8 497.3c2.2 21.1-10.3 27.9-10.3 27.9s-52 38.3-91.8 26.8c-39.9-11.6-42-84.4-42-84.4h-3.7l-40.5 111.7s-16.2 54.5-40.4 44.5c-24.2-9.9-23.6-36.3-23.6-36.3s-37.7 41.6-107.1 36.3c-60.7-4.5-80.2-52.1-80.2-52.1s-40.7 28.1-154.5 50.6c-51 5.6-87.1-25.2-87.1-25.2-4.7 4.7-35.2 19.9-35.2 19.9s-43.6 20.1-60.4-10.4c-16.8-30.4-5.8-124.4-5.8-124.4h-3.1s-25.2 51.4-38.3 97.5c-13.1 46.1-29.3 41.4-29.3 41.4s-29.9 2.7-36.7-22.3c-6.9-25.2 10.9-116.6 10.9-116.6l-2.5 0.6s-1.6-2.7-24.6 46.1c-39.3 95.5-48.7 97.7-71.3 93.6-22.7-4.1-23.7-32.7-23.7-32.7l-31 17.2s-75.4 32.5-114.9 2.6c-26.1-19.9-35.1-43.4-38.2-58 0 0-33.3-3.6-54.9-12-21.7-8.3 0.2-35.7 0.2-35.7s6.8-10.3 19.5 0 36.7 5.7 36.7 5.7c2-16.6 4.9-38.5 15.2-61.6 21.5-48.2 54-64.4 80.7-65 26.8-0.4 45.7 6.8 61.9 29.9 36.4 89.6-96.5 135.1-96.5 135.1s-3.5 23.7 32.7 23.1c36.3-0.4 91.4-39.8 91.4-39.8 2.5-30.1 23.6-124.1 29.3-138.1 5.6-14.1 27.7-11.6 27.7-11.6s17.4-3.7 20.5 14.7c3.3 18.3-12.5 93-12.5 93l2.5 3.1c1.6-7.2 39.9-71.3 39.9-71.3s22.1-38.3 55.7-36.7-1.6 104.5-1.6 104.5l2.5 3.1 2.6-4.7c4.3-11.5 54.1-87.1 54.1-87.1s18.7-22.1 36.1-16.8c17.2 5.1 18.4 13.1 19.3 27.7s-13.6 101.8-13.6 101.8-8.4 57 10.5 56 39.5-20.9 39.5-20.9 14.6-112.5 24.6-205.2c9.9-92.8 52.9-155.3 52.9-155.3s12.7-19.5 45.9-32.6c21.9-7.8 45.7-2.6 57 45.1 18.6 80.1-45.5 171.7-72 205.5 11.5-11.4 30.8-23.7 53.1-10.4 78.7 49.4 14.2 158 14.2 158 23.1-7.4 64.5-35.1 64.5-35.1s1-11.9 1.4-14.7c14-80.6 62.5-109.7 71.5-116.6 9.3-7 91.9-38.7 95.7 46.9s-103.4 115.4-103.4 115.4 9.4 24.6 48.9 18.4c39.4-6.3 84.5-44.5 84.5-44.5 1.6-35.2 24.6-119.2 29.3-131.3 4.7-12.1 33.6-12.7 36.7-5.9 4.3 13.7 0.6 73.5 0.6 73.5l3.2-1c11.5-34.2 35.7-60.9 35.7-60.9s19.3-19 35.2-14.3c15.8 4.5 9.9 59.4 9.9 59.4s-8.4 59.9 18.4 62.5c26.7 2.7 57.2-20.9 57.2-20.9s18.8-7.6 20.9 13.3z m-1128.9 10.3c0 0 12.1 3.7 38.9-14.8 26.7-18.4 32-47.7 17.7-61.4-14-13.4-55 13.7-56.6 76.2z m532.8-241.8c0 0-31 106.5-32 138.1 0 0 86.9-140.6 78.1-187.9-8.8-47.2-46.1 49.8-46.1 49.8z m44.5 270.3c24.7-64.6-7-88.8-7-88.8s-45.7-25.2-65 39.4c-19.4 64.7-12.5 87.7-12.5 87.7s59.9 26.2 84.5-38.3z m165.3-28.5c0 0 30.6 2.2 51.5-27.7s2.6-49.8 2.6-49.8-16.8-21.7-38.3 17.8c-21.7 39.2-15.8 59.7-15.8 59.7z" />
  </svg>
