<svg height="1000" width="1250" xmlns="http://www.w3.org/2000/svg"><path d="M1249.8 497.3c-2.1 -20.9 -20.9 -13.3 -20.9 -13.3s-30.5 23.6 -57.2 20.9c-26.8 -2.6 -18.4 -62.5 -18.4 -62.5s5.9 -54.9 -9.9 -59.4c-15.9 -4.7 -35.2 14.3 -35.2 14.3s-24.2 26.7 -35.7 60.9l-3.2 1s3.7 -59.8 -.5 -73.5c-3.2 -6.8 -32.1 -6.2 -36.8 5.9s-27.7 96.1 -29.3 131.3c0 0 -45.1 38.2 -84.5 44.5S869.3 549 869.3 549 976.4 519.1 972.7 433.6C968.9 348 886.3 379.7 877 386.7c-9 6.9 -57.5 36 -71.5 116.6 -.4 2.8 -1.4 14.7 -1.4 14.7s-41.4 27.7 -64.5 35.1c0 0 64.5 -108.6 -14.2 -158 -35.8 -21.5 -64.1 23.7 -64.1 23.7S767.8 300.2 744.3 200c-11.3 -47.7 -35.1 -52.9 -57 -45.1 -33.2 13.1 -45.9 32.6 -45.9 32.6s-43 62.5 -52.9 155.3S563.9 548 563.9 548s-20.5 20 -39.5 20.9 -10.5 -56 -10.5 -56 14.6 -87.1 13.6 -101.8 -2.1 -22.6 -19.3 -27.7c-17.4 -5.3 -36.1 16.8 -36.1 16.8s-49.8 75.6 -54.1 87.1l-2.6 4.7 -2.5 -3.1s35.1 -103 1.6 -104.5c-33.6 -1.6 -55.7 36.7 -55.7 36.7s-38.3 64.1 -39.9 71.3l-2.5 -3.1s15.8 -74.7 12.5 -93c-3.1 -18.4 -20.5 -14.7 -20.5 -14.7s-22.1 -2.5 -27.7 11.6 -26.8 108 -29.3 138.1c0 0 -55.1 39.4 -91.4 39.8C123.8 571.7 127.3 548 127.3 548s132.9 -45.5 96.5 -135.1C207.6 389.8 188.7 382.6 161.9 383c-26.7 .6 -59.2 16.8 -80.6 65C70.9 471.1 68 493 66 509.6c0 0 -24 4.7 -36.7 -5.7s-19.5 0 -19.5 0 -21.9 27.4 -.2 35.7 54.9 12 54.9 12c3.1 14.6 12.1 38 38.2 58 39.5 29.9 114.9 -2.6 114.9 -2.6l31 -17.2s1 28.6 23.7 32.7c22.6 4.1 32 1.9 71.3 -93.6 23 -48.8 24.6 -46.1 24.6 -46.1l2.5 -.6s-17.8 91.4 -10.9 116.6c6.8 25 36.7 22.3 36.7 22.3s16.2 4.7 29.3 -41.4c13.1 -46.1 38.3 -97.5 38.3 -97.5h3.1s-10.9 94 5.8 124.4c16.8 30.5 60.4 10.4 60.4 10.4s30.5 -15.2 35.2 -19.9c0 0 36.1 30.8 87.1 25.2 113.8 -22.5 154.5 -50.6 154.5 -50.6s19.5 47.6 80.2 52.1c69.4 5.3 107.1 -36.3 107.1 -36.3s-.6 26.4 23.6 36.3c24.2 10 40.4 -44.5 40.4 -44.5L1102 467.6h3.7s2.1 72.8 42 84.4 91.8 -26.8 91.8 -26.8 12.5 -6.8 10.3 -27.9zM120.9 507.6c1.6 -62.5 42.6 -89.6 56.6 -76.2 14.3 13.7 9 43 -17.7 61.4 -26.8 18.5 -38.9 14.8 -38.9 14.8zM653.7 265.8S691 168.7 699.8 216s-78.1 187.9 -78.1 187.9c1 -31.6 32 -138.1 32 -138.1zm44.5 270.3c-24.6 64.5 -84.5 38.3 -84.5 38.3s-6.9 -23 12.5 -87.7 65 -39.4 65 -39.4 31.7 24.2 7 88.8zm165.3 -28.5s-5.9 -20.5 15.8 -59.7c21.5 -39.5 38.3 -17.8 38.3 -17.8s18.3 19.9 -2.6 49.8 -51.5 27.7 -51.5 27.7z"/></svg>