
  <svg height="1000" width="968.8" xmlns="http://www.w3.org/2000/svg">
    <path d="m561.7 105.9c-21.1-4.3-43.1-6.5-65.4-7.1v-35.5c152.5 4.3 285.3 85.9 360.5 208.2l-30.8 17.8c-11.9-19-24.8-36.8-39.5-53l-35.1 30.3c-50.8-57.8-120-99-199.1-114.1z m-457.4 523.8c7.6 21.1 16.2 41.2 26.6 60.7l-30.9 17.8c-33.4-61.7-52.9-133-52.9-208.2s19.3-146.5 52.9-208l30.9 17.8c-10.4 18.9-19.6 39.4-26.6 60.5l44.3 15c-12.5 35.8-18.9 74.7-18.9 114.7s7 78.9 19.5 114.6z m311.9 218l-9.2 46.4c21.1 3.8 43.4 6.5 65.5 7.1v35.7c-152.6-4.5-286-86.5-361.2-208.2l31.3-18.3c11.3 18.9 24.8 36.7 39.4 53.5l35.2-30.9c51 57.8 120.1 99 199 114.7z m-234-611.6c-14.6 16.2-27.5 34.2-39.2 53.2l-30.9-17.8c75.2-122.3 208-203.9 360.6-208.2v35.5c-22.3 0.6-44.4 2.8-65.5 7.1l9.2 46.4c-79.1 15.1-148.2 56.3-199 114.1z m604.3 527.8c14.7-16.8 28.1-34.6 39.3-53.5l31.4 18.3c-75.2 121.7-208.6 203.9-361.1 208.2v-35.7c22.3-0.6 44.3-3.3 65.4-7.1l-9.2-46.4c79.1-15.7 148.3-56.9 199.1-114.7z m182.3-263.9c0 267.6-216.8 484.4-484.4 484.4s-484.4-216.8-484.4-484.4 216.8-484.4 484.4-484.4 484.4 216.8 484.4 484.4z m-23.9 0c0-254.1-206.4-460.5-460.5-460.5s-460.6 206.4-460.6 460.5 206.5 460.5 460.6 460.5 460.5-206.4 460.5-460.5z m-76.1-208.2c33.5 61.7 52.9 133 52.9 208.2s-19.4 146.5-52.9 207.8l-30.9-17.8c10.3-19.5 18.9-39.4 26.6-60.5l-45-15c12.5-35.8 19.6-74.7 19.6-114.7s-6.5-78.9-19-114.6l44.4-15.1c-7.1-21.1-16.3-41.6-26.6-60.5z m-357.5 347.1l26 130.2c-16.8 3.4-34.6 5.5-52.9 5.5s-36.2-2.1-53-5.5l26-130.2c-31.8-6.5-59.5-22.7-79.5-45.9l-100 87.5c-23.2-26.6-41.6-57.5-52.9-91.4l125.4-43.2c-4.9-14.5-7.6-29.7-7.6-45.9s2.7-31.2 7.6-45.9l-126-43.2c11.9-34.1 30.3-64.8 53.5-91.4l100 87.5c20.1-23.2 47.7-40 79.5-46.5l-26-129.6c16.8-3.9 34.6-5.5 53-5.5s36.1 1.7 52.9 5.5l-26 129.6c31.9 6.5 59.6 23.3 79.5 46.5l100-87.5c23.3 26.6 41.6 57.5 53.5 91.4l-125.9 43.2c4.8 14.5 7.6 29.7 7.6 45.9s-2.8 31.3-7.6 45.9l125.4 43.2c-11.4 34.1-29.7 64.8-53 91.4l-100-87.5c-20.1 23.2-47.6 39.4-79.5 45.9z" />
  </svg>
