<svg height="1000" width="968.8" xmlns="http://www.w3.org/2000/svg"><path d="M561.7 105.9c-21.1 -4.3 -43.1 -6.5 -65.4 -7.1V63.3c152.5 4.3 285.3 85.9 360.5 208.2L826 289.3c-11.9 -19 -24.8 -36.8 -39.5 -53l-35.1 30.3c-50.8 -57.8 -120 -99 -199.1 -114.1l9.4 -46.6zM104.3 629.7l44.9 -15.1C136.7 578.9 129.7 540 129.7 500s6.4 -78.9 18.9 -114.6l-44.3 -15.1c7 -21.1 16.2 -41.6 26.6 -60.5L100 292C66.4 353.5 47.1 424.8 47.1 500S66.6 646.5 100 708.2l30.9 -17.8c-10.4 -19.5 -19 -39.6 -26.6 -60.7zm311.9 218C337.3 832 268.2 790.8 217.2 733L182 763.9c-14.6 -16.8 -28.1 -34.6 -39.4 -53.5l-31.3 18.3c75.2 121.7 208.6 203.7 361.2 208.2v-35.7c-22.1 -.6 -44.4 -3.3 -65.5 -7.1l9.2 -46.4zm-234 -611.6l35.2 30.3c50.8 -57.8 119.9 -99 199 -114.1l-9.2 -46.4c21.1 -4.3 43.2 -6.5 65.5 -7.1V63.3C320.1 67.6 187.3 149.2 112.1 271.5l30.9 17.8c11.7 -19 24.6 -37 39.2 -53.2zm604.3 527.8L751.4 733c-50.8 57.8 -120 99 -199.1 114.7l9.2 46.4c-21.1 3.8 -43.1 6.5 -65.4 7.1v35.7C648.6 932.6 782 850.4 857.2 728.7l-31.4 -18.3c-11.2 18.9 -24.6 36.7 -39.3 53.5zM968.8 500c0 267.6 -216.8 484.4 -484.4 484.4S0 767.6 0 500 216.8 15.6 484.4 15.6 968.8 232.4 968.8 500zm-23.9 0C944.9 245.9 738.5 39.5 484.4 39.5S23.8 245.9 23.8 500s206.5 460.5 460.6 460.5S944.9 754.1 944.9 500zM868.8 291.8l-30.9 17.8c10.3 18.9 19.5 39.4 26.6 60.5l-44.4 15.1c12.5 35.7 19 74.6 19 114.6s-7.1 78.9 -19.6 114.7l45 15c-7.7 21.1 -16.3 41 -26.6 60.5l30.9 17.8C902.3 646.5 921.7 575.2 921.7 500S902.3 353.5 868.8 291.8zM511.3 638.9c31.9 -6.5 59.4 -22.7 79.5 -45.9l100 87.5c23.3 -26.6 41.6 -57.3 53 -91.4L618.4 545.9c4.8 -14.6 7.6 -29.7 7.6 -45.9s-2.8 -31.4 -7.6 -45.9l125.9 -43.2C732.4 377 714.1 346.1 690.8 319.5l-100 87.5c-19.9 -23.2 -47.6 -40 -79.5 -46.5l26 -129.6c-16.8 -3.8 -34.6 -5.5 -52.9 -5.5 -18.4 0 -36.2 1.6 -53 5.5l26 129.6C425.6 367 398 383.8 377.9 407l-100 -87.5c-23.2 26.6 -41.6 57.3 -53.5 91.4l126 43.2c-4.9 14.7 -7.6 29.7 -7.6 45.9s2.7 31.4 7.6 45.9L225 589.1c11.3 33.9 29.7 64.8 52.9 91.4l100 -87.5c20 23.2 47.7 39.4 79.5 45.9l-26 130.2c16.8 3.4 34.6 5.5 53 5.5 18.3 0 36.1 -2.1 52.9 -5.5l-26 -130.2z"/></svg>