<svg height="1000" width="1250" xmlns="http://www.w3.org/2000/svg"><path d="M42.4 481.3C42.2 650.8 99 792.8 196.1 895.5H0v-791h170.3c-81 98 -128.1 226.9 -127.9 376.8zM1250 104.7h-163.3c61.3 83.4 95.1 190.4 90.3 317.8 .9 11.7 .9 22.8 0 47H449.6c-.4 214.3 76 380.7 270.7 381.5 133.8 -.6 230.5 -99.6 296.7 -207.2l188.3 94.1c-34 60.3 -71.3 112.9 -113.1 157.8H1250v-791zm-157.8 791s0 -.2 0 0h-.4 .4zm-6.1 -791h.6l-.2 -.2 -.4 .2zm-450.6 18.7c-89.6 .2 -166.2 65.5 -174.2 162.5h331.9C791 188.9 725.8 123.6 635.5 123.4z"/></svg>