
  <svg height="1000" width="968.8" xmlns="http://www.w3.org/2000/svg">
    <path d="m484.4 84.8c229.3 0 415.2 185.9 415.2 415.2s-185.9 415.2-415.2 415.2-415.3-185.9-415.3-415.2 186-415.2 415.3-415.2z m-190.3 259.5h-0.3v52c0 9.8 7.6 17.4 17.3 17.4h34.6c9.8 0 17.4-7.6 17.4-17.4v-52c0-160.3 242.2-160.3 242.2 0v52c0 9.8 7.6 17.4 17.4 17.4h34.5c9.8 0 17.4-7.6 17.4-17.4v-52c0-104.8-85.3-190.2-190.2-190.2s-190.3 85.4-190.3 190.2z m467 397.9v-276.8c0-18.9-15.6-34.5-34.5-34.5h-484.4c-19 0-34.6 15.6-34.6 34.5v276.8c0 18.9 15.6 34.6 34.6 34.6h484.4c18.9 0 34.5-15.7 34.5-34.6z m-484.3-268.2v259.6c0 4.9-3.8 8.6-8.6 8.6h-17.4c-4.9 0-8.6-3.7-8.6-8.6v-259.6c0-4.9 3.7-8.6 8.6-8.6h17.4c4.8 0 8.6 3.7 8.6 8.6z m276.7 95.1c0 25.4-14 47.7-34.6 59.4v61.7c0 9.8-7.6 17.4-17.3 17.4h-34.6c-9.8 0-17.4-7.6-17.4-17.4v-61.7c-20.5-11.9-34.6-34-34.6-59.4 0-38.4 30.9-69.1 69.2-69.1 38.3 0 69.3 30.9 69.3 69.1z m-69.1-553.5c267.6 0 484.4 216.8 484.4 484.4s-216.8 484.4-484.4 484.4-484.4-216.8-484.4-484.4 216.8-484.4 484.4-484.4z m0 934.2c248 0 449.8-201.8 449.8-449.8s-201.8-449.8-449.8-449.8-449.8 201.8-449.8 449.8 201.7 449.8 449.8 449.8z" />
  </svg>
