<svg height="1000" width="968.8" xmlns="http://www.w3.org/2000/svg"><path d="M484.4 84.8C255.1 84.8 69.1 270.7 69.1 500s186 415.2 415.3 415.2S899.6 729.3 899.6 500 713.7 84.8 484.4 84.8zM294.1 344.3c0 -104.8 85.4 -190.2 190.3 -190.2s190.2 85.4 190.2 190.2v52c0 9.8 -7.6 17.4 -17.4 17.4h-34.5c-9.8 0 -17.4 -7.6 -17.4 -17.4v-52c0 -160.3 -242.2 -160.3 -242.2 0v52c0 9.8 -7.6 17.4 -17.4 17.4h-34.6c-9.7 0 -17.3 -7.6 -17.3 -17.4v-52zm467 397.9c0 18.9 -15.6 34.6 -34.5 34.6H242.2c-19 0 -34.6 -15.7 -34.6 -34.6V465.4c0 -18.9 15.6 -34.5 34.6 -34.5h484.4c18.9 0 34.5 15.6 34.5 34.5v276.8zM276.8 474v259.6c0 4.9 -3.8 8.6 -8.6 8.6h-17.4c-4.9 0 -8.6 -3.7 -8.6 -8.6V474c0 -4.9 3.7 -8.6 8.6 -8.6h17.4c4.8 0 8.6 3.7 8.6 8.6zm276.7 95.1c0 25.4 -14 47.7 -34.6 59.4v61.7c0 9.8 -7.6 17.4 -17.3 17.4H467c-9.8 0 -17.4 -7.6 -17.4 -17.4v-61.7C429.1 616.6 415 594.5 415 569.1c0 -38.4 30.9 -69.1 69.2 -69.1s69.3 30.9 69.3 69.1zM484.4 15.6C216.8 15.6 0 232.4 0 500s216.8 484.4 484.4 484.4S968.8 767.6 968.8 500 752 15.6 484.4 15.6zm0 934.2C236.3 949.8 34.6 748 34.6 500S236.3 50.2 484.4 50.2 934.2 252 934.2 500 732.4 949.8 484.4 949.8z"/></svg>