
  <svg height="1000" width="1000.0" xmlns="http://www.w3.org/2000/svg">
    <path d="m501.1 15.6c273.5 0 483.3 199.9 483.3 469.9 0 342-324.5 533.6-623.9 451.2-17.6-4.7-18.9-1.1-122.2 44.4-4.8 2.1-10.1 3.2-15.6 3.2-21 0-38.2-16.7-38.9-37.5-2.7-90.6 0.6-99.1-15.7-113.8-94.4-84.3-152.5-206.3-152.5-347.5 0-270 212-469.9 485.5-469.9z m291.5 361.6c13.7-21.6-13-46.1-33.4-30.5l-153.2 116c-4.9 3.6-11 5.8-17.6 5.8s-12.6-2.2-17.5-5.8l-113.4-84.9c-12.2-9.1-27.3-14.6-43.6-14.6-26 0-48.8 13.6-61.7 34l-142.6 225.7c-13.8 21.6 13 46.1 33.4 30.6l153.1-116.1c4.9-3.6 11-5.8 17.6-5.8s12.7 2.2 17.5 5.8l113.5 84.9c12.2 9.1 27.3 14.6 43.6 14.6 25.9 0 48.7-13.6 61.7-34z" />
  </svg>
