
  <svg height="1000" width="1000.0" xmlns="http://www.w3.org/2000/svg">
    <path d="m500 64.2l435.8 435.8-435.8 435.8-435.8-435.8z m-327.5 435.5c27 26.7 53.4 52.8 80.4 79.5 39.3-38.8 79-77.9 120.8-119.1 23.5 24.5 47.9 49.9 71.3 74.4 23.5-22.8 46.4-45 69.7-67.7-13.6-14.5-62.7-64.1-68.5-69.9-3.7-3.7-4.5-6.3-0.2-10.4 30.4-29.8 76.6-34.8 111.3-10 15.6 11.2 27.9 22.8 94.7 85.9 21.1-21.8 43.4-44.7 65.4-67.8 1-1 0.2-5.1-1.1-6.6-0.2-0.2-73.3-79.3-121.4-115.2-65.6-49-152.9-45.1-233.9 36.5-165.2 166.3-184.6 186.5-188.5 190.4z m458.7 198.4c36.7-36.7 156.9-157.5 196.3-198.2-26.9-26.3-53.1-52-79.8-78.2-39.1 38.5-78.6 77.5-119.7 118-24.1-25.1-48.6-50.6-72.7-75.7-2.5 1.4-3.2 1.6-3.8 2.1-20.9 21-41.8 42.1-62.9 63.1-4.3 4.3-1 6.5 1.6 9.1 20.7 21 41.4 41.9 62 62.9 7 7 7 7.5-0.2 14.1-32.8 30.2-79.8 32.3-115.9 3.5-14.9-11.8-22.8-19.9-87.3-82.2-22.6 23.2-45.5 46.8-69 70.9 65.5 67.9 99.3 104.2 142.4 130.6 56.5 34.5 139.7 29.2 209-40z m-131.2-698.1l500 500-500 500-500-500z m-468.7 500l468.7 468.8 468.8-468.8-468.8-468.7z" />
  </svg>
