
  <svg height="1000" width="1250.0" xmlns="http://www.w3.org/2000/svg">
    <path d="m1144.5 555.7l105.5 118.1h-125.8l-43.5-48.8-43.2 48.8h-414.5v-23.2h-0.9c-15.5 22.8-40.7 36.3-68.2 36.3-63.9 0-110.1-51.5-117.4-111.1h-167c0 45.9 60.8 69.3 89.5 28.5h82c-53.9 132.2-254.3 96.5-254.3-46.3 0-12.5 1.6-24.4 4.5-35.5h-95.5v151.3h-95.7v-360.1h212.9v80.2h-117.2v51.2h107v47.3c47.9-85.2 203-88.7 238.1 27.3 14.7-49.8 56.5-87.7 111.9-87.7 27.2 0 50.4 7.5 69.2 28.9h1v-147.4h295.3v93.9h-109.6v31.3h231.8l44 48.4 42.4-48.4h121.8z m-872.4-32.5h90.8c-9.4-50-78.9-51.3-90.8 0z m299.6 95.6c67.4 0 63.7-122.7 0-122.7-66.4 0-67.6 122.7 0 122.7z m327.7 37.3v-57.9h-109.6v-87.3h109.6v-54.8h-108.4v-66.3h109.6v-58.9h-185.6v325.2h184.4z m-89.6-77.8h109.5v89.1l99.1-111.3-99.1-111.4v86h-109.5v47.6z m270.7 20.1l51.3 57.7h79.1l-89.8-100.4 88.7-99.6h-75.2l-50 57.2-52-57.2h-77.5l89 100-89 100h74.4z" />
  </svg>
