
  <svg height="1000" width="875.0" xmlns="http://www.w3.org/2000/svg">
    <path d="m439.5 62.5c241.6 0.6 436.9 197.1 436.3 438.7-0.6 241.6-197.1 436.9-438.7 436.3l-332.4-0.8c-57.8 0-104.7-46.9-104.7-104.7 0-0.2 0-0.4 0-0.6l0.8-332.6c0.8-241.6 197-436.9 438.7-436.3z m331.6 307c-0.2-15-2.1-29.6-5.5-43.7l-107.8-109.6v3.1c0 10-2.9 18.8-7.4 28z m-124.6-185.3c3.8 5.3 6.6 11.4 8.2 17.9l106 106.7c-18.6-56.1-60.4-101.3-114.2-124.6z m-415.8 298.6c-10.9 0.9-21.5 2.8-31.7 5.7l16.6 16.6c4-8.2 9.1-15.6 15.1-22.3z m-41.2 8.2c-9.3 2.6-18.3 6-26.8 10.2l52.7 53.1c-2.9-7.6-4.6-15.8-4.7-24.4l1.8-15.6z m-35.6 14.5c-7.6 4.2-14.9 8.9-21.9 14l69 70.1c8.5-4.2 17.9-7.4 27.5-9.1z m-29.7 19.1c-7.2 5.4-13.8 11.5-19.7 18.4l68.2 67.5c6.2-6.2 13-11.7 20.5-16.6z m-26 24c-5.6 6.5-11.3 13.1-16.8 20.5l70 70.2c4.1-8.1 9.1-15.5 15-22.3z m-21.4 28c-4.9 7.4-9.3 15.3-13.1 23.4l77.1 77.7c0.8-10.4 3.2-20.5 7.1-29.7z m-17.2 31.8c-3.5 9.6-6.5 18.7-9.2 28.3l102.9 104.5c-7.7-15.4-12.4-32.9-13.1-51.2z m-15.5 84c0.1 14.8 2.1 29.1 5.7 42.8l108.2 108.7v-2.1c0.1-10.1 2.6-19.6 7-27.9z m10.4 59.9c18.7 56.1 60.5 101.3 114.3 124.7-3.8-5.4-6.6-11.5-8.3-18z m-10.4-72.2l125.8 125.4c5.4-6.8 11.9-12.5 19.4-17l-141.1-141.6c-2.5 10.7-3.9 21.8-4.1 33.2z m494.8-101.2c63.6 0.2 63.8-96.1 0.4-96.5l-65.7-0.2c-9.6 0-17.4-7.8-17.4-17.4v-0.2l0.2-91.7c0.2-79.2 75.4-118.8 129-107.3 30 7.6 59.1-16.4 59.1-46.7 0-23.6-17-43.3-38.8-46.8-12.5-3-25.4-4.5-38.7-4.5-0.3 0-0.5 0-0.8 0-0.3 0-0.5 0-0.8 0-113.3 0-205.2 91.8-205.4 205.1l-0.2 109.3-83.2-0.2c-63.7-0.2-63.9 96.1-0.2 96.3l65.6 0.2c8.6 0 17.4 8.8 17.4 17.6l-0.2 91.8c0 60.3-49 109.2-109.2 109.2h-0.4c-18.4 0-18.4-3.2-30.7-3.2-26.2 0.5-47.5 21.8-47.8 48.1 0 30.3 27.7 47.3 38.9 47.3 119.7 25.2 245.1-65.7 245.5-201l0.2-109.4z m45.9-0.6c10.7-1 21.3-3 31.4-5.6l-16.6-16.6c-3.5 8.3-8.5 15.9-14.8 22.2z m41-8.2c9.2-2.6 18.3-6.1 26.7-10.3l-52.7-53.2c3 7.6 4.6 15.9 4.7 24.5l-1.8 15.8z m35.1-14.4c7.9-4.3 15.9-9.2 23.3-14.1l-70.7-70.1c-8 4.5-17.2 7-26.8 9.2z m30.3-19.2c6.9-5.5 13.4-11.3 19.7-17.6l-68.1-68.3c-6.2 6.3-13.1 11.8-20.5 16.6z m25.8-24c6-6.6 11.5-13.3 16.8-20.5l-69.9-70.1c-4.2 8-9.3 15.4-15.1 22.2z m21.5-27.9c4.9-7.4 9.3-15.3 13.1-23.5l-77.2-77.7c-0.7 10.4-3.2 20.5-7 29.7z m26.3-60.4l-103.7-104.3c8.4 15.2 13.4 32.8 13.9 51.2l80.7 81c3.5-9 6.6-18.4 9.1-27.9z m2-10.9c2.4-10.5 4-21.3 4.5-32.4l-125.6-126.4c-5.1 7.3-11.6 13.4-19.3 18z" />
  </svg>
