
  <svg height="1000" width="1000.0" xmlns="http://www.w3.org/2000/svg">
    <path d="m255.1 241.2c0.3 0 0.2 0 0 0z m686.4 88.6c29.8 71.8 40.4 157.7 30.9 239.4-0.7 6.1-1.4 12.3-2.2 18.4-38.3 224.6-233.9 395.7-469.6 395.7-263.1 0-476.4-213.3-476.4-476.4v-2.4c0.3-5.3 0.6-10.5 1-15.8 0.1-0.5 0.1-1 0.1-1.4 0.9-12.3 1.7-20.2 2.8-27.4 0.5-3.7 1-7.5 1.5-11.2 3.3-24 7.7-43.4 7.8-43.9 11.7-52.5 33.9-101.8 64-144.3v0c13.4-19.2 28.1-36.8 44.4-53.4 14.4-14.7 29.8-27.9 46.6-39.9 1.8-1.2 15.7-9.5 15.9-8.4-1.1 16.4-2.4 95.3 16.5 119.3h0.2c27.7-31.1 65.7-66.4 114.7-88.6-4.7 17.8-7.1 36.4-7.1 55.7 0 21 2.9 41.4 8.4 60.7 4.3 2.9 8.4 6 12.4 9.3 7.2 6.2 15.4 14.4 32.7 31.4 32.3 31.9 115.3 64.8 115.4 68.7-0.8 11.9-42.6 52.7-57.3 52.7-135.4 0-157.4 82-157.4 82 6 69 54 125.8 112.3 155.7 2.7 1.5 5.4 2.7 8 3.9 4.7 2.1 9.3 4 14 5.8 19.5 6.9 40.4 11 62 11.9 237.5 11.2 283.5-283.8 112.1-369.5 43.9-7.6 89.5 10 114.9 27.9-20.3-35.4-48.7-64.8-83.3-86.2-2-1.2-3.9-2.4-5.9-3.5-3-1.8-6.1-3.5-9.2-5.2-1.5-0.7-3-1.4-4.4-2.2-3.3-1.6-6.5-3.1-9.8-4.6-2.1-0.9-4.2-1.7-6.3-2.6-2.7-1.1-5.3-2.1-8-3.1-3.6-1.3-7.2-2.5-10.9-3.6-1.4-0.4-2.6-0.9-3.9-1.3-21.2-6.1-43.4-9.4-66.5-9.4-0.7 0-1.3 0-2 0-3.9 0.1-7.8 0.2-11.7 0.5l-2.8 0.1c-29.1 2.1-57.1 9.7-82.2 21.5l-1.1 0.4c-1.2 0.5-2.5 0.7-3.9 0.7-5.2 0-9.6-3.4-11.3-8.1-0.4-1.3-0.7-2.7-0.7-4.2 0-4.7 2.7-8.9 6.8-10.9 28.7-13.6 60.9-22.2 94.4-24.1 11.3-69.1 55.2-177.7 161.1-239.8l-0.2 0.3 0.4-0.2 0.2-0.1c0.1-0.1 0.3-0.1 0.4-0.1 0.2 0 0.3 0 0.5 0.1 0.6 0 1.1 0.6 1.1 1.2 0 0 0 0 0 0 1.6 6.6 4 13 7.1 18.8 1.6 3.4 3.3 6.7 5.2 9.9 3.7 6.3 7.5 12.3 11.2 18.2 74.6 117.9 166 172.1 219.9 306.3-0.1-0.5-0.1-0.8-0.1-0.8-6-39.3-21.5-92-48.3-144.5 32.9 17 74.9 70.8 95.6 120.6z" />
  </svg>
