<svg height="1000" width="937.5" xmlns="http://www.w3.org/2000/svg"><path d="M933.8 459.6c-1.4 -8.8 -2.7 -13.9 -2.7 -13.9s-3.6 3.9 -9.2 11.5c-1.8 -20.9 -5.5 -41.4 -11.4 -61.7 -7.2 -25.2 -16.6 -49.6 -28.3 -73 -7.4 -15.7 -16 -30.5 -25.9 -44.6 -3.6 -5.2 -7.3 -10.5 -11 -15.4C828.1 234.4 808.2 217 785.4 184.4c-14.9 -25 -25.2 -52.6 -30.1 -81.3 -6.3 17.4 -11.2 35.2 -14.5 53.3 -23.6 -23.8 -43.9 -40.6 -56.4 -52.1C623.8 47.3 630.9 17.8 630.9 17.8S517 144.9 566.2 277.3c17 45 46.5 84.2 84.8 113.1 47.6 39.5 99.2 70.3 126.3 149.6C755.5 498.4 722.5 463.5 682 439.5c12.1 28.7 18.4 59.7 18.2 90.8 0 119.1 -96.9 215.8 -216 215.6 -16.2 0 -32.2 -1.8 -47.9 -5.5 -18.5 -3.5 -36.5 -9.5 -53.5 -18.1C357.6 707 335.9 686.9 318.7 663.1l-.3 -.6 3.9 1.4c8.9 3.1 17.9 5.4 27.3 7.2 36.5 7.8 74.8 3.3 108.6 -12.9 34.2 -18.9 54.7 -33 71.5 -27.3h.4c16.4 5.2 29.3 -10.8 17.6 -27.4 -20.4 -26.2 -53.6 -39 -86.4 -33.2 -34.2 4.9 -65.4 29.3 -110.1 5.7 -3 -1.6 -5.7 -3.1 -8.4 -4.9 -3.2 -1.8 9.5 2.5 6.6 .6 -9.8 -4.9 -19.1 -10.6 -28.1 -16.8 -.6 -.6 6.8 2.1 6 1.5C315.8 548.6 305.9 538.5 298 526.8c-8 -14.5 -8.7 -32.1 -1.9 -47.1 4.1 -7.4 10.5 -13.5 18.2 -17 5.8 2.9 9.3 5.1 9.3 5.1s-2.5 -4.9 -4.1 -7.4c.6 -.2 1 0 1.6 -.4 5.1 2.1 16.2 7.8 22.3 11.3 4.1 2.1 7.4 5.3 10.1 9.2 0 0 2 -1 .6 -5.3 -2.1 -5.3 -5.7 -9.8 -10.5 -12.9h.3c4.5 2.3 8.8 5.1 12.9 8 3.7 -8.6 5.5 -18 5.1 -27.3 .4 -5.1 -.4 -10.4 -2.1 -15.3 -1.6 -3.1 .9 -4.3 3.7 -.9 -.4 -2.6 -1.4 -4.9 -2.4 -7.3v-.2s1.6 -2.1 2.4 -2.9c1.9 -1.9 4.1 -3.7 6.6 -5.3 14.1 -8.8 28.9 -16.4 44.4 -22.6 12.5 -5.5 22.8 -9.6 25 -11 3.1 -1.9 6 -4.3 8.7 -6.8 10.4 -8.8 17.6 -21.1 20 -34.6 .2 -1.7 .4 -3.5 .6 -5.4v-3C467 320.9 455.3 315.8 393.7 310c-21.6 -3.6 -39 -19.8 -43.9 -41.3v.2c-.8 2.2 -1.8 4.5 -2.5 6.9 .7 -2.4 1.5 -4.5 2.5 -6.9v-.3c11.7 -30.7 32.8 -56.9 60.2 -74.9 1.5 -1.3 -6.3 .4 -4.7 -.9 5.2 -2.6 10.5 -4.9 16 -6.9 2.7 -1.1 -11.7 -6.6 -24.6 -5.2 -7.8 .4 -15.6 2.3 -22.9 5.4 3.2 -2.5 12.1 -6 10 -6 -16.4 3.1 -32.2 9.2 -46.7 17.6 0 -1.6 .2 -3 1 -4.3 -11.5 4.8 -21.5 12.7 -29.3 22.4 .2 -1.7 .4 -3.5 .4 -5.3 -5.3 4 -10.2 8.4 -14.3 13.5l-.2 .2C260.7 211.1 223.8 208 188.1 215l-.4 -.2h.4c-7.4 -6 -13.9 -13 -19 -21.2l-.4 .1 -.7 -.3c-2.4 -3.6 -4.7 -7.5 -7.3 -11.8 -1.7 -3.1 -3.5 -6.6 -5.2 -10.1 0 -.2 -.2 -.4 -.4 -.4 -.8 0 -1.2 3.3 -1.8 2.5v-.2c-6.2 -16.2 -9.2 -33.6 -8.6 -51.1l-.4 .2c-9.9 6.8 -17.5 16.8 -21.6 28.3 -1.8 4.1 -3.2 6.4 -4.3 8.8v-1c.2 -2.2 1.1 -6.5 .9 -6.1 -.2 .4 -.4 .6 -.6 .8 -2.9 3.3 -5.6 7.2 -7.6 11.3 -1.7 3.8 -3.3 7.7 -4.5 11.6 -.2 .6 0 -.6 0 -2s.2 -3.9 0 -3.3l-.5 1.4c-13.1 29.1 -21.3 60.1 -24.3 92 -.7 5.4 -1.1 10.9 -.9 16.2v.4C71.5 291 63.3 302.3 56.1 314.3c-23.7 39.8 -41.3 83 -52.4 128.1 7.8 -17.2 17.2 -33.6 27.9 -49C10.7 446.3 0 502.7 0 559.8 3.5 543 8.2 526.6 13.7 510.4c-3.3 67.3 9.5 134.5 37.9 195.9 37.9 84.9 100.7 156.2 180.2 204.4 32.5 21.9 67.8 38.9 105.1 50.4 4.9 1.8 10 3.5 15.1 5.3 -1.6 -.6 -3.2 -1.4 -4.7 -1.9 44.1 13.2 90.2 20.1 136.3 20.1 163.5 0 217.4 -62.3 222.3 -68.4 8 -7.2 14.6 -16 19.3 -26 3.1 -1.3 6.2 -2.7 9.6 -4.1l1.9 -.9 3.7 -1.8c24.6 -11.5 47.9 -26.2 69 -43.2 31.8 -22.8 54.5 -56 64.2 -93.9 5.9 -13.9 6.1 -29.3 .8 -43.4 1.8 -2.7 3.3 -5.4 5.3 -8.4 35.1 -56.4 55.1 -120.9 57.8 -187.3v-5.4c0 -14.3 -1.2 -28.4 -3.7 -42.2z"/></svg>