
  <svg height="1000" width="1000.0" xmlns="http://www.w3.org/2000/svg">
    <path d="m983.4 471.6c0.5 8.7 0.7 17.6 1 26.4 0 268-217.3 485.2-485 485.2-239.8 0-439.2-174.3-478.1-403-0.7-6.4-1.4-12.5-2.1-18.8-9.6-83.2 0.9-170.6 31.4-243.7 21.1-50.6 63.7-105.5 97.3-122.8-31.7 62.1-47.2 123-50.4 163.8 22-72.7 63.7-133.5 122.1-176.5 100-73.6 234.8-76.9 288.4-30-99.6 34.2-208.1 171.8-184.2 333 4 27 12.2 53.1 23.7 76.7-18.6-49-20.2-117.9 9.8-162.7 33.5-49.9 81.3-60.4 106.8-55-10-2.1-32.3 40.5-35.6 48-7.8 17.8-12.2 37.5-12.2 58.1 0 0.8 0 1.6 0 2.4 0.8 45.2 19.8 86 50 115.3 93 90.7 243.2 55 310.5-48.5 46.2-71.3 51.8-192.2-7.5-288.3-14.9-23.6-32.4-44.9-52.5-64-93.1-88.8-226.7-126.3-352-103.5-0.5 0-1.2 0.2-1.7 0.2-3.5 0.7-6.8 1.5-10.1 2.2-0.7 0.2-1.6 0.2-2.3 0.4l-11.5 2.8c-28.3 7-67.9 21.1-96.5 38.2-0.2 0.1-0.4 0.1-0.5 0.3l0.2-0.3c0 0.2-0.1 0.3-0.2 0.3l-0.2 0.2 0.2-0.2h-0.3l1-1c0.9-0.9 2.6-2.2 4.7-4.2 38.4-34.7 96.3-62.3 161.9-76.2 28.8-6 58.3-9.4 88.8-9.7h20.8c25.3 0.6 50 3.2 74.2 7.8 1.9 0.2 3.4 0.7 5.4 0.9h0.2c3.5 0.7 7.3 1.7 11 2.4 37.7 8.5 74.5 21.6 108.3 38.2 4.7 2.3 9.4 4.7 14.1 7.2 16.9 8.5 33 18.4 48 29.6 8.5 6.1 16.6 12.4 24.4 19.2 12.7 10.1 24.5 20.9 35.7 32.6 16.6 16.3 31.8 33.5 45.9 52 1.9 2.4 3.5 4.7 5.4 7.3 0.8 0.9 1.3 1.6 2 2.6l3.5 4.9c0.7 0.9 1.4 2.1 2.1 3.1 0.9 1.4 2.1 3 3 4.4 0.9 1.1 1.7 2.3 2.4 3.5l2.8 4.2c0.9 1.1 1.6 2.3 2.3 3.5 1 1.4 1.9 3 2.6 4.2 0.7 1.2 1.7 2.4 2.4 3.8 0.7 1.3 1.6 2.5 2.3 3.9 0.7 1.3 1.7 2.5 2.4 3.9 0.8 1.2 1.6 2.5 2.3 3.9 0.7 1.4 1.6 3 2.3 4.2 0.7 1.2 1.4 2.6 2.2 3.8 0.7 1.6 1.5 3.2 2.3 4.4 0.8 1.2 1.2 2.4 2 3.5 0.7 1.7 1.6 3.1 2.3 4.7 0.5 0.9 0.9 2.1 1.4 3.1 0.9 1.6 1.6 3.2 2.6 5.1l0.7 1.4c3.4 7.3 6.7 14.8 9.7 22.3 0 0.2 0.3 0.5 0.3 0.7 0.8 2.3 1.9 4.4 2.8 6.8 0.2 0.5 0.5 1.2 0.7 1.6 0.9 2.1 1.6 4.5 2.6 6.6 0.2 0.6 0.5 1.3 0.7 1.9 0.7 2.1 1.6 4.5 2.3 6.6l0.7 2.1c1 2.4 1.7 4.5 2.4 6.8 0.2 0.8 0.4 1.3 0.7 2 0.7 2.1 1.4 4.4 2.1 6.8 0.2 0.4 0.2 1.1 0.5 1.6 0.7 2.3 1.4 4.9 2.1 7.3 0.2 0.2 0.2 0.7 0.4 1.1l2.1 7.9c0.3 0.2 0.3 0.2 0.3 0.4 6.9 25.9 11.8 53 14.3 80.4v0.2l0.7 9.2v0.2c0 3 0.2 6.1 0.4 9.1z" />
  </svg>
