<svg height="1000" width="968.8" xmlns="http://www.w3.org/2000/svg"><path d="M484.4 15.6C216.9 15.6 0 232.5 0 500s216.9 484.4 484.4 484.4S968.8 767.5 968.8 500 751.9 15.6 484.4 15.6zm0 953.6C225.3 969.2 15.2 759.1 15.2 500S225.3 30.8 484.4 30.8 953.5 240.9 953.5 500s-210 469.2 -469.1 469.2zm0 -898.3C247.4 70.9 55.3 263 55.3 500s192.1 429.1 429.1 429.1S913.5 737 913.5 500 721.4 70.9 484.4 70.9zm0 842.2C256.2 913.1 71.3 728.2 71.3 500S256.2 86.9 484.4 86.9s413.1 185 413.1 413.1 -185 413.1 -413.1 413.1zM848.1 594.8a374.2 -374.2 0 0 0 -39.3 95.1L664 619.8l120.1 107.1a378 -378 0 0 0 -72.7 72.8l-107 -120.2 70.1 145a372.9 -372.9 0 0 0 -95 39.5L526.2 710.8l9.3 161.9c-16.8 2.3 -33.9 3.6 -51.4 3.6s-34.6 -1.3 -51.4 -3.6l9.3 -161 -53 152.4a373.8 -373.8 0 0 0 -95.1 -39.5l70.2 -145.2L257 799.8A378.6 -378.6 0 0 0 184.3 727L304.6 619.8 159.5 690a374.3 -374.3 0 0 0 -39.3 -95.1l152 -53 -160.6 9.3c-2.3 -16.7 -3.5 -33.8 -3.5 -51.2 0 -17.6 1.3 -34.8 3.6 -51.8l160.9 9.4L120.4 404.5a374.5 -374.5 0 0 0 39.5 -95l144.9 70.1L184.7 272.5a378.6 -378.6 0 0 0 72.8 -72.7l106.9 120.1L294.5 175.1a374 -374 0 0 0 95 -39.3L442 286.6l-9.2 -159.4c16.8 -2.3 33.9 -3.5 51.4 -3.5s34.6 1.2 51.4 3.5l-9.3 160.5 52.8 -151.9c33.8 8.8 65.7 22.2 95 39.4L604.2 320 711 199.9a377.2 -377.2 0 0 0 72.8 72.8l-120 106.9 144.7 -70a374.1 -374.1 0 0 0 39.5 95l-152 52.9 160.6 -9.2c2.3 16.9 3.6 34.1 3.6 51.7 0 17.3 -1.2 34.4 -3.5 51.2l-160.4 -9.3 151.8 52.9z"/></svg>