
  <svg height="1000" width="968.8" xmlns="http://www.w3.org/2000/svg">
    <path d="m484.4 15.6c267.5 0 484.4 216.9 484.4 484.4s-216.9 484.4-484.4 484.4-484.4-216.9-484.4-484.4 216.9-484.4 484.4-484.4z m0 953.6c259.1 0 469.1-210.1 469.1-469.2s-210-469.2-469.1-469.2-469.2 210.1-469.2 469.2 210.1 469.2 469.2 469.2z m0-898.3c237 0 429.1 192.1 429.1 429.1s-192.1 429.1-429.1 429.1-429.1-192.1-429.1-429.1 192.1-429.1 429.1-429.1z m0 842.2c228.1 0 413.1-185 413.1-413.1s-185-413.1-413.1-413.1-413.1 184.9-413.1 413.1 184.9 413.1 413.1 413.1z m363.7-318.3c-8.7 33.6-22.2 65.9-39.3 95.1l-144.8-70.1 120.1 107.1c-20.9 27.6-45.1 51.8-72.7 72.8l-107-120.2 70.1 145c-29.2 17.2-61.5 30.7-95 39.5l-53.3-153.2 9.3 161.9c-16.8 2.3-33.9 3.5-51.4 3.5s-34.6-1.2-51.4-3.5l9.3-161-53 152.4c-33.6-8.8-65.9-22.3-95.1-39.5l70.2-145.2-107.1 120.4c-27.6-21-51.8-45.2-72.7-72.8l120.2-107.2-145 70.2c-17.1-29.3-30.6-61.6-39.3-95.1l152-53-160.6 9.3c-2.3-16.7-3.5-33.8-3.5-51.2 0-17.6 1.3-34.8 3.6-51.8l160.9 9.4-152.2-53.1c8.7-33.6 22.3-65.8 39.5-95l144.9 70.1-120.1-107.1c20.9-27.6 45.1-51.8 72.8-72.7l106.9 120.1-69.9-144.8c29.2-17.1 61.4-30.6 95-39.3l52.5 150.8-9.2-159.4c16.8-2.3 33.9-3.5 51.4-3.5 17.4 0 34.5 1.2 51.4 3.5l-9.3 160.5 52.8-151.9c33.8 8.8 65.7 22.2 95 39.4l-69.9 144.8 106.8-120.1c27.7 21 51.8 45.1 72.8 72.8l-120.1 106.9 144.8-70c17.2 29.2 30.7 61.4 39.5 95l-152 52.9 160.6-9.2c2.3 16.9 3.6 34.1 3.6 51.7 0 17.3-1.2 34.4-3.5 51.2l-160.4-9.3z" />
  </svg>
