
  <svg height="1000" width="875.0" xmlns="http://www.w3.org/2000/svg">
    <path d="m25.2 447.7c0.2-0.2 0.4-0.6 0.6-0.8 0 0.2 0 0.6-0.2 0.8h-0.4z m412.3-259c14.5 0 28.5 0.9 42.4 3.3l-7.8 132.2 43.5-125.6c28 7.5 54.1 18.6 78.2 33l-57.5 119.4 88.1-99.4c22.5 17.3 42.4 37.5 59.8 60.3l-98.8 88.7 118.9-58c14.6 24 25.2 50.8 32.4 78.7l-125 43.5 132.2-7.8c2.2 13.9 2.8 28.5 2.8 43s-0.6 28.5-2.8 42.4l-131.6-7.8 125 43.5c-7.2 28.5-18.6 54.7-32.4 78.7l-119.4-57.4 98.9 88.1c-16.8 23-36.9 43-59.8 60.4l-87.7-99.5 57.4 119.8c-24 14.6-50.2 25.2-78.1 33l-44.1-127.2 7.8 134c-13.9 2.2-27.9 3.3-42.4 3.3-13.9 0-28.5-1.1-42.4-3.3l7.8-132.8-43.5 126.2c-28-7.5-54.1-18.6-78.1-33l57.6-120-87.7 99.5c-23.1-16.8-43-37.5-60.4-60.4l99.4-88.1-119.3 58c-14.1-24.6-25.2-50.8-32.4-78.7l125-44.1-132.2 7.8c-1.6-13.9-2.8-27.9-2.8-42.4s1-29.1 2.8-43l132.8 7.8-125.6-44.1c7.2-27.9 18.5-54.1 32.4-78.1l119.3 58-98.8-88.7c17.4-23 37.5-43 59.8-60.3l88.1 99.4-57.5-119.9c24.1-14.1 50.2-25.2 78.2-32.5l42.9 125-7.2-131.6c13.3-2.2 27.9-3.3 41.8-3.3z m428.5 61.3v500l-428.5 250-428.5-250v-500l428.5-250z m-33.4 20.1l-395.1-229.3-395.1 229.3v459.2l395.1 229.9 395.1-229.9v-459.2z m-395.1-197.6l366.6 213.6v427.6l-366.6 213.8-366.6-213.8v-427.4z m0 99.4c-180.3 0-326 146.7-326 328.1 0 180.9 145.7 327.5 326 327.5 179.7 0 326-146.6 326-327.5 0-181.4-146.3-328.1-326-328.1z" />
  </svg>
