<svg height="1000" width="875" xmlns="http://www.w3.org/2000/svg"><path d="M25.2 447.7c.2 -.2 .4 -.6 .6 -.8 0 .2 0 .6 -.2 .8h-.4zm412.3 -259c-13.9 0 -28.5 1.1 -41.8 3.3l7.2 131.6L360 198.6c-28 7.3 -54.1 18.4 -78.2 32.5L339.3 351l-88.1 -99.4c-22.3 17.3 -42.4 37.3 -59.8 60.3l98.8 88.7 -119.3 -58c-13.9 24 -25.2 50.2 -32.4 78.1l125.6 44.1L131.3 457c-1.8 13.9 -2.8 28.5 -2.8 43s1.2 28.5 2.8 42.4l132.2 -7.8 -125 44.1c7.2 27.9 18.3 54.1 32.4 78.7l119.3 -58 -99.4 88.1c17.4 22.9 37.3 43.6 60.4 60.4l87.7 -99.5 -57.6 120c24 14.4 50.1 25.5 78.1 33l43.5 -126.2L395.1 808c13.9 2.2 28.5 3.3 42.4 3.3 14.5 0 28.5 -1.1 42.4 -3.3l-7.8 -134 44.1 127.2c27.9 -7.8 54.1 -18.4 78.1 -33L536.9 648.4l87.7 99.5c22.9 -17.4 43 -37.4 59.8 -60.4l-98.9 -88.1 119.4 57.4c13.9 -24 25.2 -50.2 32.4 -78.7l-125 -43.5 131.6 7.8c2.2 -13.9 2.8 -27.9 2.8 -42.4s-.6 -29.1 -2.8 -43l-132.2 7.8 125 -43.5c-7.2 -27.9 -17.8 -54.7 -32.4 -78.7l-118.9 58 98.8 -88.7c-17.4 -22.8 -37.3 -43 -59.8 -60.3L536.3 351l57.5 -119.4c-24.1 -14.4 -50.2 -25.5 -78.2 -33l-43.5 125.6L479.9 192C466 189.6 452 188.7 437.5 188.7zM866 250v500l-428.5 250L9 750V250L437.5 0 866 250zm-33.4 20.1L437.5 40.8 42.4 270.1v459.2l395.1 229.9L832.6 729.3V270.1zM437.5 72.5l366.6 213.6v427.6L437.5 927.5 70.9 713.7V286.3L437.5 72.5zm0 99.4c-180.3 0 -326 146.7 -326 328.1 0 180.9 145.7 327.5 326 327.5 179.7 0 326 -146.6 326 -327.5 0 -181.4 -146.3 -328.1 -326 -328.1z"/></svg>