
  <svg height="1000" width="750.0" xmlns="http://www.w3.org/2000/svg">
    <path d="m386.3 835.5c25.2 22.9 65.8 65.1 64.9 99.1 0 1.5-0.2 3.1-0.2 4.9-3.5 38.6-36.7 60.7-76.4 60.5-48.8-0.2-77.9-32.8-75.6-69.9 2-31.7 40.1-71.7 63.3-93 4.5-4.1 5.3-5.3 10.9-7 6.7 0 7.7 0.6 13.1 5.4z m261.9-704.1c46.7 78.2 54.3 143.2 40.7 219.8-29.7 136.5-202.4 325.2-304.5 421.3-3.3 3.1-2.8 2.7-6.9 4.1l-6.4-0.2c-3.3-1.2-8.8-6.9-12.1-10-114.9-112.9-290.4-296.1-304.3-456.6-2.9-139.5 57.2-221.5 161.9-276 19.3-8 72.3-33.8 158.4-33.8 43-0.4 99.8 8.8 149.6 29.7 48.3 22.4 91.8 51.5 123.6 101.7z m-283.4 555.9v-636.1c-113 10.7-141.9 174.2-135.3 267 8 113.8 80.7 269.3 135.3 369.1z m277.2-335.7c30.9-107.3-21.3-263.1-194.7-298.9 74.6 50 96.8 167 93.7 256.7-3.9 114.4-76.9 273.4-131.2 374.8 81.2-82.6 200.2-221.7 232.2-332.6z" />
  </svg>
