<svg height="1000" width="750" xmlns="http://www.w3.org/2000/svg"><path d="M386.3 835.5c25.2 22.9 65.8 65.1 64.9 99.1 0 1.5 -.2 3.1 -.2 4.9 -3.5 38.6 -36.7 60.7 -76.4 60.5 -48.8 -.2 -77.9 -32.8 -75.6 -69.9 2 -31.7 40.1 -71.7 63.3 -93 4.5 -4.1 5.3 -5.3 10.9 -7 6.7 0 7.7 .6 13.1 5.4zM648.2 131.4C616.4 81.3 572.9 52.1 524.6 29.7 474.8 8.8 418 -.4 375 0 288.9 0 235.9 25.8 216.6 33.8 111.9 88.3 51.8 170.3 54.7 309.8 68.6 470.3 244.1 653.5 359 766.4c3.3 3.1 8.8 8.8 12.1 10l6.4 .2c4.1 -1.4 3.6 -1 6.9 -4.1C486.5 676.4 659.2 487.7 688.9 351.2c13.6 -76.6 6 -141.6 -40.7 -219.8zM364.8 687.3C310.2 587.5 237.5 432 229.5 318.2c-6.6 -92.8 22.3 -256.3 135.3 -267v636.1zM642 351.6c-32 110.9 -151 250 -232.2 332.6C464.1 582.8 537.1 423.8 541 309.4 544.1 219.7 521.9 102.7 447.3 52.7 620.7 88.5 672.9 244.3 642 351.6z"/></svg>