<svg height="1000" width="875" xmlns="http://www.w3.org/2000/svg"><path d="M777 132.4c15.2 0 27.9 12.9 27.9 28v678.9c0 15.2 -12.9 27.9 -27.9 27.9H98c-15.2 0 -27.9 -12.9 -27.9 -27.9V160.5C70.1 145.3 83 132.6 98 132.6h679m0 -70.1H98c-53.7 0 -98 44.3 -98 98v679c0 53.7 44.3 98 98 98h679c53.7 0 98 -44.3 98 -98v-679c0 -53.7 -44.3 -98 -98 -98zM662.7 334.4c-11.7 0 -58.4 30.2 -102.7 30.2 -8.2 0 -16.4 -1.1 -24.5 -4.6C497.1 344.7 463.3 333.2 420.1 333.2c-39.6 0 -81.6 12.9 -116.6 26.8 -3.5 1.1 -7 2.3 -9.4 3.5v-35c15.3 -11.7 24.5 -29.1 24.5 -50.2 0 -34.9 -28 -63.1 -63.1 -63.1s-63.1 28 -63.1 63.1c0 19.9 9.4 38.5 24.4 50.2v414.3c0 21.1 17.6 38.4 38.5 38.4 17.6 0 31.4 -11.7 36.1 -26.7V752c1.2 -3.6 1.2 -5.9 1.2 -9.4v-86.3c2.3 0 4.7 -1.2 5.8 -2.4 38.5 -16.4 84 -32.6 128.4 -32.6 60.7 0 83.9 31.4 135.3 31.4 36.1 0 71.1 -12.9 101.6 -26.7 8.2 -3.5 14 -7.1 14 -15.3V348.2c3.6 -8 -4.5 -13.8 -15 -13.8z"/></svg>