
  <svg height="1000" width="750.0" xmlns="http://www.w3.org/2000/svg">
    <path d="m223.4 437.5h180.5l-29.7 100h-149.2v308.2c0 15.6-5.5 18 8.6 19.5l116.4 11v67.2h-350v-68.8l57-5.5c14.1-1.5 18-6.2 18-21.1v-304.2c0-6.3-7.8-6.3-15.6-6.3h-59.4v-100h75v-56.2c0-132.9 71.1-187.5 207-187.5 91.4 0 173.5 21.8 173.5 141.4l-136 16.4c0.8-50-11.7-61.8-43.7-61.8-49.2 0-50.8 26.6-50.8 73.5v62.5c0 6.2-9.4 11.7-1.6 11.7z m526.6 505.9h-275v-67.2l54.7-7.1c14.1-1.5 20.3-4.6 20.3-19.5v-289.1c0-10.9-7.8-17.9-18-21l-64.8-17.2 18-78.9h214.8v406.2c0 15.6-7 17.2 7.8 19.5l42.2 7.1v67.2z m-58.6-678.2l24.2 89.1-19.5 19.5-83.6-44.5-83.6 44.5-19.5-19.5 24.2-89.1-58.6-71.1 9.4-19.5h74.2l41.4-75h25l41.4 75h74.2l9.4 25.8z" />
  </svg>
