<svg height="1000" width="875" xmlns="http://www.w3.org/2000/svg"><path d="M777 62.5H98c-53.7 0 -98 44.3 -98 98v679c0 53.7 44.3 98 98 98h679c53.7 0 98 -44.3 98 -98v-679c0 -53.7 -44.3 -98 -98 -98zm-88.7 555.3c0 8.2 -7 11.7 -15.3 15.2 -32.6 14.1 -67.5 26.8 -105 26.8 -52.6 0 -77 -32.7 -140.1 -32.7 -45.5 0 -93.3 16.5 -131.8 33.8 -2.3 1.2 -4.7 1.2 -7 2.4V752c0 3.5 0 7 -1.2 9.3v2.4c-4.7 16.4 -19.9 27.9 -37.3 27.9 -22.1 0 -39.7 -17.6 -39.7 -39.6V325c-15.2 -11.7 -25.5 -30.3 -25.5 -51.4 0 -36.1 29.1 -65.4 65.4 -65.4 36.1 0 65.4 29.1 65.4 65.4 0 21.1 -9.4 39.7 -25.6 51.4v36.1c3.5 -1.1 7.1 -2.3 10.6 -4.7 36.1 -15.2 79.3 -27.9 120.1 -27.9 44.3 0 79.3 11.7 118.9 26.8 8.2 3.5 16.4 4.7 25.6 4.7 44.4 0 93.4 -31.5 105.1 -31.5 9.4 0 17.6 7 17.6 15.3v274z"/></svg>