<svg height="1000" width="875" xmlns="http://www.w3.org/2000/svg"><path d="M0 62.5v875h875v-875H0zm327 382.8h131.6l-21.7 72.9H328.1v220.5c0 11.3 -3.9 13.1 6.3 14.2l84.9 8V810H164.1v-50.2l41.6 -3.9c10.1 -1.2 13.1 -4.5 13.1 -15.5V522.9c0 -4.5 -5.7 -4.5 -11.4 -4.5h-43.3v-73.1h54.7v-41c0 -96.9 51.7 -136.7 150.9 -136.7 66.6 0 126.4 16 126.4 103.1l-99 11.9c.6 -36.5 -8.6 -44.9 -31.9 -44.9 -35.9 0 -37.1 19.3 -37.1 53.5v45.5c0 4.7 -6.8 8.6 -1.1 8.6zM710.9 810H510.4v-49.1l39.8 -5c10.2 -1.2 14.8 -3.4 14.8 -14.3V530.9c0 -8 -5.6 -13.1 -13 -15.5l-47.3 -12.5 13.1 -57.6h156.6v296.3c0 11.3 -5.1 12.5 5.7 14.3l30.6 5V810zM668.2 310.9l17.5 64.9L671.5 390l-61 -32.4L549.6 390l-14.2 -14.2 17.5 -64.9 -42.5 -47.2 6.8 -18.8h54.1l30.3 -54.7h18.1l30.3 54.7h54.1l6.8 18.8 -42.7 47.2z"/></svg>