<svg height="1000" width="1000" xmlns="http://www.w3.org/2000/svg"><path d="M955.5 562.3H902c-5.1 0 -9 3.9 -9 9v62.5h-71.5V285.5c0 -5 -3.9 -8.9 -9 -8.9H759c-5.1 0 -9 3.9 -9 8.9V348h-71.5v-62.5c0 -5 -3.9 -8.9 -9 -8.9H616c-5.1 0 -9 3.9 -9 8.9V348h-71.5v-62.5c0 -11.7 -15.6 -8.9 -22.8 -8.9v-74.3c16.2 -3.9 33.4 -6.6 50.2 -6.6 21.3 0 40.8 8.4 61.3 8.4 9 0 54.1 -2.1 54.1 -15.6V71.3c0 -5.1 -3.9 -9 -9 -9 -9.9 0 -29.5 8.4 -46.8 8.4 -19 0 -40.9 -8.4 -63.7 -8.4 -15.6 0 -31.3 2.2 -46.3 5.7v-9.6C523 53.3 530.3 42.2 530.3 30.5c0 -40.5 -61.4 -40.7 -61.4 0 0 11.7 7.3 22.8 17.8 27.9v218.2c-7.2 0 -22.8 -2.8 -22.8 8.9V348h-71.5v-62.5c0 -5 -3.9 -8.9 -9 -8.9h-53.5c-5.1 0 -9 3.9 -9 8.9V348H250v-62.5c0 -5 -3.9 -8.9 -9 -8.9h-53.5c-5.1 0 -9 3.9 -9 8.9v348.3H107v-62.5c0 -5.1 -3.9 -9 -9 -9H44.5c-5 0 -9 3.9 -9 9V1000h357.3V812.5c0 -141.8 214.2 -141.8 214.2 0V1000h357.3V571.3c.2 -5.1 -3.8 -9 -8.8 -9zm-562.7 -8.8c0 5.1 -3.9 9 -9 9h-53.5c-5.1 0 -9 -3.9 -9 -9v-125c0 -5.1 3.9 -9 9 -9h53.5c5.1 0 9 3.9 9 9v125zm285.9 0c0 5.1 -3.9 9 -9 9h-53.5c-5.1 0 -9 -3.9 -9 -9v-125c0 -5.1 3.9 -9 9 -9h53.5c5.1 0 9 3.9 9 9v125z"/></svg>