
  <svg height="1000" width="1000.0" xmlns="http://www.w3.org/2000/svg">
    <path d="m955.5 562.3c5 0 9 3.9 8.8 9v428.7h-357.3v-187.5c0-141.8-214.2-141.8-214.2 0v187.5h-357.3v-428.7c0-5.1 4-9 9-9h53.5c5.1 0 9 3.9 9 9v62.5h71.5v-348.3c0-5 3.9-8.9 9-8.9h53.5c5.1 0 9 3.9 9 8.9v62.5h70.9v-62.5c0-5 3.9-8.9 9-8.9h53.5c5.1 0 9 3.9 9 8.9v62.5h71.5v-62.5c0-11.7 15.6-8.9 22.8-8.9v-218.2c-10.5-5.1-17.8-16.2-17.8-27.9 0-40.7 61.4-40.5 61.4 0 0 11.7-7.3 22.8-17.8 27.9v9.6c15-3.5 30.7-5.7 46.3-5.7 22.8 0 44.7 8.4 63.7 8.4 17.3 0 36.9-8.4 46.8-8.4 5.1 0 9 3.9 9 9v117.2c0 13.5-45.1 15.6-54.1 15.6-20.5 0-40-8.4-61.3-8.4-16.8 0-34 2.7-50.2 6.6v74.3c7.2 0 22.8-2.8 22.8 8.9v62.5h71.5v-62.5c0-5 3.9-8.9 9-8.9h53.5c5.1 0 9 3.9 9 8.9v62.5h71.5v-62.5c0-5 3.9-8.9 9-8.9h53.5c5.1 0 9 3.9 9 8.9v348.3h71.5v-62.5c0-5.1 3.9-9 9-9h53.5z m-562.7-8.8v-125c0-5.1-3.9-9-9-9h-53.5c-5.1 0-9 3.9-9 9v125c0 5.1 3.9 9 9 9h53.5c5.1 0 9-3.9 9-9z m285.9 0v-125c0-5.1-3.9-9-9-9h-53.5c-5.1 0-9 3.9-9 9v125c0 5.1 3.9 9 9 9h53.5c5.1 0 9-3.9 9-9z" />
  </svg>
