<svg height="1000" width="875" xmlns="http://www.w3.org/2000/svg"><path d="M11.3 604.9C3.9 571.7 0 538.1 0 504.5 0 263.7 194.9 68.4 435.7 68.4c32.5 0 65.1 3.9 96.3 10.7C291 170.9 101.4 363.3 11.3 604.9zM778.7 235.4c-26.7 -34.2 -58 -63.9 -93.3 -88.5C393.2 233.4 165.2 463.5 80.5 756.3c24.4 35.3 54.7 69.5 88.3 95.7C252.9 556.4 483.6 321.3 778.7 235.4zm30.9 493.5c29.7 -49 49.6 -104.9 57.6 -161.7C712.1 651 584 783.2 500.8 938.9c58.6 -8.6 115 -29.9 165.2 -61.2 68.4 25.6 138.5 47.5 209 65.7C856.8 872.1 835.2 797.9 809.6 728.9zm58 -284.2c-5.1 -38.1 -15.5 -75.6 -30.9 -110.9C567.4 423.2 355.5 639.6 267.8 910.2c35.3 14.8 72.2 24.4 110.5 29.6C468.8 717 645.5 535.9 867.6 444.7z"/></svg>