
  <svg height="1000" width="875.0" xmlns="http://www.w3.org/2000/svg">
    <path d="m11.3 604.9c-7.4-33.2-11.3-66.8-11.3-100.4 0-240.8 194.9-436.1 435.7-436.1 32.5 0 65.1 3.9 96.3 10.7-241 91.8-430.6 284.2-520.7 525.8z m767.4-369.5c-295.1 85.9-525.8 321-609.9 616.6-33.6-26.2-63.9-60.4-88.3-95.7 84.7-292.8 312.7-522.9 604.9-609.4 35.3 24.6 66.6 54.3 93.3 88.5z m30.9 493.5c25.6 69 47.2 143.2 65.4 214.5-70.5-18.2-140.6-40.1-209-65.7-50.2 31.3-106.6 52.6-165.2 61.2 83.2-155.7 211.3-287.9 366.4-371.7-8 56.8-27.9 112.7-57.6 161.7z m58-284.2c-222.1 91.2-398.8 272.3-489.3 495.1-38.3-5.2-75.2-14.8-110.5-29.6 87.7-270.6 299.6-487 568.9-576.4 15.4 35.3 25.8 72.8 30.9 110.9z" />
  </svg>
