<svg height="1000" width="718.8" xmlns="http://www.w3.org/2000/svg"><path d="M631.1 5.9H97.5C24.2 5.9 0 61.1 0 95.9v847.3c0 39.6 23.6 54.1 35.5 58.8 12.2 4.8 44.6 8.9 64.3 -13.9C351.6 696.3 355.9 691.4 355.9 691.4c6 -6.6 6.6 -6 13.2 -6H532c68.6 0 79.3 -49.3 86.6 -77.6l94.9 -474.6C730.1 50.4 709.2 5.9 631.1 5.9zM599.2 150L577 266.6c-2.4 12.7 -18.6 25.8 -33.1 25.8H336.1c-23.4 0 -40.2 16.2 -40.2 39.6v25.4c0 23.5 16.8 40.3 40.2 40.3h176.6c16.2 0 32.4 17.9 28.9 35.5 -3.5 17.4 -20.5 105.1 -22.3 114.8 -1.7 9.6 -13.2 26.4 -33 26.4H342.8c-26.4 0 -33.6 3.5 -51.8 24.6 0 0 -17.4 22.3 -174.8 211.5 -1.7 1.8 -3.5 1.2 -3.5 -.5V148.2c0 -15 13.3 -32.4 32.4 -32.4h427.8c16 0 30.4 15.1 26.3 34.2z"/></svg>