
  <svg height="1000" width="718.8" xmlns="http://www.w3.org/2000/svg">
    <path d="m631.1 5.9c78.1 0 99 44.5 82.4 127.3l-94.9 474.6c-7.3 28.3-18 77.6-86.6 77.6h-162.9c-6.6 0-7.2-0.6-13.2 6 0 0-4.3 4.9-256.1 296.7-19.7 22.8-52.1 18.7-64.3 13.9-11.9-4.7-35.5-19.2-35.5-58.8v-847.3c0-34.8 24.2-90 97.5-90h533.6z m-31.9 144.1c4.1-19.1-10.3-34.2-26.3-34.2h-427.8c-19.1 0-32.4 17.4-32.4 32.4v661.8c0 1.7 1.8 2.3 3.5 0.5 157.4-189.2 174.8-211.5 174.8-211.5 18.2-21.1 25.4-24.6 51.8-24.6h143.5c19.8 0 31.3-16.8 33-26.4 1.8-9.7 18.8-97.4 22.3-114.8 3.5-17.6-12.7-35.5-28.9-35.5h-176.6c-23.4 0-40.2-16.8-40.2-40.3v-25.4c0-23.4 16.8-39.6 40.2-39.6h207.8c14.5 0 30.7-13.1 33.1-25.8z" />
  </svg>
