<svg height="1000" width="875" xmlns="http://www.w3.org/2000/svg"><path d="M593.2 187.9C614.8 166.2 818.8 37.5 865 84c46.3 46.3 -82.2 250.2 -103.9 271.9 -21.6 21.6 -76.9 1.7 -123.2 -44.8C591.4 264.8 571.3 209.6 593.2 187.9zM214.6 133C143.8 92.8 43 48 10.9 80.3c-32.4 32.4 13.9 135.5 54.5 206.4C101.6 223.8 152.9 170.9 214.6 133zm579.7 206.8c6.5 22.1 5.3 40.5 -5.2 51C749.4 430.5 618.2 338.1 575.6 253.9c-35.2 -63.1 -21.7 -104.3 29.1 -95.1 11.1 -7 24 -14.9 38.3 -22.7C584.8 105.9 518.8 88.7 448.6 88.7 216 88.7 27.5 277.1 27.5 509.8c0 232.4 188.5 421.1 421.1 421.1S869.7 742.4 869.7 509.8c0 -75 -19.7 -145.5 -54.1 -206.7 -7.6 13.7 -14.8 26 -21.3 36.7z"/></svg>