
  <svg height="1000" width="875.0" xmlns="http://www.w3.org/2000/svg">
    <path d="m593.2 187.9c21.6-21.7 225.6-150.4 271.8-103.9 46.3 46.3-82.2 250.2-103.9 271.9-21.6 21.6-76.9 1.7-123.2-44.8-46.5-46.3-66.6-101.5-44.7-123.2z m-378.6-54.9c-61.7 37.9-113 90.8-149.2 153.7-40.6-70.9-86.9-174-54.5-206.4 32.1-32.3 132.8 12.5 203.7 52.7z m579.7 206.8c6.5-10.7 13.7-23 21.3-36.7 34.4 61.2 54.1 131.7 54.1 206.7 0 232.6-188.5 421.1-421.1 421.1-232.6 0-421.1-188.7-421.1-421.1 0-232.7 188.5-421.1 421.1-421.1 70.1 0 136.2 17.2 194.4 47.4-14.3 7.8-27.2 15.7-38.3 22.7-50.8-9.2-64.3 32-29.1 95.1 42.6 84.2 173.8 176.6 213.5 136.9 10.5-10.5 11.7-28.9 5.2-51z" />
  </svg>
