
  <svg height="1000" width="968.8" xmlns="http://www.w3.org/2000/svg">
    <path d="m484.4 984.4c-267.1 0-484.4-217.3-484.4-484.4s217.3-484.4 484.4-484.4 484.4 217.3 484.4 484.4-217.3 484.4-484.4 484.4z m0-936.5c-249.3 0-452.1 202.8-452.1 452.1s202.8 452.1 452.1 452.1 452.1-202.8 452.1-452.1-202.8-452.1-452.1-452.1z m53.9 42.6c73.6 9.6 141.1 38.6 197.2 81.6l-34 34c-46.8-34.7-102.9-58.6-163.2-67.5v-48.1z m-108.1 0.1v48c-60.5 9-116.1 32.8-163.1 67.7h-0.2l-33.8-33.9c56.1-43.1 123.6-72.1 197.1-81.8z m23.9 98h60.5v161.9c19.7 3.9 37.9 11.7 54 22.4l114.6-114.6 42.8 42.9-114.6 114.6c10.7 16.1 18.5 34.3 22.5 53.9h161.8v60.6h-161.8c-4 19.5-11.8 37.7-22.5 53.7l114.6 114.7-42.8 42.8-114.6-114.6c-16.1 10.7-34.3 18.6-54 22.5v161.9h-60.5v-161.9c-19.5-3.9-38-11.7-54-22.4l-114.5 114.5-42.9-42.8 114.6-114.6c-10.6-16.1-18.4-34.3-22.4-53.8h-161.9v-60.6h161.9c4-19.6 11.7-37.8 22.4-53.9l-114.6-114.6 42.9-42.8 114.5 114.4c16.1-10.7 34.4-18.3 54-22.3v-161.9z m357.9 60c43.2 56.2 72.2 123.7 81.9 197.4h-48.1c-9-60.4-32.9-116.6-67.7-163.5z m-655.4 0.3l34 34c-34.8 47-58.6 102.6-67.6 163.1h-48.1c9.6-73.6 38.6-141 81.7-197.1z m-81.7 305.1l48.1 0c9 60.5 32.6 116.1 67.4 163.1l-33.9 34c-43-56.1-72-123.5-81.6-197.1z m770.9 0h48.1c-9.7 73.6-38.8 141.1-81.9 197.2l-33.9-33.9c34.9-47 58.7-102.7 67.7-163.3z m-578.9 239.7c47 34.9 102.8 58.6 163.3 67.7v48.1c-73.6-9.7-141.1-38.7-197.2-81.9z m434.6 0.1h0.2l33.8 34c-56.1 43.1-123.6 72.1-197.2 81.7v-48c60.5-8.9 116.2-32.8 163.2-67.7z" />
  </svg>
