<svg height="1000" width="1000" xmlns="http://www.w3.org/2000/svg"><path d="M488 65.4v50.9c-26.5 40.3 -46.6 212.1 -47.8 420.6 22.9 -30.5 37.4 -65.1 37.4 -94.2v-33c-.1 -10.4 1.4 -20.5 4.3 -30.5 1.2 -4.2 2.7 -8 5.1 -11.4 2.4 -3.4 6.7 -7.4 13 -7.4s10.7 4 13.1 7.4c2.4 3.4 3.8 7.2 5.1 11.4 2.8 10 4.3 20.1 4.3 30.5v33c0 29.1 14.4 63.7 37.3 94.2C558.6 328.4 538.5 156.6 512 116.3V65.4h-24zM436.6 354c-18.6 4.2 -36.6 10.1 -53.7 17.7 17.4 31.5 19.1 63.8 3.4 72.9 -15.7 9 -42.7 -8.3 -61.3 -38.7 -22.6 17.1 -42.7 37.7 -59.7 60.7 28.8 18.8 44.7 44.7 35.8 59.9 -8.9 15 -39.1 13.9 -69.3 -1.9 -11.3 25.9 -19 53.7 -22.7 82.8 18.9 .4 36.4 4.7 51.1 11.8 34.7 -.5 64 -3.8 79.1 -8.2 10.8 -51.5 45 -94.2 90.5 -116.2 1.4 -49.9 3.6 -97 6.8 -140.8zm126.8 0c3.1 43.8 5.4 90.9 6.8 140.8 45.5 22 79.6 64.7 90.5 116.2 15.1 4.4 44.3 7.7 79.1 8.2 14.6 -7.1 32.2 -11.4 51.1 -11.8 -3.7 -29.1 -11.4 -56.9 -22.8 -82.8 -30.1 15.8 -60.4 16.9 -69.2 1.9 -9 -15.2 7 -41.1 35.7 -59.9 -16.9 -23 -37 -43.6 -59.6 -60.7 -18.6 30.4 -45.7 47.7 -61.3 38.7 -15.7 -9.1 -14 -41.4 3.4 -72.9A288.1 -288.1 0 0 1 563.4 354zM500 370.8c-6.3 0 -11.4 17.2 -11.9 38.9h-.1v33c0 80.9 -95.7 185.6 -182.6 185.6 -101.6 0 -239.7 -2.8 -305.4 57v4.9c18.4 33.4 40.2 64.8 64.8 93.7 24.5 -41.2 100.8 -80 211 -80.8 89.2 2 154.3 39.7 177.2 79.8 .1 .1 0 .1 0 .1 15 4.2 31 6.4 47 6.3 16 .1 32 -2.1 47 -6.3 0 0 -.1 0 0 -.1 22.9 -40.1 88 -77.8 177.2 -79.8 110.2 .8 186.5 39.6 211 80.8 24.6 -28.9 46.4 -60.3 64.8 -93.7v-4.9c-65.6 -59.8 -203.8 -57 -305.4 -57C607.7 628.3 512 523.6 512 442.7v-33h-.1C511.4 388 506.3 370.8 500 370.8zm0 188.7c43.8 0 79.3 35.5 79.3 79.3s-35.5 79.3 -79.3 79.3 -79.3 -35.6 -79.3 -79.3c0 -43.8 35.5 -79.3 79.3 -79.3zm0 14.9c-35.5 0 -64.4 28.8 -64.4 64.4s28.9 64.3 64.4 64.3 64.4 -28.8 64.4 -64.3S535.5 574.4 500 574.4zm0 12c28.9 0 52.4 23.4 52.4 52.4s-23.5 52.3 -52.4 52.3 -52.4 -23.4 -52.4 -52.3 23.5 -52.4 52.4 -52.4zM275.8 716.6c-19.9 .1 -42.2 .7 -59.6 3.2 .9 8.7 3 36.4 13.9 58.1 17.8 -5 35.9 -7.6 53.9 -7.6 80.7 1.9 139.7 67.1 152.9 145.5l.2 9.2c20.3 3.7 41.4 5.7 62.9 5.7 21.6 0 42.6 -2 62.9 -5.7l.2 -9.2C576.4 837.4 635.4 772.2 716 770.3c18.1 0 36.1 2.6 53.9 7.6 11 -21.7 13.1 -49.4 13.9 -58.1 -17.4 -2.5 -39.7 -3.1 -59.5 -3.2 -36.7 .8 -68.8 8.1 -95 18.9 -24.5 31.3 -56.9 58.6 -96.8 64.6 -.2 0 -.4 0 -.5 .1 -.1 0 -.3 0 -.4 .1 -10.2 2 -20.7 3.1 -31.6 3.1 -10.8 0 -21.4 -1.1 -31.6 -3.1 -.1 -.1 -.2 -.1 -.3 -.1 -.2 -.1 -.3 -.1 -.5 -.1 -39.9 -6 -72.4 -33.3 -96.9 -64.6 -26.2 -10.8 -58.3 -18.1 -94.9 -18.9z"/></svg>