<svg height="1000" width="968.8" xmlns="http://www.w3.org/2000/svg"><path d="M484.4 984.4C217.3 984.4 0 767.1 0 500S217.3 15.6 484.4 15.6 968.8 232.9 968.8 500 751.5 984.4 484.4 984.4zm0 -936.5C235.1 47.9 32.3 250.7 32.3 500s202.8 452.1 452.1 452.1S936.5 749.3 936.5 500 733.7 47.9 484.4 47.9zm53.9 42.6v48.1a363.2 -363.2 0 0 0 163.2 67.5l34 -34c-56.1 -43 -123.6 -72 -197.2 -81.6zm-108.1 .1c-73.5 9.7 -141 38.7 -197.1 81.8l33.8 33.9h.2c47 -34.9 102.6 -58.7 163.1 -67.7v-48zm23.9 98v161.9c-19.6 4 -37.9 11.6 -54 22.3L285.6 258.4l-42.9 42.8 114.6 114.6c-10.7 16.1 -18.4 34.3 -22.4 53.9H173v60.6h161.9c4 19.5 11.8 37.7 22.4 53.8L242.7 698.7l42.9 42.8L400.1 627a152.1 -152.1 0 0 1 54 22.4v161.9h60.5V649.4c19.7 -3.9 37.9 -11.8 54 -22.5l114.6 114.6L726 698.7 611.4 584c10.7 -16 18.5 -34.2 22.5 -53.7h161.8v-60.6H633.9c-4 -19.6 -11.8 -37.8 -22.5 -53.9L726 301.2l-42.8 -42.9L568.6 372.9c-16.1 -10.7 -34.3 -18.5 -54 -22.4V188.6h-60.5zm357.9 60l-33.9 33.9A363.9 -363.9 0 0 0 845.8 446h48.1C884.2 372.3 855.2 304.8 812 248.6zm-655.4 .3C113.5 305 84.5 372.4 74.9 446H123c9 -60.5 32.8 -116.1 67.6 -163.1l-34 -34zM74.9 554c9.6 73.6 38.6 141 81.6 197.1l33.9 -34C155.6 670.1 132 614.5 123 554H74.9zm770.9 0c-9 60.6 -32.8 116.3 -67.7 163.3l33.9 33.9C855.1 695.1 884.2 627.6 893.9 554h-48.1zM266.9 793.7L233 827.6c56.1 43.2 123.6 72.2 197.2 81.9v-48.1C369.7 852.3 313.9 828.6 266.9 793.7zm434.6 .1c-47 34.9 -102.7 58.8 -163.2 67.7v48c73.6 -9.6 141.1 -38.6 197.2 -81.7l-33.8 -34h-.2z"/></svg>