
  <svg height="1000" width="875.0" xmlns="http://www.w3.org/2000/svg">
    <path d="m858.5 461c10.2 10.2 16.5 24.3 16.5 39.9s-6.3 29.6-16.5 39.8l-380.3 380.3c-10.2 10.2-24.3 16.5-39.8 16.5-15.6 0-29.6-6.3-39.8-16.5l-382.1-382c-10.2-10.2-16.5-24.3-16.5-39.9s6.3-29.6 16.5-39.8l262-262 99.2 99.3c-11.7 27.8-4.3 71.2 36.4 87.9v240.2c-43.6 17.8-56.3 75-22 109.4 12.1 12.1 28.9 19.6 47.4 19.6 18.5 0 35.3-7.5 47.4-19.6 25.8-25.7 31.7-83-17.7-107.4v-238l90.5 90.4c-27.7 67.3 57.6 124.6 109.4 72.9 50.2-50.2-2.4-133.8-69.3-110.7l-97-97c18.2-52.6-31.9-103.2-84.7-85.3l-100.7-100.6 79.5-79.4c10.2-10.2 24.3-16.5 39.8-16.5 15.6 0 29.7 6.3 39.9 16.5z" />
  </svg>
