<svg height="1000" width="875" xmlns="http://www.w3.org/2000/svg"><path d="M273.6 680.7c23.7 0 57.7 4.1 57.7 34.9 0 30.3 -27.2 36.7 -52.8 36.7 -24 0 -60.3 -3.9 -60.3 -35.1s30.6 -36.5 55.4 -36.5zM225.4 452.9c0 28.9 12.9 47.1 43.5 47.1 30.3 0 41.5 -19.5 41.5 -47.9 .1 -67.1 -85 -67.9 -85 .8zM875 156.3v687.5c0 51.7 -42 93.7 -93.7 93.7H93.8C42 937.5 0 895.5 0 843.8V156.3C0 104.5 42 62.5 93.8 62.5h687.5c51.7 0 93.7 42 93.7 93.8zm-470.7 183c-24 9.3 -49.8 16.4 -76 16.4 -75.2 -43.2 -177.1 1.7 -177.1 96.6 0 35.2 22.6 83.8 57.8 95.6v1.3c-26.2 11.5 -33.4 70.5 1.4 91.8v1.4c-38.1 12.5 -63.1 36.7 -63.1 78.5 0 71.9 67.9 91.8 127.7 91.8 72.5 0 126.6 -26.2 126.6 -106.1 0 -98.4 -140.9 -62.1 -140.9 -115.4 0 -18.7 10.2 -26.2 27.6 -29.7 57.8 -10.7 94.1 -55.8 94.1 -114.6 0 -10.2 -2.1 -19.9 -5.6 -29.3 9.3 -2.2 18.5 -4.5 27.5 -7.6v-70.7zm110.9 3.5h-77.3c2.5 20.7 2.1 278.5 0 303.7h77.3c-2.1 -25 -2.3 -283.4 0 -303.7zM524 238.7c0 -26.2 -19.5 -51.2 -47 -51.2 -28 0 -48.1 24.4 -48.1 51.2 0 26.5 20.5 50.6 48.1 50.6 26.7 0 47 -24.5 47 -50.6zm203.7 104.1h-71.1c0 -19.2 -.7 -38.3 2.2 -57.6h-79.1c2.5 14.2 2.1 26.5 2.1 57.6h-33.4V409c23.3 -3.7 23.7 -1.4 33.4 -1.4v1.4h-.7v122.4c0 60.8 8.7 119.6 83.4 119.6 20.9 0 44.9 -3.5 63.4 -13.7v-68.4c-11.1 7.7 -27.1 11.6 -40.8 11.6 -25.8 0 -30.3 -25.2 -30.3 -45.7V407.4c44.4 0 71.1 1.4 71.1 1.4v-66z"/></svg>