<svg height="1000" width="875" xmlns="http://www.w3.org/2000/svg"><path d="M36.7 433c0 49.4 31.7 117.2 81.1 133.8v2c-36.7 16.2 -46.9 98.8 1.9 128.5v1.9C66.4 716.8 31.3 750.6 31.3 809c0 100.6 95.3 128.5 178.7 128.5 101.5 0 177.1 -36.5 177.1 -148.4 0 -137.7 -197.3 -87 -197.3 -161.8 0 -26.3 14.1 -36.5 38.5 -41.6 81.1 -15 131.9 -78.1 131.9 -160.5 0 -14.3 -3 -27.7 -7.9 -41 13.1 -2.9 25.8 -6.5 38.5 -10.8v-98.6c-33.6 13.3 -69.7 23.1 -106.4 23.1C179.3 237.3 36.7 300.4 36.7 433zM208 752.9c33.2 0 80.5 5.9 80.5 48.9 0 42.5 -38.1 51.3 -73.7 51.3 -33.7 0 -84.5 -5.2 -84.5 -49.2 .2 -43.5 43.1 -51 77.7 -51zM201.8 500c-43 0 -61.2 -25.4 -61.2 -66 0 -96.3 119.2 -95.3 119.2 -1 0 39.7 -15.7 67 -58 67zm642 96.7v95.7c-26 14.2 -59.6 19.1 -88.9 19.1 -104.5 0 -116.8 -82.4 -116.8 -167.4V372.9h1v-2c-13.7 0 -14.3 -3.1 -46.9 2v-92.8h46.9c0 -43.6 .5 -60.6 -3 -80.5h110.8c-3.9 27 -3 53.7 -3 80.5h99.7v92.8s-37.7 -2 -99.7 -2v177.9c0 28.9 6.5 64.1 42.6 64.1 19.2 0 41.6 -5.5 57.3 -16.2zM558.6 134.2c0 36.5 -28.3 70.7 -66 70.7 -38.7 0 -67.4 -33.6 -67.4 -70.7 0 -37.7 28.3 -71.7 67.4 -71.7 38.7 0 66 35.2 66 71.7zm-12.1 145.5c-3.5 28.5 -3.1 390.2 0 425.4H438.1c3.1 -35.4 3.5 -396.5 0 -425.4h108.4z"/></svg>