
  <svg height="1000" width="937.5" xmlns="http://www.w3.org/2000/svg">
    <path d="m363.5 642c0 40.8-21.3 107.6-71.7 107.6-50.4 0-71.7-66.8-71.7-107.6 0-40.8 21.3-107.6 71.7-107.6 50.4 0 71.7 66.8 71.7 107.6z m574-98.6c0 62.3-6.3 128.3-34.2 185.5-74 149.6-277.5 146.1-423.2 146.1-148.1 0-363.7 5.3-440.6-146.1-28.6-56.6-39.5-123.2-39.5-185.5 0-81.9 27.1-159.2 81.1-221.9-10.2-30.9-15.1-63.3-15.1-95.3 0-42 9.6-63.1 28.5-101.2 88.5 0 145.1 17.6 212.5 70.3 56.7-13.5 114.9-19.5 173.3-19.5 52.7 0 105.8 5.6 157 17.9 66.4-52.1 123.1-68.7 210.6-68.7 19.1 38.1 28.5 59.2 28.5 101.2 0 32-5.1 63.8-15.1 94.1 53.7 63.3 76.2 141.2 76.2 223.1z m-125.6 98.6c0-85.8-52.1-161.3-143.5-161.3-37 0-72.3 6.6-109.4 11.7-29.1 4.5-58.2 6.2-88.1 6.2-29.7 0-58.8-1.7-88.1-6.2-36.5-5.1-72.3-11.7-109.4-11.7-91.4 0-143.5 75.5-143.5 161.3 0 171.5 157 197.8 293.7 197.8h94.2c137.3 0 294.1-26.1 294.1-197.8z m-161.3-107.6c50.4 0 71.7 66.8 71.7 107.6 0 40.8-21.3 107.6-71.7 107.6-50.4 0-71.7-66.8-71.7-107.6 0-40.8 21.3-107.6 71.7-107.6z" />
  </svg>
