<svg height="1000" width="968.8" xmlns="http://www.w3.org/2000/svg"><path d="M324 776.2c0 3.9 -4.5 7 -10.1 7 -6.5 .6 -11 -2.5 -11 -7 0 -3.9 4.5 -7.1 10.2 -7.1 5.8 -.5 10.9 2.6 10.9 7.1zm-60.7 -8.8c-1.4 3.9 2.5 8.4 8.4 9.6 5.1 1.9 10.9 0 12.1 -4s-2.5 -8.4 -8.4 -10.1c-5.1 -1.4 -10.8 .6 -12.1 4.5zm86.3 -3.3c-5.7 1.3 -9.6 5 -9 9.5 .6 3.9 5.7 6.5 11.5 5.1 5.7 -1.4 9.6 -5.1 9 -9 -.6 -3.7 -5.8 -6.2 -11.5 -5.6zM478.1 15.6C207.2 15.6 0 221.3 0 492.2c0 216.6 136.3 401.9 331.1 467.2 25 4.5 33.7 -11 33.7 -23.7 0 -12.1 -.5 -78.9 -.5 -119.9 0 0 -136.8 29.3 -165.5 -58.2 0 0 -22.2 -56.8 -54.3 -71.5 0 0 -44.7 -30.6 3.2 -30 0 0 48.6 3.9 75.3 50.3 42.8 75.4 114.5 53.8 142.4 40.9 4.5 -31.3 17.2 -53 31.3 -65.9C287.5 669.3 177.3 653.5 177.3 465.6c0 -53.7 14.9 -80.6 46.1 -115 -5 -12.7 -21.6 -65.1 5.1 -132.6 40.8 -12.7 134.8 52.7 134.8 52.7 39 -10.9 81 -16.6 122.6 -16.6s83.6 5.7 122.7 16.6c0 0 93.9 -65.6 134.8 -52.7 26.7 67.7 10.1 119.9 5 132.6 31.3 34.6 50.4 61.5 50.4 115 0 188.5 -115 203.5 -224.2 215.8 18 15.5 33.2 44.8 33.2 90.7 0 65.8 -.6 147.2 -.6 163.3 0 12.6 9 28.1 33.8 23.6C836.3 894.1 968.8 708.8 968.8 492.2 968.8 221.3 749 15.6 478.1 15.6zM189.8 689.3c-2.5 1.9 -1.9 6.4 1.4 10.1 3.1 3.1 7.6 4.5 10.2 2 2.5 -2 1.9 -6.5 -1.4 -10.2 -3.1 -3.1 -7.6 -4.5 -10.2 -1.9zm-21 -15.9c-1.4 2.6 .5 5.7 4.4 7.7 3.2 1.9 7.1 1.3 8.4 -1.4 1.4 -2.6 -.5 -5.7 -4.5 -7.6 -3.9 -1.2 -7 -.6 -8.3 1.3zM232 743c-3.1 2.5 -1.9 8.4 2.6 12.1 4.5 4.5 10.1 5.1 12.7 1.9 2.5 -2.5 1.3 -8.4 -2.6 -12.1 -4.3 -4.5 -10.1 -5.1 -12.7 -1.9zm-22.2 -28.7c-3.2 1.9 -3.2 7 0 11.5 3.1 4.5 8.4 6.4 10.9 4.5 3.1 -2.6 3.1 -7.6 0 -12.1 -2.7 -4.5 -7.8 -6.5 -10.9 -3.9z"/></svg>