
  <svg height="1000" width="875.0" xmlns="http://www.w3.org/2000/svg">
    <path d="m781.3 62.5c51.7 0 93.7 42 93.7 93.8v687.5c0 51.7-42 93.7-93.7 93.7h-687.5c-51.8 0-93.8-42-93.8-93.7v-687.5c0-51.8 42-93.8 93.8-93.8h687.5z m-239.7 749.4c128.9-43 216.4-165.8 216.2-309.2 0-179.3-145.3-315.4-324.6-315.4s-316.4 136.1-316.4 315.4c0 143.4 90.2 266 219.1 309.2 16.6 2.9 22.5-7.2 22.5-15.6 0-8-0.4-52.2-0.4-79.3 0 0-90.6 19.5-109.6-38.5 0 0-14.8-37.5-35.9-47.2 0 0-29.5-20.4 2.1-20 0 0 32.1 2.6 49.9 33.4 28.3 50 75.7 35.6 94.3 27.2 2.9-20.7 11.3-35.2 20.7-43.6-72.3-8-145.1-18.5-145.1-142.8 0-35.5 9.7-53.3 30.4-76.1-3.5-8.6-14.4-43.2 3.4-87.9 27.1-8.4 89.2 34.9 89.2 34.9 25.8-7.2 53.7-10.9 81.3-10.9 27.5 0 55.4 3.7 81.2 10.9 0 0 62.1-43.3 89.3-34.9 17.8 44.9 6.6 79.5 3.3 87.9 20.7 22.8 33.4 40.6 33.4 76.1 0 124.9-76.2 134.8-148.4 142.8 11.9 10.2 22 29.5 22 60 0 43.5-0.4 97.4-0.4 108 0 8.4 6.1 18.5 22.5 15.6z m-191.6-119.3c-3.7 0.8-7.2-0.8-7.6-3.3-0.4-3 2.1-5.5 5.8-6.3 3.8-0.4 7.3 1.2 7.7 3.7 0.5 2.6-2 5.1-5.9 5.9z m-18.6-1.8c0-2.9-3.5-5.1-7.2-4.7-3.9 0-6.8 2.2-6.8 4.7 0 3 2.9 5.1 7.2 4.7 3.9 0 6.8-2.1 6.8-4.7z m-26.7-2.1c-0.8 2.5-4.7 3.7-8 2.5-3.7-0.8-6.3-3.7-5.5-6.2 0.8-2.6 4.7-3.8 8-3 3.9 1.2 6.5 4.1 5.5 6.7z m-24-10.6c1.7-1.5 0.7-5.4-1.8-8-2.9-2.9-6.6-3.3-8.4-1.2-1.9 1.8-1.2 5.5 1.8 8.1 2.9 2.9 6.6 3.3 8.4 1.1z m-17.8-17.7c2.1-1.6 2.1-5.1 0-8.1-1.8-2.9-5.1-4.3-7.2-2.5-2.2 1.4-2.2 4.7 0 7.6 2.1 3 5.4 4.1 7.2 3z m-12.7-19c1.8-1.4 1.4-4.3-0.8-6.8-2.1-2-5.1-3-6.8-1.2-1.8 1.4-1.4 4.3 0.8 6.8 2.1 2 5 3 6.8 1.2z m-13.1-14.4c0.8-1.6-0.4-3.8-2.9-5.1-2.6-1-4.7-0.4-5.5 0.8-0.8 1.7 0.4 3.9 2.9 5 2.2 1.4 4.7 1 5.5-0.7z" />
  </svg>
