<svg height="1000" width="875" xmlns="http://www.w3.org/2000/svg"><path d="M781.3 62.5H93.8C42 62.5 0 104.5 0 156.3v687.5c0 51.7 42 93.7 93.8 93.7h687.5c51.7 0 93.7 -42 93.7 -93.7V156.3c0 -51.8 -42 -93.8 -93.7 -93.8zM541.6 811.9c-16.4 2.9 -22.5 -7.2 -22.5 -15.6 0 -10.6 .4 -64.5 .4 -108 0 -30.5 -10.1 -49.8 -22 -60 72.2 -8 148.4 -17.9 148.4 -142.8 0 -35.5 -12.7 -53.3 -33.4 -76.1 3.3 -8.4 14.5 -43 -3.3 -87.9 -27.2 -8.4 -89.3 34.9 -89.3 34.9 -25.8 -7.2 -53.7 -10.9 -81.2 -10.9 -27.6 0 -55.5 3.7 -81.3 10.9 0 0 -62.1 -43.3 -89.2 -34.9 -17.8 44.7 -6.9 79.3 -3.4 87.9 -20.7 22.8 -30.4 40.6 -30.4 76.1 0 124.3 72.8 134.8 145.1 142.8 -9.4 8.4 -17.8 22.9 -20.7 43.6 -18.6 8.4 -66 22.8 -94.3 -27.2 -17.8 -30.8 -49.9 -33.4 -49.9 -33.4 -31.6 -.4 -2.1 20 -2.1 20 21.1 9.7 35.9 47.2 35.9 47.2 19 58 109.6 38.5 109.6 38.5 0 27.1 .4 71.3 .4 79.3 0 8.4 -5.9 18.5 -22.5 15.6C207 768.8 116.8 646.1 116.8 502.7c0 -179.3 137.1 -315.4 316.4 -315.4s324.6 136.1 324.6 315.4c.2 143.4 -87.3 266.2 -216.2 309.2zM350 692.6c-3.7 .8 -7.2 -.8 -7.6 -3.3 -.4 -3 2.1 -5.5 5.8 -6.3 3.8 -.4 7.3 1.2 7.7 3.7 .5 2.6 -2 5.1 -5.9 5.9zm-18.6 -1.8c0 2.6 -2.9 4.7 -6.8 4.7 -4.3 .4 -7.2 -1.7 -7.2 -4.7 0 -2.5 2.9 -4.7 6.8 -4.7 3.7 -.4 7.2 1.8 7.2 4.7zm-26.7 -2.1c-.8 2.5 -4.7 3.7 -8 2.5 -3.7 -.8 -6.3 -3.7 -5.5 -6.2 .8 -2.6 4.7 -3.7 8 -3 3.9 1.2 6.5 4.1 5.5 6.7zm-24 -10.6c-1.8 2.2 -5.5 1.8 -8.4 -1.1 -3 -2.6 -3.7 -6.3 -1.8 -8.1 1.8 -2.1 5.5 -1.7 8.4 1.2 2.5 2.6 3.5 6.5 1.8 8zm-17.8 -17.7c-1.8 1.1 -5.1 0 -7.2 -3s-2.2 -6.2 0 -7.6c2.1 -1.8 5.4 -.4 7.2 2.5 2.1 3 2.1 6.5 0 8.1zm-12.7 -19c-1.8 1.8 -4.7 .8 -6.8 -1.2 -2.2 -2.5 -2.6 -5.4 -.8 -6.8 1.7 -1.8 4.7 -.8 6.8 1.2 2.2 2.5 2.6 5.4 .8 6.8zM237.1 627c-.8 1.7 -3.3 2.1 -5.5 .7 -2.5 -1.1 -3.7 -3.3 -2.9 -5 .8 -1.2 2.9 -1.8 5.5 -.8 2.5 1.3 3.7 3.5 2.9 5.1z"/></svg>