
  <svg height="1000" width="968.8" xmlns="http://www.w3.org/2000/svg">
    <path d="m324 776.2c0 3.9-4.5 7-10.1 7-6.5 0.6-11-2.5-11-7 0-3.9 4.5-7.1 10.2-7.1 5.8-0.5 10.9 2.6 10.9 7.1z m-60.7-8.8c1.3-3.9 7-5.9 12.1-4.5 5.9 1.7 9.6 6.2 8.4 10.1-1.2 4-7 5.9-12.1 4-5.9-1.2-9.8-5.7-8.4-9.6z m86.3-3.3c5.7-0.6 10.9 1.9 11.5 5.6 0.6 3.9-3.3 7.6-9 9-5.8 1.4-10.9-1.2-11.5-5.1-0.6-4.5 3.3-8.2 9-9.5z m128.5-748.5c270.9 0 490.7 205.7 490.7 476.6 0 216.6-132.5 401.9-327.8 466.8-24.8 4.5-33.8-11-33.8-23.6 0-16.1 0.6-97.5 0.6-163.3 0-45.9-15.2-75.2-33.2-90.7 109.2-12.3 224.2-27.3 224.2-215.8 0-53.5-19.1-80.4-50.4-115 5.1-12.7 21.7-64.9-5-132.6-40.9-12.9-134.8 52.7-134.8 52.7-39.1-10.9-81.1-16.6-122.7-16.6s-83.6 5.7-122.6 16.6c0 0-94-65.4-134.8-52.7-26.7 67.5-10.1 119.9-5.1 132.6-31.2 34.4-46.1 61.3-46.1 115 0 187.9 110.2 203.7 219.4 215.8-14.1 12.9-26.8 34.6-31.3 65.9-27.9 12.9-99.6 34.5-142.4-40.9-26.7-46.4-75.3-50.3-75.3-50.3-47.9-0.6-3.2 30-3.2 30 32.1 14.7 54.3 71.5 54.3 71.5 28.7 87.5 165.5 58.2 165.5 58.2 0 41 0.5 107.8 0.5 119.9 0 12.7-8.7 28.2-33.7 23.7-194.8-65.3-331.1-250.6-331.1-467.2 0-270.9 207.2-476.6 478.1-476.6z m-288.3 673.7c2.6-2.6 7.1-1.2 10.2 1.9 3.3 3.7 3.9 8.2 1.4 10.2-2.6 2.5-7.1 1.1-10.2-2-3.3-3.7-3.9-8.2-1.4-10.1z m-21-15.9c1.3-1.9 4.4-2.5 8.3-1.3 4 1.9 5.9 5 4.5 7.6-1.3 2.7-5.2 3.3-8.4 1.4-3.9-2-5.8-5.1-4.4-7.7z m63.2 69.6c2.6-3.2 8.4-2.6 12.7 1.9 3.9 3.7 5.1 9.6 2.6 12.1-2.6 3.2-8.2 2.6-12.7-1.9-4.5-3.7-5.7-9.6-2.6-12.1z m-22.2-28.7c3.1-2.6 8.2-0.6 10.9 3.9 3.1 4.5 3.1 9.5 0 12.1-2.5 1.9-7.8 0-10.9-4.5-3.2-4.5-3.2-9.6 0-11.5z" />
  </svg>
