<svg height="1000" width="1156.3" xmlns="http://www.w3.org/2000/svg"><path d="M1104.9 230.7c-4.5 -11.9 -18.2 -18 -29.9 -12.9 -11.1 4.7 -16.6 17.4 -12.3 28.5 21.3 56.6 33 118.2 33 182.2 0 262.9 -195.9 479.9 -449.6 513.1V700c15.4 -2.9 30.3 -7 44.9 -12.1V891c208.4 -50.6 363.1 -238.5 363.1 -462.5C1054.1 249.2 954.9 93 808.4 11.9 797.3 5.7 783 10.2 777.3 21.7c-5.2 10.7 -1.1 23.8 9.2 29.5C919.1 124.6 1009 266 1009 428.5c0 182.2 -113.1 338.1 -273.1 401.2V649.6c27.8 -8.8 48.7 -34.6 48.7 -65.4 0 -25.6 -13.3 -47.7 -33.8 -59.6C767 369.3 837.7 410.2 837.7 360.7V332C837.7 257.8 666 16 585.7 10.4c-4.8 -.4 -9.7 -.4 -14.8 0C490.4 16.2 318.8 257.8 318.8 332v28.9c0 49.5 70.8 8.4 86.9 163.9 -20.7 11.9 -33.8 34 -33.8 59.6 0 30.8 20.7 56.6 48.4 65.4v180.1C260.4 767 147.3 611.1 147.3 428.7 147.3 266.4 237.1 125 369.7 51.4c10.6 -5.9 14.5 -18.8 9.2 -29.5 -5.7 -11.5 -19.7 -16 -31 -9.8C201.4 93.2 102.1 249.4 102.1 428.7c0 224 154.7 411.7 363.1 462.5V688.1c14.9 4.9 29.5 9 45 12.1v241.6C256.6 908.6 60.5 691.6 60.5 428.7c0 -64.1 11.8 -125.6 33.1 -182.2C97.9 235.2 92.4 222.7 81.3 218c-11.8 -5.1 -25.4 .8 -29.9 12.9C28.3 292.4 15.6 359 15.6 428.7c0 302.9 239.5 550 539.7 562.1V705.9c13.3 .7 29.3 .9 45.7 0v284.7c300.2 -11.9 539.6 -259 539.6 -561.9 0 -69.7 -12.7 -136.3 -35.7 -198zM714.6 538.1c25.4 0 46.3 20.5 46.3 46.3 0 25.6 -20.7 46.3 -46.3 46.3 -25.3 0 -46.2 -20.5 -46.2 -46.3 0 -25.6 20.7 -46.3 46.2 -46.3zm-273 92.4c-25.8 0 -46.3 -20.9 -46.3 -46.3s20.5 -46.3 46.3 -46.3c25.6 0 46.3 20.7 46.3 46.3 0 25.4 -20.5 46.3 -46.3 46.3z"/></svg>