
  <svg height="1000" width="1156.3" xmlns="http://www.w3.org/2000/svg">
    <path d="m1104.9 230.7c23 61.7 35.7 128.3 35.7 198 0 302.9-239.4 550-539.6 561.9v-284.7c-16.4 0.9-32.4 0.7-45.7 0v284.9c-300.2-12.1-539.7-259.2-539.7-562.1 0-69.7 12.7-136.3 35.8-197.8 4.5-12.2 18.1-18 29.8-12.9 11.2 4.7 16.6 17.2 12.4 28.5-21.3 56.6-33.1 118.1-33.1 182.2 0 262.9 196.1 479.9 449.7 513.1v-241.6c-15.5-3.1-30.1-7.2-45-12.1v203.1c-208.4-50.8-363.1-238.5-363.1-462.5 0-179.3 99.3-335.5 245.8-416.6 11.3-6.2 25.3-1.8 31 9.8 5.3 10.7 1.4 23.6-9.2 29.5-132.6 73.6-222.4 215-222.4 377.3 0 182.4 113.1 338.3 273 401.2v-180.1c-27.7-8.8-48.4-34.6-48.4-65.4 0-25.6 13.1-47.7 33.8-59.6-16.1-155.5-86.9-114.5-86.9-163.9v-28.9c0-74.2 171.6-315.8 252.1-321.7 5.1-0.3 10-0.3 14.8 0 80.3 5.7 252 247.5 252 321.7v28.7c0 49.5-70.7 8.6-86.9 163.9 20.5 11.9 33.8 34 33.8 59.6 0 30.8-20.9 56.6-48.7 65.4v180.1c160-63.1 273.1-219 273.1-401.2 0-162.5-89.9-303.9-222.5-377.3-10.3-5.7-14.4-18.8-9.2-29.5 5.7-11.5 20-16 31.1-9.8 146.5 81.1 245.7 237.3 245.7 416.6 0 224-154.7 411.9-363.1 462.5v-203.1c-14.6 5.1-29.5 9.2-44.9 12.1v241.6c253.7-33.2 449.6-250.2 449.6-513.1 0-64-11.7-125.6-33-182.2-4.3-11.1 1.2-23.8 12.3-28.5 11.7-5.1 25.4 0.9 29.9 12.9z m-390.3 307.4c-25.5 0-46.2 20.7-46.2 46.3 0 25.8 20.9 46.3 46.2 46.3 25.6 0 46.3-20.7 46.3-46.3 0-25.8-20.9-46.3-46.3-46.3z m-273 92.4c25.8 0 46.3-20.9 46.3-46.3 0-25.6-20.7-46.3-46.3-46.3-25.8 0-46.3 20.9-46.3 46.3s20.5 46.3 46.3 46.3z" />
  </svg>
