
  <svg height="1000" width="875.0" xmlns="http://www.w3.org/2000/svg">
    <path d="m795.1 412.5c14.7 5.7 79.9 108.2 79.9 123.8 0 5.7-7.4 11.4-13.1 11.4-55.5-9.2-80.3-16.5-115-16.5-70.9 0-120.3 21.1-183.2 52.8-16.6 8.4-9 13.9-38.5 132-34 132-144.5 284-295.7 284-102.9 0-167-70.3-167-171.7 0-54.9 36.1-154.7 102.3-154.9 23.3 0 114.5 30.1 115.1 53.9-1 4.7-88.9 42.6-88.9 119.2 0 75.2 144.4 67 177.4-184.8 0-9.4 1.9-7.4-21.5-7.4-170.5 0-270.7-95.1-270.7-266.8 0-165.4 113.8-387.5 338.6-387.5 137.2 0 211.8 56.8 211.8 196.5 0 94.7-32.3 181.8-45.9 274.2l1.7 1.8c61.2-34.6 110.2-67.4 182.6-67.4 7.5 0 23.3 4.7 30.1 7.4z m-342.4-164.8c5.7-27.2 10.8-54.9 11-82.9 0-30-2.8-56-39.1-56-15.2 0-30.5 5.1-44.1 13.1-85.6 47-120.7 168.7-120.7 260.5 0 61.2 20.9 142.8 95.7 142.8 17 0 38.4 4.7 42.9-15.2 18-87.3 36.2-175 54.3-262.3z" />
  </svg>
