<svg height="1000" width="875" xmlns="http://www.w3.org/2000/svg"><path d="M795.1 412.5c-6.8 -2.7 -22.6 -7.4 -30.1 -7.4 -72.4 0 -121.4 32.8 -182.6 67.4l-1.7 -1.8c13.6 -92.4 45.9 -179.5 45.9 -274.2C626.6 56.8 552 0 414.8 0 190 0 76.2 222.1 76.2 387.5c0 171.7 100.2 266.8 270.7 266.8 23.4 0 21.5 -2 21.5 7.4C335.4 913.5 191 921.7 191 846.5c0 -76.6 87.9 -114.5 88.9 -119.2 -.6 -23.8 -91.8 -53.9 -115.1 -53.9 -66.2 .2 -102.3 100 -102.3 154.9 0 101.4 64.1 171.7 167 171.7 151.2 0 261.7 -152 295.7 -284 29.5 -118.1 21.9 -123.6 38.5 -132C626.6 552.3 676 531.3 746.9 531.3c34.7 0 59.5 7.2 115 16.4 5.7 0 13.1 -5.7 13.1 -11.4 0 -15.6 -65.2 -118.1 -79.9 -123.8zM452.7 247.7C434.6 335 416.4 422.7 398.4 510c-4.5 19.9 -25.9 15.2 -42.9 15.2 -74.8 0 -95.7 -81.6 -95.7 -142.8 0 -91.8 35.1 -213.5 120.7 -260.5 13.6 -8 28.9 -13.1 44.1 -13.1 36.3 0 39.1 26 39.1 56 -.2 28 -5.3 55.7 -11 82.9z"/></svg>