
  <svg height="1000" width="781.3" xmlns="http://www.w3.org/2000/svg">
    <path d="m632.8 624.6c106.1 0 128.3 97.9 132.2 151.8-90.8 109.9-210.5 161.1-333.9 161.1-241.6 0-431.1-198.2-431.1-437.5 0-241 191.4-437.5 431.1-437.5 115.2 0 223.2 45.5 304.8 128.1l-121.6 123.7c-48.9-49.7-113.9-77-182.9-77-142.9 0-258.5 117.8-258.5 262.5 0 144.9 115.6 262.5 258.5 262.5 65.7 0 127.8-24.8 175.6-69.9v-67.8h25.8z m-23.6-219.7c93.1 0 172 68.3 172 195.7v59.8c-30.2-52.2-83-81.7-148.4-81.7h-231.2v-173.8h207.6z" />
  </svg>
