<svg height="1000" width="781.3" xmlns="http://www.w3.org/2000/svg"><path d="M632.8 624.6H607v67.8c-47.8 45.1 -109.9 69.9 -175.6 69.9C288.5 762.3 172.9 644.7 172.9 499.8c0 -144.7 115.6 -262.5 258.5 -262.5 69 0 134 27.3 182.9 77L735.9 190.6C654.3 108 546.3 62.5 431.1 62.5 191.4 62.5 0 259 0 500c0 239.3 189.5 437.5 431.1 437.5 123.4 0 243.1 -51.2 333.9 -161.1C761.1 722.5 738.9 624.6 632.8 624.6zM609.2 404.9H401.6v173.8h231.2c65.4 0 118.2 29.5 148.5 81.7v-59.8c0 -127.4 -79 -195.7 -172.1 -195.7z"/></svg>