
  <svg height="1000" width="875.0" xmlns="http://www.w3.org/2000/svg">
    <path d="m585.7 373.4c10 72.9-9.1 154.3-70.1 196.7-43.5 30.3-103.1 27.6-138.3 11.1-72.4-33.7-96.6-114.4-91.4-189.8 8.4-118.9 79.9-171.7 147.1-170.9 91.6-0.4 140.2 62.1 152.7 152.9z m289.3-201.5v656.2c0 60.4-49 109.4-109.4 109.4h-656.2c-60.4 0-109.4-49-109.4-109.4v-656.2c0-60.4 49-109.4 109.4-109.4h656.2c60.4 0 109.4 49 109.4 109.4z m-230.5 439.8c0 0-0.2-66.4-0.2-424.4h-56.6v78.7c-1.6 0.6-2.3-1-3.1-2.3-18.8-40.5-70.1-90.5-148.5-89.9-101.3 0.8-170.3 61-196.5 152-8.3 29.1-11.3 58.8-10.7 89 3.3 152.2 88.1 230.1 219.5 225 56.5-2.1 106.5-33.2 134.8-88.2 1-2 2.2-3.7 3.3-5.7 0.4 0.2 0.8 0.2 1.2 0.4 0.6 7.4 0.4 59.9 0.2 67.4-0.4 28.9-3.9 57.6-14.1 84.9-15.2 41-43.5 67.8-86.9 77.2-34.8 7.6-69.5 7.4-103.9-2.4-42-11.9-71.3-37.1-80.3-81.6-0.6-3.1-2.5-2.5-4.5-2.5h-52.3c1.6 20.7 6.2 39.6 16.6 57 47.3 79.1 161.5 94.7 250.4 73 97.4-24 131.4-107.2 131.6-207.6z" />
  </svg>
