
  <svg height="1000" width="875.0" xmlns="http://www.w3.org/2000/svg">
    <path d="m306.3 247.7c73.4 118.3 125.3 220.9 164.6 317.3-16.2 66.1-36.7 129.9-61.1 192-25.8-102.1-51.8-197.8-109.4-290 12.7-71.1 4.5-143.8 5.9-219.3z m-92.8 142.9c9.7 0 19.5 4.9 25.4 12.7 85.5 116.8 129.5 241.8 161.1 378h-202.1c-39.1-135.8-96.7-259.8-179.2-365.9-7.8-10.1 0-24.8 12.7-24.8h182.1z m93.3-171.8h212.3c146.1 201.1 256.3 449.2 279.7 718.7h-222c-16.1-260.7-136.2-507.8-270-718.7z m491.8-133.8c37.1 131.8 60.8 271.4 60.8 415.2 0 135.7-18.6 278.3-49.4 396.5-21.3-180.7-82.9-360.6-177-528.9-8.2-98.7-26-194.4-51.8-285.2-2.3-10.3 4.9-20.1 15.3-20.1h172.4c13.7 0 26.2 9.2 29.7 22.5z" />
  </svg>
