<svg height="1000" width="968.8" xmlns="http://www.w3.org/2000/svg"><path d="M484.4 15.6C217 15.6 0 232.6 0 500s217 484.4 484.4 484.4S968.8 767.4 968.8 500 751.8 15.6 484.4 15.6zM346.3 742.2C211.9 742.2 104.1 633.8 104.1 500S211.9 257.8 346.3 257.8c61.1 0 117.4 21.5 162.1 63.1l-65.6 63.7C417 359.4 381.6 347.3 346.3 347.3c-83.8 0 -150.8 69.3 -150.8 152.5s66.8 152.5 150.8 152.5C410 652.3 473 615 483.2 548.2H346.3V465h228.3c2.5 13.3 3.7 26.6 3.7 40.5 0 138.3 -92.8 236.7 -232 236.7zM795.9 534.8v69.3h-69.3v-69.3h-69.4v-69.4h69.4v-69.3h69.3v69.3h68.7v69.4h-68.7z"/></svg>