
  <svg height="1000" width="875.0" xmlns="http://www.w3.org/2000/svg">
    <path d="m781.3 62.5c51.7 0 93.7 42 93.7 93.8v687.5c0 51.7-42 93.7-93.7 93.7h-687.5c-51.8 0-93.8-42-93.8-93.7v-687.5c0-51.8 42-93.8 93.8-93.8h687.5z m-461 632.8c112.7 0 187.5-79.1 187.5-190.6 0-12.7-1.2-22.7-3.1-32.4h-184.4v67.2h111.1c-4.6 28.5-33.5 84.1-110.9 84.1-66.6 0-120.9-55.2-120.9-123.4 0-68.4 54.3-123.4 120.9-123.4 38.1 0 63.3 16.2 77.7 30l53-50.9c-34.2-32.1-78.2-51.2-130.9-51.2-108 0-195.3 87.3-195.3 195.3s87.3 195.3 195.3 195.3z m429.7-159.8v-57h-56.6v-56.6h-57.1v56.6h-56.6v57h56.6v56.7h57.1v-56.7h56.6z" />
  </svg>
