
  <svg height="1000" width="1250.0" xmlns="http://www.w3.org/2000/svg">
    <path d="m206.5 419.9h194.6c2.3 13.8 3.5 27.7 3.5 42.1v0.5c0 63.9-22.3 117.7-61.4 154.1-34.1 32-81.1 50.6-136.7 50.6-81-0.2-150.9-47.1-184.4-115.2v-0.3c-14-28.3-22-60.5-22-94.2 0-33.6 8-65.5 22-93.7 33.5-68.2 103.4-115.1 184.4-115.4 0.7 0 1.4-0.1 2-0.1 52.8 0 100.7 20.7 136.2 54.4l-59.2 59.8c-19.8-19.4-47-31.4-77-31.4-0.7 0-1.4 0-2.1 0-53.9 0-99.5 37-115.8 86.7v0c-4.2 12.6-6.4 26.1-6.4 40s2.2 27.5 6.4 40.1c16.3 49.4 61.9 86.3 115.8 86.3 27.9 0 51.7-7.2 70.3-20 21.4-14.5 36.7-37.3 41.3-63.7h-111.5v-80.6z m760.6-7.8c19.7 18.3 29.5 43.9 29.3 76.2v153.7h-44.1v-34.6h-2c-19.1 28.5-44.3 42.7-76.1 42.7-27 0-49.9-8.1-68-24.4-16.7-14.2-27.2-35.4-27.2-59 0-0.7 0-1.4 0-2.1 0-25.9 9.7-46.2 28.9-61.6 19.2-15.4 45-23 77.2-23 27.5 0 49.8 5.2 67.6 15.1v-10.7c0-16.6-7.3-31.4-18.9-41.5-11.8-10.6-27.4-17.1-44.4-17.2-25.8 0-46.2 11.1-61.1 33.2l-40.7-25.9c21.8-32.2 54.7-48.5 98.6-48.5 34.1 0 61.1 9.3 80.9 27.6z m-37.6 174.4c15.2-14.5 22.9-31.7 22.9-51.5-14.3-11.6-34.4-17.4-60.1-17.1-18.7 0-34.7 4.7-47 13.7-12.4 9-18.7 20.3-18.7 34 0 0.1 0 0.1 0 0.2 0 12.4 6 23.4 15.2 30.3 9.6 7.6 21.7 12.2 34.8 12.2 0.4 0 0.7 0 1 0 20.3 0 38.7-8.3 51.9-21.8z m-182.9-277.3c20.3 19.4 33 46.7 33 77 0 27.6-10.6 52.9-27.9 71.8-1.8 1.7-3.5 3.5-5.2 5.2-21.5 20.7-47.9 31.1-79.1 31.1h-76.2v147.8h-46.1v-364.8h122.4c0.7 0 1.4 0 2.2 0 30 0 57.2 12.2 76.9 31.9z m-32.4 121.5c10.9-11.6 17.6-27.3 17.6-44.5 0-17.9-7.3-34.2-19-45.9-11.3-11.2-26.9-18-44-18h-0.2-77.4v127.3h77.4c0.7 0 1.3 0.1 1.9 0.1 17.2 0 32.8-7.3 43.7-19z m485.6-38.1h50.2l-154.3 359.1h-47.6l57.4-125.6-101.2-233.5h50.2l73.1 179.1h0.9z" />
  </svg>
