<svg height="1000" width="875" xmlns="http://www.w3.org/2000/svg"><path d="M781.3 62.5H93.8C42 62.5 0 104.5 0 156.3v687.5c0 51.7 42 93.7 93.8 93.7h687.5c51.7 0 93.7 -42 93.7 -93.7V156.3c0 -51.8 -42 -93.8 -93.7 -93.8zm-461 632.8C212.3 695.3 125 608 125 500S212.3 304.7 320.3 304.7c52.7 0 96.7 19.1 130.9 51.2l-53 50.9c-14.4 -13.8 -39.6 -30 -77.7 -30 -66.6 0 -120.9 55 -120.9 123.4 0 68.2 54.3 123.4 120.9 123.4 77.4 0 106.3 -55.6 110.9 -84.1H320.3v-67.2h184.4c1.9 9.7 3.1 19.7 3.1 32.4 0 111.5 -74.8 190.6 -187.5 190.6zM750 535.5h-56.6v56.7h-57.1v-56.7h-56.6v-57h56.6v-56.6h57.1v56.6H750v57z"/></svg>