
  <svg height="1000" width="1000.0" xmlns="http://www.w3.org/2000/svg">
    <path d="m500 15.6c267.4 0 484.4 217 484.4 484.4s-217 484.4-484.4 484.4-484.4-217-484.4-484.4 217-484.4 484.4-484.4z m-138.1 726.6c139.3 0 232-98.5 232-236.7 0-0.3 0-0.4 0-0.7 0-13.6-1.2-26.9-3.7-39.8h-228.3v83.2h136.9c-10.1 66.8-73.2 104.1-136.9 104.1-84 0-150.8-69.3-150.8-152.5 0-83.2 67-152.5 150.8-152.5 35.4 0 70.7 12.1 96.5 37.3l65.6-63.7c-44.7-41.6-101-63.1-162.1-63.1-133.7 0-242.2 108.5-242.2 242.2s108.5 242.2 242.2 242.2z m449.6-207.4h68.8v-69.4h-68.8v-69.3h-69.3v69.3h-69.3v69.4h69.3v69.3h69.3v-69.3z" />
  </svg>
