
  <svg height="1000" width="750.0" xmlns="http://www.w3.org/2000/svg">
    <path d="m219.7 588.7c0 52.5 32.4 92.2 63.7 135.7 43.9 59 86.3 111.1 86.3 169-0.2 28.3-8.6 58-34.2 90.6 0-10.4 9.4-23.8 9.4-43.6 0-29.7-25.4-77.9-152.5-169.1-67-56.8-129.9-114.3-129.9-211.5 0-224.1 287.3-344.8 287.3-524.6 0-6.5-0.4-13.1-1.2-19.6 10 4.7 76.4 84.6 76.4 176.6 0 157.2-205.3 252.3-205.3 396.5z m401-76.2c2.9 16.4 4.3 32.4 4.3 48 0 101.2-57.4 190.5-131.4 267.2-2 2-4.3 4.7-6.3 4.7-7 0-69.3-81.2-69.3-103.9 0 0 81.6-108.8 81.6-189.2 0-21.1-5.3-42.4-17.8-65.3-2.9 63.1-108.8 171.3-113.4 171.3-5.3 0-35-43-35-82.2 0-10.4 2-20.9 6.2-30.9 4.7-10.7 110.6-140.6 110.6-227.9 0-12.1-2-23.4-6.6-33.4l-7.9-14.1c32.7 12.7 161.4 125.2 185 255.7z" />
  </svg>
