<svg height="1000" width="750" xmlns="http://www.w3.org/2000/svg"><path d="M119.7 369.7c-2.1 19.6 10.2 37.3 10.2 37.3 1.4 -14.6 4.3 -25 7.8 -32.4 .8 20.1 6.2 45.9 25 66.6 13.5 14.9 69.5 45.5 107.2 11.9 2 4.7 4.1 10.4 5.9 16.6 5.6 20.1 -5.3 49.4 -5.3 49.4s29.5 -33.4 27.2 -63.4c21.1 -1 41.8 -16.4 41.2 -38.1 0 0 -36.9 20.3 -69.4 -17.2 -18.9 -21.9 -79.9 -82 -162.3 -62.1 8.4 1.9 17.4 4.7 26.4 8h-.2c-8.2 3.9 -12.7 13.9 -13.7 23.4zm55.3 -3.5c38.1 21.5 73 50.2 87.7 72.3 -11.1 6.4 -42.4 20.3 -74.2 -3.3C168.4 420.3 169.3 384 175 366.2zm154.7 456.5c4.3 4.4 2.9 10.3 1.7 13.2 -2.1 5.3 -10.7 22.7 -25.3 38.7 -5.3 5.7 -12.9 9 -21.5 9 -8.4 0 -17 -3.1 -23.1 -8.4 -4.5 -4.1 -19.9 -18.6 -26.7 -36.3 -2.6 -6.7 -2 -11.9 1.7 -15.9 2.6 -2.5 7.8 -5.6 18.6 -5.6h57.4c8 0 13.7 1.7 17.2 5.3zm122.8 -367c-2.3 30.2 27.2 63.4 27.2 63.4s-10.9 -29.3 -5.3 -49.4c1.8 -6.2 3.9 -11.7 5.9 -16.6 37.7 33.8 93.7 3 107 -11.9 18.8 -20.7 24 -46.5 25 -66.6 3.5 7.4 6.6 17.8 7.8 32.4 0 0 12.5 -17.7 10.2 -37.3 -1.2 -9.7 -5.7 -19.5 -13.7 -23h-.2c9 -3.5 18 -6.3 26.4 -8 -82.6 -20 -143.4 40.2 -162.3 62.1C447.9 438.3 411.1 418 411.1 418c-.4 21.3 20.3 36.9 41.4 37.7zm34.8 -17.2C502 416.2 536.9 387.7 575 366.2c5.9 17.8 6.6 54.1 -13.7 69.2 -31.8 23.6 -62.9 9.7 -74 3.1 -.2 .2 0 0 0 0zM513.7 823c3.7 3.8 4.3 9 1.7 15.5 -6.8 17.4 -22.2 31.4 -26.7 35.3 -6.1 5.1 -14.5 8.2 -23.1 8.2s-16.2 -3.1 -21.5 -8.8c-14.6 -15.6 -23.4 -32.6 -25.3 -37.7 -1.2 -2.9 -2.6 -8.5 1.7 -13 3.3 -3.6 9.2 -5.3 17.4 -5.3h57.4c10.6 .2 15.8 3.3 18.4 5.8zm-192 -491.2c19.3 11.8 36.7 15.9 53.3 16.2 16.6 -.3 34 -4.4 53.3 -16.2 0 0 -28.3 34.6 -53.1 34.8h-.4c-24.8 -.4 -53.1 -34.8 -53.1 -34.8zM682 619.7c-4.7 35 -25.4 66 -48 85.4 -6.1 -44.4 -7.2 -108.4 -7.2 -121.9 0 -28.7 18.5 -47.8 23.8 -51 4.9 -2.9 10.5 -5.8 16.2 -9 35.2 -18.7 78.9 -42.1 78.9 -85.3 0 -31.7 -18.2 -45.3 -30.1 -54.3 -1.5 -1.2 -2.9 -2.2 -4.3 -3.3 -4.1 -3.3 -7.2 -5.9 -8.4 -8.6 -8.6 -19.2 -7 -66.8 -3.3 -73.5 1.2 -1.1 32.6 -40.8 23.1 -76.5 -3.9 -14.5 -13.5 -26 -27.6 -33.2 -10.3 -5.3 -23.2 -8.2 -38.1 -8.8 -.2 -3.9 -.9 -7.6 -1.7 -11.5 -1.2 -5.1 -2.2 -10.4 -1.8 -15.9 .8 -9.1 1.6 -17.5 4.3 -22 16.4 -26 56.3 -34.4 56.7 -34.4l24 -4.7L722.7 72.7c-.2 -.4 -33.8 -34.2 -90.5 -34.2 -15.4 0 -31.2 2.5 -47 7.6 -47.3 15.2 -83.8 59.6 -96.5 76.8 -6.1 -2 -12.3 -3.8 -18.8 -5.3 -8.2 -30.9 17.6 -75.2 17.6 -75.2s-26.6 -5.9 -65.8 29.7C416.6 59.4 405.9 32 418.2 -.6c-57.7 20.3 -72.1 51.4 -76.4 79.5C327 68.4 328.7 33.8 327.7 25c-14.6 1.8 -57 42.8 -55 94.3 -3.9 1 -7.7 2.2 -11.6 3.4 -12.7 -17.2 -49 -61.6 -96.5 -76.8C149.2 41.6 133.4 39.1 118 39.1c-56.7 0 -90.1 33.8 -90.5 34.1L11.7 91.6l24 4.7c.4 0 40.3 8.4 56.7 34.4 2.7 4.3 3.5 12.9 4.3 22 .4 5.5 -.8 10.8 -1.8 15.9 -.8 3.7 -1.5 7.6 -1.7 11.5 -15.1 .6 -27.8 3.5 -38.1 8.8C41 196.1 31.4 207.6 27.5 222.1c-9.7 35.5 21.9 75.2 23.1 76.5 3.7 6.7 5.3 54.3 -3.3 73.5 -1.2 2.7 -4.3 5.2 -8.4 8.6 -1.4 .9 -2.8 2.1 -4.3 3.3C22.7 393 4.5 406.8 4.5 438.3c0 43.1 43.7 66.6 78.9 85.3 5.9 3.2 11.3 6.1 16.2 9 5.3 3.1 23.8 22.3 23.8 51 0 13.5 -1.1 77.5 -7.2 121.9C93.6 686.1 72.9 654.9 68.2 619.9c0 0 -57.1 44.2 -40.3 138.3 10.2 57.6 45.3 90 91.8 106.8 17.2 37.3 57.4 89.3 131.5 96.9 28.1 23.1 67.2 38.1 124.2 38.1h.4c56.8 0 95.9 -15 124.2 -38.1 74 -7.6 114.3 -59.6 131.4 -96.9 46.5 -17 81.5 -49.2 91.8 -106.8C739.3 663.7 682 619.7 682 619.7zM597.1 73.6c10.9 -3.5 22.6 -5.2 34.5 -5.2 21.5 0 38.9 5.8 48.3 9.7 -6.1 2.8 -12.5 6.3 -19 10.4C656.3 87.7 650 86.9 643 86.9c-20.5 0 -40.1 6.1 -56.1 17.4 -24 17 -35.1 33 -40.4 43.7 -4.3 -2.5 -8.8 -4.8 -13.9 -7.2 -3.1 -1.5 -6 -2.9 -9.2 -4.3 12 -17.7 38.9 -51.7 73.7 -62.9zm41 35.6c-1.6 1.9 -3.1 4.1 -4.5 6.2 -6.5 10.2 -7.6 22.7 -8.6 34.8 -1 12.5 -2.1 24.4 -8.6 33.2 -8.2 1.6 -15.8 3.3 -22.5 5.3C589.5 182.6 583 175 573.4 166.8c2.8 -9.4 10.8 -31.4 26.4 -43.9 10.9 -8.4 23.8 -13.1 38.3 -13.7zM89.1 88.5C82.6 84.2 76.2 80.7 70.1 78.1c9.4 -3.9 26.8 -9.7 48.3 -9.7 11.9 0 23.4 1.7 34.5 5.2 34.8 11.4 61.7 45.3 73.7 62.7 -3.2 1.4 -6.3 2.8 -9.4 4.3 -4.9 2.4 -9.6 4.9 -13.9 7.3 -5.1 -10.6 -16.2 -26.8 -40.4 -43.8C146.7 92.8 127.3 86.7 106.6 86.7c-6.6 .2 -12.8 1 -17.5 1.8zm87.3 78.3c-9.6 8.2 -16.2 15.6 -20.5 21.9 -6.7 -1.8 -14.3 -3.7 -22.5 -5.3 -6.4 -8.6 -7.4 -20.5 -8.4 -33 -1 -12.1 -2.1 -24.6 -8.6 -34.8 -1.4 -2.1 -2.9 -4.3 -4.5 -6.2 14.5 .6 27.4 5.1 38.1 13.6 15.6 12.4 23.6 34.4 26.4 43.8zm-62.9 340.8c-5.3 -3.1 -11 -6 -16.4 -9C68 483 38.1 466.8 38.1 439.1c0 -21.7 8.4 -28.6 17.4 -35.6l.9 -.8c1.4 -1.1 2.8 -2.3 4.3 -3.5 -1.7 14.1 -3.7 26 -5.2 29.1 0 0 23.6 -29.3 30.6 -86.5 2.8 -22.5 -2.1 -67 -9.9 -84 .4 9.6 0 19.2 -.6 28.1 -.8 -1.5 -1.6 -3.1 -2.6 -4.3C66.8 273.8 50 247.5 54.7 229.7c1.7 -6.8 6 -11.7 13.1 -15.2 7.4 -3.8 17.2 -5.7 29.5 -5.7 24 0 50.6 7.2 64.2 11.7 49 15.6 108.2 60.4 125.2 73.6 .4 .4 .8 .6 .8 .6l10.9 7.6L291.6 291c-.4 -.6 -37.3 -61.3 -103.9 -90.8 3.9 -5.7 14.4 -15.8 42.2 -29.5 41.8 -20.5 90.8 -30.9 145.1 -30.9 54.5 0 103.3 10.4 145.1 30.9 27.8 13.5 38.3 23.8 42.2 29.5C495.9 229.7 459 290.4 458.6 291l-6.8 11.3 10.9 -7.6s.4 -.2 .8 -.6c17 -13.2 76.1 -58.2 125.2 -73.6 13.6 -4.3 40.2 -11.7 64.2 -11.7 12.3 0 22.1 1.9 29.5 5.7 6.9 3.5 11.2 8.5 13.1 15.2 4.9 17.8 -11.9 44.1 -18.4 51.9 -.9 1.2 -1.7 2.6 -2.5 4.3 -.6 -8.9 -1 -18.5 -.6 -28.1 -7.8 17.2 -12.7 61.5 -9.9 84 7 57.2 30.6 86.5 30.6 86.5 -1.5 -3.1 -3.5 -15 -5.2 -29.1 1.3 1.2 2.9 2.4 4.3 3.5l.9 .8c9 7.2 17.4 13.9 17.4 35.6 0 27.7 -30.1 43.9 -59 59.5 -5.6 3 -11.1 6.1 -16.4 9 -17 9.8 -35.1 32.6 -37.3 66.8 -1.7 28.5 1.8 97.5 6.7 148.3 -24.3 9.3 -52.2 12.5 -77.6 13.2 -3.9 -8 -7.6 -16.6 -10.7 -25.5 -1.4 -4 -38.3 -99.9 -51.6 -121.5 10.8 76.1 34.2 143.9 45.9 175 -6.8 -1 -14.2 -1.4 -22.8 -1.4H260.7c-8.6 0 -16.2 .6 -22.8 1.4 11.7 -31.1 35.3 -98.9 45.9 -175 -13.3 21.8 -50.2 117.7 -51.6 121.5 -3.1 8.9 -6.8 17.5 -10.7 25.5 -25.4 -.7 -53.1 -3.9 -77.6 -13.2 4.9 -50.8 8.4 -119.6 6.7 -148.3 -1.8 -34 -20.1 -57 -37.1 -66.8zM68 790.2C44.3 751.2 51 684.6 60.7 674.8c21.3 67.2 92.2 86.5 145.4 88.7 -5.3 8.2 -10.2 14.8 -13.7 19.5l-2.8 2.7c-14 15.3 -16.7 36.2 -8 62.2C137.3 847.7 91.2 828.7 68 790.2zm89.2 85c11.7 2.1 23.9 3.7 36.4 4.7 6.8 15.6 14.4 31 24 45.1 -28.1 -11.5 -47.7 -31.2 -60.4 -49.8zM375 973C256.6 972.9 222.1 883.6 209.2 846.7c-7.2 -20.5 -6.7 -35.6 1.7 -45.1 5.7 -6.5 18.6 -14.1 48.1 -14.1h232c29.5 0 42.6 7.6 48.1 14.1 8.2 9.3 8.8 24.6 1.7 45.1C527.9 883.4 493.4 972.9 375 973zm157.4 -48c9.6 -14.1 17.2 -29.5 24 -45.1 12.5 -1 24.7 -2.6 36.4 -4.7 -12.7 18.6 -32.3 38.3 -60.4 49.8zM682 790.2c-23.4 38.5 -69.5 57.3 -113.4 58 8.7 -25.9 6 -47 -8.1 -62.1 -.7 -.9 -1.7 -1.9 -2.7 -2.9 -3.5 -4.7 -8.4 -11.3 -13.7 -19.5 53.2 -2.4 124.1 -21.5 145.4 -88.7 9.7 9.8 16.4 76.4 -7.5 115.2z"/></svg>