<svg height="1000" width="500" xmlns="http://www.w3.org/2000/svg"><path d="M409.8 763.9l-27.6 48 -9 156.7c0 17.3 -55.2 31.4 -123.2 31.4S126.8 985.9 126.8 968.6L115.4 813.5 86.3 763.9c80.5 33.8 246.1 32.6 323.5 0zM27 269.1l26.5 245.2C65 475.2 94.1 422.5 131.6 406.4c12.3 -5.2 24.8 -5.2 36.6 1.8 10.1 5.9 18.7 18.2 19.7 23.1 2.3 12.6 -3.9 17.7 -8.8 17.7 -5.9 0 -10.3 -9 -13.3 -14.2 -8 -14.3 -20.1 -14.9 -33 -5.5 -13.5 9.8 -25.2 26.2 -33.4 40.4C89.5 486.9 81.1 505.9 76 524.8c-3 10.9 -5.7 28.5 -1.2 38.9 2 4.3 4.9 7 9.6 7 9.7 0 24 -12.9 30.8 -19.7 8.8 -8.8 20.2 -22.5 24.4 -31.3l10.2 -30.2c5.1 -13.3 19.3 -11 19.3 0 0 19.9 -7.2 26.5 -19.5 67.7 -11.3 38.1 -14.8 50.4 -14.8 50.4 -1.4 5.5 -6.7 14.7 -12.3 14.7 -2.4 0 -4.1 -.8 -5.1 -2.4 -2 -2.7 -1.8 -10.3 -1.6 -12.3 .4 -6.2 12.3 -43.3 14.3 -49.2 -3.9 4.3 -8 8.6 -12.5 12.9 -10.6 10 -27.6 23 -42 23 -6.7 0 -11 -1.7 -15.1 -4.7l14.9 155.5c3.9 9.8 76.6 33.4 172.3 33.4 95.9 0 168.5 -23.8 172.2 -33.4l21.3 -184.7c-11.1 10.1 -24 22.6 -38.3 28.9 -10.5 4.5 -34 7.4 -34 -11.2 0 -10.1 17.8 -28.9 28.2 -42 2.7 -3.3 9.2 -11.5 9.2 -15.8 0 -5.7 -11.8 -4.3 -22.9 4.9 -6.3 5.3 -12.1 12.3 -17 18.9 -8.4 11.8 -12.9 21.9 -16.6 30.3 -12.1 27.7 -8 16.8 -17.8 43 -9.7 26 -8.2 23 -10.1 27.3 -1.8 3.7 -4.3 6.9 -7.8 8.8 -3.7 2 -8.8 1.8 -12 -.6 -1.7 -1.1 -2.5 -3.7 -2.5 -7.2 0 -1.8 .2 -3.5 .6 -5.3 2.9 -11.9 15.2 -35.3 29.3 -67 3.1 -7.2 1.9 -5 1.6 -4.5 -12.2 11.8 -21.3 17.4 -28.2 20.6 -11.3 5 -25.4 5 -28.3 -8.1 -.2 -.7 -.2 -1.5 -.4 -2.3 -23 18 -47.4 22.9 -39 -15.8 -9 16 -24.7 29.1 -43.8 29.1 -8 0 -13.9 -2.8 -16.8 -10 -4.5 -10.7 2.5 -29.1 9 -46.5 3.3 -8.8 7.8 -19.3 13.9 -31.6 3.1 -6.6 8.2 -10.6 14.8 -8.8 1.2 .4 2.2 .8 3.1 1.4 5.1 3.5 3.2 8.8 .6 14 -7.4 14.7 -13.9 25.4 -18.1 40.7 -1.8 6.4 -4 17.5 2.9 17.5 4.7 0 9.2 -1.5 13.5 -4.6 8.9 -6.7 16.2 -16.6 21.6 -26.4 3.9 -7 8.6 -16.2 11 -24 1 -3.4 2.1 -6.5 3.5 -9.4 2.1 -4.9 5.1 -10 10.1 -10 2.6 0 4.7 1 6.3 3 3.3 4.3 2.5 8.7 .8 13.4 -3.9 11 -9.2 20.7 -13.5 32.6 -2.5 6.9 -5.3 15.7 -5.3 22.9 0 6.6 7.3 5.1 13.3 2.3 4.7 -2.1 9.4 -5.4 13.3 -8.7 2.3 -9.6 1.7 -7.5 51.6 -133.2 2.5 -6.5 7.2 -9.2 11.9 -9.2 2.3 0 4.3 .8 6.2 2.1 3.3 2.6 3.3 8 2 12.1 -1.4 3.7 -1.2 2.6 -8.8 20.5 -10.2 23.7 -16.8 40.7 -25.8 62.3 -3.7 9 -15 37 -17 43.6 -1.2 4.3 -2.5 11.3 2 11.3 10.5 0 37.7 -25.6 45.1 -33.2 .4 -.6 1 -.8 1.7 -1.1 1.2 -3.8 2.4 -7.3 3.4 -10.8 2.7 -7.4 5.2 -16 10.3 -22.1 1.6 -1.9 3.3 -3.1 5.3 -3.1 5.5 0 8.2 2.4 8.2 7.8 0 2.2 -1.4 10 -2.2 12.1 2.8 -2.9 5.7 -5.8 8.8 -8.8 29.3 -27.1 50.2 -13.2 50.2 .4 0 14.5 -17.4 34.6 -26.9 45.7 -3.2 3.8 -9.6 10.6 -9.8 12.5 0 2.6 1.8 3.6 4.3 3.6 3.9 0 12.5 -6.9 15.6 -9.2 9.8 -7.6 23.1 -19.4 32.4 -27.6l29 -267.2c-59.6 33.4 -386 33.6 -445.9 .4zm448.6 -16.6c0 41.1 -451.6 41.1 -451.6 0 0 -17.1 101.2 -31 225.8 -31 17.6 0 34.8 .2 51.4 .8l24.6 -95.2L445.5 1.2c2.7 -2.8 11.3 -.4 19.3 6.8s12.9 15.4 10.4 18.2l-.2 .2L363.1 144.5 343.6 224c77.9 5.1 132 15.8 132 28.5zm-135.6 9c0 -1.5 -1.7 -2.9 -4.8 -4.1l-.4 1.6c0 2.5 -9.8 4.7 -21.7 4.7s-21.7 -2.2 -21.7 -4.7c0 -.2 0 -.4 .2 -.6l.4 -1.4c-3.5 1.2 -5.9 2.8 -5.9 4.5 0 4.1 12.1 7.3 26.8 7.3 15 .1 27.1 -3.2 27.1 -7.3z"/></svg>