<svg height="1000" width="875" xmlns="http://www.w3.org/2000/svg"><path d="M306.3 247.7C379.7 366 431.6 468.6 470.9 565c-16.2 66.1 -36.7 129.9 -61.1 192C384 654.9 358 559.2 300.4 467c12.7 -71.1 4.5 -143.8 5.9 -219.3zm-92.8 142.9H31.4c-12.6 0 -20.5 14.7 -12.6 24.8 82.4 106.1 140 230.1 179.1 365.9H400C368.4 645.1 324.4 520.1 238.9 403.3c-5.9 -7.8 -15.7 -12.7 -25.4 -12.7zm93.3 -171.8c133.8 210.9 253.9 458 270 718.7h222C775.4 668 665.2 419.9 519.1 218.8H306.8zM798.6 85c-3.5 -13.3 -16 -22.5 -29.7 -22.5H596.5c-10.4 0 -17.6 9.8 -15.2 20.1 25.7 90.8 43.5 186.5 51.7 285.2C727.1 536.1 788.7 716 810 896.7c30.8 -118.2 49.4 -260.8 49.4 -396.5C859.4 356.4 835.7 216.8 798.6 85z"/></svg>