
  <svg height="1000" width="1000.0" xmlns="http://www.w3.org/2000/svg">
    <path d="m932.6 250c28.3 48.8 28.3 451 0 500s-375.8 250-432.3 250c-56.5 0-404-200.8-432.3-250s-28.1-450.8 0-500 375.7-250 432.3-250 404 201.3 432.3 250z m-315.2 559c7.8 0 79-69.9 73.4-75.5-1.7-1.7-17.2-3-34.5-3.6 0-63.3-5.9-37.2 1.3-410.9 0.1-7.1-2.1-10.5-8.8-10.5-21.7-0.1-43.3 0-64.9 0.2-6.4 0-8.4 3.5-8.2 10.1 3.1 95.5 2.3 154.5 2.3 163.4h-156.8c1.3-50.4 0.5-155.6 5.2-205.9v-6.1c17.3-0.7 31-1.9 32.7-3.6 5.7-5.7-67-75.6-74.7-75.6-7.7 0-80.9 69.9-75.2 75.6 1.7 1.6 14.8 2.9 33.7 3.6v6.1c6.2 251.4 2.1 350.1 0.3 415.4-0.2 9 3.2 12 11.2 12 19.8-0.1 39.6 0.1 59.4 0.1 8.2 0.1 11.7-2.7 11.2-11.6-3.5-71.6-2.6-128.5-2.6-142.3h156.1c0 4.7 0.8 7.5 0.8 11.4-0.6 34.6-1.8 117.4-1.8 168.6-22.1 0.7-32.6 1.9-34.3 3.6-5.7 5.7 66.4 75.5 74.2 75.5z" />
  </svg>
