<svg height="1000" width="907" xmlns="http://www.w3.org/2000/svg"><path d="M885.7 250C857.4 201.3 510 0 453.4 0 396.9 0 49.3 200.8 21.2 250c-28.2 49.2 -28.3 450.8 0 500 28.3 49.2 375.7 250 432.2 250s404 -201 432.3 -250c28.3 -49 28.3 -451.3 0 -500zM570.6 809c-7.8 0 -79.9 -69.8 -74.3 -75.5 1.7 -1.7 12.3 -2.9 34.3 -3.6 0 -51.2 1.2 -134 1.9 -168.6 0 -4 -.9 -6.7 -.9 -11.4H375.5c0 13.8 -.9 70.7 2.7 142.3 .4 8.9 -3.1 11.6 -11.2 11.6 -19.8 0 -39.6 -.2 -59.4 -.1 -8 0 -11.5 -3 -11.3 -12 1.8 -65.3 5.8 -164.1 -.2 -415.4v-6.1c-18.9 -.7 -32 -1.9 -33.8 -3.6 -5.7 -5.7 67.5 -75.6 75.2 -75.6 7.8 0 80.4 69.9 74.8 75.6 -1.7 1.7 -15.5 2.9 -32.8 3.6v6.1c-4.7 50.3 -4 155.5 -5.1 205.9h156.7c0 -8.9 .8 -67.9 -2.3 -163.4 -.2 -6.6 1.8 -10.1 8.2 -10.1 21.6 -.2 43.3 -.3 64.9 -.2 6.8 .1 8.9 3.4 8.8 10.5 -7.1 373.7 -1.3 347.6 -1.3 410.9 17.3 .6 32.9 1.8 34.6 3.6 5.6 5.6 -65.7 75.5 -73.4 75.5z"/></svg>