<svg height="1000" width="1250" xmlns="http://www.w3.org/2000/svg"><path d="M0 156.6c0 -3.5 1.8 -5.2 5.3 -5.2h79.9c3.7 0 5.4 1.7 5.4 5.2v158.6c29.7 -15 61.9 -22.4 97.3 -22.2 46.9 .2 86.3 12.1 117.8 35.1 36.5 26.4 54.7 62.3 54.7 108V702c0 3.7 -1.8 5.4 -5.3 5.4h-53.3c-17.8 0 -32.1 -14.2 -32.1 -31.8V436.1c0 -1.7 5.3 -52.7 -89.4 -52.7 -94.9 0 -89.5 51.2 -89.5 52.7V702c0 3.7 -1.7 5.4 -5.4 5.4H5.3C1.8 707.4 0 705.7 0 702V156.6zm972.1 432.7c26.7 19.9 66.6 37.3 114 37.3 45.5 0 64.1 -8.8 71.3 -26.6 5.9 -15.4 -1.1 -31.4 -23.8 -41.4l-104.7 -45.9c-41.8 -18.4 -66 -46.9 -72.6 -85.2 -11.2 -65.8 43.3 -104.1 44.3 -104.8 25.8 -18.8 62.5 -30.1 114.2 -30.1 37.2 0 73.1 6.4 107.7 19.3 2.5 1 3.7 2.6 3.7 5.1v87.3c0 4.1 -4.5 6.6 -7.8 4.7 -77.6 -40.4 -149.7 -24 -164.1 -13.3 -12.9 9.6 -11.7 24.4 5.1 31.4l112.5 49.5c32.2 13.8 54.9 35.9 68.1 66.6 10.8 24.6 12.9 50 6.1 76.3 -18.8 72.1 -87.7 88.9 -89.1 89.5 -20.5 6 -46.1 8.4 -70.9 8.4 -32.4 0 -63.6 -5.3 -94.1 -16 -19 -6.7 -28.5 -20.1 -28.5 -40.5v-67.1c0 -4.2 4.5 -7.3 8.6 -4.5zM734.8 292.6c-61.9 0 -203.5 39.2 -203.5 202.1v358.4c0 1.6 1.1 5.3 5.2 5.3h79.9c3.7 0 5.5 -1.8 5.5 -5.3V679.7c32.2 24.8 69.9 37.3 112.7 37.3 118.1 0 212.3 -94.7 212.3 -212.3C947.1 386.9 852.7 292.6 734.8 292.6zm0 333.8c-33.6 0 -62.3 -11.9 -86 -35.6C625 567 613.3 538.5 613.3 504.9c0 -67.4 53.9 -121.5 121.5 -121.5 67.3 0 121.5 53.9 121.5 121.5 .1 67 -53.4 121.5 -121.5 121.5zM491.4 702c0 3.7 -1.8 5.4 -5.5 5.4h-79.8c-3.2 0 -5.3 -2.7 -5.3 -5.4V307.8c0 -2.7 2.1 -5.5 5.3 -5.5h79.8c3.7 0 5.5 1.8 5.5 5.5V702M445.9 141.6c31.1 0 56.4 24.8 56.4 56.4 0 30.9 -24.8 56.5 -56.4 56.5s-56.4 -26 -56.4 -56.5c.1 -31.2 25.3 -56.4 56.4 -56.4"/></svg>