<svg height="1000" width="1000" xmlns="http://www.w3.org/2000/svg"><path d="M865.4 0h-725C132.6 72.9 73 132.4 0 140v725.6c73 9.6 128.9 63.3 140.4 134.4h727c5.8 -71.1 63.5 -128.5 132.6 -136.3V140C928.9 128.5 873 71.1 865.4 0zm-72.2 790.8c-70.9 0 -36.8 -3.9 -107.7 -3.9 -69.9 0 -41 3.9 -109.5 3.9 -11.5 0 -9.6 -16 0 -19.1 44.5 -14.9 44.7 -19.9 48 -25C644.3 716.2 635.5 584.6 635.5 526c0 -10.4 -12.5 -25 -26.9 -25H391.4c-14.4 0 -26.9 14.6 -26.9 25 0 58.6 -8.8 190.2 11.5 220.7 3.3 4.9 3.5 10.1 48 25 9.6 3.1 11.7 19.1 0 19.1 -68.5 0 -39.6 -3.9 -109.5 -3.9 -70.9 0 -36.8 3.9 -107.7 3.9 -15.4 0 -11.3 -21.1 0 -21.1 20 -6.6 26.4 -6.8 42.4 -26.9 15.1 -25.2 15.4 -86.7 15.4 -249.6V295.5c0 -43.4 -23.8 -55.3 -55.8 -63.3 -17.2 -4.3 -7.8 -23 1.9 -23 71.3 0 40.3 3.9 111.6 3.9 63.8 0 32.2 -3.9 96.1 -3.9 6.4 0 16.6 16.2 1.9 21.1 -9.6 3.1 -53.9 7.2 -53.9 76.7 0 89.1 -.4 109 2 134.4 0 2.5 4.5 25 25 25h213.2c20.5 0 25 -22.5 25 -25 2.4 -25.4 2 -45.3 2 -134.4 0 -69.5 -44.3 -73.6 -53.9 -76.7 -14.7 -4.9 -4.5 -21.1 1.9 -21.1 63.9 0 32.3 3.9 96.1 3.9 71.3 0 40.3 -3.9 111.6 -3.9 9.5 0 19.3 18.7 1.9 23 -32 8 -55.8 20.1 -55.8 63.3v197.7c0 162.9 .1 224.4 15.4 249.6 16 19.9 22.2 20.3 42.4 26.9 11.3 0 15.2 21.1 0 21.1z"/></svg>