
  <svg height="1000" width="1000.0" xmlns="http://www.w3.org/2000/svg">
    <path d="m865.4 0c7.6 71.1 63.5 128.5 134.6 140v723.7c-69.1 7.8-126.8 65.2-132.6 136.3h-727c-11.5-71.1-67.4-124.8-140.4-134.4v-725.6c73-7.6 132.6-67.1 140.4-140h725z m-72.2 790.8c15.2 0 11.3-21.1 0-21.1-20.2-6.6-26.4-7-42.4-26.9-15.3-25.2-15.4-86.7-15.4-249.6v-197.7c0-43.2 23.8-55.3 55.8-63.3 17.4-4.3 7.6-23-1.9-23-71.3 0-40.3 3.9-111.6 3.9-63.8 0-32.2-3.9-96.1-3.9-6.4 0-16.6 16.2-1.9 21.1 9.6 3.1 53.9 7.2 53.9 76.7 0 89.1 0.4 109-2 134.4 0 2.5-4.5 25-25 25h-213.2c-20.5 0-25-22.5-25-25-2.4-25.4-2-45.3-2-134.4 0-69.5 44.3-73.6 53.9-76.7 14.7-4.9 4.5-21.1-1.9-21.1-63.9 0-32.3 3.9-96.1 3.9-71.3 0-40.3-3.9-111.6-3.9-9.7 0-19.1 18.7-1.9 23 32 8 55.8 19.9 55.8 63.3v197.7c0 162.9-0.3 224.4-15.4 249.6-16 20.1-22.4 20.3-42.4 26.9-11.3 0-15.4 21.1 0 21.1 70.9 0 36.8-3.9 107.7-3.9 69.9 0 41 3.9 109.5 3.9 11.7 0 9.6-16 0-19.1-44.5-14.9-44.7-20.1-48-25-20.3-30.5-11.5-162.1-11.5-220.7 0-10.4 12.5-25 26.9-25h217.2c14.4 0 26.9 14.6 26.9 25 0 58.6 8.8 190.2-11.5 220.7-3.3 5.1-3.5 10.1-48 25-9.6 3.1-11.5 19.1 0 19.1 68.5 0 39.6-3.9 109.5-3.9 70.9 0 36.8 3.9 107.7 3.9z" />
  </svg>
