<svg height="1000" width="1250" xmlns="http://www.w3.org/2000/svg"><path d="M993 687.5h113.1V306.1L993 359.4v328.1zm143.9 -215.8v215.8H1250V471.7h-113.1zM647.3 454.3c-35.6 -35.5 -98.5 -33.4 -98.5 -33.4s-62.9 -2.1 -98.4 33.4c-3.7 3.7 -7.2 7.6 -10.4 11.7C365.4 408.2 298.4 375.2 240.6 346.7v-40.4L196.7 327C90.4 283.8 22.9 291.4 6.6 327.1c0 0 -48.6 64.1 120.9 216.7v-60.6C32.2 376.6 51.4 334.6 58.6 328.5c26.4 -22.3 73.2 -15.6 125.8 4.1l-57.1 26.8V483c25.6 28.7 59.6 61.5 104.5 98.4l8.8 7.1v-58.2c0 -13.5 3.3 -35.6 21.1 -35.6s20.7 13.5 20.7 29.3v95.1c35.2 23.9 72.9 43.2 112.7 57.9V493.6c0 -36.6 -26.2 -73.1 -79.3 -73.1 -30.8 -.2 -59.5 16 -75.2 42.8V357.2C322.5 398 404.5 448 435.7 471.1c-19.9 28.5 -18.1 54.9 -18.1 85.3 0 36.6 -2.8 67 32.8 102.6 35.5 35.5 98.4 33.4 98.4 33.4s63.1 2.1 98.5 -33.4c35.5 -35.6 32.6 -66 32.6 -102.6 0 -36.1 2.9 -66.8 -32.6 -102.1zm-77.6 140.4c0 7.1 -3.5 24.4 -20.9 24.4s-20.9 -17.3 -20.9 -24.4v-78.9c0 -17 14.3 -21.3 20.9 -21.3 6.7 0 20.9 4.1 20.9 21.3v78.9zM932.4 454.3C896.9 418.8 834 420.9 834 420.9s-63.1 -2.1 -98.5 33.4C700 489.8 702.7 520.5 702.7 557c0 36.6 -2.7 67 32.8 102.6C771.1 695.1 834 693 834 693s63.1 2.1 98.4 -33.4C968 624 965.2 593.6 965.2 557c-.2 -36.7 2.6 -67.4 -32.8 -102.7zm-77.7 140.4c0 7.1 -3.5 24.4 -20.9 24.4s-20.9 -17.3 -20.9 -24.4v-78.9c0 -17 14.2 -21.3 20.9 -21.3 6.6 0 20.9 4.1 20.9 21.3v78.9zm338.9 -142.6c31 0 56.4 -25.1 56.4 -56.4s-25.2 -47.8 -56.4 -47.8c-31.1 0 -56.5 16.7 -56.5 47.8s25.2 56.4 56.5 56.4zM282.2 687.5l74.8 1.6c-25.7 -9 -50.7 -20 -74.8 -32.8v31.2zm-41.8 0v-55.9c-12.7 -8.2 -25.4 -17 -37.9 -26.5 -28.9 -21.9 -53.7 -42.4 -75.2 -61.5v143.9h113.1zm116.6 1.6c71.3 24.4 136.6 27.7 185 14 -38.9 .4 -89.5 -5.1 -147.1 -26v10.4l-37.9 1.6z"/></svg>