
  <svg height="1000" width="1250.0" xmlns="http://www.w3.org/2000/svg">
    <path d="m282.2 687.5v-31.2c24 12.8 49 23.8 74.8 32.8z m112.7-10.4c57.6 20.9 108.2 26.4 147.1 26-48.4 13.7-113.7 10.4-185-14l37.9-1.6v-10.4z m798.7-225c-31.3 0-56.5-25.3-56.5-56.4 0-31.1 25.4-47.8 56.5-47.8 31.2 0 56.4 16.6 56.4 47.8s-25.4 56.4-56.4 56.4z m-56.7 235.4v-215.8h113.1v215.8h-113.1z m-143.9 0v-328.1l113.1-53.3v381.4h-113.1z m-60.6-233.2c35.4 35.3 32.6 66 32.8 102.7 0 36.6 2.8 67-32.8 102.6-35.3 35.5-98.4 33.4-98.4 33.4s-62.9 2.1-98.5-33.4c-35.5-35.6-32.8-66-32.8-102.6s-2.7-67.2 32.8-102.7c35.4-35.5 98.5-33.4 98.5-33.4s62.9-2.1 98.4 33.4z m-77.7 140.4v-78.9c0-17.2-14.3-21.3-20.9-21.3-6.7 0-20.9 4.3-20.9 21.3v78.9c0 7.1 3.5 24.4 20.9 24.4 17.4 0 20.9-17.3 20.9-24.4z m-207.4-140.4c35.5 35.3 32.6 66 32.6 102.1 0 36.6 2.9 67-32.6 102.6-35.4 35.5-98.5 33.4-98.5 33.4s-62.9 2.1-98.4-33.4c-35.6-35.6-32.8-66-32.8-102.6 0-30.4-1.8-56.8 18.1-85.3-31.2-23.1-113.2-73.1-195.1-113.9v106.1c15.6-26.8 44.4-43 75.2-42.8 53.1 0 79.3 36.5 79.3 73.1v183.4c-39.8-14.7-77.5-34-112.7-57.9v-95.1c0-15.8-2.9-29.3-20.7-29.3s-21.1 22.1-21.1 35.6v58.2l-8.8-7.1c-44.7-36.9-78.7-69.5-104.3-98.2v60.6c21.5 19.1 46.1 39.4 75 61.3 12.5 9.5 25.2 18.3 37.9 26.5v55.9h-113.1v-143.9c-169.3-152.4-120.7-216.5-120.7-216.5 16.3-35.7 83.8-43.3 190.1-0.1l43.9-20.8v40.5c57.8 28.5 124.8 61.5 199.4 119.3 3.2-4.1 6.7-8 10.4-11.7 35.5-35.5 98.4-33.4 98.4-33.4s62.9-2.1 98.5 33.4z m-520-94.9l57.1-26.8c-52.6-19.7-99.4-26.4-125.8-4.1-7.2 6.1-26.4 48.1 68.7 154.5v-123.6z m442.4 235.3v-78.9c0-17.2-14.2-21.3-20.9-21.3s-20.9 4.3-20.9 21.3v78.9c0 7.1 3.5 24.4 20.9 24.4s20.9-17.3 20.9-24.4z" />
  </svg>
