<svg height="1000" width="994.2" xmlns="http://www.w3.org/2000/svg"><path d="M147.2 723.2c4.2 31 -11.3 62.5 -40.9 76.8 -36.8 17.8 -81.1 2.3 -99 -34.6C-10.4 728.7 5.1 684.2 41.9 666.5c13.8 -6.6 28.6 -8.6 42.7 -6.6C-68.3 442.4 186.1 287.8 186.1 287.8c-11.4 84.1 -16.1 178 -16.1 178 -131.4 81 1.8 125.2 77.8 142.4 38.6 104.7 139 179.5 257.1 179.5 3.8 0 7.4 -.4 11.1 -.5l.2 36.8c-193.8 2.7 -309.9 -56.9 -369 -100.8zm211 -640c1.7 -13.7 -.2 -28 -6.7 -41.3C333.8 5.1 289.4 -10.4 252.6 7.3c-36.8 17.8 -52.3 62.2 -34.6 99 13.7 28.3 43.1 43.8 72.7 41.5C246.6 206.2 185.5 322.7 188.3 518.9l42.6 -.2c0 -1.8 -.2 -3.5 -.2 -5.3 0 -115.1 71 -213.5 171.5 -254.2C417.9 185.5 462.3 36 546.5 172.7c0 0 94 4.6 178.1 16.1 0 0 -152.1 -250.1 -366.4 -105.6zm594.1 262.1c36.8 -17.8 52.3 -62.2 34.5 -99C969.1 209.5 924.7 194 887.9 211.8 858 226.2 842.6 258 847.1 289.2 785.2 246.3 671.6 193.4 488.8 196l.3 43.9c5.3 -.3 10.5 -.8 15.9 -.8 115.8 0 214.6 71.9 254.8 173.4 76.4 17.6 205.2 61.6 75.2 141.6 0 0 -4.6 94 -16.1 178.1 0 0 260.7 -158.5 95.7 -380.1 12.5 1 25.5 -1 37.7 -6.8zM728.6 852c41.9 -63.4 90.7 -175.1 88.2 -350.9l-38.1 .3c.1 4 .5 8 .5 12 0 117.7 -74.3 217.9 -178.5 256.8 -17.2 76 -61.4 208.3 -142.1 77.1 0 0 -94 -4.6 -178.1 -16.1 0 0 156.1 256.6 374.8 99.6 .6 9.2 2.8 18.4 7.1 27.3 17.7 36.9 62.1 52.3 98.9 34.6 36.9 -17.8 52.4 -62.2 34.6 -99C783.1 867.1 756.3 851.9 728.6 852z"/></svg>