
  <svg height="1000" width="1000.0" xmlns="http://www.w3.org/2000/svg">
    <path d="m149.2 723.2c0.4 3.3 0.6 6.5 0.6 9.9 0 40.7-33.1 73.8-73.8 73.8-40.7 0-73.8-33.1-73.8-73.8s33.1-73.9 73.8-73.9c3.6 0 7.1 0.2 10.5 0.7-152.8-217.5 101.6-372.1 101.6-372.1-11.4 84-16.1 178-16.1 178-131.5 81.1 1.8 125.2 77.8 142.4 38.5 104.7 139.1 179.5 257.1 179.5 3.8 0 7.4-0.4 11.1-0.5l0.2 36.8c-193.8 2.7-310-56.9-369-100.8z m210.9-640c214.4-144.4 366.4 105.6 366.4 105.6-84-11.5-178.1-16.1-178.1-16.1-84.1-136.7-128.5 12.8-144.1 86.5-100.6 40.6-171.6 139.1-171.7 254.2 0 1.7 0.3 3.4 0.3 5.2l-42.6 0.3c-2.8-196.2 58.3-312.7 102.3-371.1-2 0.2-3.9 0.2-6 0.2-40.9 0-74.1-33.2-74.1-74.2s33.2-74.1 74.1-74.1c29.5 0 55 17.3 66.9 42.2 4.6 9.6 7.2 20.3 7.2 31.7 0 3.2-0.2 6.5-0.6 9.6z m594.1 262.1c-9.5 4.5-20 7.1-31.3 7.1-2.1 0-4.2-0.1-6.3-0.3 164.9 221.6-95.7 380.1-95.7 380.1 11.5-84.1 16-178.1 16-178.1 130.1-80 1.3-124.1-75.1-141.6-40.1-101.6-139.1-173.4-254.8-173.4-5.4 0-10.7 0.5-15.9 0.8l-0.3-43.9c182.8-2.6 296.3 50.3 358.3 93.2-0.5-3.6-0.8-7.2-0.8-10.9 0-40.9 33.3-74.1 74.2-74.1 40.8 0 74.1 33.2 74.1 74.1 0 29.5-17.4 55-42.4 67z m-223.6 506.7v0.1c0.2 0 0.5 0.1 0.7 0.1 40.9 0 74.1 33.2 74.1 74.1 0 40.9-33.2 74.1-74.1 74.1-29.5 0-55-17.3-66.9-42.2-4-8.3-6.5-17.7-7.1-27.4-218.7 157-374.8-99.6-374.8-99.6 84.1 11.5 178.1 16.1 178.1 16.1 80.7 131.2 124.8-1.1 142.1-77.1 104.2-38.8 178.4-139.1 178.5-256.8 0-4-0.4-8-0.6-12l38.2-0.3c2.5 175.8-46.4 287.5-88.2 350.9z" />
  </svg>
