<svg height="1000" width="1000" xmlns="http://www.w3.org/2000/svg"><path d="M522.3 413.3C473.2 459.6 442.6 525.2 442.6 598c0 57.3 18.9 110 50.8 152.4l-96.7 97.3c-8.6 -3.2 -17.8 -4.9 -27.4 -4.9 -21.1 0 -40.8 8.2 -55.6 23 -14.9 14.9 -23.1 34.8 -23.1 55.9s8.2 40.8 23.1 55.6c14.8 14.9 34.7 22.7 55.6 22.7 21.1 0 40.9 -7.6 55.9 -22.7 14.8 -14.8 23 -34.7 23 -55.6 0 -8.2 -1.1 -16 -3.7 -23.7l97.7 -98c43 33 96.5 52.5 154.9 52.5C837.5 852.5 951 738.7 951 598.2 951 470.9 857.8 365.4 735.7 346.9V226.6c34.2 -14.5 55.1 -46.5 55.1 -83.8C790.8 91.8 750 49.2 699 49.2s-91.2 42.6 -91.2 93.6c0 37.3 20.9 69.3 55.1 83.8v119.5c-29.7 4.1 -57.8 13.1 -83.4 26.6C525.6 331.8 350 205.3 249.6 128.9c2.4 -8.6 3.9 -17.6 3.9 -26.9C253.5 45.7 207.6 0 151.2 0 94.9 0 49.2 45.7 49.2 102c0 56.4 45.7 102.1 102 102.1 19.1 0 36.9 -5.7 52.3 -14.8l318.8 224zm174.8 319.5C622.7 732.8 562.3 672.5 562.3 598S622.7 463.3 697.1 463.3 831.8 523.6 831.8 598 771.5 732.8 697.1 732.8z"/></svg>