
  <svg height="1000" width="1125.0" xmlns="http://www.w3.org/2000/svg">
    <path d="m245.3 323.2c52.9 0 95.8 42.9 95.9 95.8v0c0 52.9-43 95.9-95.9 95.9-52.9 0-95.8-43-95.8-95.9 0-52.9 42.9-95.8 95.8-95.8h0z m-77 508.5v-274.4h154.1v274.4h-154.1z m295.8-413.3c0 40-17.6 45.5-36.6 45.5h-27.5v-89.5h27.5c17.1 0 36.6 5 36.6 44z m393.9 89.9h111.5c-3.5 192.3-101.8 323.5-384.2 323.5h-185.2v-323.5h27.3c50.8 0 81.1-33.6 81.1-89.8 0-54.5-31.1-88.4-81.1-88.4h-27.3v-161.8h185.2c173.7 0 364.9 52.6 382.9 295.6h-65.8v-134h-44.4v178.4z m-214.3 0l-0.1-44.4h-65.5v-24.4h58.6v-44.4h-58.6v-20.6h62v-44.4h-106.3v178.2h109.9z m145.8 0l46.2 0-53.8-178.4h-63.1l-53.8 178.4h46.2l10.1-34.5h58.1z m-204.2-445.8c426.4 0 490.1 273.4 490.2 436.5 0 282.8-174.1 438.5-490.2 438.5h-522.8v-875h522.8z m0 833.8c290.8 0 449-135.4 449-397.3 0-269.2-171.5-395.3-449-395.3h-481.6v792.6h481.6z m163.7-517.3h2.7l14.7 50.5h-32z" />
  </svg>
