
  <svg height="1000" width="875.0" xmlns="http://www.w3.org/2000/svg">
    <path d="m781.3 62.5c51.7 0 93.7 42 93.7 93.8v687.5c0 51.7-42 93.7-93.7 93.7h-687.5c-51.8 0-93.8-42-93.8-93.7v-687.5c0-51.8 42-93.8 93.8-93.8h687.5z m-739.7 385.2h-0.6c0.2-0.2 0.4-0.6 0.6-0.8v0.8z m147.9 176.9v-249.6h-64.5v249.6h64.5z m221 0v-249.6h-83.9l-14.9 117c-5.3-39.1-10.5-78.3-17-117h-83.6v249.6h56.7v-165l23.8 165h40.2l22.7-168.7v168.7h56z m22.3 0c168.2 0.2 146.5 11.7 146.5-161.1 0-15.8 0.6-32.8-2.7-47.7-8.4-43.9-61.4-40.8-95.7-40.8h-48.1v249.6z m314.3-57v-70.3c0-33.8-1.6-58.8-43.4-58.8-17.4 0-29.1 5.3-40.8 17.9v-81.4h-61.9v249.6h58.2l3.7-15.8c11.1 13.3 23.2 19.1 40.8 19.1 38.7 0 43.4-29.7 43.4-60.3z m-229.5-118.6v96.3c0 19 3.7 36.5-20.1 35.9v-163.4c23.2 0 20.1 12.3 20.1 31.2z m167 51v63.9c0 10.5 3.1 28.1-12.1 28.1-3.2 0-5.9-1.6-7.5-4.7-4.3-10-2.1-86.1-2.1-87.3 0-7.4-2.2-24.8 9.6-24.8 14.2 0 12.1 14.3 12.1 24.8z" />
  </svg>
