
  <svg height="1000" width="875.0" xmlns="http://www.w3.org/2000/svg">
    <path d="m437.5 395.8c57.5 0 104.2 46.7 104.2 104.2 0 57.5-46.7 104.2-104.2 104.2s-104.1-46.7-104.1-104.2c0-57.5 46.6-104.2 104.1-104.2z m243.6-80.1c16.3 41.2 12.6 138.8 12.6 184.3s3.8 143.2-12.5 184.2c-10.8 27.2-32.3 48.7-59.4 59.4-41.2 16.4-138.7 12.6-184.2 12.6s-143.2 3.6-184.2-12.6c-27.2-10.7-48.7-32.2-59.4-59.4-16.3-41.1-12.7-138.8-12.7-184.2 0-45.5-3.6-143.2 12.6-184.3 10.7-27.1 32.3-48.6 59.4-59.4 41.1-16.3 138.7-12.5 184.2-12.5s143.2-3.6 184.2 12.5c27.1 10.8 48.7 32.3 59.4 59.4z m-243.6 344.5c0.1 0 0.1 0 0.2 0 88.3 0 160-71.7 160-160v-0.2c0-88.4-71.8-160.2-160.2-160.2s-160.2 71.8-160.2 160.2 71.8 160.2 160.2 160.2z m166.8-289.7c20.5 0 37.3-16.6 37.3-37.2v-0.2c0-20.6-16.7-37.4-37.4-37.4-20.6 0-37.3 16.8-37.3 37.4 0 20.7 16.7 37.4 37.3 37.4h0.1z m177-308c51.7 0 93.7 42 93.7 93.8v687.5c0 51.7-42 93.7-93.7 93.7h-687.5c-51.8 0-93.8-42-93.8-93.7v-687.5c0-51.8 42-93.8 93.8-93.8h687.5z m-33.5 566.4c2.9-51.6 2.9-206.2 0-257.6-2.4-50-14-94.4-50.5-130.9-36.4-36.6-80.8-48-130.8-50.5-51.6-2.9-206.3-2.9-257.8 0-49.9 2.4-94.2 13.9-130.9 50.3-36.7 36.5-48 80.8-50.5 130.9-2.9 51.5-2.9 206.2 0 257.8 2.4 50 13.9 94.3 50.5 130.9 36.6 36.5 80.8 47.9 130.9 50.5 51.5 2.9 206.2 2.9 257.8 0 50-2.4 94.3-14.1 130.8-50.5s48-80.8 50.5-130.9z" />
  </svg>
