<svg height="1000" width="875" xmlns="http://www.w3.org/2000/svg"><path d="M437.7 275.4c-124.2 0 -224.4 100.2 -224.4 224.4s100.2 224.4 224.4 224.4S662.1 624 662.1 499.8 561.9 275.4 437.7 275.4zm0 370.3c-80.3 0 -145.9 -65.4 -145.9 -145.9S357.2 353.9 437.7 353.9s145.9 65.4 145.9 145.9S518 645.7 437.7 645.7zM723.6 266.2c0 29.1 -23.4 52.4 -52.3 52.4 -29.1 0 -52.4 -23.5 -52.4 -52.4s23.5 -52.3 52.4 -52.3 52.3 23.4 52.3 52.3zm148.7 53.1C868.9 249.2 852.9 187.1 801.6 135.9 750.4 84.8 688.3 68.7 618.2 65.2 545.9 61.1 329.3 61.1 257 65.2 187.1 68.6 125 84.6 73.6 135.7S6.4 249 2.9 319.1c-4.1 72.3 -4.1 288.9 0 361.2 3.4 70.1 19.4 132.2 70.7 183.4s113.3 67.2 183.4 70.7c72.3 4.1 288.9 4.1 361.2 0 70.1 -3.3 132.2 -19.4 183.4 -70.7 51.1 -51.2 67.2 -113.3 70.7 -183.4 4.1 -72.3 4.1 -288.7 0 -361zm-93.4 438.5c-15.2 38.3 -44.7 67.8 -83.2 83.2 -57.6 22.9 -194.3 17.6 -258 17.6s-200.6 5.1 -258 -17.6C141.4 825.8 111.9 796.3 96.5 757.8 73.6 700.2 78.9 563.5 78.9 499.8s-5.1 -200.6 17.6 -258c15.2 -38.3 44.7 -67.8 83.2 -83.2C237.3 135.7 374 141 437.7 141s200.6 -5.1 258 17.6c38.3 15.2 67.8 44.7 83.2 83.2 22.9 57.6 17.6 194.3 17.6 258s5.3 200.6 -17.6 258z"/></svg>