
  <svg height="1000" width="875.0" xmlns="http://www.w3.org/2000/svg">
    <path d="m437.7 275.4c124.2 0 224.4 100.2 224.4 224.4 0 124.2-100.2 224.4-224.4 224.4-124.2 0-224.4-100.2-224.4-224.4 0-124.2 100.2-224.4 224.4-224.4z m0 370.3c80.3 0 145.9-65.4 145.9-145.9 0-80.5-65.4-145.9-145.9-145.9-80.5 0-145.9 65.4-145.9 145.9 0 80.5 65.6 145.9 145.9 145.9z m285.9-379.5c0 29.1-23.4 52.4-52.3 52.4-29.1 0-52.4-23.5-52.4-52.4s23.5-52.3 52.4-52.3 52.3 23.4 52.3 52.3z m148.7 53.1c4.1 72.3 4.1 288.7 0 361-3.5 70.1-19.6 132.2-70.7 183.4-51.2 51.3-113.3 67.4-183.4 70.7-72.3 4.1-288.9 4.1-361.2 0-70.1-3.5-132-19.6-183.4-70.7s-67.3-113.3-70.7-183.4c-4.1-72.3-4.1-288.9 0-361.2 3.5-70.1 19.4-132.2 70.7-183.4s113.5-67.1 183.4-70.5c72.3-4.1 288.9-4.1 361.2 0 70.1 3.6 132.2 19.6 183.4 70.7 51.3 51.2 67.3 113.3 70.7 183.4z m-93.4 438.5c22.9-57.4 17.6-194.3 17.6-258 0-63.7 5.3-200.4-17.6-258-15.4-38.5-44.9-68-83.2-83.2-57.4-22.7-194.3-17.6-258-17.6-63.7 0-200.4-5.3-258 17.6-38.5 15.4-68 44.9-83.2 83.2-22.7 57.4-17.6 194.3-17.6 258 0 63.7-5.3 200.4 17.6 258 15.4 38.5 44.9 68 83.2 83.2 57.4 22.7 194.3 17.6 258 17.6 63.7 0 200.4 5.3 258-17.6 38.5-15.4 68-44.9 83.2-83.2z" />
  </svg>
