
  <svg height="1000" width="875.0" xmlns="http://www.w3.org/2000/svg">
    <path d="m765.6 62.5c60.4 0 109.4 49 109.4 109.4v656.2c0 60.4-49 109.4-109.4 109.4h-656.2c-60.4 0-109.4-49-109.4-109.4v-656.2c0-60.4 49-109.4 109.4-109.4h656.2z m-211.5 160.4v389.6c0 38.7 58.4 38.7 58.4 0v-389.6c0-38.7-58.4-38.7-58.4 0z m-145.7-14.7v422.9c0 38.6 58.4 38.6 58.4 0v-422.9c0-38.7-58.4-38.7-58.4 0z m-145.9 14.7v389.6c0 38.7 58.4 38.7 58.4 0v-389.6c0-38.7-58.4-38.7-58.4 0z m-145.9 58.4v262.3c0 38.6 58.4 38.6 58.4 0v-262.3c0-38.7-58.4-38.7-58.4 0z m631.6 444.9c29.1-25.2-8.7-69.6-37.8-44.4-123.5 105.3-416.8 108-545.6 0-29.3-25-67.1 19.4-37.8 44.4 149.2 127.7 479.1 123 621.2 0z m10.2-182.6v-262.3c0-38.7-58.4-38.7-58.4 0v262.3c0 38.6 58.4 38.6 58.4 0z" />
  </svg>
