<svg height="1000" width="1000" xmlns="http://www.w3.org/2000/svg"><path d="M943.5 311.9c21.2 -48 41.8 -118 41.8 -171.6C985.3 -1.7 829.8 -51.8 575.8 65 365.6 50.9 163.2 208.8 112.7 429.1 173 361 265.6 268.4 350.9 231.6c-106 94.3 -196.4 213.7 -265 338.2C45.4 643.8 0 763.6 0 853c0 192.6 181.4 169 352.1 82.1 61.3 30.1 130 30.4 198.6 30.4 189.7 0 359.8 -106.1 423.4 -285.2h-236C635.6 853.3 353.7 783.8 353.7 587.6h642.2c12.5 -85.1 -3.2 -186.9 -52.4 -275.7zM126.1 677.5c34.6 99.9 104.9 187.2 195.8 240.8C148.6 1013.9 -16.5 975.2 126.1 677.5zM352.6 464.9c3.9 -107.8 98.2 -185.3 203.1 -185.3 104.3 0 199.2 77.5 203.1 185.3H352.6zM713 98.4c41.9 -20 94.9 -42.9 141.7 -42.9 61.4 0 106.1 42.4 106.1 104.9 0 39.1 -14.6 95.7 -28.5 132.5C881 210.3 803.4 133.6 713 98.4z"/></svg>