
  <svg height="1000" width="1000.0" xmlns="http://www.w3.org/2000/svg">
    <path d="m943.5 311.9c49.2 88.8 64.9 190.6 52.4 275.7h-642.2c0 196.2 281.9 265.7 384.4 92.7h236c-63.6 179.1-233.7 285.2-423.4 285.2-68.6 0-137.3-0.3-198.6-30.4-170.7 86.9-352.1 110.4-352.1-82.1 0-89.4 45.4-209.2 85.9-283.2 68.6-124.5 159-243.9 265-338.2-85.3 36.8-177.9 129.4-238.2 197.5 50.5-220.3 252.9-378.2 463.1-364.1 254-116.8 409.5-66.7 409.5 75.3 0 53.6-20.6 123.6-41.8 171.6z m-817.4 365.6c-142.6 297.7 22.5 336.4 195.8 240.8-90.9-53.6-161.2-140.9-195.8-240.8z m226.5-212.6h406.2c-3.9-107.8-98.8-185.3-203.1-185.3-104.9 0-199.2 77.5-203.1 185.3z m360.4-366.5c90.4 35.2 168 111.9 219.3 194.5 13.9-36.8 28.5-93.4 28.5-132.5 0-62.5-44.7-104.9-106.1-104.9-46.8 0-99.8 22.9-141.7 42.9z" />
  </svg>
