
  <svg height="1000" width="875.0" xmlns="http://www.w3.org/2000/svg">
    <path d="m795.7 62.5c43.8 0 79.3 35.5 79.3 79.3v716.4c0 43.8-35.5 79.3-79.3 79.3h-716.4c-43.8 0-79.3-35.5-79.3-79.3v-716.4c0-43.8 35.5-79.3 79.3-79.3h716.4z m-451.8 221.9c-1.1-68.6-104.6-68-104.8 0.8 0 29.3 23.8 52.7 52.9 52.7 8.2-0.2 52.7-7.8 51.9-53.5z m306.1 451.9c46.5 0 83.4-29.9 103.9-101.5l-35-13.1c-27.9 77.1-62.1 63.3-62.1 33 0.6-15.8 1.4-15.1 29.1-114.9 51-167.5-119.7-221.6-198.8-74.2l17.4-79.1h-134.4l-18.9 69.6h63.1l-38.7 155c-32.2 71.7-112.1 86.2-112.1 45.3 0.6-22-1.4-8.7 64.2-269.9h-149.2l-18.9 69.6h62.1c-43.2 175.9-44.7 175.3-44.9 203.3 0 95.1 123.2 109.5 184.7 8.4l-15.8 63.5h88.1l50.4-201.8c28.7-116.6 144.5-92 117-1.4-17.8 63.7-79.3 208.2 48.8 208.2z" />
  </svg>
