
  <svg height="1000" width="1250.0" xmlns="http://www.w3.org/2000/svg">
    <path d="m1203.1 312.5c26 0 46.9 20.9 46.9 46.9 0 25.8-20.9 46.9-46.9 46.9h-102.9c6.1 30.2 9.2 61.7 9.2 93.7 0 267.6-216.8 484.4-484.4 484.4-201 0-373.4-122.5-446.7-296.9h-131.4c-26 0-46.9-20.9-46.9-46.9 0-25.8 20.9-46.8 46.9-46.8h102.9c-6.1-30.3-9.2-61.8-9.2-93.8 0-267.6 216.8-484.4 484.4-484.4 201 0 373.4 122.5 446.7 296.9h131.4z m-187.5 187.5c0-32.4-3.9-63.7-11.3-93.7h-582.4c-26 0-46.9-20.9-46.9-46.9 0-25.8 20.9-46.9 46.9-46.9h545.9c-66.2-121.1-194.9-203.1-342.8-203.1-215.8 0-390.6 174.8-390.6 390.6 0 32.4 3.9 63.7 11.3 93.8h582.4c26 0 46.9 20.8 46.9 46.8 0 25.8-20.9 46.9-46.9 46.9h-545.9c66.2 121.1 194.9 203.1 342.8 203.1 215.8 0 390.6-174.8 390.6-390.6z m-593.7-46.9h406.2c26 0 46.9 20.9 46.9 46.9 0 25.8-20.9 46.9-46.9 46.9h-406.2c-26 0-46.9-20.9-46.9-46.9 0-25.8 20.9-46.9 46.9-46.9z" />
  </svg>
