<svg height="1000" width="1250" xmlns="http://www.w3.org/2000/svg"><path d="M1203.1 312.5h-131.4C998.4 138.1 826 15.6 625 15.6 357.4 15.6 140.6 232.4 140.6 500c0 32 3.2 63.5 9.2 93.8H46.9c-26 0 -46.9 21 -46.9 46.8 0 26 20.9 46.9 46.9 46.9h131.4C251.6 861.9 424 984.4 625 984.4c267.6 0 484.4 -216.8 484.4 -484.4 0 -32 -3.1 -63.5 -9.2 -93.7h102.9c26 0 46.9 -21.1 46.9 -46.9 0 -26 -20.9 -46.9 -46.9 -46.9zM1015.6 500c0 215.8 -174.8 390.6 -390.6 390.6 -147.9 0 -276.6 -82 -342.8 -203.1h545.9c26 0 46.9 -21.1 46.9 -46.9 0 -26 -20.9 -46.8 -46.9 -46.8H245.7C238.3 563.7 234.4 532.4 234.4 500 234.4 284.2 409.2 109.4 625 109.4c147.9 0 276.6 82 342.8 203.1H421.9c-26 0 -46.9 21.1 -46.9 46.9 0 26 20.9 46.9 46.9 46.9h582.4c7.4 30 11.3 61.3 11.3 93.7zM421.9 453.1h406.2c26 0 46.9 20.9 46.9 46.9 0 25.8 -20.9 46.9 -46.9 46.9H421.9C395.9 546.9 375 526 375 500c0 -25.8 20.9 -46.9 46.9 -46.9z"/></svg>