
  <svg height="1000" width="1000.0" xmlns="http://www.w3.org/2000/svg">
    <path d="m140.5 67.9c37.5-3.3 223.2-5.4 359.5-5.4s227.7 0.8 359.4 5.3c42.4 25.3 126 121.3 126.8 146.5v41.7c0 52.8-49.3 99.3-94.3 99.3-53.8 0-98.7-44.7-98.7-97.7 0 53.1-43.4 97.7-97.2 97.7s-95.7-44.7-95.7-97.7c0 53.1-46 97.7-99.9 97.7h-1c-53.8 0-99.9-44.7-99.9-97.7 0 53.1-41.8 97.7-95.7 97.7s-97.2-44.7-97.2-97.7c0 53.1-44.8 97.7-98.7 97.7-44.8 0-94.2-46.5-94.2-99.3v-41.7c0.8-25.2 84.3-121.2 126.8-146.4z m258.4 262.5c19.4 33.9 55.8 56.6 97.6 56.6 1.2 0 2.3 0 3.5-0.1 56.1 0 87.3-32.1 101.1-56.5 43 74.9 152.1 75.7 195.1 0.5 25.6 45 84.1 62.7 109.3 54 7 72.6 27.2 462.7-34.6 525.7-151.8 35.4-585.5 36.4-741.8 0-61.3-62.6-42.1-447.3-34.6-525.7 25.1 8.6 83.7-8.8 109.4-54 42.9 75.1 152 74.5 195-0.5z m-81.2 105l0 0.1c-102.2 0-127.4 151.3-163.9 282.2-33.7 121.4 10.8 124.3 66.3 124.4 82.3-3 127.9-62.8 127.9-122.6 104.8 17.2 227.2 12.6 303.8 0 0 59.8 45.6 119.6 127.9 122.6 55.6-0.1 100.1-3 66.4-124.4-36.5-130.7-61.6-282.2-163.9-282.2-32.1 0-60.7 0-96.1 38.5-28.6-2.9-55.9-4.3-85.3-4.3-29.4 0-58.4 1.4-87 4.3-35.4-38.6-63.9-38.6-96.1-38.6z m182.3 93.5l-0.1 0s86.6 79.6 102.2 107.9l-56.6-2.3v49.4c0 2.3-22.8 1.4-45.5 0.3-3.9 0-45.6 2.7-45.6-0.3v-49.5l-56.6 2.3c15.5-28.2 102.2-107.8 102.2-107.8z" />
  </svg>
