<svg height="1000" width="875" xmlns="http://www.w3.org/2000/svg"><path d="M436.7 156.8C252 156.8 102.5 306.6 102.5 491.2S252 825.8 436.7 825.8 771.1 676 771.1 491.4C771.1 306.6 621.3 156.8 436.7 156.8zm155.1 468.8c-6.3 26.5 -26.4 41.4 -53.3 46.5 -23.7 4.3 -43.4 5.4 -62.3 -9.8 -23.1 -19.5 -23.5 -51.6 -2.8 -71.9 16.4 -15.6 39.7 -18.7 74.3 -25 5.8 -.9 10.9 -2.3 15 -7.2 6.2 -7 4.3 -3.9 4.3 -157.8 0 -10.9 -5.3 -13.9 -16.4 -11.9 -7.8 1.3 -179.5 33.4 -179.5 33.4C361.3 424 358 427 358 438.1c0 226.7 1 216.4 -2.3 231.4 -4.1 17.6 -14.9 30.9 -29.1 38.3 -16.2 9 -45.7 12.9 -61.4 10.2 -41.8 -7.8 -56.4 -56.1 -28.1 -83.8 16.4 -15.6 39.7 -18.8 74.2 -25 5.9 -1 11 -2.4 15.1 -7.2 9.7 -11.2 1.7 -248.1 5 -261.2 .8 -5.1 3 -9.4 6.9 -12.5 4.1 -3.3 11.3 -5.3 13.1 -5.3 197.2 -37.1 221.3 -41.7 224.8 -41.7 11.1 -.8 17.6 5.8 17.6 16.9 -.2 333.2 .7 315.3 -2 327.4zM674.2 62.5H200.8C89.6 62.5 0 152.1 0 263.3v473.4c0 111.2 89.6 200.8 200.8 200.8h473.4C785.5 937.5 875 847.9 875 736.7V263.3C875 152.1 785.4 62.5 674.2 62.5zM436.7 867.2c-207.6 0 -376 -168.4 -376 -376s168.4 -376 376 -376 376 168.4 376 376 -168.4 376 -376 376z"/></svg>