
  <svg height="1000" width="750.0" xmlns="http://www.w3.org/2000/svg">
    <path d="m745.9 758.2c-12.5 53.5-53.1 83.6-107.6 93.8-47.9 8.7-87.7 10.9-126-20-46.7-39.2-47.3-104.3-5.3-145.3 33.2-31.6 79.9-38.1 150-50.4 11.8-2.1 21.9-4.9 30.5-14.4 12.5-14.1 8.6-8 8.6-318.8 0-21.8-10.7-27.9-33.2-24-16 2.7-362.7 67.6-362.7 67.6-19.9 4.3-26.2 10.1-26.2 32.6 0 458.4 2.2 437.3-4.9 467.8-8.2 35.5-30 62.3-58.9 77.1-32.9 18.2-92.2 26.2-123.9 20.3-84.3-15.8-114-113.3-56.8-169.1 33.2-31.7 79.9-38.1 150-50.4 11.7-2.1 21.9-4.9 30.5-14.5 19.7-22.4 3.5-501.1 10.1-527.7 1.6-10.1 5.9-18.7 13.9-25.2 8.2-6.8 23-10.7 26.2-10.7 398.4-74.6 447-84.2 453.9-84.2 22.4-1.6 35.3 11.7 35.3 34.4 0.4 672.8 2.2 636.7-3.5 661.1z" />
  </svg>
