<svg height="1000" width="737.5" xmlns="http://www.w3.org/2000/svg"><path d="M237.5 773.4s-38.3 22.3 27.1 29.7c79.3 9 119.8 7.8 207.1 -8.8 0 0 23 14.5 55.1 27 -195.7 83.8 -443 -4.9 -289.3 -47.9M213.7 663.9s-42.8 31.6 22.6 38.4c84.6 8.8 151.6 9.4 267.2 -12.8 0 0 16 16.2 41.2 25 -236.9 69.3 -500.6 5.6 -331 -50.6M415.2 478.1c48.3 55.5 -12.7 105.5 -12.7 105.5S525 520.3 468.8 441.2C416.2 367.4 376 330.7 593.9 204.3c.2 0 -342.1 85.5 -178.7 273.8m259 376.2s28.3 23.2 -31 41.4c-113.1 34.2 -470.3 44.5 -569.6 1.4C37.9 881.6 104.9 860 126 855.5c21.9 -4.7 34.5 -3.9 34.5 -3.9 -39.6 -28 -256.4 54.8 -110.1 78.5C449.2 994.9 777.7 901 674.2 854.3M255.9 550.4S74 593.6 191.4 609.2c49.6 6.6 148.4 5.1 240.4 -2.6 75.2 -6.2 150.8 -19.9 150.8 -19.9s-26.5 11.3 -45.7 24.4c-184.6 48.7 -541 26 -438.5 -23.6 87 -41.8 157.5 -37.1 157.5 -37.1M582 732.6C769.7 635.2 682.8 541.4 622.3 554.1c-14.9 3.1 -21.5 5.9 -21.5 5.9s5.5 -8.6 16 -12.3c119.7 -42.2 211.9 124.2 -38.7 190 0 -.2 3 -2.7 3.9 -5.1M468.8 0s103.9 103.9 -98.7 263.7C207.8 391.8 333 465 370.1 548.4 275.4 462.9 205.9 387.7 252.5 317.6 321.1 215 510.7 165 468.8 0M274.4 996.9c180.1 11.5 456.7 -6.5 463.1 -91.6 0 0 -12.5 32.2 -148.8 58C435 992.2 245.3 988.9 133 970.3c0 -.2 23.1 19 141.4 26.6"/></svg>