
  <svg height="1000" width="750.0" xmlns="http://www.w3.org/2000/svg">
    <path d="m542.5 611.1c-184.6 48.7-541.1 26-438.5-23.6 86.9-41.8 157.4-37.1 157.4-37.1s-181.8 43.2-64.4 58.8c49.6 6.6 148.4 5.1 240.4-2.6 75.2-6.2 150.8-19.9 150.8-19.9s-26.6 11.3-45.7 24.4z m-166.8-62.7c-94.8-85.5-164.3-160.7-117.6-230.8 68.5-102.6 258.2-152.6 216.2-317.6 0 0 103.8 103.9-98.6 263.7-162.3 128.1-37.1 201.3 0 284.7z m223.8-344.1c-218 126.4-177.7 163.1-125.2 236.9 56.2 79.1-66.2 142.4-66.2 142.4s60.9-50 12.7-105.5c-163.5-188.3 178.9-273.8 178.7-273.8z m-11.9 528.3c187.7-97.4 100.8-191.2 40.2-178.5-7.3 1.4-14.6 3.4-21.5 5.9 4-5.6 9.5-9.9 16-12.3 119.8-42.2 212 124.2-38.6 190 1.5-1.5 2.8-3.2 3.9-5.1z m92.1 121.7c103.5 46.7-224.9 140.6-623.8 75.8-146.3-23.7 70.5-106.5 110.1-78.5 0 0-12.7-0.8-34.6 3.9-21 4.5-88 26.1-52.3 41.6 99.2 43.1 456.4 32.8 569.5-1.4 59.4-18.2 31.1-41.4 31.1-41.4z m-436.7-80.9c0 0-38.2 22.3 27.2 29.7 79.3 9 119.7 7.8 207-8.8 17.4 10.5 36 19.6 55.1 27-195.7 83.8-443-4.9-289.3-47.9z m351.2 189.9c136.3-25.8 148.8-58 148.8-58-6.4 85.1-283 103.1-463 91.6-118.4-7.6-141.4-26.8-141.4-26.6 112.3 18.6 301.9 21.9 455.6-7z m-85.1-273.8c11.7 10.9 25.7 19.5 41.2 25-236.9 69.3-500.6 5.6-331.1-50.6 0 0-42.8 31.6 22.7 38.4 84.5 8.8 151.5 9.4 267.2-12.8z" />
  </svg>
