
  <svg height="1000" width="875.0" xmlns="http://www.w3.org/2000/svg">
    <path d="m778.3 729.7c0 0 51.4-31.7 97.5-151.8 0 0-33.2 358-433.6 362.7h-8c-400.6-4.7-433.6-362.7-433.6-362.7 45.3 120.3 96.5 151.8 96.5 151.8-187.3-238.5-33.6-455.3-33.6-455.3-88.7 167.4 80.8 333 80.8 333-205-335.1 118.2-530.3 118.2-530.3-189.3 141.8 19.7 372.5 19.7 372.5-167.6 309.4 134 449.4 134 449.4s0.8-33 4.3-167.4l-67.4 70.7 47.3-92.5-122.3-17.8 122.3-17.8-39.5-108.4 61.4 89.7c4.5-171.7 15.4-597.5 15.4-599.4v-4.7 1.9-1.9 4.7c0.2 3.5 11.1 428.1 15.4 599.4l61.4-89.7-39.5 108.4 122.3 17.8-122.3 17.8 47.3 92.5s-59-61.9-67.4-70.7c3.5 134.4 4.3 167.4 4.3 167.4s301.5-140 134-449.4c0 0 208.9-230.5 19.7-372.5 0 0 323.2 195.4 118.2 530.3 0 0 169.5-165.4 80.8-333 0 0 153.7 216.8-33.6 455.3z" />
  </svg>
