<svg height="1000" width="875" xmlns="http://www.w3.org/2000/svg"><path d="M452.9 655.7l61.4 -89.6 -39.4 108.4 122.2 17.7L474.9 710l47.3 92.6s-59 -62.1 -67.4 -70.8c3.5 134.3 4.3 167.4 4.3 167.4s301.6 -140 134 -449.4c0 0 209 -230.6 19.8 -372.5 0 0 323.2 195.1 118.2 530.2 0 0 169.5 -165.6 80.8 -333.1 0 0 153.7 216.8 -33.5 455.3 0 0 51.2 -31.6 96.6 -151.8 0 0 -33.1 357.9 -433.5 362.6h-8C33.1 935.8 0 577.9 0 577.9c45.3 120.2 96.6 151.8 96.6 151.8C-90.7 491.2 63.1 274.4 63.1 274.4c-88.7 167.5 80.8 333.1 80.8 333.1C-61.1 272.4 262.1 77.3 262.1 77.3c-189.2 141.9 19.7 372.5 19.7 372.5C114.3 759.2 415.9 899.2 415.9 899.2s.8 -33.1 4.2 -167.4l-67.3 70.8L400.1 710 277.9 692.2l122.2 -17.7L360.7 566.1l61.4 89.6C426.5 484.1 437.4 58.4 437.4 56.4v-4.8l.1 2v-2l.1 4.8c.1 3.3 10.9 428.1 15.3 599.3z"/></svg>