<svg height="1000" width="1000" xmlns="http://www.w3.org/2000/svg"><path d="M951.4 830.1C948.6 808.2 914.3 785 896.3 767.8c-10 -9.8 -56.7 -45.1 -59.4 -58.4 -2.7 -12.9 19 -42 26 -56.5 10 -20.9 17.2 -46.3 22.1 -63.6C921.7 460.2 925.4 282.8 872.9 176.8 852.9 136.5 797.5 81.1 762.7 54.7c-82 -61.9 -233.6 -69 -332.2 -32.4 -27.6 10.1 -54.3 19.1 -78.4 33.4C287.5 93.6 218.8 119.1 199.6 195.5c-47.3 21.1 -61.5 81.6 -59.2 152 .4 13.6 8 30.8 5.3 43.7 -1.4 6.5 -10.2 14.9 -11.9 19.2 -22.7 54.1 -4.5 125 21.7 163.4 15.8 23.3 42 43.8 76.5 49.2 1.4 20.8 6.5 38.5 16 59.4 6.1 13.3 28.8 37.1 20.4 54.1 -4.3 8.6 -41.1 27 -53.4 34.4 -41.2 24.4 -71.1 39.6 -109.1 67 -24.6 17.6 -63.1 19.9 -57.1 60.7 4.1 27.6 19.8 61.8 28.7 89.5 1.4 3.9 2.8 8 4.1 11.7h824.3c9.5 -29.9 18.9 -60.3 28.5 -92.2 6.6 -22.2 19.9 -54.3 17 -77.5zM402.1 65.8c3.6 -1 6.7 1.4 9.6 4.7 -.4 10.2 -10.5 10 -17.4 13.3 -10.5 13.1 -26.1 19.1 -39 33.6C342 132 327.1 171.5 309.6 176c-8.8 2.1 -19 -1.6 -26.6 -1 -20.3 1.4 -34.6 11.7 -55.3 14.6C254.3 131.2 337.3 84.2 402.1 65.8zM197.5 248.6c26.3 -29.1 62.7 -47 107 -50.6 22.8 58.1 -16.4 127 -1.8 190.7 4.5 19.3 20 49.6 -4.7 50.2 .6 -55.3 -67.9 -90.5 -119.7 -57.8 -3.5 -42 -9.5 -101 19.2 -132.5zm71.6 391c-1.9 -8 -5.2 -25.1 -4.5 -29.4 3.2 -17 33.4 -24.5 21.5 -48.3 -22 -.2 -26.9 19.9 -47 22.1C186.9 589.1 150 514.8 152.3 469.9c2 -38.1 34.4 -74.6 78.4 -69.9 31.2 3.5 41.8 37.5 47.8 67.8 18 1 44 -.8 52.6 -14.9C329.9 418.8 313.9 391.2 315 359.8c2 -59.2 34.2 -112.5 9.4 -170.7C351 128.7 428.9 81.1 486.7 52.3c71.5 -35.7 185.4 -7.2 252.6 30.9 38.4 21.7 67.1 63.9 94.3 99 -38.1 -11.3 -70.5 8.2 -64.7 39.7 31.9 -29.1 86.4 -.4 102.6 32 15.4 30.9 15.2 76.8 17.6 122.7 5.6 111.3 -20.3 226.3 -76.4 306.8 -15 21.5 -27.5 44.9 -48.6 59.8 -50.8 35.5 -127.8 67.7 -193.8 45.7C483 759.6 443.4 701.4 395.5 635c1.4 36.5 27 66.6 52.4 94.5 22 24.4 48.8 51.9 77.5 63.3 -24 -5.7 -60.8 -7.4 -70.7 14 -55.9 -3.7 -107.6 -9.3 -134.2 -47.2 -20.7 -30.1 -41.8 -80.9 -51.4 -120zM702.7 882c8 -5.8 21.7 -5.6 34 -7 -10.5 -5.3 -25.4 -7.2 -37.7 -4.3 -.2 -8.2 -3.9 -13.3 -6.2 -19.9 20.7 -7.4 69.3 -55.7 96.8 -39.7 13.1 7.7 18.6 51.2 19.8 72.3 .8 17.6 -1.6 35.2 -8.8 44.5 -36.7 -1.1 -69.9 -5.4 -99 -13.6 1.7 -12 -2 -23.7 1.1 -32.3zm-33.6 -39c-32.8 1.5 -50.7 -2.4 -74.8 -21.1 .4 -1.6 2.8 -1 3 -2.8 35.1 15.7 79.7 -6.4 115.2 -9.5 -15.4 9.9 -28.5 22.6 -43.4 33.4zm-23.6 64.8c-3.1 -18.3 -6.8 -23.4 -5.5 -39.4 48.9 -32.5 58 55.8 5.5 39.4zM441.4 856.6c-22.6 -1.3 -93.9 -27.3 -75.2 -46.2 18.4 12.6 53.7 9.5 80.7 14.2 1.5 8.6 -5.5 19.9 -5.5 32zM112.7 970.9c-8.4 -24.8 -18 -49 -28.9 -72.1 60.1 -46.5 127.5 -95.5 199.6 -124 5.5 -2.1 45.3 49.6 51.2 53.9 32.2 22.9 72.2 41 109.7 59 2.4 17.2 7.7 39.4 17 69.3 1.4 4.5 2.8 9.2 4.3 14.1H112.7zM582.6 982h-1.5c.5 -.4 .9 -.7 1.5 -.9v.9zm14.7 -11.1c4.1 -2.7 8.4 -5.5 12.5 -8.4 2.1 2.7 4.3 5.5 6.2 8.4h-18.7zm29.5 -48.2c-21.1 14.2 -40.3 35.7 -65.1 49.2 -11.7 6.4 -52.7 22.8 -65.2 19.9 -7 -1.6 -7.6 -10.4 -10.6 -18.6 -6 -17.5 -19.7 -45.7 -21.1 -72.2 -1.5 -33.6 -4.8 -89.9 31.3 -82.8 29.1 5.6 63.1 18.9 85.7 31.4 13.9 7.6 21.7 16.8 42.8 18.6 -.2 2.7 -.2 5.4 -.4 8.4 -11.5 7.6 -29.9 7.4 -42.6 13.8 18.6 .8 33.2 5.3 45.9 11.6 -.2 6.6 -.5 13.6 -.7 20.7zm104.3 48.2h-27.4c-.2 -6.3 -5.5 -11.3 -11.9 -11.3s-11.5 5 -11.9 11.3h-34c-5.5 -8.6 -11.1 -16.8 -17.4 -24.4 4.1 -4.3 7.8 -9.2 11.7 -13.5 17.6 7.2 28.9 -9.6 42.4 -8.2 15.4 1.6 27.8 22.9 49.6 21.5l-1.1 24.6zm16.9 0c.4 -7.8 .8 -15.2 1.2 -22.5 30.5 -14.2 56.7 2.6 69.7 22.5H748zm162.9 -72.3c-4.5 21.9 -11.3 46.9 -19.3 72.5 -.4 -.2 -.8 -.2 -1.2 -.2h-54.5c1.2 -2.1 2.4 -4.3 3.7 -6.4 -5 -12 -17.5 -17 -21.2 -30.3C842 889.8 831.1 751.8 771.1 780.9c8.4 -12.3 30.5 -22.5 40.6 -37.7 25.4 20.3 40.6 39.6 64.9 61.3 13.2 11.7 39 26 41.8 45.1 1.5 10.8 -5.1 36.9 -7.5 49zM434 254.9c10.5 -29.1 53.1 -67.8 87.9 -62.5 15 2.3 35.1 16 23.8 34.6 -59 -13.7 -88.3 24.6 -106.2 64.6C423.6 287.7 429.9 266 434 254.9zm359.6 123.2c16 -7 43.7 -1.3 57.8 -10.3C843.2 345.3 831.3 326 833.2 294.1c1 0 2 0 2.7 .2 13.3 27.8 24.8 57.1 41.8 81.5 -11.1 26.3 -85.1 49.6 -84.1 2.3zm39.8 -84zm-228.9 89.3c-13.3 -21.3 -37.1 -63.5 -28.3 -88.5 12.7 23.3 16.8 47.7 34.7 65.1 8 7.8 23.9 17.5 16.1 39.4 -1.8 5.3 -15.3 16.8 -22.9 19 -28.1 8.4 -93.6 1.7 -71.5 -33.4 23.3 1.3 54.5 15.2 71.9 -1.6zm53.3 136.7c7.4 12.9 2.7 36.5 23.6 40.3 39.5 6.6 85.2 -24.1 113.5 -34.8 17.6 -29.7 -1.5 -40.4 -17.4 -59.6C745.1 427 701.8 378.5 703.3 320.1c13.1 -9.6 14.3 14.5 16 19 17 39.6 59.4 90.2 90.5 124 7.6 8.4 20.1 16.4 21.5 21.9 4.1 16 -10.6 35.1 -8.8 45.9 -42.4 27.1 -89.5 56.8 -159 50C649 567.8 643.4 539.1 657.8 520.1zm-393.2 -18c-13.2 -7.6 -16.4 -41 -32 -41.7 -22.2 -1.4 -18.1 43.3 -18.1 69.3 -15.3 -13.9 -18 -56.8 -6.9 -78.7 -12.9 -6.3 -18.5 7 -25.6 11.5 9.2 -66.6 97.3 -30.9 82.6 39.6zm585.2 56.3c-19.7 37.5 -47.7 78.9 -105.5 80.1 -1.1 -12.1 -2.1 -30.5 0 -37.9 44.4 -4.3 71.5 -26.8 105.5 -42.2zm-277.1 24.2c36.9 19.4 104.6 21.5 154.8 19.9 2.8 11 2.6 24.6 2.8 37.9 -64.5 3.5 -140.7 -12.5 -157.6 -57.8zm180 91.2c-3.3 8.4 -10.3 18.2 -19.1 21.7 -23.6 9.6 -89.1 17 -121.9 -.6C590.8 683.8 577.5 658.8 566 644.1c-5.5 -7 -33 -25.2 -.4 -25.2 25.6 63.9 113.3 56.7 187.1 54.9z"/></svg>