<svg height="1000" width="968.8" xmlns="http://www.w3.org/2000/svg"><path d="M444.3 915.4c-17.5 -26.5 -38.8 -65 -46.3 -82.8 -11.1 -26.7 -53.1 -89 61 -131 101 -37.3 345.1 -32.3 407.8 -34.4 -7.8 17.6 -16.8 34.9 -27.2 51.9C760.7 847.1 624 917.4 484.2 917.4c-13.3 0 -26.6 -.8 -39.9 -2M129.1 281.1C250 84.8 507 23.8 703.3 144.7c146.1 90.1 217.2 255.7 194 415.5 -48.7 -1 -350.2 -7.1 -449.8 -9.6C339.1 547.9 287.9 510 333.2 456.4 378.5 402.9 433 377 467.8 356.4c34.9 -20.5 53.3 -65.8 -46.1 -58 -251.2 17 -326.8 194 -348.3 273.9C56.3 475.2 73.2 371.7 129.1 281.1m-57 -35.2C-68.4 473.6 2.5 771.9 230.3 912.3c227.7 140.4 526 69.5 666.4 -158C1037.1 526.6 966.2 228.1 738.5 87.9 659.4 38.9 571.5 15.6 484.8 15.6 322.3 15.6 163.7 97.5 72.1 245.9m477.3 215.6c-61.5 40.1 -127.5 61.2 -127.5 61.2l331 -3.2 90.9 -45.7s7 -18.5 -37.4 -30.2c-44.3 -11.8 -111.3 22 -169.3 53.1 -58 30.8 -60.7 16 -60.7 16s78.5 -54.9 99 -67.4c20.5 -12.5 62.3 -27.3 26.2 -48 -6.3 -3.5 -13.1 -5.3 -20.3 -5.3 -34.8 0 -81.1 36.5 -131.9 69.5"/></svg>