
  <svg height="1000" width="968.8" xmlns="http://www.w3.org/2000/svg">
    <path d="m738.5 87.9c227.7 140.2 298.6 438.7 158.2 666.4-140.4 227.5-438.7 298.4-666.4 158-227.8-140.4-298.7-438.7-158.2-666.4 91.6-148.4 250.2-230.3 412.7-230.3 86.7 0 174.6 23.3 253.7 72.3z m101.1 631.2c10.4-17 19.4-34.3 27.2-51.9-62.7 2.1-306.8-2.9-407.8 34.4-114.1 42-72.1 104.3-61 131 7.5 17.8 28.8 56.3 46.3 82.8 13.3 1.2 26.6 2 39.9 2 139.8 0 276.5-70.3 355.4-198.3z m-392.1-168.5c99.6 2.5 401.1 8.6 449.8 9.6 23.2-159.8-47.9-325.4-194-415.5-196.3-120.9-453.3-59.9-574.2 136.4-55.9 90.6-72.8 194.1-55.7 291.2 21.5-79.9 97.1-256.9 348.3-273.9 99.4-7.8 81 37.5 46.1 58-34.8 20.6-89.3 46.5-134.6 100-45.3 53.6 5.9 91.5 114.3 94.2z m358.9-107c44.4 11.7 37.3 30.2 37.3 30.2l-90.8 45.7-331 3.2s66-21.1 127.5-61.2c50.8-33 97.1-69.5 131.8-69.5 7.3 0 14.1 1.8 20.4 5.3 36.1 20.7-5.7 35.5-26.2 48s-99 67.4-99 67.4 2.7 14.8 60.7-16c58-31.1 125-64.9 169.3-53.1z" />
  </svg>
