
  <svg height="1000" width="875.0" xmlns="http://www.w3.org/2000/svg">
    <path d="m1.2 179.9c0-65.1 52.3-117.4 116.8-117.4 58.6 0 106.4 42.8 115.6 98 63.7-14.8 131 1.2 188.5 58.6l-86.6 86.6c-40-40.1-83.2-31.9-108.2-6.9-27.9 28-27.9 74.1 0 102l194.4 194.3-86 86.5c-171.2-170.3-97-97-194.9-194.7-52.3-51.7-68.3-126.5-48.4-193.1-52.6-11.4-91.2-58.1-91.2-113.9z m252.9 227.3c55.7-55.4 158.8-157.8 194.5-195.1 52-51.9 126-68.4 192-49 8-56.8 57.1-100.8 116.2-100.8 64.5 0 116.8 52.5 116.8 117.4 0 59.2-44.3 108.2-101.3 116.2 18.7 65.6 4.5 136.7-56.5 197.7l-85.9-86.6c40-39.8 31.8-83.2 6.8-108.2-27.9-27.9-73.4-27.9-101.3 0-19.6 19.8-175.2 175.4-194.8 194.9z m520.1 297.3c56.9 8 100.8 56.4 100.8 115.4 0 65.1-52.3 117.4-116.8 117.4-57 0-104.3-40.4-115-93.9-67.8 21.1-146.7 4.3-200.6-54.7l85.9-86.6c39.9 40.1 83.2 31.9 108.2 6.9 27.9-27.9 27.9-73.5 0-101.4l-194.7-194.7 86.5-86.5c204.1 203.9 171.3 170.9 194.4 194.7 49.6 49.6 67.3 119.5 51.3 183.4z m-164.6-103.7c-170.5 170.5-131.7 132.2-194.4 194.7-50.2 49.6-120.1 66.8-183.9 50.8-12 52.5-58.6 91.2-114.5 91.2-64.5 0-116.8-52.3-116.8-117.4 0-55.3 38.1-101.9 90.2-113.7-16.6-64.6-1.3-133 57.7-191.9l85.9 86.5c-39.3 39.2-31.8 82-6.3 108.2 28 27.9 73.5 27.9 101.4 0 96.3-96.5 24.8-26.2 194.7-194.9z" />
  </svg>
