<svg height="1000" width="875" xmlns="http://www.w3.org/2000/svg"><path d="M1.2 179.9C1.2 114.8 53.5 62.5 118 62.5c58.6 0 106.4 42.8 115.6 98 63.7 -14.8 131 1.2 188.5 58.6l-86.6 86.6c-40 -40.1 -83.2 -31.9 -108.2 -6.9 -27.9 28 -27.9 74.1 0 102l194.4 194.3 -86 86.5c-171.2 -170.3 -97 -97 -194.9 -194.7C88.5 435.2 72.5 360.4 92.4 293.7 39.8 282.4 1.2 235.7 1.2 179.9zm252.9 227.3l86.5 86.6c19.6 -19.6 175.2 -175.2 194.8 -195 27.9 -27.9 73.4 -27.9 101.3 0 25 25 33.2 68.4 -6.8 108.2l85.9 86.6c61 -61 75.2 -132.1 56.5 -197.7 57 -8 101.3 -57 101.3 -116.2C873.6 114.8 821.3 62.3 756.8 62.3c-59.1 0 -108.2 43.9 -116.2 100.8 -66 -19.3 -140 -2.9 -192 49C412.9 249.4 309.8 351.8 254.1 407.2zm520.1 297.3c16 -63.9 -1.7 -133.8 -51.3 -183.4 -23.1 -23.8 9.7 9.2 -194.4 -194.7L442 412.9l194.7 194.7c27.9 27.9 27.9 73.5 0 101.4 -25 25 -68.3 33.2 -108.2 -6.9l-85.9 86.6c53.9 59 132.8 75.8 200.6 54.7 10.7 53.5 58 93.9 115 93.9C822.7 937.3 875 885 875 819.9c0 -59 -43.9 -107.4 -100.8 -115.4zM609.6 600.8l-86 -86.5C353.7 683 425.2 612.7 328.9 709.2c-27.9 27.9 -73.4 27.9 -101.4 0C202 683 194.5 640.2 233.8 601l-85.9 -86.5c-59 58.9 -74.3 127.3 -57.7 191.9C38.1 718.2 0 764.8 0 820.1c0 65.1 52.3 117.4 116.8 117.4 55.9 0 102.5 -38.7 114.5 -91.2 63.8 16 133.7 -1.2 183.9 -50.8C477.9 733 439.1 771.3 609.6 600.8z"/></svg>