<svg height="1000" width="875" xmlns="http://www.w3.org/2000/svg"><path d="M781.3 62.5H93.8C42 62.5 0 104.5 0 156.3v687.5c0 51.7 42 93.7 93.8 93.7h687.5c51.7 0 93.7 -42 93.7 -93.7V156.3c0 -51.8 -42 -93.8 -93.7 -93.8zM476.2 744.9c0 85.2 -50 124 -122.9 124 -65.8 0 -103.9 -33.9 -123.4 -75.1l67 -40.5c12.9 22.9 24.6 42.2 52.9 42.2 27 0 44.1 -10.5 44.1 -51.7V464.3h82.3v280.6zm194.5 124c-76.4 0 -125.8 -36.3 -149.8 -83.9l67 -38.7c17.6 28.7 40.6 50 81 50 34 0 55.9 -17 55.9 -40.6 0 -28.2 -22.3 -38.1 -60 -54.7l-20.5 -8.8C585 667 545.7 635.2 545.7 568.2c0 -61.8 47.1 -108.6 120.3 -108.6 52.4 0 89.9 18.1 116.8 65.8l-64 41c-14.1 -25.2 -29.3 -35.1 -53 -35.1 -24 0 -39.2 15.2 -39.2 35.1 0 24.6 15.2 34.6 50.5 50l20.6 8.8c69.9 29.9 109.1 60.5 109.1 129.3 0 73.8 -58.2 114.4 -136.1 114.4z"/></svg>