
  <svg height="1000" width="875.0" xmlns="http://www.w3.org/2000/svg">
    <path d="m781.3 62.5c51.7 0 93.7 42 93.7 93.8v687.5c0 51.7-42 93.7-93.7 93.7h-687.5c-51.8 0-93.8-42-93.8-93.7v-687.5c0-51.8 42-93.8 93.8-93.8h687.5z m-305.1 682.4v-280.6h-82.3v279.5c0 41.2-17.1 51.7-44.1 51.7-28.3 0-40-19.3-52.9-42.2l-67 40.5c19.5 41.2 57.6 75.1 123.4 75.1 72.9 0 122.9-38.8 122.9-124z m194.5 124c77.9 0 136.1-40.6 136.1-114.4 0-68.8-39.2-99.4-109.1-129.3l-20.6-8.8c-35.3-15.4-50.5-25.4-50.5-50 0-19.9 15.2-35.2 39.2-35.2 23.7 0 38.9 10 52.9 35.2l64.1-41c-26.9-47.7-64.4-65.8-116.8-65.8-73.2 0-120.3 46.8-120.3 108.6 0 67 39.3 98.8 98.6 124l20.5 8.8c37.7 16.6 60 26.5 60 54.7 0 23.6-21.9 40.6-55.9 40.6-40.4 0-63.4-21.3-81-50l-67 38.7c24 47.6 73.4 83.9 149.8 83.9z" />
  </svg>
