<svg height="1000" width="1125" xmlns="http://www.w3.org/2000/svg"><path d="M997.3 463.8c-9.2 -5.1 -11 -11.2 -12.4 -21.1 -4.6 -32.2 -6.9 -65.6 -17.8 -95.8C897 151.6 666.3 66.8 485 167.9c-53.5 29.7 -95.7 71 -127.9 124.8 -6.3 -3 -10.7 -5.3 -15.3 -7.2C283 261.2 226.4 265.7 175.1 303.4c-49.8 36.6 -71.1 87 -63.8 149.2 .7 5.9 -3.8 14.9 -8.8 18.7C24.9 529.8 -7 623.7 20.6 714.6c27.1 89 112.4 155.9 206.3 159.1 59.2 2 118.4 1.1 177.7 1 164.1 0 328.3 1.1 492.4 -.9 102.8 -1.2 187.7 -72 211.3 -170.5 22.6 -93.9 -21.7 -190 -111 -239.5zm41.3 306.4C1003 814 955.9 839.1 899.3 839.8c-111 1.6 -222.2 .5 -333.3 .5 0 1.3 -318.4 .3 -319.7 .3C160.6 839.9 96.4 802 60.4 723.4 23.4 642.8 52.5 546 127.1 496.6c18 -11.8 24.5 -22.6 19.8 -45.2 -10.8 -51.4 8.6 -93.6 51.6 -123 44.8 -30.7 92.6 -31.5 140.6 -6 20.1 10.7 28.6 22.6 43.4 -4.9C410.3 265.9 450 226.2 501 197.8 691.3 91.6 947 212.5 950.7 456.9c.2 16 4.7 24.3 19.2 31.1 112.4 52.4 145.4 187.7 68.7 282.2zM867.1 613c-11.4 60.8 -67.6 107.6 -130.2 107.6 -33.1 0 -62.6 -12.8 -86.1 -34.6C596.7 635.8 511.8 539.6 463.4 503.6c-39.2 -29.1 -82 -24.1 -117.7 7.4 -97.6 86.1 31 237.8 131 150.8 8.9 -7.8 15.3 -18.7 24.9 -25.1 16 -10.8 40.5 -1.8 25.7 20.7 -33.9 51.3 -96.4 74.6 -154 57.2 -56.5 -17 -95.4 -70.2 -95 -137 2.4 -43.9 24.1 -84.1 69.2 -109.3 44 -24.7 90.5 -25.7 130.8 4.8 99.2 75.1 147.6 159.7 209.6 197.7 47.9 29.5 105.9 14.4 134.4 -34.2C878.6 540.5 754.7 431.5 668.2 512.7c-7.7 7.3 -13.5 17.4 -22.2 22.9 -21.5 13.3 -33.9 -8 -25.1 -20.2 40.5 -55.8 98.6 -79 162.7 -55.1 61.4 22.8 95.9 86.6 83.5 152.7z"/></svg>