
  <svg height="1000" width="875.0" xmlns="http://www.w3.org/2000/svg">
    <path d="m558.9 818.4c19.4 0 35.2 15.7 35.2 35.1s-15.8 35.2-35.2 35.2-35.1-15.8-35.1-35.2 15.7-35.1 35.1-35.1z m218.6-288.3c44.8 65.3 70.2 141.3 70.2 216.6 0 61.9-9.8 118.5-28.6 168.4-5.9 15.8-21.3 24.9-35.8 21.8-13.4-2.4-21.8-18.1-16.8-30.7 21.8-56.1 29-114 29-159.5-0.1-19-2-37.4-5.4-55.5-1.3 2.1-2.2 4.3-3.7 6.3-33.7 47.9-98.7 66.2-165.5 46.5-154-45.2-347.7-7.4-461.4 75.4l48.2-144.7-91.5 116.8c4.9 36.5 15.6 71.8 30.8 103.8 12.2 25.8 0.9 35.6-7.3 39.3-9.3 4.1-27.1 5.4-38.4-14.3-12.5-22.7-22.3-47.6-28.4-73.4l-45.6 58.2v-65.7c0-108.9 0-244.4 122.4-368 26.9-27.2 57-50.4 90.4-69.4l-17.4-1.1c-54.5-3.2-96.2-48.5-93.1-101.2l4.7-71.7c0 12.2 0.2-89.6 99.1-89.6 4 0-0.9-0.2 80.2 4.6 5.5 0.3 10.9 1.2 16.2 2.4 14.5-22.1 30.5-44.6 47.5-68.1l10.7-14.8 44.7 26.4c-22 46.9-19.5 64.5-18.3 68.4 17.7-0.5 39 3.2 63.3 11.2 60.9 20.3 104.8 77.8 104.8 145.5 0 20.5-4 40-11.3 57.9 12.1 4.2 24 8.9 35.9 14.2 93.5 41.5 151.9 115.4 170.4 144z m-499.4-279c3.6-12.8 8.3-25.4 13.6-37.4l-56.8-3.4c1.2 0.1-24-1.6-25.9 22.1l-4.7 71.6c0 0.4 0 0.7 0 1 0 12.9 10.2 23.5 22.9 24l43.8 2.6c-0.9-7.3-1.4-14.3-1.4-21.9 0-5.5 0.3-10.9 0.7-16.3l-25.6-1.5 2.7-42.6z m289.8 336.3c4.5-3.4 7.3-8.8 7.3-14.8 0-4.3-1.4-8.3-3.9-11.4l-158.3-188.2c-3.7-4.3-9.3-7-15.4-7-4.7 0-9.1 1.6-12.6 4.4-4.4 3.4-7.2 8.8-7.2 14.8 0 4.3 1.4 8.2 3.8 11.4 0.2 0.3 36.4 43.2 36.4 43.2l-33.1 26c-3.4 2.6-5.6 6.8-5.6 11.4 0 3.3 1.1 6.4 3 8.8 0.1 0.2 4.6 5.7 7.4 8.8 2.8 3.2 6.8 5.2 11.4 5.2 3.5 0 6.7-1.2 9.3-3.2l33.4-26.3 27.6 32.7-67.6 53.1c-3.4 2.6-5.6 6.8-5.6 11.4 0 3.3 1.2 6.4 3 8.8l30.9 36.4c2.8 3.4 7.1 5.5 11.9 5.5 3.7 0 7.1-1.3 9.8-3.4l67.2-52.7 18.9 22.4c3.8 4.3 9.3 7 15.5 7 4.7 0 9.1-1.6 12.5-4.3z m-201.8 231c19.4 0 35.2 15.7 35.2 35.1s-15.8 35.2-35.2 35.2c-19.4 0-35.2-15.8-35.2-35.2s15.8-35.1 35.2-35.1z" />
  </svg>
