<svg height="1000" width="805.3" xmlns="http://www.w3.org/2000/svg"><path d="M346.1 841.6c0 19.1 -15.6 34.8 -34.8 34.8s-34.7 -15.7 -34.7 -34.8 15.6 -34.8 34.7 -34.8c19.2 -.2 34.8 15.5 34.8 34.8zm181.2 -35c-19.1 0 -34.7 15.7 -34.7 34.8s15.6 34.8 34.7 34.8 34.8 -15.7 34.8 -34.8 -15.6 -34.8 -34.8 -34.8zm278 -70.3c0 76 -14.9 144.4 -43.4 201.2h-53.3c45.9 -75.6 59.6 -185.2 43.7 -262.3 -31.4 57.6 -101.7 75.4 -167.7 56.2C335 658.2 208.6 769.9 126.4 829.7l36.9 -115.8 -77.9 82.6c9.3 52.1 30.6 100.2 60.9 141.2H90C71.1 906.8 56.4 873.2 46.7 837.5L.2 886.7C.2 740.4 -10.5 598.4 120.3 466.4c39.5 -39.8 85.4 -70.7 135 -91.2C242 348.8 236.7 318.2 240 285.4L201.2 283c-35 -2.1 -61.7 -32.2 -59.8 -67.2v-.2l3.1 -51.1c2.2 -33.4 30.1 -59.8 63.5 -59.8 2.5 0 -.6 -.2 55.1 3.3 27.1 1.6 42 19.1 44.5 22.3C321.5 110 335.9 90.2 355.7 62.9l40.2 23.6c-26.6 56.7 -17.8 70.7 -17.6 70.9 7.6 0 27.2 -1 63.3 11.2 38.9 12.8 70.1 40.4 87.7 77.5 .8 1.8 30.3 56.6 2.3 122.3 37.2 11.9 100.2 38.8 161 101.1 71.5 73.5 112.7 170.7 112.7 266.8zM250 238.9c6.3 -19.6 15 -38.5 25.6 -57.5 .2 -3.9 4.3 -25.5 -15.2 -26.9C204.7 151 209 151.4 208.2 151.4c-9 0 -16.2 6.8 -16.8 15.8l-3.1 51.2c-.6 9.1 6.6 17.1 15.8 17.7l45.9 2.8zm50.4 120.7c10.9 18.3 27.5 31.4 43.5 39 0 -41.4 55.7 -81.8 103.2 -34.1l16.4 20.1c40.6 -36.7 37.9 -88.5 23.6 -119 -26.9 -56.8 -91.6 -62.5 -106 -61.9 -20.2 .8 -38.5 -10.5 -46.3 -29.9C308 215.2 262.1 295.9 300.4 359.6zm161.9 133.6l-38.5 31.4c-3.7 3.1 -4.3 8.6 -1.1 12.3l17.3 21.3c2 2.3 7.5 5.3 12.3 1.2l38.3 -31.3 10.8 13.3c9.5 11.7 26.9 -2.7 17.5 -14.3 -124.2 -152.9 -81 -99.8 -108 -133 -9.1 -11.7 -27.1 2.8 -17.5 14.3 3.7 4.5 35.9 44.1 38.6 47.5l-18.7 15.4c-9 7.4 5.1 26 14.4 18.3l19 -15.6 15.6 19.2zm231.3 50.2c-33.1 -46.3 -83.2 -91.3 -143.4 -118 -15.4 -6.8 -29.3 -11.9 -44.7 -16.8 -3.9 4.3 -8 8.4 -12.5 12.1l62.3 76.6c20.3 24.8 16.6 61.5 -8.2 81.8 -2.6 2.2 -25.6 20.9 -56.7 9.6 -5.6 4.5 -19.7 19.3 -43.3 19.3 -16.8 0 -32.5 -7.4 -43.2 -20.5l-17.4 -21.3c-12.3 -15.2 -15.4 -35 -9.7 -52.3 -16.1 -19.4 -16.3 -41.6 -9 -58.6 -14.1 -2.6 -52.2 -12.1 -83.4 -41.8C175.4 453.9 112.5 539.3 86.5 591.6c-29.1 59 -36.7 118.9 -38.8 176.2 16 -17 -7.7 8 222.6 -236.2l-58.4 182.9c112.9 -60.8 242.2 -70.4 385.6 -28.2 46.1 13.5 88 3.2 109.3 -27.1 21.7 -30.5 16.6 -73.7 -13.2 -115.8zM216 209.6l30.5 1.9 1.9 -30.4 -30.4 -2 -2 30.5z"/></svg>