
  <svg height="1000" width="1000.0" xmlns="http://www.w3.org/2000/svg">
    <path d="m124.6 799.4l118.2-115.2c62.7 83.6 138.8 128.9 247.2 131.6 59.6 1.4 117.8-13.7 168.8-43.7 10 10.3 36.1 38.1 40.8 42.9-62.9 40.5-135.9 60.8-211.1 59-84.6-2.1-165.3-32.6-229.9-86.7 0.6-1.2-74.6 73.2-75.4 74 18.6 58.2-25.6 121.9-90.4 121.9-52.4-0.2-92.8-42.4-92.8-94.7 0-67 64.6-110.6 124.6-89.1z m693.2-493c37.3 61.2 57.8 131.7 56 203.2-2.1 87.5-37.1 170.9-94.9 236.3 0.6 0.6 46.5 49.2 47.1 49.8 18.7-2.5 37.5 3.9 50.6 17.8 22 23.4 21.3 60.3-2.2 82.8-23.4 22.1-60.3 21.3-82.8-2.2-13.1-13.6-18.4-32.8-14.8-51.3-48.7-52-86.8-92.2-86.8-92.2 83.4-66.6 123.7-155.5 125.8-242.6 1.4-56.4-14-111.7-41.2-160.5z m-614.7-202.7c13.1 13.7 18.4 32.8 14.9 51.4l89.6 93.9c-9.2 7.4-26 20.3-44.5 41.6-49.6 55.7-77.4 126.6-79.5 201-1.4 56.4 11.9 111.7 39.1 160.9l-43 42c-37.7-61.7-56.5-132.2-54.3-204.5 1.9-87.1 35.7-171.1 92.8-236.5l-49.4-51.5c-18.8 2.5-37.5-4-50.6-17.8-22.1-23.5-21.3-60.4 2.1-82.8 23.3-21.9 59.8-21.3 82.8 2.3z m704.9-88.1c50.8 0 92 43.8 92 94.4 0 50.5-41.2 93.1-92 93.1-12.3 0.2-27.3-2.1-31-3.5l-122.9 116.6c-63.9-85.1-149.8-128.7-247.8-131.2-59.6-1.4-117.8 13.2-168.4 43.7l-41.2-43c62.9-40.6 135.9-60.7 211.1-58.9 84.6 2.1 165.2 32.6 229.9 87.1l80.3-75.4c-3-9.2-4.3-18.8-4.3-28.3-0.2-52.2 43.5-94.6 94.3-94.6z m-406.6 205.9c10.7 0 21.3 0.8 32 2.1 152.5 19.2 260.5 158.4 241.8 310.8-19.1 152.5-158.4 260.5-310.7 241.8-152.6-19.2-260.6-158.4-241.8-311 18.1-141.4 136.9-243.3 278.7-243.7z m-115.3 233.2c1.2 44.3 23.9 81.6 63.3 101.9l-21.5 101h144l-21.5-101c39.2-21.2 62.7-56.6 63.3-101.9-0.8-64.1-50.4-112.3-113.9-113.9-62.7 1.6-111.9 48.5-113.7 113.9z m113.9-142.2z" />
  </svg>
