<svg height="1000" width="1250" xmlns="http://www.w3.org/2000/svg"><path d="M1245.1 471.9c-8.2 -9.4 -122.6 -152.6 -142.8 -176.8 -20.1 -24.2 -30 -19.9 -42.3 -18.1 -12.5 1.7 -157.3 26.1 -174.1 28.9 -16.8 2.9 -27.3 9.5 -17 24 9.2 12.9 104.3 147.8 125.4 177.5L616 598 314.8 95.1C302.9 77.3 300.4 71.1 273 72.5 245.7 73.6 36.9 91 22.1 92.4c-14.9 1.2 -31.3 7.8 -16.4 43s251.9 546 258.6 560.9c6.6 14.8 23.8 39.1 64 29.3 41.2 -10 184.2 -47.3 262.3 -67.8 41.2 74.8 125.4 226.4 141 248.1 20.7 29.1 35.2 24.2 67 14.4 25 -7.6 389.9 -138.9 406.3 -145.5 16.4 -6.8 26.5 -11.5 15.4 -28.1 -8.2 -12.1 -104.5 -141 -154.9 -208.6 34.6 -9.2 157.5 -41.8 170.5 -45.5 15.5 -3.9 17.6 -11.3 9.2 -20.7zM557.2 612.5c-4.5 1 -216.4 51.8 -227.7 54.3 -11.3 2.5 -11.3 1.4 -12.7 -2.5C315.4 660.4 64.8 143.4 61.3 136.9c-3.5 -6.4 -3.3 -11.5 0 -11.5s200.2 -17.6 207.1 -18c7 -.4 6.2 1.2 8.7 5.5 0 0 277.8 479.3 282.5 487.7 5 8.4 2.1 10.9 -2.4 11.9zm597.7 112.1c3.3 5.3 6.8 8.8 -3.9 12.5C1140.4 741 792.2 858.4 785.5 861.3c-6.8 3 -12.1 3.9 -20.7 -8.8S643 643.9 643 643.9L1011.7 548c9.2 -2.9 12.1 -4.8 18 4.3 5.7 9.4 121.9 167 125.2 172.3zm23.6 -261.9c-8.2 1.8 -143.7 35.3 -143.7 35.3L924 346.1c-3.1 -4.5 -5.6 -8.8 2.2 -9.8s133.6 -23.8 139.2 -25c5.7 -1.3 10.6 -2.9 17.6 6.7 7 9.5 102.7 130.8 106.5 135.5 3.5 4.5 -2.8 7.2 -11 9.2z"/></svg>