
  <svg height="1000" width="1000.0" xmlns="http://www.w3.org/2000/svg">
    <path d="m985.2 226.2c0.3 1.3 0.4 2.6 0.4 4 0 0 0 0.1 0 0.1v214.6c0 0 0 0 0 0.1 0 5.8-3.1 10.8-7.8 13.5l-180.1 103.8v205.6c0 0 0 0 0 0 0 5.8-3.2 10.8-7.9 13.5l-376.1 216.5c-0.8 0.5-1.7 0.8-2.7 1.1-0.3 0.2-0.7 0.4-1.1 0.5-1.2 0.3-2.6 0.5-4 0.5-1.3 0-2.7-0.2-4-0.5-0.4-0.1-0.8-0.4-1.2-0.5-0.9-0.3-1.8-0.7-2.6-1.1l-376-216.5c-4.7-2.7-7.8-7.7-7.8-13.5v0-644c0-1.4 0.2-2.8 0.6-4.1 0.1-0.4 0.3-0.9 0.5-1.3 0.3-0.8 0.6-1.7 1-2.4 0.3-0.5 0.7-0.9 1.1-1.4 0.4-0.7 0.9-1.3 1.4-1.8 0.5-0.5 1-0.9 1.5-1.2 0.6-0.5 1.1-1 1.7-1.4v0l188.1-108.2c2.3-1.3 5-2.1 7.8-2.1s5.5 0.8 7.8 2.1l188.1 108.2v0c0.6 0.4 1.1 0.9 1.7 1.4 0.5 0.3 1 0.7 1.5 1.1 0.5 0.6 1 1.2 1.4 1.9 0.3 0.5 0.8 0.9 1.1 1.4 0.4 0.7 0.7 1.6 1 2.4 0.1 0.4 0.4 0.9 0.5 1.3 0.4 1.3 0.6 2.7 0.6 4.1v0 402.2l156.7-90.2v-205.5c0-1.5 0.2-2.8 0.5-4.1 0.1-0.5 0.4-0.9 0.6-1.3 0.2-0.9 0.6-1.7 1-2.5 0.3-0.5 0.7-0.9 1-1.4 0.4-0.6 0.9-1.2 1.4-1.8 0.5-0.4 1-0.8 1.6-1.2 0.5-0.4 1.1-0.9 1.7-1.3v0l188-108.3c2.3-1.3 5-2.1 7.8-2.1s5.5 0.8 7.8 2.1l188.1 108.2c0.6 0.4 1.1 0.9 1.7 1.4 0.5 0.4 1.1 0.7 1.5 1.1 0.5 0.6 1 1.2 1.4 1.9 0.4 0.4 0.8 0.9 1.1 1.4 0.4 0.7 0.7 1.6 1 2.4 0.2 0.4 0.4 0.9 0.6 1.3z m-767.2-192.5l-156.7 90.2 156.6 90.2 156.7-90.2-156.6-90.2v0z m172.3 117.2l-65.8 38-90.8 52.3v393.2l65.8-37.9 90.8-52.4v-393.2z m0 806.2l-0.2-180.3-180-102v0 0c-0.6-0.4-1.2-0.8-1.7-1.2-0.5-0.4-1.1-0.7-1.5-1.2v0c-0.5-0.5-0.9-1-1.3-1.6-0.4-0.5-0.8-1-1.2-1.5v0c-0.3-0.7-0.6-1.3-0.8-2-0.3-0.6-0.5-1.1-0.7-1.8v0c-0.2-0.7-0.3-1.5-0.4-2.3-0.1-0.5-0.2-1.1-0.2-1.7v-420.3l-90.9-52.3-65.8-37.9v607.8z m15.7-207.3l229.7-131.2 114.8-65.5-156.5-90.1-180.2 103.7-164.2 94.6z m360.3 8.9v-178.5l-89.3 51.1-255.4 145.7v180.2z m0-232.7v-178.3l-90.8-52.4-65.8-37.9v178.6l90.8 52.3z m15.7-205.6l156.6-90.2-156.6-90.1-156.7 90.1z m15.6 205.6l156.9-90.1v0-178.5l-65.8 37.9-91.1 52.4v178.3z" />
  </svg>
