<svg height="1000" width="1000" xmlns="http://www.w3.org/2000/svg"><path d="M441 717l-36.7 -99.6s-59.6 66.4 -148.8 66.4C176.4 683.8 120.3 615 120.3 505.1c0 -140.8 71.1 -191.2 140.8 -191.2 129.9 0 146.1 104.1 197.1 263.4 36.7 111.2 105.5 200.4 303.5 200.4 142 0 238.3 -43.5 238.3 -158C1000 477.3 877.5 462.3 775.4 439.8c-50.4 -11.5 -65.2 -32 -65.2 -66.4 0 -38.8 30.8 -61.9 81.2 -61.9 55.1 0 84.8 20.7 89.3 69.9l114.4 -13.6C985.9 264.6 914.8 222.3 798 222.3c-103.1 0 -203.9 38.8 -203.9 163.8 0 78 37.9 127.2 132.9 150 87.6 20.7 155.8 27 155.8 89.3 0 42.4 -41.2 59.6 -119.1 59.6C648 685 599.8 624.2 572.5 540.6 510 351.6 487.3 222.3 257.4 222.3 89.3 222.3 0 328.7 0 509.8c0 174 89.3 267.9 249.8 267.9C379.1 777.7 441 717 441 717z"/></svg>