<svg height="1000" width="875" xmlns="http://www.w3.org/2000/svg"><path d="M781.3 62.5H93.8C42 62.5 0 104.5 0 156.3v687.5c0 51.7 42 93.7 93.8 93.7h687.5c51.7 0 93.7 -42 93.7 -93.7V156.3c0 -51.8 -42 -93.8 -93.7 -93.8zM601.2 673.6c-123.9 0 -166.8 -55.8 -189.7 -125.2 -31.8 -99.6 -42 -164.6 -123 -164.6 -43.8 0 -88.1 31.4 -88.1 119.5 0 68.8 35.1 111.7 84.6 111.7 55.8 0 92.9 -41.6 92.9 -41.6l22.9 62.3s-38.7 37.9 -119.5 37.9c-100.2 0 -156.1 -58.8 -156.1 -167.5 0 -113.1 55.9 -179.7 161.1 -179.7 143.6 0 157.8 80.8 196.9 199 17.2 52.3 47.3 90.2 119.5 90.2 48.7 0 74.4 -10.7 74.4 -37.3 0 -38.8 -42.5 -42.9 -97.4 -55.8 -59.4 -14.3 -83 -45.2 -83 -93.8 0 -78.1 63.1 -102.3 127.3 -102.3 73.1 0 117.4 26.5 123.1 91l-71.7 8.6c-2.9 -30.9 -21.5 -43.8 -55.9 -43.8 -31.4 0 -50.7 14.3 -50.7 38.7 0 21.5 9.3 34.4 40.8 41.6 63.8 13.9 140.2 23.4 140.2 112.3 .2 71.7 -60 98.8 -148.6 98.8z"/></svg>