
  <svg height="1000" width="1000.0" xmlns="http://www.w3.org/2000/svg">
    <path d="m441 717c0 0-61.9 60.7-191.2 60.7-160.5 0-249.8-93.9-249.8-267.9 0-181.1 89.3-287.5 257.4-287.5 229.9 0 252.6 129.3 315.1 318.3 27.3 83.6 75.5 144.4 191.2 144.4 77.9 0 119.1-17.2 119.1-59.6 0-62.3-68.2-68.6-155.8-89.3-95-22.8-132.9-72-132.9-150 0-125 100.8-163.8 203.9-163.8 116.8 0 187.9 42.3 197.1 145.5l-114.4 13.6c-4.5-49.2-34.2-69.9-89.3-69.9-50.4 0-81.2 23.1-81.2 61.9 0 34.4 14.8 54.9 65.2 66.4 102.1 22.5 224.6 37.5 224.6 179.9 0 114.5-96.3 158-238.3 158-198 0-266.8-89.2-303.5-200.4-51-159.3-67.2-263.4-197.1-263.4-69.7 0-140.8 50.4-140.8 191.2 0 109.9 56.1 178.7 135.2 178.7 89.2 0 148.8-66.4 148.8-66.4z" />
  </svg>
