<svg height="1000" width="1250" xmlns="http://www.w3.org/2000/svg"><path d="M1196.7 427.7c0 -40 6.2 -63.6 6.2 -106.6 0 -66.8 -24.6 -88.3 -79.1 -88.3h-40v47.3h12.3c27.7 0 33.8 9.2 33.8 43.1 0 31.9 -3.1 63.7 -3.1 100.6 0 47.3 15.4 65.7 46.1 72.9v3.1c-30.9 7.2 -46.1 25.6 -46.1 72.9 0 36.9 3.1 66.8 3.1 100.5 0 35 -7.2 44.2 -33.8 44.2v1h-12.3v49.2h40c54.3 0 79.1 -21.5 79.1 -88.3 0 -44.1 -6.2 -66.8 -6.2 -106.6 0 -21.5 13.3 -44.2 53.3 -46.1v-53.4c-40 -1.3 -53.3 -24 -53.3 -45.5zm-206.3 62.5c-30.8 -12.3 -59.5 -19.5 -59.5 -40 0 -15.4 12.3 -24.6 34.9 -24.6s43.2 9.2 65.6 25.6l41.1 -54.3c-25.6 -19.6 -60.6 -40.1 -107.9 -40.1 -69.7 0 -116.9 40.1 -116.9 96.5 0 50.2 44.1 76 81 90.3 31.8 12.3 62.7 22.6 62.7 43.1 0 15.4 -12.3 25.6 -40 25.6 -25.6 0 -51.4 -10.3 -79.1 -31.8l-41 59.5c30.8 25.6 77.9 43.2 116.9 43.2 82.1 0 126.2 -43.2 126.2 -99.6s-43.9 -80.1 -84 -93.4zM289.5 606.3c-7.3 0 -16.5 -6.3 -16.5 -25.6V232.6H127.3c-55.4 0 -80 21.5 -80 88.3 0 44.1 6.2 68.7 6.2 106.6 0 21.5 -13.3 44.2 -53.3 46.1V527c40 .9 53.3 23.6 53.3 45.1 0 37.9 -6.2 60.5 -6.2 104.7 0 66.8 24.6 88.2 79.1 88.2h40v-47.2h-12.3c-25.6 0 -33.8 -10.4 -33.8 -44.2s3.1 -62.7 3.1 -100.6c0 -47.2 -15.4 -65.6 -46.1 -72.8v-3.1c30.9 -7.3 46.1 -25.6 46.1 -72.9 0 -36.9 -3.1 -66.8 -3.1 -100.6s7.2 -43.1 33.8 -43.1h27.5V575c0 62.7 21.5 103.7 84.2 103.7 19.6 0 35 -3.1 46.1 -7.2l-10.3 -66.8c-6.1 1.6 -9 1.6 -12.1 1.6zM742 490.2c-31.8 -12.3 -60.6 -19.5 -60.6 -40 0 -15.4 12.4 -24.6 35 -24.6 22.7 0 43.2 9.2 65.6 25.6l41 -54.3C797.5 377.3 762.5 356.8 715.2 356.8c-69.7 0 -117 40.1 -117 96.5 0 50.2 44.2 76 81.1 90.3 31.8 12.3 62.7 22.6 62.7 43.1 0 15.4 -12.3 25.6 -40 25.6 -25.6 0 -51.4 -10.3 -79.1 -31.8L582.8 640c30.9 25.6 77.9 43.2 117 43.2 82 0 126.2 -43.2 126.2 -99.6 .2 -56.5 -44 -80.1 -84 -93.4zM439.3 355.9c-75 0 -146.7 62.7 -144.8 161.1 0 101.6 66.8 161.1 154.9 161.1 36.9 0 77.9 -13.3 109.8 -34.9l-30.9 -54.3c-22.6 13.2 -44.1 19.5 -66.8 19.5 -41 0 -72.8 -19.5 -81 -66.8h185.9c1 -7.2 3.1 -21.5 3.1 -37.9C570.7 420.5 525.4 355.9 439.3 355.9zm-58.6 129.3c6.2 -41.1 30.8 -60.6 59.5 -60.6 36.9 0 51.4 25.6 51.4 60.6H380.7z"/></svg>