
  <svg height="1000" width="875.0" xmlns="http://www.w3.org/2000/svg">
    <path d="m812.5 62.5c34.4 0 62.5 28.3 62.5 63.1v748.8c0 34.8-28.1 63.1-62.5 63.1h-750.2c-34.4 0-62.3-28.3-62.3-63.1v-748.8c0-34.8 27.9-63.1 62.3-63.1h750.2z m-548 750h0.1v-417.6h-129.8v417.6h129.7z m-64.9-474.6c41.6 0 75.2-33.6 75.2-75.2 0-41.4-33.8-75.2-75.2-75.2-41.6 0-75.2 33.8-75.2 75.2s33.6 75.2 75.2 75.2z m551 474.6v-228.9c0-112.5-24.4-199-155.7-199-63.1 0-105.4 34.5-122.8 67.4h-1.8v-57.1h-124.4v417.6h129.7v-206.6c0-54.5 10.3-107.3 77.9-107.3 66.4 0 67.4 62.3 67.4 110.8v203.1h129.7z" />
  </svg>
