<svg height="1000" width="875" xmlns="http://www.w3.org/2000/svg"><path d="M812.5 62.5H62.3C27.9 62.5 0 90.8 0 125.6v748.8c0 34.8 27.9 63.1 62.3 63.1h750.2c34.4 0 62.5 -28.3 62.5 -63.1V125.6C875 90.8 846.9 62.5 812.5 62.5zm-548 750H134.8V394.9h129.8v417.6zM199.6 337.9c-41.6 0 -75.2 -33.8 -75.2 -75.2s33.6 -75.2 75.2 -75.2c41.4 0 75.2 33.8 75.2 75.2 0 41.6 -33.6 75.2 -75.2 75.2zm551 474.6H620.9V609.4c0 -48.5 -1 -110.8 -67.4 -110.8 -67.6 0 -77.9 52.8 -77.9 107.3v206.6H345.9V394.9h124.4V452h1.8c17.4 -32.9 59.7 -67.4 122.8 -67.4 131.3 0 155.7 86.5 155.7 199v228.9z"/></svg>