<svg height="1000" width="875" xmlns="http://www.w3.org/2000/svg"><path d="M854.3 442c-.6 -1.8 -1.8 -2.7 -2.7 -3.9L714.8 362.7c-1.7 -1.2 -3.9 -1.2 -6 0l-115 70.3c-1.8 1.2 -2.8 3.3 -2.8 5.1l-1.7 61.3 -46.9 -31.2c-1.8 -1.2 -4.5 -1.2 -6.1 0l-67.5 41.4L466 441c0 -1.7 -1.2 -3.9 -2.7 -4.5L393 389.1l65.8 -34c2.1 -1.2 3.3 -3.3 3.3 -5.7L451 91c0 -1.7 -1.8 -3.9 -3.3 -5.1L270.7 .6C268.9 0 267.4 0 266.2 0L24.6 75.4c-2.7 1.2 -4.5 3.9 -3.9 7.2l53.5 260c1.8 6.6 66.4 53.5 75.4 60.3l-52.5 25.2c-2.8 1.8 -3.9 4.5 -3.3 6.7L134 630.7c1.2 5.6 46.3 45.1 52.9 51.3l-34 20.7c-1.7 1.2 -3.3 3.9 -2.7 6.1 2.7 13.9 30.1 151.7 33 154.5l127.2 134.9c1.1 1.2 2.7 1.2 4.4 1.8 1.2 0 2.2 -.6 3.4 -1.2L481.6 868.2c1.8 -1.2 2.2 -2.8 2.2 -4.5l-3.9 -89.9 54.7 46.3c2.1 1.8 5.6 1.8 7.8 0L673 715.8c1.8 -1.2 2.2 -2.7 2.2 -4.5l4.5 -65.2 39.6 27.3c2.2 1.8 5.1 1.8 7.3 0l106.6 -85.3c1.2 -.6 2.2 -2.2 2.2 -3.9 1.7 -12.7 20.1 -138.3 18.9 -142.2zm-400 9.4l7.8 180.8L285.2 751.8 257.8 563.1 454.3 451.4zm-15 -351.6l10.5 246.1L241.6 454.1 203.1 190.8l236.2 -91zM85.9 338.1L35.2 93.8l155.6 96.4 37.9 259.6L85.9 338.1zm59.8 288.7L108.8 449.2l136.7 113.9 26.8 182.4L145.7 626.8zm47.5 229.8l-26.8 -131 120.5 118.9 19 131.7L193.2 856.6zm125.9 126L298.4 844.1 465.8 724.2l6.1 136.7L319.1 982.6zM479.3 757.8c0 -6.6 1.8 -44.7 -3.9 -49l-47.5 -39.1 43.6 -29.1c4.5 -3.3 2.1 -11.1 2.1 -15.6l57.5 44.1 1.1 133.4 -52.9 -44.7zm184.2 -49.6l-119 94.9 -1.1 -134 128.3 -91.6 -8.2 130.7zM717.6 658l-37.3 -26.2 3.9 -66.4c.6 -1.7 -.6 -3.9 -2.2 -5l-80.4 -53.2 1.1 -58.6 126.2 79.3L717.6 658zm106.6 -77.7l-94.3 74.8L741 527.9l99.8 -71.5 -16.6 123.9z"/></svg>