
  <svg height="1000" width="875.0" xmlns="http://www.w3.org/2000/svg">
    <path d="m431.3 240.8c-2.2-1.2-6.1-0.8-6.7-3.3-0.4-0.8 0.4-1.8 1.2-2.1 3.1-1.8 7.4-1.2 10.7 0.1 2.6 1.2 6.7 3 6.3 5.7-0.2 2.2-3.5 2.9-5.7 2.9-2.3 0-3.9-2.3-5.8-3.3z m-42.8 3.3c-2 0.2-5.3-0.7-5.5-2.7-0.4-2.7 3.7-4.5 6.3-5.7 3.3-1.3 7.6-1.9 10.7-0.2 0.8 0.4 1.6 1.4 1.2 2.2-0.8 2.3-4.7 1.9-6.9 3.1-1.9 1-3.5 3.3-5.8 3.3z m431.8 544.6c21.7 24.2 31.1 42 30.3 58-1 16-12.7 26.9-27.2 35.7-29.1 17.6-72.8 30.9-99.4 62.9-27.7 33-61.9 52-94.3 54.5-32.2 2.5-62.5-12.3-78.7-44.9v-0.2c-2.2-4.1-3.7-8.6-4.9-13.1-42 2.3-78.5-10.4-107.6-8-43 2.3-69.9 12.7-94.4 12.9-9.3 20.7-27.9 34.4-50.5 39.4-31.3 7.3-70.6 0-109.2-20.3-36.2-19.1-82.1-17.4-115.8-24.4-17-3.5-31.9-9.8-39.3-24-7.2-14.3-5.9-33.8 4.3-61.9 3.3-10 0.8-24.8-1.6-40.7-1.1-7.6-2.3-15.4-2.3-23 0-8.4 1.4-16.6 5.5-24.2 8.7-16.6 23-23.7 36.1-28.3 13.1-4.7 25-7.8 33.2-16.2 10.1-10.8 19.7-28.2 32.4-39.5-5.1-33.6 0.4-69.1 12.1-104.1 24.6-74 76.6-144.9 113.5-188.9 31.4-44.7 40.6-80.6 43.9-126.3 2.2-62.1-47.8-264.5 152.2-264.1 158 0.2 149 166.8 148 256.4-0.5 58.8 31.9 98.7 65.3 140.7 29.7 35.1 68.5 86.5 90.8 145.3 18.2 48 25.2 101.2 7.2 154.5 2.8 1 5.5 2.3 8 3.9 2.8 1.5 5.3 3.5 7.8 5.6 12.9 11 17 28 20.5 43.8 3.8 15.8 7.1 30.7 14.1 38.5z m-383.4-618.2c-6.2 14.1-7.6 29.1-5.7 42.6 7.1 1.7 17.4 4.7 25.4 8.6-4.1-23.8 8.8-45.9 23.1-44.9 17.4 0.5 27.1 30.2 17.8 53.3-1.6 3.7-5.5 6.6-7.7 9 13.1 4.5 21.5 8 24.7 9.5 15.4-18.5 21-51.1 8.4-78.9-19.2-41.8-66.8-42.6-86 0.8z m-79.5-22.5c-36.9 0-46.9 73.3-16.4 101.8 15.3-11.1 13.5-9.2 11.5-10.7-15.6-13.5-12.9-53.6 3.6-54.9 12.3-1 21 20.9 18.7 38.3 6.1-4.1 13.1-7.1 19.9-9 3.3-37.7-17.6-65.5-37.3-65.5z m-26.5 118.6c-8.2 6.4-11 14.5-8.2 24 2.9 9.6 11.9 20.5 28.7 29.9 15.2 9 23.4 22.5 39 29.3 5.1 2.2 11.2 3.7 18.8 4.1 35.9 2.2 52.9-22.1 74.6-29.1 22.8-7.2 39.2-21.5 44.3-35.3 6.3-16.6-4.1-28.8-20.5-35.6-22.1-9.6-31.8-10.2-44.1-18.2-20.1-12.8-36.7-17.3-50.6-17.3-28.1 0-45.3 19.1-54.5 27.7-1 1-15.4 11.5-27.5 20.5z m6.4 652.3c4.1-40-61.5-95.7-80.1-134.5l-38.3-69.6c-13.2-17.9-26.9-28.9-42.7-31.2-15.1-2.4-24.6 2.7-34.6 13.5-9.4 9.9-17.2 24-27.9 35.1-15.3 12.7-18.2 12.1-38.3 19.4-12.3 4.3-22.1 8.9-28.9 22-5.3 9.8-4.1 23.9-1.8 39.1 2.4 15.4 5.9 31.8 1.2 46.7v0.4c-9.8 26.7-9.8 42.3-5.1 51.5 15.4 30.1 91 11.9 149.4 42.8 61.4 32 141.8 33.4 147.1-35.2z m-2.7-50.5c73.4 50.2 160.5 30.6 223.2-14.1 6.3-21.5 12.3-41.6 13.3-56.6 1.6-29.7 3.1-56.1 8.6-78 6-24.6 18.2-45.1 41.8-53.3 4.5-41.2 36.5-41.2 74.8-24.4 36.9 16.6 50.8 31.2 44.5 51 2 0 3.9-0.2 8.2 0 10.2-33-27.9-54.7-59.9-68 5.6-23.4 4.7-47.1-0.8-69.7-11.7-49.4-44.2-93.4-68.8-115.3-4.5-0.2-4.1 3.8 5.1 12.7 22.7 20.9 72.5 96.1 45.5 165.9-7.6-2-14.8-3-21.3-2.8-10.3-56.8-34.2-103.9-46.1-126.2-22.4-41.7-57.6-127.5-72.6-186.9-8.8 12.5-24.2 23.3-43.6 29.3-9.2 3-18.9 10.8-31 17.6-27.2 15.6-58.6 17.2-82.8-2.3-8.8-7.1-15.7-14.9-24.7-20.2-3.1-1.7-9.9-6.4-12.1-8-3.9 73.9-53.3 166.6-76.7 220.2-16.2 38.4-25.8 79.6-27 120.1-42.6-56.9-11.5-129.5 5.1-161 18.6-34.3 21.5-43.9 17-40.6-16.8 27.4-43 70.9-53.1 115.6-5.3 23.3-6.3 46.9 0.6 68.8s21.6 42 48 58.4c0 0 48.4 27.9 74.8 63.5 14.5 19.5 19 36.5 14.5 48.6-4.9 13.1-18.8 17.4-32.7 17.4 9.4 11.7 20.2 25.4 28.2 38.3z m502.7-22.5c0.6-10-6.1-25.4-26.8-48-19.5-22.1-14-64.7-33.4-81.3-13.4-11.7-26.5-10.5-44.1-10-15 17.2-50.4 38.3-75 31.9-22.5-5.7-35.1-31.9-36.7-57.6-0.6 0.3-1.4 0.5-2 0.9-13.8 7.7-21.6 21.1-26.7 41.2-4.9 20-6.7 45.9-8.2 75.6-1.4 23.1-12.1 51.6-19.4 79.3-6.8 25.8-11.3 49.2-2.1 70.9 14.1 28.3 38.1 39.9 65.8 37.7 27.7-2.1 59.4-19.1 85.2-49.8 42.9-51.9 121.6-58 123.4-90.8z m-498.8-555.5c-6.9-5.4-6.1-12.9-3.3-12.7 4.6 0.6 5.4 6.9 8.4 9.6 3.9 3.7 8.9 8.6 15 13.5 12.1 9.6 28.3 18.9 48.6 18.9s44-11.7 58.4-19.9c8.2-4.7 18.6-12.9 27.2-19.1 6.6-4.9 6.2-10.6 11.7-10 5.5 0.6 1.6 6.3-6.1 12.9-7.6 6.6-19.3 15.2-28.9 20.3-18.1 9.6-39.4 21.1-62.1 21.1-22.4 0-40.4-10.5-53.3-20.7-6.4-5.1-11.7-10.2-15.6-13.9z" />
  </svg>
