<svg height="1000" width="1000" xmlns="http://www.w3.org/2000/svg"><path d="M0 158.4h152V566c0 64.7 29.3 103.1 53.1 119.2 -24.8 21.6 -100 40.8 -156.7 -5.5C15.2 652.3 0 606.8 0 564.5V158.4zm949 338.9v-43h46.5v-150h-51C924.8 213.9 844.5 146.7 748.6 146.7 638.1 146.7 548 236.5 548 347.3v350c31.3 4.5 69.2 -.6 101 -27.4 33.4 -27.3 48.5 -72.6 48.5 -115.2v-13.1h75.7v-150h-75.7v-45.5c0 -67.6 101.9 -67.6 101.9 0v150.6c0 110.5 89.9 200.6 200.6 200.6V547.9c-28.3 0 -51 -22.9 -51 -50.6zM374.2 303.9v220.7c0 30.1 -46.5 30.1 -46.5 0V303.9h-150v259.2c0 46.5 15.7 105.5 87.9 124.8 72.3 19.1 113.7 -20.7 113.7 -20.7 -4.1 26.2 -28.3 45.5 -68.2 49.4 -30.2 3.1 -68.7 -7 -87.9 -15.2v137.3c49.1 14.6 100.6 19.1 151.6 9.2 92 -17.8 150 -94.6 150 -196.9V302.9H374.2v1z"/></svg>