
  <svg height="1000" width="875.0" xmlns="http://www.w3.org/2000/svg">
    <path d="m645.7 475.6c-4.9-6.2-9.2-16.2-11.6-27.9-4.4-20.9-3.9-36 8.2-38 12.2-1.9 18.1 10.7 22.5 31.5 2.9 14.1 2.3 26.9-0.9 34.4-3-0.4-5.9-0.6-9-0.6-3.1 0-6.2 0.2-9.2 0.6z m-104.6 16.6c-8.7-3.8-20-8.1-33.7-7.2-24.6 1.5-42.5 14.1-44.1 6.8-0.8-3.6 4.7-9.6 10.5-13.8 10.2-7.5 22.8-11.9 36.3-11.9 8.4 0 16.3 1.7 23.5 4.7 16.9 7.2 27.4 21.8 23.7 25.5-2.1 2.3-7.5-0.2-16.2-4.1z m-17.6 10c18.9-2.2 33 9 30.1 13.4-1.2 2-3.9 1.6-9.6 0.9-3.7-0.5-7.3-0.8-11.1-0.8-9 0-17.6 1.7-25.5 4.7-7.9 3.1-8.4 2.2-10.2 1.5-3-6.9 8.6-16.9 26.3-19.7z m105.8 33.4c-6.6 13.5-34.5-0.1-27.9-13.7 6.6-13.5 34.5 0.3 27.9 13.7z m30.6-40c15.1 0.3 14.5 31.4-0.5 31.1-15-0.2-14.4-31.3 0.5-31.1z m-427.3 154.1c7.9-1.8 6.6 2.5 6.6 0.7 0.5 0.7 0.9 1.6 0.9 2.6 0 0.7-0.2 1.4-0.5 2-6.2 14.4-39.5 15-42.2-17.6-1.8-21.2 18.2-41.1-4.4-55.9-4-2.6-8.7-4.2-13.9-4.2-8.8 0-16.5 4.6-21 11.5-6.4 10-6.1 23.8-14.4 22.7-7.3-1.1-7.3-28.3 9.8-47 14.1-15.7 50.6-23.3 68.4 10.8 15.9 30-16 54.2-5.8 69.8 4.8 7.5 13.9 5.2 16.5 4.6z m585.4-33.3c12.6 0 32.3 14.6 32.3 49.3 0 34.7-14.4 74.1-17.8 82.8-106.2 254.5-516.7 254-629.4-5.8-61.6 0-125.4-52.7-131.9-118-0.6-5.3-0.9-10.6-0.9-16 0-17.4 3.1-34 8.9-49.4l-28.8-24.4c-132-111.4 280.7-570.1 412.6-455 0.7 0.6 44.9 44 45 44.1l24.5-10.4c115.8-47.9 209.7-24.8 209.8 51.7 0.1 39.8-25.2 86.1-65.9 128.2 51.2 47.5 39.1 139.9 42.1 162.1 14 3.9 59.9 14.9 80.3 36.2 35.8 37.6 10.7 77.3 5.9 84.5 8.3 22.1 6.7 17.2 13.3 40.1z m-617.2 94c57.5 1.4 75.5-55 66.6-112.9-19-122.9-176.1-95.7-164.1 24.1 4.8 47.5 52.9 87.7 97.5 88.8z m-36.2-223c37.8-101.2 100.7-194.4 184-258.6 61.8-51.6 128.5-88.6 128.5-88.6s-35.9-41.6-46.7-44.7c-66.7-18-210.8 81.4-302.8 212.7-37.3 53.1-90.5 147.2-65.1 195.7 3.1 5.9 20.9 21.4 30.5 29.3 15.9-23.3 42-40 71.6-45.8z m466.6 197.6c5.1-0.5 1.1 4.9 1.1 4.9s-53.5 24.9-138.7-1.4c2.4 19.9 21.9 28.9 31.2 32.5 61.3 23.9 169.3 5.1 250.9-50.8 1.6-1.1 2.7 0 1.4 2-56.6 80.7-251.4 106.9-295.7 41.7-23.5-34.8-1.1-85.7 38.2-80.4 13.3 1.5 105.1 15.6 196.3-26.7 53.7-24.9 73.9-52.3 70.9-74.5-1.1-7.1-4.4-13.4-9.3-18.2-9.7-9.4-24.9-16.8-50.7-24-8.6-2.4-14.3-3.9-20.6-6-11.1-3.6-16.5-6.5-17.8-27.3-0.5-9.1-2.1-40.9-2.7-54-1-23-3.7-54.4-23.2-67.4-5.3-3.4-11.6-5.3-18.4-5.3-2.8 0-5.6 0.3-8.2 1-11.1 1.8-17.7 7.8-25.9 14.6-24.3 20.3-44.8 23.6-67.7 22.6-13.6-0.6-28.1-2.7-44.6-3.7l-9.8-0.5c-38.3-2-79.2 31-86.1 77.9-9.5 65.3 37.8 99 51.4 118.8 2.1 2.5 3.4 5.5 3.8 8.9 0 3.8-2.4 6.8-4.9 9.3-39 40.2-51.5 103.9-36.7 157 1.8 6.5 4.1 13 6.9 19 34.6 80.6 141.6 118.2 246.1 84 13.7-4.5 27.1-10.1 39.7-16.7 23.1-11.5 43.6-26.8 60.8-45.6 27.8-28.9 44.3-60.5 50.7-99.3 5.5-36.3-15.2-36.6-22.4-35.3-2.6-16.5-7.4-32.6-13.9-47.4-30.5 24.1-69.7 40.9-99.6 49.5-135.5 38.9-176.1-12.4-188.3 27 66 24.1 135.8 13.8 135.8 13.8z m-296.6-377.4l0.1 0c-0.2 0.3-0.3 0.6-0.3 0.9 0 0.9 0.6 1.5 1.5 1.5 0.3 0 0.5-0.1 0.8-0.2 22.3-16.2 126.8-83.6 262.7-52.4 1.6 0.4 2.7-2.5 1.2-3.4-22.1-12.4-56-20.8-80.1-21-0.8 0-1.4-0.6-1.4-1.4 0-0.3 0.1-0.6 0.3-0.9 4.3-5.7 9.3-10.7 15-15.1 0.4-0.3 0.6-0.7 0.6-1.2 0-0.8-0.6-1.5-1.5-1.5 0 0 0 0-0.1 0-34.2 2.1-73.2 18.5-95.7 33.8-0.2 0.2-0.5 0.3-0.8 0.3-0.8 0-1.5-0.7-1.5-1.5 0-0.1 0-0.2 0.1-0.3 1.7-8.5 7.2-19.6 10.1-24.8 0.1-0.2 0.2-0.4 0.2-0.7 0-0.8-0.7-1.4-1.4-1.4-0.3 0-0.6 0.1-0.8 0.2-36 18.5-76.3 51.3-109 89.1z" />
  </svg>
