<svg height="1000" width="836.1" xmlns="http://www.w3.org/2000/svg"><path d="M833.1 632.3c-6 -12.9 -17.5 -21.8 -31.9 -25.2 -4.8 -22 -11.5 -32.8 -12.1 -34.4 2.5 -2.9 5 -5.8 5.5 -6.5 20.4 -25.3 7.1 -62.2 -27.7 -71 -19.5 -18.8 -37.3 -27.6 -51.8 -34.9 -13.9 -7 -8.4 -4.3 -21.5 -10.2 -3.4 -17 -4.6 -56.5 -10.1 -84.3 -5 -25 -15 -43.1 -30.4 -55C646.9 297.4 638.3 284 627.8 274.1c48.5 -74.4 61.3 -147.9 25.8 -186.3C637.8 70.6 614.3 62.5 586.2 62.5c-39.6 0 -88.3 16.1 -137.4 46 0 0 -32 -25.8 -32.7 -26.3C279.2 -25.6 -107.9 450.7 28.8 554.8l35.2 27c-22.1 61.6 8.7 135 72.9 158.6 14.2 5.2 29.5 7.8 45.5 6.9 0 0 103.7 190.1 322.5 190.2C757.9 937.6 822.3 690 823 687.8c0 0 20.5 -30.3 10.1 -55.5zM39.3 523.3C11.6 476.5 59.8 380.4 94.2 325.7 179 190.7 320.3 84.1 384.4 99.3l17.7 -6.7s48.1 40.7 48.2 40.7c33.1 -19.9 75.3 -40.2 114.8 -44.2 -24 5.4 -53.3 17.9 -88 39.1 -.8 .5 -82 55.3 -131.7 104.5 -27 26.8 -135.6 157.1 -135.5 156.9 19.8 -37.5 32.9 -55.9 64.3 -95.5C292 271.8 311 250.1 330.4 230c9 -9.3 18.1 -18.3 27.2 -26.8 6.3 -5.8 12.6 -11.4 18.9 -16.8 2.9 -2.5 5.7 -4.9 8.6 -7.3l-63.6 -52.5 3.3 23.5 46.3 40.8s-40.9 27.5 -61.3 44.9C228.2 305.5 148.1 412.4 118.3 516.5l1.4 -.1c-14.8 8.2 -29.6 21.3 -42.4 39.2C77 555.5 44 531.3 39.3 523.3zm135 195.5c-48.9 0 -88.6 -41.7 -88.6 -93.2s39.7 -93.2 88.6 -93.2c12.7 0 24.7 2.8 35.6 7.9 0 0 18.8 9.5 24.1 54.3 5.5 -14 8.3 -25.5 8.3 -25.5 6.3 19.3 9.5 39.6 8.2 60.1 5.3 -7 10.9 -20.1 10.9 -20.1 9.8 57.3 -32 109.7 -87.1 109.7zm109 -329.1s38 -72.4 121.7 -120.3c-6.2 -1 -21.5 1 -24.1 1.3 15.2 -13.1 43.4 -21.8 62.9 -25.8 -5.7 -3.6 -19.3 -4.5 -26 -4.7 -2 -.1 -2 -.1 -4.4 0 18.4 -10.2 52.4 -16.3 83.3 -10.8 -3.9 -5.2 -12.7 -8.9 -18.9 -10.8 -.5 -.1 -2.9 -.7 -2.9 -.7l2.3 -.6c18.6 -3.6 40.4 .3 57.6 7.2 -1.9 -4.5 -6.7 -9.8 -10.3 -13.1 -.4 -.4 -2.5 -1.9 -2.5 -1.9 18 3.7 35.2 11.6 48.2 20.5 -1.7 -3.4 -6.1 -9.2 -9.1 -12.3 17.2 4.9 36.5 17.2 44.8 34.8 .2 .4 .7 1.8 .8 2C574 229.4 478.8 236.5 383.5 298.3c-43.6 28.3 -75.6 59.2 -100.2 91.4zm514.3 285.8c-1.2 2.2 -13.2 67.2 -81.8 121.1 -86.7 68.1 -200.5 61.2 -243.5 23 -23 -21.4 -32.9 -52.2 -32.9 -52.2s-2.6 17.4 -3.1 24.2C419 762.1 420.5 726.1 420.5 726.1S411.3 743.3 407 753c-12.7 -32.5 -6.2 -66 -6.2 -66l-10 15.1s-4.8 -36.8 6.8 -67.4c12.5 -32.7 36.5 -56.4 41.3 -59.4 -18.3 -5.8 -39.3 -22.4 -39.4 -22.5 0 0 8.4 .6 14.2 -.7 0 0 -36.9 -26.5 -43.4 -67 5.4 6.6 16.6 14.1 16.6 14.1 -3.6 -10.6 -5.8 -34.1 -2.4 -57.3 7 -44.3 43.5 -73.2 84.8 -72.8 44 .4 73.6 9.6 110.5 -24.5 7.8 -7.2 14 -13.4 25 -15.8 1.1 -.2 4 -1.5 9.9 -1.5s11.7 1.4 16.9 4.5c20 11.9 24.4 43 26.5 65.8 8 84.5 4.8 69.5 39 86.9 16.3 8.3 34.6 16.2 55.5 38.5 0 .1 .1 .2 .1 .2h.3c17.6 .4 26.6 14.3 18.5 24.3C712.5 618 630 651.8 538.1 654.6c-3.8 .1 -12.3 .3 -12.4 .3 -37.1 1.2 -49.2 49.2 -25.9 78.1 14.8 18.2 43.1 24.2 66.4 24.3l.3 -.1c100.5 2 201.4 -69.1 218.9 -108.3 .1 -.3 1.2 -2.8 1.2 -2.8 -4.1 4.8 -101.9 96.9 -220.9 93.6 0 0 -13 -.3 -25.2 -3.1 -16.2 -3.8 -28.4 -10.9 -33.1 -27 9.8 2 22.3 3.3 36.8 3.3 85.9 0 147.7 -39.1 141.3 -39.6 -.3 0 -.5 .1 -.9 .2 -10.1 2.3 -113.3 42.3 -178.5 21.8 .2 -2 .5 -4 .9 -5.7 5.8 -19.4 16.1 -16.7 32.8 -17.5 59.6 -1.9 107.6 -16.9 143.6 -34 38.4 -18.2 67.6 -41.7 78.2 -53.5 13.6 23 13.6 52.5 13.6 52.5s5.3 -1.8 12.4 -1.8c22.2 0 26.8 19.9 10 40.2zM506 702.2c0 -.1 0 -.1 0 -.2 0 .1 0 .1 0 .2zm0 -.4c-.1 -.2 -.1 -.5 -.1 -.7 0 -1.3 0 -2.6 0 -4 0 1.5 0 2.8 0 4 0 .2 0 .5 .1 .7zm.2 2.9s0 .1 0 .1 0 -.1 0 -.1zm0 .2c.4 3.1 1 4.5 1.1 4.7 -.4 -.9 -.8 -2.6 -1.1 -4.7zM378.8 116.6l5.6 -17.3 9.6 34.6 -11.8 -3.8 -3.4 -13.5zm43.7 34.6l-7 -24.6 19.4 16.3c-4.3 2.8 -8.5 5.6 -12.4 8.3zM506 701.8c-.1 -.2 -.1 -.5 -.1 -.7 0 .2 0 .5 .1 .7zm-.1 -.7c0 -1.3 0 -2.6 0 -4 0 1.5 0 2.8 0 4zm.1 1.1c0 -.1 0 -.1 0 -.2m.2 2.8s0 -.1 0 -.1m0 .2c.4 3.1 1 4.5 1.1 4.7 -.4 -.9 -.8 -2.6 -1.1 -4.7zM608 434.2c-.1 -6.6 .9 -17.4 7.1 -19.4 10.6 -3.7 24.6 23.4 25.2 47.4 -8.3 -4.2 -18.2 -6 -28.2 -5.1 -2.6 -7.7 -3.8 -15 -4.1 -22.9zM401.1 166.5l-26.5 -22.2 40.2 12.3c-5.2 3.7 -9.8 7 -13.7 9.9zm54.1 326.1c-6.6 2.5 -11.4 4.5 -13.6 4.2 -3.7 -.6 -.2 -7.3 7.9 -13.9 16.3 -13 38.6 -17 57.7 -9.9 8.4 3.1 17.7 9.2 22.7 16.4 1.8 2.7 2.3 4.7 1.6 5.6 -1.5 1.8 -6.9 -.6 -14.8 -3.7 -20.2 -7.5 -35.1 -8.7 -61.5 1.3zm28.5 28.4c-4.6 1.8 -7.5 3.2 -8.7 2.3 -1.2 -1 0 -4.8 4.2 -8.8 3.7 -3.6 7.5 -5.6 11.9 -7.4 .7 -.3 1.4 -.6 2.1 -.8 2.1 -.5 4.1 -1.2 6.3 -1.5 17.8 -3 30.9 6.8 29.2 9.7 -.8 1.4 -4.1 1 -9 .7 -10.2 -.7 -20.9 -.5 -36 5.8zM118.9 631.1zm47.4 -50.4c-3.6 .8 -1.6 .4 -5.1 1.4a13.7 -13.7 0 0 1 -1.5 .5c-1.2 .5 -2.2 .8 -3.2 1.4 -.8 .5 -7.9 3.6 -13.7 10.7 -7.8 9.7 -10.7 22.3 -10.2 34.5 .5 11.8 4 18.4 4.6 20 2.7 5.8 -3.6 7 -9.3 .7 -4.6 -4.8 -7.6 -12.3 -9 -18.8 -5.9 -27.3 6.3 -54.7 34.4 -65.6 1.5 -.6 3.4 -1 4.8 -1.4 2.9 -.9 13.2 -3 23.6 -1.3 11.5 1.7 21.6 7.5 28 14.9v.1c4.9 5.6 8.7 13.5 8 20.5 -.3 3 -1.5 7.2 -4.2 8.3 -1 .4 -2 .2 -2.6 -.5 -2 -1.9 -.5 -5.7 -5.1 -12.3 -6.2 -8.8 -20.2 -17.1 -39.5 -13.1zm59.2 60.9c3.6 21.2 -11.7 40.1 -30.3 40.5 -13.1 .2 -20.2 -7.9 -18.9 -9.7 .6 -.8 2.6 -.4 5.6 0 16.6 2.6 26.7 -7.5 29.1 -18.1 .1 -.2 .7 -3 .7 -5 .1 -1.7 -.1 -3.4 -.3 -5 -2 -11 -14.6 -13 -22.7 -21.8 -7.3 -7.9 -5.8 -18 -1.3 -22.9 5.5 -5.4 13.4 -3.4 13.3 -1.5 0 1 -1.9 1.8 -4.3 3.4 -3 2.2 -3.4 4.2 -2.6 7.8 .5 2 1.4 3.2 3.3 4.7 6.7 5.4 25 9.2 28.4 27.6zM641.2 482.5c5.1 .8 8.3 7 7.2 13.9 -1.1 6.9 -6 11.9 -11.1 11.1 -5 -.8 -8.2 -7 -7.1 -13.9 1.1 -6.9 6 -11.9 11 -11.1zm-55.3 20.1c2.8 -5 10.6 -6 17.6 -2.2 6.9 3.8 10.3 10.9 7.5 16 -2.8 5 -10.6 6.1 -17.6 2.3 -6.9 -3.8 -10.3 -11 -7.5 -16.1z"/></svg>