<svg height="1000" width="763.4" xmlns="http://www.w3.org/2000/svg"><path d="M397 999.8c-1.9 -6.4 -3.3 -30.9 -2.7 -48 1.1 -31.1 1.9 -48.3 2.8 -56.2 1.2 -12.1 5.6 -40.5 6.4 -41.8 1.1 -1.8 .7 -54.4 -.5 -64.7 -.6 -5 -1.2 -23.2 -1.4 -40.4 -.2 -32.2 -1 -39.3 -5.3 -48.4 -2.1 -4.5 -2.4 -7.5 -1.9 -22.3 .3 -9.4 0 -20.6 -.7 -24.9 -4 -25.3 -6.7 -54.1 -6.3 -66.2 .4 -11.9 .8 -13.9 4 -18.9 5.9 -9.2 12.7 -27.4 16.8 -45.4 4.4 -19.3 7.6 -33.6 9 -40.5 1.7 -8.6 4.7 -19 8.5 -29.4 4.4 -12.2 4.9 -30.1 .7 -30.1 -.6 0 -2.7 2.4 -4.7 5.3s-9.3 9.4 -16.2 14.4c-16.3 11.9 -22.8 18.3 -24.7 24.6 -1.8 6 -2 14.1 -.3 15.1 .7 .4 2.5 4.7 4.1 9.6 3.2 9.5 3.7 19.7 1.4 30 -.7 3.4 -2 10.6 -2.8 16 -.8 5.4 -1.9 12.7 -2.5 16.1 -.5 3.4 -1.9 7.2 -3 8.3 -1.9 1.9 -2.2 1.8 -4 -1 -1.1 -1.7 -2.4 -5.9 -2.8 -9.3 -.5 -3.4 -3.2 -13.9 -6 -23.3C358.5 507.1 358 496.9 363 487.5c1.8 -3.4 3.3 -7.5 3.3 -9 0 -4.7 -4.3 -10.4 -14.5 -19.4 -13.8 -12 -16.9 -15.4 -20 -22 -3.3 -7.1 -6 -8 -8.9 -3 -3.4 5.8 -5 17.8 -5.8 43l-.7 23.7 3.9 4.4c6.2 7.2 23.5 32.1 26.9 38.7 6.6 13.2 8.4 22.8 8.6 46 .1 23.1 1.8 44.4 3.9 48.3 .7 1.3 1 2.6 .7 2.9 -.4 .4 .8 4.1 2.5 8.4 1.7 4.2 3.5 12.1 4 17.5s2 14.5 3.3 20.3c4.4 18.6 5.4 27.5 4.7 39.3 -.4 6.4 -1 21.6 -1.4 33.8 -2.6 81.6 -3.6 113.3 -4 119.6 -.2 3.9 -.8 22.5 -1.2 41.1 -.7 31.9 -2.5 53.5 -4.7 56 -1.3 1.4 -15.8 -9.6 -24.5 -18.5 -7.3 -7.6 -7.8 -9.4 -5.5 -19.5 1.4 -5.9 4.4 -35.7 6.5 -63.7 .7 -9.3 1.6 -20.5 2 -24.8 1.6 -18.3 3.2 -39.8 5.1 -67.9 1.1 -16.6 2.6 -32.2 3.3 -34.7 .8 -2.5 1.8 -19.3 2.3 -37.3l.8 -32.8 -4.4 -8.3c-3.4 -6.5 -9.5 -13.6 -25.8 -30 -11.8 -11.9 -23.2 -24 -25.3 -27.1l-3.8 -5.4 1.5 -21.3c2.1 -30.7 2.1 -94.9 0 -115.4l-1.7 -17 -6.4 -8.8c-11.4 -15.8 -11.3 -15.1 -12.2 -65 -.1 -11.8 -.7 -22.5 -1.2 -23.5 -1.6 -3.7 -5.9 -5.2 -16.7 -6 -17.3 -1.2 -21.4 -3.7 -46.5 -28.4C199 309.9 187 298.3 184.2 295.9c-5.5 -4.7 -5.4 -3.9 -1.1 -18.8l2.6 -9.1 -3.3 -5.9c-1.8 -3.3 -4 -6.9 -5 -8 -2.6 -2.9 -10.8 -21.2 -11.7 -26.3 -.6 -3.2 -.2 -5.2 1.7 -7.6 4.3 -5.6 6.6 -11.1 8.7 -21 4.5 -21.8 15.1 -50.9 20.7 -57.1 6.2 -6.7 15 -2 18.4 9.9 2.6 9.3 2.6 19.1 .2 36.2 -1.1 7.2 -2 17 -2 21.7 0 7.8 .4 9.2 4.4 14.4 6.5 8.6 15.1 14.5 29.7 20.6 3.3 1.4 7.5 3.9 9.2 5.5 21.8 21 36.4 31.7 44.8 33 10.2 1.5 15.6 8.8 19.7 26.1 2.5 11 7.8 21.8 10.6 21.8 1.2 0 4.1 -1.3 6.5 -2.7 3.9 -2.4 4.4 -3.4 4.4 -8.2 0 -7.3 -2.3 -27.5 -3.9 -34.9 -.7 -3.2 -1.5 -7.9 -1.8 -10.4 -.3 -2.5 -1.2 -7.5 -2 -11.1 -5 -21.8 -7.1 -30.2 -8 -31.4 -3.1 -3.9 -8 -19.9 -9.7 -31.1 -3.2 -21.7 -7.7 -27.8 -25.2 -33.9 -9 -3.2 -17.3 -8.1 -26 -15.2 -2.2 -1.9 -7.8 -6.3 -12.4 -9.9 -4.6 -3.6 -8.6 -6.9 -9 -7.3 -.3 -.5 -2.7 -2.3 -5.2 -4 -12.2 -8.2 -17.3 -13.6 -22 -23.3L212.7 98l-.4 -25.3 -.4 -25.4 13.5 -12.7c7.7 -7.4 16.5 -14.4 20.6 -16.5 6.5 -3.3 8.7 -3.7 22.2 -4 16.7 -.4 19.8 0 22.8 3s2.7 12.5 -.6 16.6c-1.4 1.9 -2.6 3.9 -2.6 4.6 0 1.1 -5.1 9.6 -10.6 17.5 -1.3 2 -4.1 10.5 -4.6 13.3 39.9 26.2 42.1 7.4 27.5 56.6l22.3 5c6 -16.9 12.6 -33.7 16.8 -51.2 .5 -14.9 -23.4 -8.2 -30.1 -17C304.6 51 315.2 34.8 320.9 25c3.2 -4.5 13 -9.1 17.3 -8.1 1.7 .5 8.1 -.7 14.4 -2.5 6.2 -1.8 12.8 -3.2 14.7 -3.2 1.9 0 7.2 -1.2 11.7 -2.6 7.1 -2.1 8.8 -2.3 12.4 -.7 2.3 .9 7.4 2.1 11.4 2.6 3.9 .5 9.2 2.2 11.7 3.7 2.5 1.6 6.9 3.5 9.8 4.3 4.9 1.3 5.8 1.1 13.7 -3.3l8.5 -4.7 20.9 -.8c20.4 -.8 21.2 -.9 29.8 -5.2l9 -4.5 4.8 2.8c3.4 2 6.1 5.3 9.5 11.7 4.6 8.8 4.6 8.9 2.6 14.4 -1.7 4.7 -1.7 6.4 -.2 12.4 1 3.9 2.9 9.1 4.2 11.6 1.2 2.5 2.4 6 2.5 7.8 .6 8.5 0 10.4 -4.7 13.5 -4.2 2.9 -13.6 15.5 -13.6 18.3 0 .6 -1 3.3 -2.1 5.9 -9.9 22.5 -13.2 26.5 -27.9 33.2 -17.9 8.2 -24 10.1 -31.6 10.1 -6.1 0 -7.8 .5 -8.9 2.5 -.7 1.3 -4.3 4.6 -8 7.2 -4 2.9 -7.4 6.6 -8.5 9.3 -1.1 2.5 -3.3 5.1 -4.9 5.7 -1.6 .7 -3.8 2.1 -4.8 3.4 -1 1.2 -7.1 5.9 -13.7 10.5 -6.5 4.5 -13.4 9.8 -15.3 11.6 -2 1.8 -4.1 3.4 -4.7 3.4s-2.5 1.4 -4.2 3.2c-2.5 2.7 -2.9 4.1 -2.2 9 .4 3.1 1.7 8.3 2.8 11.4 2.6 7.5 2.5 15.4 -.1 20.7 -2.8 5.6 -1.8 13 2.6 18.7 4 5.2 4.2 8.9 1.4 17.3 -1.2 3.5 -2 10.6 -2.1 17.4 0 9.5 .5 12.3 2.9 16.4 2.3 3.9 3.5 4.8 6.3 4.5 3.9 -.5 4.5 -2.1 9.2 -23.7 4.3 -19.6 7.3 -23.3 26.9 -33.3 5.7 -3 14.6 -7.8 19.6 -10.7 5 -2.9 13.2 -7.2 18.3 -9.6 13 -6.1 21.6 -12.7 29.7 -22.8 13.9 -17.1 19.5 -31.6 25.1 -65 1.1 -6.4 2.8 -11 5.6 -15.1 2.5 -3.6 4.6 -9 5.6 -14.3 2 -10.3 5.6 -17.7 10.9 -22.4 9.2 -8.2 11.8 -2.2 9 21.2 -.9 7.5 -2.1 20.2 -2.8 28.1l-1.2 14.3 8.7 8 8.7 8 .2 16.5c.1 9 .9 18.6 1.8 21.2l1.6 4.9 -12.6 12.2c-16.6 16.3 -25.1 27.2 -32.7 42.2 -3.5 6.8 -7.3 13.9 -8.6 15.7 -4.2 6.1 -12.6 25.4 -17.1 39.6l-4.4 14.1 -13.6 12.7c-7.5 6.9 -15.6 14.1 -18 15.9 -5.9 4.6 -8.3 10.1 -8.3 19.5 0 5.9 .9 9.7 3.1 14.2 1.7 3.4 3.6 7.6 4.1 9.4 .6 1.8 1.9 4.4 3.1 5.7 2.7 3.1 3.7 31.5 1.6 45.3 -1.3 8.8 -7.1 23.5 -9.2 23.5 -3.5 0 -7.9 18.1 -9.9 40.5 -.3 4 -1.2 11.6 -1.9 17s-1.9 19.5 -2.6 31.4c-1.5 23.8 -.4 36.6 4 45.2 6.6 13 1 24.8 -21.6 44.6l-7.7 6.8 .1 10.1c.1 5.6 1.1 13.4 2.2 17.4 9 31.2 9.3 33 8.6 72.5 -.9 51.5 -.5 78.6 1.2 86.2 .8 3.6 1.8 9.8 2.1 13.7 .4 4 1.3 10.4 2.1 14.4 1 4.4 1.6 21.5 1.6 44.4v37.2l-3.5 5.2c-5.3 7.6 -29.5 26.4 -30.3 24zm57.7 -88.1c-.3 -.6 -.6 -13.4 -.6 -28.5 0 -27.5 -1.8 -53.8 -4.5 -67.3 -.7 -3.9 -1.5 -18.9 -1.7 -33.3 -.3 -23.3 -2.7 -47.6 -5.2 -51.5 -1.3 -2.1 -5.9 -34.5 -5.9 -41.6 0 -8.3 2 -11.8 10.3 -17.9 8.1 -5.9 9.5 -6.1 10.7 -1.4 .6 2.2 2.9 11 5.1 19.6 7.7 29.5 8.1 31.8 7.9 42.5 -.2 11.3 -.2 11.9 -3.4 34.6 -1.9 13.8 -2.3 24.2 -2 55.5 .3 37.9 -1.3 69.8 -4 80.6 -1.4 5.5 -5.5 10.7 -6.7 8.7zM316.1 838.3c-.5 -.8 -2 -10.3 -3.4 -21.1 -1.4 -10.9 -2.9 -20.3 -3.4 -21.1 -.5 -.7 -1.3 -6.4 -1.9 -12.6 -.6 -6.3 -1.8 -14.6 -2.6 -18.6 -2 -9.3 -6.6 -37.8 -6.7 -41.1 -.1 -1.5 -.7 -7.9 -1.4 -14.4 -1.3 -12.1 -1.6 -54 -.4 -55.2 1.9 -1.9 12.9 5.4 22.1 14.5l10.3 10.2 -.8 12.7c-.5 6.9 -1.2 19.9 -1.6 28.9 -.3 9 -.9 19.3 -1.3 22.9 -.3 3.6 -1.2 18.3 -1.8 32.7 -1.6 34 -3.8 61.1 -5.2 62.5 -.6 .5 -1.5 .4 -1.9 -.3zM145.8 317.6c41.1 25 34.8 27.6 55.6 34.5 25.4 8.4 36.9 13.9 45.2 32.9C161.3 455.6 111.8 498.1 96.8 523.4 36.2 624.9 85.1 721.8 219.4 693.7 191.7 750.8 67.1 749.6 26.6 684.1c-48.2 -78 -43.1 -231 119.2 -366.5zm411.7 349.6C668.1 680.7 718.2 593.5 648.4 493c0 0 -52.5 -57.3 -125.6 -132.8 5.8 -30.1 18.5 -62.7 59.7 -105.1 174.2 124.1 179.7 276.6 180.6 291.7 8.3 137.9 -153.6 178 -205.6 120.4z"/></svg>