
  <svg height="1000" width="875.0" xmlns="http://www.w3.org/2000/svg">
    <path d="m453.7 999.8c-2-6.4-3.3-30.9-2.8-48 1.1-31.1 2-48.3 2.8-56.2 1.2-12.1 5.6-40.5 6.4-41.8 1.2-1.9 0.8-54.4-0.5-64.7-0.6-5-1.2-23.2-1.3-40.4-0.3-32.2-1.1-39.3-5.4-48.4-2.1-4.5-2.4-7.5-1.9-22.3 0.1-2.6 0.1-5.2 0.1-7.7 0-5.9-0.2-11.4-0.8-17.2-3.9-25.3-6.7-54.1-6.3-66.2s0.8-13.9 4-18.9c5.9-9.2 12.7-27.3 16.8-45.4 4.4-19.3 7.6-33.6 9-40.5 2.2-10 5.1-20 8.6-29.4 4.5-12.2 4.9-30.1 0.7-30.1-0.5 0-2.6 2.4-4.7 5.3-2 2.9-9.3 9.4-16.2 14.4-16.3 11.9-22.8 18.3-24.7 24.6s-1.9 14.1-0.3 15.1c0.7 0.4 2.5 4.7 4.1 9.6 1.8 5.5 2.8 11.4 2.8 17.5 0 4.3-0.5 8.4-1.4 12.5-0.7 3.4-1.9 10.6-2.8 16-0.9 5.4-2 12.7-2.5 16.1-0.3 3-1.4 5.9-3 8.3-1.9 2-2.2 1.8-4-1-1.4-2.9-2.4-6-2.8-9.3-0.5-3.4-3.2-13.9-6-23.3-6.4-21.3-6.9-31.5-2-41 1.6-2.7 2.7-5.8 3.3-9 0-4.7-4.3-10.4-14.5-19.3-13.7-12.1-16.8-15.5-20-22.1-3.3-7-5.9-7.9-8.8-3-3.5 5.8-5.1 17.8-5.9 43l-0.7 23.8 4 4.4c6.2 7.2 23.5 32.1 26.9 38.7 6.6 13.2 8.4 22.8 8.6 46 0.1 23.2 1.8 44.4 3.9 48.3 0.7 1.3 1 2.6 0.7 2.9s0.8 4.1 2.5 8.4c2 5.5 3.4 11.5 4 17.6 0.7 6.8 1.9 13.6 3.3 20.2 4.4 18.7 5.4 27.5 4.7 39.3-0.4 6.4-1 21.7-1.4 33.9-2.6 81.5-3.6 113.3-3.9 119.5-0.3 3.9-0.8 22.5-1.2 41.2-0.7 31.8-2.5 53.4-4.7 55.9-1.3 1.5-15.8-9.6-24.5-18.5-7.3-7.6-7.8-9.4-5.5-19.4 1.4-5.9 4.4-35.8 6.5-63.8 0.7-9.3 1.6-20.5 1.9-24.8 1.7-18.3 3.3-39.7 5.1-67.9 1.1-16.5 2.6-32.1 3.4-34.6s1.7-19.3 2.2-37.4l0.9-32.7-4.5-8.4c-3.3-6.4-9.5-13.6-25.8-30-11.7-11.8-23.1-24-25.2-27l-3.8-5.5 1.5-21.3c2.1-30.7 2.1-94.9 0-115.4l-1.8-16.9-6.4-8.9c-11.4-15.8-11.3-15.1-12.1-65-0.2-11.8-0.8-22.4-1.3-23.5-1.6-3.7-5.9-5.2-16.6-6-17.3-1.2-21.5-3.7-46.6-28.4-12-11.7-24.1-23.4-26.9-25.7-5.5-4.8-5.4-3.9-1.1-18.9l2.7-9-3.3-5.9c-1.5-2.8-3.2-5.4-5.1-7.9-2.6-3-10.7-21.3-11.7-26.4-0.2-0.7-0.3-1.4-0.3-2.2 0-2.1 0.7-4 2-5.4 4.3-5.6 6.6-11.1 8.7-21 4.5-21.8 15.1-50.9 20.7-57 6.2-6.8 15-2 18.4 9.7 2.6 9.4 2.6 19.2 0.2 36.3-1.1 7.1-1.7 14.3-2 21.7 0 7.8 0.4 9.1 4.4 14.4 6.5 8.5 15.1 14.5 29.7 20.5 3.3 1.4 6.4 3.3 9.2 5.6 21.8 20.9 36.4 31.6 44.8 32.9 10.1 1.6 15.6 8.9 19.6 26.2 2.5 11 7.8 21.7 10.6 21.7 2.4-0.5 4.6-1.4 6.5-2.7 3.9-2.4 4.4-3.4 4.4-8.2-0.5-11.8-1.8-23.4-3.9-34.8-0.7-3.2-1.5-7.9-1.8-10.4-0.3-2.6-1.2-7.6-2-11.2-4.9-21.8-7.1-30.2-8-31.2-3-3.9-7.9-19.9-9.6-31.1-3.2-21.7-7.8-27.8-25.2-34-9.6-3.5-18.5-8.8-26.1-15.4-2.2-1.9-7.8-6.2-12.4-9.8-4.6-3.6-8.6-6.9-9-7.4-1.6-1.4-3.3-2.7-5.2-3.9-12.2-8.2-17.3-13.7-22-23.4l-4.8-9.8-0.4-25.4-0.4-25.4 13.5-12.8c7.7-7.3 16.5-14.3 20.7-16.4 6.4-3.3 8.6-3.7 22.2-3.9 16.6-0.4 19.7 0 22.7 3 3 3.1 2.7 12.5-0.5 16.6-1.2 1.3-2.1 2.9-2.6 4.5 0 1.2-5.1 9.6-10.6 17.6-2.1 4.2-3.6 8.7-4.7 13.3 40 26.2 42.1 7.4 27.5 56.7l22.2 4.9c6.1-16.9 12.6-33.7 16.8-51.2 0.6-14.9-23.4-8.2-30.1-17-4.5-11.5 6.2-27.7 11.9-37.5 3.1-4.5 12.9-9.1 17.2-8.1 1.7 0.5 8.1-0.6 14.4-2.5 4.7-1.5 9.7-2.6 14.7-3.2 4.1-0.5 8-1.3 11.8-2.6 7.1-2.1 8.8-2.3 12.4-0.7 3.6 1.2 7.4 2.1 11.3 2.6 4.2 0.6 8.2 1.9 11.8 3.7 3 1.8 6.3 3.3 9.7 4.3 4.9 1.3 5.9 1.1 13.8-3.3l8.5-4.7 21-0.7c20.4-0.8 21.1-1 29.8-5.3l8.9-4.5 4.8 2.8c3.5 1.9 6.2 5.3 9.5 11.7 4.6 8.8 4.6 9 2.7 14.4-1.8 4.8-1.8 6.5-0.2 12.5 1 4 2.4 7.9 4.1 11.5 1.2 2.4 2.1 5.1 2.5 7.8 0.6 8.5 0 10.4-4.7 13.6-4.2 2.8-13.6 15.4-13.6 18.2-0.5 2-1.2 4-2.1 5.9-9.8 22.4-13.2 26.4-27.9 33.2-18 8.2-24 10.1-31.6 10.1-6.1 0-7.9 0.5-8.9 2.5-2.3 2.8-5 5.2-8 7.2-3.6 2.4-6.5 5.6-8.6 9.3-0.9 2.4-2.6 4.4-4.8 5.7-1.9 0.8-3.5 1.9-4.8 3.4-4.3 3.8-8.9 7.3-13.7 10.5-6.5 4.5-13.4 9.7-15.4 11.7-1.3 1.4-2.8 2.5-4.6 3.3-1.6 0.7-3.1 1.9-4.2 3.2-2.5 2.7-2.9 4.2-2.2 9 0.6 3.9 1.6 7.8 2.8 11.5 2.6 7.4 2.5 15.4 0 20.6-2.6 5.3-1.8 13 2.6 18.8 3.9 5.1 4.2 8.9 1.4 17.2-1.3 5.3-2.1 10.8-2.1 16.4 0 0.4 0 0.7 0 1 0 9.6 0.5 12.3 2.9 16.4 2.4 4.1 3.5 4.9 6.3 4.5 3.9-0.4 4.5-2 9.2-23.6 4.3-19.6 7.3-23.3 26.9-33.4 5.7-2.9 14.6-7.8 19.5-10.6 5-2.8 13.3-7.2 18.3-9.6 11.7-5.1 21.9-12.9 29.8-22.8 13.8-17.2 19.5-31.7 25.1-65 0.7-5.5 2.6-10.7 5.5-15.1 2.8-4.3 4.7-9.2 5.7-14.3 1.9-10.4 5.5-17.7 10.9-22.5 9.2-8.2 11.7-2.1 8.9 21.2-0.9 7.6-2.1 20.2-2.8 28.1l-1.2 14.4 8.7 8 8.7 8 0.2 16.4c0.2 9.1 1 18.6 1.8 21.3l1.6 4.8-12.5 12.3c-16.7 16.3-25.2 27.2-32.8 42.2-3.4 6.8-7.3 13.9-8.5 15.6-4.3 6.1-12.6 25.4-17.1 39.6l-4.5 14.1-13.7 12.7c-7.4 6.9-15.6 14.1-17.9 15.9-5.9 4.6-8.3 10.1-8.3 19.6 0 0.3 0 0.8 0 1.2 0 4.6 1.1 9 3.1 12.9 1.6 3.1 2.9 6.2 4.1 9.5 0.7 2 1.7 3.9 3.1 5.6 2.7 3.1 3.7 31.5 1.6 45.4-1.3 8.7-7.1 23.4-9.2 23.4-3.5 0-7.9 18.1-9.9 40.5-0.4 3.9-1.2 11.6-2 17s-1.9 19.5-2.6 31.3c-1.5 23.9-0.4 36.7 3.9 45.3 6.7 13 1 24.7-21.5 44.6l-7.8 6.8 0.2 10.1c0.1 6 0.8 11.8 2.2 17.3 9 31.3 9.2 33.1 8.5 72.6-0.9 51.5-0.5 78.6 1.3 86.2 0.9 4.5 1.6 9 2.1 13.7 0.3 3.9 1.3 10.4 2.1 14.3 0.9 4.5 1.5 21.5 1.5 44.5v37.2l-3.5 5.1c-5.3 7.7-29.5 26.5-30.3 24z m57.6-88.1c-0.3-0.6-0.6-13.4-0.6-28.5 0-27.5-1.8-53.8-4.4-67.3-0.8-3.9-1.6-18.9-1.8-33.3-0.3-23.3-2.7-47.6-5.1-51.5-1.3-2.1-5.9-34.5-5.9-41.6 0-8.3 1.9-11.8 10.3-17.9s9.5-6.1 10.7-1.4c0.6 2.2 2.8 11 5.1 19.5 7.7 29.6 8.1 31.8 7.9 42.5-0.2 11.3-0.3 12-3.4 34.6-2 13.8-2.3 24.2-2 55.6 0.4 37.9-1.2 69.7-3.9 80.6-1.3 5.4-5.4 10.7-6.7 8.6z m-138.6-73.4c-1.5-6.9-2.7-14-3.4-21.1-0.8-7.1-1.9-14.2-3.4-21.1-1-4.1-1.7-8.3-2-12.6-0.6-6.3-1.7-14.6-2.6-18.6-1.9-9.3-6.5-37.8-6.6-41.1 0-1.5-0.7-7.9-1.4-14.4-1.3-12.1-1.6-54-0.4-55.2 1.9-2 12.9 5.4 22.1 14.5l10.3 10.2-0.9 12.7c-0.5 6.9-1.1 19.9-1.5 28.9-0.3 9-0.9 19.3-1.3 22.9s-1.2 18.3-1.8 32.7c-1.6 34-3.8 61.1-5.2 62.5-0.2 0.2-0.5 0.3-0.9 0.3-0.5 0-0.9-0.2-1.1-0.6h0.1z m-170.3-520.7c41.1 25 34.8 27.6 55.6 34.5 25.4 8.4 36.9 13.9 45.2 32.9-85.2 70.6-134.7 113-149.8 138.4-60.5 101.6-11.7 198.5 122.6 170.4-27.7 57.1-152.4 55.9-192.8-9.6-48.2-78-43.1-231.1 119.2-366.5v-0.1z m411.7 349.6c110.6 13.4 160.8-73.7 90.9-174.3 0 0-52.5-57.3-125.6-132.8 5.9-30.2 18.6-62.7 59.7-105.1 174.3 124 179.7 276.6 180.6 291.7 8.4 138-153.7 178.1-205.6 120.5v0z" />
  </svg>
