
  <svg height="1000" width="875.0" xmlns="http://www.w3.org/2000/svg">
    <path d="m845.7 349.8c0 0 1.6 140.1-17.6 237.3-12.1 61.7-107.6 129.3-217.2 142.4-39.3 4.7-181.9 27.7-349.1-13.1 0 0.3 0 0.3 0 0.5 0 9 0.6 17.9 1.7 26.7 13 96.8 96.1 102.7 175.1 105.4 79.7 2.6 150.6-19.7 150.6-19.7l3.3 72.1s-55.7 29.9-154.9 35.3c-54.7 3.2-122.7-1.3-201.8-22.2-219.2-58-206.3-338.7-206.3-564.7 0-189.8 124.4-245.5 124.4-245.5 121-55.5 445.3-56 567.4 0 0 0 124.4 55.7 124.4 245.5z m-146.7 244.6c0-238.3 10.3-288.5-36-341.9-50.2-56-155.7-60.5-202.8 12l-22.6 38-22.7-38c-46.9-72.1-152.2-68.4-202.8-12-46.1 53-35.9 103.4-35.9 341.8h91.2v-223c0-97.1 125-100.8 125 13.5v122.1h90.5v-122.1c0-114.3 125-110.6 125-13.5v223.1h91.1z" />
  </svg>
