<svg height="1000" width="816" xmlns="http://www.w3.org/2000/svg"><path d="M816 349.8C816 160 691.6 104.3 691.6 104.3 569.5 48.2 245.3 48.8 124.4 104.3 124.4 104.3 0 160 0 349.8c0 226 -12.9 506.6 206.3 564.7 79.1 20.9 147 25.3 201.7 22.2 99.2 -5.4 154.9 -35.3 154.9 -35.3l-3.3 -72.1S488.7 851.6 409 849C330.1 846.3 246.9 840.4 234 743.6c-1.2 -8.6 -1.8 -17.6 -1.8 -27.2 167.2 40.8 309.8 17.8 349.1 13.1 109.5 -13.1 205 -80.7 217.1 -142.4C817.6 489.8 816 349.8 816 349.8zM669.3 594.3h-91v-223c0 -97.1 -125 -100.8 -125 13.5v122h-90.4v-122c0 -114.3 -125 -110.6 -125 -13.5v223h-91.2c0 -238.4 -10.2 -288.8 35.9 -341.8 50.6 -56.4 155.9 -60.1 202.8 12l22.6 38 22.7 -38c47 -72.5 152.5 -68 202.7 -12 46.3 53.4 35.9 103.6 35.9 341.8z"/></svg>