
  <svg height="1000" width="1125.0" xmlns="http://www.w3.org/2000/svg">
    <path d="m33.9 313.3h90.5l82.6 229.2 79.5-229.2h88.9l25 374.2h-88.9l-9.4-151.2-49.9 151.2h-87.3l-54.5-155.9-11 155.9h-85.7z m548.9 0c0 0 182.4 3.1 183.9 187.1 1.6 188.7-183.9 187.1-183.9 187.1h-93.6v-374.2h93.6z m-2.4 286.1c0 0 93-10.2 91.4-100.7-1.5-90.4-91.4-98.7-91.4-98.7v199.4z m465.4-145c0 0 65.5 23.3 65.5 107.6 0 134-169.9 124.7-169.9 124.7h-88.9v-374.2h101.4s97.1-2.8 107.5 67c0.9 5.4 1.2 10.9 1.2 16.5 0 21.5-6.1 41.5-16.8 58.4z m-101.3-62.4v42.1h23.4s10.6-10.4 7.8-23.4c-4.7-21.8-31.2-18.7-31.2-18.7z m-0.2 213.8c0 0 80.1 9.6 80.8-40.5 0.7-53.1-80.5-43.8-80.5-43.8h-0.1v35.6z" />
  </svg>
