<svg height="1000" width="625" xmlns="http://www.w3.org/2000/svg"><path d="M231.1 465.6c6.8 -24.4 13.4 -65.6 25.7 -65.6 16.2 3.5 18.8 45.7 36.4 71.5 8.9 -45.9 10.3 -166.2 27.5 -169.4 17.6 -1.3 38.5 129.9 43 151.4 19.3 8 95.5 12.9 95.5 12.9 3.7 14.3 -46.9 14.9 -78.1 15.2 -9 28.9 -10.6 54.1 -22.3 54.7 -9.2 .4 -16 -56.2 -34.2 -96.8l-18.3 127.9c-8.6 25.4 -30.3 -44 -42.8 -76.8 -6.5 -.2 -121.9 -3.1 -93 -15.2l60.6 -9.8zM445.3 875c41.4 0 41.4 -62.5 0 -62.5H179.7c-41.4 0 -41.4 62.5 0 62.5h265.6zm-46.9 125c41.4 0 41.4 -62.5 0 -62.5H226.6c-41.4 0 -41.4 62.5 0 62.5h171.8zm66.8 -276.4c6.3 -36.9 10.2 -71.1 23.3 -95.3 15.4 -28.7 31.4 -54.9 46.9 -80.1C583.4 469.3 625 401.4 625 303.1 625 135.9 484.8 0 312.5 0S0 135.9 0 303.1c0 98.1 41.6 166.2 89.6 245.1 15.5 25.2 31.3 51.4 46.9 80.1 13.1 24.4 17 58.2 23.3 95.5 6.8 41 70.5 30.7 63.6 -9.9 -7 -42.4 -10.9 -79.5 -29.8 -114.5C129.9 481.4 64.5 412.7 64.5 303.1c0 -132.6 111.3 -240.6 248 -240.6s248 108 248 240.6c0 109.6 -65.4 178.3 -129.1 296.1 -18.9 35.2 -22.8 73.1 -29.8 114.5 -6.7 40.2 56.6 51.5 63.6 9.9z"/></svg>