
  <svg height="1000" width="1062.5" xmlns="http://www.w3.org/2000/svg">
    <path d="m222.1 500c0 237.9 163.8 435.2 377.9 470.9-36.5 8.8-74.6 13.5-113.7 13.5-268.7 0-486.3-216.8-486.3-484.4s217.6-484.4 486.1-484.4c39.3 0 77.4 4.7 113.7 13.5-214.1 35.7-377.7 233-377.7 470.9z m580.8 195.9c151.8-108.2 203.9-302.9 130.9-456.8 21.9 19.3 42 41.6 59.6 66.8 120.3 172.4 79.6 410.7-90.9 532.4-170.5 121.7-406.4 80.5-526.7-91.8-17.6-25-31.7-51.6-42.4-79.1 118.7 121.3 317.8 136.7 469.5 28.5z m-427.3-476.6c141.6-106.6 335.1-89.2 432.8 38.7 88.5 116.6 67.2 284.4-43.6 394.2 36.2-100.4 22.1-216.8-47.6-308.6-84-110.4-223.8-153-349.4-118.2 2.5-2 5.1-4.1 7.8-6.1z m202.5 218.2h78.2c8.5 0 15.6 7 15.6 15.6v93.8c0 8.6-7.1 15.6-15.6 15.6h-78.2c-8.6 0-15.6 7-15.6 15.6v78.2c0 8.5-7 15.6-15.6 15.6h-93.8c-8.6 0-15.6-7.1-15.6-15.6v-78.2c0-8.6-7-15.6-15.6-15.6h-78.1c-8.6 0-15.7-7-15.7-15.6v-93.8c0-8.6 7.1-15.6 15.7-15.6h78.1c8.6 0 15.6-7 15.6-15.6v-78.1c0-8.6 7-15.7 15.6-15.7h93.8c8.6 0 15.6 7.1 15.6 15.7v78.1c0 8.6 7 15.6 15.6 15.6z" />
  </svg>
