<svg height="1000" width="1062.5" xmlns="http://www.w3.org/2000/svg"><path d="M222.1 500c0 237.9 163.8 435.2 377.9 470.9 -36.5 8.8 -74.6 13.5 -113.7 13.5C217.6 984.4 0 767.6 0 500S217.6 15.6 486.1 15.6c39.3 0 77.4 4.7 113.7 13.5C385.7 64.8 222.1 262.1 222.1 500m580.8 195.9C651.2 804.1 452.1 788.7 333.4 667.4c10.7 27.5 24.8 54.1 42.4 79.1C496.1 918.8 732 960 902.5 838.3c170.5 -121.7 211.2 -360 90.9 -532.4 -17.6 -25.2 -37.7 -47.5 -59.6 -66.8 73 153.9 20.9 348.6 -130.9 456.8M375.6 219.3c-2.7 2 -5.3 4.1 -7.8 6.1 125.6 -34.8 265.4 7.8 349.4 118.2 69.7 91.8 83.8 208.2 47.6 308.5C875.6 542.4 896.9 374.6 808.4 258 710.7 130.1 517.2 112.7 375.6 219.3m202.5 218.2c-8.6 0 -15.6 -7 -15.6 -15.6v-78.1c0 -8.6 -7 -15.7 -15.6 -15.7h-93.8c-8.6 0 -15.6 7.1 -15.6 15.7v78.1c0 8.6 -7 15.6 -15.6 15.6h-78.1c-8.6 0 -15.7 7 -15.7 15.6v93.8c0 8.6 7.1 15.6 15.7 15.6h78.1c8.6 0 15.6 7 15.6 15.6v78.2c0 8.5 7 15.6 15.6 15.6h93.8c8.6 0 15.6 -7.1 15.6 -15.6v-78.2c0 -8.6 7 -15.6 15.6 -15.6h78.2c8.5 0 15.6 -7 15.6 -15.6v-93.8c0 -8.6 -7.1 -15.6 -15.6 -15.6h-78.2z"/></svg>