
  <svg height="1000" width="1000.0" xmlns="http://www.w3.org/2000/svg">
    <path d="m193.4 809.2c2.1 11.1-4.5 21.7-15.7 24-10.5 2.2-21.3-4.5-23.4-15.6-2.2-10.6 4.5-21.7 15-24 10.6-2.4 21.7 4.4 24.1 15.6z m279.5 139.4c12.8-9 30.2-5.4 38.4 7.3 9 12.9 5.7 30-6.6 39-12.9 9-30.1 5.7-39.1-7.2-8.4-12.9-5.1-30.1 7.3-39.1z m-168-902.9c-12.3 2.9-24.4-4.9-27.2-17.8-2.3-12.3 5.5-24.6 17.8-27.3 12.3-2.9 24.6 4.9 26.8 17.8 2.7 12.3-5.1 24.6-17.4 27.3z m-237.7 396.3c19.5 13.9 24.6 40.6 11.1 60.9-13.5 20.1-40.2 25-59.7 11.2-19.6-13.5-24.7-40.9-11.2-60.4 13.5-20.1 40.3-25.2 59.8-11.7z m531.2-333.8c-20.1 12.3-46.3 5.7-58-14.5-12.3-20.7-5.6-47.4 14.5-59.7 20.1-12.3 46.3-5.7 58.6 15 11.7 20.1 5.6 46.9-15.1 59.2z m-373.2 113.3c-14.7 10.1-35.2 6.8-45.1-8.4-10-15.1-6.7-35.8 8.4-46.3 14.4-10 35.1-6.6 45.1 8.4 10 15 6.6 35.7-8.4 46.3z m727.1 304.7c14.5-2.8 29 6.8 31.9 21.3 3.3 15-6.3 29.6-20.7 32.4-14.5 3.3-29.1-6.3-31.9-20.7-3.3-15.3 6.3-29.7 20.7-33z m77.6-111c2.7 11.2-4.5 21.7-15.1 24.6-11.1 2.2-21.8-5-24-15.6-2.1-11.1 4.5-22.4 15.6-24.6 10.6-2.1 21.3 4.5 23.5 15.6z m-156.9-143.9c16.3-11.7 39.1-7.4 50.2 9.6 11.2 16.8 7.3 39.6-8.9 51.3-16.8 11.2-39.7 7.3-50.8-9.5-11.2-16.8-7.2-39.7 9.5-51.4z m-12.3 272.3c51.4 84.1 29.5 195.3-51.3 252.1-34 24-72.5 34.6-111.2 33.4-23.4 92-135.5 126.2-205.2 63.7-2.2 1.7-5.1 3.3-7.3 5.6-76.3 53-180.2 34-233.2-43.5-18.9-27.9-28.5-59.8-29.5-91.6-127.7-21.3-175.7-183.6-80.2-272.9-55.3-91.6 1.1-209.7 104.3-224.4 49-129.3 210.1-190.6 319.5-105.8 131.6-43.6 266.2 57.4 255.7 197.4 80.2 24.6 103.1 130.7 38.4 186z m-136.7 145.1c-6-40.3-79.9-9-84.2-53-6-62.5 85.4-197.4 78.2-250-6.7-46.8-37.9-56.8-65.3-57.4-26.1-0.6-33 3.9-41.8 9-5.6 3.3-12.9 9.6-22.8-0.6-12.3-11.7-21.7-22.8-37.9-25.2-24-3.9-34.6 3.9-52 19-6.6 5.6-23.4 25.2-39 17.7-6.7-3.3-30.1-15-46.9-22.2-31.8-13.9-78.1 9-94.9 39-25.2 44.8-74.2 220.9-81.5 244.4-16.8 51.9 21.3 94.9 72.1 92 21.7-1.2 35.7-9 49.6-34 7.8-14.5 81.5-210.4 87.1-219.9 3.9-6.7 17.4-15.7 28.5-10 11.2 6.1 13.5 18.4 11.8 29.5-2.2 18.9-54.7 138.5-56.5 151.7-6.6 44.8 52.6 52 75.4 7.9 7.2-13.9 89.3-180.9 96.5-192 8.4-12.3 14.4-16.2 22.8-15.7 6.1 0 16.3 1.8 13.9 21.3-2.7 18.4-68.5 141.2-76 171.3-9 40.3 12.9 80.9 48.7 98.9 22.2 11.1 122 30.6 114.2-21.7z m11.2 180.2c20.7-14.6 48.6-8.9 63 11.8 13.9 20.7 9 49.2-11.7 63.6-20.7 13.9-48.6 9-62.5-11.7-14-20.7-9-49.2 11.2-63.7z" />
  </svg>
