<svg height="1000" width="1000" xmlns="http://www.w3.org/2000/svg"><path d="M193.4 809.2c2.1 11.1 -4.5 21.7 -15.7 24 -10.5 2.2 -21.3 -4.5 -23.4 -15.6 -2.2 -10.6 4.5 -21.7 15 -24 10.6 -2.4 21.7 4.4 24.1 15.6zm279.5 139.4c-12.4 9 -15.7 26.2 -7.3 39.1 9 12.9 26.2 16.2 39.1 7.2 12.3 -9 15.6 -26.1 6.6 -39 -8.2 -12.7 -25.6 -16.3 -38.4 -7.3zM304.9 45.7C317.2 43 325 30.7 322.3 18.4 320.1 5.5 307.8 -2.3 295.5 .6c-12.3 2.7 -20.1 15 -17.8 27.3 2.8 12.9 14.9 20.7 27.2 17.8zM67.2 442C47.7 428.5 20.9 433.6 7.4 453.7c-13.5 19.5 -8.4 46.9 11.2 60.4 19.5 13.8 46.2 8.9 59.7 -11.2 13.5 -20.3 8.4 -47 -11.1 -60.9zM598.4 108.2C619.1 95.9 625.2 69.1 613.5 49 601.2 28.3 575 21.7 554.9 34s-26.8 39 -14.5 59.8c11.7 20.1 37.9 26.7 58 14.4zM225.2 221.5c15 -10.6 18.4 -31.3 8.4 -46.3s-30.7 -18.4 -45.1 -8.4c-15.1 10.5 -18.4 31.2 -8.4 46.3 9.9 15.2 30.4 18.5 45.1 8.4zm727.1 304.7c-14.4 3.3 -24 17.7 -20.7 33 2.8 14.4 17.4 24 31.9 20.7 14.4 -2.8 24 -17.4 20.7 -32.4C981.3 533 966.8 523.4 952.3 526.2zm77.6 -111c-2.2 -11.1 -12.9 -17.7 -23.5 -15.6 -11.1 2.2 -17.7 13.5 -15.6 24.6 2.2 10.6 12.9 17.8 24 15.6 10.6 -2.9 17.8 -13.4 15.1 -24.6zM873 271.3c-16.7 11.7 -20.7 34.6 -9.5 51.4 11.1 16.8 34 20.7 50.8 9.5 16.2 -11.7 20.1 -34.5 8.9 -51.3 -11.1 -17 -33.9 -21.3 -50.2 -9.6zm-12.3 272.3c51.4 84.1 29.5 195.3 -51.3 252.1 -34 24 -72.5 34.6 -111.2 33.4 -23.4 92 -135.5 126.2 -205.2 63.7 -2.2 1.7 -5.1 3.3 -7.3 5.6 -76.3 53 -180.2 34 -233.2 -43.5C233.6 827 224 795.1 223 763.3 95.3 742 47.3 579.7 142.8 490.4 87.5 398.8 143.9 280.7 247.1 266 296.1 136.7 457.2 75.4 566.6 160.2c131.6 -43.6 266.2 57.4 255.7 197.4 80.2 24.6 103.1 130.7 38.4 186zM724 688.7c-6 -40.3 -79.9 -9 -84.2 -53 -6 -62.5 85.4 -197.4 78.2 -250 -6.7 -46.8 -37.9 -56.8 -65.3 -57.4 -26.1 -.6 -33 3.9 -41.8 9 -5.6 3.3 -12.9 9.6 -22.8 -.6C575.8 325 566.4 313.9 550.2 311.5c-24 -3.9 -34.6 3.9 -52 19 -6.6 5.6 -23.4 25.2 -39 17.7 -6.7 -3.3 -30.1 -15 -46.9 -22.2 -31.8 -13.9 -78.1 9 -94.9 39 -25.2 44.8 -74.2 220.9 -81.5 244.4 -16.8 51.9 21.3 94.9 72.1 92 21.7 -1.2 35.8 -9 49.6 -34 7.8 -14.5 81.5 -210.4 87.1 -219.9 3.9 -6.7 17.4 -15.7 28.5 -10 11.2 6.1 13.5 18.4 11.8 29.5 -2.2 18.9 -54.7 138.5 -56.5 151.8 -6.6 44.7 52.6 51.9 75.4 7.8 7.2 -13.9 89.3 -180.9 96.5 -192 8.4 -12.3 14.4 -16.2 22.8 -15.7 6.1 0 16.3 1.8 13.9 21.3 -2.7 18.4 -68.5 141.2 -76 171.3 -9 40.3 12.9 80.9 48.7 98.9C632 721.5 731.8 741 724 688.7zm11.2 180.2C715 883.4 710 911.9 724 932.6c13.9 20.7 41.8 25.6 62.5 11.7 20.7 -14.4 25.6 -42.9 11.7 -63.6 -14.4 -20.7 -42.3 -26.4 -63 -11.8z"/></svg>