
  <svg height="1000" width="968.8" xmlns="http://www.w3.org/2000/svg">
    <path d="m418.9 409.4l65.3-65.3 65.2 65.3v129.7l-65 65-65.5-65.4v-129.3z m65.5-393.8c267.6 0 484.4 216.8 484.4 484.4s-216.8 484.4-484.4 484.4-484.4-216.8-484.4-484.4 216.8-484.4 484.4-484.4z m283.4 809.4h0.2v-170.1l-116.6-116.6v-171.1l-116.2-116.2v-147.7l-51-37.5-51 37.5v147.7l-116.2 116.2v171.7l-116.2 116.2v169.9l51 37.5 50.9-37.5v-127.9l65.5-65.3 65.2 65.3v127.9l51 37.5 51.1-37.5v-127.9l65.3-65.3 65.2 65.3v127.9l50.8 37.5z" />
  </svg>
