
  <svg height="1000" width="875.0" xmlns="http://www.w3.org/2000/svg">
    <path d="m780 707.5l0.3-0.1c-26.5 29.9-42.5 69.5-42.5 112.6 0 38.9 13.2 74.9 35.3 103.6 1.1 1.4 1.8 3.2 1.8 5.3 0 0.6 0 1.2-0.2 1.7-0.8 3.9-4.2 6.9-8.4 6.9-0.6 0-1.2-0.1-1.7-0.2-63.1-14-119.8-48.5-156.1-97.5-2.5-3.5-6.7-5.7-11.3-5.7-1.6 0-3.1 0.2-4.5 0.7-48.4 16.9-100.4 26.3-154.5 26.3h-0.7c-240 0-434.5-178.7-434.5-399.3 0-220.6 194.5-399.3 434.5-399.3s434.5 178.7 434.5 399.3c0 92.7-34.4 177.9-92 245.7z m-136.4-292.7c3.1-2.3 5-5.9 5-10 0-7-5.6-12.7-12.6-12.7l-140.4-3-46.2-132.6c-1.7-5-6.4-8.5-12-8.5s-10.2 3.5-12 8.5l-46.2 132.6-140.4 3c-6.9 0.1-12.4 5.8-12.4 12.7 0 4.1 1.9 7.8 5 10.1l111.9 84.9-40.6 134.5c-0.3 1.2-0.5 2.4-0.5 3.7 0 7 5.7 12.7 12.7 12.7 2.7 0 5.2-0.8 7.3-2.3l115.3-80.2 115.4 80.2c2 1.4 4.5 2.3 7.2 2.3 7 0 12.7-5.7 12.7-12.7 0-1.3-0.2-2.6-0.5-3.7l-40.6-134.5z" />
  </svg>
