<svg height="1000" width="1250" xmlns="http://www.w3.org/2000/svg"><path d="M829 429.2C812.7 263.1 672.1 132.8 501.8 132.8c-141.1 0 -266.1 90.9 -311 222.8C84.3 371.3 2.1 462.7 2.1 573.5c0 121.7 99 220.7 221.2 220.7h565.6c102.3 0 185.5 -82.8 185.5 -185C974.4 521.1 911.7 447 829 429.2zm-40.1 282.2H223.3C147 711.4 84.9 649.8 84.9 573.5S147 435.6 223.3 435.6c36.8 0 71.4 14.6 97.3 40.6 39 39 98 -20 59 -58.9C350.9 389.1 315.8 369.7 277.9 359.9 316.8 273.4 404.5 215.6 501.8 215.6c135.7 0 246 110.3 246 245.5 0 26.5 -4.3 52.4 -12.4 77.3 -17.5 53.7 62.8 76 78.4 26 5.4 -16.3 9.8 -33 12.5 -49.8 37.8 14.6 65.4 51.4 65.4 94.6 0 56.3 -46 102.2 -102.8 102.2zm459.2 -102.2c0 86 -24.9 168.8 -72.5 239.6 -8.1 11.9 -21.1 18.4 -34.6 18.4 -31.9 0 -53 -36.8 -34.1 -64.4 37.9 -57.3 58.4 -124.3 58.4 -193.6s-20.5 -136.2 -58.4 -193c-30.6 -44.6 37.8 -92.3 68.7 -46 47.6 70.3 72.5 153.1 72.5 239zm-138.5 0c0 61.7 -17.8 121.2 -52.4 172.5 -8.1 11.9 -21.1 17.9 -34.6 17.9 -33.6 0 -52.8 -37.1 -34.1 -64.4 25.4 -37.3 38.4 -80.5 38.4 -126 0 -44.8 -13 -88.7 -38.4 -126 -30.8 -44.9 37.1 -91.9 68.7 -45.9 34.6 50.8 52.4 110.3 52.4 171.9z"/></svg>