<svg height="1000" width="968.8" xmlns="http://www.w3.org/2000/svg"><path d="M484.4 15.6C216.8 15.6 0 232.6 0 500c0 267.6 216.8 484.4 484.4 484.4S968.8 767.6 968.8 500C968.8 232.6 752 15.6 484.4 15.6zM328.1 702.9c-61.3 20.7 -114.8 53.4 -156.2 94.2V265.6c0 -43.1 34.9 -78.1 78.1 -78.1s78.1 35 78.1 78.1v437.3zm234.4 -19.3c-25.2 -3.9 -51.2 -6.1 -77.7 -6.1 -27 0 -53.2 2.2 -78.5 6.1v-418c0 -43.1 34.9 -78.1 78.1 -78.1s78.1 35 78.1 78.1v418zm234.4 112.7C755.5 755.7 702 723.2 640.6 702.5V265.6c0 -43.1 35 -78.1 78.2 -78.1s78.1 35 78.1 78.1v530.7z"/></svg>