
  <svg height="1000" width="968.8" xmlns="http://www.w3.org/2000/svg">
    <path d="m484.4 15.6c267.6 0 484.4 217 484.4 484.4 0 267.6-216.8 484.4-484.4 484.4s-484.4-216.8-484.4-484.4c0-267.4 216.8-484.4 484.4-484.4z m-156.3 687.3v-437.3c0-43.1-34.9-78.1-78.1-78.1s-78.1 35-78.1 78.1v531.5c41.4-40.8 94.9-73.5 156.2-94.2z m234.4-19.3v-418c0-43.1-35-78.1-78.1-78.1s-78.1 35-78.1 78.1v418c25.3-3.9 51.5-6.1 78.5-6.1 26.5 0 52.5 2.2 77.7 6.1z m234.4 112.7v-530.7c0-43.1-35-78.1-78.1-78.1s-78.2 35-78.2 78.1v436.9c61.4 20.7 114.9 53.2 156.3 93.8z" />
  </svg>
