<svg height="1000" width="968.8" xmlns="http://www.w3.org/2000/svg"><path d="M582.6 729.7c-27.7 26.6 -61.1 47.1 -98.4 59.6 -37.1 -12.5 -70.7 -33 -98.3 -59.6h196.7zm86 -389.9c39 -33 85.1 -57 135.9 -70.7V584c0 428.5 -640.6 425 -640.6 .6V268.9c50.6 13.5 96.8 38.3 135.7 71.1 110.9 -78.1 258.8 -77.9 369 -.2zM260.7 225.6c125.8 -117.2 320.9 -117.4 447.1 -.4 -13.9 6.8 -27.1 14.3 -40.2 22.5 -114.7 -59.6 -252.4 -59.4 -367 .2C288.3 240 273.4 231.8 260.7 225.6zM85.5 182v135.4c-114 71.3 -114 236.5 .2 309.2 51.6 478.7 745.6 469.3 796.1 2.9l.6 -3.3c114.7 -70.9 115.1 -237.7 .4 -309V182c-33.8 1 -66.4 5.9 -97.8 14.5C624.8 17.8 344.5 17.8 184.4 196.7 152.5 188.1 119.7 183 85.5 182zm420.8 505.5s70.3 -.6 119.7 -2.9c19.9 -1 41.2 -7.8 49.8 -12.7 51.3 -29.5 49.6 -76.6 51.2 -92.6C571.7 578.1 531.8 571.7 506.3 687.5zm-264.7 -108c1.6 16 -.2 63.1 51.2 92.6 8.6 4.9 29.7 11.7 49.8 12.7 49.4 2.1 119.7 2.9 119.7 2.9C436.5 571.7 396.5 578.1 241.6 579.5zm330.3 241c-6.3 -10.3 -13.5 -14.2 -13.5 -14.2 -48.4 14.2 -102 13.4 -148.2 0 0 0 -5.7 2.9 -12.5 12.8 -5.5 8 -7.3 18.8 -7.3 18.8 56.9 34.4 131.1 34.4 187.9 0 -.2 -.2 -.6 -7.8 -6.4 -17.4z"/></svg>