
  <svg height="1000" width="968.8" xmlns="http://www.w3.org/2000/svg">
    <path d="m582.6 729.7c-27.7 26.6-61.1 47.1-98.4 59.6-37.1-12.5-70.7-33-98.3-59.6h196.7z m86-389.9c-110.2-77.7-258.1-77.9-369 0.2-38.9-32.8-85.1-57.6-135.7-71.1v315.7c0 424.4 640.6 427.9 640.6-0.6v-314.9c-50.8 13.7-96.9 37.7-135.9 70.7z m-407.9-114.2c12.7 6.2 27.6 14.4 39.9 22.3 114.6-59.6 252.3-59.8 367-0.2 13.1-8.2 26.3-15.7 40.2-22.5-126.2-117-321.3-116.8-447.1 0.4z m-175.2-43.6c34.2 1 67 6.1 98.9 14.7 160.1-178.9 440.4-178.9 600.6-0.2 31.4-8.6 64-13.5 97.8-14.5v135.2c114.7 71.3 114.3 238.1-0.4 309l-0.6 3.3c-50.6 466.4-744.5 475.8-796.1-2.9-114.2-72.7-114.2-237.9-0.2-309.2v-135.4z m420.8 505.5c25.5-115.8 65.4-109.4 220.7-108.2-1.6 16 0.1 63.1-51.2 92.6-8.6 4.9-29.9 11.7-49.8 12.7-49.4 2.3-119.7 2.9-119.7 2.9z m-264.7-108c154.9-1.4 194.9-7.8 220.7 108.2 0 0-70.3-0.8-119.7-2.9-20.1-1-41.2-7.8-49.8-12.7-51.4-29.5-49.6-76.6-51.2-92.6z m330.3 241c5.8 9.6 6.2 17.2 6.4 17.4-56.8 34.4-131 34.4-187.9 0 0 0 1.8-10.8 7.3-18.8 6.8-9.9 12.5-12.9 12.5-12.9 46.2 13.5 99.8 14.3 148.2 0 0 0 7.2 4 13.5 14.3z" />
  </svg>
