
  <svg height="1000" width="1000.0" xmlns="http://www.w3.org/2000/svg">
    <path d="m811.4 1000h-185.8l-211.3-301.8v177.9l-168.8 123.9h-190.8v-941.8l79-58.2h211.1l241.6 344v-220.1l168.9-123.9h190.8v901.4z m-735.7-931.1v899.9l140.6-103.3v-486.6l420.9 600.9h165.7l102.2-74.6h-152.9l-617.4-879.8z m161.2 911.3l156.3-114.8v-197.2l-155.8-223.5v431.5l-141.7 104.1h141.3z m-79.4-959.2l606.6 864.4h160.9v-864.4h-155.8v620.3l-435.4-620.3h-176.3z m449.9 353.3l140.6 200.8v-544l-140.6 103.5v239.7z" />
  </svg>
