<svg height="1000" width="694.4" xmlns="http://www.w3.org/2000/svg"><path d="M454.3 584.6c30.4 0 53 22.3 53 52.6 0 30.4 -22.7 52.7 -53 52.7 -30.7 0 -53 -22.6 -53 -52.7 0 -30.3 22.6 -52.6 53 -52.6zm-260.9 52.6c0 -30.5 22.8 -52.6 53 -52.6 30.4 0 53 22.3 53 52.6 0 30.1 -22.4 52.7 -53 52.7 -30.1 0 -53 -22.1 -53 -52.7M347.2 310.4c-67.9 0 -199.8 38.8 -258.8 133L0 0v655.2C0 846 155.5 1000 347.2 1000c191.9 0 347.2 -154.2 347.2 -344.8C694.4 464.9 539.3 310.4 347.2 310.4zm0 601.8c-143.1 0 -258.8 -115 -258.8 -257 0 -141.9 115.7 -257 258.8 -257 143.1 0 258.8 115.1 258.8 257s-115.7 257 -258.8 257z"/></svg>