
  <svg height="1000" width="750.0" xmlns="http://www.w3.org/2000/svg">
    <path d="m481.6 584.6c30.5 0 53.1 22.3 53.1 52.7s-22.7 52.7-53.1 52.7c-30.6 0-53-22.6-53-52.7s22.6-52.7 53-52.7z m-260.9 52.6c0-30.5 22.8-52.7 53-52.7 30.2 0 53.1 22.4 53.1 52.7s-22.4 52.7-53.1 52.7c-30.1 0-53-22-53-52.7z m153.8-326.7c192.2 0 347.2 154.2 347.2 344.7 0 190.6-155.5 344.8-347.2 344.8-191.7 0-347.2-154-347.2-344.8v-655.2l88.4 443.4c59-94.2 190.9-132.9 258.8-132.9z m0 601.8c143.1 0 258.8-115.1 258.8-257.1 0-141.9-115.7-256.9-258.8-256.9-143.1 0-258.8 115.1-258.8 257 0 142 115.7 257 258.8 257z" />
  </svg>
