<svg height="1000" width="875" xmlns="http://www.w3.org/2000/svg"><path d="M187.3 65.4C100.2 81.1 30.1 145.5 8 230.3 0 260.9 -.6 278.9 .4 516.4c.4 218 .6 223.1 4.3 240 20.1 90.9 84.6 155.5 176.4 176.8 11.9 2.7 27.1 3.3 125.2 3.7 101.3 .8 111.9 .6 114.6 -2.1 2.7 -2.8 2.9 -37.7 2.9 -434 0 -294 -.6 -432.2 -1.7 -434.8 -1.8 -3.3 -4.9 -3.5 -111.2 -3.3 -86.3 .2 -112.3 .8 -123.6 2.7zm163.9 434.8v367l-73.9 -1c-67.9 -.8 -75.2 -1.2 -88.8 -4.5C130.1 846.7 86.9 801.8 74.6 743.2c-3.9 -18.4 -3.9 -469 -.2 -486.9 11 -51 46.3 -93.2 93.8 -112.2 23.8 -9.5 34.9 -10.7 112.5 -10.9l70.1 -.2v367.2zM202.9 243.9c-11.3 2.2 -28.7 11 -38.1 19 -18.9 16.4 -28.5 39.8 -26.9 67.4 .8 14.2 1.6 18.1 7.4 29.7 8.6 17.5 21.3 30.4 38.9 39 12.1 6.1 15.2 6.7 31 7.3 14.3 .5 19.4 0 28.9 -3.4 39.3 -13.3 63.1 -51.3 56.3 -90.6 -7.6 -46.3 -52 -77.5 -97.5 -68.4zm309 -180.2c-.8 .6 -1.2 196.8 -1.2 436.5 0 395.1 .2 435.2 3 436.3 4.9 1.8 145.5 1.2 162.9 -.8 73.6 -8.4 138.6 -53.1 173.8 -119.5 4.5 -8.6 10.5 -22.8 13.7 -31.6 11.3 -34 11.1 -25 11.1 -285.4 0 -207.8 -.4 -238.8 -2.9 -251.9C854.3 152.9 782.2 81.6 687.7 65.4 675 63.3 655.5 62.7 592.4 62.7c-43.8 -.2 -79.9 .4 -80.5 1zm193.6 394.7c28.3 7.4 51.3 28.9 60.9 56.4 6.1 17 5.9 42 -.2 57.7 -11.1 28.7 -32.8 48.8 -60.7 56.2 -45.3 11.7 -93.6 -15.6 -106.7 -60.5 -3.9 -13.7 -3.7 -36.9 .8 -51.2 13.5 -44.3 60.6 -70.5 105.9 -58.6z"/></svg>