
  <svg height="1000" width="875.0" xmlns="http://www.w3.org/2000/svg">
    <path d="m437.5 992.2c-13.1 0-26.4-3.5-37.9-10.2l-120.5-71.3c-18-10.1-9.2-13.6-3.3-15.6 24-8.4 28.9-10.1 54.5-24.8 2.7-1.6 6.2-1 9 0.8l92.5 54.9c3.4 1.9 8 1.9 11.2 0l360.7-208.2c3.3-2 5.5-5.9 5.5-9.8v-416.4c0-4.1-2.2-7.8-5.7-10l-360.5-208c-3.4-1.9-7.8-1.9-11.2 0l-360.3 208.2c-3.5 2-5.7 5.9-5.7 10v416.2c0 3.9 2.2 7.8 5.7 9.6l98.8 57c53.7 26.8 86.5-4.7 86.5-36.5v-410.9c0-5.9 4.7-10.4 10.6-10.4h45.7c5.6 0 10.5 4.5 10.5 10.4v411.1c0 71.5-39 112.5-106.8 112.5-20.9 0-37.3 0-83-22.7l-94.5-54.5c-23.5-13.4-37.9-38.6-37.9-65.8v-416.2c0-27 14.4-52.3 37.9-65.8l360.3-208.2c22.9-12.9 53.1-12.9 75.8 0l360.7 208.4c23.5 13.5 37.9 38.6 37.9 65.8v416.2c0 27-14.4 52.2-37.9 65.8l-360.7 208.2c-11.5 6.7-24.6 10.2-37.9 10.2z m291.2-410.4c0 78.6-65.6 123.7-179.7 123.9-158 0-191-72.5-191-133.2 0-5.7 4.5-10.4 10.4-10.4h46.6c5.3 0 9.6 3.7 10.4 8.8 7 47.5 27.9 71.5 123.4 71.5 76 0 108.4-17.2 108.4-57.4 0-23.3-9.2-40.7-127.3-52.2-98.6-9.8-159.8-31.6-159.8-110.5 0-72.9 61.3-116.2 164.3-116.2 115.6 0 172.8 40 180.1 126.1 0.1 3-0.8 5.9-2.8 8-1.9 2.2-4.7 3.4-7.6 3.4h-46.9c-4.9 0-9.2-3.6-10.1-8.2-11.4-50-38.7-66.1-112.7-66.1-83 0-92.6 28.9-92.6 50.6 0 26.2 11.3 33.8 123.4 48.7 110.8 14.6 163.5 35.3 163.5 113.2z" />
  </svg>
