<svg height="1000" width="875" xmlns="http://www.w3.org/2000/svg"><path d="M437.5 992.2c-13.1 0 -26.4 -3.5 -37.9 -10.2L279.1 910.7c-18 -10.1 -9.2 -13.6 -3.3 -15.6 24 -8.4 28.9 -10.1 54.5 -24.8 2.7 -1.5 6.2 -1 9 .8l92.5 54.9c3.4 1.9 8 1.9 11.2 0L803.7 717.8c3.3 -2 5.5 -5.9 5.5 -9.8V291.6c0 -4.1 -2.2 -7.8 -5.7 -10L443 73.6c-3.4 -1.9 -7.8 -1.9 -11.2 0L71.5 281.8c-3.5 2 -5.7 5.9 -5.7 10V708c0 3.9 2.2 7.8 5.7 9.6l98.8 57c53.7 26.8 86.5 -4.7 86.5 -36.5v-411c0 -5.8 4.7 -10.3 10.6 -10.3h45.7c5.7 0 10.5 4.5 10.5 10.3v411.2c0 71.5 -39 112.5 -106.8 112.5 -20.9 0 -37.3 0 -83 -22.7L39.3 773.6C15.8 760.2 1.4 735 1.4 707.8V291.6c0 -27 14.4 -52.3 37.9 -65.8L399.6 17.6c22.9 -12.9 53.1 -12.9 75.8 0L836.1 226c23.5 13.5 37.9 38.6 37.9 65.8V708c0 27 -14.4 52.2 -37.9 65.8L475.4 982c-11.5 6.7 -24.6 10.2 -37.9 10.2zM728.7 581.8c0 -77.9 -52.7 -98.6 -163.5 -113.2C453.1 453.7 441.8 446.1 441.8 419.9c0 -21.7 9.6 -50.6 92.6 -50.6 74 0 101.3 16.1 112.7 66.1 .9 4.6 5.2 8.2 10.1 8.2h46.9c2.9 0 5.7 -1.2 7.6 -3.4s2.9 -5 2.8 -8C707.2 346.1 650 306.1 534.4 306.1c-103 0 -164.3 43.3 -164.3 116.2 0 78.9 61.2 100.7 159.8 110.5C648 544.3 657.2 561.7 657.2 585c0 40.2 -32.4 57.4 -108.4 57.4 -95.5 0 -116.4 -24 -123.4 -71.5 -.8 -5.1 -5.1 -8.8 -10.4 -8.8h-46.6c-5.9 0 -10.4 4.7 -10.4 10.4 0 60.7 33 133.2 191 133.2 114.1 -.2 179.7 -45.3 179.7 -123.9z"/></svg>