<svg height="1000" width="1250" xmlns="http://www.w3.org/2000/svg"><path d="M365.4 312.3l-66.8 222.1L192.2 312.3H95.7L0 625h87.7l60.7 -208 98.9 208h111.1l94.7 -312.7h-87.7zm883.8 -1.8c-5.6 -35.1 -46.7 -54.8 -82.2 -61.1 -87.1 -15.2 -199 31.9 -172.9 114.9v.2C908.6 381.4 849 416.8 810.2 458.6c-5.9 -19.1 -26.6 -32.4 -66.4 -32.4H572.7c-18.2 0 -25.2 -4.5 -22.5 -14.5 3.1 -10.7 3.7 -13.3 7.2 -23.8 4.1 -12.5 15.3 -13.9 26 -13.9h260.7l19 -61.5c-272.9 0 -282.2 -1 -312.7 2.3 -24 2.6 -45.9 9.4 -59.8 29.3 -13.3 19.4 -28.1 69.6 -34.3 92 -10.6 37.9 -1.2 55.9 64 55.9h170.5c15.3 0 17.2 5.3 15.1 12.9 -2.2 8.6 -5.5 19.5 -8.8 28.5 -3.2 8.2 -9.2 14.5 -27 14.5H422.5L399.8 625c273.2 0 283.8 -1.2 314.3 -4.5 12.9 -1.4 25.4 -4.1 36.1 -9.6 .4 7.3 1 14.3 2.3 21.1 10.6 59.6 53.6 102.2 111 116.2 94.9 23.3 212.3 -32.8 263.8 -132.8 36.6 -70.7 27.6 -148.8 -6.6 -206h.2c57.8 -11.5 137.3 -43 128.3 -98.9zM1036.5 515C1025 572.7 965 608.4 916.2 600.8 855.9 591.4 841 523.6 888.7 474.2c31.6 -32.8 88.3 -46.9 133.8 -52.5 13 27.5 20.1 62.5 14 93.3zm42.6 -162.3c-8.2 -11.7 -19.1 -36.1 -4.9 -51.3 13.1 -14.1 40.8 -19.8 62.1 -15.1 29.9 6.7 38.5 31.1 9.6 47.7 -20.9 11.9 -46.1 15.8 -66.8 18.7z"/></svg>