
  <svg height="1000" width="781.3" xmlns="http://www.w3.org/2000/svg">
    <path d="m171.9 15.8c0 0 260.5-16 236.3 203.9 0 0 37.3-146.3 201.2-79.3 0 0-34.6 144.6-171.9 109.4 0 0 28.5-106.6 129.1-110.5 0 0-77.9-20.2-160.3 95.3 0 0-38.7-184.6-182.9-194.8 0 0 146.9 37.9 151.6 210 0 0.2-207.8 13.7-203.1-234z m609.4 616.4c0 94.8-19 186.2-62.5 258.4-82.5 60.4-205.1 93.8-328.2 93.8-122.8 0-245.7-33.4-328.1-93.8-43.6-72.2-62.5-163.6-62.5-258.4 0-94.5 34.6-184.9 78.1-257.2 82.4-60.4 189.7-94.9 312.5-94.9 123.1 0 230.1 34.4 312.5 94.9 43.6 72.3 78.2 162.7 78.2 257.2z m-546.9 203.7c0-30.2-24.4-54.6-54.7-54.6s-54.7 24.4-54.7 54.6 24.4 54.7 54.7 54.7 54.7-24.4 54.7-54.7z m0-129.3c0-30.2-24.4-54.6-54.7-54.6s-54.7 24.4-54.7 54.6 24.4 54.7 54.7 54.7 54.7-24.4 54.7-54.7z m0-129.3c0-30.2-24.4-54.6-54.7-54.6s-54.7 24.4-54.7 54.6 24.4 54.7 54.7 54.7 54.7-24.4 54.7-54.7z m140.6 258.6c0-30.2-24.4-54.6-54.7-54.6s-54.7 24.4-54.7 54.6 24.4 54.7 54.7 54.7 54.7-24.4 54.7-54.7z m0-129.3c0-30.2-24.4-54.6-54.7-54.6s-54.7 24.4-54.7 54.6 24.4 54.7 54.7 54.7 54.7-24.4 54.7-54.7z m0-129.3c0-30.2-24.4-54.6-54.7-54.6s-54.7 24.4-54.7 54.6 24.4 54.7 54.7 54.7 54.7-24.4 54.7-54.7z m140.6 258.6c0-30.2-24.4-54.6-54.7-54.6s-54.6 24.4-54.6 54.6 24.4 54.7 54.6 54.7 54.7-24.4 54.7-54.7z m0-129.3c0-30.2-24.4-54.6-54.7-54.6s-54.6 24.4-54.6 54.6 24.4 54.7 54.6 54.7 54.7-24.4 54.7-54.7z m0-129.3c0-30.2-24.4-54.6-54.7-54.6s-54.6 24.4-54.6 54.6 24.4 54.7 54.6 54.7 54.7-24.4 54.7-54.7z m140.7 258.6c0-30.2-24.5-54.6-54.7-54.6s-54.7 24.4-54.7 54.6 24.4 54.7 54.7 54.7 54.7-24.4 54.7-54.7z m0-129.3c0-30.2-24.5-54.6-54.7-54.6s-54.7 24.4-54.7 54.6 24.4 54.7 54.7 54.7 54.7-24.4 54.7-54.7z m0-129.3c0-30.2-24.5-54.6-54.7-54.6s-54.7 24.4-54.7 54.6 24.4 54.7 54.7 54.7 54.7-24.4 54.7-54.7z m46.8-77.3c-9.3-43.6-14.4-72.1-31.2-109.4-75.8-38.8-176.8-62.5-281.3-62.5s-205.4 23.7-281.2 62.5c-17.2 38.1-21.9 66.2-31.3 109.4 82.4-15.4 192.8-28.9 312.5-28.9s230.1 13.5 312.5 28.9z" />
  </svg>
