
  <svg height="1000" width="875.0" xmlns="http://www.w3.org/2000/svg">
    <path d="m359.8 345.9c0-43.2 34.9-78.1 77.7-78.1s77.7 34.9 77.7 78.1c0 43-34.9 77.7-77.7 77.7s-77.7-34.9-77.7-77.7z m515.2-189.6v687.5c0 51.7-42 93.7-93.7 93.7h-687.5c-51.8 0-93.8-42-93.8-93.7v-687.5c0-51.8 42-93.8 93.8-93.8h687.5c51.7 0 93.7 42 93.7 93.8z m-595.9 189.6c0 87.1 71.1 158 158.4 158s158.4-70.7 158.4-158c0-87.5-71.1-158.4-158.4-158.4s-158.4 70.7-158.4 158.4z m340.8 177.1c-9-17.7-33.8-32.8-66.6-7 0 0-44.3 35.2-115.8 35.2s-115.8-35.2-115.8-35.2c-32.8-25.8-57.6-10.7-66.6 7-15.5 31.5 2.1 46.3 41.8 72.3 33.8 21.7 80.4 29.7 110.5 32.8l-25.2 25.2c-35.5 35.2-69.3 69.4-93.1 93.2-34.4 34.4 20.9 89.4 55.4 55.8l93.2-93.5c35.5 35.5 69.7 69.7 93.2 93.5 34.3 33.6 89.8-20.9 55.8-55.8l-93.1-93.2-25.4-25.2c30.2-3.1 76.3-11.5 109.7-32.8 39.9-26 57.3-41 42-72.3z" />
  </svg>
