
  <svg height="1000" width="968.8" xmlns="http://www.w3.org/2000/svg">
    <path d="m613.1 63.9c-332.4 0-493.4 437.1-288.1 693.5 71.3 88.7 173 147.7 288.1 147.7 70.9 0 137.3-21.7 194.1-59.4-85.5 76.6-199 123.1-322.8 123.1-7.6 0-15.7 0-23.3-0.6-256.8-12-461.1-223.9-461.1-483.8 0-267.6 216.8-484.4 484.4-484.4h1.5c123.3 0.6 235.8 47.1 321.1 123.2-56.6-37.8-123.2-59.3-193.9-59.3z m198.8 776.7c-79.9 48.3-177.1 46.1-257.8-11.3 109.8-40 190.8-178.9 190.8-344.9 0-165.5-80.4-304.3-190.2-344.9 81.6-57.1 178.1-59.2 259.6-9.8 206.8 192.8 206 518.9-2.4 710.9z" />
  </svg>
