
  <svg height="1000" width="1125.0" xmlns="http://www.w3.org/2000/svg">
    <path d="m1118.4 823c1.9 6.9 3.7 13.7 3.3 20.9 1.5 61.8-86.5 125-143.6 127.2-33.8 1.6-67.6-16.4-83.4-45.9-221.7 8-443.3 9.6-664.4 0-16.4 29.5-50.2 46.9-84 45.9-56.5-2.2-144.5-65.4-143.6-127.2 0.6-7.4 1.6-14.2 3.7-21-10.9-18.4-9.3-29.9 10.6-22.7 6.4-10.2 13.7-18.6 21.7-27-4.9-21.2 2.5-27.5 21.7-17.9 8.7-6.5 19.5-12.7 31-18 0-30.9 23.1-21.9 33.8-11.1 24.4-3.5 39.4 1.3 52.3 11.1v-38.5c-25.2 0-79.3-22.2-89.6-70.7-9.8-40.6 5.1-74.4 49-92.9 1.6-11.6 15.8-27.4 29.1-31.1 14.9-3.7 24.4 9 27.6 20.1 14.4 0 34.7 2.9 41.2 15.8 10.5-0.9 21.6-2.7 32.2-3.7-4.7-3.7-10-6.8-15.8-9-10-17.3-27-21.6-48.1-22.6 0-1.6 0-3.1 0.6-5.3-38.7-1-86.1-10.9-107.2-34.8-41.6-46-31.1-163.2 23.8-202.1 16.4-11.1 42.2-1.6 44.3 18.9 4.7 40.3 0.8 52.4 51.2 50.6 15.8-15.2 32.8-28.5 51.8-39-29.1-2.6-56.5 3.1-85.6 7.4 24.8-24.4 46.7-49.6 110.8-82.8 45.9-23.3 97.6-40.6 148.8-45.3-36.3-15.5-78.1-23.3-116.6-32.3 149.4-31.6 341-43.1 477 73.5 35.3 30.1 63.2 70.7 83.4 117.2 77.7 9.5 71-10.8 75.3-49.1 2.2-20.1 28-30 44.4-18.5 29.1 20.5 43.3 60.1 48 93.9 4.3 34.8 0.6 80.7-24.2 107.6-21.1 23.9-67 34.4-105.1 35.4v5.5c-21.6 0.4-39.6 4.7-50.2 22.6-5.8 2.2-11.1 5.3-16.4 9 11.2 1 22.3 2.7 32.8 3.7 3.8-10.9 24.6-16.4 41.3-16.4 3.3-10.5 13.2-23.2 27.5-20.1 14.2 3.1 27.5 19.5 29.1 31.1 21.1 8.5 43.2 23.8 49 50.1 3.7 15.9 3.3 29.5 0.6 42.8-11.1 49.2-65 70.7-89.6 70.7 0 13.1 0 25.8-0.6 38.5 15.8-11.7 32-14.1 52.3-11.1 11.7-11.6 34.4-18.4 34.4 11.1 10.9 5.3 22.1 11.7 31 18 19.8-9.8 26.8-1 21.1 17.9 8 8.4 15.9 17.4 21.7 27 19.7-7 21.5 4.1 10.6 22.6z m-144.2-496c33.8 13 51.2 43.1 59.2 69.7 2.1-20.7-5.3-77.2-27-99.8-14.2-14.3-27.5-10-27.5 1.5 0 12.1-2.5 22.7-4.7 28.6z m-9 13c-6.2 6.5-17.9 9.6-27.5 11.2 25.4 30.6 33.2 81.4 24.8 123 21.1-4.3 40-12.3 51.2-23.8 3.7-4.3 7.4-9.6 9.5-14.9-2.1-41.6-19.9-83.4-58-95.5z m-47 13.3c-7.3 0-15.9 0-23.1-0.6 14.7 40.3 24.2 83.4 27.9 126.2 6.9 0 14.7-0.6 22.7-1.6 11.5-47.4-0.6-100.7-27.5-124z m-825.4 43.2c8-26.4 25.4-56.5 59.2-69.7-2-5.9-4.7-16.4-4.7-28.6 0-11.5-13.9-15.8-27.6-1.5-22.2 22.6-29.1 79.3-26.9 99.8z m18.9 53.9c11.2 12.1 30.1 19.5 51.2 23.8-8.4-41.8-0.6-92.4 24.8-123-9.6-1.6-21.3-4.9-27.5-11.2-37.9 12.1-55.3 53.9-58.1 95.5 2.8 5.3 5.9 10.6 9.6 14.9z m93.6 28.5c4.7-43.4 17.7-85.5 38.6-124-10.1 2.1-19.5 5.8-29.1 9.6l-23.8 9.9v-0.6c-14.2 27.6-19.5 67.2-10.5 103.5 9 1 16.8 1.6 24.8 1.6z m359.3-317.8c-81.8 0-148.8 66.6-148.8 148.3 0 82.4 67 148.8 148.8 148.8 81.9 0 148.9-66.4 148.9-148.8 0-81.9-67-148.3-148.9-148.3z m225.8 340.5c-25.2-1.6-51.1-1.6-77.1-2.2 19.5 98.8 6.4 126.4 32.2 113.5 31.3-15.8 44.3-76.6 44.9-111.3z m-105.4-3.2c-37-0.5-74.5-0.5-111.4 0v-0.5c-0.6 10.1 0.4 74.4 8.4 80.2 21.7 10.6 77.2 9 99.8 2.2 10.6-3.2 4.7-72.3 3.2-81.9z m-141.4 105.1c8.9-4.9 4.6-88.7 2.5-104.9v-0.6c-37.9 0.6-75.4 0.6-112.9 1.6-3.7 18-9 95.5 3.7 100.8 25.4 11.1 81.3 10 106.7 3.1z m-208.1-99.8c-10.5 38.5 0.6 88.1 43.4 107.2 10.6 4.9 16.8 4.9 19-8.4 3.7-17 4.8-71.8 9.5-101.9-23.8 0.4-48 1.5-71.9 3.1z m-69.1 61.1c4.7 7.3 3.1 17.8-15.6 24.5 85.5 91.8 181 167.3 304.5 208 131.8-37.5 225.8-117.2 318.7-209-21.7-8.4-15-20.1-14.2-22.7-17.4-1.5-35-3.7-51.8-5.2-18.5 64.4-70.3 103.3-91.4 61.7-5.3-10.2-6.8-22.9-9-32.8-7.4 16.4-26 15.8-48 17.3-25.8 2.2-61.8 2.6-86-5.8-5.8 25.2-21.6 25.2-52.3 27.9-27.6 2.7-95.1 8-107.2-21.1-2.2 56.1-68.6 19.5-88.1-13.7-6.3-11.1-10.6-22.2-13.7-34.3-15.2 1.5-30.7 3.1-45.9 5.2z m-42.2 337c1-4.9 1.6-10.2 1.6-16.1-11.2-45.3-36.3-97-65.4-105.4-43.8-13.1-134.6 45.9-129.3 106.6 24.8 38.1 78.1 69.7 115.6 71.3 34.7 1.6 70.1-21.7 77.5-56.4z m-17-128.9c17.6 31.2 30.3 65 32.6 101.3 65.5-37.9 135-69.7 206.9-91.8-75.6-40-133-93.3-190.1-150.4-4.1 2.6-9.9 4.7-15.2 6.9-3.1 9.5 17 10.3 10.6 24.2-4.1 8-16.8 14.8-29.5 18-4.1 5.2-10 9.5-15.3 12.7h-0.6c-0.4 26.3-0.4 52.7 0.6 79.1z m659.4 126.1c-71.9-41.6-144.7-80.6-225.8-103.5-26.9 12.1-54.5 22.1-82.4 30.1-4.1 1.5-4.1 1.5-8.4 0-23.2-7.2-45.5-15.8-68.2-25.8-78.5 22.7-150.9 57-219.5 99.2h-0.6v0.6c0.6 0 0.6 0 0.6-0.6 201.6 8 403.1 6.9 604.3 0z m20.5-24.2c2-28.7 14.1-69.9 32.2-101l-0.5 0.6c0.9-26.7 1.5-53.7 1.5-80.6-5.8-3.4-11.1-8.1-15.8-13.3-12.7-2.6-25.2-10-29.5-17.4-3.7-8 2.5-14.9 11.5-20.1-0.4-1-1-3.2-1-4.7-5.8-1.6-10.5-3.5-14.8-6.3-61.7 57.5-127.7 110.8-202.1 149.8 75.9 22.9 148.4 54.9 218.5 93z m206.8 12.1c5.9-60.7-84.9-119.9-129.3-106.4-28.5 8.4-54.2 60.1-65.4 105.4 0 46.5 41.4 74.1 79.1 72.3 37.5-1.6 90.8-33.2 115.6-71.3z m-365.6-740c-69.7-76.6-159-93.4-246.1-45.9 49.2-109.8 238.7-94.9 246.1 45.9z m-582.2 648.2c29.1-3.7 48 37.5 36.3 60.2-9.4 18.9-46.3 47-70.1 53.3-32.2 9-62.9-6.5-62.9-29.1 0-34.8 66-81.3 96.7-84.4z m421.7-344.1c-60.4 0-112.5-50.2-98.3-116.8 25.8 40.4 90.9 23.4 90.9-22.1 0-19.5-13.7-36.3-32.3-42.2 61.9-26.9 141 16 141 86.5 0 52.4-45.5 94.6-101.3 94.6z m-435 475c-1-16.4 39.7-45.9 57-49 16.8-3.2 24.8 22.2 19 35.9-5.3 11.1-20.5 26.4-33.8 31.6-18.4 6.3-41.2-5.8-42.2-18.5z m846.1-130.9c30.7 3.1 96.7 49.6 96.7 84.4 0 22.8-30.7 38.1-62.9 29.1-23.6-6.3-61.1-34.4-70.7-53.3-11.1-22.7 7.8-63.9 36.9-60.2z m-43.7 81.9c17.3 3.1 58.6 32.6 56.8 49-0.4 12.7-23.6 24.8-41.6 18.5-13.7-5.2-29.1-20.5-33.8-31.6-5.7-13.9 2.2-39.1 18.6-35.9z" />
  </svg>
