<svg height="1000" width="1125" xmlns="http://www.w3.org/2000/svg"><path d="M1075.5 879.5c0 22.7 -30.6 38 -62.8 29C989 902.2 951.5 874.2 942 855.2c-11.1 -22.7 7.9 -63.8 36.9 -60.1 30.7 3.1 96.6 49.6 96.6 84.4zM728.2 146.9C720.9 6 531.4 -8.8 482.3 101c87.1 -47.5 176.3 -30.6 245.9 45.9zM146.1 795.1c-30.6 3.1 -96.6 49.6 -96.6 84.4 0 22.7 30.6 38 62.8 29 23.8 -6.3 60.7 -34.3 70.2 -53.3 11.6 -22.7 -7.4 -63.8 -36.4 -60.1zm972.2 27.9c2.1 6.9 3.7 13.7 3.7 21.1 1.6 61.8 -86.6 125.1 -143.6 127.2C944.6 972.9 910.9 955 895 925.4c-221.6 7.9 -443.3 9.5 -664.5 0 -16.3 29.6 -50.1 47 -83.9 45.9C90.1 969.2 2 905.9 3.1 844.1c.5 -7.4 1.5 -14.2 3.6 -21.1C-4.1 804.5 -2.7 793.2 17.3 800.3c6.3 -10 13.7 -18.4 21.6 -26.9 -5 -21.3 2.5 -27.5 21.7 -17.9 9 -6.4 19.5 -12.7 31.1 -18 0 -30.8 23.1 -21.7 33.8 -11.1 24.4 -3.4 39.3 1.4 52.3 11.1V699C152.4 699 98.4 676.8 88 628.3c-9.7 -40.5 5.1 -74.4 49.1 -92.9 1.6 -11.6 15.8 -27.5 29 -31.2 14.8 -3.7 24.3 9 27.5 20.1 14.5 0 34.7 2.9 41.2 15.8 10.5 -1 21.6 -2.6 32.2 -3.7 -4.8 -3.7 -10.1 -6.8 -15.9 -8.9 -10 -17.5 -26.9 -21.7 -48 -22.7 0 -1.6 0 -3.2 .5 -5.3 -38.5 -1.1 -86 -11.1 -107.1 -34.8C54.8 418.5 65.3 301.4 120.2 262.5c16.4 -11.1 42.2 -1.6 44.4 19 4.7 40.2 .7 52.4 51.2 50.7 15.8 -15.3 32.7 -28.5 51.7 -39.1 -29.1 -2.6 -56.5 3.2 -85.5 7.4 24.9 -24.4 46.8 -49.7 110.8 -82.9 45.9 -23.2 97.7 -40.6 148.8 -45.3C405.2 156.9 363.5 149 325 140.1c149.4 -31.7 341 -43.3 477.1 73.3 35.4 30.1 63.4 70.7 83.4 117.2 77.8 9.5 71.3 -10.9 75.5 -49.1 2.1 -20.1 28 -30.1 44.3 -18.5 29.1 20.6 43.3 60.2 48.1 94 4.2 34.8 .5 80.7 -24.3 107.7C1008 488.4 962 499 924 500v5.3c-21.6 .5 -39.5 4.7 -50.1 22.7 -5.8 2.1 -11.1 5.3 -16.4 9 11.1 1 22.2 2.6 32.8 3.7 3.6 -11 24.5 -16.4 41.1 -16.4 3.2 -10.6 13.2 -23.2 27.5 -20.1s27.4 19.6 29 31.2c21.1 8.4 43.3 23.7 49.1 50.1 3.7 15.8 3.2 29.6 .5 42.8 -11.2 49.3 -65.1 70.7 -89.7 70.7 0 13.2 0 25.9 -.5 38.5 15.6 -11.7 31.9 -14 52.2 -11.1 11.6 -11.5 34.3 -18.3 34.3 11.1 11.1 5.3 22.2 11.6 31.2 18 19.7 -9.9 26.7 -1.1 21.1 17.9 7.9 8.5 15.8 17.4 21.6 26.9 19.8 -7 21.5 4.1 10.6 22.7zM974.2 326.9c33.8 13.2 51.2 43.3 59.1 69.7 2.1 -20.6 -5.3 -77.1 -26.9 -99.8 -14.3 -14.2 -27.5 -10 -27.5 1.6 0 12.1 -2.6 22.7 -4.7 28.5zm-36.4 24.3c25.3 30.6 33.2 81.3 24.8 123 21.1 -4.3 40.1 -12.2 51.2 -23.8 3.7 -4.2 7.4 -9.5 9.5 -14.8 -2.1 -41.7 -20.1 -83.4 -58.1 -95.5 -6.3 6.3 -17.9 9.5 -27.4 11.1zm-42.8 1.6c14.8 40.1 24.3 83.4 28 126.1 6.9 0 14.8 -.5 22.7 -1.6 11.6 -47.5 -.5 -100.8 -27.5 -124 -7.3 0 -15.8 0 -23.2 -.5zM151.9 326.9c-2.1 -5.8 -4.8 -16.4 -4.8 -28.5 0 -11.6 -13.7 -15.8 -27.4 -1.6 -22.2 22.7 -29 79.2 -26.9 99.8 7.9 -26.4 25.3 -56.5 59.1 -69.7zM163 474.2c-8.5 -41.7 -.6 -92.4 24.8 -123 -9.5 -1.6 -21.1 -4.8 -27.5 -11.1 -38 12.1 -55.4 53.8 -58 95.5 2.6 5.3 5.8 10.6 9.5 14.8 11.1 12.1 30.1 19.5 51.2 23.8zm80.7 -119.3c-10 2.1 -19.5 5.8 -29 9.5l-23.8 10v-.5c-14.2 27.4 -19.5 67 -10.5 103.4 9 1.1 16.9 1.6 24.8 1.6 4.7 -43.3 17.9 -85.5 38.5 -124zm172.1 -45.4c0 82.3 67 148.8 148.8 148.8S713.5 391.8 713.5 309.5c0 -81.8 -67.1 -148.3 -148.9 -148.3S415.8 227.7 415.8 309.5zm297.7 190c19.4 98.8 6.4 126.3 32.2 113.5 31.1 -15.9 44.3 -76.6 44.8 -111.4 -25.3 -1.6 -51.2 -1.6 -77 -2.1zm-139.9 -1.1v-.5c-.5 10 .5 74.4 8.4 80.2 21.7 10.6 77.1 9 99.8 2.1 10.6 -3.1 4.7 -72.3 3.2 -81.8 -37 -.5 -74.5 -.5 -111.4 0zm-27.4 0v-.5c-38 .5 -75.5 .5 -113 1.6 -3.7 17.9 -9 95.5 3.7 100.8 25.3 11.1 81.3 10 106.6 3.2 9 -4.8 4.8 -88.7 2.7 -105.1zM378.8 610.9c10.6 4.7 16.9 4.7 19 -8.5 3.7 -16.9 4.8 -71.8 9.5 -101.9 -23.7 .6 -48 1.6 -71.7 3.2 -10.6 38.5 .5 88.1 43.2 107.2zM250.6 589.2c85.5 91.8 181 167.3 304.5 208C687.1 759.7 781 680 873.9 588.2c-21.7 -8.5 -15.1 -20.3 -14.2 -22.7 -17.5 -1.6 -34.9 -3.7 -51.8 -5.3 -18.4 64.4 -70.2 103.4 -91.3 61.7 -5.2 -10 -6.8 -22.7 -8.9 -32.7 -7.4 16.4 -25.9 15.8 -48.1 17.4 -25.8 2.1 -61.7 2.7 -86 -5.8 -5.8 25.4 -21.6 25.4 -52.3 28 -27.4 2.6 -95 7.9 -107.1 -21.1 -2.1 55.9 -68.6 19.5 -88.1 -13.7 -6.4 -11.1 -10.6 -22.2 -13.8 -34.3 -15.3 1.5 -30.6 3.1 -45.9 5.2 4.8 7.2 3 17.7 -15.8 24.3zm-24.8 296.6C214.7 840.4 189.4 788.7 160.3 780.3 116.5 767.1 25.7 826.2 31 886.9c24.8 38 78.1 69.7 115.6 71.2 34.8 1.6 70.2 -21.6 77.6 -56.4 1.1 -4.8 1.6 -10.1 1.6 -15.9zM240 874.2c65.5 -38 135.1 -69.6 206.9 -91.8C371.5 742.3 313.9 689 256.9 632c-4.2 2.6 -10 4.7 -15.3 6.8 -3.2 9.6 17 10.4 10.6 24.3C248 671 235.3 677.9 222.6 681c-4.2 5.3 -10 9.5 -15.3 12.7h-.5c-.5 26.4 -.5 52.8 .5 79.2 17.5 31.2 30.1 65.1 32.7 101.3zM866.5 899C794.7 857.3 721.9 818.3 640.6 795.6c-26.9 12.1 -54.3 22.1 -82.3 30.1 -4.2 1.5 -4.2 1.5 -8.5 0 -23.2 -7.4 -45.3 -15.9 -68 -25.9 -78.7 22.7 -151 57 -219.6 99.2h-.5v.6c.5 0 .5 0 .5 -.6 201.6 7.9 403.2 6.9 604.3 0zm52.8 -125.1l-.5 .6c1 -27 1.6 -53.9 1.6 -80.8 -5.8 -3.2 -11.1 -7.9 -15.9 -13.2 -12.6 -2.6 -25.3 -10 -29.5 -17.4 -3.7 -7.9 2.6 -14.8 11.6 -20.1 -.5 -1 -1.1 -3.1 -1.1 -4.7 -5.8 -1.6 -10.5 -3.7 -14.8 -6.3C809 689.5 743 742.8 668.6 781.9c76 22.6 148.3 54.8 218.5 92.8 2.1 -28.6 14.1 -69.8 32.2 -100.8zm45.4 6.4c-28.5 8.4 -54.4 60.1 -65.5 105.5 0 46.6 41.6 74 79.2 72.3 37.5 -1.5 90.8 -33.2 115.6 -71.2 5.8 -60.7 -85 -119.8 -129.3 -106.6zM567.8 262c.1 0 .2 0 .3 0 0 0 .1 0 .2 0h-.5zm0 188.9c55.9 0 101.3 -42.2 101.3 -94.4C669.1 286 590 243 528.2 269.9c18.5 5.8 32.2 22.7 32.2 42.2 0 45.4 -65 62.4 -90.8 22.2 -14.2 66.5 37.8 116.6 98.2 116.6zm-434.9 475c1 12.7 23.7 24.9 42.2 18.5 13.2 -5.3 28.5 -20.6 33.8 -31.7 5.8 -13.7 -2.1 -39 -19 -35.8 -17.4 3.1 -58.1 32.7 -57 49zm802.2 -49c-16.3 -3.2 -24.2 22.1 -18.4 35.8 4.7 11.1 20 26.4 33.7 31.7 18 6.4 41.2 -5.8 41.7 -18.5 1.6 -16.3 -39.5 -45.9 -57 -49z"/></svg>