
  <svg height="1000" width="1000.0" xmlns="http://www.w3.org/2000/svg">
    <path d="m575.7 367.6c113.5 0 165.4 68.8 165.4 150.2 0 49.9-30.3 150.2-162.4 150.2h-92.7v-300.4h89.7z m-75.7-352c267.6 0 484.4 216.8 484.4 484.4s-216.8 484.4-484.4 484.4-484.4-216.8-484.4-484.4 216.8-484.4 484.4-484.4z m-157.8 704.6v-405.2h-58.3v405.2h58.3z m-29.1-451.4c21-0.1 38.1-17.2 38.2-38.2 0-21.1-17.1-38.3-38.2-38.3s-38.3 17.2-38.3 38.3 17.2 38.2 38.3 38.2z m272.8 451.9c133.6 0 214.9-98.8 215-202.9 0-95.8-65.9-202.8-215.7-202.8h-157.5v405.7h158.2z" />
  </svg>
