<svg height="1000" width="968.4" xmlns="http://www.w3.org/2000/svg"><path d="M0 506.3C4.5 241 190.2 52.3 417.6 21.7c271.1 -36.3 499.2 148 542.9 392.8 41.6 232 -85.9 449.2 -296 535.1 -18.2 7.4 -28.2 3.3 -35.2 -15C594.5 844.1 559.8 753.5 525 663.1c-6.1 -15.8 -2 -25.8 13.7 -32.8 47.2 -21.5 76.7 -57.4 84.5 -109C635.7 438.5 575.4 367.6 497.3 360.7 421.1 354.1 357 407 345.9 477.3c-10.2 64.5 21.7 124.5 81.8 151.8 18.8 8.6 22.5 16.8 15.3 35.9 -35 91.1 -70 182.1 -104.9 273.3 -5.1 13.5 -16.2 18.1 -30.3 12.7C205.1 911.3 109.8 831.8 52.3 718.6 3.7 622.5 3.1 547.3 0 506.3zm40.8 -3.8c.8 12.9 1.2 28 2.6 43.2C55.7 686.1 140.2 826 299.2 903.3c6.3 3 8.6 1.6 11 -4.5C339.3 822.5 368.6 746.1 398 669.7c2.6 -6.4 1.2 -9.3 -4.6 -13.1C331.6 617.8 301 561.9 304.3 488.7c2 -42.2 18.2 -79.1 46.5 -110C409.4 314.8 501.2 301 576.4 344.3c62.3 36 96.6 105.1 88.2 176.6 -7 59.8 -37.6 105.3 -89.2 136.3 -5.3 3.2 -6.8 5.7 -4.5 11.7 29.7 76.6 59 153.2 88.3 229.9 2.3 6.1 4.7 7.5 10.9 4.5 69.4 -32.4 127.4 -78.7 172.1 -140.6 68 -94.1 95.9 -199 82.6 -314.5C898 218.8 691.6 28.7 425.8 61.5 218.6 86.9 44.3 261.7 40.8 502.5z"/></svg>