
  <svg height="1000" width="1000.0" xmlns="http://www.w3.org/2000/svg">
    <path d="m15.6 520.4c4.5-265.2 190.3-454 417.6-484.6 271.1-36.3 499.2 148.1 543 392.8 41.6 232-86 449.2-296.1 535.1-18.2 7.5-28.1 3.4-35.2-15-34.7-90.4-69.5-180.9-104.3-271.5-6-15.8-1.9-25.8 13.7-32.8 47.3-21.5 76.8-57.4 84.6-109 1.1-7 1.6-14.2 1.6-21.6 0-72.9-56.2-132.8-127.6-138.9-76.2-6.7-140.2 46.3-151.4 116.6-10.1 64.4 21.7 124.4 81.9 151.7 18.7 8.6 22.4 16.8 15.2 36-35 91-69.9 182.1-104.9 273.2-5.1 13.5-16.2 18.2-30.3 12.7-102.7-39.6-198-119.1-255.4-232.4-48.7-96.1-49.3-171.3-52.4-212.3z m40.8-3.7c0.8 12.9 1.2 27.9 2.6 43.1 12.3 140.5 96.9 280.3 255.8 357.7 6.3 2.9 8.6 1.5 11-4.5 29.1-76.4 58.4-152.8 87.9-229.1 2.5-6.5 1.1-9.4-4.7-13.1-61.7-38.9-92.4-94.7-89.1-168 2-42.2 18.2-79.1 46.5-110 58.6-63.8 150.4-77.7 225.6-34.3 53.6 30.9 89.8 88.8 89.8 155.1 0 7.4-0.7 14.3-1.5 21.4-7.1 59.8-37.7 105.3-89.3 136.4-5.3 3.1-6.8 5.6-4.5 11.7 29.7 76.5 59.1 153.2 88.3 229.9 2.3 6 4.7 7.4 10.9 4.5 69.4-32.5 127.4-78.8 172.1-140.7 68-94.1 95.9-199 82.6-314.4-26.7-229.5-233.2-419.6-499-386.7-207.2 25.4-381.4 200.2-385 441z" />
  </svg>
