<svg height="1000" width="968.8" xmlns="http://www.w3.org/2000/svg"><path d="M484.4 984.4C216.8 984.4 0 767.6 0 500S216.8 15.6 484.4 15.6c40.8 0 80.6 5.1 118.5 14.7L82.6 765.6h401.8v218.8zm0 -280.5V286.7L192.6 703.9h291.8zm187.5 61.7v181.1c89.2 -37.5 165 -101 217.6 -181.1H671.9zM784 495.7l-41.4 16.4 41.4 16.2v-32.6zm-39.7 106.4c-13 0 -15.6 12.4 -15.6 25.2v15.1h31.7v-19.5c0 -11.6 -4.5 -20.8 -16.1 -20.8zM968.8 500c0 72.9 -16.1 142 -45 203.9H671.9V53.3C846.3 126.6 968.8 299 968.8 500zM703.9 280.5h133.2v-93H810v63.7h-27.2v-57.8h-27.1v57.8h-24.8v-63.7h-27.2v93zm133 361.9h-51.7v-21.5c0 -30.1 -11 -49.2 -40.9 -49.2 -30 0 -40.4 20.7 -40.4 50.6v49.4h133.2v-29.3zm0 -201.2l-133.2 58v24.2l133.2 57.7v-32.5l-28.1 -11.1v-51.8l28.1 -11.5v-33zm-9.4 -133.8H758v52h27.2v-23.9h21.4c16.8 30.9 2.6 69 -36.3 69 -43.9 0 -55.3 -49.4 -30.3 -73.6l-22.6 -20.7C685.7 344.3 693.6 435 770.3 435c66.4 0 87.3 -70.2 57.2 -127.6z"/></svg>