
  <svg height="1000" width="750.0" xmlns="http://www.w3.org/2000/svg">
    <path d="m750 610.7c-107.6 267-365.4 105.5-365.4 105.5-79.1 159.8-209.8 262.5-360.6 263.1-31.4 0-32.4-47.7 0-47.7 125.8-0.5 235.4-83.4 307.1-215-80.3 31.1-231.7 54.5-315.7-160.5 212.9-87.7 310.8 21.8 348.3 88.8 19.3-47.6 33.2-99.4 42.2-155.6 0 0-272.9 42.7-292-191.6 232.6-93.6 298 149.8 298 149.8 3.1-32.7 6.5-102.8 6.5-104.3 0 0-207.7-144-74.5-322.7 243.4 84 120 317.2 120 317.2 0.9 3.1 0.9 46.5 0 65.2 0 0 88.2-173.8 266.4-112.3-8.2 261.7-277.2 207.8-277.2 207.8-8.6 53.5-21.9 104.3-39 151.4 0 0 162.1-179.3 335.9-39.1z" />
  </svg>
