
  <svg height="1000" width="968.8" xmlns="http://www.w3.org/2000/svg">
    <path d="m484.4 984.4c-267.6 0-484.4-216.8-484.4-484.4s216.8-484.4 484.4-484.4c40.8 0 80.6 5.1 118.5 14.7l-520.3 735.3h401.8v218.8z m0-280.5h-291.8l291.8-417.2v417.2z m187.5 61.7h217.6c-52.6 80.1-128.4 143.6-217.6 181.1v-181.1z m112.1-269.9v32.6l-41.4-16.2z m-39.7 106.4c11.6 0 16.1 9.2 16.1 20.8v19.5h-31.7v-15.1c0-12.8 2.6-25.2 15.6-25.2z m224.5-102.1c0 72.9-16.1 142-45 203.9h-251.9v-650.6c174.4 73.3 296.9 245.7 296.9 446.7z m-264.9-219.5h133.2v-93h-27.1v63.7h-27.2v-57.8h-27.1v57.8h-24.8v-63.7h-27.2v93h0.2z m133 361.9h-51.7v-21.5c0-30.1-11-49.2-40.9-49.2-30 0-40.4 20.7-40.4 50.6v49.4h133.2v-29.3h-0.2z m0-201.2l-133.2 58v24.2l133.2 57.7v-32.5l-28.1-11.1v-51.8l28.1-11.5v-33z m-9.4-133.8h-69.5v52h27.2v-23.9h21.4c16.8 30.9 2.6 69-36.3 69-43.9 0-55.3-49.4-30.3-73.6l-22.6-20.7c-31.7 34.1-23.8 124.8 52.9 124.8 66.4 0 87.3-70.2 57.2-127.6z" />
  </svg>
