<svg height="1000" width="1125" xmlns="http://www.w3.org/2000/svg"><path d="M751.8 378.7c0 -92.6 -107.9 -86.3 -186.4 -58.2 -2.5 77 -4.9 157.6 -5.8 234 1.3 5.5 5 12.1 29.5 12.1 71.8 0 162.9 -83.6 162.7 -187.9zm-379.9 141c.4 0 12.7 -5.2 21.9 -5.2 51.9 0 40.4 86.1 -28.2 86.1 -42 0 -72.4 -35.4 -72.4 -84 0 -82 83.8 -186.7 196.6 -247.1 2 -24.2 5.9 -42.9 20.6 -55 21.8 -17.6 51.9 -6.9 57.6 21.6 141 -43.3 264 2 264 140.7 0 152.1 -154.9 298 -273.6 269.9 -.2 76.9 1.8 145.3 5.3 195.3v.4c.4 6.6 1.1 24.4 -10.4 37.3 -18.7 20.7 -65.2 19.5 -71.1 -43.6 -8 -86.7 .4 -402.5 2.8 -473.6 -42 29.3 -114.3 98.2 -114.3 148.2 .4 4.9 .8 7.9 1.2 9zM15.6 353.7s-.2 73.1 75 73.1h58.6L193 851s0 86.5 87.3 86.5h564.2s87.3 -.8 87.3 -86.5l43.8 -424.2h58.6s75 2.3 75 -73.1c0 0 .2 -73 -75 -73h-58.8c-14.3 -50 -59 -145.2 -233.2 -145.2h-54.7V98.2S682.2 62.3 646.3 62.3H478.7s-41.2 0 -41.2 35.9v37.3h-54.9s-205.1 8.3 -235.3 145.2H90.6s-75 -2.4 -75 73z"/></svg>