
  <svg height="1000" width="1125.0" xmlns="http://www.w3.org/2000/svg">
    <path d="m751.8 378.7c0.2 104.3-90.9 187.9-162.7 187.9-24.5 0-28.2-6.6-29.5-12.1 0.9-76.4 3.3-157 5.8-234 78.5-28.1 186.4-34.4 186.4 58.2z m-379.9 141c-0.4-1.1-0.8-4.1-1.2-9 0-50 72.3-118.9 114.3-148.2-2.4 71.1-10.8 386.9-2.8 473.6 5.9 63.1 52.4 64.3 71.1 43.6 11.5-12.9 10.8-30.7 10.4-37.3v-0.4c-3.5-50-5.5-118.4-5.3-195.3 118.7 28.1 273.6-117.8 273.6-269.9 0-138.7-123-184-264-140.7-5.7-28.5-35.8-39.2-57.6-21.6-14.7 12.1-18.6 30.8-20.6 55-112.8 60.4-196.6 165.1-196.6 247.1 0 48.6 30.4 84 72.4 84 68.6 0 80.1-86.1 28.1-86.1-9.1 0-21.4 5.2-21.8 5.2z m-356.3-166c0-75.4 75-73 75-73h56.7c30.2-136.9 235.3-145.2 235.3-145.2h54.9v-37.3c0-35.9 41.2-35.9 41.2-35.9h167.6c35.9 0 41.2 35.9 41.2 35.9v37.3h54.7c174.2 0 218.9 95.2 233.2 145.2h58.8c75.2 0 75 73 75 73 0 75.4-75 73.1-75 73.1h-58.6l-43.8 424.2c0 85.7-87.3 86.5-87.3 86.5h-564.2c-87.3 0-87.3-86.5-87.3-86.5l-43.8-424.2h-58.6c-75.2 0-75-73.1-75-73.1z" />
  </svg>
