<svg height="1000" width="750" xmlns="http://www.w3.org/2000/svg"><path d="M217.6 577.9c-6.9 37.5 -34 212.3 -42 261.7 -.6 3.6 -2 4.9 -5.9 4.9H24C9.2 844.5 -1.6 831.6 .4 817.4L114.8 91c3 -18.7 19.8 -33 39.1 -33 297.5 0 322.5 -7.2 398.4 22.3 117.4 45.5 128.2 155.2 86 274 -42 122.3 -141.6 174.8 -273.7 176.4C279.9 532 228.9 517 217.6 577.9zm479.9 -281c-3.6 -2.6 -4.9 -3.5 -5.9 2.5 -3.9 22.3 -10 44 -17.2 65.6C596.5 587.3 380.5 568 275 568c-11.9 0 -19.7 6.4 -21.3 18.3 -44.1 274.2 -52.9 331.5 -52.9 331.5 -2 13.8 6.8 25.2 20.7 25.2h124c16.8 0 30.7 -12.3 34 -29.1 1.4 -10.6 -2.2 11.9 28.1 -178.4 9 -42.9 27.9 -38.4 57.2 -38.4 138.7 0 246.9 -56.3 279.1 -219.4 12.7 -67.9 9 -139.4 -46.4 -180.8z"/></svg>