
  <svg height="1000" width="750.0" xmlns="http://www.w3.org/2000/svg">
    <path d="m217.6 577.9c-6.9 37.5-34 212.3-42 261.7-0.6 3.6-2 4.9-5.9 4.9h-145.7c-14.8 0-25.6-12.9-23.6-27.1l114.4-726.4c3-18.7 19.8-33 39.1-33 297.5 0 322.5-7.2 398.4 22.3 117.4 45.5 128.2 155.2 86 274-42 122.3-141.6 174.8-273.7 176.4-84.7 1.3-135.7-13.7-147 47.2z m479.9-281c55.4 41.4 59.1 112.9 46.4 180.8-32.2 163.1-140.4 219.4-279.1 219.4-29.3 0-48.2-4.5-57.2 38.4-30.3 190.3-26.7 167.8-28.1 178.4-3.3 16.8-17.2 29.1-34 29.1h-124c-13.9 0-22.7-11.4-20.7-25.2 0 0 8.8-57.3 52.9-331.5 1.6-11.9 9.4-18.3 21.3-18.3 105.5 0 321.5 19.3 399.4-203 7.2-21.6 13.3-43.3 17.2-65.6 1-6 2.3-5.1 5.9-2.5z" />
  </svg>
