
  <svg height="1000" width="1250.0" xmlns="http://www.w3.org/2000/svg">
    <path d="m824 320.8c14.4 31.8 4.5 9.9 48.1 106.8l-77.6 20.8c26.8-115.7 20.8-89.6 29.5-127.6z m-402.5 99.9c63.5-17.6 82 73.5-0.7 92.6-27.7 7.4-12.9 3.4-68 18.2l-8.7-90.2c55.3-14.7 38-10.1 77.4-20.6z m637.1-51.2c148 74.1 191.4 149.1 191.3 204.1 4.1 154-358 254.5-781 165.6 1.1 25.4-15.6 48.2-40.2 54.8-245.2 65.5-229.2 62-239.3 62-28.1 0-51.6-21.3-54.3-49.2l-8.4-86.9c-0.2-1.7-0.3-3.4-0.3-5.1 0-23.2 14.6-43 35-50.9l-3.4-34.9c-98.1-55.2-158-120.9-158-186.3 0-142.4 281.8-221.5 604.3-192.1 5.9-16.6 19.7-29.4 36.9-34 189.2-50.6 127.6-34.2 264.8-70.8 25.7-6.8 52.6 5.8 63.7 30z m-560.3 213.1c40.6-9.4 75.5-33.1 99.1-65.8 42.2-63.7 27.6-206.2-83.1-204-31.3 0.4-15.7-1.7-363.7 91.1l8.5 86.9 39.3-10.5 21.7 223.9-39.1 10.4 8.4 87 225.2-60.1-8.8-86.9-40.1 10.7-4.8-46 94.6-25.2z m389 32.5l212.1-56.6-8.4-86.9-40.6 10.9-130.3-284.1c-137.8 36.8-82.4 22-264.8 70.8l8.2 86.8 33.5-8.9-64.6 247-41 11 8.7 86.7 220.4-58.7-7.9-77.2-37.5 10 8-34.3 112.8-30.1 12.9 28.7-29.1 7.7z" />
  </svg>
