<svg height="1000" width="875" xmlns="http://www.w3.org/2000/svg"><path d="M722.7 124.2C647.3 44.1 547.9 0 442.6 0 218.6 0 36.1 187.9 36.1 418.8c0 146.6 112.9 312.1 161.6 376.3 71.4 94.5 178.5 204.9 244.9 204.9 81.2 0 220.5 -184 236.1 -205.1 48.1 -64.6 160.2 -231 160.2 -376.1 0 -110.4 -41.2 -215.1 -116.2 -294.6zM442.6 964.6c-83 0 -371.1 -326.7 -371.1 -545.7C71.5 209.2 235.4 35.5 442.6 35.5c196.9 0 360.7 173.9 360.7 383.4 .2 219 -287.9 545.7 -360.7 545.7zM660.2 403.9c0 115.4 -99.8 214.3 -216.4 214.3C247.3 618.2 149.4 406.8 262.3 263.1v.8c0 47.8 39.3 86.7 87.5 86.7s87.5 -38.9 87.5 -86.7c0 -35.6 -21.7 -66 -52.5 -79.5 149.6 -37.5 275.4 76.7 275.4 219.5z"/></svg>