
  <svg height="1000" width="875.0" xmlns="http://www.w3.org/2000/svg">
    <path d="m722.7 124.2c75 79.5 116.2 184.2 116.2 294.6 0 145.1-112.1 311.5-160.2 376.1-15.6 21.1-154.9 205.1-236.1 205.1-66.4 0-173.5-110.3-244.9-204.9-48.7-64.2-161.6-229.7-161.6-376.3 0-230.9 182.5-418.8 406.5-418.8 105.3 0 204.7 44.1 280.1 124.2z m-280.1 840.4c72.8 0 360.9-326.7 360.7-545.7 0-209.5-163.8-383.4-360.7-383.4-207.2 0-371.1 173.7-371.1 383.4 0 219 288.1 545.7 371.1 545.7z m217.6-560.7c0 115.4-99.8 214.3-216.4 214.3-196.5 0-294.4-211.4-181.5-355.1v0.8c0 47.8 39.3 86.7 87.5 86.7 48.2 0 87.5-38.9 87.5-86.7 0-35.6-21.7-66-52.5-79.5 149.6-37.5 275.4 76.7 275.4 219.5z" />
  </svg>
