<svg height="1000" width="968.8" xmlns="http://www.w3.org/2000/svg"><path d="M630.9 511.9l-.2 -25.4s42.3 -38.6 41.2 -41.4l-18.6 -39c-1.2 -2.8 -57.6 -1 -57.6 -1l-18.4 -18.2s.4 -55.6 -2.3 -56.8l-39.3 -18c-2.7 -1.2 -40.4 41 -40.4 41l-25.6 -.4s-40 -41.8 -42.7 -40.6l-39.1 16.2c-2.7 1 .4 56.5 .4 56.5l-17.8 17.7s-57 -1.7 -58 .8L296.7 442c-1.2 2.7 41 41 41 41l.2 25.2s-42.4 38.7 -41.2 41.4l18.5 39.1c1.2 2.7 57.7 .9 57.7 .9l18.3 18.2s-.4 62.1 2.4 63.1l39.2 16.2c2.7 1.2 40.4 -45.9 40.4 -45.9l25.6 .4s40.1 46.5 42.6 45.5l39.1 -14.6c2.7 -1.2 -.4 -62.7 -.4 -62.7L597.9 592s57 1.8 58 -1l15.8 -38.7c1.3 -2.1 -40.8 -40.4 -40.8 -40.4zm-87.7 -17c1.3 33.4 -25 61.7 -58.8 63.3 -33.8 1.6 -62.7 -24.4 -64.1 -57.8 -1.4 -33.4 25 -61.7 58.8 -63.1 33.8 -1.6 62.7 24.4 64.1 57.6zm392.9 -74L746.7 231.4l-.2 .2C599.8 88.5 364.8 89.5 219.5 234.8c-99.4 99.6 -54.3 54.5 -186.9 186.1 -43.5 43.6 -43.5 114.6 0 158.2 136.5 135.5 90.6 89.8 190.3 189.5l.1 -.2c146.7 143.1 381.7 142.3 527 -3.2 99.6 -99.4 54.5 -54.5 186.1 -186.1 43.6 -43.6 43.6 -114.6 0 -158.2zM274.2 710.5C157.8 594.3 157.8 405.9 274.2 289.6c116.2 -116.4 304.7 -116.2 421.1 0 116.2 116.3 116.4 304.7 0 421.1C578.9 827 390.6 826.8 274.2 710.5z"/></svg>