
  <svg height="1000" width="968.8" xmlns="http://www.w3.org/2000/svg">
    <path d="m630.9 511.9c0 0 42.1 38.3 40.8 40.4l-15.8 38.7c-1 2.8-58 1-58 1l-17.8 17.8s3.1 61.5 0.4 62.7l-39.1 14.6c-2.5 1-42.6-45.5-42.6-45.5l-25.6-0.4s-37.7 47.1-40.4 45.9l-39.2-16.2c-2.8-1-2.4-63.1-2.4-63.1l-18.3-18.2s-56.5 1.8-57.7-0.9l-18.5-39.1c-1.2-2.7 41.2-41.4 41.2-41.4l-0.2-25.2s-42.2-38.3-41-41l15.8-38.7c1-2.5 58-0.8 58-0.8l17.8-17.7s-3.1-55.5-0.4-56.5l39.1-16.2c2.7-1.2 42.7 40.6 42.7 40.6l25.6 0.4s37.7-42.2 40.4-41l39.3 18c2.7 1.1 2.3 56.8 2.3 56.8l18.4 18.2s56.4-1.8 57.6 1l18.6 39c1.1 2.8-41.2 41.4-41.2 41.4z m-87.7-17c-1.4-33.2-30.3-59.2-64.1-57.6-33.8 1.4-60.2 29.7-58.8 63.1 1.4 33.4 30.3 59.4 64.1 57.8s60.1-29.9 58.8-63.3z m392.9-74c43.6 43.6 43.6 114.6 0 158.2-131.6 131.6-86.5 86.7-186.1 186.1-145.3 145.5-380.3 146.3-527 3.2l-0.1 0.2c-99.7-99.7-53.8-54-190.3-189.5-43.5-43.6-43.5-114.6 0-158.2 132.6-131.6 87.5-86.5 186.9-186.1 145.3-145.3 380.3-146.3 527-3.2l0.2-0.2z m-661.9 289.6c116.4 116.3 304.7 116.5 421.1 0.2 116.4-116.4 116.2-304.8 0-421.1-116.4-116.2-304.9-116.4-421.1 0-116.4 116.3-116.4 304.7 0 420.9z" />
  </svg>
