<svg height="1000" width="1250" xmlns="http://www.w3.org/2000/svg"><path d="M415.8 672.5c7.4 -.2 44.6 -2.8 50 -4.3 -4.7 -5.1 -85.1 -2 -132.8 -96.9 -8.4 -16.8 -14.6 -34.4 -12.5 -53.9 5.7 -49.8 64.3 -58.6 101.6 -36.1 70.3 42.1 123.6 178.3 222 190.4 72.3 8.8 165.3 -33.2 211.4 -88.7 -1.2 -.2 -1.6 -.4 -2 -.2 -.8 .2 -1.5 .4 -2.1 .6C786.3 607 667.2 602.3 588.3 554.5 514.8 510 484.6 439.8 487.1 408.8c3.5 -41.6 44.7 -45.3 70.1 -38.3 28.2 7.6 47.7 34.4 76 53.5 30.5 20.3 64.3 26.8 100.2 20.1 29.1 -5.2 67.2 -24 71.3 -28.3 -2.2 -.2 -3.5 -.2 -4.9 -.4 -12.1 -1.1 -24.2 -1.5 -36.1 -3.3C546.5 379.9 511.9 92.6 270.5 74 184 67.4 76.4 89.8 4.3 142.4c-1.6 1.2 -2.9 2.3 -4.3 3.5 .2 .4 .2 .6 .4 1 1.6 0 3.1 -.2 4.7 -.4 12.3 -2 24.4 -1.6 36.5 .6 46.5 8.4 93.2 45.1 109.2 149.4 10.3 67 -1.4 99.2 15.6 168.1 37.1 150.6 177.7 210.2 249.4 207.9zM147.1 126.8c-1.8 -2 -1.8 -2.4 -2.6 -3.9 23.7 -5.1 47.3 -8.1 71.5 -9.4 -2.1 28.7 -43.3 41.6 -68.9 13.3zm384.5 684.5C448 813.7 352 759.2 290.4 691.4c-9 -9.8 -32.8 -39.4 -36.3 -45.7l.8 -.8c12.9 8 50.2 36.4 107 52.8 47.3 13.6 94 12.3 139.9 -6.5 44.3 -18.2 80 -1 84.1 5.7 -36.1 7.4 -39.2 8.6 -46.8 15.4 -10 8.6 -9 22.9 13.6 33.6 51.2 24.2 123.1 -5.5 189.9 49.6 4.7 3.9 15.8 15.2 19.7 20.9 -.2 .4 -.6 .6 -.8 1 -9.4 -2.9 -32 -14.7 -78.5 -18.2 -48.2 -3.9 -90.4 10.4 -151.4 12.1zM873 319.1c32.1 -10.1 80.7 -26.1 129.9 -6.4 31.5 12.7 51.2 36.5 62.7 67.6 6.9 18.3 10 38.4 10 56 -.4 0 -.8 0 -1.2 .2 -.4 -.8 -.8 -1.7 -1 -2.5 -9.7 -43 -58.4 -85.6 -132 -58.4 -98 36.3 -254.7 18.9 -345.5 -93.8 -1.4 -1.7 -4.7 -3.3 -2.5 -6.2 .2 -.4 4.1 1.2 5.8 2.5 35.4 26.2 74.8 42.8 117.8 51.2 59.6 11.9 106.6 5.7 156 -10.2zm200.6 229.5c-63.2 .4 -66 97.9 -202.3 125.8 -35.6 7.2 -75.6 9 -87.7 8.2v-.8c5.5 -2.9 28.7 -5 58 -32.4 15.4 -14.2 29.9 -29.5 44.5 -44.7 38.1 -39.5 80.9 -82.4 160 -76.2 45.1 3.5 57.2 16 70.5 24.8 .6 .4 .8 1 1.4 1.8 -1 0 -1.4 .2 -1.8 0 -13.7 -5.3 -27.9 -6.5 -42.6 -6.5zm-24 -47c-.2 .4 -.2 .7 -.4 1.1 -56.4 -8.6 -93.7 -15.4 -133.8 7.8 -33.2 19.4 -61.3 40.1 -121.1 47.7 -52.9 6.6 -88 4.7 -129.1 -15.6 -.6 -.4 -1.1 -.8 -1.9 -1.2 0 -.4 .2 -.6 .2 -1 48.6 7.5 71.1 10 108.4 -11.3 43.5 -25.2 78.3 -52 139.2 -60.5 57.8 -8.1 100.2 4.8 138.5 33zM524.6 190c-1.2 -1.1 -2.1 -2.3 -4.1 -4.5 14.9 0 58 -2.3 104.3 16.5 38.5 15.6 62.9 41 98.1 64.2 21.6 14.3 45.7 18.2 71 15.8 8.4 -.7 16.6 -2.3 25 -3.3 .8 -.2 1.8 0 3 .6 -1.2 .8 -2.4 1.8 -3.5 2.3 -15.9 7.9 -32.7 12.3 -50 13.9 -51 5.1 -98.3 -7.2 -143.4 -30.1C587.3 246.1 553.9 220.7 524.6 190zM1250 655.7c-6.8 6 -44.3 22.6 -83.4 10.3 -24 -7.6 -38.1 -29.1 -61.7 -47.1 -19.5 -14.8 -40.8 -15.4 -54.9 -16.4 1.2 -1.5 1.8 -2.3 2.3 -2.7 28.9 -18 59.6 -23.8 92.4 -12.7 24.4 8.2 37.5 26.4 59.4 47.3 21.1 20.3 41 19.3 45.1 20.5 .2 -.2 .4 0 .8 .8zM835 923.2c4.3 2.4 3.1 3 2.9 3.9 -36.1 -2.7 -66.2 -14.8 -91.4 -43.3 -42.6 -48.3 -81.5 -54.5 -94.9 -58 .9 -.4 1.5 -.8 2.1 -.8 25.6 .2 51 1.4 76 7.6 49.4 12.5 68.3 49.6 81.2 69 6.3 9.3 14.3 16.2 24.1 21.6z"/></svg>