
  <svg height="1000" width="1000.0" xmlns="http://www.w3.org/2000/svg">
    <path d="m187.5 123.8c90.8-70.6 206.2-109.5 321.3-106.6 57.8-0.7 115.5 10.5 169.8 29.9-47.2-9-95.7-12.3-143.4-4.7-83.7 10.3-162.2 53-218.4 115.5 11.1-1.9 21.1-7.1 31.3-11.4 35.4-15.4 73.2-25.9 111.7-29 38.6-4.1 77.5-0.8 115.8 3.8-28.1 5.4-56.8 8.9-84 18.7-67.2 21.6-127.4 64.8-168.5 122.3-27 38.5-46.2 83.8-48.2 131.2-0.7 32.2 10.2 67.9 38.7 85.9 15.7 9.5 34.1 14.9 53.7 14.9 6.7 0 13.3-0.5 19.6-1.7 30.2-4.8 58.7-16.9 85.2-31.9 22.5-13.4 44.2-28.5 62.5-47.4 7.4-6.3 4.9-16.5 5.1-25-4.2-0.6-8.6-2.1-12.3 0.6-22 12.1-45.7 22.3-70 30-39 12.1-82.3 16.5-121.3 1.5 25 3.4 50.9 0.7 73.7-10.6 39.6-19 71.9-49.2 106.4-75.7 53.9-41.5 111.9-77.7 173.6-108 50.2-23.5 103.4-44.5 159.3-47.1-30.5 26.8-62.8 51.8-91.3 80.8-28.4 27.3-53.7 57.6-78.4 88.2-6.9 9-17.5 13.6-26.5 19.9-43.6 29.3-78.5 69.6-101.4 117.4-18.2 38.4-28.3 81.7-22.9 124.3 3.7 26.7 17 53.9 40.8 68.2 25.2 15.6 56.7 15.7 84.9 9.9 64.1-14.5 120-56.4 158.2-109 39.9-53.8 59.6-121.5 57-188.2-1.1-14.7-3.1-29.3-3.3-44 15.6 38.1 29 77.6 32.5 118.9 3.9 27.8 1.5 56.1-3.1 83.7-3.8 21.5-11.1 42.1-15.2 63.4 38.9-43.7 66.2-98.4 76.8-158.4 2.9-18.3 4.4-37.1 4.4-56.3 0-52.8-11.6-102.9-32.1-148 40.5 62.5 63.1 135.9 69.7 209.9 1 24.9 1 49.8 0 74.7-5.7 68.4-26.2 133.7-57.8 190.9-51 92.4-132.8 167.2-228.9 210.9-152.9 70.8-341.2 61.2-484.4-28.7-76.1-46.6-137.7-112.8-178.6-192.7-27.8-54.8-45.4-116.8-49.5-181.4v-61.3c7.7-136.2 79.8-265.4 187.5-348.3z m433.6 156.9c10.8-1.8 21.4-4.8 31.2-8.8 9.8-3.4 18.1-11.6 20.2-21.9-17.5 9.8-35.1 19.4-51.4 30.7z" />
  </svg>
