<svg height="1000" width="1003" xmlns="http://www.w3.org/2000/svg"><path d="M188 122.7C279.1 51.9 394.8 12.8 510.3 15.8c58 -.8 115.8 10.5 170.3 30C633.3 36.7 584.5 33.4 536.8 41c-84 10.5 -162.6 53.2 -219 115.9 11.1 -1.9 21.1 -7.2 31.3 -11.5 35.6 -15.4 73.5 -25.9 112.2 -29 38.6 -4.2 77.6 -.8 116.1 3.8 -28.3 5.4 -57.1 8.9 -84.2 18.7 -67.5 21.7 -127.9 65 -169.1 122.7 -27 38.7 -46.3 84 -48.3 131.5 -.7 32.3 10.2 68.2 38.8 86.3 21.8 13 48.6 18.4 73.5 13.2 30.3 -4.8 59 -16.9 85.5 -32 22.5 -13.3 44.3 -28.5 62.6 -47.5 7.4 -6.3 4.9 -16.5 5.1 -25 -4.2 -.7 -8.6 -2.2 -12.4 .6a398.4 -398.4 0 0 0 -70.1 30.1c-39.2 12.1 -82.6 16.5 -121.7 1.5 25.1 3.4 51.1 .6 74 -10.7 39.6 -19 72.1 -49.3 106.6 -75.9 54.4 -41.6 112.6 -78.3 174.2 -108.3 50.3 -23.5 103.6 -44.7 159.7 -47.3C821 205 788.7 230 760 259.2c-28.4 27.4 -53.8 57.7 -78.6 88.5 -6.9 9 -17.5 13.5 -26.6 19.9 -43.4 29.3 -79.3 70.2 -101.6 117.7 -18.3 38.5 -28.4 82 -23.1 124.7 3.8 26.8 17.1 54 41 68.4 25.2 15.6 56.9 15.8 85.1 9.9C720.5 673.8 776.6 631.8 815 579c40 -53.9 59.8 -121.9 57.1 -188.8 -1 -14.7 -3.1 -29.3 -3.3 -44 15.7 38.1 29.1 77.8 32.7 119.1 3.9 28 1.4 56.4 -3.2 84.1 -3.7 21.5 -11.1 42.1 -15.3 63.5 39.8 -44.4 66.8 -100.1 77.1 -158.8 11.2 -69.1 1.1 -141.3 -27.8 -205 40.7 62.7 63.3 136.3 69.9 210.5 1 25 1 50 0 74.9 -5.7 66.9 -25.3 132.7 -58.1 191.4C892.9 818.7 810.9 893.7 714.5 937.5c-153.3 71 -342.2 61.3 -485.8 -28.7C152.9 862.3 90 794.8 49.7 715.5 20.9 659 4 596.7 0 533.5v-61.4C7.7 335.4 80.1 205.8 188 122.7M622.8 280c10.8 -1.5 21.2 -5 31.3 -8.7 9.8 -3.5 18.1 -11.7 20.2 -22 -17.4 9.7 -35 19.4 -51.5 30.7z"/></svg>