<svg height="1000" width="1250" xmlns="http://www.w3.org/2000/svg"><path d="M625 204.1c334.8 0 592.2 141 592.2 295.9S959.6 795.9 625 795.9C290.2 795.9 32.8 654.9 32.8 500S290.4 204.1 625 204.1m0 -32.8C279.9 171.3 0 318.4 0 500s279.9 328.7 625 328.7S1250 681.6 1250 500 970.1 171.3 625 171.3zM426.2 473.6c-15.5 79.1 -69.9 70.9 -136.9 70.9L316 406.6c74.2 0 124.6 -8 110.2 67zm-236 210.6h71.7l17 -87.5c80.3 0 130.1 5.8 176.2 -37.3 51 -46.9 64.2 -130.3 27.9 -172.1 -18.9 -21.9 -49.4 -32.6 -90.8 -32.6H254.1l-63.9 329.5zM552.9 267h71.3l-17 87.5c61.6 0 118.6 -4.5 146.1 20.9 28.9 26.6 15.1 60.5 -16.2 220.9h-72.3c30.1 -155.1 35.8 -168 24.8 -179.7 -10.5 -11.3 -34.5 -9 -92.5 -9l-36.7 188.7h-71.3L552.9 267zm433.4 206.6c-15.6 80.3 -71.7 70.9 -136.9 70.9l26.8 -137.9c74.6 0 124.6 -8 110.1 67zM750.4 684.2h71.9l17 -87.5c84.3 0 131 4.9 176.1 -37.3 51 -46.9 64.3 -130.3 28 -172.1 -19 -21.9 -49.5 -32.6 -90.9 -32.6h-138l-64.1 329.5z"/></svg>