
  <svg height="1000" width="1250.0" xmlns="http://www.w3.org/2000/svg">
    <path d="m1250 48.6c-157.8 104.7-174.6 180.7-188.3 203.9-13.1 23.9-22.8 117.8-45.5 163.3-22.8 46.1-105.8 82.4-129.1 97.7-22.8 15.2-55.3 74.4-81.8 125.4-211.2-8.6-327 75.7-506.3 182.8 57.4-19 84.6-32.6 84.6-32.6 184-70.4 272.1-133.4 549-96.1 2.2 0 3.7 1.1 5.5 1.5 7.6 4.3 10.3 13.5 6 21.1l-105.2 187.1c-4.9 9.2-15.3 14.1-25.6 11.9-247.7-46.4-443.2 33.8-622.9 36.4-143.3 2.1-190.4-65.5-190.4-68.6 0-2.1 1.2-3.3 3.3-3.3 0 0 74.8 0 201.4-29.9 143.7-274 271.9-369.9 411.3-369.9 0 0 140.1 0 177 120.9 44.5-77.5 55.2-96.1 55.2-96.1 10.4-18.4 68.4-150.8 168.8-276.2 100.6-125 176.6-156 233-179.3z" />
  </svg>
