
  <svg height="1000" width="937.5" xmlns="http://www.w3.org/2000/svg">
    <path d="m890.5 45.3c18.4-4.7 29.4 20 13.6 30.6-191.8 128.8-235.2 249.2-246.5 312.9-65.5 368.9-198 233-360 442.7 50.3 28.9 109 45.7 171.2 45.7 190.7 0 345.8-155.2 345.8-345.9 0-88-33.1-168.5-87.5-229.4 9.2-19 20.3-36.9 33.2-53.5 71 73 114.7 172.6 114.7 282.4v0.4c0 224.4-181.9 406.3-406.2 406.3s-406.3-181.9-406.3-406.3 181.9-406.2 406.3-406.2c71.7 0 139.5 19.1 197.9 52.1 90.7-76.1 171.6-118.5 223.8-131.8z m-646.4 748.5c126.5-275.2 245.4-452.5 374.3-573.8-45-22.1-96-34.6-149.5-34.6h-0.1c-190.8 0-345.9 155.1-345.9 345.9 0 105.1 47 199.2 121.2 262.5z" />
  </svg>
