<svg height="1000" width="1125" xmlns="http://www.w3.org/2000/svg"><path d="M472.7 365.2c12.3 -23 25.7 -33.2 50.5 -42.5 53.4 -20.2 78.6 -59.6 115.1 -99.8 23.2 16.4 23.4 48 61.7 44.9v42.6l12.3 .5C785.4 282.8 858.2 252 920.5 204.3 1014.8 132.4 1023.8 106.6 1079.3 9l3.9 -5.1c-1.2 27.5 -12.3 53.3 -24.2 77.9 -59.6 124.6 -153.7 195.9 -286.7 228 -24.3 5.6 -51.6 6.2 -73.5 17.3 2.8 19.2 25.8 35.4 25.8 45 0 6.6 -10.7 14 -14.6 16.8 -21.9 -25.2 -31.5 -37.7 -44.4 -43.2 -14.8 -6.8 -124.8 -12.5 -192.9 19.5zM742 867c-37.1 0 -125.2 18.5 -156.1 38.7l13.5 88.1c69.7 11.9 136.9 7 207 -19.2C797.1 955.1 760.5 867 742 867zM476.6 480.5c-6.3 -3.9 -12.3 -5.7 -19.8 -5.7 -12.9 0 -24.6 6.3 -37.7 7.2l3.4 9.6 54.1 -11.1zM452 542.6l47 119.5 41 -26.9 -61.1 -99.5 -26.9 6.9zM1085 0l-1.2 2.1 -.6 1.8 1.2 -1.2L1085 0zM969.3 746.3C903.1 635.2 822.3 515 676.4 520.7l-.6 -11.7c-2.2 -26.4 64 6.2 68.5 -60.6l-28.1 14.1C677.5 373.2 699.4 356.4 588.3 356.4c-28.7 0 -52.2 3.4 -80.9 9 5.7 36.4 4.3 71.7 -21.3 98.3l38.1 10.7c-3.3 6.3 -5.6 12.3 -5.6 19.2 0 41 83.5 5.6 83.5 65.6 0 35.9 -71.8 117.4 -107.2 117.4C479.3 676.6 390 578.9 390.6 559.2l.6 -9 102.2 -22.5c25.4 -5 24 -44.3 -5.7 -44.3 -7.2 0 -84.2 18 -96.5 20.7 -3.9 -10.2 -14.6 -27.5 -26.9 -27.5 -6.3 0 -12.3 6.2 -18.6 7.8 -18 5.1 -60.5 5.6 -42 39.2L31.1 583c-10.8 2.2 -17.4 12.3 -17.4 23.1 0 11.7 10.7 21.2 22.4 21.2 15.7 0 256.5 -55.4 287.9 -62.8 5.1 6.2 9 12.3 15.3 16.8C378.5 609.4 456.1 749 488.5 749c47 0 113.3 -43.7 139.2 -81.8 6.3 -8.4 13.5 -14.7 24.3 -13.5 1.1 27 -61.8 66.8 -64.5 85.4 -2.7 19.9 -2 68.7 -.6 80.2 52.2 15.9 101.6 -7 152.2 -5.6 8.4 -41 20.7 -81.9 19.1 -124.1l-.6 -18.5c-2.7 -66.8 -21.3 -75.2 -68 -114.5 -2.1 -2.1 -5 -5 -7.2 -7.8 4.3 -2.7 2.2 -1.9 9 -3.3 172.9 0 110 358.6 217.8 449 64.6 -29.3 141.6 -54.5 202.1 -92.2 -56.6 -50 -102.7 -89.2 -142 -156zm-383.2 89.8v53.4l23.1 -6.7 -5.7 -46.5h-17.4zm148.7 5.7c0 -2.7 -1.2 -6.3 -1.8 -9 -52.3 0 -72.1 7.4 -116.2 12.3l3.9 24.2c17.6 -2.9 114.1 -12.9 114.1 -27.5z"/></svg>