
  <svg height="1000" width="750.0" xmlns="http://www.w3.org/2000/svg">
    <path d="m398.4 12.7c184 0 351.6 126.6 351.6 320.5 0 182.2-93.2 384.4-300.6 384.4-49.2 0-111.3-24.6-135.3-70.3-44.6 176.3-41.1 202.7-139.5 337.5-10.1 3.7-6.8 4.5-13.5-3-3.5-36.9-8.8-73.2-8.8-110.1 0-119.6 55.1-292.4 82.1-408.4-14.7-29.9-18.8-66.2-18.8-99 0-156.3 183.4-179.7 183.4-50.4 0 76.1-51.5 147.6-51.5 221.5 0 50.3 41.6 85.5 90.2 85.5 134.8 0 176.4-194.5 176.4-298.2 0-138.9-98.5-214.5-231.5-214.5-154.7 0-274.2 111.3-274.2 268.4 0 75.5 46.3 114.2 46.3 132.4 0 15.2-11.1 69.1-30.5 69.1-46.9 0-124.2-78.1-124.2-215.6 0-216.2 198-349.8 398.4-349.8z" />
  </svg>
