<svg height="1000" width="750" xmlns="http://www.w3.org/2000/svg"><path d="M398.4 12.7C198 12.7 0 146.3 0 362.5 0 500 77.3 578.1 124.2 578.1c19.4 0 30.5 -53.9 30.5 -69.1 0 -18.2 -46.3 -56.9 -46.3 -132.4 0 -157.1 119.5 -268.4 274.2 -268.4 133 0 231.5 75.6 231.5 214.5 0 103.7 -41.6 298.2 -176.4 298.2 -48.6 0 -90.2 -35.2 -90.2 -85.5C347.5 461.5 399 390 399 313.9 399 184.6 215.6 208 215.6 364.3c0 32.8 4.1 69.1 18.8 99 -27 116 -82.1 288.8 -82.1 408.4 0 36.9 5.3 73.2 8.8 110.1 6.7 7.5 3.4 6.7 13.5 3C273 850 269.5 823.6 314.1 647.3c24 45.7 86.1 70.3 135.3 70.3C656.8 717.6 750 515.4 750 333.2 750 139.3 582.4 12.7 398.4 12.7z"/></svg>