
  <svg height="1000" width="1125.0" xmlns="http://www.w3.org/2000/svg">
    <path d="m1115 727.1c-22 27.8-75.7 47.5-75.7 47.5l-400.6 143.8v-106.1l294.7-105.1c33.4-11.9 38.7-28.9 11.3-37.9-27.1-8.9-76.3-6.4-109.7 5.7l-196.3 69.3v-110.1c45.3-15.3 92-26.6 147.8-32.8 79.9-8.8 177.6 1.1 254.3 30.2 86.3 27.4 96.1 67.8 74.2 95.5z m-438.2-180.6v-271.5c0-31.8-5.9-61.1-35.8-69.5-22.8-7.5-37.1 13.8-37.1 45.7v679.5l-183.2-58.2v-810c77.9 14.5 191.4 48.6 252.3 69.1 155.3 53.4 207.9 119.8 207.9 269.2 0 145.5-89.9 200.8-204.1 145.7z m-592.4 254.7c-88.7-25-103.5-77.2-63.1-107.1 37.3-27.7 101-48.6 101-48.6l262.7-93.4v106.5l-189.1 67.6c-33.4 11.9-38.5 28.9-11.3 37.9 27.1 8.9 76.3 6.4 109.7-5.7l90.7-33v95.3c-100.8 18.2-198.1 14.3-300.6-19.5z" />
  </svg>
