<svg height="1000" width="843.8" xmlns="http://www.w3.org/2000/svg"><path d="M794.9 218.6L602.5 201l27.4 -65.3C650.2 89.8 608.8 56.8 573.8 63.5L43.9 150.2c-29.4 5.3 -50.7 35.7 -41.8 71.5L207.4 902c12.7 41.6 71.7 47.2 93.2 13.6l68.9 -157.8L828.9 306.1c32 -32.9 8.4 -83.8 -34 -87.5zM581.3 104.7c9.9 -1.4 14.6 4.9 10.1 14.4l-32.8 78L212.1 165.2l369.2 -60.5zm-537 106c-6 -9.9 2 -19.5 12 -17.7L542 237.3 352.7 687.9 44.3 210.7zm221.3 680.7c-5.1 7.8 -15.4 6.1 -18.3 -2.3L85 351l249.4 385.9c-13.7 29.3 -68.8 154.5 -68.8 154.5zM798.4 277.1l-388 381.7L585.5 241.4l207.9 19c7.8 2.1 11.1 10.3 5 16.7z"/></svg>