
  <svg height="1000" width="843.8" xmlns="http://www.w3.org/2000/svg">
    <path d="m794.9 218.6c42.4 3.7 66 54.6 34 87.5l-459.4 451.7-68.9 157.8c-21.5 33.6-80.5 28-93.2-13.6l-205.3-680.3c-8.9-35.8 12.4-66.2 41.8-71.5l529.9-86.7c35-6.7 76.4 26.3 56.1 72.2l-27.4 65.3z m-213.6-113.9l-369.2 60.5 346.5 31.9 32.8-78c4.5-9.5-0.2-15.8-10.2-14.4z m-537 106l308.4 477.2 189.3-450.6-485.8-44.3c-9.9-1.8-17.9 7.8-11.9 17.7z m221.3 680.7c0 0 55.1-125.2 68.8-154.5l-249.4-385.9 162.3 538.1c2.9 8.4 13.2 10.1 18.3 2.3z m532.8-614.3c6.1-6.4 2.8-14.6-5-16.7l-207.9-19-175.1 417.4z" />
  </svg>
