<svg height="1000" width="875" xmlns="http://www.w3.org/2000/svg"><path d="M327.7 71.1C239.5 86.7 223.4 119.3 223.4 179.7v79.5h208.8v26.5H145.1c-60.7 0 -113.8 36.6 -130.5 105.9 -19.1 79.5 -19.9 129.1 0 212.1 14.9 61.7 50.2 105.9 111 105.9h71.7v-95.3c0 -69 59.5 -129.7 130.4 -129.7h208.6c58 0 104.3 -47.9 104.3 -106.1v-199c0 -56.6 -47.6 -99 -104.3 -108.6C466.4 59.4 390.4 60 327.7 71.1zm-13.1 55.5c21.5 0 39.3 17.9 39.3 39.8s-17.6 39.7 -39.3 39.7c-21.6 0 -39.2 -17.8 -39.2 -39.7 .2 -22.1 17.6 -39.8 39.2 -39.8zm361.8 158.9v92.8c0 71.9 -61 132.4 -130.5 132.4H337.3c-57 0 -104.3 48.9 -104.3 106.1v198.8c0 56.7 49.2 89.9 104.3 106.1 66 19.3 129.5 22.8 208.6 0 52.5 -15.3 104.3 -45.9 104.3 -106.1v-79.5H441.8v-26.5h312.9c60.7 0 83.2 -42.4 104.3 -105.9 21.9 -65.4 20.9 -128.3 0 -212.1C843.9 331.3 815.4 285.7 754.7 285.7h-78.3zM559 789.1c21.7 0 39.2 17.7 39.2 39.6 0 22.1 -17.5 39.9 -39.2 39.9 -21.5 0 -39.3 -18 -39.3 -39.9 .2 -22.1 17.8 -39.6 39.3 -39.6z"/></svg>