
  <svg height="1000" width="875.0" xmlns="http://www.w3.org/2000/svg">
    <path d="m847.2 821.2c-22.5 2.7-87.6-103-87.6-103 0 61.2-31.6 141.1-99.8 198.8 32.9 10.1 107.2 37.4 89.5 67.2-14.3 24.1-245.1 15.4-311.8 7.9-66.6 7.5-297.5 16.2-311.8-7.9-17.6-29.8 56.5-57.1 89.5-67.2-68.2-57.7-99.8-137.6-99.8-198.8 0 0-65.1 105.7-87.6 103-10.5-1.3-24.2-57.9 18.3-194.8 20-64.5 42.9-118.1 78.4-206.6-6-228.3 88.4-419.8 313-419.8 222.1 0 318.7 187.8 313 419.8 35.4 88.4 58.4 142.3 78.4 206.6 42.5 136.9 28.8 193.5 18.3 194.8z" />
  </svg>
