
  <svg height="1000" width="1000.0" xmlns="http://www.w3.org/2000/svg">
    <path d="m612.5 927c8.6 8.5 15.8 17.5 26 24.4-42.4 12.7-87.3 19.7-133.8 19.7-1.2 0-2.5 0-3.7 0-263.7 0-477.6-213.9-477.6-477.7 0-263.9 213.7-477.8 477.6-477.8s477.7 213.9 477.7 477.8c0 68.9-13.5 131.6-39.6 190.8-5.9-11.2-14.1-19.9-21.9-29.9 21.9-182.6-121.3-344.9-306.7-344.9-170.4 0-308.7 138.3-308.7 308.8s138.3 308.8 308.7 308.8h2z m-0.2-0.2l0.8 0.2z m153.1-329.9c106.9 0 193.8 86.8 193.8 193.7v0c0 107-86.8 193.8-193.8 193.8s-193.7-86.8-193.7-193.8 86.8-193.7 193.7-193.7z" />
  </svg>
