<svg height="1000" width="955.3" xmlns="http://www.w3.org/2000/svg"><path d="M589.6 927h-2.5C416.6 927 278.3 788.7 278.3 618.2S416.6 309.4 587.1 309.4c185.4 0 328.5 162.3 306.7 344.9 7.8 10 16 18.7 21.8 29.9C941.8 625 955.3 562.3 955.3 493.4 955.3 229.5 741.4 15.6 477.5 15.6 213.9 15.6 0 229.5 0 493.4s213.9 477.7 477.5 477.7c48.5 0 93.4 -6.3 137.5 -19.7 -10.1 -6.9 -17.5 -16 -26.1 -24.6l.7 .2zM548.2 790.6c0 -107 86.8 -193.7 193.8 -193.7 107 0 193.7 86.7 193.7 193.7C935.7 897.7 849 984.4 742 984.4c-107 0 -193.8 -86.7 -193.8 -193.8"/></svg>