
  <svg height="1000" width="875.0" xmlns="http://www.w3.org/2000/svg">
    <path d="m860.4 755.3c3.5 35.1-14.1 182.2-173.9 182.2-96.7 0-147.4-56.1-185.9-121.7-229.9 63.7-486.3-107.2-486.3-369.1 0-228.5 191.4-384.2 386.1-384.2 198.8 0 387.7 154.7 387.5 384.2 0 127.9-59.6 232-145.9 298.8 27.7 42.2 56.6 69.9 96.7 69.9 43.9 0 61.5-33.8 64.4-60.1h57.3z m-280.3-112.3c22-48.7 32.8-114.7 32.6-196.3 0-203.5-63.5-308-212.3-308-146.5 0-210 104.5-210 308.4 0 202.5 63.5 306 210 306 23.4 0 44.3-2.3 63.9-8.2-30.3-59.5-65.9-119.7-135.2-119.7-13.3 0-26.6 1.9-38.7 7.8l-23.8-47.5c28.7-25 75.2-44.5 134.8-44.5 93.3 0 140.6 44.9 178.7 102z" />
  </svg>
