<svg height="1000" width="875" xmlns="http://www.w3.org/2000/svg"><path d="M860.4 755.3h-57.3c-2.9 26.3 -20.5 60.1 -64.4 60.1 -40.1 0 -69 -27.7 -96.7 -69.9C728.3 678.7 787.9 574.6 787.9 446.7 788.1 217.2 599.2 62.5 400.4 62.5 205.7 62.5 14.3 218.2 14.3 446.7c0 261.9 256.4 432.8 486.3 369.1 38.5 65.6 89.2 121.7 185.9 121.7 159.8 0 177.4 -147.1 173.9 -182.2zM580.1 643C542 585.9 494.7 541 401.4 541c-59.6 0 -106.1 19.5 -134.8 44.5l23.8 47.5c12.1 -5.9 25.4 -7.8 38.7 -7.8 69.3 0 104.9 60.2 135.2 119.7 -19.6 5.9 -40.5 8.2 -63.9 8.2 -146.5 0 -210 -103.5 -210 -306 0 -203.9 63.5 -308.4 210 -308.4 148.8 0 212.3 104.5 212.3 308 .2 81.6 -10.6 147.6 -32.6 196.3z"/></svg>