<svg height="1000" width="1134.8" xmlns="http://www.w3.org/2000/svg"><path d="M1134.8 442.6c0 -210 -254.1 -380.1 -567.4 -380.1S0 232.6 0 442.6c0 187.1 201.8 342.6 467.6 374v120.9h193.5V817.4c47.5 -5.3 93 -14.5 135.6 -27.2L875 937.5h218.8L962.1 715.4c106.5 -69.1 172.7 -165.8 172.7 -272.8zM223 470.9C223 327.3 416.2 211.1 654.3 211.1s413.9 79.5 413.9 259.8c0 97.9 -51.8 166 -137.3 207.8 -4.7 -3.1 -9.2 -5.7 -12.5 -7.2C898.4 661.3 864.1 651 864.1 651s169.1 -12.5 169.1 -181.1S856.3 298.2 856.3 298.2H467.6v406.9C322.9 663.1 223 574 223 470.9zm439.7 74.8V437.1c112.9 0 171.5 -13.3 171.5 53.3 0 71.3 -74.6 55.3 -171.5 55.3zm-1.8 141.6h52c21.1 0 36.9 22.9 46.9 37.5 -31.5 3.7 -64.5 5.5 -98.9 5.7v-43.2z"/></svg>