
  <svg height="1000" width="1134.8" xmlns="http://www.w3.org/2000/svg">
    <path d="m1134.8 442.6c0 107-66.2 203.7-172.7 272.8l131.7 222.1h-218.8l-78.3-147.3c-42.6 12.7-88.1 21.9-135.6 27.2v120.1h-193.5v-120.9c-265.8-31.4-467.6-186.9-467.6-374 0-210 254.1-380.1 567.4-380.1s567.4 170.1 567.4 380.1z m-911.8 28.3c0 103.1 99.9 192.2 244.6 234.2v-406.9h388.7s176.9 3.2 176.9 171.7c0 168.6-169.1 181.1-169.1 181.1s34.3 10.3 54.3 20.5c3.3 1.5 7.8 4.1 12.5 7.2 85.5-41.8 137.3-109.9 137.3-207.8 0-180.3-175.8-259.8-413.9-259.8s-431.3 116.2-431.3 259.8z m439.7 74.8c96.9 0 171.5 16 171.5-55.3 0-66.6-58.6-53.3-171.5-53.3v108.6z m-1.8 141.6v43.2c34.4-0.2 67.4-2 98.9-5.7-10-14.6-25.8-37.5-46.9-37.5h-52z" />
  </svg>
