
  <svg height="1000" width="794.9" xmlns="http://www.w3.org/2000/svg">
    <path d="m726.6 454.1c56 33.6 106.6 141.8 27.3 229.9-5.1 27.5-13.9 47.3-21.5 69.1-11.5 88.3-86.7 129.5-106.6 134.4-29.1 21.9-60 42.6-102 57-39.4 40.3-82.2 55.5-125.4 55.5h-1.9c-43 0-86-15.2-125.6-55.5-41.8-14.4-72.9-35.1-102-57-19.7-4.9-95.1-46.1-106.6-134.4-7.6-21.8-16.4-41.6-21.5-69.1-79.1-87.9-28.5-196.3 27.8-229.9l7.2-12.7c-0.2-90.6 41.8-127.5 90.8-155.7-14.8-3.9-30.1-7.2-34.4-25.7-25.6-6.7-30.8-18.4-33.4-30.9-6.6-4.5-28.9-17-26.5-38.5-12.3-8.6-19.4-19.7-15.9-35.3-13.4-14.7-16.9-26.8-11.3-37.9-16.2-19.9-9-30.3-2.1-40.8-12.1-21.9-1.6-45.4 32.2-41.4 13.5-19.8 42.8-15.3 47.3-15.3 4.8-6.4 11.7-11.7 32.2-9.2 13.3-11.9 28.1-9.9 43.5-4.1 6.3-4.8 12-6.6 17-6.8 9.8-0.2 18.2 5.7 27.2 8.4 22.1-7 26.9 2.7 37.9 6.6 24-5 31.4 5.9 42.9 17.4l13.5-0.2c36.3 21.1 54.3 64.1 60.8 86.2 6.4-22.1 24.4-65.1 60.7-86.2l13.5 0.2c11.5-11.5 18.9-22.4 42.9-17.4 10.8-4.1 15.9-13.6 37.9-6.6 13.9-4.3 26-15.8 44.2-1.6 15.4-5.6 30.3-7.8 43.5 4.1 20.5-2.5 27.2 3 32.3 9.2 4.5 0 33.7-4.5 47.2 15.3 33.8-4 44.6 19.5 32.4 41.4 6.9 10.3 14.1 20.7-2.1 40.8 5.7 11.1 2.1 23.2-11.3 37.9 3.7 15.6-3.3 26.7-15.8 35.3 2.3 21.5-20 34-26.6 38.5-2.5 12.5-7.8 24.4-33.4 30.9-4.3 18.7-19.5 21.8-34.4 25.7 49 28.2 91 65.1 90.8 155.7z m-43.4-15.6c2.9-95.1-71.1-147.3-160.3-132.6-32.9 5.4 157.4 169.1 160.3 132.6z m-84 181.8c47.9-30.8 56.5-100.8 19.4-156.2-37.2-55.5-106.1-75.4-154-44.6s-56.4 100.8-19.3 156.3c37.1 55.5 106.1 75.4 153.9 44.5z m-132.6-563.1c-32.4 31.1-78.3 109.2-11.3 140.3 56.6-45.9 124.2-79.5 199.2-104.5-96.3 49-152.4 88.4-183 122.2 15.8 61.9 97.6 64.9 127.7 63.1-6-2.7-11.3-6-13.1-11.3 7.5-5.3 34.2-0.6 52.8-10.9-7.3-1.4-10.6-2.8-13.9-8.1 17.6-5.6 36.5-10.3 47.7-19.5-6.1 0-11.8 1.2-19.6-4.1 15.8-8.4 32.6-15 45.7-27.7-8.2-0.2-17-0.2-19.5-3.1 14.4-8.8 26.6-18.6 36.7-29.3-11.3 1.3-16.2 0.2-18.9-1.8 10.9-10.9 24.6-20.3 31.2-33.8-8.6 2.9-16.2 4.1-21.9-0.2 3.8-8.4 19.6-13.1 28.8-32.4-9 0.8-18.4 1.9-20.4 0 4.1-16.6 11.2-25.8 18.2-35.6-19.1-0.3-48 0-46.7-1.5l11.7-11.9c-18.5-4.9-37.7 0.8-51.5 5-6.3-4.8 0-10.9 7.6-17.1-15.8 1.9-30.3 5.6-43.2 10.5-7-6 4.5-12.3 10-18.4-24.4 4.5-34.8 11-45.1 17.4-7.4-7-0.4-13.1 4.7-19.1-18.4 6.8-28 15.4-37.9 24-3.5-4.5-8.6-7.8-2.4-18.7-13.1 7.4-23 16.2-30.2 25.9-8.2-5-4.9-11.9-4.9-18.3-13.7 10.9-22.3 22.4-32.8 33.8-2.2-1.6-4.1-6.7-5.7-14.9z m-67.2 223.9c-53.1-1.4-104.3 38.8-104.3 62.1-0.2 28.5 42 57.4 104.7 58.2 64.1 0.4 104.9-23.3 105.1-52.6 0.2-33-58.2-68.3-105.5-67.7z m-240.2-25c18.7 10.1 45.3 5.4 53.1 10.9-1.8 5.1-7 8.6-13.1 11.3 30.1 1.8 112.1-1 127.8-63.1-30.7-33.8-86.8-73.4-183.1-122.2 75 25 142.6 58.6 199.3 104.5 66.6-31.1 20.7-109.2-11.8-140.3-1.7 8.2-3.5 13.3-5.6 14.9-10.6-11.4-19.2-22.9-32.8-33.8 0 6.2 3.1 13.3-4.9 18.3-7.2-9.7-17.2-18.5-30.3-25.9 6.3 10.9 1 14.2-2.3 18.7-10-8.6-19.6-17.4-37.9-24 5.1 6 12.1 12.1 4.7 19.1-10.4-6.4-20.7-12.9-45.2-17.4 5.5 6.1 16.8 12.4 10 18.4-13.1-4.9-27.3-8.4-43.2-10.5 7.5 6.2 13.9 12.3 7.7 17.1-13.9-4.2-33-9.9-51.6-5l11.7 11.9c1.4 1.5-27.5 1.4-46.7 1.5 6.9 9.6 14.1 19 18.2 35.6-2 1.9-11.3 0.8-20.3 0 9.2 19.3 25 24.2 28.7 32.4-5.7 4.1-13.5 3.1-21.9 0.2 6.5 13.5 20.3 22.9 31.3 33.8-2.8 2-7.6 3.1-19 1.8 10.2 10.7 22.3 20.5 36.7 29.3-2.5 3.1-11.3 2.9-19.5 3.1 13.1 12.7 29.9 19.3 45.7 27.7-7.8 5.5-13.5 4.1-19.5 4.1 11.1 9.2 30.1 14.1 47.6 19.5-3.3 5.1-6.6 6.7-13.8 8.1z m117.4 47c-89.1-14.8-163.3 37.5-160.4 132.6 2.9 36.4 193.2-127.1 160.4-132.6z m-202 364.9c42.2 18.5 76.4-205.7 24.6-192-85.7 48-70.9 155.3-24.6 192z m177.7 191.8c27.6-20.3 12.5-89.3-20.5-128.4-37.9-43.3-87.1-69.1-118.9-50-21.3 16.1-25.2 70.4 5.1 123.9 44.9 63.6 108.4 69.9 134.3 54.5z m-51.5-233.8c47.6 30.8 116.6 10.9 153.9-44.6 37.1-55.4 28.5-125.3-19.3-156.2s-116.8-10.9-154 44.5-28.5 125.4 19.4 156.3z m199.6 342.8c55.5 0.9 112.7-47.7 111.7-69.2-0.2-22.3-62.5-38.9-108.8-36.9-45.9-1.2-116.6 18.2-115.8 43-0.8 16.8 55.5 65.4 112.9 63z m115-244v-1.2c-0.4-57.8-52.3-104.7-116-104.3-63.7 0.4-115.2 47.5-114.8 105.5v1.2c0.4 57.8 52.3 104.7 116 104.3 63.7-0.4 115.2-47.5 114.8-105.5z m160.6 83.4c35.9-45.3 23.8-121.1 3.3-141.2-30.5-23.3-74.2 6.4-115 51.9-35.8 41.3-55.5 116.5-29.5 140.7 24.8 18.7 91.8 16.2 141.2-51.4z m44.7-143c46.3-36.5 61.1-143.7-24.6-192-51.6-13.6-17.4 210.4 24.6 192z" />
  </svg>
