
  <svg height="1000" width="1000.0" xmlns="http://www.w3.org/2000/svg">
    <path d="m795.7 120.1c142 74 218.8 228.9 201.8 389.7-3.4 32.6-8.6 70.7-19.2 101.9-43.3 128.3-103.3 212.1-240.4 288.5-12.5 8.6-26 16.8-39.5 21.1-24.4 8.6-50.9 10.5-78.3 7.6-11.5 1-23 1.4-35.1 1.4-183 0-337.9-125-384.6-295.7-1.4 0-2.9-0.4-4.3-0.4-10.9 86.5 52.9 203.3 52.9 203.3s3.9 5.9 26 39.5c-122.7-64.9-126-256.3-126-256.3-29.3-10.9-131.2-45.7-149-74 0 0 79.9 43.7 148.8 52.7-0.4-0.6 1-15.4 1-15.4 4.3-58.6 24.4-104.3 45.1-139.5 13.5-66 43.2-125.6 84.6-175.6 7.2-29.8 18.7-65.4 38.9-102.9 8.6-16.4 16.8-26.9 38.8-37.1 146.3-68.4 290.5-85.7 438.5-8.8z m-524.6 198.7c-14.8 22-26.8 46-36.9 71 15.8-16.8 28.9-27.7 35.5-32.6-1-14.4 1.4-38.4 1.4-38.4z m-60.9 238c1.3 18.8 3.9 37 8.2 54.9l80.8 13.5c-27.5-82.2-30.8-176-30.8-176-32.3 31.3-49.6 74-58.2 107.6z m15.4 83.6c41.8 136.2 158.2 239.9 301 262.5-2-0.6-3.4-0.9-5.3-1.9 0 0-158.2-92.8-211.5-242.8-17.8-2.9-55.3-11.5-84.2-17.8z m528.3 227c123.1-62.5 208.2-191.4 208.6-339.9 0-209.7-169.1-379.8-377-379.8-96.2 0-183.7 36.5-250.5 96.6-10.2 19.8-16.8 44.8-21.7 77 102.5-87.1 285.1-65.4 285.1-65.4 45.7 1.9 40.3 42.3 39.9 54.8-166.4-14-248.1 33.6-328.9 102.4 0 0 15.8 153.9 52.3 216.4 210.6 9.6 370.7-104.9 370.7-104.9 20.1-14.4 37.9-15.8 41.8 9.2 3 20.3 4.3 47.6-18.7 58.2-70.3 32.8-147.7 53.3-224.6 64.4-50 7.3-77.8 9-152.4 7.7 71.1 165.4 249 210.5 249 210.5 55.7 9.2 98.1 2 126.4-7.2z" />
  </svg>
