<svg height="1000" width="1000" xmlns="http://www.w3.org/2000/svg"><path d="M795.7 120.1C647.7 43.2 503.5 60.5 357.2 128.9c-22 10.2 -30.2 20.7 -38.8 37.1 -20.2 37.5 -31.7 73.1 -38.9 102.9 -41.4 50 -71.1 109.6 -84.6 175.6 -20.7 35.2 -40.8 80.9 -45.1 139.5 0 0 -1.4 14.8 -1 15.4C79.9 590.4 0 546.7 0 546.7c17.8 28.3 119.7 63.1 149 74 0 0 3.3 191.4 126 256.3 -22.1 -33.6 -26 -39.5 -26 -39.5S185.2 720.7 196.1 634.2c1.4 0 2.9 .4 4.3 .4C247.1 805.3 402 930.3 585 930.3c12.1 0 23.6 -.4 35.1 -1.4 27.4 2.9 53.9 1 78.3 -7.6 13.5 -4.3 27 -12.5 39.5 -21.1C875 823.8 935 740 978.3 611.7c10.6 -31.2 15.8 -69.3 19.2 -101.9C1014.5 349 937.7 194.1 795.7 120.1zM271.1 318.8s-2.3 24 -1.4 38.4c-6.6 4.9 -19.7 15.8 -35.5 32.6 10.1 -25 22.1 -49 36.9 -71.1zm-60.9 238c8.6 -33.6 25.9 -76.3 58.2 -107.6 0 0 3.3 93.8 30.8 176l-80.8 -13.5c-4.3 -17.9 -6.9 -36.1 -8.2 -54.9zm15.4 83.6c28.9 6.3 66.4 14.9 84.2 17.8C363.1 808.2 521.3 901 521.3 901c1.9 1 3.3 1.3 5.3 1.9C383.8 880.3 267.4 776.6 225.6 640.4zm528.3 227c-28.3 9.2 -70.7 16.4 -126.4 7.2 0 0 -177.9 -45.1 -249 -210.5 74.6 1.3 102.4 -.4 152.4 -7.7C607.8 645.3 685.2 624.8 755.5 592c23 -10.6 21.6 -37.9 18.7 -58.2 -3.9 -25 -21.7 -23.6 -41.8 -9.2 0 0 -160.1 114.5 -370.7 104.9C325.2 567 309.4 413.1 309.4 413.1 390.2 344.3 471.9 296.7 638.3 310.7c.4 -12.5 5.8 -52.9 -39.9 -54.8 0 0 -182.6 -21.7 -285.1 65.4 4.9 -32.2 11.5 -57.2 21.7 -77 66.8 -60.1 154.3 -96.6 250.5 -96.6 207.9 0 377 170.1 377 379.8C962.1 676 877 804.9 753.9 867.4z"/></svg>