
  <svg height="1000" width="1000.0" xmlns="http://www.w3.org/2000/svg">
    <path d="m816.8 346.1c106.2 36.5 183.2 93.9 183.2 153.1 0 61.9-81.6 122.3-194.3 159.6-6.1 1.9-12.1 3.9-18.4 5.7 2.2 8.9 4.1 17.7 5.9 26.3 22.2 112.5 5 204.9-47.7 235.4-51 29.5-133.6 0.4-217.2-71.5-9-7.8-17.9-15.8-26.5-24.2-6.9 6.6-13.7 12.9-20.5 18.9-86.4 75.6-175.1 106.8-227.8 76.4-51.2-29.5-67.2-115.4-46.7-223.8 2.4-12 4.9-23.5 7.8-35.2-8.9-2.5-17.7-5.5-26.5-8.4-108.4-37.1-188.1-98.2-188.1-159.2 0-59 74.8-116 179.1-152.1 11.5-4.1 23.8-8 36.3-11.6-2.7-10.9-5-21.6-7.2-32.6-21.5-110.1-6.2-198.2 44.9-227.9 53.3-31.1 142.4 2.1 231.3 81.1 5.4 4.8 10.9 9.9 16.2 15 7.8-7.6 16-15.2 24.4-22.5 84.8-73.8 168.6-104.5 219.9-75 53.3 30.9 69.2 124.4 45.1 240.9-1.5 7.2-3.1 14.4-4.8 21.6 10.5 3.2 21 6.5 31.6 10z m-264.3-165.8c-7.8 6.8-15.2 13.6-22.8 20.9 30.1 32.6 57.8 67.4 83.2 103.7 44.1 3.9 88.1 10.9 131.4 20.7 1.8-6.5 3.2-12.9 4.5-19.5 20.7-100.6 8-177.2-25-196.1-30.8-17.8-98.6 7-171.3 70.3z m-225.9 420.3c-9.8-16.8-19-33.8-28-51-12.5 29.7-23.2 58.8-31.8 86.9 29.9 6.5 60.2 11.4 90.6 14.7-10.7-16.6-20.9-33.6-30.8-50.6z m-59.2-235c8.6 27.6 18.9 56.1 31.2 85.2 8.8-17.2 18.2-34.2 27.8-50.8 9.5-16.8 19.7-33.4 30-49.6-31 3.9-60.9 9-89 15.2z m53.5 134.6c13.1 27 27 53.3 42 79.3s31 51.4 48 76.2c28.7 1.7 58.4 2.7 89.1 2.7s60.9-1 90-3.1c16.6-25 32.5-50.2 47.3-76.2 15-26.2 29.1-52.7 42.2-79.7-13.3-26.7-27.4-53.1-42.4-78.9s-30.8-51-47.5-75.6c-29.1-2.1-59.1-3.3-89.6-3.3s-60.4 1.2-89.6 3.3c-16.8 24.8-32.9 50-47.7 76-14.8 26-28.9 52.3-41.8 79.3z m352.7 100c-9.7 16.8-19.7 33.6-30.2 50 30.8-3.5 61.5-8.8 91.8-15.6-9.6-29.5-20.6-58.2-33.1-86.6-9.1 17.6-18.5 35-28.5 52.2z m28.2-149.4c11.9-27.8 22.4-55.9 31.4-84.8-28.1-6.4-58.2-11.7-89.6-15.6 10.3 16.2 20.3 32.6 29.8 49.2 9.8 16.8 19.2 34 28.4 51.2z m-201.4-219.7c-19.5 21.2-39.3 44.7-58.4 69.9 38.7-1.8 77.5-1.8 116.2 0-18-24.2-37.3-47.7-57.8-69.9z m-226.6-119.8c-30.8 17.8-42.9 89.1-24.6 183.6 2.2 10.2 4.3 20.3 6.9 30.3 43.3-9.6 87.1-16.4 131.2-20.3 25.6-36.3 53.5-71.1 83.8-103.7-5.1-4.7-10-9.4-14.9-13.7-76.7-68-149.6-95.3-182.4-76.2z m-47.8 514.9c13.5-43 29.7-85.2 48.4-126-18.5-40.2-34.6-81.8-47.8-124.2-11.4 3.3-22.7 6.8-33.8 10.7-89.1 31.1-150.8 76.8-150.8 112.5 3.7 23.7 17 44.7 36.7 58.4 34.2 27.2 81.5 47.9 123.1 61 8 2.7 16 5.2 24.2 7.6z m227.7 191.4c6.3-5.5 12.5-11.4 18.8-17.4-30.3-32.8-58.6-67.8-84.4-104.3-44.7-3.3-88.9-9.8-132.6-19.1-2.8 10.7-5.1 21.6-7.3 32.6-17.5 92.7-4.6 161.7 26.4 179.7 22.3 8.8 47.3 7.8 69-2.6 40.6-16 77.9-39.4 110.1-68.9z m47.9-47.5c20.5-22.6 39.8-46.3 57.8-71.1-19.6 1-39.3 1.4-59.4 1.4-19.5 0-38.9-0.4-57.6-1.2 19.3 25.6 39.2 49.4 59.2 70.9z m255.2 58.6c6.3-43.3 4.7-87.3-4.8-129.5-1.6-7.8-3.4-15.8-5.3-23.8-44 10-88.5 16.8-133.2 20.5-25 36.7-52.6 71.7-82.4 104.7 8.4 7.8 16.6 15.4 24.8 22.4 71.4 61.4 137.7 84.8 168.7 66.8 18.8-15 30.5-37.3 32.2-61.1z m35.6-209.9c97.4-32.3 165.6-81.7 165.6-120 0-35.5-63.9-82-154.9-113.3-9.3-3.1-19.1-6.2-29.3-9.1-13.3 42-29.1 83-47.8 122.8 19.3 40.4 36.1 82 49.8 124.6 5.6-1.5 11.1-3.3 16.6-5z m-292.4-29.3c-49.4 0-89.5-40.1-89.5-89.5s40.1-89.5 89.5-89.5 89.5 40.1 89.5 89.5-40.1 89.5-89.5 89.5z" />
  </svg>
