<svg height="1000" width="1000" xmlns="http://www.w3.org/2000/svg"><path d="M816.8 346.1c-10.5 -3.5 -21.1 -6.8 -31.6 -10 1.7 -7.2 3.3 -14.4 4.8 -21.6C814.1 198 798.2 104.5 744.9 73.6 693.6 44.1 609.8 74.8 525 148.6c-8.4 7.3 -16.6 14.9 -24.4 22.5 -5.3 -5.1 -10.8 -10.2 -16.2 -15C395.5 77.1 306.4 43.9 253.1 75 202 104.7 186.7 192.8 208.2 302.9c2.2 11 4.5 21.7 7.2 32.6 -12.5 3.6 -24.8 7.5 -36.3 11.6C74.8 383.2 0 440.2 0 499.2c0 61 79.7 122.1 188.1 159.2 8.8 2.9 17.6 5.9 26.5 8.4 -2.9 11.7 -5.4 23.2 -7.8 35.2 -20.5 108.4 -4.5 194.3 46.7 223.8 52.8 30.5 141.4 -.8 227.8 -76.4 6.8 -6 13.6 -12.3 20.5 -18.9 8.6 8.4 17.5 16.4 26.5 24.2 83.6 71.9 166.2 101 217.2 71.5 52.7 -30.5 69.9 -122.9 47.7 -235.4 -1.8 -8.6 -3.7 -17.4 -5.9 -26.3 6.3 -1.8 12.3 -3.8 18.4 -5.7C918.4 621.5 1000 561.1 1000 499.2 1000 440 923 382.6 816.8 346.1zM552.5 180.3C625.2 117 693 92.2 723.8 110c33 18.9 45.7 95.5 25 196.1 -1.3 6.6 -2.7 13 -4.5 19.5C701 315.8 657 308.8 612.9 304.9 587.5 268.6 559.8 233.8 529.7 201.2c7.6 -7.3 15 -14.1 22.8 -20.9zM298.6 549.6c9 17.2 18.2 34.2 28 51 9.9 17 20.1 34 30.8 50.6C327 647.9 296.7 643 266.8 636.5c8.6 -28.1 19.3 -57.2 31.8 -86.9zm0 -98.8a927.629 927.629 0 0 1 -31.2 -85.2c28.1 -6.2 58 -11.3 89 -15.2 -10.3 16.2 -20.5 32.8 -30 49.6 -9.6 16.6 -19 33.6 -27.8 50.8zm22.3 49.4c12.9 -27 27 -53.3 41.8 -79.3 14.8 -26 30.9 -51.2 47.7 -76 29.2 -2.1 59.1 -3.3 89.6 -3.3 30.5 0 60.5 1.2 89.6 3.3 16.7 24.6 32.5 49.8 47.5 75.6 15 25.8 29.1 52.2 42.4 78.9 -13.1 27 -27.2 53.5 -42.2 79.7 -14.8 26 -30.7 51.2 -47.3 76.2 -29.1 2.1 -59.3 3.1 -90 3.1 -30.7 0 -60.4 -1 -89.1 -2.7 -17 -24.8 -33 -50.2 -48 -76.2s-28.9 -52.4 -42 -79.3zm352.7 100C683.6 583 693 565.6 702.1 548c12.5 28.4 23.5 57.1 33.1 86.6 -30.3 6.8 -61 12.1 -91.8 15.6 10.5 -16.4 20.5 -33.2 30.2 -50zm28.2 -149.4c-9.2 -17.2 -18.6 -34.4 -28.4 -51.2 -9.5 -16.6 -19.5 -33 -29.8 -49.2 31.4 3.9 61.5 9.2 89.6 15.6 -9 28.9 -19.5 57 -31.4 84.8zM500.4 231.1c20.5 22.2 39.8 45.7 57.8 69.9A1250.9 1250.9 0 0 0 442 301c19.1 -25.2 38.9 -48.7 58.4 -69.9zM273.8 111.3c32.8 -19.1 105.7 8.2 182.5 76.2 4.8 4.3 9.7 9 14.8 13.7 -30.3 32.6 -58.2 67.4 -83.8 103.7 -44.1 3.9 -87.9 10.7 -131.2 20.3 -2.6 -10 -4.7 -20.1 -6.9 -30.3C230.9 200.4 243 129.1 273.8 111.3zM226 626.2c-8.2 -2.4 -16.2 -4.9 -24.2 -7.6 -41.6 -13.1 -88.9 -33.8 -123.1 -61C59 543.9 45.7 522.9 42 499.2c0 -35.7 61.7 -81.4 150.8 -112.5 11.1 -3.9 22.4 -7.4 33.8 -10.7 13.2 42.4 29.3 84 47.8 124.2 -18.7 40.8 -34.9 83 -48.4 126zm227.7 191.4c-32.2 29.5 -69.5 52.9 -110.1 68.9 -21.7 10.4 -46.7 11.4 -69 2.6 -31 -18 -43.9 -87 -26.4 -179.7 2.2 -11 4.5 -21.9 7.3 -32.6 43.7 9.3 87.9 15.8 132.6 19.1 25.8 36.5 54.1 71.5 84.4 104.3 -6.3 6.1 -12.5 11.9 -18.8 17.4zm47.9 -47.5c-20 -21.5 -39.9 -45.3 -59.2 -70.9 18.7 .8 38.1 1.2 57.6 1.2 20.1 0 39.8 -.4 59.4 -1.4 -18 24.8 -37.3 48.5 -57.8 71.1zm255.2 58.6c-1.7 23.8 -13.4 46.1 -32.2 61.1 -31 18 -97.3 -5.4 -168.7 -66.8 -8.2 -7 -16.4 -14.6 -24.8 -22.4 29.8 -33 57.4 -68 82.4 -104.7 44.7 -3.7 89.2 -10.5 133.2 -20.5 1.9 8 3.7 16 5.3 23.8 9.5 42.2 11.1 86.2 4.8 129.5zm35.6 -209.9c-5.5 1.7 -11 3.5 -16.6 5C762.1 581.3 745.3 539.6 726 499.2c18.7 -39.8 34.5 -80.8 47.8 -122.8 10.2 2.9 19.9 6 29.3 9.1 91 31.3 154.9 77.8 154.9 113.3 0 38.3 -68.2 87.7 -165.6 120zM500 410.5c49.4 0 89.5 40.1 89.5 89.5s-40.1 89.5 -89.5 89.5S410.5 549.4 410.5 500s40.1 -89.5 89.5 -89.5"/></svg>