
  <svg height="1000" width="1125.0" xmlns="http://www.w3.org/2000/svg">
    <path d="m489.5 413.6l3.9-13.3-11.2-8.4 14.1-0.2 4.5-13.3 4.5 13.3 13.8 0.2-11.1 8.4 4.1 13.3-11.3-8.1z m124.4 0l3.7-13.3-11.2-8.4 14.1-0.2 4.5-13.3 4.5 13.3 14.1 0.2-11.2 8.4 4.1 13.3-11.3-8.1z m-178.4 98.6c9.6 0 7.5 7.6 7.5 26.9 0 20.1-13.1 27.5-32.8 27.5h-0.4c-19.8 0-32.8-7.2-32.8-27.5v-78.3c0-19.3 13-27.5 32.8-27.5h0.4c19.7 0 32.8 8.2 32.8 27.5 0 16.4 1.7 23.8-7.5 24h-6.6c-8.8 0-7.4-6.4-7.4-20.5 0-9.1-4.5-11.9-11.3-11.9s-11.4 2.8-11.4 11.9v71.5c0 9.2 4.5 11.9 11.4 11.9s11.3-2.7 11.3-11.9c0-15.8-2-23.6 7.4-23.6h6.6z m-157.6 34c4.9 0 7.5 2.5 7.5 7.4v4.1c0 4.9-2.6 7.4-7.5 7.4h-42.7c-4.9 0-7.5-2.5-7.5-7.4v-115.4c0-4.9 2.6-7.7 7.3-7.5h42.3c4.9 0 7.5 2.6 7.5 7.5v4.1c0 4.9-2.6 7.4-7.5 7.4h-28.1v35.7h22.3c4.9 0 7.4 2.6 7.4 7.5v4.1c0 4.8-2.5 7.4-7.4 7.4h-22.3v37.7h28.7z m-82-36.2l15.8 46.7c1.6 5.1-0.8 8.6-6.2 8.6h-6.5c-0.2 0-0.4 0-0.6 0-3.8 0-7-2.7-7.8-6.2l-14.4-45.9h-11v44.7c0 4.9-2.5 7.4-7.4 7.4h-6.6c-4.9 0-7.5-2.5-7.5-7.4v-115.4c0-4.9 2.6-7.5 7.5-7.5h26.1c19.8 0 32.9 7.9 32.9 27.6v23.2c0 12.5-5.3 20.3-14.3 24.2z m-7.4-27.3v-17c0-9.4-4.9-11.9-11.9-11.9h-11.4v40.8h11.4c7 0 11.9-2.5 11.9-11.9z m155.3-41.3l21.8 115.6c1 5.3-1.5 8-6.6 8h-6.9c-0.2 0.1-0.4 0.1-0.7 0.1-3.9 0-7-3.1-7.3-6.9l-3.5-22.1h-23.8l-3.5 22.1c-0.2 3.8-3.4 6.9-7.3 6.9-0.2 0-0.5 0-0.7-0.1h-5.9c-4.9 0-7.6-2.7-6.6-8l21.5-115.6c0.2-3.7 3.3-6.7 7.1-6.7 0.2 0 0.5 0 0.7 0.1h13.4c0.3-0.1 0.6-0.1 0.8-0.1 3.9 0 7.1 3 7.5 6.7z m-24.1 76.8h18.4l-9.2-58z m174.4 39.4c0 4.8-2.5 7.5-7.4 7.4h-6.6c-4.9 0-7.4-2.5-7.4-7.4v-103.9h-14.3c-4.9 0-7.4-2.5-7.4-7.4v-4.1c0-4.9 2.5-7.4 7.4-7.4h50.4c4.9 0 7.4 2.5 7.4 7.4v4.1c0 4.9-2.5 7.4-7.4 7.4h-14.7v103.9z m484.4-1.5c0.1-0.1 0.2 0 0.3 0 2 0 3.6 1.6 3.6 3.6 0 0.1 0 0.2 0 0.3v1.5c0 0.1 0 0.2 0 0.2 0 2-1.6 3.6-3.5 3.6-0.1 0-0.3-0.1-0.4-0.1h-43.9c-0.2 0-0.3 0.1-0.4 0.1-2 0-3.5-1.6-3.5-3.6 0 0 0-0.1 0-0.2v-123c-0.1-0.2-0.1-0.3-0.1-0.5 0-1.7 1.4-3.1 3.2-3.1 0.3 0 0.5 0 0.8 0.1h43.3c0.2-0.1 0.3-0.1 0.5-0.1 1.9 0 3.4 1.6 3.4 3.5 0 0.1 0 0.2 0 0.3v1.5c0 0.1 0 0.2 0 0.3 0 2-1.6 3.6-3.6 3.6-0.1 0-0.2 0-0.3 0h-37.3v50.4h31.5c0 0 0.1 0 0.2 0 2 0 3.7 1.7 3.7 3.7 0 0.1 0 0.2 0 0.2v1.6c0 0.1 0 0.1 0 0.2 0 2.1-1.7 3.7-3.7 3.7-0.1 0-0.2 0-0.2 0h-31.5v52.2h37.9z m-181.8-122.9c19.7 0 29.9 9.3 29.9 27.5v78.4c0 18.1-10.2 27.5-29.9 27.5h-1.6c-19.7 0-29.9-9.4-29.9-27.5v-78.4c0-18.3 10.2-27.5 29.9-27.5h1.6z m19.9 102.3v-71.4c0-15.5-5.9-21.7-20.5-21.7s-20.5 6.2-20.5 21.7v71.4c0 15.7 5.8 21.7 20.5 21.7s20.3-6 20.5-21.7z m-90.8-28.3l20.7 53.3c1 2.6-0.2 4.5-2.9 4.5h-3c-0.1 0-0.1 0-0.2 0-2 0-3.6-1.2-4.3-2.9l-20.3-53.1h-22.6v52.5c0 0.1 0 0.2 0 0.4 0 1.8-1.5 3.4-3.4 3.4-0.1 0-0.2-0.1-0.3-0.1h-2.4c-0.1 0-0.2 0.1-0.4 0.1-1.9 0-3.5-1.6-3.5-3.6 0 0 0-0.1 0-0.2v-123c0-0.1 0-0.2 0-0.2 0-2 1.6-3.6 3.5-3.6 0.2 0 0.3 0.1 0.4 0.1h26.8c19.7 0 29.9 9.1 29.9 27.5v19c0 14-6.1 22.8-18 25.9z m-12.5-7.6c14.6 0 20.5-6.2 20.5-21.5v-12.5c0-15.6-5.9-21.7-20.5-21.7h-19.9v55.7h19.9z m167.8-64.6c19.7 0 29.8 9.1 29.8 27.5v20.5c0 18.2-10.1 27.5-29.8 27.5h-20.7v51c0 0.1 0 0.2 0 0.4 0 1.8-1.6 3.3-3.4 3.3-0.1 0-0.2 0-0.4 0h-2.3c-0.1 0-0.3 0.1-0.4 0.1-1.9 0-3.5-1.6-3.5-3.6 0 0 0-0.1 0-0.2v-123c0-0.2 0-0.3 0-0.5 0-1.7 1.4-3.1 3.1-3.1 0.3 0 0.6 0 0.8 0.1h26.8z m19.9 44.5v-13.9c0-15.4-5.9-21.7-20.5-21.5h-20v57.1h20c14.6 0 20.5-6.3 20.5-21.7z m-394.2 122.1l13.9 0.2-11.1 8.4 4.1 13.2-11.4-8-11.3 8 4.1-13.2-11.1-8.4 13.9-0.2 4.4-13.3z m444.6-265.9c238.8 90.1 231.2 258.9-66.2 344.5 26.1 97 35.3 199 0.2 261.3-7.5 13.1-32.9 54.1-93 54.1-81.1 0-215.2-81.3-355.7-277.4-83.6-6.8-141-19.7-165.2-25.3-40.1 160.7-13.3 244.7 30.3 269.3 2.3 1.4 75 53.1 236.1-103.1 6.6 6.8 13.3 13.4 19.9 19.9-123.2 119.5-215.2 138.7-269.9 107.8-63.3-35.7-83.6-140.6-43.6-300.6-36.9-9.8-237.5-64.8-238.4-181.2-0.8-79.9 97.2-145.9 234.9-185.6-26.2-96.9-35.5-198.8-0.2-261.3 7.4-13.2 32.8-54.2 93-54.2 81.2 0 215.4 81.3 355.9 277.6 56.1 4.5 111.6 13.1 165.2 25.4 40-160.1 13.5-244.3-30.3-269.1-2.5-1.4-75-53.2-236.1 103.1-6.7-6.8-13.3-13.5-19.9-19.9 102.1-99.5 202.5-145.7 269.9-107.9 66.2 37.5 81.8 148.2 43.5 300.6 23.5 6.1 47.1 13.6 69.6 22z m-686-263.7c-45.1 79.6 2 237.4 2.4 240.1 53.3-13.4 108.8-23.1 164.8-28.5 30.3-44.3 63.1-85.8 99-125.4 6.7 6.5 13.3 13.2 20 20-29.7 32.5-56.9 66.3-82.5 102.3 35.1-2.6 68.2-3.9 104-3.9 26.7 0 53.1 0.7 79.4 2.2-125.9-169.2-247-246.5-318.9-246.5-44.9 0-62.5 29.7-68.2 39.7z m595.3 856c6.5-11.7 42-75.4-2.3-240.2-8 2.1-72.5 19.3-164.8 28.5-30.3 44.3-63.1 85.8-99.1 125.4-6.6-6.5-13.2-13.1-19.9-19.9 29.7-32.6 56.9-66.4 82.4-102.4-34.9 2.7-67.9 4.1-103.6 4.1-26.8 0-53.4-0.8-79.8-2.3 126.2 169.5 247.3 246.5 319 246.5 45.1 0 62.5-29.7 68.1-39.7z m17.8-270.7c50-14.3 167.8-53.5 206.5-122.1 2.7-4.8 65.4-98.6-141.8-176.5-21.8-8.2-44.7-15.5-67.4-21.5-7 25.2-15.4 51-25 77.1-7.3 1-13.5 5.1-17.4 11l-0.2-0.2c-3.8-3.6-8.3-6.5-13.3-8.4 11.2-29.3 20.7-58.2 28.5-86.3-14-3.4-62.1-14.9-141-22.9 32.6 47.9 54.5 86.1 67 108.4-8.2 2.7-15.2 7.8-20.3 14.5-26.6-32.1-21.5-38.9-83-126-32.6-2.3-62.9-3.5-96.1-3.5-41.6 0-82.8 1.8-123.4 5.4-33 48.9-55.3 88.3-68 111.2-8.1 3.4-15 9.1-19.9 16.4-2.1-6.7-6.6-12.2-12.5-15.7 11.9-22.2 33-60.5 64-108-77.3 9-126.9 21.9-140.6 25.4 8.4 27.6 18.4 55.9 29.7 84.6-1.7 1.2-3.2 2.7-4.5 4.3-2.9-3.7-7.8-10.4-28.1-10.4-9.2-24-17.2-47.8-24.2-71.1-271.1 78.9-309.4 237.1 2.9 320.4 7-25.2 15.2-50.8 24.8-77 0.6 0 1.3 0.1 1.9 0.1 4.1 0 8-0.8 11.6-2 5.8 2.3 10.1 1.9 16.4 1.9-10.8 28.5-19.9 56.5-27.6 83.8 45.8 10.6 93.2 18.3 141.1 22.8-31.9-46.6-53.8-84.7-66.1-106.6 17 0 20.9-3.1 24.6-6.2 1.9 1.1 3.9 2.1 5.9 2.9 29.9 52.1 56.5 91 71.9 112.9 32.6 2.3 62.9 3.4 96.1 3.4 41.6 0 82.7-1.8 123.4-5.4 32.2-47.4 54.1-85.9 66.2-107.8 14.3 0 19.2-5.8 21.3-8.2 3.6 2.6 7.5 4.7 11.7 6.3-29.3 54.6-56 95.5-62.9 105.8 47.7-5.3 95.1-13.9 140.7-25.4-8-26.9-17.6-54.5-28.7-82.4 3.9-1.7 7.4-4.1 10.5-7l0.2-0.2c4.4 6.7 12 11.1 20.7 11.1 0 0 0.1 0 0.2 0 9.2 24 17.2 47.9 24.2 71.1z m-223.4-222.6c0.1-0.1 0.2-0.1 0.4-0.1 2.1 0 3.8 1.7 3.9 3.8v100.5c0 18.6-9.8 27.6-29.5 27.6h-0.8c-19.7 0-29.5-8.8-29.5-27.6v-100.5c0-0.1 0-0.2 0-0.2 0-2 1.6-3.6 3.5-3.6 0.2 0 0.3 0 0.4 0.1h2.4c0.1-0.1 0.3-0.1 0.4-0.1 1.8 0 3.3 1.5 3.3 3.3 0 0.2 0 0.3 0 0.5v97.2c0 15.7 5.1 21.7 19.7 21.7s19.7-6.2 19.7-21.7v-97.2c0-0.1 0-0.3 0-0.4 0-1.8 1.5-3.4 3.4-3.4 0.1 0 0.2 0 0.3 0.1h2.4z m-26.8 166.9l13.9 0.2-11.1 8.4 4.1 13.2-11.4-8-11.3 8 4.1-13.2-11.1-8.4 13.8-0.2 4.5-13.3z m-60.7 14.4l13.8 0.2-11.1 8.4 4.1 13.3-11.3-8-11.3 8 4.1-13.3-11.2-8.4 13.9-0.2 4.5-13.3z m9.9-60.1c0.2-0.1 0.3 0 0.4 0 2 0 3.6 1.6 3.6 3.6 0 0.2 0 0.3-0.1 0.5v1.5c0.1 0.1 0.1 0.2 0.1 0.3 0 1.9-1.6 3.5-3.5 3.5-0.2 0-0.3 0-0.5-0.1h-43.9c-0.1 0.1-0.3 0.1-0.4 0.1-1.9 0-3.5-1.6-3.5-3.6 0 0 0-0.1 0-0.2v-123c0-0.1 0-0.2 0-0.2 0-2 1.6-3.6 3.5-3.6 0.1 0 0.3 0.1 0.4 0.1h43.4c0.1-0.1 0.3-0.1 0.4-0.1 1.9 0 3.5 1.6 3.5 3.5 0 0.1 0 0.2 0 0.3v1.5c0 0.1 0 0.2 0 0.3 0 2-1.7 3.7-3.7 3.7-0.1 0-0.2 0-0.2-0.1h-37.4v50.4h31.5c0.1 0 0.1 0 0.2 0 2.1 0 3.7 1.7 3.7 3.7 0 0.1 0 0.2 0 0.2v1.6c0 0.1 0 0.2 0 0.2 0 2.1-1.6 3.7-3.7 3.7-0.1 0-0.1 0-0.2 0h-31.5v52.2h37.9z m-14.4-194.2l4.5 13.3 13.8 0.2-11.1 8.4 4.1 13.3-11.3-8-11.3 8 4.1-13.3-11.2-8.4 13.9-0.2z" />
  </svg>
