<svg height="1000" width="1125" xmlns="http://www.w3.org/2000/svg"><path d="M1031.8 90.8h-273c-94 0 -175.6 65.1 -196.1 156.9C542 155.9 460.5 90.8 366.6 90.8H93.8C42 90.8 0 132.8 0 184.6v480c0 51.8 42 93.8 93.8 93.8h175.1c199.7 0 259.2 47.7 287.7 146.5 1.4 5.5 10.2 5.5 11.8 0 28.7 -98.8 88.2 -146.5 287.7 -146.5h175.2c51.7 0 93.7 -42 93.7 -93.8V184.8c0 -51.6 -41.6 -93.6 -93.2 -94zM472.7 609.2c0 3.7 -3 6.8 -6.9 6.8H152.7c-3.7 0 -6.8 -2.9 -6.8 -6.8v-44.7c0 -3.8 2.9 -6.9 6.8 -6.9H466c3.7 0 6.9 2.9 6.9 6.9v44.7zm0 -119c0 3.7 -3 6.9 -6.9 6.9H152.7c-3.7 0 -6.8 -3 -6.8 -6.9v-44.7c0 -3.7 2.9 -6.8 6.8 -6.8H466c3.7 0 6.9 2.9 6.9 6.8v44.7zm0 -118.9c0 3.7 -3 6.8 -6.9 6.8H152.7c-3.7 0 -6.8 -2.9 -6.8 -6.8v-44.7c0 -3.7 2.9 -6.9 6.8 -6.9H466c3.7 0 6.9 3 6.9 6.9v44.7zM979.1 609c0 3.7 -2.9 6.8 -6.8 6.8H659.2c-3.7 0 -6.9 -2.9 -6.9 -6.8v-44.7c0 -3.8 3 -6.9 6.9 -6.9h313.3c3.7 0 6.8 3 6.8 6.9V609zm0 -119c0 3.7 -2.9 6.9 -6.8 6.9H659.2c-3.7 0 -6.9 -3 -6.9 -6.9v-44.7c0 -3.7 3 -6.8 6.9 -6.8h313.3c3.7 0 6.8 2.9 6.8 6.8V490zm0 -118.9c0 3.7 -2.9 6.8 -6.8 6.8H659.2c-3.7 0 -6.9 -2.9 -6.9 -6.8v-44.5c0 -3.7 3 -6.9 6.9 -6.9h313.3c3.7 0 6.8 3 6.8 6.9v44.5z"/></svg>