
  <svg height="1000" width="1125.0" xmlns="http://www.w3.org/2000/svg">
    <path d="m1031.8 90.8c51.6 0.4 93.2 42.4 93.2 94v479.8c0 51.8-42 93.8-93.7 93.8h-175.2c-199.5 0-259 47.7-287.7 146.5-1.6 5.5-10.4 5.5-11.8 0-28.5-98.8-88-146.5-287.7-146.5h-175.2c-51.7 0-93.7-42-93.7-93.8v-480c0-51.8 42-93.8 93.7-93.8h272.9c93.9 0 175.4 65.1 196.1 156.9 20.5-91.8 102.1-156.9 196.1-156.9h273z m-559.1 518.4h0.2v-44.7c0-4-3.2-6.9-6.9-6.9h-313.3c-3.9 0-6.8 3.1-6.8 6.9v44.7c0 3.9 3.1 6.8 6.8 6.8h313.1c3.9 0 6.9-3.1 6.9-6.8z m0-119h0.2v-44.7c0-3.9-3.2-6.8-6.9-6.8h-313.3c-3.9 0-6.8 3.1-6.8 6.8v44.7c0 3.9 3.1 6.9 6.8 6.9h313.1c3.9 0 6.9-3.2 6.9-6.9z m0-118.9h0.2v-44.7c0-3.9-3.2-6.9-6.9-6.9h-313.3c-3.9 0-6.8 3.2-6.8 6.9v44.7c0 3.9 3.1 6.8 6.8 6.8h313.1c3.9 0 6.9-3.1 6.9-6.8z m506.4 237.7h0.2v-44.7c0-3.9-3.1-6.9-6.8-6.9h-313.3c-3.9 0-6.9 3.1-6.9 6.9v44.7c0 3.9 3.2 6.8 6.9 6.8h313.1c3.9 0 6.8-3.1 6.8-6.8z m0-119h0.2v-44.7c0-3.9-3.1-6.8-6.8-6.8h-313.3c-3.9 0-6.9 3.1-6.9 6.8v44.7c0 3.9 3.2 6.9 6.9 6.9h313.1c3.9 0 6.8-3.2 6.8-6.9z m0-118.9h0.2v-44.5c0-3.9-3.1-6.9-6.8-6.9h-313.3c-3.9 0-6.9 3.2-6.9 6.9v44.5c0 3.9 3.2 6.8 6.9 6.8h313.1c3.9 0 6.8-3.1 6.8-6.8z" />
  </svg>
