
  <svg height="1000" width="1000.0" xmlns="http://www.w3.org/2000/svg">
    <path d="m501 984.4c-272.1 0-483.4-227-475.2-496.3 5.4-154.7 84.4-297.3 227.5-391.4 0.6 0 3.7-1.2 2.2 1.5-11.4 10.8-217.4 253.6-27.6 442.2 97.3 96.7 175.8 4.9 175.8 4.9 75.2-97.8-1.2-245.9-1.2-245.9-19.5-48.6-89.2-78.3-89.2-78.3l56.2-62.1c47.7 20.5 84.4 75.6 84.4 75.6 1.6-57.8-42.8-120-42.8-120l87.1-99 86.6 97.9c-40.1 56.2-42.8 122.2-42.8 122.2 26.9-44.9 85-76.7 85-76.7l55.6 62.1c-53.5 17.4-88.7 77.9-88.7 77.9-30.8 55.7-52.9 174.6 1.2 248.7 63.3 87.1 171.3-5.5 171.3-5.5 200.6-179.5-20.5-439.5-20.5-439.5-11.9-10.7 1.6-5.4 1.6-5.4 97.8 71.3 223.8 164.8 226.9 400 3.9 284.3-195.1 487.1-473.4 487.1z" />
  </svg>
