<svg height="1000" width="875" xmlns="http://www.w3.org/2000/svg"><path d="M689.8 62.5H185.2C82.8 62.5 0 145.3 0 247.7v504.6c0 102.4 82.8 185.2 185.2 185.2h504.6C792.2 937.5 875 854.7 875 752.3V247.7C875 145.3 792.2 62.5 689.8 62.5zM283 392.4v109.9c0 52.8 -42.8 95.6 -95.5 95.6V296.7c0 -25.8 20.9 -46.7 46.7 -46.7h301.2c0 52.7 -42.8 95.5 -95.6 95.5H329.9c-24 -1.2 -48.1 22.7 -46.9 46.9zM627.3 533H517.4c-24 -1.2 -48.1 22.7 -46.9 46.9v109.9c0 52.8 -42.8 95.6 -95.5 95.6V484.2c0 -25.8 20.9 -46.7 46.7 -46.7h301.2c0 52.7 -42.8 95.5 -95.6 95.5z"/></svg>