
  <svg height="1000" width="875.0" xmlns="http://www.w3.org/2000/svg">
    <path d="m689.8 62.5c102.4 0 185.2 82.8 185.2 185.2v504.6c0 102.4-82.8 185.2-185.2 185.2h-504.6c-102.4 0-185.2-82.8-185.2-185.2v-504.6c0-102.4 82.8-185.2 185.2-185.2h504.6z m-406.8 329.9c-1.2-24.2 22.9-48.1 46.9-46.9h109.9c52.8 0 95.6-42.8 95.6-95.5h-301.2c-25.8 0-46.7 20.9-46.7 46.7v301.1c52.7 0 95.5-42.7 95.5-95.5v-109.9z m344.3 140.6c52.8 0 95.6-42.8 95.6-95.5h-301.2c-25.8 0-46.7 20.9-46.7 46.7v301.1c52.7 0 95.5-42.7 95.5-95.5v-109.9c-1.2-24.2 22.9-48.1 46.9-46.9h109.9z" />
  </svg>
