<svg height="1000" width="1000" xmlns="http://www.w3.org/2000/svg"><path d="M860 397.5c-29.3 0 -55.1 12.1 -74.1 31C716.2 380.3 622.3 349.2 518.2 345.9l54.1 -243.8 172.2 38.7c0 42.2 34.4 76.6 76.6 76.6 43 0 77.5 -35.4 77.5 -77.6S864.3 62.3 821.1 62.3c-30.1 0 -56.1 18.2 -69 43L561.9 63.1C552.3 60.5 543 67.4 540.4 77l-59.3 268.7C377.7 350 284.8 381.1 214.8 429.3c-18.9 -19.7 -45.7 -31.8 -75 -31.8C31.3 397.5 -4.3 543.2 95.1 593 91.6 608.4 90 624.8 90 641.2c0 163.7 184.4 296.3 410.8 296.3 227.3 0 411.7 -132.6 411.7 -296.3 0 -16.4 -1.8 -33.6 -6.1 -49C1003.9 542.2 968 397.5 860 397.5zM252.7 603.3c0 -42.9 34.4 -77.5 77.6 -77.5 42.2 0 76.5 34.4 76.5 77.5 0 42.2 -34.3 76.6 -76.5 76.6 -43 .2 -77.6 -34.4 -77.6 -76.6zm418.6 182.6c-71.1 71.1 -271.7 71.1 -342.8 0 -7.8 -6.8 -7.8 -18.9 0 -26.7 6.9 -6.9 19 -6.9 25.8 0 54.3 55.6 234.4 56.6 291 0 6.8 -6.9 19 -6.9 25.8 0 8 7.8 8 19.9 .2 26.7zm-1.6 -105.8c-42.2 0 -76.5 -34.4 -76.5 -76.6 0 -43 34.3 -77.5 76.5 -77.5 43 0 77.6 34.4 77.6 77.5 -.2 42 -34.6 76.6 -77.6 76.6z"/></svg>