
  <svg height="1000" width="1000.0" xmlns="http://www.w3.org/2000/svg">
    <path d="m393.6 596.7c-27 0-48.7-21.7-48.7-48.1 0-26.9 21.7-48.6 48.7-48.6 26.5 0 48 21.7 48 48.6 0 26.6-21.7 48.1-48 48.1z m590.8-96.7c0 267.6-216.8 484.4-484.4 484.4s-484.4-216.8-484.4-484.4 216.8-484.4 484.4-484.4 484.4 216.8 484.4 484.4z m-258.4-80.5c-18.4 0-34.6 7.6-46.5 19.6-43.8-30.3-102.7-49.8-168.2-52l34-152.9 108.2 24.4c0 26.6 21.7 48 48.1 48 26.9 0 48.6-22 48.6-48.6 0-26.6-21.7-48.6-48.6-48.6-19 0-35.2 11.3-43.2 26.9l-119.5-26.5c-5.9-1.6-11.9 2.7-13.5 8.6l-37.3 168.7c-64.9 2.7-123.3 22.1-167 52.4-11.9-12.5-28.7-20-47.1-20-68.1 0-90.4 91.6-28.1 122.7-2.2 9.8-3.3 19.9-3.3 30.3 0 102.7 115.6 185.9 257.8 185.9 142.8 0 258.4-83.2 258.4-185.9 0-10.4-1.2-21.1-3.7-30.9 61.1-31.2 38.7-122.1-29.1-122.1z m-134.6 227c4.3-4.3 11.9-4.3 16.2 0 4.9 4.9 4.9 12.5 0 16.8-44.7 44.5-170.7 44.5-215.2 0-4.9-4.3-4.9-11.9 0-16.8 4.3-4.3 11.9-4.3 16.2 0 34.2 34.9 147.3 35.5 182.8 0z m15-146.5c27.2 0 48.7 21.7 48.7 48.6 0 26.4-21.7 48.1-48.7 48.1-26.3 0-48-21.5-48-48.1 0-26.9 21.5-48.6 48-48.6z" />
  </svg>
