
  <svg height="1000" width="1000.0" xmlns="http://www.w3.org/2000/svg">
    <path d="m667 557.4v0.3c65.8 0 160.9-13.5 160.9-91.8 0.4-13.1 1.6-3.5-40.8-187.9-9.1-37.4-17-54.4-82.7-87.2-50.9-26.1-161.9-69.1-194.7-69.1-30.6 0-39.5 39.4-76 39.4-35.1 0-61.1-29.4-94-29.4-31.5 0-52 21.4-67.9 65.6-53.7 151.5-51.3 145.1-51 152.9 0 48.4 190.7 207.2 446.2 207.2z m171-59.7l-0.1 0c9.1 43 9.1 47.6 9.1 53.3 0 73.5-82.7 114.3-191.4 114.3-245.6 0.2-460.8-143.8-460.8-238.9v-0.1c0-13.6 2.9-26.7 7.9-38.4-88.3 4.4-202.7 20.2-202.7 121.1 0 165.4 391.9 369.2 702.1 369.2 237.9 0 297.9-107.6 297.9-192.6 0-66.8-57.8-142.6-162-187.9z" />
  </svg>
