<svg height="1000" width="968.8" xmlns="http://www.w3.org/2000/svg"><path d="M484.4 15.6C216.8 15.6 0 232.4 0 500s216.8 484.4 484.4 484.4c36.3 0 71.7 -4.1 105.6 -11.5 -10.9 -14.5 -21.1 -28.2 -31 -41.6 -24.2 4.1 -49.2 6.4 -74.8 6.4C242.8 937.5 46.9 741.6 46.9 500S242.8 62.5 484.4 62.5 921.9 258.4 921.9 500c0 138.7 -64.5 262.1 -165.1 342.4 -50.5 36.7 -76.3 41.8 -163 -86.3C440 535.5 500 617.2 449.8 544.5 592 561.9 896.1 403.9 779.1 215.2 613.3 -52.3 29.3 183.2 116.6 442.2c6.3 19.1 28.1 75.4 89.1 75.4 3.9 0 5 -1.2 3.9 -3.3 -8.6 -17 -39.3 -19.2 -39.3 -73.1 0 -79.1 79.1 -175 195.9 -234.4 129.1 -63 257.6 -58.9 309 10.6C728.3 292.2 634.4 450.2 440 484.8 454.7 466.4 551.4 337.9 562.7 320.7 607 253.1 608.8 225 590 205.1c-30.2 -33 -57.6 -20.1 -99 -22.9C469.9 180.5 268.9 536.1 224.6 605.9c-11.5 17.5 -41.4 66.6 -41.4 99.4 0 41.6 5.5 100.4 40.2 100.4 20.7 0 15.7 -36.6 15.7 -52 0 -25.2 53.5 -96.5 146.1 -204.3C425 619.9 497.9 772.7 639.5 959 830.9 894.3 968.6 713.3 968.6 500 968.8 232.4 752 15.6 484.4 15.6z"/></svg>