
  <svg height="1000" width="968.8" xmlns="http://www.w3.org/2000/svg">
    <path d="m484.4 15.6c267.5 0 484.4 216.9 484.4 484.4s-216.9 484.4-484.4 484.4-484.4-216.9-484.4-484.4 216.9-484.4 484.4-484.4z m334.6 309.8c4.7-10.7 0.9-16.2-11-16.2-204.7 0-210.3 0.1-255.4 0-8.4 0-13.9 3.5-17.3 11.3-11.1 25.6-22.5 51-33.8 76.6-5 11.3-1.9 16.1 10.3 16.1 49.4 0 98.7 0 148 0 19.6-0.1 16.7 26.6-7.6 26.6-51.6-0.1-103.2 0-154.8-0.1-9.6 0-16.3 3.7-20.3 12.7-8.3 19.2-62.7 142.7-62.8 142.9-6.3 14-31.8 11.9-22.1-10.4 16.2-37.1 32.6-74.1 48.8-111.1 4.4-10-0.2-17.1-11-17.1-29.7-0.1-59.5 0.1-89.2-0.1-6.5 0-10.5 2.5-13.2 8.6-61.4 140.3-58.1 131.5-58.6 132.2-7.6 12.4-29 6.5-21.4-11 11.1-25.4 22.2-50.8 33.4-76.1 26.5-60.1 53-120.3 79.6-180.4 4.9-11.2-0.9-20.6-13-20.6-27.9-0.1-55.7 0.1-83.5-0.1-8.3-0.1-13.3 3.4-16.7 11-25.1 57.4-50.4 114.7-75.6 172-16.9 38.2-33.7 76.4-50.6 114.6-3.1 6.9-2.9 13.2 2.4 19 21.9 24 43.8 48.1 65.7 72.1 4.1 4.5 9 6.8 15.1 6.8 89.7 0 179.4 0 269.2 0 7.5 0 12.4-3.5 15.4-10.3 20.2-45.9 40.6-91.7 60.5-137.7 4.1-9.5 10.2-13.2 20.2-13.2 44.9 0.3 89.9 0.1 134.9 0.1 11.8 0 20.5-5.3 25.3-16.1 29.8-67.3 59.5-134.7 89.1-202.1z" />
  </svg>
