<svg height="1000" width="875" xmlns="http://www.w3.org/2000/svg"><path d="M0 62.5v875h875v-875H0zm512.1 653.1c-12.9 5.9 -64.8 11.7 -97.6 -27.7C396.5 667.2 365 622.9 332 563.7c-17.4 0 -28.7 0 -41.8 -1.2v90.6c0 45.9 11.8 41.4 50.4 46.7v15.8c-13.5 -.6 -45.1 -1.5 -69.5 -1.5 -25.6 0 -51 1.1 -65.6 1.5v-15.8c30.2 -5.7 42.9 -2.5 42.9 -46.7V439.5c0 -44.2 -12.5 -41.1 -42.9 -46.7V377c50.4 1.9 103.7 -1.2 138.4 -1.2 62 0 109.2 28.1 109.2 89 0 41.3 -32.6 82.5 -76.5 92.8 26.5 47.3 58.6 89.1 82.4 115.1 14 15.2 33.6 28.7 53.1 28.7v14.2zM556.8 452c-45.5 0 -62.9 -30.7 -62.9 -62.9v-62.9c0 -23.9 17.2 -59.4 66.5 -59.4s59.3 35 59.3 35l-20.9 14s-10.7 -24.4 -38.4 -24.4c-15.5 0 -38.5 14.3 -38.5 38.5v52.3c0 26.2 12.9 45.5 34.9 45.5 27.6 0 42 -21.3 42 -52.3h-34.9v-20.9h59.3c0 40 9.2 97.5 -66.4 97.5zm-227.5 87.3c-18.4 0 -26.6 -.6 -39.1 -1.6V401.6c12.5 -1.2 29.3 -1.2 44 -1.2 45.5 0 72.6 23.8 72.6 67.4 0 42.7 -29.3 71.5 -77.5 71.5z"/></svg>