
  <svg height="1000" width="968.8" xmlns="http://www.w3.org/2000/svg">
    <path d="m549.2 543.4l-386.5 111.7-55.9-192.6 367.6-105.7c102.9-29.8 127-15.8 138.9 25l21.9 76.8c10.9 38.9 3.9 58.8-86 84.8z m-63.8-527.8c267.5 0 485.3 217.6 483.4 483.8 0 267.4-217.8 485-485.4 485-89.8 0-174.8-24.8-246.7-67.8l-44.9-156.6 560.2 72.8 93.9-26-18.9-66.8-430.5-52.9 180.8-51.9c59-17 82.1-30.9 120-64.9 47.8-44.9 61.9-88.9 45.9-143.7l-20.9-73.9c-17-58.9-49.1-95.9-120-107.8-49-6.8-86.9-3.9-154.8 16l-433.4 124.8c50.7-212.5 242.5-370.1 471.3-370.1z m-410.6 743.4c-46.9-75-74.8-162.7-74.8-257.4z" />
  </svg>
