<svg height="1000" width="968.8" xmlns="http://www.w3.org/2000/svg"><path d="M549.2 543.4c89.9 -26 96.9 -45.9 86 -84.8l-21.9 -76.8C601.4 341 577.3 327 474.4 356.8L106.8 462.5l55.9 192.6L549.2 543.4zM485.4 15.6C256.6 15.6 64.8 173.2 14.1 385.7L447.5 260.9c67.9 -19.9 105.8 -22.8 154.8 -16 70.9 11.9 103 48.8 120 107.8l20.9 73.9c16 54.8 1.9 98.8 -45.9 143.7 -37.9 34 -61 47.9 -120 64.9l-180.8 51.9L827 740l18.9 66.8 -93.9 26L191.8 760l44.9 156.6c71.9 43 156.9 67.8 246.7 67.8 267.6 0 485.3 -217.6 485.3 -485C970.7 233.2 752.9 15.6 485.4 15.6zM74.8 759L0 501.6C0 596.3 27.9 684 74.8 759z"/></svg>