
  <svg height="1000" width="875.0" xmlns="http://www.w3.org/2000/svg">
    <path d="m565.8 536.9c0 70.7-57.4 128.1-128.1 128.1-70.7 0-128.1-57.4-128.1-128.1 0-70.7 57.4-128.1 128.1-128.1 70.6 0.1 128 57.5 128.1 128.1z m272.5-9.9v410.5h-410.4v-0.2c-216.7-5.3-390.8-182.5-390.8-400.4 0-212.1 164.7-385.4 373.1-399.6v-74.8l212.4 122.6-212.4 122.7v-76.5c-156.3 14-279.3 145.7-279.3 305.6 0 169.2 137.6 306.9 306.8 306.9s306.8-137.7 306.8-306.9c0-108-55.7-202.9-140.2-257.5l88.6-51.2c86.6 71.5 142.3 178.6 145.2 298.8h0.2z" />
  </svg>
