
  <svg height="1000" width="1125.0" xmlns="http://www.w3.org/2000/svg">
    <path d="m950 210.1c233.7 149.5 232.9 431.6 0 580.3-150.6 99.5-350.3 121.9-515.8 92.2-186.6 178.1-394 96-434.2 72.2 0 0 142.7-121.3 119.6-227.5-88.7-90.6-169-282.4 0-454.6 23.1-106.3-119.6-227.5-119.6-227.5 40.6-23.7 248.6-106.1 434.2 73 165.9-30 365.6-7.4 515.8 91.9z m-375.4 579.4c247.4 0 448-129.3 448-289.5s-200.6-289.9-448-289.9-448.1 129.7-448.1 289.9c0 69.9 38 133.8 101.6 183.8 17.8 56.9 7.3 121.2-31.3 192.8-1.7 3.3-3.4 6.8-5.4 10.2 35.9-3.1 70.3-13.3 101-28.7 26.2-14.9 50-32.7 71.5-53.5l38.6-37.3c54.4 14.4 111.2 22.2 170.1 22.2 0.7 0 1.3 0 2 0z m-215-220.6c-0.3 0.1-0.6 0.1-1 0.1-36.6 0-66.3-29.5-67-65.9-1.3-88.7 132.5-90.6 133.9-2.1v1c0 0.2 0 0.4 0 0.6 0 36.5-29.5 66.1-65.9 66.4v-0.1z m144.1-65.8c-1.6-88.7 132.3-90.8 133.8-2.3v1.2c0.8 88-132.3 89-133.8 1.1z m280 65.8c-0.3 0.1-0.6 0.1-0.9 0.1-36.6 0-66.4-29.5-67.1-65.9-1.3-88.7 132.5-90.6 133.9-2.1v1c0 0.2 0 0.5 0 0.8 0 36.4-29.5 66-65.9 66.2v-0.1z" />
  </svg>
