<svg height="1000" width="875" xmlns="http://www.w3.org/2000/svg"><path d="M875 500.4C875 330.1 680.5 201 445.7 201c-36.7 0 -72.8 3.1 -108 9.4C316 189.8 290.4 171.3 263.5 156.8 119.5 86.3 0 155.1 0 155.1s111.1 92 93 172.4C-9.2 429.7 -9.6 569.9 93 672.5 111.1 753.1 0 844.9 0 844.9s119.5 68.8 263.5 -1.5c26.9 -14.7 52.5 -33 74.2 -53.6 35.2 6.3 71.3 9.4 108 9.4C680.7 799 875 670.7 875 500.4zM445.9 742.6c-46.3 0 -90.4 -5.5 -131.4 -15.3C272.9 777.7 181.4 847.9 92.6 825.2c28.9 -31.3 71.7 -84.2 62.5 -171.1C101.8 612.3 69.9 559 69.9 500.8c0 -133.6 168.4 -242 376 -242s376 108.4 376 242c0 133.4 -168.4 241.8 -376 241.8zm50 -242c0 27.7 -22.5 50.4 -50 50.4s-50 -22.5 -50 -50.4c0 -27.7 22.5 -50.4 50 -50.4s50 22.7 50 50.4zm173.6 0c0 27.7 -22.2 50.4 -50 50.4 -27.5 0 -50 -22.5 -50 -50.4 0 -27.7 22.3 -50.4 50 -50.4 27.6 0 50 22.7 50 50.4zm-347.4 0c0 27.7 -22.3 50.4 -50 50.4 -27.6 0 -50 -22.5 -50 -50.4 0 -27.7 22.2 -50.4 50 -50.4 27.7 0 50 22.7 50 50.4z"/></svg>