
  <svg height="1000" width="1000.0" xmlns="http://www.w3.org/2000/svg">
    <path d="m993.2 487.8c4.1 2.5 6.7 7 6.7 12.2 0 5.1-2.7 9.7-6.8 12.2l-42.6 26.4c-0.3 3.8-0.7 7.6-1.1 11.5l36.6 34.1c2.8 2.7 4.5 6.4 4.5 10.5 0 6.2-3.8 11.4-9.3 13.5l-46.9 17.5c-1 3.7-2.1 7.4-3.2 11.1l29.3 40.7c1.7 2.3 2.7 5.2 2.7 8.3 0 7.2-5.3 13.1-12.1 14.2l-49.6 8.1c-1.8 3.4-3.5 6.7-5.4 10.1l20.9 45.7c0.8 1.8 1.3 3.9 1.3 6 0 2.9-0.9 5.7-2.4 7.9-2.6 3.9-6.9 6.4-11.8 6.4-0.3 0-0.5 0-0.7 0l-50.4-1.8c-2.3 2.9-4.7 5.8-7.1 8.6l11.6 49.2c0.3 1 0.4 2.1 0.4 3.2 0 8-6.4 14.4-14.4 14.4-1.1 0-2.2-0.1-3.2-0.4l-49.2-11.6c-2.8 2.4-5.7 4.8-8.6 7.1l1.8 50.4c0 0.2 0 0.3 0 0.5 0 7.9-6.4 14.4-14.3 14.4-2.2 0-4.2-0.5-6-1.3l-45.7-20.9c-3.3 1.9-6.7 3.6-10.1 5.4l-8.1 49.6c-1.1 6.8-7 12.1-14.1 12.1-3.2 0-6.1-1-8.4-2.7l-40.7-29.3c-3.6 1.1-7.3 2.2-11 3.2l-17.6 46.9c-2 5.4-7.3 9.3-13.4 9.3-4.2 0-7.9-1.7-10.5-4.5l-34.2-36.6c-3.8 0.4-7.6 0.8-11.5 1.1l-26.4 42.6c-2.5 4.1-7 6.8-12.2 6.8s-9.7-2.7-12.2-6.8l-26.4-42.6c-3.8-0.3-7.6-0.7-11.5-1.1l-34.1 36.6c-2.7 2.8-6.4 4.5-10.5 4.5-6.2 0-11.4-3.9-13.5-9.3l-17.5-46.9c-3.7-1-7.4-2.1-11.1-3.2l-40.7 29.3c-2.3 1.7-5.2 2.6-8.3 2.6-7.2 0-13.1-5.2-14.2-12l-8.1-49.6c-3.4-1.8-6.7-3.5-10-5.4l-45.8 20.9c-1.8 0.8-3.8 1.3-6 1.3-7.9 0-14.3-6.4-14.3-14.4 0-0.1 0-0.3 0-0.5l1.8-50.4c-2.9-2.3-5.8-4.7-8.6-7.1l-49.2 11.6c-1 0.3-2.1 0.4-3.2 0.4-8 0-14.4-6.4-14.4-14.4 0-1.1 0.1-2.2 0.4-3.2l11.6-49.2c-2.4-2.8-4.8-5.7-7.1-8.6l-50.4 1.8c-0.3 0-0.5 0-0.7 0-5 0-9.3-2.5-11.8-6.4-1.5-2.2-2.4-5-2.4-7.9 0-2.2 0.5-4.2 1.3-6l20.8-45.8c-1.8-3.3-3.6-6.6-5.3-10l-49.7-8.1c-6.8-1.1-12-7-12-14.2 0-3.1 1-6 2.7-8.3l29.2-40.7c-1.1-3.7-2.2-7.4-3.2-11.1l-46.9-17.5c-5.5-2.1-9.3-7.3-9.3-13.5 0-4.1 1.7-7.8 4.5-10.5l36.6-34.1c-0.4-3.9-0.8-7.6-1.1-11.5l-42.6-26.4c-4.1-2.5-6.8-7-6.8-12.2 0-5.1 2.7-9.7 6.8-12.2l42.7-26.4c0.3-3.8 0.7-7.6 1.1-11.5l-36.6-34.1c-2.8-2.7-4.5-6.4-4.5-10.5 0-6.2 3.8-11.4 9.3-13.5l46.8-17.5c1.1-3.7 2.2-7.4 3.3-11.1l-29.3-40.7c-1.7-2.3-2.6-5.2-2.6-8.3 0-7.2 5.2-13.1 12-14.2l49.6-8.1c1.8-3.4 3.5-6.7 5.3-10.1l-20.8-45.7c-0.8-1.8-1.3-3.8-1.3-6 0-2.9 0.9-5.6 2.4-7.9 2.6-3.9 7-6.4 12-6.4 0.2 0 0.3 0 0.5 0l50.4 1.8c2.3-2.9 4.7-5.8 7.1-8.6l-11.6-49.2c-0.3-1-0.4-2.1-0.4-3.2 0-8 6.4-14.4 14.4-14.4 1.1 0 2.2 0.1 3.2 0.4l49.2 11.6c2.7-2.3 5.7-4.7 8.6-7l-1.8-50.4c0-0.2 0-0.4 0-0.6 0-7.9 6.4-14.4 14.4-14.4 2.1 0 4.1 0.5 5.9 1.3l45.7 20.8c3.3-1.9 6.7-3.6 10.1-5.4l8.1-49.6c1.1-6.8 7-12 14.2-12 3.1 0 6 1 8.3 2.7l40.7 29.2c3.6-1.1 7.3-2.2 11-3.2l17.6-46.9c2.1-5.5 7.3-9.3 13.5-9.3 4.1 0 7.8 1.7 10.4 4.5l34.2 36.6c3.8-0.4 7.6-0.8 11.5-1.1l26.4-42.6c2.5-4.1 7-6.8 12.2-6.8 5.2 0 9.7 2.7 12.2 6.8l26.3 42.7c3.9 0.3 7.7 0.6 11.5 1l34.2-36.5c2.6-2.8 6.3-4.6 10.5-4.6 6.1 0 11.4 3.9 13.4 9.3l17.6 46.9c3.7 1.1 7.4 2.1 11 3.3l40.8-29.3c2.3-1.7 5.2-2.7 8.3-2.7 7.2 0 13.1 5.3 14.2 12.1l8.1 49.6c3.4 1.8 6.7 3.5 10.1 5.4l45.7-21c1.8-0.8 3.8-1.3 6-1.3 7.9 0 14.3 6.4 14.3 14.4 0 0.2 0 0.4 0 0.6l-1.8 50.4c2.9 2.3 5.8 4.7 8.6 7.1l49.2-11.6c1-0.3 2.1-0.4 3.2-0.4 8 0 14.4 6.4 14.4 14.4 0 1.1-0.1 2.2-0.4 3.2l-11.5 49.2c2.4 2.8 4.8 5.7 7.1 8.6l50.4-1.8c0.2 0 0.3 0 0.5 0 7.9 0 14.4 6.4 14.4 14.4 0 2.1-0.5 4.1-1.3 5.9l-20.9 45.7c1.9 3.4 3.6 6.7 5.4 10.1l49.6 8.1c6.8 1.1 12.1 7 12.1 14.2 0 3.1-1 6-2.7 8.3l-29.3 40.7c1.1 3.7 2.2 7.4 3.2 11l46.9 17.6c5.5 2.1 9.3 7.3 9.3 13.5 0 4.1-1.7 7.8-4.5 10.4l-36.6 34.2c0.4 3.8 0.8 7.6 1.1 11.5z m-294.9 252.1l62.8 13.4c12.2-12.3 23.4-25.2 33.8-39.2h-154.4c-24.4 0-47.3-34.5-52.9-51.7-5.6-15.3-14-63.4-17.7-78.1-12-48-49.6-50.5-58.2-50.5h-94.7l-0.1 67.1h87.6c3.4 0 5.6 0.6 5.6 3.7v105.8c0 3.2-2.2 3.8-5.6 3.8h-299.2c9.8 13.3 20.3 25.6 31.8 37.5l61.5-13.2c1.9-0.4 3.7-0.6 5.7-0.6 13 0 23.9 9.2 26.5 21.4l14.9 69.7c46.8 21.7 99.6 33.9 154.6 33.9 53.7 0 104.8-11.6 150.8-32.5l14.9-69.6c2.6-12.3 13.5-21.5 26.6-21.5 1.9 0 3.8 0.2 5.7 0.6z m50.3 67.4c0 0-0.1-0.1-0.1-0.1 0-16.1-12.9-29.2-28.9-29.7h-0.9c-16.3 0.1-29.6 13.4-29.6 29.8 0 16.4 13.3 29.7 29.7 29.7s29.8-13.3 29.8-29.7z m-440.7-1.4c0 0-0.1 0-0.1 0 0-16.1-12.8-29.2-28.8-29.7h-0.8c-16.5 0-29.8 13.3-29.8 29.7 0 16.4 13.4 29.8 29.8 29.8 16.4 0 29.7-13.3 29.7-29.8z m-172-348.6c-1.4 13.1-2.1 26-2.1 39.4 0 34.8 4.9 68.5 14 100.4h104.6v-233.8h-51.8l13.2 29.7c1.5 3.4 2.3 7.1 2.3 11 0 11.1-6.6 20.6-16.1 24.8z m-22-70.4c0 16.4 13.4 29.7 29.8 29.7 16.4 0 29.7-13.3 29.7-29.7 0-16.2-12.8-29.3-28.9-29.8h-0.9c-16.4 0-29.7 13.4-29.7 29.8v0z m303 47.8h114.7c24.4 0 54-8.6 54-32.6 0-29-38.6-36.4-45-36.4h-123.6z m362.4 164.3c20.1-2.2 43-11.1 43-51.6v-17.3c0-3.6 1.5-6.1 5.3-6.1h37.6c0.7-9.1 1-17.6 1-26.9 0-12.4-0.6-24.6-1.8-36.6l-67.5-30c-9.5-4.3-16.1-13.8-16.1-24.9 0-3.9 0.8-7.5 2.2-10.9l35.2-79.2c-52.4-91.8-143.4-158.5-250.7-178.6l-51.3 48.8c-4.9 4.7-11.5 7.6-18.7 7.6-7.7 0-14.7-3.2-19.6-8.4l-45.8-48.1c-80.7 15.3-152.3 56.8-204.9 115.6h388.5c9.7 0 45.9 4.4 78.6 25.9 23.3 15.4 57.4 46.8 57.4 96.6 0 46.2-38.2 80.7-75.1 104 29.7 23.5 48.4 37 59.7 100.4 2.7 11.7 23.9 21.9 43 19.7z m-310.5-481.4c0 0-0.1 0-0.1 0 0 16.5 13.4 29.8 29.8 29.8 16.4 0 29.8-13.3 29.8-29.8 0-16.1-12.9-29.3-29-29.7h-0.8c-16.4 0-29.7 13.3-29.8 29.7z m384.4 300.4c0.1 0 0.3 0 0.4 0 16.5 0 29.8-13.4 29.8-29.8 0-16.3-13.1-29.5-29.3-29.8h-0.9c-16.4 0-29.8 13.4-29.8 29.8s13.4 29.8 29.8 29.8z" />
  </svg>
