<svg height="1000" width="1000" xmlns="http://www.w3.org/2000/svg"><path d="M462.7 501.6c0 -17.8 12.9 -34.6 31.8 -34.6 17.4 0 34 12.5 34 31.4 0 17.8 -12.5 34.6 -31.4 34.6 -17.6 0 -34.4 -13.1 -34.4 -31.4zM984.4 500c0 267.6 -216.8 484.4 -484.4 484.4S15.6 767.6 15.6 500 232.4 15.6 500 15.6 984.4 232.4 984.4 500zm-52 0C932.4 261.1 738.9 67.6 500 67.6S67.6 261.1 67.6 500 261.1 932.4 500 932.4 932.4 738.9 932.4 500zM790.8 688.7c0 7 25.4 19.9 31.9 23.8C769.1 793.6 686.3 852 592.4 875.2l-8.6 -36.1c-.6 -4.9 -3.7 -5.5 -8.2 -5.5 -3.7 0 -5.9 5.5 -5.5 8.2l8.6 36.7c-26 5.5 -52.3 8.2 -78.9 8.2 -70.9 0 -140.6 -19.9 -201.2 -56.8 3.4 -5.5 23.9 -35.2 23.9 -39.5 0 -3.7 -3.4 -7 -7.1 -7 -7.6 0 -23.8 32.4 -28.7 38.9C205.1 768.2 146.1 684.4 123.4 588.7l37.3 -8.2c4.3 -1.2 5.5 -4.3 5.5 -8.2 0 -3.7 -5.5 -5.9 -8.6 -5.5l-36.5 8.4c-4.9 -24.8 -7.6 -49.8 -7.6 -75.2 0 -72.5 20.5 -143.8 59 -204.9 5.4 3.3 31.4 21.1 35.7 21.1 3.7 0 7 -2.7 7 -6.4 0 -7.7 -28.7 -22.1 -35.1 -26.6 55.1 -80.5 138.8 -138.5 234 -160l8.2 36.2c1.1 4.3 4.3 5.4 8.2 5.4s5.8 -5.4 5.4 -8.5l-8.2 -35.8c23.9 -4.3 48.1 -7 72.5 -7 72.5 0 143.2 20.5 204.9 59 -3.7 5.4 -21.1 30.8 -21.1 35.1 0 3.7 2.7 7 6.4 7 7.6 0 22.1 -28.1 26 -34.5 80.1 54.1 137.3 136.7 159.6 230.8l-30.3 6.5c-4.9 1.2 -5.5 4.3 -5.5 8.6 0 3.7 5.5 5.8 8.2 5.4l30.9 -7c4.9 24.8 7.6 50.2 7.6 75.6 0 70.9 -19.5 140.6 -56.2 200.6 -5.5 -2.7 -28.2 -19 -32.5 -19 -4.1 0 -7.4 3.4 -7.4 7.1zM726 215.6c-25.4 23.9 -262.1 241.6 -268.8 253L268.6 782C293.4 758.8 530.7 539.8 536.7 529.5L726 215.6z"/></svg>