
  <svg height="1000" width="1000.0" xmlns="http://www.w3.org/2000/svg">
    <path d="m536.5 536.5l-212.3 139.3 139.3-212.3z m-36.5-520.9c267.6 0 484.4 216.8 484.4 484.4s-216.8 484.4-484.4 484.4-484.4-216.8-484.4-484.4 216.8-484.4 484.4-484.4z m304.4 341.4c-5.6 2.4-9.6 7.9-9.6 14.4 0 2.2 0.4 4.2 1.2 6v0c2.3 5.7 7.9 9.7 14.4 9.7 2.2 0 4.2-0.5 6-1.2l28.8-12c5.7-2.3 9.7-7.9 9.7-14.4 0-2.1-0.5-4.1-1.2-6v0c-2.4-5.7-8-9.6-14.5-9.6-2.1 0-4.1 0.4-5.9 1.1z m-190.3-173.4c-0.8 1.8-1.2 3.9-1.2 6 0 6.5 4 12.1 9.7 14.5v0c1.8 0.7 3.8 1.2 5.9 1.2 6.5 0 12.1-4 14.5-9.7l11.9-28.9c0.8-1.8 1.2-3.8 1.2-5.9 0-6.5-4-12.1-9.6-14.5v0c-1.9-0.7-3.9-1.2-6-1.2-6.5 0-12.1 4-14.4 9.6z m-114.1-66.4c-8.6 0-15.6 7-15.6 15.6v31.3c0 8.6 7 15.6 15.6 15.6v0c8.6 0 15.6-7 15.6-15.6v-31.3c0-8.6-7-15.6-15.6-15.6v0z m-146.5 29.1c-5.6 2.4-9.6 8-9.6 14.5 0 2.1 0.4 4.1 1.1 5.9l12 28.8c2.3 5.9 7.9 10 14.6 10 8.6 0 15.6-7 15.6-15.7 0-2.2-0.5-4.3-1.3-6.2l-12-28.8c-2.3-5.7-7.9-9.7-14.4-9.7-2.1 0-4.1 0.5-6 1.2z m-124.2 83c-2.8 2.8-4.6 6.8-4.6 11.1 0 4.2 1.8 8.1 4.6 10.9l22 22.1c2.9 2.9 6.8 4.6 11.1 4.6 4.3 0 8.2-1.7 11-4.6v0c2.8-2.8 4.6-6.7 4.6-11 0-4.3-1.8-8.2-4.6-11l-22-22.1c-2.8-2.8-6.7-4.6-11-4.6-4.3 0-8.2 1.8-11.1 4.6v0z m-112.1 270.7c0 8.6 7 15.6 15.6 15.6h31.3c8.6 0 15.6-7 15.6-15.6v0c0-8.6-7-15.6-15.6-15.6h-31.3c-8.6 0-15.6 7-15.6 15.6v0z m78.4 143c5.6-2.4 9.6-7.9 9.6-14.4 0-2.2-0.4-4.2-1.2-6v0c-2.3-5.7-7.9-9.7-14.4-9.7-2.2 0-4.2 0.5-6 1.2l-28.8 12c-5.7 2.3-9.7 7.9-9.7 14.4 0 2.1 0.5 4.1 1.2 6v0c2.4 5.7 8 9.6 14.5 9.6 2.1 0 4.1-0.4 5.9-1.1z m8.5-265.6c0.7-1.9 1.2-3.8 1.2-5.9 0-6.5-4-12.1-9.7-14.5l-28.9-11.9c-1.8-0.8-3.8-1.2-5.9-1.2-6.5 0-12.1 4-14.5 9.6v0c-0.7 1.9-1.2 3.9-1.2 6 0 6.5 4 12.1 9.6 14.4l28.9 12c1.8 0.7 3.9 1.2 6 1.2 6.5 0 12.1-4 14.5-9.7v0z m181.8 439c0.8-1.9 1.3-4 1.3-6.3 0-8.6-7-15.6-15.6-15.6-6.7 0-12.3 4.1-14.6 10l-12 28.8c-0.7 1.9-1.2 3.9-1.2 6 0 8.6 7 15.6 15.7 15.6 6.5 0 12.1-4 14.4-9.6z m129.7 50.8v-31.3c0-8.6-7-15.6-15.6-15.6v0c-8.6 0-15.6 7-15.6 15.6v31.3c0 8.6 7 15.6 15.6 15.6v0c8.6 0 15.6-7 15.6-15.6z m130.9-13.5c5.6-2.4 9.6-8 9.6-14.5 0-2.1-0.4-4.1-1.1-5.9l-12-28.8c-2.4-5.7-7.9-9.7-14.5-9.7-2.1 0-4.1 0.4-5.9 1.2v0c-5.7 2.3-9.7 7.9-9.7 14.4 0 2.2 0.5 4.2 1.2 6l12 28.8c2.3 5.7 7.9 9.7 14.4 9.7 2.1 0 4.1-0.5 6-1.2v0z m124.2-83c2.8-2.8 4.6-6.8 4.6-11.1 0-4.2-1.8-8.1-4.6-10.9l-22-22.1c-2.9-2.9-6.8-4.6-11.1-4.6-4.3 0-8.2 1.7-11 4.6v0c-2.8 2.8-4.6 6.7-4.6 11 0 4.3 1.8 8.2 4.6 11l22 22.1c2.8 2.8 6.7 4.6 11 4.6 4.3 0 8.2-1.8 11.1-4.6v0z m-211.6-211.6l225.4-343.6-343.6 225.4-225.4 343.6z m294.6 87.4c0.7-1.9 1.2-3.9 1.2-6 0-6.5-4-12.1-9.6-14.4l-28.9-12c-1.8-0.8-3.9-1.2-6-1.2-6.5 0-12.1 4-14.5 9.7v0c-0.7 1.8-1.2 3.8-1.2 5.9 0 6.5 4 12.1 9.7 14.5l28.9 11.9c1.8 0.8 3.8 1.2 5.9 1.2 6.5 0 12.1-4 14.5-9.6v0z m13.5-130.9c8.6 0 15.6-7 15.6-15.6v0c0-8.6-7-15.6-15.6-15.6h-31.3c-8.6 0-15.6 7-15.6 15.6v0c0 8.6 7 15.6 15.6 15.6h31.3z" />
  </svg>
