
  <svg height="1000" width="1250.0" xmlns="http://www.w3.org/2000/svg">
    <path d="m486.1 479.8h-51.5c1.4-10.1 6.5-27.6 26.7-27.6 13.2 0 23.4 7.4 24.8 27.6z m266.9-27.1c0.9 0 27.6-3.5 27.6 39 0 12.6-2.2 39.1-27.6 39.1-0.9 0-27.5 3.4-27.5-39.1 0-42.5 26.6-39 27.5-39z m-475 46.4c8.2-7.1 30.5-5.3 40.9-3.3v33.1c-11.5 2.3-31.7 5.4-40.9-1.8-2.4-2-6.4-4.5-6.4-13.8-0.1-0.3-0.1-0.6-0.1-1 0-5.4 2.6-10.1 6.5-13.2z m972-46c0 171.1-156.2 301.6-323 266.5-35.8 64.4-138.1 138.2-258.2 81.3-80.4 187.6-347.4 180-417.6-10.1-233.8 46.7-349.2-270.3-147-389.2-67.9-155.2 44.2-339.1 223.3-339.1 78.4 0.1 148.1 37.2 192.5 95.1 40.4-41.8 96.5-68 158.5-68 82.7 0 154.3 46 192.9 114.4 181.3-79.4 378.6 55.2 378.6 249.1z m-1014.7 62.1c0-22.9-22.9-29.6-34.9-33.5-10.3-4.1-26.2-6.9-26.2-17.5 0-18.4 33.2-13 49.1-4.1 0 0 2.3 1.4 3.2-0.9 0.5-1.4 4.6-12.9 5.1-14.3 0-0.2 0.1-0.4 0.1-0.6 0-1-0.6-1.8-1.5-2.1-24.1-14.9-79.5-16.6-79.5 24.8 0 24.3 22.5 30.1 34.9 33.5 9.3 3.1 25.8 5.9 25.8 17 0 7.8-6.9 13.8-17.9 13.8-13.9 0-26.8-4.6-37.2-12.4-0.9-0.4-2.7-1.4-3.2 1.4l-4.7 14.6c-0.9 1.8 0.5 2.3 0.5 2.7 3.4 2.8 20.1 12.9 44.6 12.9 25.7 0 41.8-13.8 41.8-35.4v0.1z m62.5-83.1c-19.8 0-36.5 6.2-41.8 10.1-0.6 0.3-0.9 0.9-0.9 1.6 0 0.4 0.2 0.8 0.4 1.1l5 13.8c0.3 0.8 1 1.4 1.9 1.4 0.2 0 0.3 0 0.5 0 1.2 0 13.2-7.8 33-7.8 7.8 0 13.8 1.4 17.9 4.6 7.1 5.5 6 16.2 6 20.7-9.3-0.6-37.3-6.8-57.4 7.3-8.7 6-14.4 16-14.4 27.3 0 0.4 0 0.7 0 1.1 0 11.5 3 20.3 12.9 28 23.9 16 70.9 3.9 74.4 2.8 3.1-0.6 6.9-1.3 6.9-3.7v-66.2c0.1-9 0.7-42.2-44.5-42.2z m90.9-41c0-0.1 0-0.1 0-0.1 0-1.2-1-2.2-2.2-2.2 0 0-0.1 0-0.1 0h-19.2c-0.1 0-0.1 0-0.1 0-1.2 0-2.2 1-2.2 2.2 0 0 0 0 0 0.1v154.3c0 0 0 0.1 0 0.1 0 1.2 1 2.2 2.2 2.2 0 0 0 0 0.1 0h19.3c0 0 0.1 0 0.1 0 1.2 0 2.2-1 2.2-2.2 0 0 0-0.1 0-0.1z m108.9 56.5c-4.1-4.5-13.3-14.7-34.5-14.7-6.9 0-27.7 0.4-40.4 17.5-12.4 14.9-12.9 35.3-12.9 41.8 0 6.1 0.3 27.8 13.8 41.3 5.1 5.7 17.7 16.1 44.5 16.1 21.2 0 32.2-4.6 36.3-7.4 1-0.4 1.4-1.3 0.5-3.6l-4.6-13.4c-0.4-0.8-1.2-1.4-2.2-1.4-0.2 0-0.4 0-0.5 0.1-5.1 1.8-12.4 5.5-29.9 5.5-34 0-32.9-28.8-33.1-32.6h72.6c1.1-0.1 2-0.8 2.3-1.9-0.6 0 4-28.7-11.9-47.3h0z m71.6 102.9c25.7 0 41.8-13.8 41.8-35.4 0-22.9-22.8-29.6-34.9-33.5-8.1-3.2-26.2-6.6-26.2-17.5 0-7.3 6.4-12.4 16.6-12.4 11.7 0.3 22.8 3.3 32.6 8.3 9.8 5 2.3 1.4 3.2-0.9 0.5-1.4 4.6-12.9 5-14.3 0.1-0.2 0.1-0.4 0.1-0.6 0-1-0.6-1.8-1.4-2.1-15.5-9.6-32.7-9.7-39.5-9.7-23.5 0-40 14.3-40 34.5 0 24.3 22.4 30.2 34.9 33.5 11.9 3.9 25.7 6.4 25.7 17 0 7.8-6.8 13.8-17.9 13.8-13.9 0-26.8-4.6-37.1-12.4-0.3-0.3-0.8-0.5-1.3-0.5-1 0-1.9 0.9-1.9 1.9l-4.6 14.7c-0.9 1.8 0.4 2.3 0.4 2.7 3.4 2.8 20.2 12.9 44.6 12.9h-0.1z m128.2-113c0-1.4-0.4-2.3-2.3-2.3h-22.9c0-0.3 1.8-17.5 8.7-24.4 8.1-8.1 23-3.2 23.4-3.2 2.3 1 2.8 0 3.2-0.9l5.6-15.2c1.3-1.8 0-2.2-0.5-2.7-9.9-3.9-33.9-5.6-47.8 8.3-10.7 10.7-13.6 27.2-15.6 38.1h-16.5c-1.3 0.1-2.2 1.1-2.3 2.3l-2.8 15.2c0 1.3 0.5 2.2 2.3 2.2h16.1c-16.6 93.6-17.1 98.1-20.2 108.5-2.1 7-6.5 13.5-11.5 15.1-0.2 0-7.6 3.3-18.9-0.4 0 0-1.8-1-2.7 1.4-0.5 1.3-5.1 13.3-5.5 14.7s0 2.7 0.9 2.7c10 3.9 25.4 3.5 34.9 0 12.3-4.4 19-15.4 22.5-25.3 5.4-15 5.5-19.1 23-116.6h23.9c1.2-0.1 2.2-1.1 2.3-2.3z m104.3 31.3c-1.1-3.3-9.9-35.4-49.1-35.4-29.8 0-45 19.5-49.2 35.4-1.9 5.8-6.2 27.3 0 45.9 0.2 0.6 8.6 35.4 49.2 35.4 29.2 0 44.7-18.8 49.1-35.4 6.3-18.8 2-40.1 0-45.9z m88.7-32.7c-9.8-3.2-32.5-3.7-43.2 10.6v-8.7c0-0.1 0-0.1 0-0.2 0-1.2-1-2.1-2.2-2.1 0 0-0.1 0-0.1 0h-18.4c0 0-0.1 0-0.1 0-1.2 0-2.2 1-2.2 2.1 0 0.1 0 0.1 0 0.2v107.9c0 0.1 0 0.1 0 0.2 0 1.2 1 2.1 2.2 2.1 0.1 0 0.1 0 0.1 0h18.9c0 0 0.1 0 0.1 0 1.2 0 2.2-0.9 2.2-2.1 0-0.1 0-0.1 0-0.2v-54.2c0-5.7 0.1-22.2 8.7-29.4 9.6-9.6 23.4-6.6 26.2-6 1.2 0 2.3-0.7 2.7-1.8 2.3-5 4.3-10.3 6-15.6 0.1-0.3 0.2-0.6 0.2-0.9 0-0.8-0.5-1.5-1.1-1.9v0z m91.4 105.7l-4.1-14.2c-0.9-2.3-2.8-1.4-2.8-1.4-8.2 3.5-19.8 3.7-22 3.7-9.1 0-33.6-2.2-33.6-38.6 0-12.2 3.6-38.6 32.2-38.6 0.6 0 1.2 0 1.8 0 7.2 0 14.2 1.1 20.7 3.2 6.5 2.1 1.8 0.9 2.3-1.4 1.8-5 3.2-8.7 5.1-14.7 0.4-1.8-1-2.3-1.4-2.3-22.7-7.5-43.7-4.9-54.2 0-3.1 1.5-31.7 12.7-31.7 53.8 0 5.6-1.2 58.8 56.5 58.8 10.6 0 20.9-2 30.3-5.6 0.6-0.4 1-1.2 1-2 0-0.2 0-0.5-0.1-0.7v0z m105.2-77.2c-1.5-5.8-10.5-31.7-43.6-31.7-31.3 0-46 19.8-50.1 36.3-2.1 6.9-3.2 14.3-3.2 21.9 0 0.3 0 0.7 0 1.1 0 50.5 36.8 57.4 58.3 57.4 21.2 0 32.2-4.6 36.3-7.3 0.9-0.5 1.4-1.4 0.5-3.7l-4.6-13.3c-0.4-0.9-1.3-1.5-2.2-1.5-0.2 0-0.4 0-0.6 0.1-5 1.8-12.4 5.5-29.8 5.5-34.1 0-32.9-28.8-33.1-32.6h72.6c1.1 0 2-0.8 2.3-1.9-0.5 0 1.8-13.8-2.8-30.3v0z m-45.5-12.4c10 0 23.2 4.3 24.9 27.6h-51.5c1.3-10 6.5-27.6 26.6-27.6z" />
  </svg>
