
  <svg height="1000" width="1250.0" xmlns="http://www.w3.org/2000/svg">
    <path d="m589.5 740.1c-0.6 1.1-1.1 2.1 0 0z m486.6-169.9c113.1-0.6 176.9 72.4 173.8 138.8-2.2 52.5-50.2 74-59.2 75.6-6.4 1.1-9.9 1.3-10.9-3.7-0.6-3.6 1.7-5.3 9.4-10 7.6-4.7 30.4-20.5 34.5-48.8 4.1-28.3-17.2-96.3-125.9-109-50.8-5.9-90.6 1.2-121.3 14 5.7 14.9 10 30.3 10.6 45.8 1.5 34.1-22.1 59.3-46.5 77.3-12.7 9.2-27 16.6-42.2 21.7-10.1 4.3-23.8 8.8-33.4 6.8-21.2-4.3-32.6-23-18.1-64.6 7.8-22.5 30.2-56.7 66.6-86.2-8.4-17-17.6-34.3-22.3-50.2-5-16.2-9.2-33.3-12.1-50.4 0 0-29.9 62-68.5 118.4-2.2 3.4-4.5 6.7-6.7 9.8 7.4 17.6 13.5 36.3 14.3 55.1 1.4 34-13.5 59.8-37.9 77.7-12 8.6-25.3 15.7-39.4 20.7-7.7 3.5-23.5 9-45.9 10.6-12.3 0.9-24 0.2-30.7-4.9-9-6.7-10.1-15.2-5.5-26.8 4-9.7 33.7-43.7 58.6-73.4 6.9-8.2 13.5-16.6 19.4-24.4-0.1-0.1-0.2-0.3-0.2-0.4 0 0 4.5-5.9 11.9-16-9.2-19.8-20.7-40.1-26.2-58.6-5-16.3-9.2-33.3-12.1-50.4 0 0-30.2 77.5-61.9 139.6-24.4 48.1-40.6 77.2-48 89.9v0.6s-1 1.7-2.9 4.7c-1 1.5-1.4 2.3-1.4 2.3v-0.2c-8.2 12.1-26.6 35.7-44.9 35.7-50.2 0-31.9-101.9-31.9-101.9s-14.6 37.7-31.2 70.1c-13.5 26.6-25.6 48.8-52.5 48.8-7.6 0-19.9-0.2-30.1-9.7-23-21.9-40.8-77.6-37.3-120.5 2.9-36.8 8.6-62.1 16.4-83.2-13.9 7.6-29.7 16.4-45.9 25.9-8.4 4.9-16.8 9.8-25 14.7 0.2 0.6 0.6 1 0.8 1.5 20.7 39.9 26.2 127.4-18.7 194.4s-128.5 107.8-210.1 85.1c-26.2-7.4-66-61.7-31.8-137.5 30.2-66.8 151.1-130 182.9-145.9 2.7-1.5 5.7-3.1 8.8-4.8-63.5-55.5-222-130.5-244.3-245.6-6.2-32.4 9-109.9 104.1-199 80.1-74.8 191.3-132.2 294.3-168.7 172.7-61.3 355.3-25.2 383.4 84.9 27.5 108.4-66.4 237.9-187.1 284.4-107.4 41.6-196.2 35-232.7 23.1-41.6-13.7-66-41.1-71.9-56.5-2.3-6-6.4-16.2 0-19.7 3.9-2.2 5.5-1.6 15.8 10 10 10.9 49.8 40.2 125.6 31.8 198.7-22.3 318.5-176.8 280.6-259.8-26.4-58.2-179.4-84.4-370.8 11-233.6 116.4-246.2 212.3-248.2 248.8-5.5 100.2 123.6 152.9 193.5 227.5 1 1 1.8 2 2.7 3 13.1-7.3 27-14.9 40.5-22.3 35.1-19.3 68.5-37.5 83.9-45.9 24.6-35.8 74.6-75.2 110.6-75.2 57.5 0 37.8 82.8 37.8 82.8s1.2-3.9 2.8-3.9c1.5 0 8-10.7 25.7-4.3 18.4 6.8 14.1 19.5 14.3 20.9 0.2 2.5-21.5 76-30.7 123.2-4.3 22.5-1.7 38.9-0.6 38.9 1.8 0 5.5-5.7 8.8-11.9v-0.2s2.6-4.7 6.9-13.1c0-0.4-0.4 0.6-1 1.6 0.4-0.8 1-1.8 1.8-3.3 5-9.8 12.1-24.3 20.3-42.2 16-35.4 77.1-171.3 82.2-186.4 5-15 7.8-30.6 10.3-37.3 2.5-6.6 24.2-11.7 49.4-11.5 25.2 0.2 27.7 11 27.9 13.1 0.2 2.1-12.1 32-14.8 53.1-2.8 21.1-0.2 31.7 2.1 49.4 1.6 11.8 8.8 26.4 17.4 43 26-42.6 71.9-124.2 76.4-147.1 2.4-12.7 5.9-25.3 10.3-37.3 2.5-6.6 24.2-11.7 49.4-11.5 25.2 0.2 27.7 10.9 27.9 13.1 0.2 2.1-12.1 32-14.8 53.1-2.7 21.1-0.2 31.7 2.1 49.4 2 15.3 13.9 35.6 25.4 58.8 34.1-16.8 72.7-26.3 113.2-26.3h0.1z m-838.2 282.6c37.9-41.2 53.5-93.6 37.3-153-2 1.2-3.9 2.2-5.7 3.3 0 0-0.8 0.4-2.3 1.4-9.4 5.7-17 10.3-22.3 13.5-23 14.4-57.8 37.9-84.7 63.3-44.4 41.8-53.5 99.6-30.3 113.1 21.7 12.5 72.1-2.4 108-41.6z m262.4-178.5c7.8-19.2 38.5-104.1 31.6-115.7-5-8.8-26.7-1.7-46.4 20.3-12.3 13.7-33 48.9-42.8 78.4-19.3 58.6-10.9 118.1 2.7 121.6 16 4.1 42.4-74 54.9-104.6z m216.8 103.5c15.2-9.4 48.7-33 49-68 0-1.2-0.2-2.1-0.2-3.1-7.8 10.1-15 19.3-21.3 27.1-10.7 13.3-37.9 42.4-37.9 42.4s-3.9 3.7-2.1 4.7c2.3 1.4 7.2-0.4 12.5-3.1z m167.1-38.1c19-6.8 50.4-23.3 50.6-67.2-0.1-7.3-1.4-14.5-3.7-21.1-20.3 18-32 36.7-37.1 47.9-13.1 28.5-13.7 37.7-9.8 40.4z" />
  </svg>
