<svg height="1000" width="1250.8" xmlns="http://www.w3.org/2000/svg"><path d="M1076.4 570.1c-43.8 .2 -81.7 10.8 -113.3 26.4 -11.5 -23.3 -23.5 -43.6 -25.4 -58.8 -2.3 -17.8 -4.9 -28.3 -2.2 -49.4s15.1 -51 14.9 -53.1c-.2 -2.2 -2.7 -12.9 -27.9 -13.1 -25.2 -.2 -46.9 4.9 -49.5 11.5 -2.5 6.6 -7.4 21.7 -10.3 37.3 -4.5 22.8 -50.4 104.5 -76.4 147.1 -8.6 -16.6 -15.8 -31.3 -17.4 -43 -2.3 -17.8 -4.8 -28.3 -2.1 -49.4s15 -51 14.8 -53.1c-.2 -2.2 -2.7 -12.9 -27.9 -13.1 -25.2 -.2 -46.9 4.9 -49.4 11.5s-5.3 22.3 -10.4 37.3c-5 15 -66.2 151 -82.2 186.3 -8.2 18 -15.2 32.5 -20.3 42.2s-.4 .6 -.8 1.8c-4.3 8.4 -6.8 13.1 -6.8 13.1v.2c-3.3 6.2 -7 11.9 -8.8 11.9 -1.2 0 -3.7 -16.4 .6 -38.9 9.2 -47.3 30.8 -120.7 30.7 -123.2 -.2 -1.4 4.1 -14.1 -14.3 -20.9 -17.8 -6.5 -24.2 4.3 -25.8 4.3 -1.6 0 -2.7 3.9 -2.7 3.9s19.7 -82.8 -37.9 -82.8c-36 0 -86 39.4 -110.6 75.2 -15.4 8.3 -48.8 26.5 -83.9 45.8 -13.5 7.5 -27.4 15.1 -40.5 22.3 -1 -1 -1.7 -1.9 -2.7 -2.9C218 571.9 88.9 519.1 94.3 418.9c2 -36.5 14.7 -132.4 248.3 -248.8C534 74.8 687.1 101 713.5 159.2c37.9 83 -81.9 237.5 -280.7 259.7C357 427.3 317.2 398 307.2 387.1c-10.3 -11.5 -11.9 -12.1 -15.8 -10 -6.4 3.6 -2.3 13.7 0 19.8 5.9 15.4 30.3 42.7 71.9 56.4 36.5 11.9 125.4 18.6 232.8 -23 120.7 -46.5 214.6 -176 187.1 -284.4C755.1 35.7 572.5 -.4 399.6 60.9c-102.9 36.6 -214.2 94 -294.3 168.8C10.2 318.8 -5.1 396.3 1.2 428.7 23.4 543.8 182 618.8 245.5 674.2c-3.1 1.8 -6 3.3 -8.8 4.9C204.9 694.9 84 758.2 53.7 825c-34.2 75.8 5.7 130.1 31.8 137.5 81.7 22.7 165.3 -18.2 210.2 -85.2S335.2 722.9 314.5 683c-.2 -.6 -.6 -1 -.8 -1.6 8.2 -4.8 16.6 -9.7 25 -14.6 16.2 -9.6 32 -18.4 45.9 -26 -7.8 21.1 -13.5 46.5 -16.4 83.2 -3.6 43 14.2 98.7 37.3 120.5 10.1 9.6 22.4 9.8 30 9.8 27 0 39.1 -22.3 52.6 -48.8 16.6 -32.5 31.2 -70.1 31.2 -70.1S501 837.3 551.2 837.3c18.3 0 36.7 -23.6 44.9 -35.7v.2s.4 -.8 1.4 -2.4c1.9 -2.9 2.9 -4.7 2.9 -4.7v-.6c7.4 -12.7 23.6 -41.8 48 -89.8 31.7 -62.1 62 -139.7 62 -139.7s2.7 19 12.1 50.4c5.4 18.6 17 38.9 26.1 58.6 -7.4 10.2 -11.9 16 -11.9 16s0 .2 .2 .4c-5.8 7.9 -12.5 16.3 -19.3 24.5 -25 29.6 -54.7 63.6 -58.6 73.4 -4.7 11.5 -3.5 20.1 5.5 26.7 6.6 5.1 18.3 5.9 30.6 4.9 22.5 -1.5 38.3 -7 45.9 -10.5 12.1 -4.3 26.2 -11.1 39.5 -20.7 24.4 -18 39.2 -43.8 37.9 -77.8 -.8 -18.7 -6.9 -37.5 -14.3 -55 2.2 -3.2 4.5 -6.5 6.6 -9.8 38.7 -56.4 68.6 -118.4 68.6 -118.4s2.7 19 12.1 50.4c4.7 15.9 13.9 33.2 22.3 50.2 -36.4 29.5 -58.8 63.7 -66.6 86.2 -14.5 41.6 -3.2 60.3 18.1 64.6 9.6 2 23.3 -2.5 33.4 -6.8 12.7 -4.3 28 -11.2 42.2 -21.7 24.4 -18 48.1 -43.2 46.5 -77.3 -.6 -15.5 -4.9 -30.9 -10.5 -45.8 30.6 -12.8 70.5 -19.9 121.2 -14 108.8 12.7 130.1 80.7 126 109 -4.1 28.5 -26.9 44.1 -34.5 48.8 -7.7 4.7 -10 6.4 -9.4 10 1 5 4.5 4.8 10.9 3.7 9 -1.6 57 -23.1 59.2 -75.6 3.1 -66.4 -60.7 -139.5 -173.8 -138.9zM237.9 852.7c-35.9 39.3 -86.3 54.1 -108 41.6 -23.3 -13.4 -14.1 -71.3 30.3 -113 26.9 -25.4 61.7 -48.9 84.7 -63.3 5.3 -3.2 12.9 -7.8 22.3 -13.5 1.6 -1 2.3 -1.4 2.3 -1.4 1.8 -1.1 3.7 -2.1 5.7 -3.3 16.2 59.4 .6 111.7 -37.3 152.9zM500.4 674.2C487.9 704.9 461.5 783 445.5 778.9c-13.7 -3.5 -22.1 -63.1 -2.7 -121.7 9.7 -29.5 30.4 -64.6 42.7 -78.3C505.3 556.8 527 549.8 532 558.6c6.9 11.5 -23.8 96.5 -31.6 115.6zm216.8 103.5c-5.3 2.8 -10.2 4.5 -12.5 3.2 -1.8 -1 2.1 -4.7 2.1 -4.7s27.2 -29.1 37.9 -42.4c6.3 -7.8 13.5 -17 21.3 -27.2 0 1 .2 2 .2 3.2 -.2 34.9 -33.8 58.6 -49 67.9zm167.2 -38.1c-3.9 -2.7 -3.3 -11.9 9.7 -40.4 5.1 -11.1 16.8 -29.9 37.2 -47.8 2.3 7.4 3.7 14.4 3.7 21.1 -.2 43.9 -31.7 60.3 -50.6 67.1z"/></svg>