
  <svg height="1000" width="875.0" xmlns="http://www.w3.org/2000/svg">
    <path d="m684.6 308l-105.9-90 143.4-76.2 152.9 86.3z m-309.6-69.5l89.3-55.1 67.7 67.6-108.2 56.6z m-127.1 12.9l62.3-43.2 33.5 55.5-71.6 43.9z m-45.6 172.2l-17.1-67.9 57.8-35.8 25.6 69z m-41.4-163.4l46.7-35.4 17.4 46.9-52.1 35.7z m-45.7 143.1l-7-55.4 43.6-30.3 11.9 56z m-59.7 32.4l40.6-25 6.4 65.3-44.7 23.4z m-52.8 87.7l37.5-19.9 0.8 74.6-41 17.2z m115.5 115.9l-55.3 16.2-3.1-91.4 49-20.9z m75.2-125.2l-60.8 25.4-10.1-79.7 53.5-28.2z m47.2 222.2l-81.2 11.6-15.8-124.1 68.7-21.1z m55.7-273.2l41.4 111.5-90.2 26.6-26.8-105.7z m167.4 450.2l-138.5-6.5-47.5-187.1 107.8-16.8z m-165.8-546.3l82.4-43.8 54.7 89.7-99.3 41.6z m80 185.3l119.8-36.5 103.1 169.2-155.9 22z m100.4-167.1l131.5-56.3 127.9 127.7-173.1 51.2z" />
  </svg>
