<svg height="1000" width="750" xmlns="http://www.w3.org/2000/svg"><path d="M82.6 493.6C51.2 456.4 34.4 403.9 34.2 337.5c0 -196.1 146.9 -299 326.5 -299 192.6 -3.1 306.3 95.7 360 137.9l-98.6 140.8 -72.9 -48.1 52.6 -75.4C530.5 146.9 446.7 122.5 361.5 123.8c-99 -1.5 -218.1 53.2 -218.1 148.9 0 36.5 21.8 40.4 55.8 30.4 45.5 -10.3 81.9 1.2 109 27.4 51.6 47.4 45.3 132 -1.4 179.5 -57 57.6 -166.4 53.3 -224.2 -16.4zm620.5 11.5c-30.2 -36.7 -76 -57.4 -123.4 -55.9C505.3 445.3 440.8 503.9 442 580.5c-1.4 32.8 11.7 64.4 35.9 86.5 27.6 27.1 64.5 38.5 110 28.1 34 -9.9 55.9 -6 55.9 30.5 0 8.4 -1 16.6 -2.8 24.8C608.4 830.3 524.8 876.2 403.9 876.2c-101.4 .4 -200 -32.1 -281.4 -92.4l65.8 -77 -69.5 -53.5L0 793.6l30.1 26.9a555.788 555.788 0 0 0 372.4 141c100.4 0 184.4 -20.5 261 -86.1C775 775 769.3 584 703.1 505.1z"/></svg>