
  <svg height="1000" width="898.4" xmlns="http://www.w3.org/2000/svg">
    <path d="m430.9 254.5l-131.3 408.8v-254.5l-106.8 47.3 106.8-371.7v225.2z m-162.5-188.9l-2.6 9.2-29.7 103.3c-78.7 30.3-134.5 106.7-134.5 195.9 0 102.2 67 187.3 162.9 206.1v104.7c-152.2-20.5-264.5-152.8-264.5-310.6 0-157.2 116.8-287.5 268.4-308.6z m608.2 873.5c-21.9 21.8-45.2 24-55.9 20.5-10.5-3.5-52.9-38.9-118-86.7-65-48.1-65.6-69.8-83.9-110.8-18.4-40.8-59.4-83.2-112.4-102.3l-18.9-28.7c-48.2 33-103.5 52.5-158.8 56l4.1-12.9 31.1-96.7c90.8-23.2 158-105.4 158-203.5 0-106.4-75-199.4-187.5-209.2v-101.7c162.5 9.9 290.6 145.5 290.6 311.1 0 65.6-21.9 126.4-56.6 176.6l28.5 18.7c19.1 53 61.5 93.8 102.3 112.1s62.9 19 111 84c48 64.9 83.4 107.3 86.9 117.8 3.5 10.5 1.3 33.8-20.5 55.7z m-19.4-35c0-8.6-7-15.6-15.6-15.6-8.6 0-15.6 7-15.6 15.6 0 8.6 7 15.6 15.6 15.6 8.6 0 15.6-7 15.6-15.6z" />
  </svg>
