<svg height="1000" width="1250" xmlns="http://www.w3.org/2000/svg"><path d="M1054.1 463.5c6 -23.9 8.4 -48.5 8.4 -73 0 -180.8 -147.2 -328 -328 -328C583.7 62.5 452 166 416.1 312.1 386.2 286.3 347.9 272 308.4 272c-90.4 0 -164 73.6 -164 164 0 14.3 1.8 29.3 6 43.7C66.6 519.2 12.1 604.1 12.1 696.9c0 132.9 108.4 240.6 240.6 240.6h744.6c132.2 0 240.6 -107.7 240.6 -240.6 0 -110.1 -76.1 -207.1 -183.8 -233.4zM390.4 784.3c0 16.1 -13.8 29.9 -29.9 29.9H300c-16.1 0 -29.9 -13.8 -29.9 -29.9V567.6c0 -16.1 13.8 -29.9 29.9 -29.9h60.5c16.1 0 29.9 13.8 29.9 29.9v216.7zm174.8 0c0 16.1 -13.8 29.9 -30 29.9h-60.4c-16.2 0 -29.9 -13.8 -29.9 -29.9V527.5c0 -16.1 13.7 -29.9 29.9 -29.9h60.4c16.2 0 30 13.8 30 29.9v256.8zm174.7 0c0 16.1 -13.8 29.9 -29.9 29.9h-60.5c-16.1 0 -29.9 -13.8 -29.9 -29.9V466.5c0 -16.2 13.8 -29.9 29.9 -29.9H710c16.1 0 29.9 13.7 29.9 29.9v317.8zm170 0c0 16.1 -13.8 29.9 -29.9 29.9h-55.7c-16.2 0 -29.9 -13.8 -29.9 -29.9V345.6c0 -16.8 13.7 -30.5 29.9 -30.5H880c16.1 0 29.9 13.7 29.9 30.5v438.7z"/></svg>