
  <svg height="1000" width="1250.0" xmlns="http://www.w3.org/2000/svg">
    <path d="m1054.1 463.5c107.7 26.3 183.8 123.3 183.8 233.4 0 132.9-108.4 240.6-240.6 240.6h-744.6c-132.2 0-240.6-107.7-240.6-240.6 0-92.8 54.5-177.7 138.3-217.2-4.2-14.4-6-29.4-6-43.7 0-90.4 73.6-164 164-164 39.5 0 77.8 14.3 107.7 40.1 35.9-146.1 167.6-249.6 318.4-249.6 180.8 0 328 147.2 328 328 0 24.5-2.4 49.1-8.4 73z m-663.7 320.8v-216.7c0-16.1-13.8-29.9-29.9-29.9h-60.5c-16.1 0-29.9 13.8-29.9 29.9v216.7c0 16.1 13.8 29.9 29.9 29.9h60.5c16.1 0 29.9-13.8 29.9-29.9z m174.8 0v-256.8c0-16.1-13.8-29.9-30-29.9h-60.4c-16.2 0-29.9 13.8-29.9 29.9v256.8c0 16.1 13.7 29.9 29.9 29.9h60.4c16.2 0 30-13.8 30-29.9z m174.7 0v-317.8c0-16.2-13.8-29.9-29.9-29.9h-60.5c-16.1 0-29.9 13.7-29.9 29.9v317.8c0 16.1 13.8 29.9 29.9 29.9h60.5c16.1 0 29.9-13.8 29.9-29.9z m170 0v-438.7c0-16.8-13.8-30.5-29.9-30.5h-55.7c-16.2 0-29.9 13.7-29.9 30.5v438.7c0 16.1 13.7 29.9 29.9 29.9h55.7c16.1 0 29.9-13.8 29.9-29.9z" />
  </svg>
