
  <svg height="1000" width="875.0" xmlns="http://www.w3.org/2000/svg">
    <path d="m195.3 801.4l8.6-19.4 59.8 26.2-8.6 19.3z m77 34.1l8.6-19.3 59.7 26.2-8.6 19.3z m336.1-27.3l59.8-26.2 8.6 19.4-59.8 26.1z m-258.6 60.9l8.6-18.7 59.2 26.2-8.6 19.3z m-231.8-101.9l8.6-19.3 59.7 26.7-8.6 18.8z m412.9 75.2l59.7-26.2 8.6 19.3-59.7 26.2z m-76.8 34.2l59.8-26.2 8.6 18.7-59.8 26.8z m231.3-102l59.7-26.7 8.6 19.3-59.8 26.2z m-353.4-683.6v20.5h-65.4v-20.5h65.4z m-92.2 0l-0.2 20.5h-65.4v-20.5h65.6z m-92.3 0l0.2 20.5h-65.1v-20.5h64.9z m276.3 0v20.5h-64.8v-20.5h64.8z m184.6 0v20.5h-65.4v-20.5h65.4z m92.4 0v20.5h-65.4v-20.5h65.4z m-184.8 0v20.5h-64.8v-20.5h64.8z m276.4 0v20.5h-65.1v-20.5h65.1z m-689.3 594.7v65.5h-21.1v-65.5h21.1z m136.7-421.6l-0.2 20.5h-65.4v-20.5h65.6z m-136.7 20.7v44.9h-21.1v-65.4h65.7v20.5h-44.6z m329.9 446.5c-98 0-178.3-79.7-178.3-178.4 0-98 80.3-178.3 178.3-178.3 98.6 0 178.3 80.3 178.3 178.3 0 98.7-79.7 178.4-178.3 178.4z m-94.1-217c0 86.5 151.5 23.2 151.5 74.2 0 25.6-46.8 27.9-63.8 27.9-24.1 0-58.2-5.3-70.2-29.1h-1.7l-17.6 35.9c28.9 18.2 56.8 23.9 92.2 23.9 38.1 0 99.6-11.4 99.6-61 0-93.9-153.3-31.8-153.3-74 0-25.6 40.6-29.1 58.2-29.1 21.1 0 57 6.3 69.5 25.6h1.8l17.2-33c-29.5-12.1-53.5-23.5-86.6-23.5-39.2 0-96.8 12.5-96.8 62.2z m-235.8-165.9v65.7h-21.1v-65.7h21.1z m668.8 402.8v-65.5h21.1v65.5h-21.1z m-668.8-149.8v65.4h-21.1v-65.4h21.1z m-103.1-594.2h875v793l-442 192.6-433-192.6v-793z m818 756.1h0.2v-527.6h-761.2v527.6l376.6 167.4z m0-584.6h0.2v-114.4h-761.2v114.4h761z m-714.9 254.1v65.4h-21.1v-65.4h21.1z m0 84.4v65.4h-21.1v-65.4h21.1z m228.9-253.1v20.5h-65.4v-20.5h65.4z m439.9 318.5v-65.4h21.1v65.4h-21.1z m0-84.4v-65.4h21.1v65.4h-21.1z m-348.1-234.1v20.5h-64.8v-20.5h64.8z m348.1 150v-65.5h21.1v65.5h-21.1z m0 252.9v-65.4h21.1v65.4h-21.1z m-255.9-402.9v20.5h-64.8v-20.5h64.8z m92.4 0v20.5h-65.4v-20.5h65.4z m163.5 65.6l0.2-44.9h-44.6v-20.5h65.5v65.4h-21.1z m-71.1-65.6v20.5h-65.4v-20.5h65.4z" />
  </svg>
