<svg height="1000" width="875" xmlns="http://www.w3.org/2000/svg"><path d="M771.9 432.8H793v65.5h-21.1v-65.5zm0 -18.8H793v-65.5h-21.1V414zm0 168.6H793v-65.5h-21.1v65.5zM700.7 264.2h-65.5v20.5h65.5v-20.5zm71.2 402.7H793v-65.5h-21.1v65.5zM608.4 264.2h-65.5v20.5h65.5v-20.5zm-92.3 0h-64.9v20.5h64.9v-20.5zm-92.3 0h-64.9v20.5h64.9v-20.5zm348.1 65.5H793v-65.5h-65.5v20.5h44.4v45zM272.3 835.5l59.8 26.2 8.6 -19.3 -59.9 -26.2 -8.5 19.3zm77.5 33.6l59.2 26.8 8.6 -19.4 -59.3 -26.2 -8.5 18.8zM771.9 751.2H793v-65.5h-21.1v65.5zm-654 16l59.8 26.2 8.6 -18.8 -59.8 -26.8 -8.6 19.4zm77.5 34.1l59.8 26.3 8.6 -19.4L203.9 782l-8.5 19.3zM454 876.5l8.6 19.4 59.8 -26.8 -8.6 -18.8L454 876.5zM685.3 774.6l8.5 18.8 59.9 -26.2 -8.6 -19.4 -59.8 26.8zm-76.9 33.6l8.5 19.4 59.9 -26.3L668.2 782l-59.8 26.2zm-77.5 34.2l8.6 19.3 59.8 -26.2 -8.6 -19.3 -59.8 26.2zM608.4 91h-65.5v20.5h65.5V91zm184 0h-64.9v20.5h64.9V91zm-368.6 0h-64.9v20.5h64.9V91zm276.9 0h-65.5v20.5h65.5V91zm-184.6 0h-64.9v20.5h64.9V91zM875 7.2v793L432.9 992.8 0 800.2V7.2h875zm-57 228.5H57v527.5l376.5 167.5L818 763.2V235.7zm0 -171.5H57v114.5h761V64.2zM147.5 91H82.6v20.5h64.9V91zm184.6 0h-65.5v20.5h65.5V91zm-92.3 0h-65.5v20.5h65.5V91zm14.8 462c0 -98 80.4 -178.3 178.3 -178.3 98.6 0 178.3 80.3 178.3 178.3 0 98.5 -79.7 178.3 -178.3 178.3C335 731.3 254.6 651.5 254.6 553zm235.9 35.3c0 25.6 -46.7 27.9 -63.8 27.9 -23.9 0 -58.1 -5.1 -70.1 -29h-1.7L337.2 623c29.1 18.3 57 24 92.3 24 38.2 0 99.7 -11.4 99.7 -61C529.2 492 376 554.1 376 512c0 -25.7 40.4 -29.1 58.1 -29.1 21.1 0 56.9 6.3 69.5 25.6h1.7l17.1 -33c-29.6 -12 -53.6 -23.4 -86.6 -23.4 -39.3 0 -96.9 12.6 -96.9 62.1 0 86.6 151.6 23.4 151.6 74.1zM239.8 264.2h-65.5v20.5h65.5v-20.5zm-136.7 20.5h44.4v-20.5H82v65.5h21.1v-45zm0 63.8H82V414h21.1v-65.5zm229 -84.3h-65.5v20.5h65.5v-20.5zm-229 168.6H82v65.5h21.1v-65.5zm0 168.6H82v65.5h21.1v-65.5zm0 -84.3H82v65.5h21.1v-65.5zm0 168.6H82v65.5h21.1v-65.5z"/></svg>