
  <svg height="1000" width="1000.0" xmlns="http://www.w3.org/2000/svg">
    <path d="m788.1 889.5c-80 59.4-179.1 94.6-286.4 94.6-0.4 0-1.3 0.3-1.7 0.3-267.9 0-484.4-216.8-484.4-484.4 0-267.9 216.8-484.4 484.4-484.4h0.4c124.2 0 237.6 47 323.2 124 1.4 1.3 2.3 3.2 2.3 5.2 0 3.9-3.1 7-7 7-0.3 0-0.6 0-0.9-0.1-35.6-4.7-72-7.2-109-7.2-0.9 0-0.8 0-1.7 0-252.7 0-434.4 104.5-434.4 303.4 0 212.9 180 285 345.4 349.1 65.7 25.4 127.7 49.6 169.9 81.3 1.7 1.2 2.8 3.3 2.8 5.5 0 2.3-1.1 4.4-2.8 5.6z m194.3-434.2c1.4 14.8 1.9 29.6 1.9 44.8 0 62.2-11.7 121.7-33.1 176.5-1 2.5-3.5 4.3-6.5 4.3-1.2 0-2.3-0.3-3.3-0.8-57.6-31.9-120.3-55.3-181-78-117.7-43.9-219.4-81.8-219.4-165 0-2.8-7.6-104.7 156.8-104.7 99.3 0 181 34.1 282.1 118.1 1.4 1.2 2.3 2.9 2.5 4.8z" />
  </svg>
