<svg height="1000" width="968.7" xmlns="http://www.w3.org/2000/svg"><path d="M772.5 889.2C688.6 951.3 589 984.1 484.4 984.1 216.4 984.1 0 767.3 0 499.7 0 231.8 216.9 15.4 484.4 15.4c119.7 0 234.7 44 323.6 124 5.1 4.6 1.1 12.9 -5.6 12 -34.5 -4.7 -71.8 -7.1 -110.7 -7.1C439 144.3 257.3 248.7 257.3 447.7c0 213 179.9 284.9 345.4 349.1 65.7 25.5 127.7 49.5 169.8 81.2 3.7 2.8 3.7 8.4 0 11.2zM966.7 455c-.1 -1.9 -1.1 -3.6 -2.5 -4.8C863.1 366.3 781.4 332.1 682.1 332.1 517.7 332.1 525.3 434 525.3 436.8c0 83.2 101.7 121.1 219.4 165.1 60.7 22.6 123.4 46 181 77.9 3.7 2.1 8.4 .4 9.9 -3.5 36.9 -94.5 35 -176.2 31.1 -221.3z"/></svg>