
  <svg height="1000" width="875.0" xmlns="http://www.w3.org/2000/svg">
    <path d="m758.4 203.3c0.8 4.7 106.4 718.6 106.4 718.6l-245.5 60.9v-845.2c15.6 15.7 57.8 56.3 57.8 56.3s68.8 1.6 72.7 1.6c4.4 0.2 8 3.5 8.6 7.8z m-194.6-65.7c18-5.4 26.1-8.1 28.9-8.6 2.8-0.4 5.7-0.6 8.6-0.7v856.1l-591-102.5s71.9-550.5 74.2-570c3.1-25.8 3.9-26.5 31.3-35.1 0.8-0.8 38.3-12.6 92.2-29 5.5-41.4 25.8-94.6 52.4-136.8 37.6-60.2 84.5-93.8 131.4-95.4 24.2-0.7 44.5 7.1 60.2 24.2 0.7 1.6 2.3 2.4 3.1 4 2.2-0.6 4.4-0.8 6.8-0.8 0.3 0 0.6 0 1 0 36 0 66.4 21.2 86.8 60.2 5.5 11 10.3 22.6 14.1 34.4z m-107.9 33.7c0.8-25.8-2.4-64.2-15.7-92.2-13.2 6.2-25 16.4-33.6 25-21.9 24.2-40.6 60.9-50 97.7 33.6-10.2 68-21.2 99.3-30.5z m-64.1-123.6c-72 1.6-135.3 115-152.4 189.9 25.7-7.8 53.9-16.4 82-25 9.4-47.7 32.1-97.7 61.8-129.8 11.7-11.7 24.2-21.9 36.7-28.1-7.8-4.4-16.8-7-26.4-7-0.6 0-1.2 0-1.7 0z m-90.7 430.1c-0.8-9.4 0-46.2 57.8-50.1 39.9-3.1 73.5 12.5 73.5 12.5l29.7-112.5s-25.8-12.5-76.6-9.4c-131.3 8.6-190.8 100.1-184.5 190.8 7 107.9 114.9 104 118.8 169.6 0.8 15.7-9.4 38.4-36.7 39.9-42.2 3.2-94.6-36.7-94.6-36.7l-20.3 85.9s52.3 56.3 147.7 50.1c79-4.8 133.7-68.1 128.2-161.1-7.8-118.1-139.9-129-143-179z m186-315.9c17.2-5.5 32.9-10.2 47-14.1-7.9-24.3-25.1-64.1-61-71.1 10.9 28.1 14 61.7 14 85.2z" />
  </svg>
