<svg height="1000" width="1000" xmlns="http://www.w3.org/2000/svg"><path d="M939.8 125h-207c-28.3 0 -51.9 23 -51.9 51.4v77.3h-362v-77.3C318.9 148 295.5 125 267 125H60C31.4 125 8.4 148 8.4 176.4v647.2c0 28.4 23 51.4 52 51.4H940c28.9 0 52 -23 52 -51.4V176.4C991.6 148 968.6 125 939.8 125zM292.6 694.9c-71.5 0 -129.7 -58 -129.7 -129.7 0 -72 58 -130 129.7 -130 72 0 130.1 58 130.1 130 0 71.7 -58.1 129.7 -130.1 129.7zm414.8 0c-72 0 -130.1 -58 -130.1 -130.1 0 -71.4 58.1 -129.6 130.1 -129.6 71.5 0 129.7 58 129.7 129.6 0 72.1 -58.2 130.1 -129.7 130.1z"/></svg>