
  <svg height="1000" width="1000.0" xmlns="http://www.w3.org/2000/svg">
    <path d="m939.8 125c28.8 0 51.8 23 52.2 51.4v647.2c0 28.4-23.1 51.4-52 51.4h-879.6c-29 0-52-23-52-51.4v-647.2c0-28.4 23-51.4 51.6-51.4h207c28.5 0 51.9 23 51.9 51.4v77.3h362v-77.3c0-28.4 23.6-51.4 51.9-51.4h207z m-647.2 569.9c72 0 130.1-58 130.1-129.7 0-72-58.1-130-130.1-130-71.7 0-129.7 58-129.7 130 0 71.7 58.2 129.7 129.7 129.7z m414.8 0c71.5 0 129.7-58 129.7-130.1 0-71.6-58.2-129.6-129.7-129.6-72 0-130.1 58.2-130.1 129.6 0 72.1 58.1 130.1 130.1 130.1z" />
  </svg>
