
  <svg height="1000" width="875.0" xmlns="http://www.w3.org/2000/svg">
    <path d="m0 62.5l231.9 136.2-22.5-115.1 177.9 136.5c16.6-3 33.4-4.5 50.2-4.5s33.6 1.5 50.2 4.5l177.9-136.5-22.5 115.1 231.9-136.2-136.2 231.9 115-22.5-136.4 177.8c5.9 33.2 5.9 67.3 0 100.5l136.4 177.8-115-22.5 136.2 232-231.9-136.2 22.5 115-177.8-136.4c-33.2 5.9-67.3 5.9-100.6 0l-177.8 136.4 22.5-115-231.9 136.2 136.2-232-115 22.5 136.4-177.8c-2.9-16.4-4.4-32.7-4.4-50s1.5-34.1 4.4-50.5l-136.4-177.8 115 22.5z m437.5 194.9c-62.1 0-124.2 23.6-171.6 71-94.7 94.7-94.7 248.4 0 343.1 94.7 94.7 248.5 94.8 343.2 0.1 94.7-94.7 94.7-248.5 0-343.2-47.4-47.3-109.5-71-171.6-71z m0 71.6c43.8 0 87.6 16.6 120.9 50 66.8 66.8 66.8 175.2 0 241.9-66.7 66.8-175.1 66.8-241.8 0-66.8-66.7-66.8-175.1 0-241.9 33.3-33.4 77.1-50 120.9-50z" />
  </svg>
