<svg height="1000" width="875" xmlns="http://www.w3.org/2000/svg"><path d="M0 62.5l136.2 231.9 -115 -22.5 136.4 177.8a286.6 -286.6 0 0 1 0 100.5L21.2 728l115 -22.5L0 937.5 231.9 801.3l-22.5 115L387.2 779.9c33.3 5.9 67.4 5.9 100.6 0l177.8 136.4 -22.5 -115L875 937.5l-136.2 -232 115 22.5L717.4 550.2c5.9 -33.2 5.9 -67.3 0 -100.5L853.8 271.9l-115 22.5L875 62.5 643.1 198.7 665.6 83.6 487.7 220.1a282.266 282.266 0 0 0 -100.4 0L209.4 83.6l22.5 115.1L0 62.5zm437.5 194.9c62.1 0 124.2 23.7 171.6 71 94.7 94.7 94.7 248.5 0 343.2s-248.5 94.6 -343.2 -.1c-94.7 -94.7 -94.7 -248.4 0 -343.1 47.4 -47.4 109.5 -71 171.6 -71zm0 71.6c-43.8 0 -87.6 16.6 -120.9 50 -66.8 66.8 -66.8 175.2 0 241.9s175.1 66.8 241.8 0c66.8 -66.7 66.8 -175.1 0 -241.9C525.1 345.6 481.3 329 437.5 329z"/></svg>