<svg height="1000" width="875" xmlns="http://www.w3.org/2000/svg"><path d="M829.5 585.5c5.7 -27.3 9.2 -56.4 9.2 -85.5C838.7 278.3 659.2 99 437.7 99c-29.1 0 -58 3.3 -85.6 9.2C315 79.5 268.9 62.5 218.8 62.5 98 62.5 0 160.5 0 281.3c0 50.1 17 96.2 45.5 133.2 -5.7 27.3 -9.2 56.4 -9.2 85.5 0 221.7 179.5 401 401 401 29.1 0 58 -3.3 85.6 -9.2 37.1 28.5 83.2 45.5 133.2 45.5 120.7 0 218.7 -98 218.7 -218.7 .2 -50 -16.8 -96.1 -45.3 -133.1zM449.4 764.3c-128.1 0 -235.3 -57.1 -235.3 -127 0 -31.2 17.5 -59.8 57.6 -59.8 60.9 0 66.6 87.7 172.1 87.7 50.1 0 82.6 -22.2 82.6 -51.3 0 -36.6 -31.3 -42.2 -82.1 -54.7 -122 -30.1 -230 -43 -230 -170.3 0 -115.7 114.4 -158.4 213 -158.4 107.7 0 216.5 42.7 216.5 108.2 0 33 -22.3 62.1 -59.2 62.1 -55.3 0 -57.1 -65.4 -146.5 -65.4 -50.2 0 -82 13.6 -82 43.9 0 38.7 40.6 42.6 134.9 64.5 80.9 18.1 177.2 52.3 177.2 151.5 0 115.4 -111.6 169 -218.8 169z"/></svg>