<svg height="1000" width="875" xmlns="http://www.w3.org/2000/svg"><path d="M477 424.8l37.6 112.7 -116.7 39.1L360.2 463.9 477 424.8zm80.8 476C257 991 127 921.1 36.7 620.3S16.4 189.5 317.2 99.2C618 9 748 78.9 838.3 379.7c90.2 300.8 20.3 430.8 -280.5 521.1zM715.2 517.6c-7.6 -23.8 -33.6 -36.3 -57.4 -28.7l-56.6 18.9L563.5 395.1l56.6 -18.9c23.8 -7.6 36.3 -33.6 28.7 -57.4C641.2 294.9 615.2 282.4 591.4 290l-56.6 19 -19.6 -58.8c-7.6 -23.8 -33.6 -36.3 -57.4 -28.7 -23.8 7.6 -36.3 33.6 -28.7 57.4l19.5 58.8L331.8 377l-19.5 -58.8c-7.6 -23.9 -33.6 -36.4 -57.4 -28.7 -23.8 7.6 -36.3 33.5 -28.7 57.4l19.5 58.8 -56.6 18.9c-23.9 7.6 -36.4 33.6 -28.7 57.4 6.2 18.2 23.8 30.1 41.9 30.9 8.4 1.2 15.1 -2 72.1 -20.9l37.7 112.7 -56.6 18.9c-23.9 7.7 -36.4 33.6 -28.7 57.5 6.2 18.1 23.8 30 42 30.8 8.3 1.2 15 -1.9 72 -20.9l19.6 58.8c7.2 21.1 30.8 36.3 57.4 28.7 23.8 -7.6 36.3 -33.6 28.7 -57.4L427 662.3 543.8 623l19.5 58.8c7.2 21.1 30.8 36.4 57.4 28.7 23.8 -7.6 36.3 -33.5 28.7 -57.4l-19.5 -58.8 56.6 -18.9c23.9 -8.2 36.4 -34.2 28.7 -57.8z"/></svg>