<svg height="1000" width="875" xmlns="http://www.w3.org/2000/svg"><path d="M871.5 528.1C859.4 491 818.9 471.3 781.6 483.4L693 512.9 633.8 337.1l88.7 -29.5c37.3 -12.1 56.8 -52.3 44.9 -89.6 -12.1 -37.1 -52.6 -56.9 -89.9 -44.8l-88.6 29.5 -30.7 -91.8C546.1 73.8 505.7 54.1 468.4 66.2c-37.3 12.1 -56.9 52.4 -45 89.7l30.7 91.8 -182.4 60.9L241 216.8C228.9 179.7 188.5 160 151.2 172.1c-37.3 12.1 -56.9 52.3 -44.9 89.6l30.6 91.8 -88.5 29.3C11.1 394.9 -8.4 435.2 3.5 472.5c9.8 28.3 37.3 46.8 65.6 48 13.3 2 23.5 -3.1 112.7 -32.8L241 663.5 152.3 693c-37.1 12.1 -56.8 52.5 -44.9 89.6 9.8 28.3 37.3 46.9 65.6 48.1 13.3 1.9 23.5 -3.2 112.7 -32.8l30.7 91.7c11.5 33.1 48.2 56.7 89.9 44.8 37.3 -12.1 56.8 -52.4 44.9 -89.7l-30.7 -91.8 182.8 -61.1 30.7 91.8c11.5 33 48.2 56.6 89.8 44.7 37.3 -12.1 56.9 -52.3 45 -89.6l-30.7 -91.8 88.7 -29.5c37.1 -11.7 56.8 -52.2 44.7 -89.3zm-496.3 92.2L316 444.1 498.6 383l59.2 176.2 -182.6 61.1z"/></svg>