
  <svg height="1000" width="875.0" xmlns="http://www.w3.org/2000/svg">
    <path d="m183.8 615.4c0 50.6-41.3 91.9-91.9 91.9-50.6 0-91.9-41.3-91.9-91.9 0-50.6 41.3-91.9 91.9-91.9h91.9v91.9z m46.4 0c0-50.6 41.3-91.9 91.9-91.9 50.6 0 91.9 41.3 91.9 91.9v230.2c0 50.6-41.3 91.9-91.9 91.9-50.6 0-91.9-41.3-91.9-91.9v-230.2z m91.9-369.1c-50.6 0-91.9-41.3-91.9-91.9 0-50.6 41.3-91.9 91.9-91.9 50.6 0 91.9 41.3 91.9 91.9v91.9h-91.9z m0 46.4c50.6 0 91.9 41.3 91.9 91.9 0 50.6-41.3 91.9-91.9 91.9h-230.2c-50.6 0-91.9-41.3-91.9-91.9 0-50.6 41.3-91.9 91.9-91.9h230.2z m369.1 91.9c0-50.6 41.3-91.9 91.9-91.9 50.6 0 91.9 41.3 91.9 91.9 0 50.6-41.3 91.9-91.9 91.9h-91.9v-91.9z m-46.4 0c0 50.6-41.3 91.9-91.9 91.9-50.6 0-91.9-41.3-91.9-91.9v-230.2c0-50.6 41.3-91.9 91.9-91.9 50.6 0 91.9 41.3 91.9 91.9v230.2z m-91.9 369.1c50.6 0 91.9 41.3 91.9 91.9 0 50.6-41.3 91.9-91.9 91.9-50.6 0-91.9-41.3-91.9-91.9v-91.9h91.9z m0-46.4c-50.6 0-91.9-41.3-91.9-91.9 0-50.6 41.3-91.9 91.9-91.9h230.2c50.6 0 91.9 41.3 91.9 91.9 0 50.6-41.3 91.9-91.9 91.9h-230.2z" />
  </svg>
