
  <svg height="1000" width="1000.0" xmlns="http://www.w3.org/2000/svg">
    <path d="m366.6 300.2c66.4 0 120.5 50.2 120.5 112.7 0 61.9-54.1 112.7-120.5 112.7s-120.5-50.8-120.5-112.7c0-62.5 54.1-112.7 120.5-112.7z m280.1 0c67 0 120.7 50.2 120.5 112.7 0 61.9-53.5 112.7-120.5 112.7-66.4 0-120.5-50.8-120.5-112.7 0-62.5 54.1-112.7 120.5-112.7z m305.8 175.8c29.7-20.5 49.3 7.8 31.5 34.7-35.8 44.2-103.9 98.3-207.6 140.7 109.9 374.4-268.4 434.1-262.3 242.2 0-1.4-0.6-105.1-0.6-182.7-8.4-1.5-16.8-3.9-26.8-6 0 78.1-0.6 187.3-0.6 188.7 6.1 191.8-372.2 132-262.3-242.4-103.9-42.4-171.8-96.5-207.6-140.7-17.8-26.7 1.8-55.2 31.3-34.5 3.9 2.7 8.4 5.6 12.3 8.4v-387.3c0-53.5 40.2-97.1 89.8-97.1h701.4c49.6 0 89.8 43.6 89.8 97.1v387.3z m-59.5 37.5h0.2v-372.3c0-64.1-20.7-89.2-79.9-89.2h-620.5c-61.9 0-79.3 21-79.3 89.2v375.8c132.2 69.1 245.5 56.8 307.4 54.7 26.2-0.6 43 4.5 52.9 15 3.3 3.1 19.6 18.4 39.7 33.4 2.1-30.8 19.5-50.4 65.8-48.6 63.1 2.7 179.1 15 313.7-58z" />
  </svg>
