<svg height="1000" width="1000" xmlns="http://www.w3.org/2000/svg"><path d="M487.2 413c0 61.9 -54.2 112.7 -120.6 112.7C300.2 525.7 246.1 474.9 246.1 413c0 -62.5 54.1 -112.8 120.5 -112.8S487.2 350.5 487.2 413zm496.6 97.6C948.1 554.7 880 608.8 776.2 651.3c110 374.4 -268.4 434.1 -262.2 242.1 0 3.4 -.6 -103.2 -.6 -182.4 -8.4 -1.7 -16.7 -3.9 -26.8 -6.2 0 79.8 -.6 192 -.6 188.6 6.2 192 -372.2 132.3 -262.2 -242.1C120 608.8 51.9 554.7 16.2 510.6 -1.7 483.8 17.8 455.4 47.4 476c3.9 2.8 8.4 5.6 12.3 8.4V97.1C59.7 43.5 99.9 0 149.5 0H851c49.7 0 89.9 43.5 89.9 97.1v387.3l11.7 -8.4c29.6 -20.6 49.1 7.8 31.2 34.6zM892.9 141.2C892.9 77 872.2 51.9 813.1 51.9H192.5c-61.9 0 -79.2 21.2 -79.2 89.3v375.6c132.2 69.2 245.5 56.9 307.5 54.6 26.2 -.5 42.9 4.5 53 15.1 3.3 3.3 19.5 18.5 39.6 33.5 2.2 -30.7 19.5 -50.2 65.8 -48.6 63.1 2.8 179.2 15.1 313.7 -58V141.2zm-246.1 159c-66.4 0 -120.6 50.3 -120.6 112.8 0 61.9 54.2 112.7 120.6 112.7 66.9 0 120.5 -50.8 120.5 -112.7 0 -62.5 -53.6 -112.8 -120.5 -112.8z"/></svg>