<svg height="1000" width="875" xmlns="http://www.w3.org/2000/svg"><path d="M781.3 62.5H93.8C42 62.5 0 104.5 0 156.3v687.5c0 51.7 42 93.7 93.8 93.7h687.5c51.7 0 93.7 -42 93.7 -93.7V156.3c0 -51.8 -42 -93.8 -93.7 -93.8zm-12.7 615c-6.9 15.9 -35.4 27.4 -87.5 35.6 -2.8 3.7 -4.9 19.1 -8.4 31 -2.2 7.3 -7.3 11.6 -15.9 11.6h-.4c-12.1 0 -25 -5.7 -50.3 -5.7 -34.4 0 -46.3 7.8 -73.1 26.8 -28.3 20.1 -55.5 37.3 -96.1 35.5 -41 3.1 -75.4 -21.9 -94.7 -35.5 -27 -19 -38.7 -26.8 -73.1 -26.8 -24.4 0 -39.8 6.1 -50.3 6.1 -10.6 0 -14.7 -6.5 -16.3 -11.8 -3.5 -11.9 -5.6 -27.5 -8.4 -31.2C167.2 709 106.6 698.4 105.3 671.3c-.4 -7 4.5 -13.3 11.5 -14.5C207.2 642 247.9 549.2 249.6 545.3c0 -.2 .2 -.4 .4 -.6 4.9 -9.7 5.9 -17.9 3.1 -24.4 -6.6 -15.4 -34.9 -20.9 -46.8 -25.8C175.4 482.4 171.1 468.4 173 458.8c3.2 -16.6 28.2 -27 42.8 -20.1 11.5 5.4 21.9 8.2 30.7 8.2 6.4 0 10.7 -1.6 12.9 -2.8 -2.8 -46.6 -9.2 -113.2 7.4 -150.5C310.7 195.3 403.7 187.5 431.1 187.5c1.1 0 11.9 -.2 13 -.2 67.8 0 132.9 34.8 164.7 106.1 16.6 37.3 10.1 103.7 7.4 150.5 2.2 1.2 5.7 2.6 11.1 2.8 8.4 -.4 18 -3.1 28.8 -8.2 7.8 -3.7 18.7 -3.1 26.5 0 12.3 4.5 20.1 13.3 20.3 23.2 .2 12.7 -11.1 23.7 -33.6 32.4 -2.7 1.2 -6 2.2 -9.5 3.4 -12.7 4.1 -32.1 10.1 -37.1 22.4 -2.8 6.5 -1.6 14.7 3.1 24.4 .2 .2 .2 .4 .4 .6 1.7 3.9 42.4 96.7 132.8 111.5 7.8 2 13.9 10.8 9.6 21.1z"/></svg>