<svg height="1000" width="968.8" xmlns="http://www.w3.org/2000/svg"><path d="M484.4 15.6C216.8 15.6 0 232.4 0 500s216.8 484.4 484.4 484.4S968.8 767.6 968.8 500 752 15.6 484.4 15.6zm331 661.9c-6.8 15.9 -35.3 27.4 -87.5 35.6 -2.7 3.7 -4.9 19.1 -8.4 31 -2.1 7.3 -7.2 11.6 -15.8 11.6h-.4c-12.1 0 -25 -5.7 -50.4 -5.7 -34.3 0 -46.3 7.8 -73 26.8 -28.3 20.1 -55.5 37.3 -96.1 35.5 -41 3.1 -75.4 -21.9 -94.7 -35.5C362.1 757.8 350.4 750 316 750c-24.4 0 -39.8 6.1 -50.4 6.1 -10.5 0 -14.6 -6.5 -16.2 -11.8 -3.5 -11.9 -5.6 -27.5 -8.4 -31.2C214.1 709 153.5 698.4 152.1 671.3c-.3 -7 4.5 -13.3 11.6 -14.5C254.1 642 294.7 549.2 296.5 545.3c0 -.2 .2 -.4 .4 -.6 4.9 -9.7 5.8 -17.9 3.1 -24.4 -6.6 -15.4 -35 -20.9 -46.9 -25.8C222.3 482.4 218 468.4 219.9 458.8c3.1 -16.6 28.1 -27 42.8 -20.1 11.5 5.4 21.9 8.2 30.7 8.2 6.4 0 10.7 -1.6 12.9 -2.8 -2.8 -46.6 -9.2 -113.2 7.4 -150.5C357.6 195.3 450.6 187.5 477.9 187.5c1.2 0 11.9 -.2 13.1 -.2 67.8 0 132.8 34.8 164.7 106.1 16.6 37.3 10.1 103.7 7.4 150.5 2.1 1.2 5.7 2.6 11.1 2.8 8.4 -.4 18 -3.1 28.7 -8.2 7.8 -3.7 18.8 -3.1 26.6 0 12.3 4.5 20.1 13.3 20.3 23.2 .2 12.7 -11.1 23.7 -33.6 32.4 -2.7 1.2 -6 2.2 -9.6 3.4 -12.7 4.1 -32 10.1 -37.1 22.4 -2.7 6.5 -1.5 14.7 3.2 24.4 .2 .2 .2 .4 .3 .6 1.8 3.9 42.4 96.7 132.9 111.5 7.8 2 13.8 10.8 9.5 21.1z"/></svg>