<svg height="1000" width="1250" xmlns="http://www.w3.org/2000/svg"><path d="M217.6 500.6l11.3 126.9 -11.3 133.4c-.6 4.9 -4.3 8.6 -8.6 8.6s-8.2 -3.7 -8.2 -8.6l-11 -133.4 11 -126.9c0 -4.3 3.7 -8.2 8.2 -8.2 4.3 0 8 3.9 8.6 8.2zm41.8 -89.1c-5.5 0 -9.2 4.3 -9.8 9.8l-9.8 206.2 9.8 133.4c.6 5.5 4.3 9.8 9.8 9.8 4.9 0 9.2 -4.3 9.2 -9.8l11.3 -133.4L268.6 421.3c0 -5.5 -4.3 -9.8 -9.2 -9.8zm49.8 -47c-6.1 0 -10.4 4.3 -11 10.3l-8.6 253.9 8.6 132.4c.6 6.1 4.9 10.4 11 10.4 5.4 0 10.3 -4.3 10.3 -10.4l10.4 -132.4L319.5 374.8c0 -6 -4.9 -10.3 -10.3 -10.3zM14.1 553.1c-2.8 0 -4.3 2.2 -4.9 4.9L0 627.5l9.2 68.4c.6 2.7 2.1 4.9 4.9 4.9s4.3 -2.2 4.8 -4.9l11 -68.4L18.9 558c-.5 -2.7 -2.1 -4.9 -4.8 -4.9zm46.1 -42.7c-2.8 0 -4.9 2.1 -4.9 4.8L42.8 627.5l12.5 109.6c0 3.3 2.1 5.5 4.9 5.5s4.8 -2.2 5.4 -4.9L79.7 627.5 65.6 515.2c-.6 -2.7 -2.7 -4.8 -5.4 -4.8zm49.4 -22.3c-3.3 0 -6.1 2.7 -6.5 6.4l-11.3 133 11.3 128.6c.6 3.3 3.3 6 6.5 6 3.3 0 6 -2.7 6 -6l13.5 -128.6 -13.5 -133c0 -3.7 -2.7 -6.4 -6 -6.4zm49.4 -4.3c-3.7 0 -7 2.7 -7 7l-11.4 136.7L152 760c0 4.3 3.3 7 7 7s7 -2.7 7.6 -7l12.5 -132.5L166.6 490.8c-.6 -4.3 -3.9 -7 -7.6 -7zM630.5 267.2c-2.2 -1.6 -5.5 -2.7 -8.2 -2.7 -4.3 0 -8.2 1.5 -11 3.7 -3.7 3.3 -6 8.2 -6.4 13.1v1.5l-6.5 345.1 3.4 63.5 3.3 61.9c.6 9.2 8.2 16.8 17.4 16.8s16.8 -7.6 16.8 -16.8l7.6 -125.4 -7.6 -346.6c-.8 -5.9 -3.9 -11.4 -8.8 -14.1zm-52.2 29.9c-2.7 -1.6 -5.4 -2.8 -8.6 -2.8s-6 1.2 -8.6 2.8c-4.3 2.7 -7 7.6 -7 13.1l-.6 3.3 -5.5 314s0 .6 6.1 128.2v.6c0 3.3 1.2 6.4 3.3 9.1 3.3 3.7 7.6 6.1 12.5 6.1 4.3 0 8.2 -2.2 11 -4.9 3.3 -2.7 4.8 -6.4 4.8 -10.9l.6 -13.1 6.1 -114.5 -6.5 -317.9c-.5 -5.5 -3.3 -10.4 -7.6 -13.1zM360.7 341c-6 0 -11.3 5.5 -11.3 11.9l-8.6 274.6 8.6 131.3c.6 6.4 5.5 11.3 11.3 11.3 6.5 0 11.4 -4.9 12 -11.3l9.7 -131.3 -9.7 -274.6c-.4 -6.4 -5.3 -11.9 -12 -11.9zm735.8 122.7c-21.1 0 -41.2 4.3 -59.8 11.9C1024.2 337.3 908.2 228.7 766.6 228.7c-34.8 0 -68.4 6.5 -98.2 18.4 -12 4.3 -15.3 8.6 -15.3 17.9v487.7c0 9.8 7.6 16.8 16.8 18h426.4c84.6 0 153.5 -68.4 153.5 -152.9 .2 -85.2 -68.7 -154.1 -153.3 -154.1zM517 345.9c-8.2 0 -14.7 6.4 -15.2 15.2l-6.5 267 6.5 128.2c.5 8.2 7 14.6 15.2 14.6s14.6 -6.4 14.6 -14.6l7.7 -128.2 -7.7 -267c-.5 -8.8 -6.4 -15.2 -14.6 -15.2zM412.3 330.7c-6.4 0 -12.5 6 -12.5 13.1l-7.6 283.7 7.6 130.7c.6 7 6.1 12.5 12.5 12.5 7 0 12.5 -5.5 13.1 -12.5L434 627.5l-8.6 -283.7c-.6 -7.1 -6.1 -13.1 -13.1 -13.1zm52.2 6.6c-7.7 0 -13.5 6.1 -13.5 13.5l-7.6 276.7 7.6 129.7c.6 7.6 6 13.5 13.5 13.5s13.4 -6.1 13.4 -13.5l8.2 -129.7 -8.2 -276.7c0 -7.6 -5.8 -13.5 -13.4 -13.5z"/></svg>