<svg height="1000" width="875" xmlns="http://www.w3.org/2000/svg"><path d="M687.5 62.5h-500C84.4 62.5 0 146.9 0 250v500c0 103.1 84.4 187.5 187.5 187.5h500C790.6 937.5 875 853.1 875 750V250C875 146.9 790.6 62.5 687.5 62.5zM431.6 747.9C354.3 747.9 271.7 713.1 271.7 643v-53.2h77.9v34.8c0 29.5 38.1 47.9 81.8 47.9 47.3 0 80.7 -20.4 80.7 -57.7 0 -46.4 -53.1 -62.3 -106.8 -83.2C343 507.4 282 480.5 282 396.7 282 302.9 357.4 267 438.1 267c73.4 0 147.4 27.5 147.4 81.8v61h-77.9v-31.5c0 -23.6 -34.7 -36.1 -69.5 -36.1 -38.1 0 -69.5 15.8 -69.5 51.2 0 43.1 43.9 57 91.8 75.9 70.1 24.3 138.8 53.2 138.8 139.7 .2 94.9 -79.7 138.9 -167.6 138.9z"/></svg>