
  <svg height="1000" width="1000.0" xmlns="http://www.w3.org/2000/svg">
    <path d="m417.7 578.1h-222.4c-107.8 0-195.3-87.5-195.3-195.3s87.5-195.3 195.3-195.3h259.5c43.1 0 78.1 35 78.1 78.1s-35 78.2-78.1 78.2h-263.4c-51.7 0-51.7 78.1 0 78.1h222.3c107.8 0 195.3 87.5 195.3 195.3s-87.5 195.3-195.3 195.3h-335.6c-43.1 0-78.1-35-78.1-78.1s35-78.1 78.1-78.1h339.6c51.7 0 51.7-78.2 0-78.2z m164.3 234.4c52.2-35.4 89.2-91.4 99.9-156.2h126c21.3-0.2 38.4-17.5 38.4-38.8 0-0.1 0-0.2 0-0.3v-234.4-0.3c0-21.3-17.1-38.6-38.4-38.8h-229c18.3-20.8 29.4-48.1 29.4-78 0-29.9-11.1-57.3-29.4-78.2h267.5c84.8 0 153.6 70 153.6 156.2v312.5c0 86.3-68.8 156.3-153.6 156.3h-264.4z" />
  </svg>
