
  <svg height="1000" width="875.0" xmlns="http://www.w3.org/2000/svg">
    <path d="m125 765.2c-155.1-172.3-140.6-438.2 32.5-594 173.1-155.8 439.1-142.6 594.2 29.7 155.1 172.4 140.6 438.2-32.5 594.1-36.6 32.9 125 84.1 82 102-160.3 66.8-495.9 68.4-676.2-131.8h0z m416.6-413.3l75.2-79.8c-18.8-17.4-62.5-52.4-148.8-53.9-102.2-1.8-187.2 55.3-189 156.3-0.3 22.1 0.6 71.7 57.5 107 67.3 41.9 169 42.1 168 102.1-0.7 41.6-51.6 50.4-75.4 50-5.9-0.1-59-0.9-93-48.1l-78.1 83.3c55 52.7 115.2 63.7 163.1 64.5 19.9 0.4 188.3 0.6 191-158.2 0.6-30.9-4-77.6-56.3-110.5-67.1-42.3-166-38-164.9-97.2 0.8-45.4 60.5-49.5 73.3-49.3 0.8 0 52 0.5 77.4 33.9z" />
  </svg>
