<svg height="1000" width="968.8" xmlns="http://www.w3.org/2000/svg"><path d="M484.4 15.6C217 15.6 0 232.6 0 500s217 484.4 484.4 484.4S968.8 767.4 968.8 500 751.8 15.6 484.4 15.6zm196.7 712.7c-8.2 0 -13.3 -2.5 -20.9 -7C538.3 647.9 396.5 644.7 256.4 673.4c-7.6 2 -17.5 5.1 -23.2 5.1 -18.9 0 -30.9 -15 -30.9 -30.8 0 -20.2 12 -29.7 26.6 -32.9 160 -35.3 323.4 -32.2 462.9 51.2 11.9 7.6 18.9 14.5 18.9 32.2s-13.8 30.1 -29.6 30.1zm52.5 -128.1c-10.2 0 -17 -4.5 -24 -8.2C587.5 519.7 405.5 490.6 243.6 534.6c-9.4 2.5 -14.5 5 -23.3 5 -20.9 0 -37.9 -16.9 -37.9 -37.8s10.2 -34.8 30.3 -40.5c54.3 -15.2 109.8 -26.5 191 -26.5 126.8 0 249.2 31.4 345.7 88.8 15.8 9.4 22.1 21.5 22.1 38.5 -.2 21.1 -16.6 38.1 -37.9 38.1zm60.5 -148.8c-10.1 0 -16.4 -2.6 -25.2 -7.7 -139 -83 -387.6 -102.9 -548.6 -58 -7 2 -15.8 5.1 -25.2 5.1 -25.8 0 -45.5 -20.1 -45.5 -46.1 0 -26.5 16.4 -41.6 34 -46.7 68.7 -20.1 145.7 -29.6 229.5 -29.6 142.6 0 292 29.6 401.2 93.3 15.2 8.8 25.2 20.9 25.2 44.2 0 26.5 -21.5 45.5 -45.4 45.5z"/></svg>