
  <svg height="1000" width="1000.0" xmlns="http://www.w3.org/2000/svg">
    <path d="m363.5 670.6l307.1-307c75.3-75.4 197.5-75.4 272.9 0 75.3 75.3 75.3 197.5 0 272.8l-232.9 232.9-0.1 0.1c-37.7 37.7-98.7 37.6-136.4-0.1l301.1-301c37.7-37.7 37.7-98.8 0-136.5s-98.8-37.6-136.4 0l-307 307c-18.9 18.9-49.4 18.9-68.3 0-18.8-18.8-18.8-49.4 0-68.2z m477.6-204.7c18.8 18.8 18.8 49.4 0 68.2l-307 307.1c-75.4 75.3-197.6 75.3-272.9 0l-0.1-0.1c-18.8-18.8-18.8-49.4 0.1-68.2l0 0c18.8-18.9 49.4-18.8 68.2 0l0.1 0.1c37.7 37.6 98.7 37.6 136.4-0.1l307-307c18.8-18.9 49.4-18.9 68.2 0z m-511.7 170.6c-75.4 75.3-197.5 75.3-272.9-0.1-75.3-75.3-75.3-197.5 0-272.8l232.9-233 0 0c37.7-37.7 98.8-37.6 136.4 0l-301.1 301.2 0 0c-37.7 37.7-37.6 98.8 0 136.4l0 0c37.7 37.7 98.8 37.7 136.5 0l307-307c18.9-18.8 49.4-18.8 68.2 0 18.8 18.9 18.8 49.4 0 68.3z m-170.6-102.4c-18.8-18.8-18.8-49.4 0-68.2l307.1-307c75.3-75.4 197.5-75.4 272.9 0 18.8 18.8 18.8 49.4 0 68.2-18.9 18.9-49.4 18.9-68.3 0l0 0c-37.7-37.7-98.8-37.7-136.4 0l-307.1 307c-18.8 18.9-49.3 18.9-68.2 0z" />
  </svg>
