<svg height="1000" width="1000" xmlns="http://www.w3.org/2000/svg"><path d="M363.5 670.6c-18.8 18.8 -18.8 49.4 0 68.2 18.9 18.9 49.4 18.9 68.3 0l307 -307c37.6 -37.6 98.7 -37.6 136.4 0s37.7 98.8 0 136.5l-301.1 301c37.7 37.7 98.7 37.8 136.4 .1l.1 -.1L943.5 636.4c75.3 -75.3 75.3 -197.5 0 -272.8 -75.4 -75.4 -197.6 -75.4 -272.9 0l-307.1 307zM841.1 465.9c-18.8 -18.8 -49.4 -18.8 -68.2 0l-307 307c-37.7 37.7 -98.7 37.7 -136.4 .1l-.1 -.1c-18.8 -18.8 -49.4 -18.9 -68.2 0 -18.9 18.8 -18.9 49.4 -.1 68.2l.1 .1c75.3 75.3 197.5 75.3 272.9 0l307 -307.1c18.8 -18.8 18.8 -49.4 0 -68.2zM329.4 636.5l307 -307c18.8 -18.9 18.8 -49.4 0 -68.3 -18.8 -18.8 -49.3 -18.8 -68.2 0l-307 307c-37.7 37.7 -98.8 37.7 -136.5 0C87.1 530.6 87 469.5 124.7 431.8L425.8 130.6C388.2 93 327.1 92.9 289.4 130.6l-232.9 233c-75.3 75.3 -75.3 197.5 0 272.8 75.4 75.4 197.5 75.4 272.9 .1zM158.8 534.1c18.9 18.8 49.4 18.8 68.2 0l307.1 -307c37.6 -37.7 98.7 -37.7 136.4 0 18.9 18.9 49.4 18.9 68.3 0 18.8 -18.8 18.8 -49.4 0 -68.2 -75.4 -75.4 -197.6 -75.4 -272.9 0l-307.1 307c-18.8 18.8 -18.8 49.4 0 68.2z"/></svg>