
  <svg height="1000" width="875.0" xmlns="http://www.w3.org/2000/svg">
    <path d="m477.7 453.9c0 16.6-8.3 40-41.6 40h-38.3v-81h38.3c33.4 0 41.6 24.2 41.6 41z m397.3-391.4v875h-875v-875h875z m-579.5 499.7c0-41.5-23.7-67.5-91.2-87.6-40.2-14.5-50.8-21.3-50.8-36.4 0-15.1 13.6-28.5 39.8-28.5 27.6 0 40.6 16.5 40.6 35.8h60l0.4-1.1c1-38.2-29.4-81.4-99.9-81.4-45.6 0-102.6 21-102.6 74.8 0 37.9 18.1 61.1 99.1 86.7 33.7 12 42.8 20.3 42.8 38 0 29.7-37.4 27.8-38 27.8-39.9 0-50.1-17.7-50.1-42.7h-60.2l-0.3 1.1c-1.4 61.1 55.4 88.3 110.6 88.3 58.5 0 99.8-26.5 99.8-74.8z m244.9-108.7c0-49.4-36-88.8-104.3-88.8h-101.2v269.9h62.9v-92.5h38.3c59 0 104.3-31.1 104.3-88.6z m41.5 181.3l95.8-270h-60.7l-93.6 270h58.5z m208.1-270h-60.8l-93.5 270h58.4z" />
  </svg>
