<svg height="1000" width="859.4" xmlns="http://www.w3.org/2000/svg"><path d="M393.8 248.8c8 -6.2 20.1 -5.8 26.9 1l332 326.8 -5.2 -5.3L834 652c7.2 6.8 6.4 17.5 -1.4 23.8L445.9 995.9c-19.3 14.8 -33.8 1.6 -33.8 1.6L4.5 614.5c-6.8 -6.9 -5.9 -17.6 2.3 -23.9l89.5 -68.1c8.2 -6.3 20.3 -5.9 27.1 .9l296.7 288.1c7.2 6.9 19.5 7.3 27.8 .8l182 -144.5c8 -6.3 8.8 -17 1.7 -23.9l-164 -158.7c-7.1 -6.9 -19.4 -7.3 -27.4 -1l-.2 .2c-8 6.2 -20.3 5.8 -27.3 -1l-133 -125.6c-6.8 -6.8 -6.1 -17.6 2.1 -23.8l112 -85.2m28.9 502.6c7.2 6.8 19.7 7.2 27.9 .7l98 -75.7 -.6 -.6 15.1 -11.7c8.2 -6.3 9 -17 1.7 -23.9L453.3 534c-7 -6.9 -19.5 -7.2 -27.7 -1l-.2 .2c-8.2 6.3 -20.5 6.1 -27.7 -.8L212.9 353.1c-7 -6.8 -6.1 -17.4 2.1 -23.8L395.1 189.6c8 -6.2 20.1 -5.8 27.2 1l313.2 310.6c7.3 6.8 19.6 7.2 27.6 .9l89.4 -69.9c8 -6.2 8.6 -17 1.4 -23.8L442.8 4.9C439.8 2.5 427.1 -5.9 410.9 7L7 323.6c-8.2 6.3 -9.3 17 -2.3 23.9l82.6 81.4"/></svg>