
  <svg height="1000" width="859.4" xmlns="http://www.w3.org/2000/svg">
    <path d="m747.5 571.3l86.5 80.7c7.2 6.8 6.4 17.5-1.4 23.8l-386.7 320.1c-19.3 14.8-33.8 1.6-33.8 1.6l-407.6-383c-6.8-6.9-5.9-17.6 2.3-23.9l89.5-68.1c8.2-6.3 20.3-5.9 27.1 0.9l296.7 288.1c7.2 6.9 19.5 7.2 27.8 0.8l182-144.5c8-6.3 8.8-17 1.7-23.9l-164-158.7c-7.1-6.9-19.4-7.3-27.4-1l-0.2 0.2c-8 6.2-20.3 5.8-27.3-1l-133-125.6c-6.8-6.8-6.1-17.6 2.1-23.8l111.9-85.2c8.1-6.2 20.2-5.8 27 1l332 326.8z m106.4-162.9c7.2 6.8 6.6 17.6-1.4 23.8l-89.4 69.9c-8 6.3-20.3 5.9-27.6-0.9l-313.2-310.6c-7.1-6.8-19.2-7.2-27.2-1l-180.1 139.7c-8.2 6.4-9.1 17-2.1 23.8l184.8 179.3c7.2 6.9 19.5 7.1 27.7 0.8l0.2-0.2c8.2-6.2 20.7-5.9 27.7 1l111.5 106.2c7.3 6.9 6.5 17.6-1.7 23.9l-15.1 11.7 0.6 0.6-98 75.7c-8.2 6.5-20.7 6.1-27.9-0.7l-335.4-322.5-82.6-81.4c-7-6.9-5.9-17.6 2.3-23.9l403.9-316.6c16.2-12.9 28.9-4.5 31.9-2.1z" />
  </svg>
