
  <svg height="1000" width="875.0" xmlns="http://www.w3.org/2000/svg">
    <path d="m361.7 696.3c15.1-36.1-1.9-77.6-38.3-92.6l-57.6-23.8c22.3-8.4 47.5-8.8 71.1 1 23.8 9.9 42.2 28.5 52.2 52.1 9.7 23.8 9.7 50-0.2 73.6-20.5 49.1-77 72.3-126.2 51.8-22.7-9.4-39.8-26.6-49.6-47.3l55.6 23.1c36.4 15.2 78-1.8 93-37.9z m419.6-633.8c51.7 0 93.7 42 93.7 93.8v687.5c0 51.7-42 93.7-93.7 93.7h-687.5c-51.8 0-93.8-42-93.8-93.7v-220.4l174 72.1c11.7 58.6 63.9 102.9 126 102.9 71.5 0 131.4-59.1 128.3-134.3l154.3-110c95.1 2.3 175-74.8 175-170.9 0-94.1-76.7-170.9-171.1-170.9s-171.1 76.8-171.1 170.9v2.2l-108.2 156.6c-28.3-1.6-56 6-79.5 22.1l-227.7-94v-313.8c0-51.8 42-93.8 93.7-93.8h687.5z m-194.8 434.6c-62.9 0-114-51-114-113.9s51.1-113.9 114-113.9 114.1 51.2 114.1 113.9c0 62.7-51.2 113.9-114.1 113.9z m0.2-28.5c47.3 0 85.8-38.3 85.8-85.6 0-47.3-38.3-85.5-85.8-85.5-47.2 0-85.7 38.2-85.7 85.5 0 47.3 38.5 85.6 85.7 85.6z" />
  </svg>
