<svg height="1000" width="875" xmlns="http://www.w3.org/2000/svg"><path d="M361.7 696.3c15.1 -36.1 -1.9 -77.5 -38.3 -92.6l-57.6 -23.8c22.3 -8.4 47.5 -8.8 71.1 1 23.8 9.9 42.2 28.5 52.2 52.1 9.7 23.8 9.7 50 -.2 73.6 -20.5 49.1 -77 72.3 -126.2 51.8C240 749 222.9 731.8 213.1 711.1l55.7 23.1c36.3 15.2 77.9 -1.8 92.9 -37.9zM781.3 62.5H93.8C42 62.5 0 104.5 0 156.3v313.8l227.7 94C251.2 548 278.9 540.4 307.2 542L415.4 385.4v-2.2c0 -94.1 76.8 -170.9 171.1 -170.9s171.1 76.8 171.1 170.9c0 96.1 -79.9 173.2 -175 170.9l-154.3 110c3.1 75.2 -56.8 134.3 -128.3 134.3 -62.1 0 -114.3 -44.3 -126 -102.9L0 623.4v220.4c0 51.7 42 93.7 93.8 93.7h687.5c51.7 0 93.7 -42 93.7 -93.7V156.3c0 -51.8 -42 -93.8 -93.7 -93.8zM586.5 497.1c-62.9 0 -114 -51 -114 -113.9s51.1 -113.9 114 -113.9 114.1 51.2 114.1 113.9S649.4 497.1 586.5 497.1zm.2 -28.5c47.3 0 85.8 -38.3 85.8 -85.6s-38.3 -85.5 -85.8 -85.5c-47.2 0 -85.7 38.2 -85.7 85.5s38.5 85.6 85.7 85.6z"/></svg>