
  <svg height="1000" width="875.0" xmlns="http://www.w3.org/2000/svg">
    <path d="m772.5 346.7c0 66-53.7 119.1-119.2 119.1-66 0-119.1-53.3-119.1-119.1s53.3-119.2 119.1-119.2c65.5 0 119.2 53.2 119.2 119.2z m102.5 0.4c0 123-99.6 222.2-222.1 222.2l-213.4 155.9c-7.9 84-79.1 150-165.1 150-79.1 0-145.9-56.3-162.1-130.9l-112.3-45.1v-209.6l189.8 76.8c29.5-18 62.9-26 101.6-22.5l138.7-198.6c1-121.7 100.6-220.3 222.6-220.3 122.7 0 222.3 99.6 222.3 222.1z m-478.5 361.9c0-67.8-54.3-122.1-122.1-122.1-8.8 0-17.6 1-26.4 2.9l50.8 20.6c49.8 19.9 74.2 76.1 54.1 125.9-19.9 49.8-76.5 74.2-126.3 53.7-20-7.8-40.1-16.2-60-23.8 20.5 38.5 60.9 64.9 107.8 64.9 67.8 0 122.1-54.3 122.1-122.1z m405.3-361.9c0-82.1-67-148.9-148.9-148.9-82.6 0-149.4 66.8-149.4 148.9 0 82.4 67 148.8 149.4 148.8 81.9 0.2 148.9-66.2 148.9-148.8z" />
  </svg>
