
  <svg height="1000" width="1250.0" xmlns="http://www.w3.org/2000/svg">
    <path d="m322.3 282.6l0.2 75.2h65.8v73.8h-65.8v123.5c0 51.2 54.6 35.1 65.8 30.6v66.1c-11.5 6.2-32.4 11.5-61 11.5-51.3 0-90-33.2-90-84.6l0.4-278.1z m174 100.8c20.3-37.3 60.7-29.7 72.5-25.6v79.7c-11.2-3.5-45.8-8.8-66.3 18.2v201.3h-86.5v-299.2h75z m180.3-141.2v70.7l-87.1 18.5v-70.7z m-588.9 203.7c0 39.1 132.6 20.5 132.6 123.8 0 62.5-49.6 93.4-121.7 93.4-29.8 0-62.5-5.9-94.7-19.7v-78.2c29.1 15.9 66.2 27.8 94.9 27.8 19.4 0 33.2-5.3 33.2-21.3 0-41.4-131.8-25.8-131.8-121.9 0-61.3 46.9-98 117.2-98 28.7 0 57.4 4.5 86.1 15.8v81.6c-26.4-14.2-59.9-22.2-86.3-22.2-18.2 0.1-29.5 5.4-29.5 18.9z m1162.3 65c0 8.4-0.8 26.6-1.2 31.1h-169.7c3.9 40.6 33.6 52.5 67.4 52.5 34.4 0 61.5-7.2 85.1-19.1v65.2c-23.6 13.1-54.6 22.5-96.1 22.5-84.3 0-143.5-48.3-143.5-152.7 0-88.3 50.2-158.4 132.6-158.4s125.4 70.1 125.4 158.9z m-171.7-32.8h89.7c0-39-22.7-55.4-44-55.4-21.7 0-45.7 16.4-45.7 55.4z m-220.5-126.1c61 0 118.4 54.8 118.2 155.6 0 110.2-56.7 155.5-118.8 155.5-30.2 0-48.8-12.7-61.3-21.9l-0.2 98.1-86.7 18.3v-400h76.4l4.4 21.5c12.2-11.1 34-27.1 68-27.1z m-20.7 239.2c32.2 0 53.7-35 53.5-81.6 0-45.3-21.8-80.9-53.5-80.9-19.9 0-32.4 7.2-41.4 17.2l0.6 128.9c8.4 9 20.5 16.4 40.8 16.4z m-247.5 65.8v-299.2h87.2v299.2h-87.2z" />
  </svg>
