<svg height="1000" width="1250" xmlns="http://www.w3.org/2000/svg"><path d="M1250 510.9C1250 422.1 1207 352 1124.6 352S992 422.1 992 510.4c0 104.4 59.2 152.7 143.5 152.7 41.5 0 72.5 -9.4 96.1 -22.5v-65.2c-23.6 11.9 -50.7 19.1 -85.1 19.1 -33.8 0 -63.5 -11.9 -67.4 -52.5h169.7c.4 -4.5 1.2 -22.7 1.2 -31.1m-171.7 -32.8c0 -39 24 -55.4 45.7 -55.4 21.3 0 44 16.4 44 55.4h-89.7zM857.8 352c-34 0 -55.8 16 -68 27.1l-4.4 -21.5H709v400l86.7 -18.3 .2 -98.1c12.5 9.2 31.1 21.9 61.3 21.9 62.1 0 118.8 -45.3 118.8 -155.5C976.2 406.8 918.8 352 857.8 352m-20.7 239.2c-20.3 0 -32.4 -7.4 -40.8 -16.4l-.6 -128.9c9 -10 21.5 -17.2 41.4 -17.2 31.7 0 53.5 35.6 53.5 80.9 .2 46.7 -21.3 81.6 -53.5 81.6m-160.5 -349v70.7l-87.1 18.5v-70.7l87.1 -18.5m-87 115.6h87.2V657h-87.2V357.8zm-93.3 25.6c20.3 -37.3 60.7 -29.7 72.5 -25.6v79.7C557.6 434 523 428.7 502.5 455.7V657H416V357.8h75l5.3 25.6M322.5 357.8h65.8v73.8h-65.8v123.5c0 51.2 54.6 35.1 65.8 30.6v66.1c-11.5 6.2 -32.4 11.5 -61 11.5 -51.3 0 -90 -33.2 -90 -84.6l.4 -278.1 84.6 -18 .2 75.2zM87.7 445.9c0 39.1 132.6 20.5 132.6 123.8 0 62.5 -49.6 93.4 -121.7 93.4 -29.8 0 -62.5 -5.9 -94.7 -19.7v-78.2C33 581.1 70.1 593 98.8 593c19.4 0 33.2 -5.3 33.2 -21.3C132 530.3 .2 545.9 .2 449.8c0 -61.3 46.9 -98 117.2 -98 28.7 0 57.4 4.4 86.1 15.8v81.6C177.1 435 143.6 427 117.2 427c-18.2 .1 -29.5 5.4 -29.5 18.9"/></svg>