
  <svg height="1000" width="1000.0" xmlns="http://www.w3.org/2000/svg">
    <path d="m938.1 366.6l8.2 54.7v54.7l-49 86.1-77.8 153.1-109.5 131.9-154.5 73.8-34.6 47.8-15 23.5-18.8 7.8s33.8-124.2 37.9-124.2c4.1 0 39.6 1.3 39.6 1.3l130.3-75.3-180.6 50.9-109.2 71.9-44.6 54.7-12.8 2.7 40.6-143.7 13.5-10.8 40.4 25.2 172.4-88.2 111-100.6 28.9-133.6-244.9 45.5 29.7-35.6-338.7-104.1 159.9-20.5-324.2-240 224.4 35.3-197.8-210.9 493.9 247.3-61.5-74.3 243 145.4-279.9-193.4 36.5 75-96.9-35.4-88.8-164.6 380.1 238.3-83.8-109 210.9 188.3 23.4-17.4-41-32 8.2-73.9 73.9-20.3 57 48.3 22.5 8.2-13.7 12.1 16.6 23.4-25.6 14.5-20.1 39.4z" />
  </svg>
