
  <svg height="1000" width="1000.0" xmlns="http://www.w3.org/2000/svg">
    <path d="m982.2 519.5v136.2c0 121.3-98.2 219.5-219.5 219.5-120.7 0-219.5-97.3-219.5-217.4v-137.1l67 31.3 99.8-29.7v137.9c0 28.7 23.4 51.7 52.1 51.7s52.4-23 52.4-51.7v-140.7h167.7z m-438.8-113.6v-60.4c0-28.7-23.5-52.1-52.2-52.1s-52.1 23.4-52.1 52.1v313.1c0 119.7-99.3 216.4-219.6 216.4-121.3 0-219.5-98.2-219.5-219.3v-136.2h168v134c0 29.1 23.4 52.2 52.1 52.2s52.2-23.1 52.2-52.2v-317.2c0-117.2 100.2-211.3 218.9-211.3 119.2 0 219 94.7 219 212.9v69.5l-99.8 29.7z" />
  </svg>
