<svg height="1000" width="968.8" xmlns="http://www.w3.org/2000/svg"><path d="M500 15.6C232.4 15.6 15.6 232.4 15.6 500S232.4 984.4 500 984.4 984.4 767.6 984.4 500 767.6 15.6 500 15.6zm0 346.7c-19.1 0 -34.8 15.6 -34.8 34.8v208.8c0 79.8 -66.2 144.3 -146.3 144.3 -80.8 0 -146.2 -65.4 -146.2 -146.3v-90.8h111.9v89.4c0 19.6 15.6 34.8 34.7 34.8s34.8 -15.4 34.8 -34.8V390.8C354.1 312.7 420.9 250 500 250c79.5 0 145.9 63.1 145.9 141.8v46.3l-66.6 19.7 -44.7 -20.9v-40.2c.2 -18.8 -15.5 -34.4 -34.6 -34.4zm327.3 241.4c0 80.9 -65.4 146.3 -146.2 146.3C600.6 750 534.8 685.2 534.8 605.1v-91.4l44.7 20.9 66.6 -19.8v92c0 19.2 15.6 34.4 34.8 34.4s34.7 -15.4 34.7 -34.4v-93.7h111.9c-.2 89.6 -.2 90.6 -.2 90.6z"/></svg>