<svg height="1000" width="1000" xmlns="http://www.w3.org/2000/svg"><path d="M982.2 519.5v136.2C982.2 777 884 875.2 762.7 875.2 642 875.2 543.2 777.9 543.2 657.8V520.7l67 31.3L710 522.3v137.9c0 28.7 23.4 51.7 52.1 51.7s52.4 -23 52.4 -51.7V519.5h167.7zM543.4 405.9l67 31.2 99.8 -29.7v-69.5C710.2 219.7 610.4 125 491.2 125c-118.7 0 -218.9 94.1 -218.9 211.3v317.2c0 29.1 -23.5 52.2 -52.2 52.2S168 682.6 168 653.5v-134H0v136.2C0 776.8 98.2 875 219.5 875c120.3 0 219.6 -96.7 219.6 -216.4V345.5c0 -28.7 23.4 -52.1 52.1 -52.1s52.2 23.4 52.2 52.1v60.4z"/></svg>