<svg height="1000" width="1250" xmlns="http://www.w3.org/2000/svg"><path d="M1250 512.7c0 125.2 -212.9 226.8 -475.6 226.8 -48.4 0 -94.9 -3.6 -138.9 -9.8 15.1 .8 30.3 1.2 45.8 1.2 262.6 0 475.5 -111.2 475.5 -248.3 0 -57.4 -37.3 -110.1 -100 -152.3C1174 371.5 1250 437.9 1250 512.7zM93.2 445.1C93 308 305.7 196.5 568.4 195.9c15.4 0 30.4 .4 45.5 1 -44 -6.3 -90.5 -9.6 -138.7 -9.6C212.5 188.1 -.2 290 0 415.2 .2 490 76.4 556.4 193.9 597.5c-63 -42 -100.5 -95 -100.7 -152.4zM210.7 523s20.6 25.8 57.3 25.8c34.9 0 55.4 -22.4 55.4 -49 0 -54.7 -78.5 -49 -78.5 -77.5 0 -10.6 10.4 -17.8 24.4 -17.8 11.2 0 22.1 5.1 22.1 12.9v7.6h27.7v-15.4c0 -23.7 -30 -32.8 -49.6 -32.8 -32.2 0 -55.6 19.9 -55.6 47 0 52 78.5 49.6 78.5 78 0 12.8 -11.3 19.7 -24 19.7 -23.3 0 -40.5 -19.7 -40.5 -19.7L210.7 523zm236 -143.7v106.2c0 22.1 -13.9 34.8 -34.8 34.8s-34.8 -12.7 -34.8 -34.6V379.3h-30.8v107.4c0 36.9 26.2 62.3 65.8 62.3 39.3 0 65.2 -25.4 65.2 -62.3V379.3h-30.6zm67.2 166.8h30.8v-57.6H575c31.3 0 53.1 -22.5 53.1 -54.9S606.3 379.3 575 379.3h-76.4v26.2h15.3v140.6zm30.8 -84v-56.8h25.2c17 0 26.8 11.1 26.8 28.1 0 17.4 -10 28.7 -27.4 28.7h-24.6zm111.4 84h30.8v-57.6h30.3c31.2 0 53.1 -22.5 53.1 -54.9s-21.9 -54.3 -53.1 -54.3h-76.4v26.2h15.3v140.6zm30.6 -84v-56.8h25.2c17 0 26.8 11.1 26.8 28.1 0 17.4 -9.8 28.7 -27.4 28.7h-24.6zm111.5 68c0 11.3 4.7 16 16.1 16h73.4c11.3 0 16 -4.7 16 -16v-25.4h-27.9v10.1c0 3.4 -2 5.1 -5.1 5.1h-36.3c-3.3 0 -5.1 -1.9 -5.1 -5.1V395.3c0 -11.1 -4.7 -16 -16 -16h-30.1v26.2h10.2c3.3 0 5 1.9 5 5v119.6zm123.9 0c0 11.3 4.7 16 16 16h75.6c11.1 0 16 -4.7 16 -16v-25.4h-27.9v10.1c0 3.4 -2 5.1 -5.1 5.1h-38.5c-3.3 0 -5.1 -1.9 -5.1 -5.1v-39.6h54.1V449h-54.1v-43.7h37.5c3.3 0 5.1 1.9 5.1 5.1v10.1h27.7v-25.4c0 -11.1 -4.8 -16 -16 -16H906.6v26.2h15.3v124.8zm115 -148.5v11.6h3.1v-11.6h5.3v-2.3h-13.7v2.3h5.3zm11.1 -2.3v13.9h3V382l4.5 11.2h2.5l4.5 -11.2v11.2h2.9v-13.9h-4.5l-4.1 10 -4.1 -10h-4.7z"/></svg>