
  <svg height="1000" width="875.0" xmlns="http://www.w3.org/2000/svg">
    <path d="m875 304.9c0 10.4 0 20.9 0 31.3v358.9c0 8.8-0.1 17.6-0.4 26.4-0.2 19.7-1.9 38.7-5 57.5-3.3 19.2-9.5 37.8-18 54.7-17.7 34.6-45.7 62.7-80.4 80.4-16.8 8.4-35.4 14.7-54.7 18-18.8 3-37.8 4.8-57.5 5-8.8 0.2-17.6 0.4-26.4 0.4h-390.2c-8.8-0.1-17.6-0.2-26.4-0.4-19.6-0.2-38.6-1.9-57.5-5-19.2-3.3-37.8-9.6-54.7-18-34.6-17.7-62.6-45.8-80.3-80.4-8.5-16.9-14.7-35.5-18-54.7-3.1-18.8-4.8-37.8-5-57.5-0.3-8.8-0.4-17.5-0.4-26.3v-390.3c0-8.9 0.1-17.6 0.4-26.4 0.2-19.7 1.9-38.6 4.9-57.5 3.3-19.2 9.5-37.8 18-54.7 8.9-17.3 20.3-32.9 33.9-46.5 3.4-3.4 7-6.7 10.6-9.8 11-9.4 23-17.4 35.9-24.1 4.4-2.1 8.8-4.2 13.3-6.1 13.1-5.3 27.2-9.4 41.5-11.9 14.1-2.4 28.4-3.9 43.1-4.5 4.8-0.2 9.6-0.4 14.4-0.5 8.8-0.3 17.6-0.4 26.4-0.4h390.1c8.8 0 17.6 0.1 26.4 0.4 19.6 0.2 38.7 1.9 57.5 5 19.2 3.3 37.8 9.5 54.7 18 34.7 17.7 62.7 45.7 80.4 80.4 8.5 16.9 14.7 35.5 18 54.7 3.1 18.8 4.8 37.8 5 57.5 0.2 8.8 0.4 17.6 0.4 26.4z m-136.5 470.7c9.6 18.7 30-80.5-45.2-173 0.9-3.3 1.9-6.6 2.8-10 36.3-144.7-52.3-315.7-202.3-405.7 65.7 89.1 94.8 197 69 291.4-2.3 8.2-5.1 16.5-8.2 24.3-3.4-2.2-7.5-4.7-13.1-7.8 0 0-149.2-92.1-310.9-255.1-4.3-4.3 86.2 129.4 188.9 237.8-48.4-27.1-183.2-125.2-268.5-203.3 10.9 17.9 23.1 34.7 36.7 50.5 71.2 90.3 164.2 201.9 275.5 287.6-78.1 47.8-188.7 51.5-298.8 0-27.1-12.7-52.7-28-76.5-45.7 49 78 120.3 139.5 205.6 176.5 104.2 44.8 207.7 41.8 284.9 0.8l0.8-0.5c3.5-2 6.9-3.9 10.3-5.9 37.2-19.1 110-38 149 38.1z" />
  </svg>
