
  <svg height="1000" width="1000.0" xmlns="http://www.w3.org/2000/svg">
    <path d="m500 15.6c267.6 0 484.4 216.8 484.4 484.4s-216.8 484.4-484.4 484.4-484.4-216.8-484.4-484.4 216.8-484.4 484.4-484.4z m261.2 280.4c30-1.1 38.6-30.2 38.1-45.2-1.2-35.3-38.4-57.5-87.5-56-3.7 0.2-127.5-6.7-200.1 206.2-19.6-16.2-112.8-127.3-216-50.5-37 27.7-61.3 93.6-5.7 155.7 33.1 35.4 52.2 49.4 43.4 77.8-17.8 58.2-108.5 31.5-99.6 2.7 2.7-8.6 6.8-8.7 12.3-25.5 15.1-49.5-53-73.8-67.6-26.6-8.5 27.5 4.6 77.2 74.9 98.9 82.4 25.3 152-19.6 161.9-78 6.3-36.7-10.3-63.9-40.6-98.9l-24.7-27.3c-14.9-15.1-20.1-40.5-4.6-60 13.1-16.5 31.6-23.6 62.1-15.3 44.5 12.1 64.3 42.9 97.4 67.8-2.4 7.8-19.6 63.2-35.6 160.2-23.7 124-41.7 192.1-88.6 231.1-9.5 6.8-23 16.9-43.3 17.6-3.8 0.1-27.6-5.5-4-24.5 29.7-16.3 13.7-67.9-29.1-66.4-19.2 0.6-48.6 18.7-47.5 51.9 1.2 34.3 33.1 60 81.2 58.3 25.8-0.9 83.2-11.3 139.9-78.6 77.8-91.3 92.6-199.6 113.6-315.9 101 11.9 150.9-34.8 151.6-69.7 1.1-47.5-54.7-45.8-62.5-10.4-3.8 17.3 26.2 32.9 2.8 48-16.6 10.7-46.4 18.3-88.2 12.1 20.1-111 37.3-219.8 115-222.3 5.3-0.3 24.7 0.2 25.2 13 0.2 10.6-13.3 18.9-12.8 36.8 0.7 20.4 16.2 33.8 38.6 33z" />
  </svg>
