<svg height="1000" width="999.6" xmlns="http://www.w3.org/2000/svg"><path d="M1.6 464.5C6.2 434.2 22.5 411.7 50.2 398c6.8 -3.6 11 -6.8 12.4 -15.2 12.1 -65.3 38.2 -124.9 76.9 -178.9 4.6 -6.2 7.9 -10.5 2 -18.3 -7.2 -10.4 -2 -19.9 5.9 -28.3C202.2 95.1 268.2 49.7 346.5 25.6c187.2 -57.4 351.8 -18.3 493 118.1 13 12.4 30.3 25.1 13.6 47.6 -2.6 3.6 2 6.8 4.2 9.8 40.4 54.8 66.9 116 78.9 182.9 1.6 7.2 5.9 9.8 11.5 12.4 33.9 17.3 50.2 45.6 50.8 82.6 0 33.5 3.6 67.4 -2 101 -7.9 48.1 -57 81.5 -104 71.6 -14.1 -3.2 -18.3 -14 -18.3 -27.7 0 -54.8 1.6 -110.2 0 -165.2C870.6 310.7 803.5 199.3 674.4 127.8 457.6 9.7 179.9 141.4 131.9 384.6c-11.8 59.4 -3.4 94.3 -7.2 245.7 -.6 14.1 -8.4 21.9 -23.5 22.5C41 655.4 0 617.3 0 557.1v-40.8m433.1 208.6c23.1 -8.4 39.1 -23.1 44 -47.6 4.6 -24.1 -23.5 -58.6 -63.3 -95.2C373 544.6 319.6 505.9 289.9 491.2c-42.3 -23.5 -81.5 -3.6 -90.3 44.4 -9.9 51.2 0 100.4 28.3 144.3 19.9 30.3 49.6 44.4 84.7 47 22.7 1.2 102.6 4.2 120.5 -2m253.6 10.8c71.2 5.5 115.8 -55.7 114 -118C796.5 529.5 671.5 585.5 629.2 602c-142.9 55 -87.9 107.3 -43.3 118.7m291.5 -2.6c-5.8 -4.6 -14.1 -2 -16.3 4.6C845.5 772.3 773.8 942.3 525 960c-292.3 20.5 156.9 85.1 283.9 -12.4 44.4 -34 93 -68.5 91 -166.9 -.6 -19.7 -9.5 -52.2 -22.5 -62.6"/></svg>