
  <svg height="1000" width="1000.0" xmlns="http://www.w3.org/2000/svg">
    <path d="m477 677.3c-4.7 24.4-20.8 39.1-44 47.5-18 6.2-97.8 3.1-120.5 1.9-35.2-2.5-64.8-16.6-84.8-46.8-28.3-44-38.1-93.2-28.3-144.4 9-47.8 48.1-67.7 90.4-44.3 29.7 14.6 83.1 53.5 123.9 91 39.8 36.5 67.9 71.1 63.3 95.1z m400.3 40.6c13.1 10.6 21.9 43 22.7 62.7 2 98.5-46.7 132.9-91 166.8-127.2 97.7-576.4 33-284 12.5 248.8-17.5 320.5-187.7 336.1-237.3 1.4-4 5.2-7 9.7-7 2.5 0 4.8 0.9 6.5 2.3z m121.1-239c0 33.6 3.7 67.6-1.9 101-7.8 48.2-56.9 81.4-103.9 71.6-14.1-3.3-18.4-14-18.4-27.7 0-54.9 1.6-110.1 0-165.2-3.7-148.1-70.7-259.4-199.8-330.9-216.8-117.9-494.5 13.7-542.6 256.9-11.9 59.3-3.3 94.3-7.2 245.7-0.6 14-8.4 21.8-23.4 22.4-60.2 2.7-101.2-35.5-101.2-95.7v-40.8l1.6-51.7c4.6-30.3 20.9-52.8 48.6-66.5 6.8-3.5 11.1-6.8 12.5-15.2 11.9-65.2 38.1-125 76.8-179.1 4.4-6.1 7.8-10.4 1.9-18.2-7.2-10.5-1.9-19.9 5.9-28.3 54.8-62.1 120.9-107.6 199.2-131.6 187.5-57.6 351.7-18.2 492.8 118.1 13 12.6 30.2 25.2 13.6 47.7-2.5 3.5 2.2 6.8 4.3 9.8 39.2 52.8 66.9 115.5 78.9 182.8 1.8 7.2 5.9 9.9 11.6 12.5 33.9 17.2 50.2 45.5 50.7 82.4z m-311.7 256.8l-100.8-15c-44.5-11.5-99.6-63.9 43.4-118.8 42.2-16.6 167.4-72.6 171.5 15.7 1.7 62.5-42.8 123.6-114.1 118.1z" />
  </svg>
