
  <svg height="1000" width="750.0" xmlns="http://www.w3.org/2000/svg">
    <path d="m141.2 968.4c2.7 38.8-53.9 43.3-58 5.6-22.7-253.7 60.7-467.7 198-611.7-30.4-66.4 18-150.6 98.9-150.6 59.2 0 107.6 48.1 107.6 107.6 0 86-96.7 138.3-169.7 88.1-128.4 139.3-198.1 331.7-176.8 561z m233.8-968.2c179.7 0 325.4 145.7 325.4 325.2 0 199.8-182.2 362.3-398.4 317-37.2-9.2-24.5-64.9 12.8-56.9 157.9 40.7 327.6-82.6 327.6-259.9 0-147.5-120.1-267.4-267.4-267.4-197.3 0-328.7 208.2-238.3 389.1 17.6 34.9-34.4 60.1-51.3 26.1-109.4-211.1 43.7-473.2 289.6-473.2z" />
  </svg>
