<svg height="1000" width="750" xmlns="http://www.w3.org/2000/svg"><path d="M141.2 968.4c2.7 38.8 -53.9 43.3 -58 5.6C60.5 720.3 143.9 506.3 281.3 362.3c-30.5 -66.4 17.9 -150.6 98.8 -150.6 59.2 0 107.6 48.1 107.6 107.6 0 86 -96.7 138.3 -169.7 88.1C189.6 546.7 119.9 739.1 141.2 968.4zM375 .2C129.1 .2 -24 262.3 85.4 473.4c16.9 34 68.9 8.8 51.3 -26.1C46.3 266.4 177.7 58.2 375 58.2c147.3 0 267.4 119.9 267.4 267.4 0 177.3 -169.7 300.6 -327.6 259.9 -37.3 -8 -50 47.7 -12.8 56.9 216.2 45.3 398.4 -117.2 398.4 -317C700.4 145.9 554.7 .2 375 .2z"/></svg>