
  <svg height="1000" width="1000.0" xmlns="http://www.w3.org/2000/svg">
    <path d="m953.6 472.1c5.7 7.7 10.2 16.5 13.2 25.9 7.8 21.3 13.7 43.9 17.4 66.8l-4.9 1-25.4-27.9c-35 54.9-19.3 30.1-32.6 49 0 242.6-197.9 413.1-435.6 413.1-120.1 0-222.4-39.5-307.6-117.6-126-118.9-126.7-244.1-126.7-293.9-1-3.5-1.4-6.9-2.4-10.2l-39.4 43.8c-13.3-84 50.2-145.1 64.4-157.6 1-2 1.4-4.3 2.4-6.3l-56.3-2-5.8-6.6c16.6-6.8 49.4-26 78.7-27.9 14.9-28.6 33-54.9 54.3-78.7 2.5-12.5 6.4-27.8 12.9-50.4l-14.9 9.2-3.3-3.4 3.3-16.4c20.9-50.3 52-94.9 91.2-131.6l-64.4-27.9h7.2c40.8-9.6 64.8-6.5 96.1 0-4.9-8-10.6-20.5-16.4-37-2.7-7.3-4.1-15.2-4.1-23.4 0-9.2 1.8-18 5.1-26 17.3 14.5 27.9 48.1 29.6 52.8 1.4-7.1 4.1-41.6 65.9-88.9l3.5 1-23.4 86.3c58.6-34.6 123.1-42.8 191.2-23-24.8 23.8-47.4 56.4-83 64.4 14.5 4.5 56.1 19 66.8 29.7l-48.4-13.9c12.7 11.7 38.2 32.1 49 49.1 46.5 2.1 91.6 11.2 133.6 25.9l-1-0.9c57.4-28.8 73.6-53.4 146.1-5.9 0 59-4.5 45.7 5.9 58.2 15-12.7 31.5-23.5 49.4-32.2 25.4-12.5 45.1-9.2 59.9 11.5 23.1 0 34.8 30.7 36 52.7 28.9 5.7 5.2 60 4.9 60l-13.9 35.5c15.2 15.3 43.2 40.9 61.9 87.5z m-176.3-254.9c-25.5-17.4-44.3-23.3-55.2-16.6 15.8 14 25.4 27.9 26.3 40.4 2.4 14.9-4.3 28.9-20.7 42.8l-8.2 6.6c8.2 13.5 14 28.9 16.4 45.1h4.9c-4.1-27.1-4.9-21.4 1.4-28.9 21.5 12.5 29.1 28.4 31.2 38.9 42.6-19.7 57.7-24.8 107.1-40.8l-35.6 31.2c22.3 0 50-0.5 90.8 16.4 13.7-47.4 13.9-40.4 4.9-40.4l-9.2 22.1c-3.3-20.5-5.6-36.9-6.6-49.4-1-13.1-7.6-18.8-18.2-19.8 0 1 0 1.8 0 2.7 0 9.3 1.2 18.4 3.4 27l-3.4 11.6c-5.6-20.7-11.5-39.5-18.1-54.3-19-34.6-59 17.9-84 22 8.8 0.5 17 0.8 26 0.8 9 0 17.9-0.3 26.7-0.8l-43.7 10.6 6.6 9.2c-10.7 0-33 1.7-43.7-33.6z m-77.3-19.7l-39.6 23c22 14.9 39.4 35.6 54.2 60.9 12.5-5.6 19.8-9.9 23.1-14.8 4.9-5.5 4.9-9.2 5.9-13.9 1.1-2.5 1.5-5.2-6.7-21.6-14.6-23.1-31.6-29.9-36.9-33.6z m-522.3 82c-15.2 47.1-22.8 96.5-25.7 145.7l25.7 9.8 2.4-52.8c18.5 32.1 21.9 45.5 24 56.3 5.5-4.1 15-13.7 44.1-22.1l2.4 3.3-14.9 20.7c19.8-6.8 38.1-6.8 55.3-0.9l-20.7 16.4c44.5 16.4 52 14.8 75 50.9l-23-2.3c68.2 40 128.9 93.5 275.7 123.4 30.5-47 27.4-41.2 27.4-44.7l0.4-0.4-0.4-0.4c-1.4-3.7-27.5-32.4-35.6-40.4 14.3 3.5 11.8 1.8 21.1 7.2 3.4 1.8-10.5-10.5-42.7-39.4 32.2 13.1 53.9 30.2 64.4 54.3l3.3-60-43.7-34.6 12.5-11.5c-14.3 0-60.6-7.2-96.1 31.3l-4.9-1c13.6-28.1 24.3-58.6 31.3-89.9 3.7-17.9 5.7-36.2 5.8-55.2 0-38.1-9.2-75-26.3-110.6-12.5-26.4-32.3-49.4-58.6-69.1-12.9-9.7-26.4-18.5-40.5-26.4 5.9-1.4 2-2.3-10.5-2.3-12.5-0.4-25.4-1.4-37.9-2.4v5.9c-20.1 3.2-37.7 14.1-49.4 29.7h-2.4l-10.5 6.6c-2.4-5.7 0-12.3 8.2-18.2l20.7-22-6.6 1 3.9-6.7c-4.5-0.4-8.2-1-12.1-1.4l-1-2.3 4.9-3.3c4.3 0.4 8.9 1 13.8 1.3 5.7-3 12.2-4.7 19.1-4.7 2.8 0 5.6 0.3 8.3 0.8l4.8 2.4 0.4 1c15.5-1 30.8-3 45.7-5.7 40.5-5.7 71.7-22.1 94.8-48.4l-41.2-1c-50.4-1-96.5 10.5-139.3 36.9l-4.9-4.9 1-9.2 3.3-13.8c3.3-16.7 7.5-33.5 12.5-49.4-3.3 1.3-9 9.5-18.1 22-9.2 12.5-16.5 25.4-19.8 37.9-2.1 10.1-6.1 19.6-11.5 27.9l-26.4-56.6 16.4 69.9-0.9 3.3c0 0-0.1 0-0.1 0-10.9 0-21.3-1.7-31.2-4.8-6.6-1.4-20.7-2.4-40.8-2.4 1 0-1.4 0-6.3 1 10.6 2.5 26.4 8.2 48.5 16.4l12.5-2.3c-8.2 6.6-21.3 19.7-39.5 37.8-18.3 17.4-39.4 51-63.4 98.1l8.2-2.3 19.7-18.2-10.6 9.2 25.4-24.1-4.9 6.7c-9.9 14.8-15.8 24-18.1 29.7z m540.1 644.5c16.2-78.7 7-107.8-1.4-174.8-69.3 23.1-39.6 11.7-62.5 21.1l20.5 27.7-2.3 2.4c-39.5-11.7-45.3-21.1-54.3-29.3 11.7 43.4 27.1 51.6 57.6 61.9-18.6 18.8-49.6-7.8-67.2-25.4l4.9 46.1-8.2 5.9c-9.8-43.2-43-76.4-49.4-76.4-86 25.4-154.5 11.3-222.5-20.7-3.1 0.8-137.9 35.2-235.3-72.5 26.7 68.4 63 124.5 139.2 161.4-9.7-20.2-23.4-37.8-40.4-52 0 0 1.4-7.2 2.3-19.7 37.9 37.9 99.1 77.1 182.1 117.6-116.4-47.9-117-48.5-135-56.7l31.3 40.5c-5.9 2.5-13.1 0.9-19.8-2.4-24.5-14.3-47.4-30.4-69.1-48.4 3.7 4.3 156.4 192.4 392.4 145.1-84.2-42.6-102.4-102.4-130.1-143.6l34.6 14.9-23.1-45.1c39.3 54.3 55.9 68.3 75 86.5l-58.6-32.2c24.6 52.9 65.8 91.8 124 114.8 5.7-2.9 17.8 2.2 115.3-46.7z m225.2-418.7l17.4 25-24-63.5c21.3 0 19.5 0.2 41.4 6.6-16-22.4-33.4-43-52.7-62.5l-52-45.1 2.4-5.8 46-4.9c-20.8-4.6-42.4-7.4-64.4-8.2l-34.6 1-1-5.7 28.9-25.4-81.6 39.5-24-37 6.6 31.3-4.9 2.3-11.5-8.2h-19.7l10.5 8.2v3.9l-26.3 54.3c-19.8 61-42.8 132.7-69.2 214.3l2.4-31.3-2.4 5.9v1c-12.5 31.2-26.5 57.6-41.4 77.3l18.2-42.8-91.2 39.5c23-26.4 46.1-37.9 68.1-36.9-139-22.3-207.4-80.1-215.6-89.9 7.1 12.2 25.8 34.8 31.3 78.4l-3.4 2.3c-8.3-30.5-32-91-108.9-135.9l46.1 4.9c-20.5-24.7-70.9-34.8-79.7-31.3l-4.9-4.9 16.4-16.4-43.6 11.3 10.6-26.3c-15.8 8.6-8.4 4.7-33.2 17.4l-3.3-1c1.1-1.2 1.7 1.3-5.9-18.2-1.2 21.5-0.8 16.8-1.9 23.1-2.6 0.8-5 1.9-7.3 3.3-78.1-40.3-111.7-21.5-142.6-10.2 71.9 11.7 57.3 7.8 75 18.2-50.3 23.8-62.3 24.6-100.3 136.9l43.5-43.6 4.8 32.1c26.2 113.3 134.2 180.6 246.9 162.9l-51-43.8 87.5 43.8-2.3 5.8c9 3.4 18.2 5.9 26.4 8.2 37.7 11.2 77.2 17.3 118.6 17.3 21.6 0 42.7-1.6 63.4-4.8l-63.5-41.4c69.9 13.7 99 61.4 110.9 77.4l-14.8-56.7 2.3-4.9 37.2 54.5-18.2-51.9 42.8 26.4h2.3l-6.6-8.2 13.8 9.1-27.9-31.2 2.4-5.9 14.8 13.9c8.4-2.4 80.9-20.5 158-78.7 93.6-69.2 133-144.2 139.8-155.7l-5.8-18.2z m-11.9-139.3l-35.6 2.4 27.9 23z m-497.7 13.9c5.3 9.9 11.1 24.2 35.9 36.7-14.6 21.3-16.2 20.5-39.4 31.3-14.9 15-26.4 25.5-34.6 28.9l13.9-25.4c-10.5 3.8-21.8 6-33.7 6-5 0-9.9-0.4-14.8-1.2l-0.9-2.3c37.1-4.1 72.6-18.4 90.8-31.2-8-8.2-13.9-22.1-17.2-42.8z m7.2-199.8c11.5 6.5 21.1 15.7 28 26.9 28.7 47.1 37.5 78.4 22 93.2-15.4 14.8-32.8 13.9-51-5.9-18.1-19.7-26.3-46.3-23-77.3 3.3-31.1 11.5-43.6 24-36.9z m-9.2 90.4c13.9 41.6 65.3 45.1 52.6-9.6-7.6-32.2-17.2-52.9-29.7-63.4-12.9-10.6-19.7-13.1-22.1-8.2-4.9 5.6-6.8 22-5.8 48.4 14.6-25 22.6-11.5 24.4-9.2l-1 1c-1.6 3.3-5.1 6 3.3 12.1l2.4-1v9.2c-3.5 24.4-13.5 25-24.1 20.7z m-87.8-10.7c-4.8-0.9-8.6-4-10.6-8.2-6.8-16.6 0-41.4 15.8-41.4 3.9 0.9 7.3 3.3 10.6 9.1-3 0.8-9.2 9.4 1.3 11.6h1c0 26.7-15 29.5-18.1 28.9z m78.3-97.9l-7.3-4.7-0.9-4.9c35.7 0 50.4 17.2 55.2 28-13.5-7.4-29.1-11.7-45.6-11.7-1.8 0-3.6 0.1-5.3 0.1l-1-5.8z m-140.3 96.5c3.2 3.1 1.2 0.6 9.6 12.9-49.6 9.2-45.3 24-58.6 24 0.6-1.2 13.9-31.2 46.1-31.2l-13.9-14.9c18.4-1 29.7-4.1 38.9 11.5 0.1-15.9 2-31.3 5.7-46.1 3.9-14.8 7.2-23 10.5-26.3 2-2.9 31.9-30.7 56.7-43.8 4.5-3.3 10.2-5.2 16.2-5.2 3.6 0 7 0.7 10.1 1.9 0.7 0.8 1 1.7 1 2.8 0 0.2 0 0.4 0 0.5l-25.4 14.9c14.9 23 20.5 49.4 17.2 80.6-2.2 22.1-12.9 41.7-28.9 55.3l5.7 9.2c-58.6-4.3-48.5-13.3-90.9-46.1z m36.6-36.5c-3.6 14-4.5 31.2-6.1 50.8l10.6 12.5 13.8 6.6c4.7 0.9 9.4 1.4 14.3 1.4 2.7 0 5.2-0.2 7.8-0.4 1.9-3.3 6.8-8.2 12.5-14.9 9.8-11.5 15.4-26.9 16.4-45.1 0.2-2.8 0.2-5.5 0.2-8.4 0-14.2-2.1-28-6.1-41-5.8-15.8-11.5-21.5-19.7-18.2-10.5 3.4-20.7 10.6-31.2 23.1-5.9 8.2-10.2 18.7-12.5 33.6z m82 109.5l-6.1 12.7c13.9-8.2 26.4-14 37.9-16.4l13.9-0.9 23 14.8h-4.8c-17.2-7.2-37.9-2.3-60 14.8-1 9.2 3.3 28.8 11.5 57.7l18-1c-42.8 12.9-73.4 16.4-95.5 10.5-48.6-13.1-53.5-46.1-53.7-47-3.4-13.1-5.3-26.7-5.3-40.8 0-8.5 0.7-16.9 2-25.1-12.5 1-21.5 8.2-29.7 20.7-5.7-11.5-10.6-17.1-11.6-18.1 3-1.4 24.1-14.7 63.5-9.6l1 4.9-11.5 2.3c-0.2 0.8-3.7 57.7 36.9 48.5 2.7-0.6 2.5 0.2 70.5-28z" />
  </svg>
