
  <svg height="1000" width="875.0" xmlns="http://www.w3.org/2000/svg">
    <path d="m396.3 16.5c19.3-11.2 50.8-11.4 70.2-0.4l373.3 210.2c19.6 10.9 35.2 37.9 35.2 60.2v424.4c0 22.4-15.7 49.4-35.2 60.6l-373.4 212.4c-19.4 11-50.8 10.8-70-0.4l-361.5-211.8c-19.3-11.3-34.9-38.5-34.9-60.8v-424.4c0-22.3 15.6-49.5 35-60.7z m-151.2 390.3c-31.1 0-62.3 0.2-93.4 0.2v198.2h37.4v-58.3h56c97.1 0 96.8-140.1 0-140.1z m273.7 195.8l-60-67.6c72.3-14.7 68-127.4-21.2-128-31.4 0-62.9-0.2-94.3-0.2v198.4h37.4v-66.3h35.9l57.8 66.3h44.4v-2.6z m-81.2-160.7c45.6 0 45.4 63.4 0 63.4h-56.9v-63.4h56.9z m-186.6-3.2c41.3 0 41.2 75.9 0 75.9h-63.1v-75.9z m376.2-35.6c-133.7 0-138.6 206.6 0 206.6 135.7 0 135.6-206.6 0-206.6z m0 34c86.2 0 87.5 138.4 0 138.4-87.5 0-86.8-138.4 0-138.4z" />
  </svg>
