<svg height="1000" width="861.4" xmlns="http://www.w3.org/2000/svg"><path d="M390.1 24c19 -11 50 -11.2 69.1 -.4l367.5 206.9c19.1 10.8 34.7 37.4 34.7 59.4v417.7c0 22 -15.5 48.6 -34.6 59.5L459.2 976.3c-19.1 10.9 -50 10.7 -69 -.4L34.3 767.5C15.4 756.4 0 729.5 0 707.6V289.9c0 -22 15.4 -48.8 34.4 -59.8L390.1 24zM241.3 408.2c-30.7 0 -61.3 .3 -92 .3v195h36.8v-57.4h55.2c95.6 0 95.3 -137.9 0 -137.9zM510.7 601l-59 -66.6C522.8 520 518.6 409 430.8 408.5c-31 0 -61.9 -.3 -92.8 -.3v195.3h36.7v-65.2h35.5l56.8 65.2h43.7V601zM430.8 442.8c44.9 0 44.7 62.4 0 62.4h-56v-62.4h56zm-183.7 -3.1c40.7 0 40.5 74.7 0 74.7h-62.2v-74.7h62.2zm370.4 -35.1c-131.7 0 -136.5 203.4 0 203.4 133.5 0 133.4 -203.4 0 -203.4zm0 33.4c84.8 0 86.1 136.3 0 136.3 -86.2 0 -85.5 -136.3 0 -136.3z"/></svg>