
  <svg height="1000" width="875.0" xmlns="http://www.w3.org/2000/svg">
    <path d="m875 410h-1c-88.9 0-171.6-28.6-238.8-76.7v349.1c0 175.1-142.3 317.3-317.5 317.3-175.2 0-317.4-142.2-317.4-317.4s142.2-317.5 317.4-317.5c14.9 0 29.3 1 43.6 3v175.6c-13.8-4.4-28.5-6.7-43.7-6.7-80.4 0-145.7 65.3-145.7 145.7 0 80.5 65.3 145.8 145.7 145.8 80.4 0 145.7-65.4 145.7-145.8v-682.4h171.9c0 0.7 0 1.3 0 2 0 14.2 1.3 27.8 3.6 41.3v0c12.3 65.6 51.2 121.8 105.3 156.7 37.5 24.7 82.4 39.2 130.6 39.2 0 0 0.3 0.1 0.3 0.1v170.7z" />
  </svg>
