<svg height="1000" width="968.8" xmlns="http://www.w3.org/2000/svg"><path d="M395.4 211.8v159.4H76.1l94.1 120.9h224.1v384.2h126.2V494.1h162.6V371.6H520.7v-37.4h284.4V211.8H395.4zm9.5 11.7h386.3v99H506.7v60.4h162.5v99.4H506.6v382.3h-103V480.4H175.5l-78 -97.5h307.4V223.5zM484.4 17.2C216.9 17.2 0 234 0 501.6s216.9 484.3 484.4 484.3S968.8 769.1 968.8 501.6 751.9 17.2 484.4 17.2zm0 25.8c253.2 0 458.5 205.4 458.5 458.6S737.6 960.1 484.4 960.1 25.8 754.8 25.8 501.6 231.2 43 484.4 43zm0 15.5C239.7 58.5 41.3 256.8 41.3 501.6s198.4 443.1 443.1 443.1S927.5 746.3 927.5 501.6 729.1 58.5 484.4 58.5zm0 25.9c230.3 0 417.1 186.8 417.1 417.1S714.7 918.7 484.4 918.7 67.2 731.9 67.2 501.6 254 84.4 484.4 84.4zM341.2 289.1l30.5 35.3 -43.2 -18.5 -24.1 40 4.2 -46.9 -45.5 -10.5L309 278l-4.1 -46.5 24.2 40.4 43 -18.2 -30.9 35.4zm-92.1 -90.9l15.6 24.2L289.5 211l-18.2 22.4 18.6 20L263 243l-13.4 23.8 1.6 -28.8 -26.7 -5.3 27.8 -7.3 -3.2 -27.2zm489.8 147.7l23.4 38.2 40.8 -17.8L774 400.4l29.5 33.2 -41.4 -17.1 -22.6 38.3 3.5 -44.6 -43.4 -9.6 43.6 -10.5 -4.3 -44.2zM529.8 538.1l27.1 -6.2 -2.5 -27.7 14.3 23.8 25.6 -10.9L576.1 538l18.3 21 -25.6 -10.9L554.5 572l2.4 -27.7 -27.1 -6.2zm-245 12.7l46.4 -7.5 -3.4 -47.9 21.5 41.7 44.5 -18 -33.1 33.4 30.9 36.8 -41.9 -21.2 -25.5 40.8 7.2 -46.5 -46.6 -11.6zM408.7 227.3v159.4H105.8l71.7 89.8h229.9v384.3h95.3V478.5h162.7v-91.8H502.7v-68h284.7v-91.4H408.7zm21.2 21.9h335.6v47.5H482.2v109.9h162v46.7h-162v385.6h-52.3V453.3H188.1l-39.2 -46.7h281V249.2z"/></svg>