
  <svg height="1000" width="968.8" xmlns="http://www.w3.org/2000/svg">
    <path d="m484.4 17.2c267.6 0 484.4 216.8 484.4 484.4s-216.8 484.3-484.4 484.3-484.4-216.8-484.4-484.3 216.8-484.4 484.4-484.4z m0 943c253.3 0 458.6-205.3 458.6-458.6s-205.3-458.6-458.6-458.6-458.6 205.2-458.6 458.6 205.3 458.6 458.6 458.6z m302.9-641.6v0.2h-284.6v67.9h162.7v91.8h-162.7v382.4h-95.3v-384.3h-229.9l-71.6-89.9h302.9v-159.6h378.5v91.5z m-143.2 88h-161.9v-109.7h283.2v-47.7h-335.5v157.4h-281.1l39.3 46.7h241.8v385.6h52.3v-385.6h161.9v-46.7z m-315-134.7l43-18.2-30.9 35.4 30.7 35.3-43.4-18.5-24 40 4.1-46.9-45.5-10.5 45.9-10.6-4.1-46.5z m-57.8-38.5l18.5 19.9-26.9-10.3-13.3 23.8 1.6-28.7-26.8-5.3 27.9-7.4-3.3-27.2 15.6 24.3 24.9-11.6z m323 283.6l-18.1 21.1 18.3 20.9-25.6-10.8-14.2 23.9 2.3-27.8-27.1-6.2 27.1-6.3-2.5-27.7 14.3 23.8z m208.8-150.8l-29.3 34.4 29.5 33.2-41.4-17.2-22.4 38.3 3.5-44.7-43.4-9.6 43.6-10.6-4.3-44.3 23.4 38.3z m-318.7-307.8c244.7 0 443.1 198.4 443.1 443.2s-198.4 443.1-443.1 443.1-443.2-198.4-443.2-443.1 198.5-443.2 443.2-443.2z m184.7 324.4h-162.5v-60.3h284.6v-99.1h-386.3v159.4h-307.4l78.1 97.5h227.9v384.3h102.9v-382.2h162.7v-99.6z m-184.7-298.4c-184.8 0-341.6 120.3-396.3 286.7h307.4v-159.4h388.9c-75.8-78.5-182.3-127.3-300-127.3z m0 834.2c230.2 0 417-186.8 416.8-417 0-101.4-36.2-194.4-96.3-266.6v99.2h-284.4v37.5h162.5v122.4h-162.7v382.5h-126.2v-384.4h-224l-85.5-110c-11.4 37.7-17.4 78-17.4 119.4 0 230.2 186.9 417 417.2 417z m-135.2-381.5l44.4-18.2-33.1 33.4 30.9 36.8-42-21.1-25.4 40.8 7.2-46.5-46.4-11.5 46.3-7.6-3.4-47.9z" />
  </svg>
