<svg height="1000" width="875" xmlns="http://www.w3.org/2000/svg"><path d="M765.6 62.5H109.4C49 62.5 0 111.5 0 171.9v656.2c0 60.4 49 109.4 109.4 109.4h656.2c60.4 0 109.4 -49 109.4 -109.4V171.9C875 111.5 826 62.5 765.6 62.5zM380.7 725.4c0 28.9 -23.5 52.5 -52.6 52.5H166.2c-28.9 0 -52.5 -23.4 -52.5 -52.5V228.7c0 -28.9 23.4 -52.5 52.5 -52.5h161.9c28.9 0 52.6 23.4 52.6 52.5v496.7zM761.3 506.6c0 28.9 -23.4 52.6 -52.5 52.6H546.9c-28.9 0 -52.6 -23.5 -52.6 -52.6V228.7c0 -28.9 23.5 -52.5 52.6 -52.5h161.9c28.9 0 52.5 23.4 52.5 52.5v277.9z"/></svg>