
  <svg height="1000" width="875.0" xmlns="http://www.w3.org/2000/svg">
    <path d="m766.2 62.5c60.2 0.4 108.8 49.2 108.6 109.4v656.2c0 60.2-48.6 109-108.8 109.4h-656.6c-60.4 0-109.4-49-109.4-109.4 0-664-0.2-656.2 0-656.2 0-60.4 49-109.4 109.6-109.4h656.6z m-381.4 662.7h0.2v-496.5c0-29.1-23.7-52.5-52.6-52.5h-161.9c-29.1 0-52.5 23.6-52.5 52.5v496.5c0.2 28.9 23.8 52.1 52.7 51.9h161.5c28.9 0 52.2-23.2 52.6-51.9z m377.1-218.8v-277.5c0-29.1-23.6-52.5-52.5-52.5h-158.4c-28.9 0-52.4 23.6-52.4 52.5v277.5c0 29.1 23.7 52.6 52.6 52.6h158.2c29.1 0 52.5-23.6 52.5-52.6z" />
  </svg>
