
  <svg height="1000" width="1125.0" xmlns="http://www.w3.org/2000/svg">
    <path d="m1033 349.3c56.4 51.3 91.7 125.2 91.7 207.3 0 0.2 0 0.3 0 0.4h0.1c0 155.2-126.1 281.1-281.3 281.1-73.7 0-140.8-28.4-190.9-74.9l-90.1 98-90.1-98.1c-50 45.8-116.8 73.8-189.9 73.8-155.2 0-281.1-125.9-281.1-281 0-81.7 34.9-155.3 90.6-206.6l-92-100.1h204.4c102-69.5 226.5-110.1 359-110.1s255.8 40.6 357.8 110.1h203.8z m-751.6 397.9c104.9 0 190.2-85.2 190.2-190.2s-85.3-190.2-190.2-190.2-190.2 85.2-190.2 190.2 85.2 190.2 190.2 190.2z m281.1-195.7c0-125.2 91-232.6 211.1-278.5-64.9-27-136.8-42-211.5-42-74.6 0-145.8 15-210.7 42 120 45.9 211.1 153.3 211.1 278.5z m281 195.7c105 0 190.3-85.2 190.3-190.2 0-105-85.3-190.3-190.3-190.3-105 0-190.2 85.3-190.2 190.3 0 105 85.2 190.2 190.2 190.2h0z m-562.1-289.9c0 0 0 0 0.1 0 54.9 0 99.5 44.5 99.6 99.5v0.2c0 55-44.7 99.7-99.8 99.7s-99.7-44.7-99.7-99.7 44.7-99.7 99.7-99.7h0.1z m562.1 0c55.1 0 99.7 44.7 99.7 99.7s-44.6 99.7-99.7 99.7-99.7-44.7-99.7-99.7 44.7-99.7 99.7-99.7z" />
  </svg>
