
  <svg height="1000" width="875.0" xmlns="http://www.w3.org/2000/svg">
    <path d="m781.3 62.5c51.7 0 93.7 42 93.7 93.8v687.5c0 51.7-42 93.7-93.7 93.7h-687.5c-51.8 0-93.8-42-93.8-93.7v-687.5c0-51.8 42-93.8 93.8-93.8h687.5z m-160.8 711.3c4.5-4.7 2.5-11.5 0.6-17.7l-27-78.6c-1.9-5.4-4.6-8.6-8.9-9.5-4.7-1.2-9.8 0.4-15.7 2.7-54.1 21.7-83-1.9-83-43.7v-162.7h101.8c6.6 0 12.1-5.5 12.1-12.2v-99.8c0-6.6-5.5-12.1-12.1-12.1h-101.4v-140.6c0-6.6-5.5-12.1-12.1-12.1h-86.5c-11.5 0-18.6 6.4-19.6 19.9-3.5 50.2-27.1 116.2-102.9 143-8.4 2.9-13.8 10.7-13.8 19.5v83c0 6.7 5.4 12.1 12.1 12.1h58v175.8c0 63.3 32 171.7 179.5 171.7 58 0 102.3-20.9 118.9-38.7z" />
  </svg>
