<svg height="1000" width="875" xmlns="http://www.w3.org/2000/svg"><path d="M781.3 62.5H93.8C42 62.5 0 104.5 0 156.3v687.5c0 51.7 42 93.7 93.8 93.7h687.5c51.7 0 93.7 -42 93.7 -93.7V156.3c0 -51.8 -42 -93.8 -93.7 -93.8zM620.5 773.8c-16.6 17.8 -60.9 38.7 -118.9 38.7C354.1 812.5 322.1 704.1 322.1 640.8V465h-58c-6.7 0 -12.1 -5.4 -12.1 -12.1v-83c0 -8.8 5.4 -16.6 13.8 -19.5 75.8 -26.8 99.4 -92.8 103 -143 .9 -13.5 8 -19.9 19.5 -19.9h86.5c6.6 0 12.1 5.5 12.1 12.1v140.6h101.4c6.6 0 12.1 5.5 12.1 12.1v99.8c0 6.7 -5.5 12.2 -12.1 12.2H486.5V627c0 41.8 28.9 65.4 83 43.7 5.9 -2.3 11 -3.9 15.7 -2.7 4.3 .9 7 4.1 8.9 9.5l27 78.6c1.9 6.2 3.9 13 -.6 17.7z"/></svg>