
  <svg height="1000" width="625.0" xmlns="http://www.w3.org/2000/svg">
    <path d="m605.1 938.1c-26.6 28.3-97.7 61.9-190.3 61.9-235.9 0-287.1-173.4-287.1-274.6v-281.3h-92.7c-10.8 0-19.6-8.7-19.6-19.5v-132.8c0-14.1 8.8-26.6 22.1-31.3 121.1-42.5 159.2-148.4 164.6-228.7 1.6-21.5 12.7-31.8 31.5-31.8h138.5c10.7 0 19.5 8.8 19.5 19.5v225h162.1c10.8 0 19.5 8.6 19.5 19.4v159.5c0 10.8-8.7 19.6-19.5 19.6h-162.9v260.1c0 66.8 46.3 104.7 132.8 69.9 9.4-3.7 17.6-6.2 24.8-4.3 6.9 1.8 11.4 6.7 14.5 15.5l43 125.6c3.5 9.7 6.4 20.7-0.8 28.3z" />
  </svg>
