<svg height="1000" width="875" xmlns="http://www.w3.org/2000/svg"><path d="M781.3 62.5H93.8C42 62.5 0 104.5 0 156.3v687.5c0 51.7 42 93.7 93.8 93.7h687.5c51.7 0 93.7 -42 93.7 -93.7V156.3c0 -51.8 -42 -93.8 -93.7 -93.8zm-95.6 310.2c.4 5.4 .4 11.1 .4 16.6 0 169.3 -128.9 364.4 -364.4 364.4C249 753.7 181.6 732.6 125 696.3c10.4 1.2 20.3 1.6 30.9 1.6 59.9 0 115 -20.4 158.9 -54.7C258.6 642 211.3 605.1 195.1 554.3c19.7 2.9 37.5 2.9 57.8 -2.3C194.3 540 150.4 488.5 150.4 426.2v-1.6c17 9.6 36.9 15.4 57.8 16.2a127.8 -127.8 0 0 0 -57 -106.6c0 -23.8 6.2 -45.7 17.4 -64.7 63 77.8 157.8 128.5 264 134 -18.1 -86.9 46.9 -157.4 125 -157.4 36.9 0 70.1 15.4 93.6 40.4 28.9 -5.4 56.6 -16.2 81.2 -30.8 -9.5 29.7 -29.7 54.7 -56.2 70.5 25.8 -2.8 50.8 -10 73.8 -19.9 -17.4 25.5 -39.3 48.2 -64.3 66.4z"/></svg>