
  <svg height="1000" width="875.0" xmlns="http://www.w3.org/2000/svg">
    <path d="m808.8 62.5c36.5 0 66.2 29.7 66 66.2v742.6c0 36.5-29.7 66.2-66.2 66.2h-742.4c-36.5 0-66.2-29.7-66.2-66.4v-742.4c0-36.5 29.7-66.2 66.2-66.2h742.6z m-344.7 701.4c145.7-14.7 251.9-144.8 237.3-290.3-13.7-135.5-127.8-238.6-263.9-238.6s-250.2 103.1-263.9 238.6h184.4v-39.8c0-7.4 6.1-13.3 13.3-13.3h132.6c7.4 0 13.3 6.1 13.3 13.3v132.6c0 7.4-6.1 13.3-13.3 13.3h-132.6c-7.4 0-13.3-6.1-13.3-13.3v-39.8h-184.4c14.7 145.7 144.8 251.9 290.5 237.3z" />
  </svg>
