<svg height="1000" width="875" xmlns="http://www.w3.org/2000/svg"><path d="M808.8 62.5H66.2C29.7 62.5 0 92.2 0 128.7v742.4c0 36.7 29.7 66.4 66.2 66.4h742.4c36.5 0 66.2 -29.7 66.2 -66.2V128.7c.2 -36.5 -29.5 -66.2 -66 -66.2zM464.1 763.9C318.4 778.5 188.3 672.3 173.6 526.6H358v39.8c0 7.2 5.9 13.3 13.3 13.3h132.6c7.2 0 13.3 -5.9 13.3 -13.3V433.8c0 -7.2 -5.9 -13.3 -13.3 -13.3H371.3c-7.2 0 -13.3 5.9 -13.3 13.3v39.8H173.6C187.3 338.1 301.4 235 437.5 235c136.1 0 250.2 103.1 263.9 238.6C716 619.1 609.8 749.2 464.1 763.9z"/></svg>