
  <svg height="1000" width="968.8" xmlns="http://www.w3.org/2000/svg">
    <path d="m484.4 15.6c267.6 0 484.4 216.8 484.4 484.4s-216.8 484.4-484.4 484.4-484.4-216.8-484.4-484.4 216.8-484.4 484.4-484.4z m102.9 181.7c-17.2 29.7-7 67.7 22.9 85.1 29.6 17.2 67.7 6.9 84.9-22.8 17.2-29.9 7-68-22.8-85.2-29.7-17.2-67.8-6.8-85 22.9z m-416.6 365c34.4 0 62.3-27.9 62.3-62.3s-27.9-62.3-62.3-62.3c-34.4 0-62.3 27.9-62.3 62.3s27.9 62.3 62.3 62.3z m54.9 6.1c17 63.8 56.8 118.5 110.3 154.3l46.3-77.4c-100.6-70.9-100.6-219.7 0-290.6l-46.3-77.4c-53.5 36-93.5 90.5-110.3 154.5 43.7 35.2 43.5 101.6 0 136.6z m446.7 257.2c29.8-17.2 40-55.3 22.8-85.2-17.2-29.9-55.3-40-84.9-22.8-29.9 17.2-40.1 55.3-22.9 85.1s55.1 40.1 85 22.9z m0.6-135.8c44.9-44.7 74.2-105.2 78.7-172.6l-90.1-1.4c-10.7 122.5-140.4 197.1-251.7 145.3l-44 78.7c93.4 46.3 178.7 21.1 188.9 18.4 8.6-55.5 66-88.5 118.2-68.4z m-11.6-205.6l89.9-1.2c-4.3-67.6-33.4-128.1-78.5-172.8-52.2 20.1-109.6-13.1-118.2-68.4-10.2-2.7-95.3-27.9-188.9 18.4l44 78.7c112.5-52.4 241.2 24.2 251.7 145.3z" />
  </svg>
