
  <svg height="1000" width="996.1" xmlns="http://www.w3.org/2000/svg">
    <path d="m498.7 15.6c267.6 0.4 484.1 217.4 483.7 484.9-0.3 267.6-217.1 483.8-484.4 483.8-267.5-0.2-484.5-217.3-484.3-484.9 0.2-267.5 217.5-484.1 485-483.8z m283.2 519.6c0.7-10.3 1.1-19.8 1.1-30.2 0-10.1-0.4-20-1-29.9-0.9-29.1-3.2-57.4-7.1-85.7-3.6-25.8-6.9-43.7-10.5-62.5-2-9.5-2.5-12.5-3.6-16.5-1-4.3-4.9-7.6-9.5-7.6h0-1.7l-62.5 9.8c-4.6 0.8-8.2 4.8-8.2 9.6 0 0.1 0 0.1 0 0.2 0 0.2 0 0.5 0 0.7 0 0.3 0 0.5 0 0.8l3.3 17.1c3.2 17.3 6.4 39.3 9.6 65.8 3.2 27.3 4.9 54.3 5.1 82.3 0.5 52.6-4.8 91.5-15.9 116.8-11 24.9-33.6 43.6-60.8 49.3-31.8 6.7-64.2 10.2-98 10.2-4.6 0-9.3 0-13.9-0.2h-20c-4.7 0.2-8.9 0.2-13.6 0.2-33.7 0-66.7-3.5-98.4-10.2-27.4-5.6-50.1-24.2-61.2-49.2-10.9-25.2-16.2-64.2-15.8-116.8 0.2-28.1 1.9-55.1 5.1-82.4 3.2-26.6 6.3-48.5 9.5-65.7l3.3-17.2c0-0.2 0-0.5 0-0.7 0-0.3 0-0.5 0-0.8 0 0 0 0 0 0 0-4.9-3.5-8.9-8.1-9.8l-62.5-9.7h-1.4c-4.6 0-8.5 3.2-9.6 7.6-1 3.9-1.6 6.9-3.5 16.5-3.6 18.4-6.9 36.3-10.6 62.5-3.8 28.3-6.1 56.6-7 85.7-0.7 10-1 19.4-1 29.6s0.3 20.3 1 30.4c1.5 52.9 10.6 95.2 27.4 126.9 16.7 31.7 45 54.5 85 68.4 39.9 13.9 95.5 20.7 166.8 20.4h9c71.4 0.3 127.1-6.5 166.9-20.4 39.9-13.9 68.2-36.7 85-68.4s25.8-74 27.3-126.9z" />
  </svg>
