<svg height="1000" width="750" xmlns="http://www.w3.org/2000/svg"><path d="M549 429.9h201V401H549v28.9zm0 -72.5h201v-24.2H549v24.2zm0 144.9h201v-33.7H549v33.7zM241 671.7H16.6c5.1 16.6 11.3 32.8 18.8 48.4h270.1C280.3 709 258.4 692.4 241 671.7m284.6 -24.2h214.2c3.6 -14.3 6.1 -28.7 7.7 -43.6H543.6c-4.1 15.4 -10.2 30.1 -18 43.6m-81.1 72.4h272.3c7.2 -15.6 11.3 -31.6 16.6 -48.4H508.8c-17.2 20.9 -39.3 37.5 -64.3 48.4M750 62.5H549v4.9h201v-4.9zm-375 875c77.1 0 148.8 -23 208.6 -62.9h-417c59.6 39.9 131.3 62.9 208.4 62.9M549 284.8h201v-19.2H549v19.2zm0 -72.5h201v-14.4H549v14.4zm0 -72.5h201v-9.5H549v9.5zM201 333.2H0v24.2h201v-24.2zM75.8 792.4h596.3c13.1 -16.6 24.6 -34.4 34.7 -53.1H44.9c10.2 18.7 18 36.5 30.9 53.1M201 560.4v-24.3H0v24.3c0 4.8 0 9.7 .2 14.4h201.4c-.4 -4.7 -.6 -9.6 -.6 -14.4m348 0c0 4.8 -.2 9.7 -.8 14.4h201.4c.2 -4.9 .4 -9.6 .4 -14.4v-24.3H549v24.3zM152.5 865h444.8c23 -17 44.3 -36.3 62.9 -58H87.7c18.7 21.5 41.8 41 64.8 58M201 130.3H0v9.5h201v-9.5zm0 -67.8H0v4.9h201v-4.9zm0 338.5H0v28.9h201V401zm0 67.6H0v33.7h201v-33.7zm0 -203H0V285h201v-19.4zm0 -67.7H0v14.4h201v-14.4zm5.4 406H2.5c1.8 14.9 4.3 29.3 7.7 43.6h214.2c-7.8 -13.5 -14 -28.2 -18 -43.6"/></svg>