
  <svg height="1000" width="750.0" xmlns="http://www.w3.org/2000/svg">
    <path d="m375 937.5c-77.1 0-148.8-23-208.4-62.9h417c-59.8 39.9-131.5 62.9-208.6 62.9z m-174-377.1c0 4.8 0.2 9.7 0.6 14.4h-201.4c-0.2-4.7-0.2-9.6-0.2-14.4v-24.3h201v24.3z m40 111.3c17.4 20.7 39.3 37.3 64.5 48.4h-270.2c-7.4-15.6-13.6-31.8-18.7-48.4h224.4z m-34.6-67.8c4 15.4 10.2 30.1 18 43.6h-214.2c-3.4-14.3-5.9-28.8-7.7-43.6h203.9z m-5.4-135.3v33.7h-201v-33.7h201z m0-338.3v9.5h-201v-9.5h201z m0-67.8v4.9h-201v-4.9h201z m0 135.4v14.4h-201v-14.4h201z m0 203.1v28.9h-201v-28.9h201z m0-135.4v19.4h-201v-19.4h201z m0 67.6v24.2h-201v-24.2h201z m324.6 314.3c7.8-13.5 13.9-28.2 18-43.6h203.9c-1.6 14.8-4.1 29.3-7.7 43.6h-214.2z m23.4-362.7v-19.2h201v19.2h-201z m0 72.6v-24.2h201v24.2h-201z m0-145.1v-14.4h201v14.4h-201z m0-149.8h201v4.9h-201v-4.9z m-396.5 802.5c-23-17-46.1-36.5-64.8-58h572.5c-18.6 21.7-39.9 41-62.9 58h-444.8z m396.5-725.2v-9.5h201v9.5h-201z m0 290.1v-28.9h201v28.9h-201z m-473.2 362.5c-12.9-16.6-20.7-34.4-30.9-53.1h661.9c-10.1 18.7-21.6 36.5-34.7 53.1h-596.3z m368.7-72.5c25-10.9 47.1-27.5 64.3-48.4h224.6c-5.3 16.8-9.4 32.8-16.6 48.4h-272.3z m104.5-159.5v-24.3h201v24.3c0 4.8-0.2 9.5-0.4 14.4h-201.4c0.6-4.7 0.8-9.6 0.8-14.4z m0-58.1v-33.7h201v33.7h-201z" />
  </svg>
