<svg height="1000" width="1250" xmlns="http://www.w3.org/2000/svg"><path d="M783.8 97.5C627.9 410.2 618.6 395.3 612.1 435.7L602 499.8c-3.8 23.4 -12.9 45.9 -26.8 65.2L284.4 970.9c-14.9 20.7 -39.9 31.6 -65.3 28.5C140.4 989.6 67.2 936.5 33 865.6c-11.1 -23 -8.8 -50.4 6.1 -71.1l290.8 -406c13.9 -19.4 32 -35.2 53.1 -46.3l57.2 -30.3c36.2 -19.1 19 -23.2 264.9 -271.3 1.9 -9.3 1.9 -14.2 7 -15.6 5.9 -1.4 12.9 -2 12.3 -9l-.8 -9c-.4 -3.7 2.6 -7 6.3 -7 8.8 -.2 25.8 2.3 50 19.5 24 17.4 32 32.8 34.6 41.2 1.1 3.6 -1.2 7.3 -4.7 8.2l-8.8 2.2c-6.7 1.8 -4.9 8.6 -4.5 14.4 .2 5.5 -4.5 7.1 -12.7 12zM449.4 71.1c6.7 1.8 4.9 8.6 4.5 14.4 -.4 5.3 4.1 6.9 12.5 11.8 15.4 31 29.9 59.5 43.4 85.9 1.3 2.5 4.5 2.9 6.4 1C538.1 160.7 564.3 133 595.3 101c2.6 -2.8 2.7 -6.9 .2 -9.6 -15.6 -16 -32.2 -33 -50 -51 -1.9 -9.1 -1.9 -14.2 -7 -15.6 -5.9 -1.6 -12.9 -1.9 -12.3 -9 .6 -6.4 2.7 -15.8 -5.5 -16 -8.8 -.2 -25.8 2.2 -50 19.5 -24 17.4 -32 32.8 -34.6 41.2 -2.7 8.2 7.1 9 13.3 10.6zm761.5 723.2l-290.6 -406C894.5 352.1 868.4 342.6 810.2 311.9c-21.9 -11.5 -27.8 -21.3 -59.6 -56.4 -2 -2.2 -5.7 -1.8 -7 .9 -90.5 173.5 -92 161.8 -95.7 185.2 -3.4 20.9 -2.6 39.1 .5 58.2 3.7 23.4 12.9 45.9 26.8 65.2L966 971.1c14.9 20.7 39.5 31.6 64.7 28.7 78.7 -9.6 152.3 -62.5 186.9 -134 10.5 -23.2 8.4 -50.6 -6.7 -71.5z"/></svg>