
  <svg height="1000" width="750.0" xmlns="http://www.w3.org/2000/svg">
    <path d="m201.6 591.8v-240.2h63.6v276.5c-34.5 23.7-191.2 70.1-191.2-76.1v-200.4h63.9v203.1c0 62.7 53.5 44.1 63.7 37.1z m-193.8-445.7c182.8-96.8 506.1-120.3 733.2 0v431.5c0 202.9-147.1 264-366.6 359.5-220.3-95.5-366.6-157-366.6-359.5v-431.5z m699.4 431.5v-422.3c-213.4-19.9-466-7.8-665.8 175.4v246.9c0 169.1 103.5 221.7 333 322.8 228.9-100.9 332.8-153.7 332.8-322.8z m-409.3-209.8c46.2-29.9 203.9-62.1 203.9 128.1 0 148.3-92.4 167.6-140.1 153.4v134.1h-63.8v-415.6z m63.8 229.1c3.9 1.6 75 33 75-99.6 0-121.1-58.6-104.5-75-96.3v195.9z m154.5-168.7c-0.4-80.3 100-105.3 155.7-62.3v55.4c-35-35.7-93.6-35.3-94.8 4.3-1.3 52 107.7 42.4 104.3 143-2.5 81.2-91.8 107.4-162.5 65.4v-58.8c39.9 35.4 100.4 36.4 99.3-9.5-1.2-54.5-101.8-45.2-102-137.5z" />
  </svg>
