
  <svg height="1000" width="1250.0" xmlns="http://www.w3.org/2000/svg">
    <path d="m1252.9 500c0 6.1-3.3 11.9-8.8 14.6l-174 104.5c-2.7 1.6-5.5 2.8-8.8 2.8-2.7 0-6-0.6-8.8-2.2-5.4-3.3-8.7-8.8-8.7-15.2v-69.5h-466.3c49.5 77.3 79.1 208.7 136 208.7h52.1v-52.3c0-9.8 7.6-17.4 17.4-17.4h174c9.8 0 17.4 7.6 17.4 17.4v174c0 9.8-7.6 17.4-17.4 17.4h-174c-9.8 0-17.4-7.6-17.4-17.4v-52.1h-52.1c-147.3 0-158.4-278.3-243.6-278.3h-195.9c-15.8 59.7-70.1 104.5-134.7 104.5-76.8-0.2-139.3-62.7-139.3-139.5s62.5-139.3 139.3-139.3c64.6 0 119.1 44.6 134.7 104.5 76.4 0 85.8 18.6 145.7-117.9 78.3-174.1 113.5-160.4 212.7-160.4 14.7-40.8 52.8-69.5 98.5-69.5 57.6 0 104.5 46.7 104.5 104.5 0 57.8-46.7 104.5-104.5 104.5-45.7 0-83.8-28.9-98.5-69.6h-58.2c-56.8 0-86.5 131.7-135.9 208.8h605.6v-69.5c0-6.5 3.4-11.9 8.8-15.2s12.5-2.8 17.4 0.5l174 104.5c5.5 2.2 8.8 8 8.8 14.1z" />
  </svg>
