
  <svg height="1000" width="1125.0" xmlns="http://www.w3.org/2000/svg">
    <path d="m899 472.1c-2.7 4.3-8.4 8.6-7.4-0.2 5.7-22.7 27.2-59.6 8.6-62.5-34.8-6.1-172.1 8.8-172.1 0 0-4.7 52.2-6.1 74-17 18.4-18.4 21.1-15.6 21.3-15.6h52.8c52.5 0 73.2 14.6 22.8 95.3z m-218.9 44.1c-121.7 41.4-243.8 105.9-627.4 295.9l102.4-479.5c361.3 0 654.7-10.9 659.9 44.2h-383.9l59.9 182.2c68.4-32.8 236.1-101 337.1-105.3 42.6-1.6 59.8 5.7 51.2 11.3-9.2 4.5-74.2 9.6-199.2 51.2z m-495.1-328.7h887.3l-132.3 624.4h-826.3s785.1-307.2 793.7-312.9c0 0 69.7-93.7 28.5-132.2-12.7-12.9-31.2-12.9-102.3-12.9-4.1-38.1-153.9-61.5-648.6-166.4z" />
  </svg>
