
  <svg height="1000" width="875.0" xmlns="http://www.w3.org/2000/svg">
    <path d="m438.5 274.8c2.9-34.4 9.5-102.9 97.2-102.9h192.6c40.4 0 62.7-15.3 62.7-42.2v-24c0-23.9 18.2-43.2 42-43.2s42 19.3 42 43.2v71.3c0 83.7-42 121-130.5 121h-196.3c-58.7 0-64.4 28.8-64.4 53 0 2.5-0.2 4.9-0.4 7.2-1.4 24-21.3 43.4-45.7 43.4s-44.3-19.2-45.7-43.4c-0.2-2.3-0.4-4.7-0.4-7.2 0-24-5.9-53-64.5-53h-196.6c-88.5 0-130.5-37.3-130.5-121v-71.3c0-23.9 18.4-43.2 42.2-43.2 23.8 0 42 19.3 42 43.2v24c0 26.9 22.2 42.2 62.7 42.2h192.6c87.5 0 94.3 68.5 97.2 102.9h1.8z m-1 615.8c-22.5 0-41.8-13.6-50.2-31.8-2.1-3.5-189.6-331.1-191.8-334.8-23.2-38.5 6.3-86.5 53.1-86.5 27.2 0 45.7 12.5 58.2 39.6l130.7 229.9 130.7-229.9c12.7-27.1 31-39.6 58.2-39.6 46.8 0 76.3 48.2 53.1 86.5-2.2 3.5-189.7 331.3-191.8 334.8-8.4 18.2-27.7 31.8-50.2 31.8z" />
  </svg>
