<svg height="1000" width="875" xmlns="http://www.w3.org/2000/svg"><path d="M539.5 293.9v1.4C504.5 192.6 456.3 93.4 401.2 0 485.7 57 532 195.3 539.5 293.9zm63.8 237.7c14.9 35.6 21.5 73.3 21.5 111.4 0 151.7 -112.9 275.4 -269.1 272.2l7.4 -.6C508 823.4 576.6 683 576.6 514.1c0 -74.5 -12.7 -148.3 -37 -218.8 2 22.9 2 46.3 2 69.2 0 179.3 -35.3 471.8 -227.7 546.8C185.5 889.1 96.5 777.3 96.5 643c0 -147.7 112.1 -278 264.4 -278 32.9 0 65.9 6.1 95.9 18.8 3.4 -29.5 12.7 -58.4 26.2 -84.6 -38.9 -14 -80.5 -20.9 -122.1 -20.9C45.5 278.3 -105.3 660.9 107.2 891c132.6 145.7 375 144.4 507.4 0 110.6 -119.7 119 -278.1 71.1 -392.6 -24.8 15.7 -52.9 27.2 -82.4 33.2zM816.6 22.9C756.1 152.7 657.8 115 590.4 179.3c-24.2 23.4 -40.2 66.4 -40.2 98.6 0 27.6 8.8 53 23.4 75.8 92.6 -21.5 192 -89.8 230.9 -177.1 -1.4 10.7 -9.4 28.1 -14.1 37.5C750.8 283.8 664.3 342.2 595.7 379.9c28.9 28.1 65.8 50.4 107.4 50.4 154.3 0 215.1 -262.9 113.5 -407.4z"/></svg>