<svg height="1000" width="875" xmlns="http://www.w3.org/2000/svg"><path d="M781.3 62.5H93.8C42 62.5 0 104.5 0 156.3v687.5c0 51.7 42 93.7 93.8 93.7h687.5c51.7 0 93.7 -42 93.7 -93.7V156.3c0 -51.8 -42 -93.8 -93.7 -93.8zm-233.1 682c-82.8 90.3 -234.3 91 -317.1 0C98.2 600.8 192.4 361.5 389.6 361.5c26 0 52 4.1 76.4 13.1 -8.4 16.4 -14.2 34.4 -16.4 52.9 -18.9 -8 -39.4 -11.7 -60 -11.7 -95.3 0 -165.2 81.5 -165.2 173.7 0 83.9 55.7 153.7 135.8 167.7C480.3 710.4 502.5 527.5 502.5 415.4c0 -14.2 0 -28.9 -1.1 -43.1C479.5 308 449.4 246.1 415 187.7c53 35.7 81.9 122.1 86.4 183.8v.8c15 43.9 23 90.2 23 136.7 0 105.6 -42.8 193.3 -133.4 250.4l-4.7 .4c97.7 1.9 168.4 -75.4 168.4 -170.3 0 -23.9 -4.1 -47.5 -13.5 -69.8 18.6 -3.7 36.1 -10.9 51.6 -20.5 29.9 71.5 24.6 170.5 -44.6 245.3zm55.3 -288.1c-26 0 -49 -13.8 -67.2 -31.4C579.1 401.6 633.2 365 658 321.5c2.9 -5.9 8 -16.8 8.8 -23.5 -24.4 54.5 -86.3 97.3 -144.3 110.8 -9.2 -14.3 -14.7 -30.3 -14.7 -47.5 0 -20.1 10.2 -47 25.2 -61.7C575.2 259.6 636.5 283 674.4 202c63.5 90.2 25.6 254.4 -70.9 254.4z"/></svg>