
  <svg height="1000" width="875.0" xmlns="http://www.w3.org/2000/svg">
    <path d="m781.3 62.5c51.7 0 93.7 42 93.7 93.8v687.5c0 51.7-42 93.7-93.7 93.7h-687.5c-51.8 0-93.8-42-93.8-93.7v-687.5c0-51.8 42-93.8 93.8-93.8h687.5z m-233.1 682c69.2-74.8 74.5-173.8 44.6-245.3-15.5 9.6-33 16.8-51.6 20.5 9.4 22.3 13.5 45.9 13.5 69.8 0 94.9-70.7 172.2-168.4 170.3l4.7-0.4c90.6-57.1 133.4-144.8 133.4-250.4 0-46.5-8-92.8-23-136.7v-0.8c-4.5-61.7-33.4-148.1-86.4-183.8 34.4 58.4 64.5 120.3 86.4 184.6 1.1 14.2 1.1 28.9 1.1 43.1 0 112.1-22.2 295-142.3 341.8-80.1-14-135.8-83.8-135.8-167.7 0-92.2 69.9-173.7 165.2-173.7 20.6 0 41.1 3.7 60 11.7 2.2-18.5 8-36.5 16.4-52.9-24.4-9-50.4-13.1-76.4-13.1-197.2 0-291.4 239.3-158.5 383 82.8 91 234.3 90.3 317.1 0z m55.3-288.1c96.5 0 134.4-164.2 70.9-254.4-37.9 81-99.2 57.6-141.4 97.6-15 14.7-25.2 41.6-25.2 61.7 0 17.2 5.5 33.2 14.7 47.5 58-13.5 119.9-56.3 144.3-110.8-0.8 6.7-5.9 17.6-8.8 23.5-24.8 43.5-78.9 80.1-121.7 103.5 18.2 17.6 41.2 31.4 67.2 31.4z" />
  </svg>
