
  <svg height="1000" width="875.0" xmlns="http://www.w3.org/2000/svg">
    <path d="m539.5 293.9v1.4c-35-102.7-83.3-201.9-138.3-295.3 84.5 57 130.8 195.3 138.3 293.9z m63.8 237.7c29.5-6 57.6-17.5 82.4-33.2 47.9 114.5 39.5 272.9-71.1 392.6-132.4 144.4-374.8 145.7-507.4 0-212.5-230.1-61.7-612.7 253.7-612.7 41.6 0 83.2 6.9 122.1 20.9-13.5 26.2-22.8 55.1-26.2 84.6-30-12.7-63.1-18.8-95.9-18.8-152.3 0-264.4 130.3-264.4 278 0 134.3 89 246.1 217.4 268.3 192.3-75 227.7-367.5 227.7-546.8 0-22.9 0-46.3-2-69.2 24.3 70.5 37 144.3 37 218.8 0 168.9-68.6 309.3-213.5 400.5l-7.4 0.6c156.2 3.2 269.1-120.5 269.1-272.2 0-38.1-6.6-75.8-21.5-111.4z m213.3-508.7c101.6 144.5 40.8 407.4-113.5 407.4-41.6 0-78.5-22.3-107.4-50.4 68.6-37.7 155.1-96.1 194.7-165.8 4.7-9.4 12.7-26.8 14.1-37.5-38.9 87.3-138.3 155.6-230.9 177.1-14.6-22.8-23.4-48.2-23.4-75.8 0-32.2 16-75.2 40.2-98.6 67.4-64.3 165.7-26.6 226.2-156.4z" />
  </svg>
