<svg height="1000" width="1000" xmlns="http://www.w3.org/2000/svg"><path d="M867.2 97.5C842.4 74.6 742 1.8 518.2 .8c0 0 -263.9 -15.8 -392.4 102.1C54.3 174.4 29.1 279.3 26.4 409.2c-2.8 129.9 -6.1 373.2 228.5 439.2h.2l-.2 100.8s-1.6 40.8 25.4 49c32.4 10.2 51.5 -20.9 82.6 -54.3 17 -18.3 40.4 -45.3 58.2 -65.8 160.5 13.5 283.8 -17.4 297.8 -21.8 32.5 -10.6 215.9 -34 245.6 -277.4C995.3 327.7 949.6 169.1 867.2 97.5zm27.1 463C869.1 763.7 720.5 776.6 693.2 785.4 681.4 789.1 573 816 436.9 807.2c0 0 -101.5 122.5 -133.2 154.3 -10.3 10.4 -21.7 9.4 -21.5 -11.1 0 -13.5 .8 -167.4 .8 -167.4 -.2 0 -.2 0 0 0C84.2 727.9 95.9 520.7 98 412.3c2.2 -108.4 22.7 -197.3 83.3 -257C290 56.6 514.1 71.3 514.1 71.3c189.2 .8 279.8 57.8 300.9 76.9C884.8 208 920.3 351 894.3 560.5zM622.9 402.7c.7 16.8 -24.5 18 -25.2 1.2C595.5 360.9 575.4 340 534 337.7c-16.8 -1 -15.2 -26.2 1.4 -25.2 54.4 2.9 84.7 34.2 87.5 90.2zm39.6 22.1c2 -82.8 -49.8 -147.7 -148 -154.9 -16.6 -1.1 -14.9 -26.3 1.7 -25.2 113.3 8.2 173.6 86.2 171.5 180.7 -.2 16.8 -25.6 16 -25.2 -.6zm91.8 26.2c.2 16.8 -25.2 17 -25.2 .2C727.9 292 621.9 205.3 493.2 204.3c-16.6 -.2 -16.6 -25.2 0 -25.2 143.9 1 259.7 100.4 261.1 271.9zm-22.1 191.6v.4c-21.1 37.1 -60.5 78.1 -101.1 65l-.4 -.6C589.5 695.9 492.4 645.9 431.1 597.1c-31.7 -25 -60.6 -54.5 -82.9 -82.8 -20.1 -25.2 -40.4 -55.1 -60.1 -91.1C246.5 348 237.3 314.5 237.3 314.5c-13.1 -40.7 27.7 -80.1 65 -101.2h.4c18 -9.4 35.2 -6.3 46.7 7.6 0 0 24.2 28.9 34.6 43.2 9.7 13.2 22.8 34.5 29.7 46.4 11.9 21.3 4.5 43 -7.3 52L383 381.3c-11.9 9.5 -10.3 27.3 -10.3 27.3S407.4 540 537.3 573.2c0 0 17.8 1.6 27.3 -10.3l18.8 -23.4c9 -11.8 30.7 -19.2 52 -7.3 28.7 16.2 65.2 41.4 89.4 64.3 13.7 11.1 16.8 28.1 7.4 46.1z"/></svg>