
  <svg height="1000" width="1000.0" xmlns="http://www.w3.org/2000/svg">
    <path d="m867.2 97.5c82.4 71.6 128.1 230.2 97.3 481.4-29.7 243.4-213.1 266.8-245.6 277.4-14 4.4-137.3 35.3-297.8 21.8-17.8 20.5-41.2 47.5-58.2 65.8-31.1 33.4-50.2 64.5-82.6 54.3-27-8.2-25.4-49-25.4-49l0.2-100.8h-0.2c-234.6-66-231.3-309.3-228.5-439.2s27.9-234.8 99.4-306.3c128.5-117.9 392.4-102.1 392.4-102.1 223.8 1 324.2 73.8 349 96.7z m27.1 463c26-209.5-9.5-352.5-79.3-412.3-21.1-19.1-111.7-76.1-300.9-76.9 0 0-224.1-14.7-332.9 84-60.5 59.7-81 148.6-83.2 257-2.1 108.4-13.8 315.6 185 370.7-0.2 0-0.2 0 0 0 0 0-0.8 153.9-0.8 167.4-0.2 20.5 11.2 21.5 21.5 11.1 31.7-31.8 133.2-154.3 133.2-154.3 136.1 8.8 244.5-18.1 256.3-21.8 27.3-8.8 175.9-21.7 201.1-224.9z m-271.4-157.8c0.7 16.8-24.5 18-25.2 1.2-2.2-43-22.3-63.9-63.7-66.2-16.8-1-15.3-26.2 1.4-25.2 54.4 2.9 84.7 34.2 87.5 90.2z m39.6 22.1c2-82.8-49.8-147.7-148-154.9-16.6-1.2-14.9-26.3 1.7-25.2 113.3 8.2 173.6 86.2 171.5 180.7-0.2 16.8-25.6 16-25.2-0.6z m91.8 26.2c0.2 16.8-25.2 17-25.2 0.2-1.2-159.2-107.2-245.9-235.9-246.9-16.6-0.2-16.6-25.2 0-25.2 143.9 1 259.7 100.4 261.1 271.9z m-22.1 191.6v0.4c-21.1 37.1-60.5 78.1-101.1 65l-0.4-0.6c-41.2-11.5-138.3-61.5-199.6-110.3-31.7-25-60.6-54.5-82.9-82.8-20.1-25.2-40.4-55.1-60.1-91.1-41.6-75.2-50.8-108.7-50.8-108.7-13.1-40.7 27.7-80.1 65-101.2h0.4c18-9.4 35.2-6.3 46.7 7.6 0 0 24.2 28.9 34.6 43.2 9.7 13.2 22.8 34.5 29.7 46.4 11.9 21.3 4.5 43-7.3 52l-23.4 18.8c-11.9 9.5-10.3 27.3-10.3 27.3s34.7 131.4 164.6 164.6c0 0 17.8 1.6 27.3-10.3l18.8-23.4c9-11.8 30.7-19.2 52-7.3 28.7 16.2 65.2 41.4 89.4 64.3 13.7 11.1 16.8 28.1 7.4 46.1z" />
  </svg>
