<svg height="1000" width="875" xmlns="http://www.w3.org/2000/svg"><path d="M787.5 62.5h-700C39.3 62.5 0 101.8 0 150v700c0 48.2 39.3 87.5 87.5 87.5h700c48.2 0 87.5 -39.3 87.5 -87.5V150c0 -48.2 -39.3 -87.5 -87.5 -87.5zm-51.2 290.6C733.6 414.6 690.6 499 607.4 605.9 521.5 717.6 448.6 773.4 389.3 773.4c-37 0 -68 -33.9 -93.6 -102.1C245.9 489.1 224.6 382.2 183.6 382.2c-4.7 0 -21.3 10 -49.6 29.7l-29.7 -38.3c72.8 -64 142.4 -135.1 185.9 -139 49.3 -4.7 79.5 28.9 90.9 100.9 40.4 256.3 58.4 295 132 179 26.4 -41.8 40.6 -73.7 42.6 -95.6 6.8 -64.8 -50.6 -60.3 -89.5 -43.7C497.3 273.4 556.6 224 644.3 226.8c65.1 1.7 95.7 43.9 92 126.3z"/></svg>