<svg height="1000" width="875" xmlns="http://www.w3.org/2000/svg"><path d="M781.3 62.5H93.8C42 62.5 0 104.5 0 156.3v687.5c0 51.7 42 93.7 93.8 93.7h687.5c51.7 0 93.7 -42 93.7 -93.7V156.3c0 -51.8 -42 -93.8 -93.7 -93.8zm-31.7 292.2c-2.7 60.7 -45.3 144.1 -127.5 249.8 -85 110.3 -156.9 165.6 -215.7 165.6 -36.5 0 -67.1 -33.6 -92.3 -100.8C264.8 489.1 243.9 383.4 203.3 383.4c-4.7 0 -21.1 9.8 -49 29.5L125 375C197.1 311.7 265.8 241.4 308.8 237.5c48.6 -4.7 78.5 28.5 89.8 99.8 40.1 253.1 57.8 291.4 130.5 176.8 26.2 -41.4 40.2 -72.7 42 -94.4 6.6 -64 -50 -59.7 -88.3 -43.3C513.5 275.8 572.3 227 658.8 229.7c64.2 1.9 94.5 43.7 90.8 125z"/></svg>