
  <svg height="1000" width="875.0" xmlns="http://www.w3.org/2000/svg">
    <path d="m781.3 62.5c51.7 0 93.7 42 93.7 93.8v687.5c0 51.7-42 93.7-93.7 93.7h-687.5c-51.8 0-93.8-42-93.8-93.7v-687.5c0-51.8 42-93.8 93.8-93.8h687.5z m-31.7 292.2c3.7-81.3-26.6-123.1-90.8-125-86.5-2.7-145.3 46.1-176 146.7 38.3-16.4 94.9-20.7 88.3 43.3-1.8 21.7-15.8 53-42 94.4-72.7 114.6-90.4 76.3-130.5-176.8-11.3-71.3-41.2-104.5-89.8-99.8-43 3.9-111.7 74.2-183.8 137.5l29.3 37.9c27.9-19.7 44.3-29.5 49-29.5 40.6 0 61.5 105.7 110.8 285.9 25.2 67.2 55.8 100.8 92.3 100.8 58.8 0 130.7-55.3 215.7-165.6 82.2-105.7 124.8-189.1 127.5-249.8z" />
  </svg>
