
  <svg height="1000" width="750.0" xmlns="http://www.w3.org/2000/svg">
    <path d="m750 497.5v101.7c-35.9 8.2-72.1 11.9-101.8 11.9-72 151.2-201.1 280.9-244.3 305.1-27.3 15.4-52.9 16.4-83.4-1.6-52.9-31.8-253.7-196.4-320.5-714h145.5c36.5 310.7 126 470.1 224.2 589.4 54.5-54.5 107.1-127.1 147.7-208.8-97.3-49.4-156.5-158-156.5-284.3 0-128.2 73.7-224.8 199.6-224.8 224.5 0 207.5 249.8 159.4 354.5 0 0-90.6 17.9-124-40.1 6.6-22 16-60.1 16-94.7 0-61.1-22.1-91-55.5-91-35.5 0-60.1 33.4-60.1 97.6 0.2 154.7 116 231.9 253.7 199.1z" />
  </svg>
