
  <svg height="1000" width="1125.0" xmlns="http://www.w3.org/2000/svg">
    <path d="m1064.5 229.9c-14.5 67-154.9 264.6-155.1 264.8-12.1 19.6-17 29.3 0 51.2 6.6 9.4 154.5 149.6 176.3 217.8 9.6 32.4-7 48.8-39.8 48.8h-115c-43.8 0-56.7-35-134.8-113.1-68.4-65.8-97.7-74.4-114.7-74.4-36.7 0-30 12.3-30 142.8 0 28.3-9 44.7-82.3 44.7-121.8 0-255.8-74-350.9-210.5-142.8-200-181.9-351.4-181.9-381.9 0-17.2 6.7-32.6 39.5-32.6h115c29.5 0 40.6 12.9 52 44.7 56.2 164.1 151.1 307.4 190.2 307.4 14.7 0 21.3-6.8 21.3-43.9v-169.5c-4.3-78.2-45.7-84.6-45.7-112.3 0-12.7 10.9-26.4 29.3-26.4h180.8c24.3 0 32.5 13.1 32.5 42.4v227.9c0 24.4 11.1 33 18.3 33 14.7 0 27-8.6 53.7-35.3 82.9-92.6 141.4-235.4 141.4-235.4 7.3-17.2 20.8-32.6 50-32.6h115.1c34.8 0 42 18 34.8 42.4z" />
  </svg>
