<svg height="1000" width="1125" xmlns="http://www.w3.org/2000/svg"><path d="M1064.5 229.9c7.2 -24.4 0 -42.4 -34.8 -42.4H914.6c-29.2 0 -42.7 15.4 -50 32.6 0 0 -58.5 142.8 -141.4 235.4 -26.7 26.7 -39 35.3 -53.7 35.3 -7.2 0 -18.3 -8.6 -18.3 -33V229.9c0 -29.3 -8.2 -42.4 -32.4 -42.4H437.9c-18.4 0 -29.3 13.7 -29.3 26.4 0 27.7 41.4 34.1 45.7 112.3v169.5c0 37.1 -6.6 43.9 -21.3 43.9 -39.1 0 -134 -143.3 -190.2 -307.4 -11.4 -31.8 -22.5 -44.7 -52 -44.7h-115c-32.8 0 -39.5 15.4 -39.5 32.6 0 30.5 39.1 181.9 181.9 381.9 95.1 136.5 229.1 210.5 350.9 210.5 73.3 0 82.3 -16.4 82.3 -44.7 0 -130.5 -6.7 -142.8 30 -142.8 17 0 46.3 8.6 114.7 74.4 78.1 78.1 91 113.1 134.8 113.1h115c32.8 0 49.4 -16.4 39.8 -48.8C1063.9 695.5 916 555.3 909.4 545.9c-17 -21.9 -12.1 -31.6 0 -51.2 .2 -.2 140.6 -197.8 155.1 -264.8z"/></svg>