
  <svg height="1000" width="1000.0" xmlns="http://www.w3.org/2000/svg">
    <path d="m980.8 393.9c28.4 167.7-60.4 328-221 406.5 25.4 66.6-24.3 137.1-94.4 137.1-53.9 0-98-42.5-100.7-95.7-12.6 0.4-125.4 0-149.1-1.3-2.2 53.9-46.6 96.9-100.9 96.9-1.4 0-2.8 0-4.2-0.1-66.1-2.6-113.1-68-91.8-132.6-72.6-25.6-141.6-68.1-194.5-138.3-25.4-33.7-1-81.6 40.7-81.6 90.4 0 62.9-105.8 84.3-215.4 36-183.5 228-306.9 413.5-306.9 200.1 0 385 138 418.1 331.4z m-251.3 364.5c82-37.5 158.9-110.8 188.1-199.5 79-240.4-125.3-445.3-354.9-445.3-163 0-332.7 108.2-363.4 265.6-18.7 95.5 9.7 256.5-134.3 256.5 48.7 64.7 113.9 102.8 183 125.1 48.2-42.6 124.8-30.2 156 28 27.7 2 154.6 2.3 171.6 1.6 16.8-32.6 50.8-55 90-55 24.2 0 46.5 8.7 63.9 23z m-328.9-392.9c0-67.9 99.3-67.9 99.3 0s-99.3 67.8-99.3 0z m227.7 0c0-67.9 99.3-67.9 99.3 0s-99.3 67.9-99.3 0z m-239.5 138.1c-6.7-33.1 43.3-43.4 50.1-10.2l0.1 0.5c8.1 41.9 58.3 86 125.2 84.1 69.7-1.8 115.7-43.3 125.2-83.5 8.7-31.3 55.9-20.2 49.8 11.7-10.2 43.4-61 121.1-178.7 122.9-83.1 0-157.9-54.4-171.6-125.5z" />
  </svg>
