<svg height="1000" width="1000" xmlns="http://www.w3.org/2000/svg"><path d="M830.3 128.6c-77.9 0 -143.2 50.2 -163.4 125.6C631.4 140.8 538.9 128.6 500.9 128.6c-38.6 0 -130.4 12.2 -166.5 125.6C314.1 178.8 249.5 128.6 171 128.6 75.4 128.6 0 194.8 0 279.4c0 56.5 8.2 64.9 150.7 456 43.7 118.3 132.4 135.4 181.2 135.4 76.6 0 136.8 -38 167.8 -105.4 31 68 91.2 106 167.8 106 48.8 0 137.4 -17.7 181.2 -136C998.2 327.8 1000 333.8 1000 291.6c1.3 -94.4 -70.3 -163 -169.7 -163zm51.4 224.2L753.6 697.4c-15.4 42 -41.4 72.7 -90.3 72.7 -45.8 0 -73 -24.2 -86 -66.2L500.6 474.6h-1.8L422 703.9c-13.6 42 -40.8 65.6 -85.9 65.6 -48.9 0 -74.9 -30.7 -90.4 -72.7L118.9 354.6c-10.5 -29 -15.5 -46.7 -15.5 -67.4 0 -31.9 31 -57.3 74.9 -57.3 36.5 0 62.5 23 70.5 56.7l86 273.1h1.9l87.2 -267.2c11.8 -38.4 32.2 -62.6 76.1 -62.6s64.3 23.6 76.1 62.6l87.2 267.2h1.9l86 -273.1c8 -33.7 34 -56.7 70.5 -56.7 43.3 0 74.9 26 74.9 69.7 -.7 15.4 -8.1 31.3 -14.9 53.2z"/></svg>