
  <svg height="1000" width="1000.0" xmlns="http://www.w3.org/2000/svg">
    <path d="m794.9 346.9c14.9-46.9-26.2-91.4-73-81.5-43 9.4-56.3-54.9-13.9-64 97.9-21.3 180.3 72.4 149.4 165.6-13.3 41.4-75.8 21.1-62.5-20.1z m-375.4 525.6c-207.6 0-419.5-100.4-419.5-266.2 0-86.6 54.7-186.4 149-280.7 194.8-194.7 396.9-197.1 339.1-11.1-7.8 25.5 24 11.1 24 11.7 155.3-65.7 274.4-32.8 222.7 100.4-7.3 18.3 2.1 21.3 16.2 25.5 265 82.7 67.9 420.4-331.5 420.4z m280.7-285.8c-10.6-108.8-153.3-183.6-319.1-167.4-165.7 16.8-290.7 117.8-280.1 226.6 10.5 108.8 153.3 183.6 319.1 167.4 165.6-16.8 290.6-117.8 280.1-226.6z m-20.7-518.1c199.8-42.2 369.7 145.5 307.4 340.4-16.2 48.8-87.5 23.8-73-23.5 45.1-139-77-271.8-218.2-242.1-49 10.5-66.8-63.9-16.2-74.8z m-153.3 607.4c-33.4 75.8-130.5 117.2-213.1 90.4-79.7-25.6-113.3-104.3-78.7-175.2 34.5-69.1 123.2-108.2 201.9-88.1 82.1 21.1 123.3 98.1 89.9 172.9z m-168.6-58.6c-25.2-10.6-58.6 0.6-74.2 25.2-16.2 25.2-8.4 54.7 16.8 66.4 25.6 11.7 60.2 0.6 76.4-25.2 15.6-25.6 7.2-55.3-19-66.4z m63.7-26.2c-10-3.3-22.3 1.2-27.9 10.6-5.7 9.9-2.8 20.7 7.2 25.2 9.9 3.9 22.8-0.6 28.5-10.6 5.5-10.1 2.1-21.3-7.8-25.2z" />
  </svg>
