<svg height="1000" width="1125" xmlns="http://www.w3.org/2000/svg"><path d="M752.3 327.3c12.5 0 24.7 .6 36.8 2.2C756.6 176.4 592.4 62.5 405.7 62.5c-209.4 0 -380.3 142.2 -380.3 323 0 104.3 57.2 190.5 152.1 257.1L139.8 757l132.9 -66.6c47.6 9.4 85.5 19 133.2 19 12.1 0 23.6 -.6 35.7 -1.6 -7.8 -25.2 -12.1 -51.9 -12.1 -79.7C429.3 462.3 571.9 327.3 752.3 327.3zM548.2 224c28.4 0 47.3 19 47.3 47.7 0 28.3 -18.9 47.2 -47.3 47.2C519.3 318.9 491 300 491 271.7 491.2 243 519.5 224 548.2 224zm-266.4 94.9c-28.3 0 -57.2 -18.9 -57.2 -47.2 0 -28.9 28.9 -47.7 57.2 -47.7 28.9 0 47.7 19 47.7 47.7 0 28.5 -18.8 47.2 -47.7 47.2zm817.8 304.9c0 -152.1 -152.1 -275.9 -323 -275.9 -181.1 0 -323.1 123.8 -323.1 275.9s142.2 276 323.1 276c37.7 0 75.9 -10 114.4 -19.3l104.3 57.2 -28.9 -94.9c76.6 -57.4 133.2 -133.4 133.2 -219zM671.7 576c-19 0 -37.7 -19 -37.7 -38.3 0 -18.9 18.9 -37.7 37.7 -37.7 28.9 0 47.6 18.9 47.6 37.7 0 19.5 -18.9 38.3 -47.6 38.3zm209.2 0c-19 0 -37.7 -19 -37.7 -38.3 0 -18.9 18.9 -37.7 37.7 -37.7 28.3 0 47.6 18.9 47.6 37.7 .2 19.5 -19.3 38.3 -47.6 38.3z"/></svg>