
  <svg height="1000" width="1125.0" xmlns="http://www.w3.org/2000/svg">
    <path d="m752.3 327.3c-180.4 0-323 135-322.8 300.8 0 27.8 4.3 54.5 12.1 79.7-12.1 1-23.6 1.6-35.7 1.6-47.7 0-85.6-9.6-133.2-19l-132.9 66.6 37.7-114.4c-94.9-66.6-152.1-152.8-152.1-257.1 0-180.8 170.9-323 380.3-323 186.7 0 350.9 113.9 383.4 267-12.1-1.6-24.3-2.2-36.8-2.2z m-204.1-103.3c-28.7 0-57 19-57.2 47.7 0 28.3 28.3 47.2 57.2 47.2 28.4 0 47.3-18.9 47.3-47.2 0-28.7-18.9-47.7-47.3-47.7z m-266.4 94.9c28.9 0 47.7-18.7 47.7-47.2 0-28.7-18.8-47.7-47.7-47.7-28.3 0-57.2 18.8-57.2 47.7 0 28.3 28.9 47.2 57.2 47.2z m817.8 304.9c0 85.6-56.6 161.6-133.2 219l28.9 94.9-104.3-57.2c-38.5 9.3-76.7 19.3-114.4 19.3-180.9 0-323.1-123.8-323.1-276 0-152.1 142-276 323.1-276 170.9 0 323 123.9 323 276z m-427.9-47.8c28.7 0 47.6-18.8 47.6-38.3 0-18.8-18.7-37.7-47.6-37.7-18.8 0-37.7 18.7-37.7 37.7 0 19.3 18.7 38.3 37.7 38.3z m209.2 0c28.3 0 47.8-18.8 47.6-38.3 0-18.8-19.3-37.7-47.6-37.7-18.8 0-37.7 18.7-37.7 37.7 0 19.3 18.7 38.3 37.7 38.3z" />
  </svg>
