
  <svg height="1000" width="875.0" xmlns="http://www.w3.org/2000/svg">
    <path d="m437.5 239.8c68.8 0 133.2 26.8 182 75.6 48.7 48.7 78.4 113.3 78.4 182.1 0 142-118.6 257.4-260.4 257.4h-0.2c-46.3 0-91.6-12.5-131.1-36l-9.3-5.6-97.5 25.6 26-95-6.1-9.7c-25.7-40.8-39.4-88.3-39.4-136.9 0.2-142 115.6-257.5 257.6-257.5z m151.4 368c6.4-18 6.4-33.6 4.7-37.3-2-3.1-7.1-5.1-14.9-9s-45.9-22.6-52.9-25.2c-7.1-2.5-12.3-3.9-17.4 3.9-5.1 7.7-19.9 25.2-24.4 30.3-4.5 5.3-9 5.9-16.8 2-45.5-22.9-75.4-40.7-105.3-92-8-13.7 7.8-12.5 22.7-42.2 2.7-5.1 1.3-9.6-0.6-13.5s-17.4-42-23.8-57.4c-6.3-15.1-12.7-13.1-17.4-13.3-4.5-0.2-9.8-0.2-14.9-0.2-5.2 0-13.6 2-20.7 9.8-7.2 7.8-27.1 26.5-27.1 64.6s27.7 75 31.6 80.1c3.9 5.1 54.7 83.2 132.2 116.8 49.1 21.1 68.2 23 92.8 19.3 14.9-2.1 45.7-18.5 52.2-36.7z m192.4-545.3c51.7 0 93.7 42 93.7 93.8v687.5c0 51.7-42 93.7-93.7 93.7h-687.5c-51.8 0-93.8-42-93.8-93.7v-687.5c0-51.8 42-93.8 93.8-93.8h687.5z m-344 744.5c170.7 0 312.7-138.8 312.7-309.5 0-82.9-35.2-160.6-93.6-219.2-58.5-58.6-136.3-90.8-219.1-90.8-170.7 0-309.6 138.9-309.8 309.6 0 54.7 14.3 108 41.4 154.9l-43.9 160.5 164.3-43.2c45.1 24.6 96.1 37.7 148 37.7z" />
  </svg>
