<svg height="1000" width="875" xmlns="http://www.w3.org/2000/svg"><path d="M743.9 189.6C662.1 107.6 553.1 62.5 437.3 62.5 198.2 62.5 3.7 257 3.7 496.1c0 76.4 19.9 151 57.8 216.8L0 937.5l229.9 -60.4c63.3 34.6 134.6 52.8 207.2 52.8h.2C676.2 929.9 875 735.4 875 496.3 875 380.5 825.8 271.7 743.9 189.6zM437.3 856.8c-64.8 0 -128.3 -17.3 -183.6 -50.2l-13.1 -7.8 -136.3 35.8 36.3 -133L132 687.9C95.9 630.5 77 564.3 77 496.1 77 297.5 238.7 135.7 437.5 135.7c96.3 0 186.7 37.5 254.7 105.7S802 400 801.8 496.3c0 198.8 -165.9 360.5 -364.5 360.5zM635 586.9c-10.8 -5.5 -64.1 -31.6 -74.1 -35.1 -9.9 -3.8 -17.1 -5.5 -24.4 5.4 -7.2 11 -27.9 35.2 -34.4 42.6 -6.2 7.2 -12.6 8.2 -23.4 2.7C415 570.7 373.2 545.7 331.3 473.6c-11.2 -19.1 11.1 -17.7 31.8 -59.1 3.5 -7.3 1.7 -13.5 -1 -19S337.7 336.7 328.7 315c-8.8 -21.1 -17.8 -18.1 -24.4 -18.5 -6.3 -.4 -13.5 -.4 -20.7 -.4 -7.2 0 -19 2.7 -28.9 13.5 -10 10.9 -37.9 37.1 -37.9 90.4 0 53.3 38.9 104.9 44.1 112.1 5.5 7.2 76.4 116.6 185.2 163.7 68.7 29.7 95.7 32.2 130.1 27.1 20.9 -3.1 64 -26.1 73 -51.5s9 -47.1 6.3 -51.6c-2.6 -4.9 -9.8 -7.6 -20.5 -12.9z"/></svg>