
  <svg height="1000" width="875.0" xmlns="http://www.w3.org/2000/svg">
    <path d="m743.9 189.6c81.9 82.1 131.1 190.9 131.1 306.7 0 239.1-198.8 433.6-437.7 433.6h-0.2c-72.6 0-143.9-18.2-207.2-52.8l-229.9 60.4 61.5-224.6c-37.9-65.8-57.8-140.4-57.8-216.8 0-239.1 194.5-433.6 433.6-433.6 115.8 0 224.8 45.1 306.6 127.1z m-306.6 667.2c198.6 0 364.5-161.7 364.5-360.5 0.2-96.3-41.6-186.7-109.6-254.9-68-68.2-158.4-105.7-254.7-105.7-198.8 0-360.5 161.8-360.5 360.4 0 68.2 18.9 134.4 55 191.8l8.6 13.7-36.3 133 136.3-35.8 13.1 7.8c55.3 32.9 118.8 50.2 183.6 50.2z m197.7-269.9c10.7 5.3 17.9 8 20.5 12.9 2.7 4.5 2.7 26.2-6.3 51.6-9 25.4-52.1 48.4-73 51.5-34.4 5.1-61.4 2.6-130.1-27.1-108.8-47.1-179.7-156.5-185.2-163.7-5.2-7.2-44.1-58.8-44.1-112.1s27.9-79.5 37.9-90.4c9.9-10.8 21.7-13.5 28.9-13.5s14.4 0 20.7 0.4c6.6 0.4 15.6-2.6 24.4 18.5 9 21.7 30.7 75 33.4 80.5 2.7 5.5 4.5 11.7 1 19-20.7 41.4-43 40-31.9 59.1 42 72.1 83.8 97.1 147.5 128.9 10.8 5.5 17.2 4.5 23.4-2.7 6.5-7.4 27.2-31.6 34.4-42.6 7.3-10.9 14.5-9.2 24.4-5.4 10 3.5 63.3 29.6 74.1 35.1z" />
  </svg>
