<svg height="1000" width="875" xmlns="http://www.w3.org/2000/svg"><path d="M437.5 239.8c-142 0 -257.4 115.5 -257.6 257.5 0 48.6 13.7 96.1 39.4 136.9l6.1 9.7 -26 95 97.5 -25.6 9.4 5.6c39.4 23.5 84.7 36 131 36h.2c141.8 0 260.4 -115.4 260.4 -257.4 0 -68.8 -29.7 -133.4 -78.4 -182.1 -48.8 -48.8 -113.2 -75.6 -182 -75.6zm151.4 368c-6.5 18.2 -37.3 34.6 -52.2 36.7 -24.6 3.7 -43.7 1.8 -92.8 -19.3C366.4 591.6 315.6 513.5 311.7 508.4c-3.9 -5.1 -31.6 -42 -31.6 -80.1s19.9 -56.8 27.1 -64.6c7.1 -7.8 15.5 -9.8 20.7 -9.8 5.1 0 10.4 0 14.9 .2 4.7 .2 11.1 -1.8 17.4 13.3 6.4 15.4 21.8 53.5 23.8 57.4s3.3 8.4 .6 13.5c-14.9 29.7 -30.7 28.5 -22.7 42.2 29.9 51.3 59.8 69.1 105.3 92 7.8 3.9 12.3 3.3 16.8 -2 4.5 -5.1 19.3 -22.6 24.4 -30.3 5.1 -7.8 10.4 -6.4 17.4 -3.9 7 2.6 45.1 21.3 52.9 25.2s12.9 5.9 14.9 9c1.7 3.7 1.7 19.3 -4.7 37.3zM781.3 62.5H93.8C42 62.5 0 104.5 0 156.3v687.5c0 51.7 42 93.7 93.8 93.7h687.5c51.7 0 93.7 -42 93.7 -93.7V156.3c0 -51.8 -42 -93.8 -93.7 -93.8zM437.3 807c-51.9 0 -102.9 -13.1 -148 -37.7L125 812.5 168.9 652C141.8 605.1 127.5 551.8 127.5 497.1c.2 -170.7 139.1 -309.6 309.8 -309.6 82.8 0 160.6 32.2 219.1 90.8 58.4 58.6 93.6 136.3 93.6 219.2C750 668.2 608 807 437.3 807z"/></svg>