<svg height="1000" width="875" xmlns="http://www.w3.org/2000/svg"><path d="M875 314.5v-41.6l-55.7 -17.2L815 235.4l39.3 -40.5L834 157l-56.7 14.7 -14 -14.7 14.6 -55L740.6 79.3l-41.6 41 -20.9 -6.2L664.5 62.5h-44.2l-12.1 51.6 -23.6 6.2 -38.5 -41 -37.9 21.5 15.8 54.1 -15.8 16.4 -55.7 -14.7 -21.4 37.3 40.4 41.1 -5.7 20.3 -55.6 15.2 -.6 42.4 56.2 14.6 4.7 23.7L431.3 390l20.3 36.2 57.8 -14.7 14 16.8 -15.8 52.6 38.9 22.6 37.9 -39.8 22.6 5.6 13.1 55.7 44.2 .6 13 -56.3 22.7 -6.8 40.4 42.2 39.9 -23.6 -17.2 -54.7 15.2 -15.9 56.3 17.2 20.1 -39.2 -40.8 -36.7 4.3 -23.7L875 314.5zm-232.8 88.2c-61.1 0 -110.9 -49.6 -110.9 -110.9S580.9 180.9 642.2 180.9s110.9 49.6 110.9 110.9c0 61.5 -49.6 110.9 -110.9 110.9zm141.2 32.1l91.6 28.3V541l-107.6 26.2 -8 44.3 76 69 -37.5 74L692.4 721.9l-28.5 29.7 32.6 102.5 -74.8 44.3 -76 -79.1 -42.4 12.9 -24.6 105.5 -82.8 -1L371.3 832l-42.4 -10.9 -71.1 75 -73 -42.4 29.7 -98.6 -26.8 -31.5L79.3 751.2l-38.5 -68 74 -73 -9.3 -44.6L0 538.1l1 -79.9 104.5 -28.7L116.6 391l-76 -76.9 40.5 -70 104.6 27.6L215.4 241 185.7 139.5 256.8 99l71.9 77L373 164.1 395.7 62.5h82.8l22.7 89.6L457 140.6l-12.3 -3.3 -6.4 11.1 -21.5 37.3 -6.4 11 8.9 9 33.6 33.9 -.6 2 -46.4 12.7 -12.2 3.3 -.1 12.5 -.4 25.2C300.4 315.6 230.5 398.4 230.5 497.5c0 113.8 92.4 206.4 206.4 206.4 98.6 0 181.1 -69.1 201.6 -161.7l25.8 .4 13.4 .2 3.2 -13.1 10.9 -46.9 3.7 -1.2 33.4 34.8 9.2 9.6 11.3 -6.7 39.9 -23.6 11.3 -6.8 -3.9 -12.7 -13.3 -41.4z"/></svg>