
  <svg height="1000" width="875.0" xmlns="http://www.w3.org/2000/svg">
    <path d="m875 314.5l-56.8 13.6-4.3 23.7 40.8 36.7-20.1 39.2-56.3-17.2-15.2 15.9 17.2 54.7-39.9 23.6-40.4-42.2-22.7 6.8-13 56.3-44.2-0.6-13.1-55.7-22.6-5.6-37.9 39.8-38.9-22.6 15.8-52.6-14-16.8-57.8 14.7-20.4-36.2 39.3-38.8-4.7-23.7-56.2-14.6 0.6-42.4 55.6-15.2 5.7-20.3-40.4-41.1 21.4-37.3 55.7 14.7 15.8-16.4-15.8-54.1 37.9-21.5 38.5 41 23.6-6.2 12.1-51.6h44.2l13.6 51.6 20.9 6.2 41.6-41 37.3 22.7-14.6 55 14 14.7 56.7-14.7 20.3 37.9-39.3 40.5 4.3 20.3 55.7 17.2v41.6z m-232.8 88.2c61.3 0 110.9-49.4 110.9-110.9 0-61.3-49.6-110.9-110.9-110.9-61.3 0-110.9 49.6-110.9 110.9 0 61.3 49.8 110.9 110.9 110.9z m141.2 32.1l91.6 28.3v77.9l-107.6 26.2-8 44.3 76 69-37.5 74-105.5-32.6-28.5 29.7 32.6 102.5-74.8 44.3-76-79.1-42.4 12.9-24.6 105.5-82.8-1-24.6-104.7-42.4-10.9-71.1 75-73-42.4 29.7-98.6-26.8-31.5-108.4 27.6-38.5-68 74-73-9.3-44.6-105.5-27.5 1-79.9 104.5-28.7 11.1-38.5-76-76.9 40.5-70 104.6 27.6 29.7-30.7-29.7-101.5 71.1-40.5 71.9 77 44.3-11.9 22.7-101.6h82.8l22.7 89.6-44.2-11.5-12.3-3.3-6.4 11.1-21.5 37.3-6.4 11 8.9 9 33.6 33.9-0.6 2-46.4 12.7-12.1 3.3-0.2 12.5-0.4 25.2c-92.8 20.3-162.7 103.1-162.7 202.2 0 113.8 92.4 206.4 206.4 206.4 98.6 0 181.1-69.1 201.6-161.7l25.8 0.4 13.4 0.2 3.2-13.1 10.9-46.9 3.7-1.2 33.4 34.8 9.2 9.6 11.3-6.7 39.9-23.6 11.3-6.8-3.9-12.7z" />
  </svg>
