<svg height="1000" width="1250" xmlns="http://www.w3.org/2000/svg"><path d="M768.3 257.2c0 25.5 4.1 63.9 -56 85.6 -18.6 6.8 -31.1 18.9 -31.1 18.9 0 -60.6 9.2 -82.5 33.9 -95.4 19.1 -10 53.2 -9.1 53.2 -9.1zm-226.2 69.4l-66.8 259.1 -55.7 -212c-15 -62.5 -40.6 -94.8 -94.5 -94.8 -53.5 0 -79.5 31.6 -94.6 94.8l-55.7 212L108 326.6C97.1 274.4 46.6 251.9 0 257.7L128.1 742s42.2 3 63.4 -7.8c27.7 -14.1 40.9 -25 57.8 -90.9C264.2 584.6 306.1 412 310 399.7c9.3 -29.2 21.7 -26.9 30.1 0 3.9 12.3 45.8 184.9 60.8 243.6 16.8 65.9 30 76.8 57.8 90.9 21.1 10.8 63.4 7.8 63.4 7.8L650.2 257.7c-47.7 -6 -97.3 17.5 -108.1 68.9zm226.2 10.2s-8 12.4 -26.3 22.6c-11.7 6.6 -23 11 -35.1 16.8 -29.6 14.2 -25.7 27.3 -25.7 68.8v297s32.3 4.1 53.4 -6.7c27.2 -13.9 33.5 -27.3 33.7 -87.5v-311zM1087.5 501L1250 259.3s-68.6 -11.6 -102.5 19.3c-26 23.6 -47.7 57.7 -105.9 141.5 -.9 1.4 -12.2 20.6 -25.5 0C958.9 337.6 936.4 302.4 910.3 278.6c-34 -30.9 -102.5 -19.3 -102.5 -19.3L970.3 501 808.2 742s71.4 9 105.4 -21.9c22.4 -20.5 34.3 -39.8 102.5 -138.2 13.3 -20.5 24.6 -1.5 25.6 0 57.4 82.8 76.6 113.4 103.7 138.2 34 30.9 104.2 21.9 104.2 21.9L1087.5 501z"/></svg>