
  <svg height="1000" width="1250.0" xmlns="http://www.w3.org/2000/svg">
    <path d="m428.1 675.2c14.6-11.4 31.8-1.4 42.4 13.8 13.9 19.8 12.2 35.5-0.5 45-14.8 12.2-33.3-0.3-42.4-12.8-21.1-29.5-3.2-43.3 0.5-46z m657.7 148.3c2.6-8.7 7.7-19.9 7.7-39.4 0-66.5-81.3-125.8-195.4-133-103.8-6.6-235.2 30.2-360 144.3l-1.6-0.5c3.1-20.5-1.5-31.7-6.6-41.5l0.5-3c125.8-100.3 261.9-129.9 368.8-118.2 119.1 12.8 204 77.3 197.9 152.4-1.6 19-5.7 30.7-9.7 38.9-2.7 3.3-2.2 3.3-1.6 0z m-319.6-353.9c-1.1-13.8 6.1-23 13.3-30.2 7.1-7.7 29.1-20.5 29.1-20.5s-2.5 51.7-4.1 58.3c-2 7.7-9.7 13.3-20.4 12.8-9.7-0.5-16.4-6.6-17.9-20.4z m-97.7-295.1c287.4 0 538 169.2 568.7 384.6 0 0-7.1 2.6-18.9 8.7 0 0.5 2.1 21 0.5 32.2-0.5 3.6-2 2.1-2 0-0.5-10.2-3.1-22.5-4.6-29.1-9.2 5.1-20 12.7-31.2 23 0 0 9.2 19.9 9.2 50.6 0 41.4-16.4 64.4-32.2 74.2l-0.6-1.1c18-17.9 24.6-41.9 24.6-62.4 0-27.1-13.3-64.9-28.1-80.8 0 0 8.7 15.9 13.3 34.8 0 0-41.5 42-52.7 121.7 0 0-7.2-17.9-21-31.7 0 0 23.6 30.2 23.6 74.7 0 37.8-25.1 73.1-53.8 94.1-1.9 0-1.5 0.3-1.5-1.6 30.7-25 43.5-54.7 43.5-90.5 0-74.7-96.2-157-254.2-157-187.7 0-355 113.5-462.9 250.1l-2-0.5c-78.8-236.3-265-362.6-383.1-394.8-4.1-1.1-3.6-1.6-1.6-2.6 24.1-28.1 267.5-296.6 667-296.6z m-193.9 565.6c32.9-28.5 9.8-60.1 9.2-60.8-7.9-11.7-31.8-33-60.8-10.8-21.4 16.4-22.7 44.7-8.2 63.4 12.6 16.2 38.2 25.8 59.8 8.2z m4.1-266.4l3.6 15.8-7.2-8.7-27.6 52.2 48.1 56.2 24.6-11.7-23.1-138.6z m36.3 229.6c6.7-4.6 14.4-9.7 18.9-12.8l-0.5-0.5c-3 1.5-6 2-24.5-31.2v-0.5c13.4-10.1 16.5-9.6 22.5-10.8l0.5-0.5c-2.6-7.2-2.6-7.2-3.6-10.7h-0.5c-7.7 6.4-2.9 3.1-22.5 15.3h-0.5c-3.6-6.1-8.2-14.3-11.2-18.9v-2.6c8.6-7.6 19.9-13.2 24-14.8 5.6-2 8.2-1 10.2-0.5l0.5-1c-2.5-3.6-4-5.6-6.6-9.2l-1-0.5c-19.5 10.7-34.3 19.4-49.6 30.7l0.5 1c2.5-0.5 6.1 0.5 8.7 5.1 29.3 49 38.2 53.9 34.2 61.9z m108-63.4v-0.5c-3.9 0-4.6 2.7-28.7-59.8v-0.6c9.7-3.6 17.2-8.5 24.1-5.1l0.5-1-6.1-9.7-1.1-0.5c-4.3 1.8-39.9 15.6-54.2 24.5l-0.5 1 2.1 11.3h1c2-7.2 19.1-14.3 19.4-14.3l0.5 0.5c25.3 58.1 25.5 58.3 23 63.4l0.5 0.5c7.7-4.1 13.3-6.7 19.5-9.7z m87.4-32.2c-1.5-1.1-4.1-2.6-5.1-7.7-3.1-11.8-9.2-39.4-12.3-51.7-1-3-1-6.1 1-8.7l-0.5-0.5c-6.6 1.1-12.3 2.6-21 4.6v0.5c3.1 1.1 4.1 4.1 5.2 7.7l5.1 18.4-0.5 0.5c-6.7 2.1-17.4 5.2-25.1 7.7h-0.5c-1.5-4.1-3.6-11.2-6.1-18.9l0.5-9.2-0.5-0.5c-9.3 2.5-14.9 4.6-21 6.6v1c2 0 4.1 2.6 5.1 6.2 2.1 6.6 15.9 47 17.9 53.2 1.6 4.1 1.6 7.1-0.5 9.7l0.5 0.5c6.1-2.6 12.8-5.6 20-7.7v-1c-2.1-0.5-4.1-1.5-5.7-6.1-2-7.7-6.6-22-8.2-27.1l0.6-0.6c7.6-2.5 18.4-6.1 25-7.6l0.5 0.5c1.1 4.1 5.1 19.9 7.2 26.6l-1 8.7 0.5 0.5c8.7-3.1 10.7-3.6 18.9-5.6z m62.9-13.3c1.1-3.6 2.1-7.2 3.1-11.8h-0.5c-4 7.9-29.5 9.9-31.7 9.2l-0.5-0.5c-1-6.2-3.6-20.5-4.1-24.6l0.5-0.5c15.7-1.8 10.5-2 19.9 0h0.5c0-6.7 0.6-7.2 0.6-10.2h-0.6c-11.6 4.5-2.3 1.3-20.9 4.6l-0.5-0.5c-1.1-6.7-2.6-16.4-3.1-19.5l0.5-0.5c25.2-4.7 29.5-0.7 31.7 1.6l0.5-0.5c-1.5-4.7-2-6.2-3-10.8l-0.5-0.5c-9.3 0.5-30.7 2.1-48.6 5.1l-1.6 1c3.6 1.6 4.6 3.6 5.1 7.2 3.1 14.8 6.7 35.8 9.8 51.2l-1.6 8.1 0.5 0.5c16.4-3.5 34.8-7.1 44-8.1z m21-87c6.1-3 14.3-10.7 14.3-10.7 3.8 8.9 1.9 5.3 8.2 15.3 19.8 0.9 16.8 0 39.9 2.1l1.5-9.2s-8.1 0-11.2-3.6c-2.1-2.6-2.6-6.1-3.1-10.8 0-4.6 0.6-32.2 1.6-40.4 0.5-8.1 4.1-39.8 4.1-45 0.5-5.1 2-17.4 0.5-23.5-9.5-37.7-47.8-34.8-97.7-31.7l-10.3 31.7 5.1 5.6c32.4-32.3 73.5-8.9 57.8 11.3-10.1 13.5-38.5 17.4-55.7 33.2-12.7 12.7-23.9 40.8-10.7 61.9 11.9 21.6 33.7 19.5 34.2 19.4 5.6 0 12.8-1 21.5-5.6z m72.6 41.4c0-3.5 0.5-8.1 0.5-10.2l-0.5-1c-28-17.6-52.4-1.8-56.2 19.4-5.6 31.4 30 49.7 50.1 36.3l1-1c0-0.5 2.6-8.7 3.6-12.3l-0.5-0.5c-12.5 18.7-45.6 13.4-40.4-19.9 3.7-24.7 30-31.4 42.4-10.8z m11.3-171.3c0 0 9.7 1.5 9.7 7.1 0 4.1-9.7 108-9.7 108-0.2 2.9-0.7 13.3-14.8 13.3l-1.6 9.2c36 5.5 37.9 5.9 72.1 14.3l1.1-9.2c-25.5-7.7-19.1-14.4-8.7-90 2.1-1.7 16.8-14 40.4-1.6l22-22s-19-17.4-29.2-14.3c-10.2 2.6-30.2 21-30.2 21l3.1-34.3c-15.8-7.9-52.9-14.3-54.2-14.3v12.8z m21.4 223.5c18.5 4.6 31.8-5.1 36.9-22.5 4-14.8-3.1-32.7-21-37.8-12.8-4.1-30.7 1.5-36.8 19.9-6.7 18.9 5.1 36.3 20.9 40.4z m82.4 18.9c-1.5-2.5-2-4.1-1.6-7.6 2.4-52.7 3-48.2 2.1-49.1-4.1-1.5-10.8-4.1-14.8-5.6l-1.1 0.5v4.1c-7.6 11.7-20.4 30.1-27.1 39.3l-5.1 3.6v0.5c4.1 0.5 9.2 2.6 11.8 3.1v-0.5l1.5-6.7c1.6-2 4.6-7.1 7.2-10.7 0.8 0 4.4 1.1 13.8 4.6 0.6 0.6 0.6-1.3-0.5 14.8l-3.1 3.6v0.5c3.1 1 12.3 4.6 16.9 5.6z m-9.2-175.4c-25.8 41.3-18.3 100.8 18.9 103.3 11.2 0.5 18.4-7.6 18.9-7.1l-4.1 13.3c17.4 8.2 22.4 10.3 34.8 16.8l3.6-8.7c-12-6.8-2.5-21.9 48.1-164.6-12-12.7-20.1-19.7-44-39.9l-3.6 7.1c3.2 2.7 13.3 9.8 8.7 22l-14.8 51.2c-6.4-25-44.5-29.1-66.5 6.6z m57.3 155l4.6-6.7v-1c-6.7-13.3-23.3-14.5-28.6-4.6-3.6 6.7 0.5 13.8 3.5 18.9 3.1 5.7 6.2 12.3 4.1 16.4-4.5 9-17.5 1.3-16.4-9.7l-1.5 0.5c-4.1 9.4-3.6 7.8-3.6 9.2 6 11.9 25 13.9 30.2 1.5 3.1-6.1 1-13.3-2-18.4-3.6-6.6-8.2-12.3-5.7-16.4 3-5.1 15.4-0.9 15.4 10.3z m41.4 26.1l2.6-7.7-0.5-0.5c-4.7-4.1-16.9-12.8-24.1-17.4h-0.5l-6.1 6.7v0.5c9.3 0.6 6.6-0.3 11.7 3.6v0.5c-5.1 9.7-11.7 22-17.9 33.2l-4.1 2.6-0.5 0.5 11.3 8.7 0.5-0.5c-0.5-1.1-1-3.1 1.5-7.7 5.7-11.3 12.3-23.6 16.9-31.7h0.5c6.9 5 4.9 2.8 8.7 9.2z m53.2-86.5l15.3-20.4s-18.4-36.8-45-32.2c-40.7 7.8-6.1 66.8-4.1 74.6 8.5 29.6-31.8 24.6-26-10.2l-5.7-4.1-9.7 28.1s23 22 39.4 20.5c15.8-1.6 27.1-12.3 27.1-32.2 0-16.4-15.4-44.5-15.4-54.3 0-13.4 24-9.3 22.5 9.8-0.5 5.1-2.5 10.2-4 14.8z m69.6-19.9c1.5 4.6 3 3.6 1.5-0.5-63.4-193.4-259.3-271.1-390.2-273.2-98.7-1.5-175 23.1-257.8 70.1l40.4-119.1-66 128.3-17.4-40.9c6.2-2 12.3-4.1 12.3-4.1l-5.1-16.8s-6.1 1.5-14.3 4.1l-23.6-55.3 26.6 119.2c-10-5-37.3-13.4-12.8-37.9l-5.1-21.5c-13.6 4.4-25.8 7.1-62.9 19l-45.1-22.5 115.6 83.4-9.2 4-33.7-27.1c4.4 10.1 6.4 23.8 9.2 38.4l-55.8 25.6-58.8-70.6-33.7 17.9 26.6 82.8-22 9.8 184.1-57.3-7.2 20.4-1-6.1-25.5 6.6 9.7 48.1-8.7 24.1-50.1-59.9-77.8 20 36.9 115c-117.5-121.8-132.3-129.6-120.7-147.8 4.1-5.6 15.3-13.8 15.3-13.8l-8.2-13.8c-52.3 35.9-54.3 37.4-114 83.4l9.7 11.7s15.8-11.2 26.6-10.7c15.3 0.7 3.4-5.8 222 192.8l23-16.3-54.2-182.6 70 82.3-9.2 27.1 81.9-172.8c67.7 157.2 56.9 130.7 64.4 153.9l-65.4-131.4-4.7 8.6c2.6 2.6-1.8-5.9 44.5 116.1 6.3 17.4-2.1 19.4-10.7 25.1l4.6 9.2c30-13.3 44.8-18.6 76.2-28.1l-2-9.8c-17.4 2.6-19.8-0.3-23.6-8.6-2-4.1-27.6-78.3-39.9-114.6l-19.9-9.7-4.6-15.9 120.2 71.6-25.6 84.4c23.8-6.4 52.8-13.2 96.7-19.4l-0.5-52.2-9.8 2c-1.3 27-11.7 43.2-38.3 44.5l43.4-157c-53.9 0.9-115.7 14.1-130.4 17.4l7.7 32.2-49.1-38.3 178.5-40.4-167.2 17.9c75.1-44 154.9-76.2 259.3-74.2 256.7 4.1 353.4 193.8 374.9 253.2z m-796.9-221.5l4.6 16.9c15.3-5.1 21.2-4.6 22-4.6l-18.4-14.8c-4.6 1.5-8.2 2.5-8.2 2.5z m280.8 75.2l-22.5 73.7-42.5-33.3c13.3-49.8 61.9-41.6 65-40.4z m-56.3-241.9c439.4 0 628.6 280.8 628.1 444.4 0 21.5-0.5 34.3-1.5 38.4-0.6 4.1-2.1 1.5-2.1-1v-19.5c0-208.1-237.3-436.2-589.2-436.2-119.7 0-202.5 23.5-215.3 27.1l-3.1-0.5c-13.3-14.9-25-19-41.4-23v-1.6c17.4-4.6 110.5-28.1 224.5-28.1z m412.3 331.4c-16.9 67.3-26.7 69-35.8 69.1-14.4 0-13.3-18.5-11.8-29.2 1.7-19 14.5-67.7 33.2-65.5 14.4 1.6 16.9 14.4 14.4 25.6z m-120.2 83.9c6.6 1.5 15.3 8.7 10.2 28.1-5.6 22-15.8 23-23 21-10.8-2.6-15.3-15.4-11.8-28.7 6.2-22 19.5-22 24.6-20.4z m45 40.9v-0.5c2-3.6 10.7-16.9 12.8-19.5-0.5 7.2-1.6 20-1.6 23.6-5.1-1.5-7.6-2.6-11.2-3.6z" />
  </svg>
