<svg height="1000" width="891.8" xmlns="http://www.w3.org/2000/svg"><path d="M468.2 921l20.6 30.9 10.4 -24.1 10.3 13.8v58.4c41.1 -15.5 41.2 -130.6 49.8 -189.9 9 -62.2 -1.7 -181.2 158.9 -291.2 -17.3 -46.1 -23.4 -96.5 -5.1 -156.3 54.4 6.5 105.3 20.6 123.7 105.6l-59.3 16.4c21.8 45 33.2 91.3 25.8 140.8L750 611.7 738 677l-36.1 -13.8 -17.2 65.3 -37.8 -13.7 51.6 41.2 17.1 -55 48.2 10.3 13.7 -69.6 51.5 28.4c.5 -39.1 13.7 -113.4 -17.1 -164.9l51.5 10.3c7.8 -43.1 -4.6 -76.6 -15.5 -110.9l43.8 19c-.8 -49 -58.4 -111 -120.2 -114.3C732 307.2 660.6 260.1 665.8 207.9c3.8 -38.8 34.1 -83.2 84.2 -97 -85.9 71.3 -18.9 131.4 10.3 143.4C768.9 232 794.6 119.4 760.3 0c-79 44.7 -175.2 127.2 -182.1 288.7l-113.4 75.6 -6.9 182.1L667.5 429.6l13.8 13.7 -34.4 6.9L561 525.8l-30.9 -10.3 -55 96.2 -6.9 233.7 41.3 30.9 -63.6 31 -63.6 -31 41.2 -30.9 -6.8 -233.7 -55 -96.2 -31 10.3 -85.9 -75.6 -34.3 -6.9 13.7 -13.7 209.6 116.8L427 364.3 313.6 288.7C306.7 127.1 210.5 44.7 131.4 0c-34.2 119.4 -8.5 232 0 254.3 29.3 -12 96.3 -72.2 10.4 -143.5 50.1 13.8 80.3 58.3 84.2 97.1 5.1 52.2 -66.2 99.2 -105.7 101.4C58.5 312.6 .9 374.6 0 423.5l43.8 -18.9C33 438.9 20.5 472.3 28.3 515.4l51.6 -10.3C49.1 556.7 62.2 631 62.7 670.1l51.5 -28.4 13.8 69.6L176.1 701l17.2 55 51.5 -41.3 -37.7 13.8 -17.2 -65.3L153.8 677l-12 -65.3 -53.3 13.7c-7.5 -49.5 4 -95.9 25.8 -140.9L55 468.2c18.4 -85 69.3 -99.2 123.7 -105.7 18.3 59.8 12.2 110.3 -5.1 156.4 160.6 109.9 149.9 229 158.9 291.2 8.6 59.3 8.7 174.4 49.8 189.9v-58.4l10.3 -13.8 10.3 24.1 20.7 -31 22.3 41.3L468.2 921zM622.9 735.4l-31 -20.6c14.6 -8.5 26.9 -16.5 37.8 -24.1 -1.2 14.2 -.5 27.1 -6.8 44.7zm54.9 -96.2c-.7 21.3 -1.7 42.3 -3.4 61.8 -15.3 -3.6 -30.4 -7.4 -41.2 -13.7 16.1 -15.4 30.3 -31.8 44.6 -48.1zm48.1 10.3c0 -26.2 -4 -47.3 -10.3 -65.3 -10.5 17.8 -21.9 35.5 -36 53.3l46.3 12zm6.9 -158.1c38 25 54.3 65.7 58.4 110 -24 -8.9 -48.1 -18.2 -72.1 -20.7 9.8 -23.4 13 -54.9 13.7 -89.3zm-3.4 -89.3c1.6 27.9 3.6 56.3 3.4 82.5 37.6 -15.9 58.2 -19 85.9 -27.5C798 420 765.6 407.2 729.4 402.1zM268.9 735.4l30.9 -20.6C285.3 706.3 273 698.3 262.1 690.7c1.1 14.2 .5 27.1 6.8 44.7zm-55 -96.2c.8 21.3 1.8 42.3 3.5 61.8 15.3 -3.6 30.4 -7.4 41.2 -13.7 -16.1 -15.4 -30.4 -31.8 -44.7 -48.1zm-48.1 10.3c0 -26.2 4 -47.3 10.3 -65.3 10.5 17.8 21.9 35.5 36.1 53.3l-46.4 12zm-6.9 -158.1c-37.9 25 -54.3 65.7 -58.4 110 24.1 -8.9 48.1 -18.2 72.2 -20.7 -9.9 -23.4 -13 -54.9 -13.8 -89.3zm3.5 -89.3c-1.6 27.9 -3.6 56.3 -3.5 82.5C121.4 468.7 100.8 465.6 73 457.1c20.7 -37.1 53.2 -49.9 89.4 -55z"/></svg>