
  <svg height="1000" width="1000.0" xmlns="http://www.w3.org/2000/svg">
    <path d="m522.9 921l-22.3 41.2-22.4-41.2-20.6 31-10.3-24.1-10.3 13.7v58.2c-41.2-15.4-41.3-130.6-49.9-189.8-9-62.3 1.8-181.3-158.9-291.3 17.4-46.1 23.5-96.5 5.2-156.3-54.5 6.5-105.4 20.6-123.7 105.6l59.2 16.4c-21.8 45-33.2 91.3-25.7 140.9l53.2-13.7 12.1 65.3 36-13.7 17.2 65.3 37.8-13.7-51.6 41.2-17.2-55-48.1 10.3-13.7-69.6-51.5 28.4c-0.5-39.1-13.6-113.4 17.2-165l-51.6 10.3c-7.8-43.1 4.7-76.5 15.5-110.8l-43.8 18.9c0.8-48.9 58.5-110.9 120.3-114.2 39.5-2.2 110.8-49.2 105.6-101.4-3.8-38.8-34-83.3-84.2-97.1 85.9 71.3 19 131.5-10.3 143.5-8.6-22.3-34.2-134.9 0-254.3 79.1 44.7 175.2 127.1 182.1 288.8l113.4 75.6 6.9 182.1-209.7-116.8-13.6 13.7 34.3 6.8 85.9 75.6 31-10.3 54.9 96.2 6.9 233.7-41.2 30.9 63.6 31 63.5-31-41.2-30.9 6.9-233.7 54.9-96.2 30.9 10.3 85.9-75.6 34.4-6.8-13.7-13.7-209.5 116.7 6.8-182.1 113.3-75.6c6.9-161.5 103.2-244 182-288.7 34.3 119.4 8.6 232 0 254.3-29.2-12-96.2-72.1-10.3-143.4-50.1 13.8-80.3 58.2-84.2 97-5.1 52.2 66.2 99.3 105.7 101.4 61.8 3.3 119.4 65.3 120.3 114.3l-43.8-19c10.8 34.3 23.2 67.8 15.4 110.9l-51.5-10.3c30.8 51.5 17.7 125.8 17.2 164.9l-51.6-28.4-13.6 69.6-48.1-10.2-17.2 55-51.5-41.3 37.8 13.7 17.2-65.2 36.1 13.7 12-65.3 53.3 13.8c7.4-49.6-4-96-25.8-140.9l59.3-16.4c-18.5-85-69.2-99.1-123.7-105.6-18.3 59.8-12.2 110.2 5.1 156.3-160.6 110-149.9 229-158.9 291.2-8.6 59.3-8.7 174.4-49.8 189.9v-58.5l-10.4-13.7-10.3 24.1z m154.6-185.6l-30.9-20.6c14.6-8.5 26.9-16.4 37.8-24-1.2 14.1-0.5 27-6.9 44.6v0z m55-96.2c-0.8 21.4-1.7 42.3-3.4 61.9-15.3-3.7-30.4-7.5-41.2-13.7 16-15.5 30.3-31.9 44.6-48.2v0z m48.1 10.3l-46.4-12c13.3-16.9 25.3-34.6 36.1-53.3 6.3 18 10.3 39.1 10.3 65.3z m6.9-158.1c38 25 54.3 65.8 58.4 110-24-8.9-48.1-18.2-72.1-20.6 9.8-23.5 12.9-55 13.6-89.4h0.1z m-3.4-89.3c36.2 5.1 68.6 17.9 89.3 55-27.7 8.5-48.4 11.6-85.9 27.5 0.2-26.2-1.9-54.6-3.4-82.5z m-460.5 333.3c-6.3-17.6-5.7-30.4-6.9-44.6 11 7.6 23.2 15.5 37.8 24z m-55-96.2c14.3 16.3 28.6 32.7 44.7 48.2-10.8 6.2-25.9 10-41.2 13.6-1.7-19.5-2.7-40.5-3.5-61.8z m-48.1 10.3c0-26.2 3.9-47.3 10.3-65.3 10.8 18.7 22.8 36.4 36.1 53.3z m-6.9-158.1h0.2c0.7 34.4 3.9 65.9 13.7 89.3-24.2 2.5-48.2 11.8-72.3 20.7 4.1-44.3 20.4-85 58.4-110z m3.5-89.3c-1.6 27.9-3.6 56.3-3.5 82.4-37.5-15.8-58.2-18.9-85.9-27.5 20.7-37 53.2-49.8 89.4-54.9z" />
  </svg>
