<svg height="1000" width="1000" xmlns="http://www.w3.org/2000/svg"><path d="M500 15.6C233 15.6 15.6 232.8 15.6 500 15.6 767 233 984.4 500 984.4S984.4 767 984.4 500C984.4 232.8 767 15.6 500 15.6zM64.5 500c0 -63.1 13.4 -123 37.6 -177.1L310 892C164.6 821.3 64.5 672.3 64.5 500zM500 935.5c-42.8 0 -84 -6.2 -123 -17.7L507.6 538.1l133.8 366.8c1 2.1 2 4.1 3.1 6 -45.1 15.9 -93.7 24.6 -144.5 24.6zm60 -639.6c26.1 -1.4 49.8 -4.1 49.8 -4.1 23.4 -2.7 20.7 -37.3 -2.8 -35.9 0 0 -70.5 5.4 -116 5.4 -42.8 0 -114.6 -5.4 -114.6 -5.4 -23.5 -1.4 -26.2 34.5 -2.8 35.9 0 0 22.3 2.7 45.7 4.1l67.8 185.9 -95.3 285.8L233.2 295.9c26.2 -1.4 49.8 -4.1 49.8 -4.1 23.4 -2.7 20.7 -37.3 -2.7 -35.9 0 0 -70.5 5.4 -116 5.4 -8.2 0 -17.8 -.2 -28.2 -.6C214.1 142.6 347.9 64.5 500 64.5c113.3 0 216.6 43.3 294.1 114.2 -1.9 -.2 -3.7 -.4 -5.6 -.4 -42.8 0 -73.1 37.3 -73.1 77.4 0 35.9 20.7 66.2 42.8 102.1 16.6 28.9 35.9 66.2 35.9 120.1 0 37.3 -14.2 80.5 -33.2 140.8l-43.3 145.2L560 295.9zm158.9 580.5L852 491.8c24.8 -62.1 33.2 -111.7 33.2 -156.1 0 -16 -1 -30.8 -3 -44.7 34 62.1 53.3 133.2 53.3 209 0 160.7 -87.1 301 -216.6 376.4z"/></svg>