
  <svg height="1000" width="1000.0" xmlns="http://www.w3.org/2000/svg">
    <path d="m500 15.6c267 0 484.4 217.2 484.4 484.4 0 267-217.4 484.4-484.4 484.4s-484.4-217.4-484.4-484.4c0-267.2 217.4-484.4 484.4-484.4z m-435.5 484.4c0 172.3 100.1 321.3 245.5 392l-207.9-569.1c-24.2 54.1-37.6 114-37.6 177.1z m435.5 435.5c50.8 0 99.4-8.7 144.5-24.6-1.1-1.9-2.1-3.9-3.1-6l-133.8-366.8-130.6 379.7c39 11.5 80.2 17.7 123 17.7z m60-639.6l157.6 468 43.3-145.1c19-60.4 33.2-103.6 33.2-140.9 0-53.9-19.3-91.2-35.9-120.1-22.1-35.9-42.8-66.2-42.8-102.1 0-40.1 30.3-77.4 73.1-77.4 1.9 0 3.7 0.2 5.6 0.4-77.5-70.9-180.8-114.2-294.1-114.2-152.2 0-285.9 78.1-363.9 196.2 10.4 0.4 20 0.6 28.2 0.6 45.5 0 116-5.4 116-5.4 23.4-1.4 26.1 33.2 2.7 35.9 0 0-23.6 2.7-49.8 4.1l158.6 471.7 95.3-285.8-67.8-185.9c-23.4-1.4-45.7-4.1-45.7-4.1-23.4-1.4-20.7-37.3 2.8-35.9 0 0 71.8 5.4 114.6 5.4 45.5 0 116-5.4 116-5.4 23.5-1.4 26.2 33.2 2.8 35.9 0 0-23.7 2.7-49.8 4.1z m158.9 580.5c129.5-75.4 216.6-215.7 216.6-376.4 0-75.8-19.3-146.9-53.3-209 2 13.9 3 28.7 3 44.7 0 44.4-8.4 94-33.2 156.1z" />
  </svg>
