
  <svg height="1000" width="1000.0" xmlns="http://www.w3.org/2000/svg">
    <path d="m120.5 330.9l198.3 542.9c-138.7-67.2-234.2-209.3-234.2-373.8 0-60.4 12.9-117.4 35.9-169.1z m660 148.2c0 35.5-13.7 76.8-31.3 134.2l-41.4 138.5-150.2-446.7c25-1.4 47.5-3.9 47.5-3.9 22.2-2.6 19.7-35.6-2.8-34.2 0 0-67.3 5.3-110.7 5.3-40.8 0-109.4-5.3-109.4-5.3-22.2-1.4-25 32.8-2.5 34.2 0 0 21.1 2.5 43.5 3.9l64.7 177.3-91 272.7-151.4-450c25-1.4 47.5-3.9 47.5-3.9 22.2-2.6 19.7-35.6-2.8-34.2 0 0-67.3 5.3-110.7 5.3-7.8 0-17-0.2-26.8-0.6 74.4-112.9 202.2-187.3 347.3-187.3 108.2 0 206.6 41.4 280.7 109.2-2-0.2-3.7-0.4-5.5-0.4-40.8 0-69.7 35.5-69.7 73.8 0 34.2 19.7 63.3 40.8 97.5 15.8 27.7 34.2 63.2 34.2 114.6z m-273.3 57.2l127.8 350c0.7 2 1.7 3.9 2.9 5.7-43.2 15.2-89.5 23.6-137.9 23.6-40.8 0-80.1-6-117.4-17z m357.4-235.7c32.5 59.2 50.8 127.1 50.8 199.4 0 153.3-83 287.1-206.6 359.2l126.9-367c23.9-59.4 31.7-106.7 31.7-148.8 0-15.5-1-29.5-2.8-42.8z m119.8 199.4c0 267.2-217.4 484.4-484.4 484.4-267.2 0-484.4-217.4-484.4-484.4 0-267.2 217.2-484.4 484.4-484.4 267 0 484.4 217.2 484.4 484.4z m-22.3 0c0-254.9-207.4-462.1-462.1-462.1-254.9 0-462.1 207.2-462.1 462.1s207.4 462.1 462.1 462.1c254.9 0 462.1-207.2 462.1-462.1z" />
  </svg>
