<svg height="1000" width="1000" xmlns="http://www.w3.org/2000/svg"><path d="M120.5 330.9l198.3 542.9C180.1 806.6 84.6 664.5 84.6 500c0 -60.4 12.9 -117.4 35.9 -169.1zm660 148.2c0 -51.4 -18.4 -86.9 -34.2 -114.6C725.2 330.3 705.5 301.2 705.5 267c0 -38.3 28.9 -73.8 69.7 -73.8 1.8 0 3.5 .2 5.5 .4C706.6 125.8 608.2 84.4 500 84.4c-145.1 0 -272.9 74.4 -347.3 187.3 9.8 .4 19 .6 26.8 .6 43.4 0 110.7 -5.3 110.7 -5.3 22.5 -1.4 25 31.6 2.8 34.2 0 0 -22.5 2.5 -47.5 3.9l151.4 450 91 -272.7L423.2 305.1c-22.4 -1.4 -43.5 -3.9 -43.5 -3.9C357.2 299.8 360 265.6 382.2 267c0 0 68.6 5.3 109.4 5.3 43.4 0 110.7 -5.3 110.7 -5.3 22.5 -1.4 25 31.6 2.8 34.2 0 0 -22.5 2.5 -47.5 3.9l150.2 446.7 41.4 -138.5c17.6 -57.4 31.3 -98.7 31.3 -134.2zm-273.3 57.2L382.6 898.6c37.3 11 76.6 17 117.4 17 48.4 0 94.7 -8.4 137.9 -23.6 -1.2 -1.8 -2.2 -3.7 -2.9 -5.7l-127.8 -350zM864.6 300.6c1.8 13.3 2.8 27.3 2.8 42.8 0 42.1 -7.8 89.4 -31.7 148.8l-126.9 367C832.4 787.1 915.4 653.3 915.4 500c0 -72.3 -18.3 -140.2 -50.8 -199.4zM984.4 500C984.4 767.2 767 984.4 500 984.4 232.8 984.4 15.6 767 15.6 500 15.6 232.8 232.8 15.6 500 15.6c267 0 484.4 217.2 484.4 484.4zm-22.3 0C962.1 245.1 754.7 37.9 500 37.9 245.1 37.9 37.9 245.1 37.9 500S245.3 962.1 500 962.1c254.9 0 462.1 -207.2 462.1 -462.1z"/></svg>