
  <svg height="1000" width="1000.0" xmlns="http://www.w3.org/2000/svg">
    <path d="m1000 500c0 275.8-224 500-500 500-275.8 0-500-224-500-500s224-500 500-500 500 224 500 500z m-62.5 0c0-240.6-195.9-437.5-437.5-437.5-241.2 0-437.5 196.3-437.5 437.5s196.3 437.5 437.5 437.5 437.5-196.3 437.5-437.5z m-623.2-256.6l169.7 72.4-72.5 169.7-169.7-72.4z m214.8 330.2l91 183.6h-28.5l-97.7-195.3-95.5 195.3h-27.3l99.8-208.8-43.6-18.3 11.8-27.4 133.9 56.9-11.7 27.9z m-23-227.1l133.9 57.4-57.4 133.4-133.4-56.8z m156.8 83.8l106.6 45.1-45.7 106-106-45.1z" />
  </svg>
