<svg height="1000" width="1000" xmlns="http://www.w3.org/2000/svg"><path d="M722.5 621.5c86.5 106 126.3 193 106.2 231.8C813.3 882.8 718 940.4 647.9 962.5c-57.9 18.2 -133.6 26 -196.1 19.9 -74.7 -7.2 -150.2 -34 -215.1 -76.2C182.2 870.7 169.9 856.1 169.9 827c0 -58.4 64.3 -160.8 174.2 -277.6 62.5 -66.2 149.5 -143.9 159 -141.8 18.4 4.1 164.7 146.7 219.4 213.9zM368.4 280.9C310.4 228.3 254.9 175.6 199.6 157c-29.7 -9.9 -31.8 -9.3 -56 15.9C86.5 232.2 39.1 328.5 25.8 411.9c-10.6 66.8 -11.9 85.6 -8.2 118.2 10.9 98.6 33.8 166.8 79.1 236.1 18.5 28.5 23.6 33.8 18.1 19.3 -8.2 -21.4 -.5 -73.2 18.6 -125C161.3 584.4 238.7 440 368.4 280.9zm608.6 124C943.9 248.6 845.1 150.4 831.3 150.4c-14.3 0 -47.3 12.7 -70.4 27.1 -45.5 28.4 -80 61.4 -125.5 103.2 82.8 104.1 199.6 272.2 240 395.1 13.3 40.4 18.9 80.3 14.4 102.1 -3.3 16.6 -3.3 16.6 2.8 9 11.9 -15 38.8 -61.1 49.6 -84.9 14.4 -31.7 29.3 -78.6 36.3 -114.7C986.9 543.4 986.1 449 977 404.9zM276 84c93.1 -4.9 214.2 67.4 223.2 69.1 1.4 .2 20.3 -8.2 42.2 -18.9C666.2 73.4 725 83.8 751.2 85 626.4 8.2 452.9 -12.7 294.3 62.1 248.6 83.8 247.5 85.4 276 84z"/></svg>