
  <svg height="1000" width="1000.0" xmlns="http://www.w3.org/2000/svg">
    <path d="m722.5 621.5c86.5 106 126.3 193 106.2 231.8-15.4 29.5-110.7 87.1-180.8 109.2-57.9 18.2-133.6 26-196.1 19.9-74.7-7.2-150.2-34-215.1-76.2-54.5-35.5-66.8-50.1-66.8-79.2 0-58.4 64.3-160.8 174.2-277.6 62.5-66.2 149.5-143.9 159-141.8 18.4 4.1 164.7 146.7 219.4 213.9z m-354.1-340.6c-129.7 159.1-207.1 303.5-235 379.6-19.1 51.8-26.8 103.6-18.6 125 5.5 14.5 0.4 9.2-18.1-19.3-45.3-69.3-68.2-137.5-79.1-236.1-3.7-32.6-2.4-51.4 8.2-118.2 13.3-83.4 60.7-179.7 117.8-239 24.2-25.2 26.3-25.8 56-15.9 55.3 18.6 110.8 71.3 168.8 123.9z m608.6 124c9.1 44.1 9.9 138.5 1.5 182.4-7 36.1-21.9 83-36.3 114.7-10.8 23.8-37.7 69.9-49.6 84.9-6.1 7.6-6.1 7.6-2.8-9 4.5-21.8-1.1-61.7-14.4-102.1-40.4-122.9-157.2-291-240-395.1 45.5-41.8 80-74.8 125.5-103.2 23.1-14.4 56.1-27.1 70.3-27.1 13.9 0 112.7 98.2 145.8 254.5z m-701-320.9c-28.5 1.4-27.4-0.2 18.3-21.9 158.6-74.8 332.1-53.9 456.9 22.9-26.2-1.2-85-11.6-209.8 49.2-21.9 10.7-40.8 19.1-42.2 18.9-9-1.7-130.1-74-223.2-69.1z" />
  </svg>
