
  <svg height="1000" width="875.0" xmlns="http://www.w3.org/2000/svg">
    <path d="m781.3 62.5c51.7 0 93.7 42 93.7 93.8v687.5c0 51.7-42 93.7-93.7 93.7h-687.5c-51.8 0-93.8-42-93.8-93.7v-687.5c0-51.8 42-93.8 93.8-93.8h687.5z m-507.1 562.9c9.6 0 17.8-5.7 24.6-17.8 62.7-110.3 95.3-167.8 97.9-172.2l-62.3-108.1c-6.7-11.3-15.1-16.9-25.2-16.9h-91c-11.4 0-17.6 8.7-11.8 19.7l61.4 105.4c0.2 0.2 0.2 0.4 0 0.4l-96.3 169.4c-5.3 9.7 1 20.1 11.7 20.1h91z m429.1-418.2c5.5-10.3-0.6-19.7-11.7-19.5h-91.6c-10 0-18 5.7-24.4 17-130.1 229.3-197.5 348-202 356l128.9 235c6.3 11.3 14.5 17 25.2 17h91.1c11.9 0 17.1-9.8 11.7-19.7l-128-232.5v-0.3z" />
  </svg>
