<svg height="1000" width="875" xmlns="http://www.w3.org/2000/svg"><path d="M781.3 62.5H93.8C42 62.5 0 104.5 0 156.3v687.5c0 51.7 42 93.7 93.8 93.7h687.5c51.7 0 93.7 -42 93.7 -93.7V156.3c0 -51.8 -42 -93.8 -93.7 -93.8zM274.2 625.4h-91c-10.7 0 -17 -10.4 -11.7 -20.1l96.3 -169.4c.2 0 .2 -.2 0 -.4L206.4 330.1c-5.8 -11 .4 -19.7 11.8 -19.7h91c10.1 0 18.5 5.6 25.2 16.9l62.3 108.1c-2.6 4.4 -35.2 61.9 -97.9 172.2 -6.8 12.1 -15 17.8 -24.6 17.8zM703.3 207.2l-200.8 353v.3l128 232.5c5.4 9.9 .2 19.7 -11.7 19.7h-91.1c-10.7 0 -18.9 -5.7 -25.2 -17l-128.9 -235c4.5 -8 71.9 -126.7 202 -356 6.4 -11.3 14.4 -17 24.4 -17h91.6c11.1 -.2 17.2 9.2 11.7 19.5z"/></svg>