
  <svg height="1000" width="1000.0" xmlns="http://www.w3.org/2000/svg">
    <path d="m823.8 297.2c-94.1 51.5-231.6 113.6-254.3 97.7s178.6-157 208.4-173.4c1.8-1 3.5-1.9 5.1-2.7 4.1-1.2 8.4-1.9 12.8-1.9 24.9 0 45 20.2 45 45 0 14.3-6.6 27.1-17 35.3z m0 424.2c10.3 8.2 16.9 20.9 16.9 35.1 0 24.9-20.2 45.1-45.1 45.1-4.4 0-8.6-0.7-12.6-1.8-1.6-0.8-3.3-1.8-5.1-2.8-29.9-16.4-231-157.5-208.4-173.3 22.6-15.8 160.2 46.1 254.3 97.7z m82.9-258.5c20.3 4.3 35.6 22.3 35.6 44 0 22.3-16.3 40.8-37.7 44.3-107.2 0-257.6-11.7-269.9-36.6-12.3-25 232.1-51.8 266.1-51.8 2.1 0 4 0.1 5.9 0.1z m-846.2-274.1c-1.5-4.8-2.4-10-2.4-15.3 0-26.9 21.8-48.6 48.6-48.6 19.4 0 36.2 11.4 44 27.9l158.2 400.5h2.3l150.4-397.5c6.7-17.1 23.4-29.2 42.8-29.2 25.4 0 46 20.6 46 45.9 0 4.6-0.7 9-2 13.1l-214 534c-36.3 92.2-72.5 155.4-182.2 155.4-0.4 0-0.8 0-1.1 0-15.6 0-30.6-1.3-45.4-3.8-17.4-5-30.2-21-30.2-40 0-23 18.7-41.6 41.6-41.6 0.7 0 1.4 0 2 0 1.3 0.1 21.3 1.3 27.1 1.3 59.5 0 85.4-37 113.4-116z" />
  </svg>
