
  <svg height="1000" width="750.0" xmlns="http://www.w3.org/2000/svg">
    <path d="m83.8 469.4l194.6 94.9c37.5 18.4 31.6 73.3-8.8 83.4l-210 52.4c-3.5 0.9-7.2 1.3-10.9 1.3-22.9 0-41.8-17.3-44.2-39.6-1.7-14.5-2.6-29.3-2.6-44.3 0-42.9 7.2-83.8 20.1-122.3 6-17.6 22.7-30.3 42.3-30.3 7 0 13.6 1.6 19.5 4.5z m85.9 467.3c-11.7-8.1-19.4-21.6-19.4-36.8 0-11.5 4.4-21.9 11.5-29.8l144.9-161c27.9-30.8 79.1-10.1 77.8 31.5l-7.7 216.4c-0.8 23.9-20.3 43-44.4 43-2.6 0-5.1-0.2-7.6-0.6-56.5-9.6-109.6-31.6-155.1-62.7z m283.9-214.7c-22.1-35.4 12.1-79 51.8-66.3l205.9 67c17.8 5.9 30.7 22.8 30.7 42.6 0 6.8-1.5 13.2-4.2 19-24.5 51.4-59.5 96.1-102.9 132-7.8 6.4-17.7 10.3-28.5 10.3-16 0-30-8.4-37.9-21z m289.7-258.3c2.4 5.5 3.8 11.5 3.8 17.9 0 20.4-13.6 37.6-32.3 43.1l-208.2 59.6c-40.1 11.5-72.5-33.3-49.3-67.8l121.1-179.6c8.1-11.8 21.6-19.6 37-19.6 11.3 0 21.6 4.2 29.4 11 42.2 37.2 75.8 83.1 98.5 135.4z m-622-404.8c67.1-31.9 141.8-52.6 219.4-58.7 1.2-0.1 2.4-0.2 3.6-0.2 24.4 0 44.3 19.8 44.3 44.3 0 0.1 0 0.3 0 0.4v406.9c0 45.5-60.4 61.7-83.3 22.3l-203.3-352.5c-3.8-6.5-6-14.1-6-22.2 0-17.7 10.3-33 25.3-40.3z" />
  </svg>
