<svg height="1000" width="750" xmlns="http://www.w3.org/2000/svg"><path d="M267.4 640.6c-2 .6 -213.3 69.8 -226.2 69.8C11.5 708.6 5.1 678.7 2.3 649.4 -.6 621.7 -.4 591.2 2.9 558c3.7 -36.7 10.8 -88.1 47.3 -85.9 9.4 0 131.1 50.6 220.1 86.7 33.4 13.3 36.3 69.9 -2.9 81.8zM380.5 418.2c3.5 74.6 -49.8 94.7 -92.2 27.9L80.7 118c-3 -12.9 .6 -24.2 10.3 -34C121.5 51.8 285.2 6.2 328.3 17.4c14.7 3.7 23.7 11.9 27 24.6 2.5 16.2 22.4 326.9 25.2 376.2zM377.7 740c0 9 .4 227.4 -3.3 237.3 -4.5 11.8 -13.7 19 -27.9 21.9 -19.7 3.3 -52.9 -3.7 -99.6 -20.9 -43 -15.8 -110.8 -42 -96.3 -83 5.5 -13.5 100.4 -122.6 151 -182.8 23.4 -29.7 77.7 -10.7 76.1 27.5zm352 -230c-10.9 7.2 -216.4 55 -230.7 59.7l.6 -1.1c-35.3 9.1 -69.1 -36.2 -45.5 -67.6 7.2 -7.3 128.7 -180.5 142.2 -189.5 10.1 -7 22.1 -7.4 35.7 -1.1 36 17.1 107.6 123.2 112.1 165.2 -.2 5.6 2.4 22.8 -14.4 34.4zm19.7 255.2c-5.3 40.3 -86.9 143.4 -124.6 158.2 -13.5 5.1 -25.2 3.9 -34.6 -3.9C580.5 912.7 469.5 729.9 463.5 719.7c-21.3 -31.6 13.3 -77.7 50 -64.8 0 0 215.8 69.7 224 76.9 10.2 8 14.1 19.2 11.9 33.4z"/></svg>