
  <svg height="1000" width="875.0" xmlns="http://www.w3.org/2000/svg">
    <path d="m178.3 148.4h363.3l-13.7 37h-349.6c-77.5 0-140.4 61.7-140.4 137.3v401.1c0 69.2 48.6 137.3 164.1 137.3v37.3h-23.7c-97.8 0-178.3-78.5-178.3-174.8v-400.9c0-96.3 79.5-174.3 178.3-174.3z m447.5-109.3h129.9c-280.9 738.4-284.6 779.1-360.8 858-40.6 42.2-96.3 61.9-152.9 63.8v-99.8c96.1-15 126.2-97.4 126.2-147 0-39.3 1.1-24.6-160.4-436h119.9l98.5 305.9z m249.2 276.3v583h-418c12.9-18.7 20.9-31.8 23.7-37.9h356.4v-545.1c0-63.4-33.4-101.3-94.1-122.8l13.1-34.4c81.4 26.6 118.9 84.2 118.9 157.2z" />
  </svg>
