
  <svg height="1000" width="875.0" xmlns="http://www.w3.org/2000/svg">
    <path d="m364.8 394.7l186 105.7-186 105.7v-211.4z m510.2-238.4v687.5c0 51.7-42 93.7-93.7 93.7h-687.5c-51.8 0-93.8-42-93.8-93.7v-687.5c0-51.8 42-93.8 93.8-93.8h687.5c51.7 0 93.7 42 93.7 93.8z m-82 344.3c0 0 0-116.4-14.9-172.3-8.2-30.8-32.2-55.1-62.9-63.3-55.2-15-277.7-15-277.7-15s-222.5 0-277.7 15c-30.7 8.2-54.7 32.5-62.9 63.3-14.9 55.7-14.9 172.3-14.9 172.3s0 116.4 14.9 172.3c8.2 30.8 32.2 54.1 62.9 62.3 55.2 14.8 277.7 14.8 277.7 14.8s222.5 0 277.7-15c30.7-8.2 54.7-31.5 62.9-62.3 14.9-55.7 14.9-172.1 14.9-172.1z" />
  </svg>
