
  <svg height="1000" width="1250.0" xmlns="http://www.w3.org/2000/svg">
    <path d="m333.1 289.3h239.6v424.9h-96.7l-82.1 51.5-15.1-51.5-45.7 0v-424.9z m190.9 378.8v-332.7h-142.2v332.7l23.2 0.1 9.9 34.1 54.5-34.2h54.6z m-231.4-184.4c14.7 0 14.9 46.1 14.9 46.1h-120.5c-1.7 25.7-6.8 52.2-15.3 79.5l28.5-22.7c17.1 17.1 57.1 64.2 71.9 81.6 17.9 25.6 2.4 78.1 2.4 78.1l-105.4-126.8c-24.6 94.4-69.5 135.3-69.5 135.3-19.7 17.5-59.6 30.7-99.6 19.3 83.7-64.9 129.8-147 138.4-244.3h-128.1s7.5-46.2 30.4-46.2h102.1c0.9-12.8 3.3-122.9 3.3-143.4h-56.4c-5.2 15.4-6 16.9-10.1 28.4-22.4 41-60.4 42.1-71.9 43.4 34.1-68.4 53.3-135.2 59.9-152.6 16.1-42.2 63.1-42.2 63.1-42.2-10.3 27.4-18.8 53.9-25.7 79.5h172.9c20.6-0.5 16.7 43.6 16.7 43.6h-99.9c0 42.7-0.9 90.5-4.3 143.4h102.2z m804.8-3.1l-37.6-28.2s60.2-78.2 71.9-94.1c17.1-21 53.5 7.9 53.5 7.9s-47.2 64.3-87.8 114.4z m-293.2-115.4l0 0c17.6 16.1 67.7 89.5 67.7 89.5l-38 26.9c-3.1-4.7-80.3-112.2-80.3-112.2s33-20.3 50.6-4.2z m445.8 139.4c0 0 1.9 46.5-17.1 46.5h-238.9v143.2c1.5 54.7-30 88.5-87.7 88.5-19.2 0-31.5-3.5-50.8-12.9-25.4-14.5-33.9-34.9-37.7-42.6 30.4 1.3 53.9 3.7 81.4 3.5 25.9 1.7 47.8-14 47.8-41.2v-138.6h-210.8c-44.3-1-49.9-44.6-49.9-44.6h260.7v-194.9c-25 0-61.8 1.6-110.3 4.7-51.7 1.6-70 5.1-96-1.7-16-4.9-27.7-21-30.9-38.2 131.2-3.1 453.9-35.3 453.9-35.3s39.2-11.2 45.2-8.9c25 12.2 1.2 65.3 1.2 65.3-34.5 1.6-91.6 4.7-171.4 9.4-20.4 1.6-35.3 2.3-44.7 2.3v197.3c0.3 0 217.4-1.8 256-1.8z" />
  </svg>
