<svg height="1000" width="1250" xmlns="http://www.w3.org/2000/svg"><path d="M333.1 289.3v424.9h45.7l15.1 51.5L476 714.2h96.7V289.3H333.1zM524 668.1h-54.6l-54.5 34.2L405 668.2l-23.2 -.1V335.4H524v332.7zM292.6 483.7H190.4c3.4 -52.9 4.3 -100.7 4.3 -143.4h99.9s3.9 -44.1 -16.7 -43.6H105c6.9 -25.6 15.4 -52.1 25.7 -79.5 0 0 -47 0 -63.1 42.2C61 276.8 41.8 343.6 7.7 412c11.5 -1.3 49.5 -2.4 71.9 -43.4 4.2 -11.5 4.9 -13 10.1 -28.4h56.4c0 20.5 -2.4 130.6 -3.3 143.4H40.7c-22.9 0 -30.4 46.2 -30.4 46.2h128.1C129.8 627.1 83.7 709.2 0 774.1c40 11.4 79.9 -1.8 99.6 -19.3 0 0 44.9 -40.9 69.5 -135.3l105.4 126.8s15.5 -52.5 -2.4 -78.1c-14.8 -17.4 -54.8 -64.5 -71.9 -81.6l-28.5 22.7c8.5 -27.3 13.6 -53.8 15.4 -79.5h120.4s-.2 -46.1 -14.9 -46.1zm804.8 -3.1c40.6 -50.1 87.8 -114.4 87.8 -114.4s-36.4 -28.9 -53.5 -7.9c-11.7 15.9 -71.9 94.1 -71.9 94.1l37.6 28.2zM804.2 365.2c-17.6 -16.1 -50.6 4.2 -50.6 4.2s77.2 107.5 80.3 112.2l38 -26.9s-50.1 -73.4 -67.7 -89.5zM1250 504.6c-38.6 0 -255.7 1.8 -256 1.8V309.1c9.4 0 24.3 -.7 44.7 -2.3 79.8 -4.7 136.9 -7.8 171.4 -9.4 0 0 23.8 -53.1 -1.2 -65.3 -6 -2.3 -45.2 8.9 -45.2 8.9S841 273.2 709.8 276.3c3.2 17.2 14.9 33.3 30.9 38.2 26 6.8 44.3 3.3 96 1.7 48.5 -3.1 85.3 -4.7 110.3 -4.7v194.9H686.3s5.6 43.6 49.9 44.6H947v138.6c0 27.2 -21.9 42.9 -47.8 41.2 -27.5 .2 -51 -2.2 -81.4 -3.5 3.8 7.7 12.3 28.1 37.7 42.6 19.3 9.4 31.6 12.9 50.8 12.9 57.7 0 89.2 -33.8 87.7 -88.5V551.1h238.9c19 0 17 -46.5 17 -46.5h.1z"/></svg>